<svg width="256" height="256" viewBox="0 0 256 256" fill="none" xmlns="http://www.w3.org/2000/svg">
<path fill-rule="evenodd" clip-rule="evenodd" d="M147.73 186.19L195.46 138.46C201.513 132.407 201.513 122.593 195.46 116.54L147.73 68.8099C141.677 62.7567 131.863 62.7567 125.81 68.8099C122.767 71.8531 121.253 75.8621 121.27 79.8392C121.27 79.8686 121.27 79.898 121.27 79.9274V112H71.5C62.9396 112 56 118.939 56 127.5C56 136.06 62.9396 143 71.5 143H121.27V175.471C121.27 175.735 121.282 176 121.305 176.265C121.546 179.872 123.051 183.431 125.81 186.19C131.863 192.243 141.677 192.243 147.73 186.19ZM129.28 175.619C129.373 177.407 130.102 179.167 131.467 180.533C134.396 183.462 139.145 183.462 142.074 180.533L189.803 132.803C192.732 129.874 192.732 125.125 189.803 122.196L142.074 74.4667C139.145 71.5378 134.396 71.5378 131.467 74.4667C129.975 75.959 129.243 77.9236 129.271 79.8793C129.27 79.8952 129.27 79.9112 129.27 79.9274V112V120H121.27L71.5 120C67.3579 120 64 123.358 64 127.5C64 131.642 67.3579 135 71.5 135H121.27H129.27V143V175.471C129.27 175.522 129.274 175.571 129.28 175.619Z" fill="white"/>
</svg>
