<svg width="256" height="256" viewBox="0 0 256 256" fill="none" xmlns="http://www.w3.org/2000/svg">
<path fill-rule="evenodd" clip-rule="evenodd" d="M67.6511 91.6792C61.5372 97.6709 61.438 107.484 67.4297 113.598L116.43 163.598C121.866 169.146 130.436 169.739 136.552 165.333C137.398 164.759 138.194 164.097 138.927 163.349L187.927 113.349C193.919 107.235 193.819 97.4214 187.705 91.4297C181.592 85.438 171.778 85.5372 165.786 91.6511L127.556 130.662L89.5703 91.9006C83.5786 85.7867 73.7651 85.6875 67.6511 91.6792ZM121.955 136.376L83.8566 97.5001C80.9574 94.5417 76.2089 94.4937 73.2505 97.3929C70.2922 100.292 70.2442 105.041 73.1434 107.999L122.143 157.999C124.799 160.709 129.006 160.977 131.967 158.775C132.41 158.485 132.828 158.143 133.213 157.749L182.213 107.749C185.112 104.791 185.064 100.043 182.106 97.1434C179.148 94.2442 174.399 94.2922 171.5 97.2505L133.157 136.376L127.556 142.091L121.955 136.376Z" fill="white"/>
</svg>
