<svg width="256" height="256" viewBox="0 0 256 256" fill="none" xmlns="http://www.w3.org/2000/svg">
<mask id="path-1-outside-1_45_757" maskUnits="userSpaceOnUse" x="55.5" y="64.7705" width="144" height="127" fill="black">
<rect fill="white" x="55.5" y="64.7705" width="144" height="127"/>
<path fill-rule="evenodd" clip-rule="evenodd" d="M113.426 74.9672L65.6967 122.697C62.7678 125.626 62.7678 130.375 65.6967 133.304L113.426 181.033C116.355 183.962 121.104 183.962 124.033 181.033C126.962 178.104 126.962 173.356 124.033 170.427L89.1066 135.5H184C188.142 135.5 191.5 132.142 191.5 128C191.5 123.858 188.142 120.5 184 120.5H89.1066L124.033 85.5738C126.962 82.6449 126.962 77.8961 124.033 74.9672C121.104 72.0383 116.355 72.0383 113.426 74.9672Z"/>
</mask>
<path d="M65.6967 122.697L71.3536 128.354L65.6967 122.697ZM113.426 74.9672L107.77 69.3104L113.426 74.9672ZM65.6967 133.304L71.3536 127.647L65.6967 133.304ZM113.426 181.033L107.77 186.69L113.426 181.033ZM124.033 170.427L118.376 176.083L124.033 170.427ZM89.1066 135.5V127.5H69.7929L83.4497 141.157L89.1066 135.5ZM89.1066 120.5L83.4497 114.843L69.7929 128.5H89.1066V120.5ZM124.033 85.5738L118.376 79.917L124.033 85.5738ZM71.3536 128.354L119.083 80.6241L107.77 69.3104L60.0398 117.04L71.3536 128.354ZM71.3536 127.647C71.5488 127.842 71.5488 128.159 71.3536 128.354L60.0398 117.04C53.9867 123.093 53.9867 132.907 60.0398 138.96L71.3536 127.647ZM119.083 175.376L71.3536 127.647L60.0398 138.96L107.77 186.69L119.083 175.376ZM118.376 175.376C118.571 175.181 118.888 175.181 119.083 175.376L107.77 186.69C113.823 192.743 123.637 192.743 129.69 186.69L118.376 175.376ZM118.376 176.083C118.181 175.888 118.181 175.572 118.376 175.376L129.69 186.69C135.743 180.637 135.743 170.823 129.69 164.77L118.376 176.083ZM83.4497 141.157L118.376 176.083L129.69 164.77L94.7635 129.843L83.4497 141.157ZM184 127.5H89.1066V143.5H184V127.5ZM183.5 128C183.5 127.724 183.724 127.5 184 127.5V143.5C192.56 143.5 199.5 136.561 199.5 128H183.5ZM184 128.5C183.724 128.5 183.5 128.276 183.5 128H199.5C199.5 119.44 192.56 112.5 184 112.5V128.5ZM89.1066 128.5H184V112.5H89.1066V128.5ZM118.376 79.917L83.4497 114.843L94.7635 126.157L129.69 91.2307L118.376 79.917ZM118.376 80.6241C118.181 80.4288 118.181 80.1122 118.376 79.917L129.69 91.2307C135.743 85.1775 135.743 75.3635 129.69 69.3104L118.376 80.6241ZM119.083 80.6241C118.888 80.8193 118.571 80.8193 118.376 80.6241L129.69 69.3104C123.637 63.2572 113.823 63.2572 107.77 69.3104L119.083 80.6241Z" fill="white" mask="url(#path-1-outside-1_45_757)"/>
</svg>
