<svg width="256" height="256" viewBox="0 0 256 256" fill="none" xmlns="http://www.w3.org/2000/svg">
<path fill-rule="evenodd" clip-rule="evenodd" d="M108.27 186.19L60.5398 138.46C54.4867 132.407 54.4867 122.593 60.5398 116.54L108.27 68.8099C114.323 62.7567 124.137 62.7567 130.19 68.8099C132.914 71.5342 134.417 75.0388 134.686 78.6003C134.715 78.8992 134.73 79.1983 134.73 79.4965V112H184.5C193.06 112 200 118.939 200 127.5C200 136.06 193.06 143 184.5 143H134.73V175.403C134.73 175.597 134.724 175.792 134.711 175.986C134.531 179.688 133.02 183.359 130.19 186.19C124.137 192.243 114.323 192.243 108.27 186.19ZM126.724 175.513C126.656 177.337 125.925 179.14 124.533 180.533C121.604 183.462 116.855 183.462 113.926 180.533L66.1967 132.803C63.2678 129.874 63.2678 125.125 66.1967 122.196L113.926 74.4667C116.855 71.5378 121.604 71.5378 124.533 74.4667C125.885 75.8191 126.613 77.5595 126.717 79.3295C126.725 79.3832 126.73 79.4389 126.73 79.4965V112V120H134.73L184.5 120C188.642 120 192 123.358 192 127.5C192 131.642 188.642 135 184.5 135H134.73H126.73V143V175.403C126.73 175.441 126.728 175.477 126.724 175.513Z" fill="white"/>
</svg>
