<svg width="256" height="256" viewBox="0 0 256 256" fill="none" xmlns="http://www.w3.org/2000/svg">
<path fill-rule="evenodd" clip-rule="evenodd" d="M67.6511 163.57C61.5372 157.579 61.438 147.765 67.4297 141.651L116.43 91.6512C121.866 86.1036 130.436 85.511 136.552 89.9168C137.398 90.4903 138.194 91.1528 138.927 91.9007L187.927 141.901C193.919 148.015 193.819 157.828 187.705 163.82C181.592 169.812 171.778 169.712 165.786 163.598L127.556 124.588L89.5703 163.349C83.5786 169.463 73.7651 169.562 67.6511 163.57ZM121.955 118.873L83.8566 157.75C80.9574 160.708 76.2089 160.756 73.2505 157.857C70.2922 154.957 70.2442 150.209 73.1434 147.251L122.143 97.2506C124.799 94.541 129.006 94.2729 131.967 96.4747C132.41 96.765 132.828 97.1068 133.213 97.5001L182.213 147.5C185.112 150.458 185.064 155.207 182.106 158.106C179.148 161.005 174.399 160.957 171.5 157.999L133.157 118.873L127.556 113.158L121.955 118.873Z" fill="white"/>
</svg>
