<svg width="256" height="256" viewBox="0 0 256 256" fill="none" xmlns="http://www.w3.org/2000/svg">
<path fill-rule="evenodd" clip-rule="evenodd" d="M69.3101 107.77L117.04 60.0398C123.093 53.9867 132.907 53.9867 138.96 60.0398L186.69 107.77C192.743 113.823 192.743 123.637 186.69 129.69C184.151 132.229 180.931 133.709 177.618 134.115C177.14 134.192 176.658 134.23 176.176 134.23H143.5V184C143.5 192.56 136.56 199.5 128 199.5C119.44 199.5 112.5 192.56 112.5 184L112.5 134.23H81.0239C80.9133 134.23 80.8027 134.228 80.692 134.224C76.5998 134.334 72.4453 132.825 69.3101 129.69C63.257 123.637 63.257 113.823 69.3101 107.77ZM80.818 126.21C78.7204 126.362 76.5708 125.637 74.967 124.033C72.038 121.104 72.038 116.355 74.967 113.426L122.697 65.6967C125.626 62.7678 130.374 62.7678 133.303 65.6967L181.033 113.426C183.962 116.355 183.962 121.104 181.033 124.033C179.75 125.316 178.117 126.037 176.441 126.196C176.358 126.218 176.269 126.23 176.176 126.23H143.5H135.5V134.23V184C135.5 188.142 132.142 191.5 128 191.5C123.858 191.5 120.5 188.142 120.5 184L120.5 134.23V126.23H112.5H81.0239C80.9524 126.23 80.8836 126.223 80.818 126.21Z" fill="white"/>
</svg>
