<svg width="256" height="256" viewBox="0 0 256 256" fill="none" xmlns="http://www.w3.org/2000/svg">
<mask id="path-1-outside-1_45_753" maskUnits="userSpaceOnUse" x="64.7703" y="55.5" width="127" height="144" fill="black">
<rect fill="white" x="64.7703" y="55.5" width="127" height="144"/>
<path fill-rule="evenodd" clip-rule="evenodd" d="M74.967 113.426L122.697 65.6967C125.626 62.7678 130.374 62.7678 133.303 65.6967L181.033 113.426C183.962 116.355 183.962 121.104 181.033 124.033C178.104 126.962 173.355 126.962 170.426 124.033L135.5 89.1066L135.5 184C135.5 188.142 132.142 191.5 128 191.5C123.858 191.5 120.5 188.142 120.5 184L120.5 89.1066L85.5736 124.033C82.6446 126.962 77.8959 126.962 74.967 124.033C72.038 121.104 72.038 116.355 74.967 113.426Z"/>
</mask>
<path d="M122.697 65.6967L128.354 71.3536L122.697 65.6967ZM74.967 113.426L69.3101 107.77L74.967 113.426ZM133.303 65.6967L127.646 71.3536L133.303 65.6967ZM181.033 113.426L186.69 107.77L181.033 113.426ZM170.426 124.033L176.083 118.376L170.426 124.033ZM135.5 89.1066L141.157 83.4497L127.5 69.7929V89.1066H135.5ZM135.5 184H127.5H135.5ZM128 191.5V183.5V191.5ZM120.5 184H112.5H120.5ZM120.5 89.1066H128.5V69.7929L114.843 83.4497L120.5 89.1066ZM85.5736 124.033L79.9167 118.376V118.376L85.5736 124.033ZM117.04 60.0398L69.3101 107.77L80.6238 119.083L128.354 71.3536L117.04 60.0398ZM138.96 60.0398C132.907 53.9867 123.093 53.9867 117.04 60.0398L128.354 71.3536C128.158 71.5488 127.842 71.5488 127.646 71.3536L138.96 60.0398ZM186.69 107.77L138.96 60.0398L127.646 71.3536L175.376 119.083L186.69 107.77ZM186.69 129.69C192.743 123.637 192.743 113.823 186.69 107.77L175.376 119.083C175.181 118.888 175.181 118.571 175.376 118.376L186.69 129.69ZM164.77 129.69C170.823 135.743 180.637 135.743 186.69 129.69L175.376 118.376C175.571 118.181 175.888 118.181 176.083 118.376L164.77 129.69ZM129.843 94.7635L164.77 129.69L176.083 118.376L141.157 83.4497L129.843 94.7635ZM143.5 184V89.1066H127.5L127.5 184H143.5ZM128 199.5C136.56 199.5 143.5 192.56 143.5 184H127.5C127.5 183.724 127.724 183.5 128 183.5V199.5ZM112.5 184C112.5 192.56 119.44 199.5 128 199.5V183.5C128.276 183.5 128.5 183.724 128.5 184H112.5ZM112.5 89.1066L112.5 184H128.5L128.5 89.1066H112.5ZM91.2304 129.69L126.157 94.7635L114.843 83.4497L79.9167 118.376L91.2304 129.69ZM69.3101 129.69C75.3632 135.743 85.1773 135.743 91.2304 129.69L79.9167 118.376C80.112 118.181 80.4286 118.181 80.6238 118.376L69.3101 129.69ZM69.3101 107.77C63.257 113.823 63.257 123.637 69.3101 129.69L80.6238 118.376C80.8191 118.571 80.8191 118.888 80.6238 119.083L69.3101 107.77Z" fill="white" mask="url(#path-1-outside-1_45_753)"/>
</svg>
