<svg width="256" height="256" viewBox="0 0 256 256" fill="none" xmlns="http://www.w3.org/2000/svg">
<path fill-rule="evenodd" clip-rule="evenodd" d="M163.57 187.706C157.579 193.819 147.765 193.919 141.651 187.927L91.6511 138.927C86.1036 133.49 85.511 124.92 89.9167 118.804C90.4902 117.959 91.1528 117.163 91.9006 116.43L141.901 67.4297C148.015 61.438 157.828 61.5372 163.82 67.6511C169.812 73.7651 169.712 83.5786 163.598 89.5703L124.588 127.801L163.349 165.786C169.463 171.778 169.562 181.592 163.57 187.706ZM118.873 133.401L157.749 171.5C160.708 174.399 160.756 179.148 157.857 182.106C154.957 185.064 150.209 185.112 147.251 182.213L97.2505 133.213C94.5409 130.558 94.2728 126.351 96.4746 123.389C96.7649 122.947 97.1068 122.529 97.5 122.143L147.5 73.1434C150.458 70.2442 155.207 70.2922 158.106 73.2505C161.005 76.2089 160.957 80.9574 157.999 83.8566L118.873 122.2L113.158 127.801L118.873 133.401Z" fill="white"/>
</svg>
