<svg width="256" height="256" viewBox="0 0 256 256" fill="none" xmlns="http://www.w3.org/2000/svg">
<path fill-rule="evenodd" clip-rule="evenodd" d="M91.6792 187.706C97.6709 193.819 107.484 193.919 113.598 187.927L163.598 138.927C169.146 133.49 169.739 124.92 165.333 118.804C164.759 117.959 164.097 117.163 163.349 116.43L113.349 67.4297C107.235 61.438 97.4214 61.5372 91.4297 67.6511C85.438 73.7651 85.5372 83.5786 91.6511 89.5703L130.662 127.801L91.9006 165.786C85.7867 171.778 85.6875 181.592 91.6792 187.706ZM136.376 133.401L97.5001 171.5C94.5417 174.399 94.4937 179.148 97.3929 182.106C100.292 185.064 105.041 185.112 107.999 182.213L157.999 133.213C160.709 130.558 160.977 126.351 158.775 123.389C158.485 122.947 158.143 122.529 157.749 122.143L107.749 73.1434C104.791 70.2442 100.043 70.2922 97.1434 73.2505C94.2442 76.2089 94.2922 80.9574 97.2505 83.8566L136.376 122.2L142.091 127.801L136.376 133.401Z" fill="white"/>
</svg>
