<svg width="256" height="256" viewBox="0 0 256 256" fill="none" xmlns="http://www.w3.org/2000/svg">
<path fill-rule="evenodd" clip-rule="evenodd" d="M69.5398 147.73L117.27 195.46C123.323 201.513 133.137 201.513 139.19 195.46L186.92 147.73C192.973 141.677 192.973 131.863 186.92 125.81C184.282 123.173 180.912 121.68 177.467 121.344C177.083 121.294 176.698 121.27 176.314 121.27H143.73V71.5C143.73 62.9396 136.79 56 128.23 56C119.669 56 112.73 62.9396 112.73 71.5L112.73 121.27H81.2459C81.1364 121.27 81.0269 121.272 80.9173 121.276C76.8266 121.167 72.6739 122.676 69.5398 125.81C63.4867 131.863 63.4867 141.677 69.5398 147.73ZM81.042 129.29C78.9462 129.139 76.7991 129.865 75.1967 131.467C72.2678 134.396 72.2678 139.145 75.1967 142.074L122.926 189.803C125.855 192.732 130.604 192.732 133.533 189.803L181.263 142.074C184.192 139.145 184.192 134.396 181.263 131.467C179.943 130.147 178.253 129.422 176.527 129.292C176.46 129.278 176.388 129.27 176.314 129.27H143.73H135.73V121.27V71.5C135.73 67.3579 132.372 64 128.23 64C124.088 64 120.73 67.3579 120.73 71.5L120.73 121.27V129.27H112.73H81.2459C81.175 129.27 81.107 129.277 81.042 129.29Z" fill="white"/>
</svg>
