<svg width="256" height="256" viewBox="0 0 256 256" fill="none" xmlns="http://www.w3.org/2000/svg">
<mask id="path-1-outside-1_45_759" maskUnits="userSpaceOnUse" x="55.5" y="64.7705" width="144" height="127" fill="black">
<rect fill="white" x="55.5" y="64.7705" width="144" height="127"/>
<path fill-rule="evenodd" clip-rule="evenodd" d="M141.574 74.9672L189.303 122.697C192.232 125.626 192.232 130.375 189.303 133.304L141.574 181.033C138.645 183.962 133.896 183.962 130.967 181.033C128.038 178.104 128.038 173.356 130.967 170.427L165.893 135.5H71C66.8579 135.5 63.5 132.142 63.5 128C63.5 123.858 66.8579 120.5 71 120.5H165.893L130.967 85.5738C128.038 82.6449 128.038 77.8961 130.967 74.9672C133.896 72.0383 138.645 72.0383 141.574 74.9672Z"/>
</mask>
<path d="M189.303 122.697L183.646 128.354L189.303 122.697ZM141.574 74.9672L147.23 69.3104L141.574 74.9672ZM189.303 133.304L183.646 127.647L189.303 133.304ZM141.574 181.033L147.23 186.69L141.574 181.033ZM130.967 170.427L136.624 176.083L130.967 170.427ZM165.893 135.5L171.55 141.157L185.207 127.5H165.893V135.5ZM165.893 120.5V128.5H185.207L171.55 114.843L165.893 120.5ZM130.967 85.5738L136.624 79.917L130.967 85.5738ZM194.96 117.04L147.23 69.3104L135.917 80.6241L183.646 128.354L194.96 117.04ZM194.96 138.96C201.013 132.907 201.013 123.093 194.96 117.04L183.646 128.354C183.451 128.159 183.451 127.842 183.646 127.647L194.96 138.96ZM147.23 186.69L194.96 138.96L183.646 127.647L135.917 175.376L147.23 186.69ZM125.31 186.69C131.363 192.743 141.177 192.743 147.23 186.69L135.917 175.376C136.112 175.181 136.429 175.181 136.624 175.376L125.31 186.69ZM125.31 164.77C119.257 170.823 119.257 180.637 125.31 186.69L136.624 175.376C136.819 175.572 136.819 175.888 136.624 176.083L125.31 164.77ZM160.237 129.843L125.31 164.77L136.624 176.083L171.55 141.157L160.237 129.843ZM71 143.5H165.893V127.5H71V143.5ZM55.5 128C55.5 136.561 62.4396 143.5 71 143.5V127.5C71.2761 127.5 71.5 127.724 71.5 128H55.5ZM71 112.5C62.4396 112.5 55.5 119.44 55.5 128H71.5C71.5 128.276 71.2761 128.5 71 128.5V112.5ZM165.893 112.5H71V128.5H165.893V112.5ZM125.31 91.2307L160.237 126.157L171.55 114.843L136.624 79.917L125.31 91.2307ZM125.31 69.3104C119.257 75.3635 119.257 85.1775 125.31 91.2307L136.624 79.917C136.819 80.1122 136.819 80.4288 136.624 80.6241L125.31 69.3104ZM147.23 69.3104C141.177 63.2572 131.363 63.2572 125.31 69.3104L136.624 80.6241C136.429 80.8193 136.112 80.8193 135.917 80.6241L147.23 69.3104Z" fill="white" mask="url(#path-1-outside-1_45_759)"/>
</svg>
