<svg width="256" height="256" viewBox="0 0 256 256" fill="none" xmlns="http://www.w3.org/2000/svg">
<mask id="path-1-outside-1_142_59" maskUnits="userSpaceOnUse" x="23" y="23" width="210" height="210" fill="black">
<rect fill="white" x="23" y="23" width="210" height="210"/>
<path fill-rule="evenodd" clip-rule="evenodd" d="M212.108 61.3312C211.99 54.3601 210.045 50.138 207.51 47.6032C204.975 45.0685 200.753 43.1233 193.782 43.0055C186.731 42.8864 177.689 44.6953 167.106 48.8366C157.986 52.4051 148.129 57.5459 137.978 64.1291C147.494 71.3479 157.015 79.6316 166.249 88.8647C175.482 98.0979 183.765 107.62 190.984 117.135C197.567 106.984 202.708 97.127 206.277 88.0076C210.418 77.4242 212.227 68.3826 212.108 61.3312ZM88.0075 48.8367C97.1269 52.4051 106.984 57.546 117.135 64.1291C107.62 71.3479 98.0979 79.6316 88.8648 88.8647C79.6316 98.0979 71.3479 107.62 64.1291 117.135C57.5459 106.984 52.4051 97.127 48.8366 88.0076C44.6953 77.4242 42.8864 68.3827 43.0055 61.3313C43.1233 54.3602 45.0684 50.138 47.6032 47.6033C50.1379 45.0685 54.3601 43.1233 61.3312 43.0056C68.3826 42.8865 77.4242 44.6953 88.0075 48.8367ZM39.1179 39.118C54.9703 23.2656 90.3865 31.4303 127.557 56.643C164.727 31.4303 200.143 23.2656 215.995 39.118C231.848 54.9703 223.683 90.3866 198.47 127.557C223.683 164.727 231.848 200.143 215.995 215.995C200.143 231.848 164.727 223.683 127.557 198.47C90.3865 223.683 54.9704 231.848 39.118 215.995C23.2656 200.143 31.4303 164.727 56.6429 127.557C31.4302 90.3866 23.2655 54.9704 39.1179 39.118ZM157.763 97.35C167.693 107.28 176.408 117.487 183.787 127.557C176.408 137.626 167.693 147.833 157.763 157.763C147.833 167.693 137.626 176.408 127.557 183.787C117.487 176.408 107.28 167.693 97.35 157.763C87.42 147.833 78.705 137.626 71.3263 127.557C78.705 117.487 87.4201 107.28 97.35 97.35C107.28 87.4201 117.487 78.705 127.557 71.3263C137.626 78.705 147.833 87.4201 157.763 97.35ZM166.249 166.249C157.015 175.482 147.494 183.765 137.978 190.984C148.129 197.567 157.986 202.708 167.106 206.277C177.689 210.418 186.731 212.227 193.782 212.108C200.753 211.99 204.975 210.045 207.51 207.51C210.045 204.975 211.99 200.753 212.108 193.782C212.227 186.731 210.418 177.689 206.277 167.106C202.708 157.986 197.567 148.129 190.984 137.978C183.765 147.494 175.482 157.015 166.249 166.249ZM88.8647 166.249C98.0979 175.482 107.62 183.765 117.135 190.984C106.984 197.567 97.127 202.708 88.0076 206.277C77.4242 210.418 68.3827 212.227 61.3313 212.108C54.3602 211.99 50.138 210.045 47.6033 207.51C45.0685 204.975 43.1233 200.753 43.0056 193.782C42.8865 186.731 44.6953 177.689 48.8367 167.106C52.4051 157.986 57.5459 148.129 64.1291 137.978C71.3479 147.494 79.6315 157.015 88.8647 166.249ZM127.557 148.402C139.069 148.402 148.402 139.069 148.402 127.557C148.402 116.044 139.069 106.712 127.557 106.712C116.044 106.712 106.711 116.044 106.711 127.557C106.711 139.069 116.044 148.402 127.557 148.402Z"/>
</mask>
<path d="M207.51 47.6032L213.167 41.9464L213.167 41.9464L207.51 47.6032ZM212.108 61.3312L220.107 61.1961V61.1961L212.108 61.3312ZM193.782 43.0055L193.917 35.0067H193.917L193.782 43.0055ZM167.106 48.8366L164.191 41.3867V41.3867L167.106 48.8366ZM137.978 64.1291L133.625 57.417L124.066 63.6164L133.143 70.5026L137.978 64.1291ZM166.249 88.8647L171.905 83.2079L166.249 88.8647ZM190.984 117.135L184.611 121.97L191.497 131.048L197.696 121.488L190.984 117.135ZM206.277 88.0076L198.827 85.0924V85.0924L206.277 88.0076ZM117.135 64.1291L121.97 70.5026L131.047 63.6164L121.488 57.417L117.135 64.1291ZM88.0075 48.8367L90.9227 41.3867V41.3867L88.0075 48.8367ZM88.8648 88.8647L83.2079 83.2079L83.2079 83.2079L88.8648 88.8647ZM64.1291 117.135L57.417 121.488L63.6163 131.048L70.5026 121.97L64.1291 117.135ZM48.8366 88.0076L56.2865 85.0924L56.2865 85.0924L48.8366 88.0076ZM43.0055 61.3313L51.0044 61.4664V61.4664L43.0055 61.3313ZM47.6032 47.6033L41.9463 41.9464L41.9463 41.9464L47.6032 47.6033ZM61.3312 43.0056L61.1961 35.0067H61.1961L61.3312 43.0056ZM127.557 56.643L123.066 63.2636L127.557 66.3098L132.047 63.2636L127.557 56.643ZM39.1179 39.118L33.4611 33.4611L33.4611 33.4611L39.1179 39.118ZM215.995 39.118L221.652 33.4611V33.4611L215.995 39.118ZM198.47 127.557L191.85 123.066L188.804 127.557L191.85 132.048L198.47 127.557ZM215.995 215.995L221.652 221.652L221.652 221.652L215.995 215.995ZM127.557 198.47L132.047 191.85L127.557 188.804L123.066 191.85L127.557 198.47ZM39.118 215.995L44.7748 210.339L44.7748 210.339L39.118 215.995ZM56.6429 127.557L63.2636 132.048L66.3097 127.557L63.2636 123.066L56.6429 127.557ZM183.787 127.557L190.24 132.285L193.705 127.557L190.24 122.828L183.787 127.557ZM157.763 97.35L152.106 103.007L157.763 97.35ZM157.763 157.763L152.106 152.106L157.763 157.763ZM127.557 183.787L122.828 190.24L127.557 193.705L132.285 190.24L127.557 183.787ZM97.35 157.763L91.6931 163.42H91.6931L97.35 157.763ZM71.3263 127.557L64.8733 122.828L61.4084 127.557L64.8733 132.285L71.3263 127.557ZM97.35 97.35L103.007 103.007L97.35 97.35ZM127.557 71.3263L132.285 64.8733L127.557 61.4084L122.828 64.8733L127.557 71.3263ZM137.978 190.984L133.143 184.611L124.066 191.497L133.625 197.696L137.978 190.984ZM167.106 206.277L170.021 198.827L167.106 206.277ZM193.782 212.108L193.917 220.107H193.917L193.782 212.108ZM207.51 207.51L201.853 201.853L201.853 201.853L207.51 207.51ZM212.108 193.782L220.107 193.917V193.917L212.108 193.782ZM206.277 167.106L198.827 170.021V170.021L206.277 167.106ZM190.984 137.978L197.696 133.625L191.497 124.066L184.611 133.143L190.984 137.978ZM117.135 190.984L121.488 197.696L131.047 191.497L121.97 184.611L117.135 190.984ZM88.8647 166.249L83.2078 171.905L88.8647 166.249ZM88.0076 206.277L90.9228 213.727H90.9228L88.0076 206.277ZM61.3313 212.108L61.4664 204.109H61.4664L61.3313 212.108ZM47.6033 207.51L41.9464 213.167H41.9464L47.6033 207.51ZM43.0056 193.782L35.0067 193.917V193.917L43.0056 193.782ZM48.8367 167.106L56.2866 170.021H56.2866L48.8367 167.106ZM64.1291 137.978L70.5026 133.143L63.6163 124.066L57.417 133.625L64.1291 137.978ZM201.853 53.2601C202.528 53.9347 204.016 55.9386 204.109 61.4664L220.107 61.1961C219.965 52.7817 217.562 46.3413 213.167 41.9464L201.853 53.2601ZM193.647 51.0044C199.175 51.0978 201.179 52.5854 201.853 53.2601L213.167 41.9464C208.772 37.5515 202.332 35.1488 193.917 35.0067L193.647 51.0044ZM170.021 56.2866C179.991 52.3852 187.964 50.9084 193.647 51.0044L193.917 35.0067C185.497 34.8645 175.387 37.0055 164.191 41.3867L170.021 56.2866ZM142.331 70.8412C152.11 64.4995 161.487 59.626 170.021 56.2866L164.191 41.3867C154.486 45.1842 144.149 50.5924 133.625 57.417L142.331 70.8412ZM171.905 83.2079C162.422 73.7243 152.626 65.2001 142.813 57.7556L133.143 70.5026C142.361 77.4958 151.609 85.5389 160.592 94.5216L171.905 83.2079ZM197.358 112.3C189.913 102.487 181.389 92.6915 171.905 83.2079L160.592 94.5216C169.574 103.504 177.618 112.752 184.611 121.97L197.358 112.3ZM198.827 85.0924C195.487 93.6265 190.614 103.003 184.272 112.782L197.696 121.488C204.521 110.965 209.929 100.627 213.727 90.9228L198.827 85.0924ZM204.109 61.4663C204.205 67.1492 202.728 75.1222 198.827 85.0924L213.727 90.9228C218.108 79.7263 220.249 69.6161 220.107 61.1961L204.109 61.4663ZM121.488 57.417C110.965 50.5924 100.627 45.1842 90.9227 41.3867L85.0924 56.2866C93.6265 59.626 103.003 64.4995 112.782 70.8412L121.488 57.417ZM94.5216 94.5216C103.504 85.5389 112.752 77.4958 121.97 70.5026L112.3 57.7556C102.487 65.2001 92.6915 73.7243 83.2079 83.2079L94.5216 94.5216ZM70.5026 121.97C77.4957 112.752 85.5389 103.504 94.5216 94.5216L83.2079 83.2079C73.7243 92.6915 65.2001 102.487 57.7556 112.3L70.5026 121.97ZM41.3867 90.9228C45.1841 100.627 50.5923 110.965 57.417 121.488L70.8412 112.782C64.4995 103.003 59.626 93.6266 56.2865 85.0924L41.3867 90.9228ZM35.0066 61.1961C34.8644 69.6161 37.0054 79.7263 41.3867 90.9228L56.2865 85.0924C52.3851 75.1222 50.9084 67.1492 51.0044 61.4664L35.0066 61.1961ZM41.9463 41.9464C37.5515 46.3413 35.1488 52.7817 35.0066 61.1961L51.0044 61.4664C51.0977 55.9386 52.5854 53.9347 53.26 53.2601L41.9463 41.9464ZM61.1961 35.0067C52.7817 35.1489 46.3412 37.5515 41.9463 41.9464L53.26 53.2601C53.9347 52.5855 55.9385 51.0978 61.4663 51.0044L61.1961 35.0067ZM90.9227 41.3867C79.7262 37.0055 69.6161 34.8645 61.1961 35.0067L61.4663 51.0044C67.1491 50.9084 75.1221 52.3852 85.0924 56.2866L90.9227 41.3867ZM132.047 50.0224C112.912 37.0428 93.7931 28.1377 76.9679 24.6478C60.3925 21.2098 44.1893 22.7329 33.4611 33.4611L44.7748 44.7748C49.8989 39.6507 59.33 37.33 73.7184 40.3144C87.8569 43.2469 105.031 51.0304 123.066 63.2636L132.047 50.0224ZM221.652 33.4611C210.924 22.7329 194.721 21.2097 178.145 24.6478C161.32 28.1376 142.201 37.0428 123.066 50.0224L132.047 63.2636C150.082 51.0304 167.256 43.2469 181.395 40.3143C195.783 37.3299 205.214 39.6507 210.339 44.7748L221.652 33.4611ZM205.091 132.048C218.07 112.912 226.976 93.7931 230.466 76.9679C233.904 60.3925 232.38 44.1893 221.652 33.4611L210.339 44.7748C215.463 49.899 217.783 59.3301 214.799 73.7184C211.866 87.857 204.083 105.031 191.85 123.066L205.091 132.048ZM221.652 221.652C232.38 210.924 233.904 194.721 230.465 178.145C226.976 161.32 218.07 142.201 205.091 123.066L191.85 132.048C204.083 150.082 211.866 167.256 214.799 181.395C217.783 195.783 215.463 205.214 210.338 210.339L221.652 221.652ZM123.066 205.091C142.201 218.071 161.32 226.976 178.145 230.466C194.721 233.904 210.924 232.38 221.652 221.652L210.338 210.339C205.214 215.463 195.783 217.783 181.395 214.799C167.256 211.866 150.082 204.083 132.047 191.85L123.066 205.091ZM33.4611 221.652C44.1893 232.38 60.3925 233.904 76.9679 230.466C93.7931 226.976 112.912 218.071 132.047 205.091L123.066 191.85C105.031 204.083 87.8569 211.866 73.7184 214.799C59.3301 217.783 49.899 215.463 44.7748 210.339L33.4611 221.652ZM50.0223 123.066C37.0428 142.201 28.1376 161.32 24.6478 178.145C21.2098 194.721 22.7329 210.924 33.4611 221.652L44.7748 210.339C39.6507 205.214 37.33 195.783 40.3144 181.395C43.2469 167.256 51.0304 150.082 63.2636 132.048L50.0223 123.066ZM33.4611 33.4611C22.7328 44.1894 21.2097 60.3925 24.6477 76.9679C28.1376 93.7931 37.0428 112.912 50.0223 132.048L63.2636 123.066C51.0304 105.031 43.2469 87.857 40.3143 73.7184C37.3299 59.3301 39.6506 49.899 44.7748 44.7748L33.4611 33.4611ZM190.24 122.828C182.613 112.419 173.63 101.903 163.42 91.6932L152.106 103.007C161.756 112.657 170.204 122.555 177.334 132.285L190.24 122.828ZM163.42 163.42C173.63 153.21 182.613 142.694 190.24 132.285L177.334 122.828C170.204 132.559 161.756 142.457 152.106 152.106L163.42 163.42ZM132.285 190.24C142.694 182.613 153.21 173.63 163.42 163.42L152.106 152.106C142.457 161.756 132.559 170.204 122.828 177.334L132.285 190.24ZM91.6931 163.42C101.903 173.63 112.419 182.613 122.828 190.24L132.285 177.334C122.555 170.204 112.657 161.756 103.007 152.106L91.6931 163.42ZM64.8733 132.285C72.5004 142.694 81.4832 153.21 91.6931 163.42L103.007 152.106C93.3569 142.457 84.9095 132.559 77.7793 122.828L64.8733 132.285ZM91.6932 91.6932C81.4833 101.903 72.5005 112.419 64.8733 122.828L77.7793 132.285C84.9095 122.555 93.3569 112.657 103.007 103.007L91.6932 91.6932ZM122.828 64.8733C112.419 72.5005 101.903 81.4833 91.6932 91.6932L103.007 103.007C112.657 93.3569 122.555 84.9095 132.285 77.7793L122.828 64.8733ZM163.42 91.6932C153.21 81.4833 142.694 72.5005 132.285 64.8733L122.828 77.7793C132.559 84.9095 142.456 93.3569 152.106 103.007L163.42 91.6932ZM142.813 197.358C152.626 189.913 162.422 181.389 171.905 171.905L160.592 160.592C151.609 169.574 142.361 177.618 133.143 184.611L142.813 197.358ZM170.021 198.827C161.487 195.487 152.11 190.614 142.331 184.272L133.625 197.696C144.149 204.521 154.486 209.929 164.191 213.727L170.021 198.827ZM193.647 204.109C187.964 204.205 179.991 202.728 170.021 198.827L164.191 213.727C175.387 218.108 185.497 220.249 193.917 220.107L193.647 204.109ZM201.853 201.853C201.179 202.528 199.175 204.016 193.647 204.109L193.917 220.107C202.332 219.965 208.772 217.562 213.167 213.167L201.853 201.853ZM204.109 193.647C204.016 199.175 202.528 201.179 201.853 201.853L213.167 213.167C217.562 208.772 219.964 202.332 220.107 193.917L204.109 193.647ZM198.827 170.021C202.728 179.991 204.205 187.964 204.109 193.647L220.107 193.917C220.249 185.497 218.108 175.387 213.727 164.191L198.827 170.021ZM184.272 142.331C190.614 152.11 195.487 161.487 198.827 170.021L213.727 164.191C209.929 154.486 204.521 144.149 197.696 133.625L184.272 142.331ZM171.905 171.905C181.389 162.422 189.913 152.626 197.358 142.813L184.611 133.143C177.618 142.361 169.574 151.609 160.592 160.592L171.905 171.905ZM121.97 184.611C112.752 177.618 103.504 169.574 94.5215 160.592L83.2078 171.905C92.6915 181.389 102.487 189.913 112.3 197.358L121.97 184.611ZM90.9228 213.727C100.627 209.929 110.965 204.521 121.488 197.696L112.782 184.272C103.003 190.614 93.6265 195.487 85.0924 198.827L90.9228 213.727ZM61.1961 220.107C69.6161 220.249 79.7263 218.108 90.9228 213.727L85.0924 198.827C75.1222 202.728 67.1492 204.205 61.4664 204.109L61.1961 220.107ZM41.9464 213.167C46.3413 217.562 52.7817 219.964 61.1961 220.107L61.4664 204.109C55.9386 204.016 53.9347 202.528 53.2601 201.853L41.9464 213.167ZM35.0067 193.917C35.1489 202.332 37.5515 208.772 41.9464 213.167L53.2601 201.853C52.5855 201.179 51.0978 199.175 51.0044 193.647L35.0067 193.917ZM41.3867 164.191C37.0055 175.387 34.8645 185.497 35.0067 193.917L51.0044 193.647C50.9084 187.964 52.3852 179.991 56.2866 170.021L41.3867 164.191ZM57.417 133.625C50.5924 144.149 45.1842 154.486 41.3867 164.191L56.2866 170.021C59.626 161.487 64.4995 152.11 70.8412 142.331L57.417 133.625ZM94.5215 160.592C85.5389 151.609 77.4957 142.361 70.5026 133.143L57.7556 142.813C65.2001 152.626 73.7242 162.422 83.2078 171.905L94.5215 160.592ZM140.402 127.557C140.402 134.651 134.651 140.402 127.557 140.402V156.402C143.487 156.402 156.402 143.488 156.402 127.557H140.402ZM127.557 114.712C134.651 114.712 140.402 120.463 140.402 127.557H156.402C156.402 111.626 143.487 98.7117 127.557 98.7117V114.712ZM114.711 127.557C114.711 120.463 120.462 114.712 127.557 114.712V98.7117C111.626 98.7117 98.7115 111.626 98.7115 127.557H114.711ZM127.557 140.402C120.462 140.402 114.711 134.651 114.711 127.557H98.7115C98.7115 143.488 111.626 156.402 127.557 156.402V140.402Z" fill="white" mask="url(#path-1-outside-1_142_59)"/>
</svg>
