<svg width="256" height="256" viewBox="0 0 256 256" fill="none" xmlns="http://www.w3.org/2000/svg">
<path fill-rule="evenodd" clip-rule="evenodd" d="M212.853 201.539L54.4609 43.1472C51.3367 40.023 46.2714 40.023 43.1472 43.1472C40.023 46.2714 40.023 51.3367 43.1472 54.4609L201.539 212.853C204.663 215.977 209.729 215.977 212.853 212.853C215.977 209.729 215.977 204.663 212.853 201.539ZM37.4904 37.4903C31.242 43.7387 31.242 53.8694 37.4904 60.1178L195.882 218.51C202.131 224.758 212.261 224.758 218.51 218.51C224.758 212.261 224.758 202.131 218.51 195.882L60.1178 37.4903C53.8694 31.2419 43.7388 31.2419 37.4904 37.4903Z" fill="white"/>
</svg>
