<svg width="256" height="256" viewBox="0 0 256 256" fill="none" xmlns="http://www.w3.org/2000/svg">
  <mask id="path-1-inside-1_10_25" fill="white">
    <path d="M37.4904 60.1178C31.242 53.8694 31.242 43.7387 37.4904 37.4903V37.4903C43.7388 31.242 53.8694 31.242 60.1178 37.4903L218.51 195.882C224.758 202.131 224.758 212.261 218.51 218.51V218.51C212.261 224.758 202.131 224.758 195.882 218.51L37.4904 60.1178Z"/>
  </mask>
  <path d="M54.4609 43.1472L212.853 201.539L224.167 190.225L65.7746 31.8335L54.4609 43.1472ZM201.539 212.853L43.1472 54.4609L31.8335 65.7746L190.225 224.167L201.539 212.853ZM212.853 212.853C209.729 215.977 204.663 215.977 201.539 212.853L190.225 224.167C199.598 233.539 214.794 233.539 224.167 224.167L212.853 212.853ZM212.853 201.539C215.977 204.663 215.977 209.729 212.853 212.853L224.167 224.167C233.539 214.794 233.539 199.598 224.167 190.225L212.853 201.539ZM43.1472 43.1472C46.2714 40.023 51.3367 40.023 54.4609 43.1472L65.7746 31.8335C56.4021 22.4609 41.2061 22.4609 31.8335 31.8335L43.1472 43.1472ZM31.8335 31.8335C22.4609 41.2061 22.4609 56.402 31.8335 65.7746L43.1472 54.4609C40.023 51.3367 40.023 46.2714 43.1472 43.1472L31.8335 31.8335Z" fill="white" mask="url(#path-1-inside-1_10_25)"/>
</svg>