<svg width="256" height="256" viewBox="0 0 256 256" fill="none" xmlns="http://www.w3.org/2000/svg">
<path fill-rule="evenodd" clip-rule="evenodd" d="M240 56H16C11.5817 56 8 59.5817 8 64C8 68.4183 11.5817 72 16 72H240C244.418 72 248 68.4183 248 64C248 59.5817 244.418 56 240 56ZM16 48C7.16344 48 0 55.1634 0 64C0 72.8366 7.16344 80 16 80H240C248.837 80 256 72.8366 256 64C256 55.1634 248.837 48 240 48H16ZM240 120H16C11.5817 120 8 123.582 8 128C8 132.418 11.5817 136 16 136H240C244.418 136 248 132.418 248 128C248 123.582 244.418 120 240 120ZM16 112C7.16344 112 0 119.163 0 128C0 136.837 7.16344 144 16 144H240C248.837 144 256 136.837 256 128C256 119.163 248.837 112 240 112H16ZM16 184H240C244.418 184 248 187.582 248 192C248 196.418 244.418 200 240 200H16C11.5817 200 8 196.418 8 192C8 187.582 11.5817 184 16 184ZM0 192C0 183.163 7.16344 176 16 176H240C248.837 176 256 183.163 256 192C256 200.837 248.837 208 240 208H16C7.16344 208 0 200.837 0 192Z" fill="white"/>
</svg>
