<svg width="256" height="256" viewBox="0 0 256 256" fill="none" xmlns="http://www.w3.org/2000/svg">
<path d="M114.232 38.817L122.863 36.0072V26.931V17.6374C122.863 14.8001 125.163 12.5 128 12.5C130.837 12.5 133.137 14.8001 133.137 17.6374V26.931V36.0072L141.768 38.817L155.636 43.332C163.856 46.0084 171.433 50.3614 177.885 56.1156L181.595 59.424C188.081 65.2079 192.356 73.0649 193.691 81.6521L196.096 97.1264C196.195 97.7616 196.245 98.4034 196.245 99.0462V119.666C196.245 125.33 197.015 130.967 198.533 136.424L203.001 152.476C205.207 160.402 208.956 167.816 214.034 174.29L229.673 194.229C230.209 194.912 230.5 195.754 230.5 196.622C230.5 198.764 228.764 200.5 226.622 200.5H29.3778C27.2362 200.5 25.5 198.764 25.5 196.622C25.5 195.754 25.791 194.912 26.3266 194.229L41.9656 174.29L32.1301 166.575L41.9656 174.29C47.0436 167.816 50.7933 160.402 52.9994 152.476L57.4669 136.424C58.9855 130.967 59.7553 125.33 59.7553 119.666V99.0462C59.7553 98.4034 59.8049 97.7616 59.9036 97.1264L47.5519 95.2066L59.9036 97.1264L62.3088 81.6521C63.6435 73.0649 67.9192 65.2079 74.405 59.4239L78.1149 56.1156C84.5674 50.3614 92.1435 46.0084 100.364 43.332L114.232 38.817Z" stroke="white" stroke-width="25"/>
<path d="M95 224.571C95 223.704 95.7036 223 96.5714 223H159.429C160.296 223 161 223.704 161 224.571C161 241.929 146.929 256 129.571 256H126.429C109.071 256 95 241.929 95 224.571Z" fill="white"/>
</svg>
