<svg width="256" height="256" viewBox="0 0 256 256" fill="none" xmlns="http://www.w3.org/2000/svg">
<g opacity="0.8">
<path fill-rule="evenodd" clip-rule="evenodd" d="M111.015 171.22V135.76H127.755C133.635 135.76 138.255 137.38 141.615 140.62C144.975 143.74 146.655 148.06 146.655 153.58C146.655 159.1 144.975 163.42 141.615 166.54C138.255 169.66 133.635 171.22 127.755 171.22H111.015ZM136.116 146.431L136.062 146.379C134.555 144.925 132.127 143.76 127.755 143.76H119.015V163.22H127.755C132.206 163.22 134.674 162.069 136.172 160.678C137.574 159.376 138.655 157.366 138.655 153.58C138.655 149.794 137.574 147.784 136.172 146.482L136.116 146.431Z" fill="white"/>
<path fill-rule="evenodd" clip-rule="evenodd" d="M126.855 114.52C132.135 114.52 136.275 113.14 139.275 110.38C142.275 107.5 143.775 103.66 143.775 98.8601C143.775 93.9401 142.275 90.1601 139.275 87.5201C136.275 84.7601 132.135 83.3801 126.855 83.3801H111.015V114.52H126.855ZM133.924 93.4674L133.859 93.4075C132.73 92.3695 130.739 91.3801 126.855 91.3801H119.015V106.52H126.855C130.67 106.52 132.659 105.566 133.797 104.548C134.948 103.416 135.775 101.795 135.775 98.8601C135.775 95.6631 134.874 94.3039 133.99 93.5258L133.924 93.4674Z" fill="white"/>
<path fill-rule="evenodd" clip-rule="evenodd" d="M76.9152 201V53.6001H127.215C141.706 53.6001 154.219 56.9305 163.936 64.4263C173.921 72.0041 178.955 82.5617 178.955 95.2601C178.955 102.324 177.251 108.875 173.6 114.619C171.508 118.026 168.939 120.975 165.924 123.45C169.919 126.135 173.298 129.568 176.019 133.703C180.057 139.842 181.835 147.1 181.835 155.02C181.835 164.041 179.632 172.301 174.987 179.502C170.481 186.554 164.087 191.888 156.144 195.576C148.141 199.292 138.959 201 128.835 201H76.9152ZM168.255 175.18C171.975 169.42 173.835 162.7 173.835 155.02C173.835 148.3 172.335 142.66 169.335 138.1C166.515 133.813 162.846 130.534 158.329 128.262C158.041 128.117 157.75 127.977 157.455 127.84C153.135 125.788 148.378 124.708 143.183 124.6C142.606 124.588 142.023 124.588 141.435 124.6V124.06C146.715 124.06 151.575 122.86 156.015 120.46C156.677 120.112 157.318 119.743 157.939 119.355C161.6 117.065 164.558 114.073 166.815 110.38C169.575 106.06 170.955 101.02 170.955 95.2601C170.955 84.9401 166.995 76.7801 159.075 70.7801C151.155 64.6601 140.535 61.6001 127.215 61.6001H84.9152V193H128.835C138.075 193 146.055 191.44 152.775 188.32C159.495 185.2 164.655 180.82 168.255 175.18Z" fill="white"/>
</g>
</svg>
