<svg width="256" height="256" viewBox="0 0 256 256" fill="none" xmlns="http://www.w3.org/2000/svg">
<path d="M133.726 11C149.776 11 163.985 13.3838 175.924 18.6699L175.923 18.6709C187.771 23.8879 197.264 31.4824 203.713 41.6953H203.712C210.105 51.7157 213.157 63.1517 213.157 75.6211C213.157 85.1814 211.251 94.1279 207.174 102.21L207.152 102.253C203.439 109.535 198.365 115.722 191.99 120.718C192.264 120.88 192.538 121.044 192.811 121.211H192.81C201.438 126.463 208.276 133.75 213.317 142.802C218.588 152.193 221 162.954 221 174.686C221 187.925 217.782 200.123 211.147 210.965L211.138 210.98L211.127 210.997C204.443 221.834 194.865 230.2 182.845 236.187L182.819 236.199L182.793 236.212C170.528 242.239 156.158 245 140.098 245H54C45.7157 245 39 238.284 39 230V26C39 17.7157 45.7157 11 54 11H133.726ZM104.5 185.877H128.465C139.627 185.877 145.536 183.581 148.434 181.126L148.46 181.103L148.487 181.08C151.472 178.584 153.343 175.051 153.343 169.008C153.343 164.316 152.319 160.921 150.745 158.361L150.723 158.325L150.7 158.288C149.049 155.555 146.712 153.394 143.347 151.774L143.285 151.744L143.223 151.714C139.897 150.062 135.448 149.002 129.493 149.002H104.5V185.877ZM104.5 102.479H125.355C130.335 102.479 134.328 101.607 137.562 100.144C140.683 98.7314 142.789 96.8705 144.268 94.5957L144.307 94.5361L144.347 94.4766C145.729 92.4088 146.677 89.5931 146.677 85.4912C146.677 79.802 144.915 76.4186 142.049 73.9727C138.904 71.2893 134.06 69.3624 126.286 69.3623H104.5V102.479Z" stroke="white" stroke-width="22"/>
</svg>
