<svg width="256" height="256" viewBox="0 0 256 256" fill="none" xmlns="http://www.w3.org/2000/svg">
  <g opacity="0.8">
    <mask id="path-2-outside-1_33_461" maskUnits="userSpaceOnUse" x="76" y="53" width="106" height="148" fill="black">
      <rect fill="white" x="76" y="53" width="106" height="148"/>
      <path d="M84.9152 193V61.6H127.215C140.535 61.6 151.155 64.66 159.075 70.78C166.995 76.78 170.955 84.94 170.955 95.26C170.955 101.02 169.575 106.06 166.815 110.38C164.175 114.7 160.575 118.06 156.015 120.46C151.575 122.86 146.715 124.06 141.435 124.06V124.6C147.315 124.48 152.655 125.56 157.455 127.84C162.375 130.12 166.335 133.54 169.335 138.1C172.335 142.66 173.835 148.3 173.835 155.02C173.835 162.7 171.975 169.42 168.255 175.18C164.655 180.82 159.495 185.2 152.775 188.32C146.055 191.44 138.075 193 128.835 193H84.9152ZM111.015 171.22H127.755C133.635 171.22 138.255 169.66 141.615 166.54C144.975 163.42 146.655 159.1 146.655 153.58C146.655 148.06 144.975 143.74 141.615 140.62C138.255 137.38 133.635 135.76 127.755 135.76H111.015V171.22ZM111.015 114.52H126.855C132.135 114.52 136.275 113.14 139.275 110.38C142.275 107.5 143.775 103.66 143.775 98.86C143.775 93.94 142.275 90.16 139.275 87.52C136.275 84.76 132.135 83.38 126.855 83.38H111.015V114.52Z"/>
    </mask>
    <path d="M84.9152 193H76.9152V201H84.9152V193ZM84.9152 61.6V53.6H76.9152V61.6H84.9152ZM159.075 70.78L154.184 77.1103L154.214 77.1337L154.244 77.1567L159.075 70.78ZM166.815 110.38L160.074 106.073L160.031 106.14L159.989 106.208L166.815 110.38ZM156.015 120.46L152.289 113.381L152.25 113.401L152.211 113.422L156.015 120.46ZM141.435 124.06V116.06H133.435V124.06H141.435ZM141.435 124.6H133.435V132.765L141.598 132.598L141.435 124.6ZM157.455 127.84L154.023 135.066L154.057 135.083L154.091 135.098L157.455 127.84ZM169.335 138.1L162.652 142.497L169.335 138.1ZM168.255 175.18L161.535 170.84L161.523 170.858L161.512 170.876L168.255 175.18ZM111.015 171.22H103.015V179.22H111.015V171.22ZM141.615 166.54L147.059 172.402L141.615 166.54ZM141.615 140.62L136.062 146.379L136.116 146.431L136.172 146.482L141.615 140.62ZM111.015 135.76V127.76H103.015V135.76H111.015ZM111.015 114.52H103.015V122.52H111.015V114.52ZM139.275 110.38L144.692 116.267L144.754 116.21L144.815 116.151L139.275 110.38ZM139.275 87.52L133.859 93.4074L133.924 93.4673L133.99 93.5257L139.275 87.52ZM111.015 83.38V75.38H103.015V83.38H111.015ZM92.9152 193V61.6H76.9152V193H92.9152ZM84.9152 69.6H127.215V53.6H84.9152V69.6ZM127.215 69.6C139.349 69.6 148.065 72.3826 154.184 77.1103L163.967 64.4497C154.245 56.9374 141.721 53.6 127.215 53.6V69.6ZM154.244 77.1567C160.079 81.5773 162.955 87.3312 162.955 95.26H178.955C178.955 82.5488 173.911 71.9827 163.906 64.4033L154.244 77.1567ZM162.955 95.26C162.955 99.6881 161.913 103.194 160.074 106.073L173.557 114.687C177.237 108.926 178.955 102.352 178.955 95.26H162.955ZM159.989 106.208C158.115 109.274 155.596 111.64 152.289 113.381L159.741 127.539C165.554 124.48 170.235 120.126 173.641 114.552L159.989 106.208ZM152.211 113.422C148.994 115.161 145.45 116.06 141.435 116.06V132.06C147.98 132.06 154.156 130.559 159.819 127.498L152.211 113.422ZM133.435 124.06V124.6H149.435V124.06H133.435ZM141.598 132.598C146.371 132.501 150.461 133.374 154.023 135.066L160.888 120.614C154.85 117.746 148.26 116.459 141.272 116.602L141.598 132.598ZM154.091 135.098C157.651 136.748 160.465 139.173 162.652 142.497L176.019 133.703C172.206 127.907 167.1 123.492 160.819 120.582L154.091 135.098ZM162.652 142.497C164.613 145.478 165.835 149.5 165.835 155.02H181.835C181.835 147.1 180.057 139.842 176.019 133.703L162.652 142.497ZM165.835 155.02C165.835 161.351 164.322 166.525 161.535 170.84L174.975 179.52C179.629 172.315 181.835 164.049 181.835 155.02H165.835ZM161.512 170.876C158.819 175.095 154.897 178.515 149.406 181.064L156.144 195.576C164.094 191.885 170.491 186.545 174.999 179.484L161.512 170.876ZM149.406 181.064C143.969 183.588 137.191 185 128.835 185V201C138.959 201 148.141 199.292 156.144 195.576L149.406 181.064ZM128.835 185H84.9152V201H128.835V185ZM111.015 179.22H127.755V163.22H111.015V179.22ZM127.755 179.22C135.064 179.22 141.837 177.251 147.059 172.402L136.172 160.678C134.674 162.069 132.206 163.22 127.755 163.22V179.22ZM147.059 172.402C152.377 167.464 154.655 160.834 154.655 153.58H138.655C138.655 157.366 137.574 159.376 136.172 160.678L147.059 172.402ZM154.655 153.58C154.655 146.326 152.377 139.696 147.059 134.758L136.172 146.482C137.574 147.784 138.655 149.794 138.655 153.58H154.655ZM147.168 134.861C141.956 129.835 135.143 127.76 127.755 127.76V143.76C132.127 143.76 134.555 144.925 136.062 146.379L147.168 134.861ZM127.755 127.76H111.015V143.76H127.755V127.76ZM103.015 135.76V171.22H119.015V135.76H103.015ZM111.015 122.52H126.855V106.52H111.015V122.52ZM126.855 122.52C133.531 122.52 139.82 120.749 144.692 116.267L133.859 104.493C132.73 105.531 130.739 106.52 126.855 106.52V122.52ZM144.815 116.151C149.633 111.526 151.775 105.472 151.775 98.86H135.775C135.775 101.848 134.917 103.474 133.735 104.609L144.815 116.151ZM151.775 98.86C151.775 92.217 149.676 86.0162 144.56 81.5143L133.99 93.5257C134.874 94.3038 135.775 95.663 135.775 98.86H151.775ZM144.692 81.6325C139.82 77.1506 133.531 75.38 126.855 75.38V91.38C130.739 91.38 132.73 92.3694 133.859 93.4074L144.692 81.6325ZM126.855 75.38H111.015V91.38H126.855V75.38ZM103.015 83.38V114.52H119.015V83.38H103.015Z" fill="white" mask="url(#path-2-outside-1_33_461)"/>
  </g>
</svg>
