<svg width="256" height="256" viewBox="0 0 256 256" fill="none" xmlns="http://www.w3.org/2000/svg">
<path d="M133.726 11C149.776 11 163.985 13.3838 175.924 18.6699L175.923 18.6709C187.771 23.8879 197.264 31.4824 203.713 41.6953H203.712C210.105 51.7157 213.157 63.1517 213.157 75.6211C213.157 85.1814 211.251 94.1279 207.174 102.21L207.152 102.253C203.439 109.535 198.365 115.722 191.99 120.718C192.264 120.88 192.538 121.044 192.811 121.211H192.81C201.438 126.463 208.276 133.75 213.317 142.802C218.588 152.193 221 162.954 221 174.686C221 187.925 217.782 200.123 211.147 210.965L211.138 210.98L211.127 210.997C204.443 221.834 194.865 230.2 182.845 236.187L182.819 236.199L182.793 236.212C170.528 242.239 156.158 245 140.098 245H54C45.7157 245 39 238.284 39 230V26C39 17.7157 45.7157 11 54 11H133.726ZM109.529 181.697H128.529C137.95 181.697 142.578 179.75 144.653 177.991L144.68 177.968L144.707 177.945C146.859 176.145 148.313 173.583 148.313 168.785C148.313 164.996 147.489 162.377 146.315 160.468L146.293 160.432L146.271 160.396C145.02 158.324 143.251 156.671 140.621 155.405L140.56 155.376L140.497 155.345C137.907 154.058 134.339 153.182 129.412 153.182H109.529V181.697ZM109.529 98.1602H125.393C129.388 98.1601 132.506 97.461 134.975 96.3438C137.33 95.2779 138.841 93.9167 139.895 92.2959L139.934 92.2363L139.973 92.1777C140.918 90.7641 141.647 88.7371 141.647 85.5586C141.647 81.1904 140.329 78.8454 138.35 77.1562C136.092 75.2298 132.444 73.6817 126.177 73.6816H109.529V98.1602Z" stroke="white" stroke-width="22"/>
</svg>
