<svg width="256" height="256" viewBox="0 0 256 256" fill="none" xmlns="http://www.w3.org/2000/svg">
<mask id="path-1-inside-1_391_149" fill="white">
<path fill-rule="evenodd" clip-rule="evenodd" d="M20 8H127.272V107.063C127.272 108.91 129.562 109.77 130.778 108.379L158.435 76.743C160.029 74.92 162.864 74.92 164.458 76.743L192.116 108.379C193.332 109.77 195.621 108.91 195.621 107.063V8H212C214.761 8 217 10.2386 217 13V195C217 197.761 214.761 200 212 200H34.421C27.5538 200.042 22 205.623 22 212.5C22 219.403 27.5964 225 34.5 225H60V225H219C227.284 225 234 218.284 234 210V200V26C234 23.7909 235.791 22 238 22H244C250.627 22 256 27.3726 256 34V200V225V232C256 240.284 249.284 247 241 247H43V247H20C8.9543 247 0 238.045 0 227V200V187V28C0 16.9543 8.95431 8 20 8Z"/>
</mask>
<path d="M127.272 8H147.272V-12H127.272V8ZM130.778 108.379L115.721 95.2152L115.721 95.2153L130.778 108.379ZM158.435 76.743L173.492 89.9067L173.492 89.9067L158.435 76.743ZM164.458 76.743L179.515 63.5793L179.515 63.5793L164.458 76.743ZM192.116 108.379L177.059 121.543L177.059 121.543L192.116 108.379ZM195.621 8V-12H175.621V8H195.621ZM34.421 200V180H34.3592L34.2973 180L34.421 200ZM60 225H80V205H60V225ZM60 225H40V245H60V225ZM43 247H23V267H43V247ZM43 247H63V227H43V247ZM127.272 -12H20V28H127.272V-12ZM147.272 107.063V8H107.272V107.063H147.272ZM115.721 95.2153C126.663 82.6993 147.272 90.4384 147.272 107.063H107.272C107.272 127.381 132.461 136.84 145.835 121.543L115.721 95.2153ZM143.378 63.5793L115.721 95.2152L145.835 121.543L173.492 89.9067L143.378 63.5793ZM179.515 63.5793C169.953 52.6413 152.941 52.6412 143.378 63.5794L173.492 89.9067C167.117 97.1988 155.776 97.1987 149.401 89.9067L179.515 63.5793ZM207.173 95.2152L179.515 63.5793L149.401 89.9067L177.059 121.543L207.173 95.2152ZM175.621 107.063C175.621 90.4382 196.231 82.6995 207.173 95.2152L177.059 121.543C190.432 136.84 215.621 127.381 215.621 107.063H175.621ZM175.621 8V107.063H215.621V8H175.621ZM212 -12H195.621V28H212V-12ZM237 13C237 -0.807146 225.807 -12 212 -12V28C203.716 28 197 21.2843 197 13H237ZM237 195V13H197V195H237ZM212 220C225.807 220 237 208.807 237 195H197C197 186.716 203.716 180 212 180V220ZM34.421 220H212V180H34.421V220ZM42 212.5C42 216.627 38.6679 219.974 34.5448 220L34.2973 180C16.4398 180.111 2 194.618 2 212.5H42ZM34.5 205C38.6421 205 42 208.358 42 212.5H2C2 230.449 16.5508 245 34.5 245V205ZM60 205H34.5V245H60V205ZM80 225V225H40V225H80ZM219 205H60V245H219V205ZM214 210C214 207.239 216.239 205 219 205V245C238.33 245 254 229.33 254 210H214ZM254 210V200H214V210H254ZM254 200V26H214V200H254ZM254 26C254 34.8365 246.837 42 238 42V2C224.745 2 214 12.7452 214 26H254ZM238 42H244V2H238V42ZM244 42C239.582 42 236 38.4183 236 34H276C276 16.3269 261.673 2 244 2V42ZM236 34V200H276V34H236ZM236 200V225H276V200H236ZM276 232V225H236V232H276ZM241 267C260.33 267 276 251.33 276 232H236C236 229.239 238.239 227 241 227V267ZM43 267H241V227H43V267ZM23 247V247H63V247H23ZM20 267H43V227H20V267ZM-20 227C-20 249.091 -2.0914 267 20 267V227C19.9856 227 19.9779 226.999 19.9758 226.999C19.9737 226.999 19.9749 226.999 19.9788 226.999C19.9826 227 19.9874 227.001 19.9926 227.003C19.9977 227.005 20.0023 227.006 20.0061 227.008C20.0138 227.011 20.0162 227.013 20.014 227.012C20.0114 227.01 20.0061 227.006 20 227C19.9939 226.994 19.9899 226.988 19.9881 226.986C19.9867 226.984 19.9885 226.986 19.9918 226.994C19.9934 226.997 19.9951 227.002 19.9967 227.007C19.9983 227.012 19.9995 227.017 20.0003 227.021C20.0011 227.025 20.0011 227.026 20.0009 227.024C20.0007 227.022 20 227.014 20 227H-20ZM-20 200V227H20V200H-20ZM-20 187V200H20V187H-20ZM-20 28V187H20V28H-20ZM20 -12C-2.09139 -12 -20 5.90862 -20 28H20C20 27.9856 20.0007 27.9779 20.0009 27.9758C20.0011 27.9737 20.0011 27.9749 20.0003 27.9788C19.9995 27.9826 19.9983 27.9874 19.9967 27.9926C19.9951 27.9977 19.9934 28.0023 19.9918 28.0061C19.9885 28.0138 19.9867 28.0162 19.9882 28.0139C19.9899 28.0114 19.9939 28.0061 20 28C20.0061 27.9939 20.0114 27.9899 20.0139 27.9881C20.0162 27.9867 20.0138 27.9885 20.0061 27.9918C20.0023 27.9934 19.9977 27.9951 19.9926 27.9967C19.9874 27.9983 19.9826 27.9995 19.9788 28.0003C19.9749 28.0011 19.9737 28.0011 19.9758 28.0009C19.9779 28.0007 19.9856 28 20 28V-12Z" fill="white" mask="url(#path-1-inside-1_391_149)"/>
</svg>
