<svg width="256" height="256" viewBox="0 0 256 256" fill="none" xmlns="http://www.w3.org/2000/svg">
<mask id="path-1-inside-1_710_380" fill="white">
<path d="M209 169.2C209 170.305 208.105 171.2 207 171.2H90.8539C90.8208 171.2 90.7985 171.234 90.8116 171.264C90.8248 171.295 90.8025 171.328 90.7694 171.328H63.4121C54.8794 171.328 47.962 178.246 47.9619 186.778C47.9619 194.345 53.4013 200.64 60.583 201.97C60.6957 201.99 60.8105 202 60.9251 202H214C215.105 202 216 201.105 216 200V45C216 43.8954 216.895 43 218 43H223C227.418 43 231 46.5817 231 51V216.4C231 220.818 227.418 224.4 223 224.4H58.0694C58.0311 224.4 58 224.369 58 224.331C58 224.294 57.9705 224.263 57.9334 224.262C40.6164 223.448 26.6165 208.708 25.1328 190.062C25.13 190.027 25.1012 190 25.0665 190C25.0298 190 25 189.97 25 189.934V51C25 40.5066 33.5066 32 44 32H207C208.105 32 209 32.8954 209 34V169.2ZM208 193C208 194.105 207.105 195 206 195H66C61.5817 195 58 191.418 58 187C58 182.582 61.5817 179 66 179H206C207.105 179 208 179.895 208 181V193Z"/>
</mask>
<path d="M47.9619 186.778L25.9619 186.778V186.778L47.9619 186.778ZM231 216.4L253 216.401V216.4H231ZM66 195L66 217H66V195ZM25.1328 190.062L47.0635 188.316L25.1328 190.062ZM57.9334 224.262L58.9656 202.286L57.9334 224.262ZM90.8116 171.264L70.6196 179.998L90.8116 171.264ZM60.583 201.97L56.5795 223.602L60.583 201.97ZM207 171.2V149.2H90.8539V171.2V193.2H207V171.2ZM90.7694 171.328V149.328H63.4121V171.328V193.328H90.7694V171.328ZM63.4121 171.328V149.328C42.7288 149.328 25.9622 166.096 25.9619 186.778L47.9619 186.778L69.9619 186.779C69.9619 190.396 67.03 193.328 63.4121 193.328V171.328ZM47.9619 186.778L25.9619 186.778C25.962 205.144 39.1595 220.378 56.5795 223.602L60.583 201.97L64.5865 180.337C67.6431 180.903 69.9619 183.546 69.9619 186.778L47.9619 186.778ZM60.9251 202V224H214V202V180H60.9251V202ZM216 200H238V45H216H194V200H216ZM218 43V65H223V43V21H218V43ZM223 43V65C215.268 65 209 58.732 209 51H231H253C253 34.4315 239.569 21 223 21V43ZM231 51H209V216.4H231H253V51H231ZM231 216.4L209 216.399C209 208.669 215.267 202.4 223 202.4V224.4V246.4C239.569 246.4 252.999 232.968 253 216.401L231 216.4ZM223 224.4V202.4H58.0694V224.4V246.4H223V224.4ZM57.9334 224.262L58.9656 202.286C54.1882 202.061 47.7907 197.455 47.0635 188.316L25.1328 190.062L3.20211 191.807C5.44241 219.96 27.0446 244.835 56.9013 246.237L57.9334 224.262ZM25 189.934H47V51H25H3V189.934H25ZM25 51H47C47 52.6569 45.6569 54 44 54V32V10C21.3563 10 3 28.3563 3 51H25ZM44 32V54H207V32V10H44V32ZM209 34H187V169.2H209H231V34H209ZM206 195V173H66V195V217H206V195ZM66 195L66 173C73.732 173 80 179.268 80 187H58H36C36 203.569 49.4315 217 66 217L66 195ZM58 187H80C80 194.732 73.732 201 66 201V179V157C49.4315 157 36 170.431 36 187H58ZM66 179V201H206V179V157H66V179ZM208 181H186V193H208H230V181H208ZM206 195V217C219.255 217 230 206.255 230 193H208H186C186 181.954 194.954 173 206 173V195ZM25.0665 190V168C37.18 168 47 177.82 47 189.934H25H3C3 202.121 12.8795 212 25.0665 212V190ZM25.1328 190.062L47.0635 188.316C46.1618 176.986 36.7156 168 25.0665 168V190V212C13.4867 212 4.09825 203.068 3.20211 191.807L25.1328 190.062ZM207 32V54C195.954 54 187 45.0457 187 34H209H231C231 20.7452 220.255 10 207 10V32ZM216 45H238C238 56.0457 229.046 65 218 65V43V21C204.745 21 194 31.7451 194 45H216ZM58 224.331H80C80 212.395 70.5882 202.832 58.9656 202.286L57.9334 224.262L56.9013 246.237C45.3528 245.695 36 236.193 36 224.331H58ZM90.8116 171.264L70.6196 179.998C64.2805 165.343 75.1519 149.328 90.7694 149.328V171.328V193.328C106.453 193.328 117.369 177.246 111.004 162.53L90.8116 171.264ZM214 202V224C227.255 224 238 213.255 238 200H216H194C194 188.954 202.954 180 214 180V202ZM58.0694 224.4V202.4C70.1811 202.4 80 212.219 80 224.331H58H36C36 236.52 45.8811 246.4 58.0694 246.4V224.4ZM90.8539 171.2V149.2C75.1215 149.2 64.2734 165.326 70.6196 179.998L90.8116 171.264L111.004 162.53C117.324 177.141 106.52 193.2 90.8539 193.2V171.2ZM60.583 201.97L56.5795 223.602C58.1266 223.889 59.5887 224 60.9251 224V202V180C62.0323 180 63.2647 180.092 64.5865 180.337L60.583 201.97ZM206 179V201C194.954 201 186 192.046 186 181H208H230C230 167.745 219.255 157 206 157V179ZM207 171.2V193.2C220.255 193.2 231 182.455 231 169.2H209H187C187 158.155 195.954 149.2 207 149.2V171.2Z" fill="white" mask="url(#path-1-inside-1_710_380)"/>
<path d="M47 138.7V139.2C47 144.723 51.4772 149.2 57 149.2H69V164.2H41V138.7H47Z" fill="white"/>
<path d="M187 138.7V139.2C187 144.723 182.523 149.2 177 149.2H165V164.2H193V138.7H187Z" fill="white"/>
<path d="M47 64.5V64C47 58.4772 51.4772 54 57 54H69V39H41V64.5H47Z" fill="white"/>
<path d="M187 64.5V64C187 58.4772 182.523 54 177 54H165V39H193V64.5H187Z" fill="white"/>
</svg>
