<svg width="256" height="256" viewBox="0 0 256 256" fill="none" xmlns="http://www.w3.org/2000/svg">
<mask id="path-1-inside-1_710_405" fill="white">
<path d="M124.272 107.062C124.272 108.91 126.562 109.769 127.777 108.379L155.436 76.7432C157.029 74.9202 159.864 74.9202 161.458 76.7432L189.116 108.379C190.332 109.769 192.621 108.91 192.621 107.062V13C192.621 10.2386 194.86 8 197.621 8H212C214.761 8 217 10.2386 217 13V195C217 197.761 214.761 200 212 200H34.5C27.5964 200 22 205.596 22 212.5C22.0001 219.403 27.5965 225 34.5 225H219C227.284 225 234 218.284 234 210V26C234 23.7909 235.791 22 238 22H244C250.627 22 256 27.3726 256 34V232C256 240.284 249.284 247 241 247H20C8.95439 247 0.000132273 238.046 0 227V28C2.06176e-06 16.9543 8.95431 8 20 8H119.272C122.034 8 124.272 10.2386 124.272 13V107.062Z"/>
</mask>
<path d="M127.777 108.379L144.339 122.861L144.34 122.859L127.777 108.379ZM155.436 76.7432L138.873 62.2629L138.873 62.2629L155.436 76.7432ZM161.458 76.7432L144.895 91.2232L144.895 91.2234L161.458 76.7432ZM189.116 108.379L172.554 122.859L172.555 122.861L189.116 108.379ZM212 8L212 -14H212V8ZM22 212.5H-4.01814e-09L4.01814e-09 212.5L22 212.5ZM34.5 225L34.5 247H34.5V225ZM234 26L212 26V26H234ZM0 227H-22V227L0 227ZM0 28L-22 28V28H0ZM20 8V-14V-14V8ZM124.272 107.062H102.272C102.272 129.224 129.747 139.548 144.339 122.861L127.777 108.379L111.216 93.8973C123.376 79.9904 146.272 88.595 146.272 107.062H124.272ZM127.777 108.379L144.34 122.859L171.998 91.2234L155.436 76.7432L138.873 62.2629L111.215 93.8986L127.777 108.379ZM155.436 76.7432L171.998 91.2235C164.826 99.4265 152.067 99.427 144.895 91.2232L161.458 76.7432L178.021 62.2631C167.661 50.4133 149.232 50.4139 138.873 62.2629L155.436 76.7432ZM161.458 76.7432L144.895 91.2234L172.554 122.859L189.116 108.379L205.679 93.8986L178.021 62.2629L161.458 76.7432ZM189.116 108.379L172.555 122.861C187.146 139.547 214.621 129.225 214.621 107.062H192.621H170.621C170.621 88.5936 193.518 79.9917 205.677 93.8968L189.116 108.379ZM192.621 107.062H214.621V13H192.621H170.621V107.062H192.621ZM197.621 8V30H212V8V-14H197.621V8ZM212 8L212 30C202.611 30 195 22.3888 195 13H217H239C239 -1.91168 226.912 -14 212 -14L212 8ZM217 13H195V195H217H239V13H217ZM217 195H195C195 185.611 202.611 178 212 178V200V222C226.912 222 239 209.912 239 195H217ZM212 200V178H34.5V200V222H212V200ZM34.5 200V178C15.4462 178 0 193.446 0 212.5H22H44C44 217.747 39.7467 222 34.5 222V200ZM22 212.5L4.01814e-09 212.5C0.000364153 231.553 15.4458 247 34.5 247L34.5 225L34.5 203C39.7472 203 43.9999 207.253 44 212.5L22 212.5ZM34.5 225V247H219V225V203H34.5V225ZM219 225V247C239.435 247 256 230.435 256 210H234H212C212 206.134 215.134 203 219 203V225ZM234 210H256V26H234H212V210H234ZM234 26L256 26C256 35.9411 247.941 44 238 44V22V0C223.641 0 212 11.6406 212 26L234 26ZM238 22V44H244V22V0H238V22ZM244 22V44C238.477 44 234 39.5228 234 34H256H278C278 15.2223 262.778 0 244 0V22ZM256 34H234V232H256H278V34H256ZM256 232H234C234 228.134 237.134 225 241 225V247V269C261.435 269 278 252.435 278 232H256ZM241 247V225H20V247V269H241V247ZM20 247V225C21.1049 225 22 225.896 22 227L0 227L-22 227C-21.9997 250.196 -3.19614 269 20 269V247ZM0 227H22V28H0H-22V227H0ZM0 28L22 28C22 29.1046 21.1046 30 20 30V8V-14C-3.19596 -14 -22 4.80405 -22 28L0 28ZM20 8V30H119.272V8V-14H20V8ZM124.272 13H102.272V107.062H124.272H146.272V13H124.272ZM119.272 8V30C109.884 30 102.272 22.3888 102.272 13H124.272H146.272C146.272 -1.91168 134.184 -14 119.272 -14V8ZM192.621 13H214.621C214.621 22.3888 207.01 30 197.621 30V8V-14C182.709 -14 170.621 -1.91167 170.621 13H192.621Z" fill="white" mask="url(#path-1-inside-1_710_405)"/>
<path d="M22 167.5V168C22 173.523 26.4772 178 32 178H44V193H16V167.5H22Z" fill="white"/>
<path d="M22 40.5V40C22 34.4772 26.4772 30 32 30H44V15H16V40.5H22Z" fill="white"/>
<path d="M195 168V168.5C195 174.023 190.523 178.5 185 178.5H173V193.5H201V168H195Z" fill="white"/>
</svg>
