<svg width="256" height="256" viewBox="0 0 256 256" fill="none" xmlns="http://www.w3.org/2000/svg">
<g clip-path="url(#clip0_180_89)">
<mask id="path-1-inside-1_180_89" fill="white">
<path fill-rule="evenodd" clip-rule="evenodd" d="M118.058 8H23.6117H23.6116C10.5713 8.00002 0 18.5713 0 31.6116V200.346V204.35H0.155554C1.96942 227.588 19.4276 245.966 41.0097 246.935V247.099H248C252.418 247.099 256 243.517 256 239.099V219.262L256 29.6699C256 25.2516 252.418 21.6699 248 21.6699H237.359V219.262H44.4266C35.3992 217.694 28.5349 209.822 28.5349 200.346C28.5349 189.742 37.131 181.146 47.7349 181.146H81.8189C81.7968 181.093 81.7747 181.04 81.7524 180.986H228.66V8H206.291H192.621H124.272H118.058ZM124.272 17.9417V107.062C124.272 108.909 126.562 109.769 127.778 108.379L155.435 76.7428C157.029 74.9198 159.864 74.9198 161.458 76.7428L189.116 108.379C190.332 109.769 192.621 108.909 192.621 107.062V17.9417H124.272ZM41.0097 200.621C41.0097 195.131 45.4608 190.68 50.9515 190.68H227.418V210.563H50.9515C45.4608 210.563 41.0097 206.112 41.0097 200.621Z"/>
</mask>
<path d="M23.6116 8V-7H23.6116L23.6116 8ZM0 204.35H-15V219.35H0V204.35ZM0.155554 204.35L15.1101 203.182L14.0303 189.35H0.155554V204.35ZM41.0097 246.935H56.0097V232.593L41.6822 231.95L41.0097 246.935ZM41.0097 247.099H26.0097V262.099H41.0097V247.099ZM256 219.262H271H256ZM256 29.6699H241V29.6699L256 29.6699ZM237.359 21.6699V6.66991H222.359V21.6699H237.359ZM237.359 219.262V234.262H252.359V219.262H237.359ZM44.4266 219.262L41.8598 234.041L43.1336 234.262H44.4266V219.262ZM81.8189 181.146V196.146H104.29L95.672 175.393L81.8189 181.146ZM81.7524 180.986V165.986H59.1926L67.9204 186.789L81.7524 180.986ZM228.66 180.986V195.986H243.66V180.986H228.66ZM228.66 8H243.66V-7H228.66V8ZM124.272 17.9417V2.94175H109.272V17.9417H124.272ZM127.778 108.379L116.485 98.5059L116.485 98.5059L127.778 108.379ZM155.435 76.7428L144.142 66.87L144.142 66.87L155.435 76.7428ZM161.458 76.7428L150.165 86.6155L150.165 86.6156L161.458 76.7428ZM189.116 108.379L200.409 98.5059L200.409 98.5059L189.116 108.379ZM192.621 17.9417H207.621V2.94175H192.621V17.9417ZM227.418 190.68H242.418V175.68H227.418V190.68ZM227.418 210.563V225.563H242.418V210.563H227.418ZM23.6117 23H118.058V-7H23.6117V23ZM23.6116 23H23.6117V-7H23.6116V23ZM15 31.6116C15 26.8556 18.8555 23 23.6116 23L23.6116 -7C2.287 -6.99996 -15 10.287 -15 31.6116H15ZM15 200.346V31.6116H-15V200.346H15ZM15 204.35V200.346H-15V204.35H15ZM0.155554 189.35H0V219.35H0.155554V189.35ZM41.6822 231.95C28.677 231.366 16.4168 219.923 15.1101 203.182L-14.799 205.517C-12.4779 235.252 10.1781 260.566 40.3372 261.919L41.6822 231.95ZM56.0097 247.099V246.935H26.0097V247.099H56.0097ZM248 232.099H41.0097V262.099H248V232.099ZM241 239.099C241 235.233 244.134 232.099 248 232.099V262.099C260.703 262.099 271 251.801 271 239.099H241ZM241 219.262V239.099H271V219.262H241ZM241 29.6699L241 219.262H271L271 29.6699L241 29.6699ZM248 36.6699C244.134 36.6699 241 33.5359 241 29.6699H271C271 16.9674 260.702 6.66991 248 6.66991V36.6699ZM237.359 36.6699H248V6.66991H237.359V36.6699ZM252.359 219.262V21.6699H222.359V219.262H252.359ZM44.4266 234.262H237.359V204.262H44.4266V234.262ZM13.5349 200.346C13.5349 217.24 25.7693 231.246 41.8598 234.041L46.9933 204.483C45.0292 204.142 43.5349 202.403 43.5349 200.346H13.5349ZM47.7349 166.146C28.8468 166.146 13.5349 181.458 13.5349 200.346H43.5349C43.5349 198.026 45.4153 196.146 47.7349 196.146V166.146ZM81.8189 166.146H47.7349V196.146H81.8189V166.146ZM67.9204 186.789C67.9358 186.826 67.9509 186.863 67.9659 186.898L95.672 175.393C95.6427 175.323 95.6135 175.253 95.5844 175.183L67.9204 186.789ZM228.66 165.986H81.7524V195.986H228.66V165.986ZM213.66 8V180.986H243.66V8H213.66ZM206.291 23H228.66V-7H206.291V23ZM192.621 23H206.291V-7H192.621V23ZM124.272 23H192.621V-7H124.272V23ZM118.058 23H124.272V-7H118.058V23ZM109.272 17.9417V107.062H139.272V17.9417H109.272ZM109.272 107.062C109.272 122.763 128.736 130.072 139.071 118.251L116.485 98.5059C124.387 89.4666 139.272 95.056 139.272 107.062H109.272ZM139.071 118.251L166.728 86.6155L144.142 66.87L116.485 98.5059L139.071 118.251ZM166.728 86.6156C162.345 91.6288 154.548 91.6289 150.165 86.6155L172.751 66.8701C165.181 58.2106 151.713 58.2107 144.142 66.87L166.728 86.6156ZM150.165 86.6156L177.823 118.251L200.409 98.5059L172.751 66.87L150.165 86.6156ZM177.823 118.251C188.157 130.072 207.621 122.763 207.621 107.062H177.621C177.621 95.056 192.506 89.4666 200.409 98.5059L177.823 118.251ZM207.621 107.062V17.9417H177.621V107.062H207.621ZM192.621 2.94175H124.272V32.9417H192.621V2.94175ZM50.9515 175.68C37.1765 175.68 26.0097 186.846 26.0097 200.621H56.0097C56.0097 203.415 53.7451 205.68 50.9515 205.68V175.68ZM227.418 175.68H50.9515V205.68H227.418V175.68ZM242.418 210.563V190.68H212.418V210.563H242.418ZM50.9515 225.563H227.418V195.563H50.9515V225.563ZM26.0097 200.621C26.0097 214.396 37.1765 225.563 50.9515 225.563V195.563C53.7451 195.563 56.0097 197.828 56.0097 200.621H26.0097Z" fill="white" mask="url(#path-1-inside-1_180_89)"/>
</g>
<defs>
<clipPath id="clip0_180_89">
<rect width="256" height="256" fill="white"/>
</clipPath>
</defs>
</svg>
