<svg width="256" height="256" viewBox="0 0 256 256" fill="none" xmlns="http://www.w3.org/2000/svg">
<mask id="path-1-inside-1_180_89" fill="white">
<path fill-rule="evenodd" clip-rule="evenodd" d="M120 32H44C33.5066 32 25 40.5066 25 51V186.779V190H25.1252C26.5848 208.699 40.6331 223.488 58 224.268V224.4H223C227.418 224.4 231 220.818 231 216.4V202V51C231 46.5817 227.418 43 223 43H216V202H60.7494C53.4852 200.738 47.9616 194.403 47.9616 186.779C47.9616 178.246 54.8788 171.329 63.4116 171.329H90.8388L90.7851 171.2H209V32H191H180H125H120ZM125 40V110.674C125 112.521 127.29 113.381 128.506 111.99L149.489 87.989C151.082 86.166 153.918 86.166 155.511 87.989L176.494 111.99C177.71 113.381 180 112.521 180 110.674V40H125ZM58 187C58 182.582 61.5817 179 66 179H208V195H66C61.5817 195 58 191.418 58 187Z"/>
</mask>
<path d="M25 190H17V198H25V190ZM25.1252 190L33.1009 189.377L32.5251 182H25.1252V190ZM58 224.268H66V216.619L58.3587 216.276L58 224.268ZM58 224.4H50V232.4H58V224.4ZM216 43V35H208V43H216ZM216 202V210H224V202H216ZM60.7494 202L59.3804 209.882L60.0598 210H60.7494V202ZM90.8388 171.329V179.329H102.847L98.2214 168.247L90.8388 171.329ZM90.7851 171.2V163.2H78.7768L83.4025 174.282L90.7851 171.2ZM209 171.2V179.2H217V171.2H209ZM209 32H217V24H209V32ZM125 40V32H117V40H125ZM128.506 111.99L134.529 117.256L134.529 117.256L128.506 111.99ZM149.489 87.989L143.466 82.7235L149.489 87.989ZM155.511 87.989L149.489 93.2545L149.489 93.2545L155.511 87.989ZM176.494 111.99L182.517 106.725L182.517 106.725L176.494 111.99ZM180 40H188V32H180V40ZM208 179H216V171H208V179ZM208 195V203H216V195H208ZM44 40H120V24H44V40ZM33 51C33 44.9249 37.9249 40 44 40V24C29.0883 24 17 36.0883 17 51H33ZM33 186.779V51H17V186.779H33ZM33 190V186.779H17V190H33ZM25.1252 182H25V198H25.1252V182ZM58.3587 216.276C45.5661 215.702 34.29 204.612 33.1009 189.377L17.1494 190.623C18.8795 212.787 35.7001 231.275 57.6413 232.26L58.3587 216.276ZM66 224.4V224.268H50V224.4H66ZM223 216.4H58V232.4H223V216.4ZM223 216.4V216.4V232.4C231.837 232.4 239 225.237 239 216.4H223ZM223 202V216.4H239V202H223ZM223 51V202H239V51H223ZM223 51H239C239 42.1634 231.837 35 223 35V51ZM216 51H223V35H216V51ZM224 202V43H208V202H224ZM60.7494 210H216V194H60.7494V210ZM39.9616 186.779C39.9616 198.36 48.3492 207.966 59.3804 209.882L62.1184 194.118C58.6213 193.511 55.9616 190.447 55.9616 186.779H39.9616ZM63.4116 163.329C50.4606 163.329 39.9616 173.827 39.9616 186.779H55.9616C55.9616 182.664 59.2971 179.329 63.4116 179.329V163.329ZM90.8388 163.329H63.4116V179.329H90.8388V163.329ZM83.4025 174.282L83.4561 174.41L98.2214 168.247L98.1678 168.118L83.4025 174.282ZM209 163.2H90.7851V179.2H209V163.2ZM201 32V171.2H217V32H201ZM191 40H209V24H191V40ZM180 40H191V24H180V40ZM125 40H180V24H125V40ZM120 40H125V24H120V40ZM117 40V110.674H133V40H117ZM117 110.674C117 119.909 128.45 124.209 134.529 117.256L122.483 106.725C126.13 102.553 133 105.132 133 110.674H117ZM134.529 117.256L155.511 93.2545L143.466 82.7235L122.483 106.725L134.529 117.256ZM155.511 93.2545C153.918 95.0775 151.082 95.0775 149.489 93.2545L161.534 82.7235C156.753 77.2545 148.247 77.2545 143.466 82.7235L155.511 93.2545ZM149.489 93.2545L170.471 117.256L182.517 106.725L161.534 82.7235L149.489 93.2545ZM170.471 117.255C176.55 124.209 188 119.909 188 110.674H172C172 105.132 178.87 102.553 182.517 106.725L170.471 117.255ZM188 110.674V40H172V110.674H188ZM180 32H125V48H180V32ZM66 171C57.1634 171 50 178.163 50 187H66V171ZM208 171H66V187H208V171ZM216 195V179H200V195H216ZM66 203H208V187H66V203ZM50 187C50 195.837 57.1634 203 66 203V187H50Z" fill="white" mask="url(#path-1-inside-1_180_89)"/>
</svg>
