<svg width="256" height="256" viewBox="0 0 256 256" fill="none" xmlns="http://www.w3.org/2000/svg">
<mask id="path-1-inside-1_179_38" fill="white">
<path fill-rule="evenodd" clip-rule="evenodd" d="M23.6116 8.65039H228.66V181.637H81.7524C81.7747 181.69 81.7968 181.743 81.8189 181.796H47.7348C37.131 181.796 28.5348 190.392 28.5348 200.996C28.5348 210.472 35.3992 218.344 44.4265 219.912H237.359V22.3203H248C252.418 22.3203 256 25.902 256 30.3203V219.912V219.913V239.749C256 244.167 252.418 247.749 248 247.749H41.0097V247.585C19.4275 246.616 1.96942 228.238 0.155554 205H0V200.996V32.262C0 19.2217 10.5713 8.65039 23.6116 8.65039ZM75.8058 55.8748C70.3152 55.8748 65.8641 60.3259 65.8641 65.8166C65.8641 71.3072 70.3151 75.7583 75.8058 75.7583H180.194C185.685 75.7583 190.136 71.3072 190.136 65.8166C190.136 60.3259 185.685 55.8748 180.194 55.8748H75.8058ZM75.8058 95.6421C70.3152 95.6421 65.8641 100.093 65.8641 105.584C65.8641 111.075 70.3151 115.526 75.8058 115.526H180.194C185.685 115.526 190.136 111.075 190.136 105.584C190.136 100.093 185.685 95.6421 180.194 95.6421H75.8058ZM50.9515 191.33C45.4608 191.33 41.0097 195.781 41.0097 201.272C41.0097 206.762 45.4608 211.214 50.9515 211.214H227.417V191.33H50.9515Z"/>
</mask>
<path d="M228.66 8.65039H243.66V-6.34961H228.66V8.65039ZM228.66 181.637V196.637H243.66V181.637H228.66ZM81.7524 181.637V166.637H59.1926L67.9204 187.44L81.7524 181.637ZM81.8189 181.796V196.796H104.29L95.672 176.044L81.8189 181.796ZM44.4265 219.912L41.8597 234.691L43.1336 234.912H44.4265V219.912ZM237.359 219.912V234.912H252.359V219.912H237.359ZM237.359 22.3203V7.3203H222.359V22.3203H237.359ZM41.0097 247.749H26.0097V262.749H41.0097V247.749ZM41.0097 247.585H56.0097V233.243L41.6822 232.6L41.0097 247.585ZM0.155554 205L15.1101 203.833L14.0303 190H0.155554V205ZM0 205H-15V220H0V205ZM227.417 211.214V226.214H242.417V211.214H227.417ZM227.417 191.33H242.417V176.33H227.417V191.33ZM228.66 -6.34961H23.6116V23.6504H228.66V-6.34961ZM243.66 181.637V8.65039H213.66V181.637H243.66ZM81.7524 196.637H228.66V166.637H81.7524V196.637ZM95.672 176.044C95.6427 175.973 95.6135 175.903 95.5844 175.834L67.9204 187.44C67.9358 187.477 67.9509 187.513 67.9659 187.549L95.672 176.044ZM47.7348 196.796H81.8189V166.796H47.7348V196.796ZM43.5348 200.996C43.5348 198.677 45.4152 196.796 47.7348 196.796V166.796C28.8467 166.796 13.5348 182.108 13.5348 200.996H43.5348ZM46.9933 205.134C45.0292 204.792 43.5348 203.054 43.5348 200.996H13.5348C13.5348 217.89 25.7692 231.896 41.8597 234.691L46.9933 205.134ZM237.359 204.912H44.4265V234.912H237.359V204.912ZM222.359 22.3203V219.912H252.359V22.3203H222.359ZM248 7.3203H237.359V37.3203H248V7.3203ZM271 30.3203C271 17.6178 260.703 7.3203 248 7.3203V37.3203C244.134 37.3203 241 34.1863 241 30.3203H271ZM271 219.912V30.3203H241V219.912H271ZM271 219.913V219.912H241V219.913H271ZM271 239.749V219.913H241V239.749H271ZM248 262.749C260.703 262.749 271 252.452 271 239.749H241C241 235.883 244.134 232.749 248 232.749V262.749ZM41.0097 262.749H248V232.749H41.0097V262.749ZM26.0097 247.585V247.749H56.0097V247.585H26.0097ZM-14.799 206.167C-12.4779 235.903 10.1781 261.216 40.3372 262.57L41.6822 232.6C28.677 232.016 16.4168 220.573 15.1101 203.833L-14.799 206.167ZM0 220H0.155554V190H0V220ZM-15 200.996V205H15V200.996H-15ZM-15 32.262V200.996H15V32.262H-15ZM23.6116 -6.34961C2.28704 -6.34961 -15 10.9374 -15 32.262H15C15 27.506 18.8556 23.6504 23.6116 23.6504V-6.34961ZM80.8641 65.8166C80.8641 68.6102 78.5994 70.8748 75.8058 70.8748V40.8748C62.0309 40.8748 50.8641 52.0416 50.8641 65.8166H80.8641ZM75.8058 60.7583C78.5994 60.7583 80.8641 63.023 80.8641 65.8166H50.8641C50.8641 79.5915 62.0308 90.7583 75.8058 90.7583V60.7583ZM180.194 60.7583H75.8058V90.7583H180.194V60.7583ZM175.136 65.8166C175.136 63.023 177.401 60.7583 180.194 60.7583V90.7583C193.969 90.7583 205.136 79.5915 205.136 65.8166H175.136ZM180.194 70.8748C177.401 70.8748 175.136 68.6101 175.136 65.8166H205.136C205.136 52.0417 193.969 40.8748 180.194 40.8748V70.8748ZM75.8058 70.8748H180.194V40.8748H75.8058V70.8748ZM80.8641 105.584C80.8641 108.377 78.5994 110.642 75.8058 110.642V80.6421C62.0309 80.6421 50.8641 91.8089 50.8641 105.584H80.8641ZM75.8058 100.526C78.5994 100.526 80.8641 102.79 80.8641 105.584H50.8641C50.8641 119.359 62.0308 130.526 75.8058 130.526V100.526ZM180.194 100.526H75.8058V130.526H180.194V100.526ZM175.136 105.584C175.136 102.79 177.401 100.526 180.194 100.526V130.526C193.969 130.526 205.136 119.359 205.136 105.584H175.136ZM180.194 110.642C177.401 110.642 175.136 108.377 175.136 105.584H205.136C205.136 91.809 193.969 80.6421 180.194 80.6421V110.642ZM75.8058 110.642H180.194V80.6421H75.8058V110.642ZM56.0097 201.272C56.0097 204.065 53.7451 206.33 50.9515 206.33V176.33C37.1765 176.33 26.0097 187.497 26.0097 201.272H56.0097ZM50.9515 196.214C53.7451 196.214 56.0097 198.478 56.0097 201.272H26.0097C26.0097 215.047 37.1765 226.214 50.9515 226.214V196.214ZM227.417 196.214H50.9515V226.214H227.417V196.214ZM212.417 191.33V211.214H242.417V191.33H212.417ZM50.9515 206.33H227.417V176.33H50.9515V206.33Z" fill="white" mask="url(#path-1-inside-1_179_38)"/>
</svg>
