<svg width="256" height="256" viewBox="0 0 256 256" fill="none" xmlns="http://www.w3.org/2000/svg">
<mask id="path-1-inside-1_710_391" fill="white">
<path d="M212 8C214.761 8 217 10.2386 217 13V195C217 197.761 214.761 200 212 200H34.5C27.5964 200 22 205.596 22 212.5C22.0001 219.403 27.5965 225 34.5 225H219C227.284 225 234 218.284 234 210V26C234 23.7909 235.791 22 238 22H244C250.627 22 256 27.3726 256 34V232C256 240.284 249.284 247 241 247H20C8.95439 247 0.000132273 238.046 0 227V28C2.06162e-06 16.9543 8.95431 8 20 8H212ZM73.8379 90.8252C69.4197 90.8252 65.8381 94.4071 65.8379 98.8252C65.8379 103.243 69.4196 106.825 73.8379 106.825H161.838C166.256 106.825 169.838 103.243 169.838 98.8252C169.838 94.4072 166.256 90.8254 161.838 90.8252H73.8379ZM73.8379 58.8252C69.4197 58.8252 65.8381 62.4071 65.8379 66.8252C65.8379 71.2435 69.4196 74.8252 73.8379 74.8252H161.838C166.256 74.825 169.838 71.2433 169.838 66.8252C169.838 62.4072 166.256 58.8254 161.838 58.8252H73.8379Z"/>
</mask>
<path d="M22 212.5H-4.01814e-09L4.01814e-09 212.5L22 212.5ZM34.5 225L34.5 247H34.5V225ZM234 26L212 26V26H234ZM0 227H-22V227L0 227ZM0 28L-22 28V28H0ZM65.8379 98.8252L43.8379 98.8243V98.8252H65.8379ZM161.838 106.825V128.825H161.839L161.838 106.825ZM169.838 98.8252H191.838V98.8243L169.838 98.8252ZM161.838 90.8252L161.839 68.8252H161.838V90.8252ZM65.8379 66.8252L43.8379 66.8243V66.8252H65.8379ZM161.838 74.8252V96.8252H161.839L161.838 74.8252ZM169.838 66.8252H191.838V66.8243L169.838 66.8252ZM161.838 58.8252L161.839 36.8252H161.838V58.8252ZM212 8V30C202.611 30 195 22.3889 195 13H217H239C239 -1.91172 226.912 -14 212 -14V8ZM217 13H195V195H217H239V13H217ZM217 195H195C195 185.611 202.611 178 212 178V200V222C226.912 222 239 209.912 239 195H217ZM212 200V178H34.5V200V222H212V200ZM34.5 200V178C15.4462 178 0 193.446 0 212.5H22H44C44 217.747 39.7467 222 34.5 222V200ZM22 212.5L4.01814e-09 212.5C0.000364153 231.553 15.4458 247 34.5 247L34.5 225L34.5 203C39.7472 203 43.9999 207.253 44 212.5L22 212.5ZM34.5 225V247H219V225V203H34.5V225ZM219 225V247C239.435 247 256 230.435 256 210H234H212C212 206.134 215.134 203 219 203V225ZM234 210H256V26H234H212V210H234ZM234 26L256 26C256 35.9411 247.941 44 238 44V22V0C223.641 0 212 11.6406 212 26L234 26ZM238 22V44H244V22V0H238V22ZM244 22V44C238.477 44 234 39.5228 234 34H256H278C278 15.2223 262.778 0 244 0V22ZM256 34H234V232H256H278V34H256ZM256 232H234C234 228.134 237.134 225 241 225V247V269C261.435 269 278 252.435 278 232H256ZM241 247V225H20V247V269H241V247ZM20 247V225C21.1049 225 22 225.896 22 227L0 227L-22 227C-21.9997 250.196 -3.19614 269 20 269V247ZM0 227H22V28H0H-22V227H0ZM0 28L22 28C22 29.1046 21.1046 30 20 30V8V-14C-3.19596 -14 -22 4.80405 -22 28L0 28ZM20 8V30H212V8V-14H20V8ZM73.8379 90.8252V68.8252C57.2685 68.8252 43.8386 82.2575 43.8379 98.8243L65.8379 98.8252L87.8379 98.8261C87.8376 106.557 81.5709 112.825 73.8379 112.825V90.8252ZM65.8379 98.8252H43.8379C43.8379 115.394 57.2693 128.825 73.8379 128.825V106.825V84.8252C81.5699 84.8252 87.8379 91.0932 87.8379 98.8252H65.8379ZM73.8379 106.825V128.825H161.838V106.825V84.8252H73.8379V106.825ZM161.838 106.825L161.839 128.825C178.405 128.824 191.838 115.395 191.838 98.8252H169.838H147.838C147.838 91.092 154.107 84.8256 161.837 84.8252L161.838 106.825ZM169.838 98.8252L191.838 98.8243C191.837 82.2566 178.406 68.826 161.839 68.8252L161.838 90.8252L161.837 112.825C154.106 112.825 147.838 106.558 147.838 98.8261L169.838 98.8252ZM161.838 90.8252V68.8252H73.8379V90.8252V112.825H161.838V90.8252ZM73.8379 58.8252V36.8252C57.2685 36.8252 43.8386 50.2575 43.8379 66.8243L65.8379 66.8252L87.8379 66.8261C87.8376 74.5566 81.5709 80.8252 73.8379 80.8252V58.8252ZM65.8379 66.8252H43.8379C43.8379 83.3937 57.2693 96.8252 73.8379 96.8252V74.8252V52.8252C81.5699 52.8252 87.8379 59.0932 87.8379 66.8252H65.8379ZM73.8379 74.8252V96.8252H161.838V74.8252V52.8252H73.8379V74.8252ZM161.838 74.8252L161.839 96.8252C178.405 96.8244 191.838 83.3947 191.838 66.8252H169.838H147.838C147.838 59.092 154.107 52.8256 161.837 52.8252L161.838 74.8252ZM169.838 66.8252L191.838 66.8243C191.837 50.2566 178.406 36.826 161.839 36.8252L161.838 58.8252L161.837 80.8252C154.106 80.8248 147.838 74.5578 147.838 66.8261L169.838 66.8252ZM161.838 58.8252V36.8252H73.8379V58.8252V80.8252H161.838V58.8252Z" fill="white" mask="url(#path-1-inside-1_710_391)"/>
<path d="M22 167.5V168C22 173.523 26.4772 178 32 178H44V193H16V167.5H22Z" fill="white"/>
<path d="M195 167.5V168C195 173.523 190.523 178 185 178H173V193H201V167.5H195Z" fill="white"/>
<path d="M22 40.5V40C22 34.4772 26.4772 30 32 30H44V15H16V40.5H22Z" fill="white"/>
<path d="M195 40.5V40C195 34.4772 190.523 30 185 30H173V15H201V40.5H195Z" fill="white"/>
</svg>
