<svg width="256" height="256" viewBox="0 0 256 256" fill="none" xmlns="http://www.w3.org/2000/svg">
<mask id="path-1-inside-1_179_38" fill="white">
<path fill-rule="evenodd" clip-rule="evenodd" d="M44 32H209V171.2H90.7851L90.8388 171.329H63.4116C54.8788 171.329 47.9616 178.246 47.9616 186.779C47.9616 194.403 53.4852 200.738 60.7494 202H216V43H223C227.418 43 231 46.5817 231 51V202V216.4C231 220.818 227.418 224.4 223 224.4H58V224.268C40.6331 223.488 26.5848 208.699 25.1252 190H25V186.779V51C25 40.5066 33.5066 32 44 32ZM86 70C81.5817 70 78 73.5817 78 78C78 82.4183 81.5817 86 86 86H170C174.418 86 178 82.4183 178 78C178 73.5817 174.418 70 170 70H86ZM86 102C81.5817 102 78 105.582 78 110C78 114.418 81.5817 118 86 118H170C174.418 118 178 114.418 178 110C178 105.582 174.418 102 170 102H86ZM66 179C61.5817 179 58 182.582 58 187C58 191.418 61.5817 195 66 195H208V179H66Z"/>
</mask>
<path d="M209 32H217V24H209V32ZM209 171.2V179.2H217V171.2H209ZM90.7851 171.2V163.2H78.7768L83.4025 174.282L90.7851 171.2ZM90.8388 171.329V179.329H102.847L98.2214 168.247L90.8388 171.329ZM60.7494 202L59.3804 209.882L60.0598 210H60.7494V202ZM216 202V210H224V202H216ZM216 43V35H208V43H216ZM58 224.4H50V232.4H58V224.4ZM58 224.268H66V216.619L58.3587 216.276L58 224.268ZM25.1252 190L33.1009 189.377L32.5251 182H25.1252V190ZM25 190H17V198H25V190ZM208 195V203H216V195H208ZM208 179H216V171H208V179ZM209 24H44V40H209V24ZM217 171.2V32H201V171.2H217ZM90.7851 179.2H209V163.2H90.7851V179.2ZM98.2214 168.247L98.1678 168.118L83.4025 174.282L83.4561 174.41L98.2214 168.247ZM63.4116 179.329H90.8388V163.329H63.4116V179.329ZM55.9616 186.779C55.9616 182.664 59.2971 179.329 63.4116 179.329V163.329C50.4606 163.329 39.9616 173.827 39.9616 186.779H55.9616ZM62.1184 194.118C58.6213 193.511 55.9616 190.447 55.9616 186.779H39.9616C39.9616 198.36 48.3492 207.966 59.3804 209.882L62.1184 194.118ZM216 194H60.7494V210H216V194ZM208 43V202H224V43H208ZM223 35H216V51H223V35ZM239 51C239 42.1634 231.837 35 223 35V51H239ZM239 202V51H223V202H239ZM239 216.4V202H223V216.4H239ZM223 232.4C231.837 232.4 239 225.237 239 216.4H223V216.4V232.4ZM58 232.4H223V216.4H58V232.4ZM50 224.268V224.4H66V224.268H50ZM17.1494 190.623C18.8795 212.787 35.7001 231.275 57.6413 232.26L58.3587 216.276C45.5661 215.702 34.29 204.612 33.1009 189.377L17.1494 190.623ZM25 198H25.1252V182H25V198ZM17 186.779V190H33V186.779H17ZM17 51V186.779H33V51H17ZM44 24C29.0883 24 17 36.0883 17 51H33C33 44.9249 37.9249 40 44 40V24ZM86 78V62C77.1634 62 70 69.1634 70 78H86ZM86 78H70C70 86.8366 77.1634 94 86 94V78ZM170 78H86V94H170V78ZM170 78V94C178.837 94 186 86.8366 186 78H170ZM170 78H186C186 69.1634 178.837 62 170 62V78ZM86 78H170V62H86V78ZM86 110V94C77.1634 94 70 101.163 70 110H86ZM86 110H70C70 118.837 77.1634 126 86 126V110ZM170 110H86V126H170V110ZM170 110V126C178.837 126 186 118.837 186 110H170ZM170 110H186C186 101.163 178.837 94 170 94V110ZM86 110H170V94H86V110ZM66 187V171C57.1634 171 50 178.163 50 187H66ZM66 187H50C50 195.837 57.1634 203 66 203V187ZM208 187H66V203H208V187ZM200 179V195H216V179H200ZM66 187H208V171H66V187Z" fill="white" mask="url(#path-1-inside-1_179_38)"/>
</svg>
