<svg width="256" height="256" viewBox="0 0 256 256" fill="none" xmlns="http://www.w3.org/2000/svg">
<mask id="path-1-inside-1_391_134" fill="white">
<path fill-rule="evenodd" clip-rule="evenodd" d="M0 28C0 16.9543 8.95431 8 20 8H212C214.761 8 217 10.2386 217 13V195C217 197.761 214.761 200 212 200H34.421C27.5538 200.042 22 205.623 22 212.5C22 219.403 27.5964 225 34.5 225H60V225H219C227.284 225 234 218.284 234 210V200V26C234 23.7909 235.791 22 238 22H244C250.627 22 256 27.3726 256 34V200V225V232C256 240.284 249.284 247 241 247H43V247H20C8.9543 247 0 238.045 0 227V200V187V28ZM53.9417 53C48.4511 53 44 57.4511 44 62.9417C44 68.4324 48.4511 72.8835 53.9417 72.8835H163.733C169.224 72.8835 173.675 68.4324 173.675 62.9417C173.675 57.4511 169.224 53 163.733 53H53.9417ZM53.9418 92.7676C48.4511 92.7676 44 97.2187 44 102.709C44 108.2 48.4511 112.651 53.9418 112.651H163.733C169.224 112.651 173.675 108.2 173.675 102.709C173.675 97.2187 169.224 92.7676 163.733 92.7676H53.9418Z"/>
</mask>
<path d="M34.421 200V180H34.3592L34.2973 180L34.421 200ZM60 225H80V205H60V225ZM60 225H40V245H60V225ZM43 247H23V267H43V247ZM43 247H63V227H43V247ZM20 -12C-2.09139 -12 -20 5.90862 -20 28H20C20 27.9856 20.0007 27.9779 20.0009 27.9758C20.0011 27.9737 20.0011 27.9749 20.0003 27.9788C19.9995 27.9826 19.9983 27.9874 19.9967 27.9926C19.9951 27.9977 19.9934 28.0023 19.9918 28.0061C19.9885 28.0138 19.9867 28.0162 19.9882 28.0139C19.9899 28.0114 19.9939 28.0061 20 28C20.0061 27.9939 20.0114 27.9899 20.0139 27.9881C20.0162 27.9867 20.0138 27.9885 20.0061 27.9918C20.0023 27.9934 19.9977 27.9951 19.9926 27.9967C19.9874 27.9983 19.9826 27.9995 19.9788 28.0003C19.9749 28.0011 19.9737 28.0011 19.9758 28.0009C19.9779 28.0007 19.9856 28 20 28V-12ZM212 -12H20V28H212V-12ZM237 13C237 -0.807146 225.807 -12 212 -12V28C203.716 28 197 21.2843 197 13H237ZM237 195V13H197V195H237ZM212 220C225.807 220 237 208.807 237 195H197C197 186.716 203.716 180 212 180V220ZM34.421 220H212V180H34.421V220ZM42 212.5C42 216.627 38.6679 219.974 34.5448 220L34.2973 180C16.4398 180.111 2 194.618 2 212.5H42ZM34.5 205C38.6421 205 42 208.358 42 212.5H2C2 230.449 16.5508 245 34.5 245V205ZM60 205H34.5V245H60V205ZM80 225V225H40V225H80ZM219 205H60V245H219V205ZM214 210C214 207.239 216.239 205 219 205V245C238.33 245 254 229.33 254 210H214ZM254 210V200H214V210H254ZM254 200V26H214V200H254ZM254 26C254 34.8365 246.837 42 238 42V2C224.745 2 214 12.7452 214 26H254ZM238 42H244V2H238V42ZM244 42C239.582 42 236 38.4183 236 34H276C276 16.3269 261.673 2 244 2V42ZM236 34V200H276V34H236ZM236 200V225H276V200H236ZM276 232V225H236V232H276ZM241 267C260.33 267 276 251.33 276 232H236C236 229.239 238.239 227 241 227V267ZM43 267H241V227H43V267ZM23 247V247H63V247H23ZM20 267H43V227H20V267ZM-20 227C-20 249.091 -2.0914 267 20 267V227C19.9856 227 19.9779 226.999 19.9758 226.999C19.9737 226.999 19.9749 226.999 19.9788 226.999C19.9826 227 19.9874 227.001 19.9926 227.003C19.9977 227.005 20.0023 227.006 20.0061 227.008C20.0138 227.011 20.0162 227.013 20.014 227.012C20.0114 227.01 20.0061 227.006 20 227C19.9939 226.994 19.9899 226.988 19.9881 226.986C19.9867 226.984 19.9885 226.986 19.9918 226.994C19.9934 226.997 19.9951 227.002 19.9967 227.007C19.9983 227.012 19.9995 227.017 20.0003 227.021C20.0011 227.025 20.0011 227.026 20.0009 227.024C20.0007 227.022 20 227.014 20 227H-20ZM-20 200V227H20V200H-20ZM-20 187V200H20V187H-20ZM-20 28V187H20V28H-20ZM64 62.9417C64 68.4968 59.4968 73 53.9417 73V33C37.4054 33 24 46.4054 24 62.9417H64ZM53.9417 52.8835C59.4968 52.8835 64 57.3868 64 62.9417H24C24 79.4781 37.4053 92.8835 53.9417 92.8835V52.8835ZM163.733 52.8835H53.9417V92.8835H163.733V52.8835ZM153.675 62.9417C153.675 57.3868 158.178 52.8835 163.733 52.8835V92.8835C180.27 92.8835 193.675 79.4781 193.675 62.9417H153.675ZM163.733 73C158.178 73 153.675 68.4967 153.675 62.9417H193.675C193.675 46.4054 180.27 33 163.733 33V73ZM53.9417 73H163.733V33H53.9417V73ZM64 102.709C64 108.264 59.4968 112.768 53.9418 112.768V72.7676C37.4054 72.7676 24 86.173 24 102.709H64ZM53.9418 92.6511C59.4968 92.6511 64 97.1543 64 102.709H24C24 119.246 37.4054 132.651 53.9418 132.651V92.6511ZM163.733 92.6511H53.9418V132.651H163.733V92.6511ZM153.675 102.709C153.675 97.1543 158.178 92.6511 163.733 92.6511V132.651C180.27 132.651 193.675 119.246 193.675 102.709H153.675ZM163.733 112.768C158.178 112.768 153.675 108.264 153.675 102.709H193.675C193.675 86.173 180.27 72.7676 163.733 72.7676V112.768ZM53.9418 112.768H163.733V72.7676H53.9418V112.768Z" fill="white" mask="url(#path-1-inside-1_391_134)"/>
</svg>
