<svg width="256" height="256" viewBox="0 0 256 256" fill="none" xmlns="http://www.w3.org/2000/svg">
<path d="M128 214.219C128.215 214.219 128.392 214.164 128.511 214.099C128.601 214.049 128.725 213.96 128.863 213.724L235.95 30.5049C236.091 30.2634 236.107 30.1105 236.105 30.0088C236.104 29.8731 236.063 29.6912 235.954 29.502C235.845 29.3127 235.709 29.1863 235.593 29.1162C235.506 29.0637 235.366 29 235.087 29H20.9131C20.6335 29 20.4943 29.0637 20.4072 29.1162C20.291 29.1863 20.1546 29.3127 20.0459 29.502C19.9373 29.6912 19.8964 29.8731 19.8945 30.0088C19.8931 30.1105 19.9087 30.2634 20.0498 30.5049L127.137 213.724C127.275 213.96 127.399 214.049 127.489 214.099C127.608 214.164 127.785 214.219 128 214.219Z" stroke="white" stroke-width="22"/>
</svg>
