<svg width="256" height="256" viewBox="0 0 256 256" fill="none" xmlns="http://www.w3.org/2000/svg">
<path d="M128 40.7812C128.215 40.7812 128.392 40.8358 128.511 40.9014C128.601 40.9512 128.725 41.0397 128.863 41.2764L235.95 224.495C236.091 224.737 236.107 224.89 236.105 224.991C236.104 225.127 236.063 225.309 235.954 225.498C235.845 225.687 235.709 225.814 235.593 225.884C235.506 225.936 235.366 226 235.087 226H20.9131C20.6335 226 20.4943 225.936 20.4072 225.884C20.291 225.814 20.1546 225.687 20.0459 225.498C19.9373 225.309 19.8964 225.127 19.8945 224.991C19.8931 224.89 19.9087 224.737 20.0498 224.495L127.137 41.2764C127.275 41.0397 127.399 40.9512 127.489 40.9014C127.608 40.8358 127.785 40.7813 128 40.7812Z" stroke="white" stroke-width="22"/>
</svg>
