<svg width="256" height="256" viewBox="0 0 256 256" fill="none" xmlns="http://www.w3.org/2000/svg">
<path d="M214.219 128C214.219 128.215 214.164 128.392 214.099 128.511C214.049 128.601 213.96 128.725 213.724 128.863L30.5049 235.95C30.2634 236.091 30.1105 236.107 30.0088 236.105C29.8731 236.104 29.6912 236.063 29.502 235.954C29.3127 235.845 29.1863 235.709 29.1162 235.593C29.0637 235.506 29 235.366 29 235.087L29 20.9131C29 20.6335 29.0637 20.4943 29.1162 20.4072C29.1863 20.2911 29.3127 20.1546 29.502 20.0459C29.6912 19.9373 29.8731 19.8965 30.0088 19.8945C30.1105 19.8932 30.2634 19.9087 30.5049 20.0498L213.724 127.137C213.96 127.275 214.049 127.399 214.099 127.489C214.164 127.608 214.219 127.785 214.219 128Z" stroke="white" stroke-width="22"/>
</svg>
