<svg width="256" height="256" viewBox="0 0 256 256" fill="none" xmlns="http://www.w3.org/2000/svg">
<path d="M40.7812 128C40.7812 128.215 40.8358 128.392 40.9014 128.511C40.9512 128.601 41.0397 128.725 41.2764 128.863L224.495 235.95C224.737 236.091 224.89 236.107 224.991 236.105C225.127 236.104 225.309 236.063 225.498 235.954C225.687 235.845 225.814 235.709 225.884 235.593C225.936 235.506 226 235.366 226 235.087L226 20.9131C226 20.6335 225.936 20.4943 225.884 20.4072C225.814 20.2911 225.687 20.1546 225.498 20.0459C225.309 19.9373 225.127 19.8965 224.991 19.8945C224.89 19.8932 224.737 19.9087 224.495 20.0498L41.2764 127.137C41.0397 127.275 40.9512 127.399 40.9014 127.489C40.8358 127.608 40.7812 127.785 40.7812 128Z" stroke="white" stroke-width="22"/>
</svg>
