<svg width="256" height="256" viewBox="0 0 256 256" fill="none" xmlns="http://www.w3.org/2000/svg">
<mask id="path-1-outside-1_710_482" maskUnits="userSpaceOnUse" x="2.24878" y="24.0001" width="252" height="199" fill="black">
<rect fill="white" x="2.24878" y="24.0001" width="252" height="199"/>
<path d="M195.893 52.6748C203.798 44.197 217.08 43.733 225.558 51.6387C234.035 59.5443 234.498 72.8251 226.593 81.3027L122.024 193.439C121.744 193.741 121.454 194.031 121.16 194.312C113.358 202.605 100.311 203.04 91.9746 195.267L30.8301 138.248C22.4709 130.453 22.0135 117.357 29.8086 108.998C37.6037 100.639 50.6994 100.181 59.0586 107.977L104.664 150.505L195.893 52.6748Z"/>
</mask>
<path d="M195.893 52.6748L211.982 67.6788L211.982 67.6788L195.893 52.6748ZM225.558 51.6387L240.562 35.5492L240.562 35.5489L225.558 51.6387ZM226.593 81.3027L210.503 66.2988L210.503 66.2988L226.593 81.3027ZM122.024 193.439L138.114 208.443L138.114 208.443L122.024 193.439ZM121.16 194.312L105.96 178.407L105.537 178.811L105.136 179.237L121.16 194.312ZM91.9746 195.267L76.9706 211.356L76.9711 211.357L91.9746 195.267ZM30.8301 138.248L45.8341 122.158L45.834 122.158L30.8301 138.248ZM29.8086 108.998L13.7189 93.9939L13.7188 93.9941L29.8086 108.998ZM59.0586 107.977L74.0627 91.8869L74.0626 91.8868L59.0586 107.977ZM104.664 150.505L89.66 166.595L105.75 181.599L120.754 165.509L104.664 150.505ZM195.893 52.6748L211.982 67.6788C211.602 68.0869 210.962 68.1096 210.554 67.7284L225.558 51.6387L240.562 35.5489C223.197 19.3565 195.995 20.3072 179.803 37.6708L195.893 52.6748ZM225.558 51.6387L210.553 67.7282C210.144 67.3467 210.123 66.7065 210.503 66.2988L226.593 81.3027L242.683 96.3066C258.874 78.9437 257.926 51.742 240.562 35.5492L225.558 51.6387ZM226.593 81.3027L210.503 66.2988L105.935 178.436L122.024 193.439L138.114 208.443L242.683 96.3066L226.593 81.3027ZM122.024 193.439L105.935 178.435C105.963 178.405 105.981 178.387 105.985 178.383C105.989 178.379 105.982 178.386 105.96 178.407L121.16 194.312L136.36 210.216C136.903 209.697 137.497 209.105 138.114 208.443L122.024 193.439ZM121.16 194.312L105.136 179.237C105.628 178.714 106.451 178.685 106.978 179.176L91.9746 195.267L76.9711 211.357C94.1715 227.396 121.087 226.497 137.184 209.386L121.16 194.312ZM91.9746 195.267L106.979 179.177L45.8341 122.158L30.8301 138.248L15.8261 154.338L76.9706 211.356L91.9746 195.267ZM30.8301 138.248L45.834 122.158C46.3609 122.65 46.3898 123.475 45.8984 124.002L29.8086 108.998L13.7188 93.9941C-2.36282 111.24 -1.41918 138.256 15.8261 154.338L30.8301 138.248ZM29.8086 108.998L45.8983 124.002C45.4071 124.529 44.5818 124.558 44.0546 124.066L59.0586 107.977L74.0626 91.8868C56.817 75.8051 29.8003 76.7491 13.7189 93.9939L29.8086 108.998ZM59.0586 107.977L44.0545 124.066L89.66 166.595L104.664 150.505L119.668 134.415L74.0627 91.8869L59.0586 107.977ZM104.664 150.505L120.754 165.509L211.982 67.6788L195.893 52.6748L179.803 37.6708L88.5743 135.501L104.664 150.505Z" fill="white" mask="url(#path-1-outside-1_710_482)"/>
</svg>
