<svg width="256" height="256" viewBox="0 0 256 256" fill="none" xmlns="http://www.w3.org/2000/svg">
<g clip-path="url(#clip0_220_48)">
<mask id="path-1-outside-1_220_48" maskUnits="userSpaceOnUse" x="18" y="60" width="220" height="166" fill="black">
<rect fill="white" x="18" y="60" width="220" height="166"/>
<path fill-rule="evenodd" clip-rule="evenodd" d="M118.424 206.588C113.14 212.085 104.404 212.34 98.808 207.122L37.4468 149.901C31.7987 144.635 31.4897 135.786 36.7567 130.138C42.0237 124.49 50.8721 124.181 56.5202 129.448L107.677 177.153L198.79 79.4468C204.057 73.7987 212.905 73.4897 218.553 78.7566C224.201 84.0236 224.51 92.8721 219.243 98.5202L119.108 205.902C118.886 206.14 118.658 206.369 118.424 206.588Z"/>
</mask>
<path d="M118.424 206.588L108.177 195.633L107.885 195.906L107.609 196.193L118.424 206.588ZM98.808 207.122L109.038 196.151L109.038 196.151L98.808 207.122ZM37.4468 149.901L27.2169 160.872L27.2169 160.872L37.4468 149.901ZM36.7567 130.138L47.727 140.368L36.7567 130.138ZM56.5202 129.448L66.7502 118.477L66.7502 118.477L56.5202 129.448ZM107.677 177.153L97.4475 188.123L108.418 198.353L118.648 187.383L107.677 177.153ZM198.79 79.4468L209.76 89.6768V89.6768L198.79 79.4468ZM218.553 78.7566L228.783 67.7863V67.7863L218.553 78.7566ZM219.243 98.5202L208.273 88.2902L208.273 88.2902L219.243 98.5202ZM119.108 205.902L108.138 195.672L108.138 195.672L119.108 205.902ZM107.609 196.193C107.996 195.79 108.63 195.771 109.038 196.151L88.578 218.092C100.177 228.908 118.284 228.379 129.238 216.982L107.609 196.193ZM109.038 196.151L47.6768 138.931L27.2169 160.872L88.578 218.092L109.038 196.151ZM47.6768 138.931C48.0874 139.314 48.1099 139.957 47.727 140.368L25.7864 119.908C14.8695 131.615 15.51 149.955 27.2169 160.872L47.6768 138.931ZM47.727 140.368C47.3441 140.779 46.7008 140.801 46.2903 140.418L66.7502 118.477C55.0433 107.561 36.7032 108.201 25.7864 119.908L47.727 140.368ZM46.2903 140.418L97.4475 188.123L117.907 166.182L66.7502 118.477L46.2903 140.418ZM118.648 187.383L209.76 89.6768L187.819 69.2168L96.7071 166.923L118.648 187.383ZM209.76 89.6768C209.377 90.0874 208.734 90.1099 208.323 89.727L228.783 67.7863C217.076 56.8695 198.736 57.51 187.819 69.2169L209.76 89.6768ZM208.323 89.727C207.913 89.3441 207.89 88.7008 208.273 88.2902L230.214 108.75C241.13 97.0433 240.49 78.7032 228.783 67.7863L208.323 89.727ZM208.273 88.2902L108.138 195.672L130.078 216.132L230.214 108.75L208.273 88.2902ZM108.138 195.672C108.149 195.66 108.162 195.647 108.177 195.633L128.67 217.542C129.153 217.09 129.623 216.62 130.078 216.132L108.138 195.672Z" fill="white" mask="url(#path-1-outside-1_220_48)"/>
<circle cx="128" cy="128" r="120.5" stroke="white" stroke-width="15"/>
</g>
<defs>
<clipPath id="clip0_220_48">
<rect width="256" height="256" fill="white"/>
</clipPath>
</defs>
</svg>
