<svg width="256" height="256" viewBox="0 0 256 256" fill="none" xmlns="http://www.w3.org/2000/svg">
<path fill-rule="evenodd" clip-rule="evenodd" d="M111.729 195.487L111.884 195.341C112.022 195.213 112.157 195.078 112.288 194.937L226.864 72.0697C229.877 68.8384 229.701 63.7761 226.469 60.7629C223.238 57.7496 218.176 57.9264 215.162 61.1577L110.912 172.953L105.456 178.804L99.6049 173.348L41.0696 118.763C37.8383 115.75 32.7761 115.926 29.7628 119.158C26.7496 122.389 26.9263 127.451 30.1577 130.465L100.368 195.936C103.566 198.919 108.56 198.776 111.581 195.64L111.729 195.487ZM110.517 161.646L209.312 55.7017C215.338 49.2391 225.463 48.8855 231.925 54.912C238.388 60.9386 238.741 71.063 232.715 77.5257L118.139 200.393C117.881 200.67 117.615 200.936 117.343 201.19C111.296 207.467 101.309 207.753 94.9116 201.787L24.7017 136.315C18.239 130.289 17.8855 120.164 23.912 113.702C29.9385 107.239 40.063 106.886 46.5256 112.912L99.21 162.041L105.061 167.497L110.517 161.646Z" fill="white"/>
</svg>
