<svg width="256" height="256" viewBox="0 0 256 256" fill="none" xmlns="http://www.w3.org/2000/svg">
  <rect width="256" height="256" stroke="white"/>
  <mask id="path-2-inside-1_12_25" fill="white">
    <path fill-rule="evenodd" clip-rule="evenodd" d="M117.343 201.19C111.296 207.467 101.309 207.753 94.9116 201.787L24.7017 136.315C18.239 130.289 17.8855 120.164 23.912 113.702C29.9385 107.239 40.063 106.886 46.5256 112.912L105.061 167.497L209.312 55.7017C215.338 49.2391 225.463 48.8855 231.925 54.9121C238.388 60.9386 238.741 71.063 232.715 77.5257L118.139 200.393C117.881 200.67 117.615 200.936 117.343 201.19Z"/>
  </mask>
  <path d="M117.343 201.19L111.884 195.341L111.729 195.487L111.581 195.64L117.343 201.19ZM94.9116 201.787L89.4556 207.638L89.4556 207.638L94.9116 201.787ZM24.7017 136.315L30.1577 130.465L30.1577 130.465L24.7017 136.315ZM23.912 113.702L29.7628 119.158L29.7628 119.158L23.912 113.702ZM46.5256 112.912L41.0696 118.763L41.0696 118.763L46.5256 112.912ZM105.061 167.497L99.6049 173.348L105.456 178.804L110.912 172.953L105.061 167.497ZM209.312 55.7017L215.162 61.1577L215.162 61.1577L209.312 55.7017ZM231.925 54.9121L237.381 49.0612L237.381 49.0612L231.925 54.9121ZM232.715 77.5257L226.864 72.0697L226.864 72.0697L232.715 77.5257ZM118.139 200.393L123.99 205.849L123.99 205.849L118.139 200.393ZM111.581 195.64C108.56 198.776 103.566 198.919 100.368 195.936L89.4556 207.638C99.0529 216.588 114.032 216.157 123.104 206.74L111.581 195.64ZM100.368 195.936L30.1577 130.465L19.2457 142.166L89.4556 207.638L100.368 195.936ZM30.1577 130.465C26.9263 127.451 26.7496 122.389 29.7628 119.158L18.0612 108.246C9.02138 117.94 9.55171 133.126 19.2457 142.166L30.1577 130.465ZM29.7628 119.158C32.7761 115.926 37.8383 115.75 41.0696 118.763L51.9816 107.061C42.2876 98.0214 27.1009 98.5518 18.0612 108.246L29.7628 119.158ZM41.0696 118.763L99.6049 173.348L110.517 161.646L51.9816 107.061L41.0696 118.763ZM110.912 172.953L215.162 61.1577L203.461 50.2458L99.21 162.041L110.912 172.953ZM215.162 61.1577C218.176 57.9264 223.238 57.7496 226.469 60.7629L237.381 49.0612C227.687 40.0215 212.501 40.5518 203.461 50.2458L215.162 61.1577ZM226.469 60.7629C229.701 63.7761 229.877 68.8384 226.864 72.0697L238.566 82.9817C247.606 73.2877 247.075 58.101 237.381 49.0612L226.469 60.7629ZM226.864 72.0697L112.288 194.937L123.99 205.849L238.566 82.9817L226.864 72.0697ZM112.288 194.937C112.157 195.078 112.022 195.213 111.884 195.341L122.801 207.039C123.209 206.658 123.605 206.261 123.99 205.849L112.288 194.937Z" fill="white" mask="url(#path-2-inside-1_12_25)"/>
</svg>