<svg width="256" height="256" viewBox="0 0 256 256" fill="none" xmlns="http://www.w3.org/2000/svg">
  <mask id="path-2-outside-1_36_618" maskUnits="userSpaceOnUse" x="67.1421" y="53.4199" width="135" height="148" fill="black">
    <rect fill="white" x="67.1421" y="53.4199" width="135" height="148"/>
    <path fill-rule="evenodd" clip-rule="evenodd" d="M118.666 157.756L113.095 193H127.315L135.555 140.866L191.208 85.2131C195.113 81.3079 195.113 74.9762 191.208 71.071C189.172 69.035 186.477 68.0605 183.809 68.1474L184.915 61.4199H97.0751L95.0951 74.5599H131.815L123.975 124.162L78.071 170.066C74.1658 173.971 74.1658 180.303 78.071 184.208C81.9763 188.113 88.3079 188.113 92.2132 184.208L118.666 157.756ZM140.865 107.272L173.577 74.5599H146.035L140.865 107.272Z"/>
  </mask>
  <path d="M113.095 193L105.193 191.751L103.731 201H113.095V193ZM118.666 157.756L126.568 159.005L130.409 134.698L113.009 152.099L118.666 157.756ZM127.315 193V201H134.15L135.217 194.249L127.315 193ZM135.555 140.866L129.898 135.209L128.059 137.048L127.653 139.617L135.555 140.866ZM191.208 71.071L196.865 65.4141V65.4141L191.208 71.071ZM183.809 68.1474L175.915 66.8497L174.335 76.4604L184.07 76.1432L183.809 68.1474ZM184.915 61.4199L192.809 62.7176L194.338 53.4199H184.915V61.4199ZM97.0751 61.4199V53.4199H90.1903L89.1644 60.2279L97.0751 61.4199ZM95.0951 74.5599L87.1844 73.3679L85.7993 82.5599H95.0951V74.5599ZM131.815 74.5599L139.717 75.8088L141.179 66.5599H131.815V74.5599ZM123.975 124.162L129.632 129.818L131.471 127.979L131.877 125.411L123.975 124.162ZM78.071 170.066L72.4142 164.409L78.071 170.066ZM78.071 184.208L72.4142 189.865H72.4142L78.071 184.208ZM92.2132 184.208L86.5563 178.551H86.5563L92.2132 184.208ZM140.865 107.272L132.963 106.023L129.121 130.33L146.522 112.929L140.865 107.272ZM173.577 74.5599L179.234 80.2168L192.891 66.5599H173.577V74.5599ZM146.035 74.5599V66.5599H139.2L138.133 73.311L146.035 74.5599ZM120.997 194.249L126.568 159.005L110.764 156.507L105.193 191.751L120.997 194.249ZM127.315 185H113.095V201H127.315V185ZM127.653 139.617L119.413 191.751L135.217 194.249L143.457 142.115L127.653 139.617ZM185.551 79.5563L129.898 135.209L141.212 146.523L196.865 90.87L185.551 79.5563ZM185.551 76.7278C186.332 77.5089 186.332 78.7752 185.551 79.5563L196.865 90.87C203.894 83.8405 203.894 72.4436 196.865 65.4141L185.551 76.7278ZM184.07 76.1432C184.619 76.1253 185.144 76.3203 185.551 76.7278L196.865 65.4141C193.2 61.7497 188.335 59.9956 183.549 60.1516L184.07 76.1432ZM177.021 60.1223L175.915 66.8497L191.703 69.4451L192.809 62.7176L177.021 60.1223ZM97.0751 69.4199H184.915V53.4199H97.0751V69.4199ZM103.006 75.7519L104.986 62.6119L89.1644 60.2279L87.1844 73.3679L103.006 75.7519ZM131.815 66.5599H95.0951V82.5599H131.815V66.5599ZM131.877 125.411L139.717 75.8088L123.913 73.311L116.073 122.913L131.877 125.411ZM83.7279 175.723L129.632 129.818L118.318 118.505L72.4142 164.409L83.7279 175.723ZM83.7279 178.551C82.9468 177.77 82.9468 176.504 83.7279 175.723L72.4142 164.409C65.3847 171.439 65.3847 182.835 72.4142 189.865L83.7279 178.551ZM86.5563 178.551C85.7753 179.332 84.5089 179.332 83.7279 178.551L72.4142 189.865C79.4436 196.894 90.8406 196.894 97.87 189.865L86.5563 178.551ZM113.009 152.099L86.5563 178.551L97.87 189.865L124.322 163.412L113.009 152.099ZM146.522 112.929L179.234 80.2168L167.92 68.9031L135.208 101.615L146.522 112.929ZM173.577 66.5599H146.035V82.5599H173.577V66.5599ZM138.133 73.311L132.963 106.023L148.767 108.521L153.937 75.8088L138.133 73.311Z" fill="white" mask="url(#path-2-outside-1_36_618)"/>
</svg>
