<svg width="256" height="256" viewBox="0 0 256 256" fill="none" xmlns="http://www.w3.org/2000/svg">
<path fill-rule="evenodd" clip-rule="evenodd" d="M103.731 201L105.193 191.751L106.922 180.813L97.87 189.865C90.8406 196.894 79.4436 196.894 72.4142 189.865C65.3847 182.835 65.3847 171.439 72.4142 164.409L116.479 120.344L122.451 82.5599H95.0951H85.7993L87.1844 73.3679L89.1644 60.2279L90.1903 53.4199H97.0751H184.915H194.338L192.862 62.3947C194.298 63.1903 195.648 64.1968 196.865 65.4141C203.894 72.4436 203.894 83.8405 196.865 90.87L143.051 144.684L135.217 194.249L134.15 201H127.315H113.095H103.731ZM135.555 140.866L191.208 85.2131C195.113 81.3079 195.113 74.9762 191.208 71.071C190.724 70.5867 190.202 70.1624 189.652 69.7982C189.02 69.3795 188.351 69.0402 187.659 68.7803C186.773 68.4473 185.848 68.2446 184.915 68.1722C184.547 68.1436 184.178 68.1354 183.809 68.1474L184.07 66.5599L184.915 61.4199H183.59H176.808H97.0751L96.3006 66.5599L95.0951 74.5599H103.185H123.716H131.815L130.551 82.5599L123.975 124.162L78.071 170.066C74.1658 173.971 74.1658 180.303 78.071 184.208C81.9763 188.113 88.3079 188.113 92.2132 184.208L109.046 167.375L118.666 157.756L116.542 171.193L114.36 185L113.095 193H121.194H127.315L135.555 140.866ZM150.485 97.6524L140.865 107.272L142.989 93.8346L146.035 74.5599H162.263H173.577L165.577 82.5599L150.485 97.6524ZM152.608 84.2148L154.263 82.5599H152.87L152.608 84.2148Z" fill="white"/>
</svg>
