<svg width="256" height="256" viewBox="0 0 256 256" fill="none" xmlns="http://www.w3.org/2000/svg">
<path fill-rule="evenodd" clip-rule="evenodd" d="M90.95 219.395L92.4118 210.146L95.5177 190.495L78.0571 207.956C69.8085 216.204 56.435 216.204 48.1864 207.956L53.8433 202.299C58.9676 207.423 67.2759 207.423 72.4002 202.299L97.6416 177.058L107.261 167.438L105.137 180.875L101.578 203.395L100.314 211.395H108.413H118.484L128.842 145.857L202.299 72.4002C207.423 67.2759 207.423 58.9676 202.299 53.8433C201.265 52.809 200.101 51.9835 198.859 51.3667C196.739 50.3134 194.394 49.8689 192.084 50.0333C191.704 50.0603 191.326 50.1037 190.95 50.1635L192.084 43.2652H189.853H183.976H79.8437L78.5192 52.0551L77.3137 60.0551H85.404H116.134H124.234L122.969 68.0551L114.229 123.357L53.8433 183.742C48.7189 188.866 48.7189 197.175 53.8433 202.299L48.1864 207.956C39.9379 199.707 39.9379 186.334 48.1864 178.085L106.733 119.539L114.87 68.0551H77.3137H68.0179L69.403 58.8631L71.933 42.0731L72.9589 35.2652H79.8437H192.084H201.506L200.193 43.2516C203.025 44.2716 205.685 45.9158 207.956 48.1864C216.204 56.435 216.204 69.8085 207.956 78.0571L136.338 149.675L126.386 212.644L125.319 219.395H118.484H100.314H90.95ZM177.53 60.0551H166.216H142.404L137.933 88.3381L135.81 101.776L145.429 92.1559L169.53 68.0551L177.53 60.0551ZM158.216 68.0551H149.239L147.553 78.7184L158.216 68.0551Z" fill="white"/>
</svg>
