<svg width="256" height="256" viewBox="0 0 256 256" fill="none" xmlns="http://www.w3.org/2000/svg">
  <mask id="path-2-outside-1_35_544" maskUnits="userSpaceOnUse" x="61" y="60" width="135" height="135" fill="black">
    <rect fill="white" x="61" y="60" width="135" height="135"/>
    <path fill-rule="evenodd" clip-rule="evenodd" d="M80.0681 125.061C78.6632 151.867 99.255 174.737 126.061 176.142C152.867 177.547 175.737 156.955 177.142 130.149C178.547 103.342 157.955 80.4729 131.149 79.0681C104.342 77.6632 81.4729 98.255 80.0681 125.061ZM70.0818 124.538C68.3879 156.859 93.2164 184.434 125.538 186.128C157.859 187.822 185.434 162.993 187.128 130.672C188.822 98.3505 163.993 70.7757 131.672 69.0818C99.3505 67.3879 71.7757 92.2164 70.0818 124.538ZM124.964 133.05C124.964 134.786 126.07 136.264 127.616 136.817L151.363 148.308C153.352 149.27 155.744 148.438 156.706 146.449C157.668 144.461 156.836 142.068 154.847 141.106L132.964 130.517V96.0498C132.964 93.8407 131.173 92.0498 128.964 92.0498C126.754 92.0498 124.964 93.8407 124.964 96.0498V133.05Z"/>
  </mask>
  <path d="M126.061 176.142L125.642 184.131V184.131L126.061 176.142ZM80.0681 125.061L72.079 124.642L80.0681 125.061ZM177.142 130.149L185.131 130.567V130.567L177.142 130.149ZM131.149 79.0681L131.567 71.079L131.149 79.0681ZM125.538 186.128L125.119 194.117L125.538 186.128ZM70.0818 124.538L62.0927 124.119L70.0818 124.538ZM187.128 130.672L179.139 130.253V130.253L187.128 130.672ZM131.672 69.0818L131.253 77.0708L131.672 69.0818ZM127.616 136.817L131.101 129.616L130.715 129.429L130.31 129.285L127.616 136.817ZM151.363 148.308L154.847 141.106L154.847 141.106L151.363 148.308ZM154.847 141.106L151.363 148.308L151.363 148.308L154.847 141.106ZM132.964 130.517H124.964V135.534L129.479 137.719L132.964 130.517ZM126.48 168.153C104.086 166.979 86.8835 147.874 88.0571 125.48L72.079 124.642C70.4429 155.861 94.4241 182.495 125.642 184.131L126.48 168.153ZM169.153 129.73C167.979 152.124 148.874 169.326 126.48 168.153L125.642 184.131C156.861 185.767 183.495 161.786 185.131 130.567L169.153 129.73ZM130.73 87.0571C153.124 88.2307 170.326 107.336 169.153 129.73L185.131 130.567C186.767 99.3489 162.786 72.7151 131.567 71.079L130.73 87.0571ZM88.0571 125.48C89.2307 103.086 108.336 85.8835 130.73 87.0571L131.567 71.079C100.349 69.4429 73.7151 93.4241 72.079 124.642L88.0571 125.48ZM125.957 178.139C98.0473 176.676 76.6081 152.866 78.0708 124.957L62.0927 124.119C60.1676 160.853 88.3855 192.192 125.119 194.117L125.957 178.139ZM179.139 130.253C177.676 158.162 153.866 179.602 125.957 178.139L125.119 194.117C161.853 196.042 193.192 167.824 195.117 131.091L179.139 130.253ZM131.253 77.0708C159.162 78.5335 180.602 102.344 179.139 130.253L195.117 131.091C197.042 94.357 168.824 63.0179 132.091 61.0927L131.253 77.0708ZM78.0708 124.957C79.5335 97.0473 103.344 75.6081 131.253 77.0708L132.091 61.0927C95.357 59.1676 64.0179 87.3855 62.0927 124.119L78.0708 124.957ZM130.31 129.285C131.846 129.834 132.964 131.301 132.964 133.05H116.964C116.964 138.271 120.294 142.695 124.922 144.35L130.31 129.285ZM154.847 141.106L131.101 129.616L124.132 144.018L147.879 155.509L154.847 141.106ZM149.505 142.965C150.467 140.976 152.859 140.144 154.847 141.106L147.878 155.509C153.844 158.395 161.021 155.899 163.907 149.934L149.505 142.965ZM151.363 148.308C149.374 147.345 148.542 144.953 149.505 142.965L163.907 149.934C166.794 143.968 164.298 136.792 158.332 133.905L151.363 148.308ZM129.479 137.719L151.363 148.308L158.332 133.905L136.448 123.316L129.479 137.719ZM124.964 96.0498V130.517H140.964V96.0498H124.964ZM128.964 100.05C126.754 100.05 124.964 98.2589 124.964 96.0498H140.964C140.964 89.4224 135.591 84.0498 128.964 84.0498V100.05ZM132.964 96.0498C132.964 98.2589 131.173 100.05 128.964 100.05V84.0498C122.336 84.0498 116.964 89.4224 116.964 96.0498H132.964ZM132.964 133.05V96.0498H116.964V133.05H132.964Z" fill="white" mask="url(#path-2-outside-1_35_544)"/>
</svg>
