<svg width="256" height="256" viewBox="0 0 256 256" fill="none" xmlns="http://www.w3.org/2000/svg">
<path d="M121.172 140.509L125.723 134.548L125.446 134.337L125.151 134.152L121.172 140.509ZM123.066 141.673L126.333 134.922L126.333 134.922L123.066 141.673ZM154.363 156.817L151.097 163.568L154.363 156.817ZM169.056 151.706L175.807 154.973L169.056 151.706ZM163.946 137.013L160.679 143.765V143.765L163.946 137.013ZM138 124.459H130.5V129.162L134.733 131.21L138 124.459ZM206.744 127.555C206.744 170.69 171.776 205.658 128.641 205.658V220.658C180.06 220.658 221.744 178.974 221.744 127.555H206.744ZM128.641 49.4526C171.776 49.4526 206.744 84.4203 206.744 127.555H221.744C221.744 76.136 180.06 34.4526 128.641 34.4526V49.4526ZM50.5388 127.555C50.5388 84.4203 85.5065 49.4526 128.641 49.4526V34.4526C77.2222 34.4526 35.5388 76.136 35.5388 127.555H50.5388ZM128.641 205.658C85.5065 205.658 50.5388 170.69 50.5388 127.555H35.5388C35.5388 178.974 77.2222 220.658 128.641 220.658V205.658ZM128.641 242.658C192.211 242.658 243.744 191.124 243.744 127.555H228.744C228.744 182.84 183.926 227.658 128.641 227.658V242.658ZM13.5388 127.555C13.5388 191.124 65.072 242.658 128.641 242.658V227.658C73.3562 227.658 28.5388 182.84 28.5388 127.555H13.5388ZM128.641 12.4526C65.072 12.4526 13.5388 63.9858 13.5388 127.555H28.5388C28.5388 72.2701 73.3562 27.4526 128.641 27.4526V12.4526ZM243.744 127.555C243.744 63.9858 192.211 12.4526 128.641 12.4526V27.4526C183.926 27.4526 228.744 72.2701 228.744 127.555H243.744ZM125.151 134.152C124.143 133.521 123.5 132.422 123.5 131.178H108.5C108.5 137.804 111.988 143.609 117.193 146.867L125.151 134.152ZM126.333 134.922C126.107 134.813 125.904 134.687 125.723 134.548L116.621 146.471C117.599 147.217 118.661 147.874 119.799 148.424L126.333 134.922ZM157.63 150.066L126.333 134.922L119.799 148.424L151.097 163.568L157.63 150.066ZM162.305 148.44C161.463 150.18 159.37 150.908 157.63 150.066L151.097 163.568C160.294 168.018 171.357 164.17 175.807 154.973L162.305 148.44ZM160.679 143.765C162.419 144.606 163.147 146.7 162.305 148.44L175.807 154.973C180.258 145.776 176.409 134.712 167.212 130.262L160.679 143.765ZM134.733 131.21L160.679 143.765L167.212 130.262L141.267 117.708L134.733 131.21ZM130.5 79V124.459H145.5V79H130.5ZM127 75.5C128.933 75.5 130.5 77.067 130.5 79H145.5C145.5 68.7827 137.217 60.5 127 60.5V75.5ZM123.5 79C123.5 77.067 125.067 75.5 127 75.5V60.5C116.783 60.5 108.5 68.7827 108.5 79H123.5ZM123.5 131.178V79H108.5V131.178H123.5Z" fill="white"/>
</svg>
