<svg width="256" height="256" viewBox="0 0 256 256" fill="none" xmlns="http://www.w3.org/2000/svg">
<mask id="path-1-inside-1_710_819" fill="white">
<path d="M128 14C198.692 14 256 58.1 256 112.5C256 166.9 198.692 211 128 211C117.324 211 106.953 209.992 97.0387 208.097C96.8929 208.069 96.7428 208.074 96.5991 208.112C90.3612 209.745 84.3188 212.132 78.6113 215.239L57.8457 226.545C53.6241 228.843 49.2037 230.757 44.6387 232.262L28.75 237.5L10.9531 241.159C7.53695 241.862 4.92071 238.16 6.72266 235.174L19.5 214C19.5 214 32.428 195.721 33.8688 179.791C33.8979 179.469 33.7628 179.157 33.5157 178.949C12.6999 161.432 0 138.108 0 112.5C0 58.1 57.3076 14 128 14Z"/>
</mask>
<path d="M78.6113 215.239L89.131 234.561L89.1311 234.561L78.6113 215.239ZM57.8457 226.545L47.326 207.223L47.3259 207.223L57.8457 226.545ZM44.6387 232.262L37.7507 211.368L37.7503 211.368L44.6387 232.262ZM28.75 237.5L33.1807 259.049L34.4285 258.793L35.6384 258.394L28.75 237.5ZM10.9531 241.159L6.52243 219.61L6.52238 219.61L10.9531 241.159ZM6.72266 235.174L25.5587 246.541L25.5588 246.54L6.72266 235.174ZM19.5 214L1.53829 201.297L1.07681 201.949L0.663885 202.633L19.5 214ZM33.8688 179.791L55.7794 181.773V181.773L33.8688 179.791ZM33.5157 178.949L47.6812 162.116L33.5157 178.949ZM97.0387 208.097L101.17 186.488L97.0387 208.097ZM96.5991 208.112L102.172 229.394L96.5991 208.112ZM128 14V36C192.247 36 234 75.2605 234 112.5H256H278C278 40.9394 205.138 -8 128 -8V14ZM256 112.5H234C234 149.74 192.247 189 128 189V211V233C205.138 233 278 184.061 278 112.5H256ZM128 211V189C118.707 189 109.719 188.123 101.17 186.488L97.0387 208.097L92.9079 229.706C104.187 231.862 115.941 233 128 233V211ZM96.5991 208.112L91.0259 186.829C83.0757 188.911 75.3713 191.954 68.0915 195.917L78.6113 215.239L89.1311 234.561C93.2662 232.31 97.6466 230.579 102.172 229.394L96.5991 208.112ZM78.6113 215.239L68.0917 195.917L47.326 207.223L57.8457 226.545L68.3654 245.867L89.131 234.561L78.6113 215.239ZM57.8457 226.545L47.3259 207.223C44.2652 208.889 41.0603 210.277 37.7507 211.368L44.6387 232.262L51.5266 253.156C57.3471 251.237 62.9831 248.797 68.3655 245.867L57.8457 226.545ZM44.6387 232.262L37.7503 211.368L21.8616 216.606L28.75 237.5L35.6384 258.394L51.5271 253.156L44.6387 232.262ZM28.75 237.5L24.3193 215.951L6.52243 219.61L10.9531 241.159L15.3838 262.708L33.1807 259.049L28.75 237.5ZM10.9531 241.159L6.52238 219.61C21.8983 216.449 33.6659 233.106 25.5587 246.541L6.72266 235.174L-12.1134 223.807C-23.8245 243.214 -6.82436 267.275 15.3839 262.708L10.9531 241.159ZM6.72266 235.174L25.5588 246.54L38.3361 225.367L19.5 214L0.663885 202.633L-12.1135 223.807L6.72266 235.174ZM19.5 214C37.4617 226.703 37.464 226.7 37.4663 226.697C37.4671 226.696 37.4695 226.692 37.4712 226.69C37.4746 226.685 37.4781 226.68 37.4819 226.675C37.4895 226.664 37.4978 226.652 37.507 226.639C37.5252 226.613 37.5467 226.583 37.5712 226.548C37.6203 226.477 37.6817 226.389 37.7547 226.283C37.9005 226.072 38.093 225.79 38.3259 225.443C38.791 224.75 39.4209 223.791 40.1647 222.609C41.6429 220.259 43.6201 216.947 45.6624 213.02C49.4661 205.706 54.6665 194.077 55.7794 181.773L33.8688 179.791L11.9583 177.809C11.6304 181.434 9.6463 186.91 6.6258 192.719C5.25603 195.352 3.91119 197.606 2.92032 199.181C2.42962 199.961 2.0383 200.555 1.79072 200.924C1.66727 201.108 1.58061 201.234 1.53641 201.298C1.51434 201.33 1.50298 201.347 1.50303 201.347C1.50306 201.347 1.50595 201.342 1.51179 201.334C1.51471 201.33 1.51838 201.325 1.52279 201.319C1.52499 201.315 1.52739 201.312 1.52997 201.308C1.53126 201.307 1.53334 201.304 1.53399 201.303C1.53612 201.3 1.53829 201.297 19.5 214ZM33.5157 178.949L47.6812 162.116C30.8053 147.914 22 130.383 22 112.5H0H-22C-22 145.832 -5.40544 174.949 19.3502 195.782L33.5157 178.949ZM0 112.5H22C22 75.2605 63.7527 36 128 36V14V-8C50.8624 -8 -22 40.9394 -22 112.5H0ZM33.8688 179.791L55.7794 181.773C56.4846 173.976 53.1826 166.746 47.6812 162.116L33.5157 178.949L19.3502 195.782C14.3431 191.568 11.3112 184.963 11.9583 177.809L33.8688 179.791ZM97.0387 208.097L101.17 186.488C97.8484 185.854 94.382 185.95 91.0259 186.829L96.5991 208.112L102.172 229.394C99.1036 230.197 95.9373 230.285 92.9079 229.706L97.0387 208.097Z" fill="white" mask="url(#path-1-inside-1_710_819)"/>
</svg>
