<svg width="256" height="256" viewBox="0 0 256 256" fill="none" xmlns="http://www.w3.org/2000/svg">
<path d="M42.5722 173.906L53.4152 175.758L54.4745 169.555L49.6644 165.498L42.5722 173.906ZM30.3225 205.078L39.9095 210.472L39.9095 210.472L30.3225 205.078ZM29.6706 206.19L39.0887 211.874L39.0887 211.873L29.6706 206.19ZM18.9206 224.005L9.50251 218.321L9.50251 218.321L18.9206 224.005ZM23.1509 229.989L20.9355 219.215L20.9355 219.215L23.1509 229.989ZM38.3585 226.862L40.5739 237.637L41.1977 237.509L41.8025 237.309L38.3585 226.862ZM58.9061 220.089L62.35 230.536L63.0898 230.292L63.7879 229.946L58.9061 220.089ZM84.5002 207.413L79.6184 197.556L84.5002 207.413ZM103.231 200.882L105.054 190.034L102.98 189.685L100.925 190.126L103.231 200.882ZM232.608 113.964C232.608 154.517 188.626 191.928 128 191.928V213.928C195.071 213.928 254.608 171.678 254.608 113.964H232.608ZM128 36C188.626 36 232.608 73.4108 232.608 113.964H254.608C254.608 56.2503 195.071 14 128 14V36ZM23.3919 113.964C23.3919 73.4108 67.374 36 128 36V14C60.9288 14 1.39188 56.2503 1.39188 113.964H23.3919ZM49.6644 165.498C32.8841 151.344 23.3919 133.201 23.3919 113.964H1.39188C1.39188 140.911 14.7654 164.842 35.4799 182.314L49.6644 165.498ZM39.9095 210.472C41.5861 207.492 50.8653 190.69 53.4152 175.758L31.7292 172.054C29.9018 182.755 22.531 196.493 20.7354 199.685L39.9095 210.472ZM39.0887 211.873C39.3364 211.463 39.6198 210.987 39.9095 210.472L20.7355 199.685C20.6033 199.92 20.4494 200.181 20.2525 200.507L39.0887 211.873ZM28.3386 229.688L39.0887 211.874L20.2526 200.507L9.50251 218.321L28.3386 229.688ZM20.9355 219.215C26.9139 217.985 31.492 224.462 28.3386 229.688L9.50251 218.321C2.74524 229.519 12.5556 243.398 25.3663 240.764L20.9355 219.215ZM36.1432 216.088L20.9355 219.215L25.3663 240.764L40.5739 237.637L36.1432 216.088ZM55.4622 209.642L34.9146 216.415L41.8025 237.309L62.35 230.536L55.4622 209.642ZM79.6184 197.556L54.0243 210.231L63.7879 229.946L89.382 217.271L79.6184 197.556ZM100.925 190.126C93.561 191.705 86.4023 194.196 79.6184 197.556L89.382 217.271C94.5258 214.723 99.9538 212.834 105.538 211.637L100.925 190.126ZM128 191.928C120.107 191.928 112.429 191.272 105.054 190.034L101.409 211.73C109.993 213.171 118.89 213.928 128 213.928V191.928Z" fill="white"/>
</svg>
