<svg width="256" height="256" viewBox="0 0 256 256" fill="none" xmlns="http://www.w3.org/2000/svg">
<g clip-path="url(#clip0_226_15)">
<path d="M84.7178 200.218L88.7687 206.53H88.7687L84.7178 200.218ZM80.1353 197.218L87.5407 198.406V198.406L80.1353 197.218ZM156.61 154.079L152.56 147.767L156.61 154.079ZM163.32 143.83L170.725 145.017V145.017L163.32 143.83ZM176.843 59.4826L169.438 58.2953V58.2953L176.843 59.4826ZM172.261 56.4829L176.311 62.7949V62.7949L172.261 56.4829ZM100.368 102.622L104.419 108.934L104.419 108.934L100.368 102.622ZM93.6588 112.871L86.2534 111.684V111.684L93.6588 112.871ZM240.5 128C240.5 190.132 190.132 240.5 128 240.5V255.5C198.416 255.5 255.5 198.416 255.5 128H240.5ZM128 15.5C190.132 15.5 240.5 65.868 240.5 128H255.5C255.5 57.5837 198.416 0.5 128 0.5V15.5ZM15.5 128C15.5 65.868 65.868 15.5 128 15.5V0.5C57.5837 0.5 0.5 57.5837 0.5 128H15.5ZM128 240.5C65.868 240.5 15.5 190.132 15.5 128H0.5C0.5 198.416 57.5837 255.5 128 255.5V240.5ZM80.667 193.906C83.9399 191.806 88.1564 194.565 87.5407 198.406L72.7299 196.031C71.2933 204.991 81.1318 211.431 88.7687 206.53L80.667 193.906ZM152.56 147.767L80.667 193.906L88.7687 206.53L160.661 160.391L152.56 147.767ZM155.914 142.643C155.576 144.75 154.356 146.614 152.56 147.767L160.661 160.391C166.051 156.932 169.711 151.34 170.725 145.017L155.914 142.643ZM169.438 58.2953L155.914 142.643L170.725 145.017L184.249 60.6699L169.438 58.2953ZM176.311 62.7949C173.038 64.8953 168.822 62.1353 169.438 58.2953L184.249 60.67C185.685 51.71 175.847 45.2698 168.21 50.171L176.311 62.7949ZM104.419 108.934L176.311 62.7949L168.21 50.171L96.3171 96.3098L104.419 108.934ZM101.064 114.058C101.402 111.951 102.622 110.087 104.419 108.934L96.3171 96.3098C90.9275 99.7687 87.2672 105.36 86.2534 111.684L101.064 114.058ZM87.5407 198.406L101.064 114.058L86.2534 111.684L72.7299 196.031L87.5407 198.406Z" fill="white"/>
<circle cx="127.5" cy="127.5" r="17.5" stroke="white" stroke-width="15"/>
</g>
<defs>
<clipPath id="clip0_226_15">
<rect width="256" height="256" fill="white"/>
</clipPath>
</defs>
</svg>
