<svg width="256" height="256" viewBox="0 0 256 256" fill="none" xmlns="http://www.w3.org/2000/svg">
<mask id="path-1-outside-1_137_21" maskUnits="userSpaceOnUse" x="13" y="38" width="230" height="181" fill="black">
<rect fill="white" x="13" y="38" width="230" height="181"/>
<path fill-rule="evenodd" clip-rule="evenodd" d="M37.7188 46C28.4852 46 21 51.7699 21 58.8874V198.071C21 205.188 28.4852 210.958 37.7188 210.958H218.281C227.515 210.958 235 205.188 235 198.071V58.8874C235 51.7699 227.515 46 218.281 46H37.7188ZM55.5292 77.7364C52.464 74.9504 47.4943 74.9504 44.4291 77.7364C41.3639 80.5224 41.3639 85.0394 44.4291 87.8254L89.1563 128.479L44.429 169.132C41.3638 171.918 41.3638 176.435 44.429 179.221C47.4942 182.007 52.4638 182.007 55.529 179.221L105.685 133.633C107.248 132.213 108.014 130.343 107.983 128.482C108.016 126.619 107.25 124.746 105.685 123.324L55.5292 77.7364ZM108.797 174.734C108.797 178.876 112.155 182.234 116.297 182.234L205.463 182.234C209.606 182.234 212.963 178.876 212.963 174.734C212.963 170.592 209.606 167.234 205.463 167.234L116.297 167.234C112.155 167.234 108.797 170.592 108.797 174.734Z"/>
</mask>
<path d="M55.5292 77.7364L50.1484 83.6564L55.5292 77.7364ZM44.4291 87.8254L39.0483 93.7454L44.4291 87.8254ZM89.1563 128.479L94.5371 134.399L101.05 128.479L94.5371 122.558L89.1563 128.479ZM44.429 169.132L39.0482 163.212L39.0482 163.212L44.429 169.132ZM44.429 179.221L39.0481 185.141L39.0482 185.141L44.429 179.221ZM55.529 179.221L60.9098 185.141L60.9099 185.141L55.529 179.221ZM105.685 133.633L100.304 127.713L105.685 133.633ZM107.983 128.482L99.9844 128.343L99.9821 128.478L99.9843 128.613L107.983 128.482ZM105.685 123.324L100.304 129.244L100.304 129.244L105.685 123.324ZM116.297 182.234L116.297 190.234L116.297 182.234ZM205.463 182.234L205.463 174.234L205.463 182.234ZM212.963 174.734L204.963 174.734L212.963 174.734ZM205.463 167.234L205.463 159.234L205.463 167.234ZM116.297 167.234L116.297 159.234H116.297L116.297 167.234ZM29 58.8874C29 58.3177 29.2794 57.2681 30.7809 56.1107C32.2914 54.9463 34.7177 54 37.7188 54V38C26.1277 38 13 45.5403 13 58.8874H29ZM29 198.071V58.8874H13V198.071H29ZM37.7188 202.958C34.7177 202.958 32.2914 202.012 30.7809 200.848C29.2794 199.69 29 198.641 29 198.071H13C13 211.418 26.1277 218.958 37.7188 218.958V202.958ZM218.281 202.958H37.7188V218.958H218.281V202.958ZM227 198.071C227 198.641 226.721 199.69 225.219 200.848C223.709 202.012 221.282 202.958 218.281 202.958V218.958C229.872 218.958 243 211.418 243 198.071H227ZM227 58.8874V198.071H243V58.8874H227ZM218.281 54C221.282 54 223.709 54.9463 225.219 56.1107C226.721 57.2681 227 58.3177 227 58.8874H243C243 45.5403 229.872 38 218.281 38V54ZM37.7188 54H218.281V38H37.7188V54ZM49.8099 83.6564C49.7759 83.6873 49.7619 83.6868 49.7923 83.6756C49.8273 83.6627 49.893 83.6469 49.9791 83.6469C50.0652 83.6469 50.131 83.6627 50.166 83.6756C50.1964 83.6868 50.1824 83.6873 50.1484 83.6564L60.91 71.8163C54.7936 66.2571 45.1647 66.2571 39.0483 71.8163L49.8099 83.6564ZM49.8099 81.9054C49.9185 82.004 50.1302 82.3162 50.1302 82.7809C50.1302 83.2456 49.9185 83.5578 49.8099 83.6564L39.0483 71.8163C32.4908 77.7765 32.4908 87.7853 39.0483 93.7454L49.8099 81.9054ZM94.5371 122.558L49.8099 81.9054L39.0483 93.7454L83.7755 134.399L94.5371 122.558ZM49.8098 175.052L94.5371 134.399L83.7755 122.558L39.0482 163.212L49.8098 175.052ZM49.8098 173.301C49.9183 173.399 50.1301 173.712 50.1301 174.176C50.1301 174.641 49.9183 174.953 49.8098 175.052L39.0482 163.212C32.4907 169.172 32.4907 179.181 39.0481 185.141L49.8098 173.301ZM50.1483 173.301C50.1823 173.27 50.1962 173.27 50.1659 173.282C50.1309 173.294 50.0651 173.31 49.979 173.31C49.8929 173.31 49.8271 173.294 49.7921 173.282C49.7618 173.27 49.7758 173.27 49.8098 173.301L39.0482 185.141C45.1646 190.7 54.7934 190.7 60.9098 185.141L50.1483 173.301ZM100.304 127.713L50.1482 173.301L60.9099 185.141L111.066 139.553L100.304 127.713ZM99.9843 128.613C99.9808 128.398 100.024 128.195 100.099 128.023C100.176 127.847 100.266 127.748 100.304 127.713L111.066 139.553C114.303 136.611 116.051 132.549 115.982 128.352L99.9843 128.613ZM100.304 129.244C100.266 129.209 100.176 129.109 100.099 128.933C100.024 128.761 99.9807 128.558 99.9844 128.343L115.982 128.622C116.055 124.42 114.308 120.35 111.066 117.404L100.304 129.244ZM50.1484 83.6564L100.304 129.244L111.066 117.404L60.91 71.8163L50.1484 83.6564ZM116.297 174.234C116.573 174.234 116.797 174.458 116.797 174.734L100.797 174.734C100.797 183.295 107.736 190.234 116.297 190.234L116.297 174.234ZM205.463 174.234L116.297 174.234L116.297 190.234L205.463 190.234L205.463 174.234ZM204.963 174.734C204.963 174.458 205.187 174.234 205.463 174.234L205.463 190.234C214.024 190.234 220.963 183.294 220.963 174.734L204.963 174.734ZM205.463 175.234C205.187 175.234 204.963 175.01 204.963 174.734L220.963 174.734C220.963 166.173 214.024 159.234 205.463 159.234L205.463 175.234ZM116.297 175.234L205.463 175.234L205.463 159.234L116.297 159.234L116.297 175.234ZM116.797 174.734C116.797 175.01 116.573 175.234 116.297 175.234L116.297 159.234C107.736 159.234 100.797 166.174 100.797 174.734L116.797 174.734Z" fill="white" mask="url(#path-1-outside-1_137_21)"/>
</svg>
