<svg width="256" height="256" viewBox="0 0 256 256" fill="none" xmlns="http://www.w3.org/2000/svg">
<path d="M47.4746 71.841L40.6993 79.1959L40.6993 79.196L47.4746 71.841ZM36.4422 82.004L29.6669 89.3589L29.6669 89.3589L36.4422 82.004ZM86.3713 127.998L93.1466 135.353L101.131 127.998L93.1466 120.643L86.3713 127.998ZM36.4419 173.993L43.2172 181.348L43.2172 181.348L36.4419 173.993ZM36.4419 184.156L43.2173 176.801L43.2172 176.801L36.4419 184.156ZM47.4743 184.156L40.699 176.801L40.699 176.801L47.4743 184.156ZM102.787 133.203L109.562 140.558L109.562 140.558L102.787 133.203ZM105.071 128.007L95.0725 127.81L95.0689 127.994L95.072 128.178L105.071 128.007ZM102.787 122.794L96.0116 130.149L96.0116 130.149L102.787 122.794ZM115.094 187.249L115.094 197.249L115.094 197.249L115.094 187.249ZM107.644 179.699L117.644 179.699L117.644 179.699L107.644 179.699ZM213.427 187.249L213.427 177.249L213.427 177.249L213.427 187.249ZM213.427 172.149L213.427 182.149L213.427 182.149L213.427 172.149ZM115.094 172.149L115.094 182.149L115.094 182.149L115.094 172.149ZM20 50.2168C20 49.9192 20.1287 49.0273 21.5567 47.9117C22.9991 46.7848 25.3985 45.8125 28.4375 45.8125V25.8125C15.1709 25.8125 0 34.5809 0 50.2168H20ZM20 205.783V50.2168H0V205.783H20ZM28.4375 210.187C25.3985 210.187 22.9991 209.215 21.5567 208.088C20.1287 206.973 20 206.081 20 205.783H0C0 221.419 15.1709 230.187 28.4375 230.187V210.187ZM227.562 210.187H28.4375V230.187H227.562V210.187ZM236 205.783C236 206.081 235.871 206.973 234.443 208.088C233.001 209.215 230.602 210.187 227.562 210.187V230.187C240.829 230.187 256 221.419 256 205.783H236ZM236 50.2168V205.783H256V50.2168H236ZM227.562 45.8125C230.602 45.8125 233.001 46.7848 234.443 47.9117C235.871 49.0273 236 49.9192 236 50.2168H256C256 34.5809 240.829 25.8125 227.562 25.8125V45.8125ZM28.4375 45.8125H227.562V25.8125H28.4375V45.8125ZM43.2176 79.196C42.7427 79.6334 42.2581 79.7362 41.9584 79.7362C41.6588 79.7362 41.1742 79.6334 40.6993 79.1959L54.25 64.4861C47.375 58.1529 36.5419 58.1529 29.6669 64.4861L43.2176 79.196ZM43.2176 74.6491C43.7338 75.1246 44.1574 75.9456 44.1574 76.9225C44.1574 77.8995 43.7338 78.7204 43.2176 79.196L29.6669 64.4861C22.3208 71.2533 22.3208 82.5918 29.6669 89.3589L43.2176 74.6491ZM93.1466 120.643L43.2176 74.6491L29.6669 89.3589L79.596 135.353L93.1466 120.643ZM43.2172 181.348L93.1466 135.353L79.596 120.643L29.6666 166.638L43.2172 181.348ZM43.2172 176.801C43.7334 177.277 44.157 178.098 44.157 179.075C44.157 180.052 43.7334 180.873 43.2172 181.348L29.6666 166.638C22.3205 173.405 22.3205 184.744 29.6666 191.511L43.2172 176.801ZM40.699 176.801C41.1739 176.364 41.6585 176.261 41.9581 176.261C42.2578 176.261 42.7424 176.364 43.2173 176.801L29.6666 191.511C36.5416 197.844 47.3747 197.844 54.2497 191.511L40.699 176.801ZM96.0113 125.848L40.699 176.801L54.2496 191.511L109.562 140.558L96.0113 125.848ZM95.072 128.178C95.055 127.18 95.4826 126.335 96.0113 125.848L109.562 140.558C113.2 137.206 115.15 132.589 115.069 127.837L95.072 128.178ZM96.0116 130.149C95.481 129.661 95.0527 128.811 95.0725 127.81L115.069 128.205C115.163 123.438 113.212 118.802 109.562 115.44L96.0116 130.149ZM40.6993 79.196L96.0116 130.149L109.562 115.44L54.25 64.4861L40.6993 79.196ZM115.094 177.249C116.628 177.249 117.644 178.473 117.644 179.699L97.6443 179.699C97.6443 189.265 105.331 197.249 115.094 197.249L115.094 177.249ZM213.427 177.249L115.094 177.249L115.094 197.249L213.427 197.249L213.427 177.249ZM210.877 179.699C210.877 178.473 211.892 177.249 213.427 177.249L213.427 197.249C223.19 197.249 230.877 189.264 230.877 179.699L210.877 179.699ZM213.427 182.149C211.892 182.149 210.877 180.925 210.877 179.699L230.877 179.699C230.876 170.133 223.19 162.148 213.427 162.149L213.427 182.149ZM115.094 182.149L213.427 182.149L213.427 162.149L115.094 162.149L115.094 182.149ZM117.644 179.699C117.644 180.925 116.629 182.149 115.094 182.149L115.094 162.149C105.33 162.149 97.6442 170.134 97.6443 179.699L117.644 179.699Z" fill="white"/>
</svg>
