<svg width="256" height="256" viewBox="0 0 256 256" fill="none" xmlns="http://www.w3.org/2000/svg">
<path fill-rule="evenodd" clip-rule="evenodd" d="M34 61C34 45.536 46.536 33 62 33H150C165.464 33 178 45.536 178 61V77V79H193C208.464 79 221 91.536 221 107V195C221 210.464 208.464 223 193 223H105C89.536 223 77 210.464 77 195V177H76H62C46.536 177 34 164.464 34 149V61ZM76 169H77H85H97H105H107H150C161.046 169 170 160.046 170 149V122V107V99V87V79V77V61C170 49.9543 161.046 41 150 41H62C50.9543 41 42 49.9543 42 61V149C42 160.046 50.9543 169 62 169H76ZM107 177H105V195H193V107H178V122V149C178 164.464 165.464 177 150 177H107ZM97 177H85V195C85 206.046 93.9543 215 105 215H193C204.046 215 213 206.046 213 195V107C213 95.9543 204.046 87 193 87H178V99H193C197.418 99 201 102.582 201 107V195C201 199.418 197.418 203 193 203H105C100.582 203 97 199.418 97 195V177Z" fill="white"/>
</svg>
