<svg width="256" height="256" viewBox="0 0 256 256" fill="none" xmlns="http://www.w3.org/2000/svg">
<mask id="path-1-outside-1_86_31" maskUnits="userSpaceOnUse" x="2.74219" y="31.9922" width="251" height="193" fill="black">
<rect fill="white" x="2.74219" y="31.9922" width="251" height="193"/>
<path fill-rule="evenodd" clip-rule="evenodd" d="M115.093 66.9922C115.093 74.1719 109.272 79.9922 102.093 79.9922L95.9446 79.9922C79.7496 79.9922 66.6209 93.1208 66.6209 109.316C66.6209 115.21 64.1972 120.845 59.9184 124.898L56.6446 128L59.9184 131.101C64.1972 135.155 66.6209 140.79 66.6209 146.684C66.6209 162.879 79.7496 176.007 95.9446 176.007H102.093C109.272 176.007 115.093 181.828 115.093 189.007C115.093 196.187 109.272 202.007 102.093 202.007H95.9446C66.0542 202.007 41.7003 178.303 40.6558 148.667L28.8833 137.515C28.7594 137.399 28.6373 137.281 28.517 137.159C27.4778 136.114 26.652 134.933 26.041 133.672C25.1748 131.886 24.7433 129.947 24.7422 128.01C24.7403 124.685 26.0057 121.367 28.5171 118.84C28.6373 118.719 28.7594 118.601 28.8832 118.485L40.6558 107.332C41.7003 77.6965 66.0542 53.9922 95.9446 53.9922L102.093 53.9922C109.272 53.9922 115.093 59.8125 115.093 66.9922ZM140.907 66.9922C140.907 74.1719 146.728 79.9922 153.907 79.9922L160.055 79.9922C176.25 79.9922 189.379 93.1208 189.379 109.316C189.379 115.21 191.803 120.845 196.081 124.898L199.355 128L196.081 131.101C191.803 135.155 189.379 140.79 189.379 146.684C189.379 162.879 176.25 176.007 160.055 176.007H153.907C146.728 176.007 140.907 181.828 140.907 189.007C140.907 196.187 146.728 202.007 153.907 202.007H160.055C189.946 202.007 214.3 178.303 215.344 148.667L227.117 137.515C227.241 137.399 227.363 137.281 227.483 137.159C228.522 136.114 229.348 134.933 229.959 133.672C230.825 131.886 231.257 129.947 231.258 128.01C231.26 124.685 229.994 121.367 227.483 118.84C227.363 118.719 227.241 118.601 227.117 118.485L215.344 107.332C214.3 77.6965 189.946 53.9922 160.055 53.9922L153.907 53.9922C146.728 53.9922 140.907 59.8125 140.907 66.9922Z"/>
</mask>
<path d="M102.093 79.9922L102.093 101.992L102.093 79.9922ZM95.9446 79.9922L95.9446 57.9922H95.9446V79.9922ZM59.9184 124.898L75.0488 140.869L75.0488 140.869L59.9184 124.898ZM56.6446 128L41.5142 112.029L24.656 128L41.5143 143.971L56.6446 128ZM59.9184 131.101L75.0488 115.13L75.0488 115.13L59.9184 131.101ZM66.6209 146.684H44.6209H66.6209ZM40.6558 148.667L62.6422 147.893L62.3249 138.891L55.7862 132.697L40.6558 148.667ZM28.8833 137.515L44.0136 121.544L43.952 121.485L43.8899 121.427L28.8833 137.515ZM28.517 137.159L44.1357 121.666L44.1279 121.658L44.1201 121.65L28.517 137.159ZM26.041 133.672L45.8393 124.079L45.8352 124.07L26.041 133.672ZM24.7422 128.01L46.7422 127.997L24.7422 128.01ZM28.5171 118.84L44.12 134.35L44.1278 134.342L44.1356 134.334L28.5171 118.84ZM28.8832 118.485L43.8902 134.572L43.9521 134.514L44.0136 134.456L28.8832 118.485ZM40.6558 107.332L55.7862 123.303L62.3249 117.108L62.6422 108.107L40.6558 107.332ZM95.9446 53.9922L95.9446 75.9922L95.9446 53.9922ZM102.093 53.9922L102.093 75.9922H102.093V53.9922ZM153.907 79.9922L153.907 101.992L153.907 79.9922ZM160.055 79.9922V57.9922V79.9922ZM196.081 124.898L211.212 108.927L196.081 124.898ZM199.355 128L214.486 143.971L231.344 128L214.486 112.029L199.355 128ZM196.081 131.101L180.951 115.13L180.951 115.13L196.081 131.101ZM189.379 146.684L211.379 146.684V146.684H189.379ZM215.344 148.667L200.214 132.697L193.675 138.891L193.358 147.893L215.344 148.667ZM227.117 137.515L212.11 121.427L212.048 121.485L211.986 121.544L227.117 137.515ZM227.483 137.159L211.88 121.65L211.872 121.657L211.865 121.665L227.483 137.159ZM229.959 133.672L210.165 124.07L210.161 124.079L229.959 133.672ZM231.258 128.01L253.258 128.022V128.022L231.258 128.01ZM227.483 118.84L211.864 134.334L211.872 134.342L211.88 134.35L227.483 118.84ZM227.117 118.485L211.986 134.456L212.048 134.514L212.109 134.572L227.117 118.485ZM215.344 107.332L193.358 108.107L193.675 117.108L200.214 123.303L215.344 107.332ZM160.055 53.9922L160.055 75.9922L160.055 53.9922ZM153.907 53.9922L153.907 75.9922L153.907 53.9922ZM102.093 101.992C121.423 101.992 137.093 86.3222 137.093 66.9922H93.0927C93.0927 62.0216 97.1221 57.9922 102.093 57.9922L102.093 101.992ZM95.9446 101.992H102.093L102.093 57.9922L95.9446 57.9922L95.9446 101.992ZM88.6209 109.316C88.6209 105.271 91.8998 101.992 95.9446 101.992V57.9922C67.5993 57.9922 44.6209 80.9706 44.6209 109.316H88.6209ZM75.0488 140.869C83.7131 132.661 88.6209 121.251 88.6209 109.316H44.6209C44.6209 109.169 44.6814 109.028 44.788 108.927L75.0488 140.869ZM71.775 143.971L75.0488 140.869L44.7881 108.927L41.5142 112.029L71.775 143.971ZM75.0488 115.13L71.775 112.029L41.5143 143.971L44.7881 147.072L75.0488 115.13ZM88.6209 146.684C88.6209 134.749 83.7131 123.339 75.0488 115.13L44.7881 147.072C44.6814 146.971 44.6209 146.831 44.6209 146.684H88.6209ZM95.9446 154.007C91.8998 154.007 88.6209 150.728 88.6209 146.684L44.6209 146.684C44.6209 175.029 67.5993 198.007 95.9446 198.007V154.007ZM102.093 154.007H95.9446V198.007H102.093V154.007ZM137.093 189.007C137.093 169.677 121.423 154.007 102.093 154.007V198.007C97.1221 198.007 93.0927 193.978 93.0927 189.007H137.093ZM102.093 224.007C121.423 224.007 137.093 208.337 137.093 189.007H93.0927C93.0927 184.037 97.1221 180.007 102.093 180.007V224.007ZM95.9446 224.007H102.093V180.007H95.9446V224.007ZM18.6695 149.442C20.1298 190.877 54.1635 224.007 95.9446 224.007V180.007C77.945 180.007 63.2708 165.729 62.6422 147.893L18.6695 149.442ZM13.7529 153.486L25.5254 164.638L55.7862 132.697L44.0136 121.544L13.7529 153.486ZM12.8984 152.653C13.2185 152.976 13.5446 153.292 13.8766 153.602L43.8899 121.427C43.9742 121.506 44.0561 121.585 44.1357 121.666L12.8984 152.653ZM6.24272 143.265C7.89931 146.684 10.1332 149.871 12.9139 152.669L44.1201 121.65C44.8225 122.356 45.4047 123.182 45.8393 124.079L6.24272 143.265ZM2.74219 128.022C2.74518 133.212 3.90098 138.437 6.24683 143.273L45.8352 124.07C46.4487 125.335 46.7414 126.682 46.7422 127.997L2.74219 128.022ZM12.9142 103.33C6.14058 110.145 2.73707 119.115 2.74219 128.022L46.7422 127.997C46.7435 130.255 45.8708 132.588 44.12 134.35L12.9142 103.33ZM13.8762 102.398C13.5449 102.707 13.219 103.023 12.8986 103.346L44.1356 134.334C44.0557 134.415 43.9739 134.494 43.8902 134.572L13.8762 102.398ZM25.5254 91.3611L13.7529 102.514L44.0136 134.456L55.7862 123.303L25.5254 91.3611ZM95.9446 31.9922C54.1635 31.9922 20.1298 65.1223 18.6695 106.557L62.6422 108.107C63.2708 90.2706 77.945 75.9922 95.9446 75.9922L95.9446 31.9922ZM102.093 31.9922L95.9446 31.9922L95.9446 75.9922L102.093 75.9922L102.093 31.9922ZM137.093 66.9922C137.093 47.6622 121.423 31.9922 102.093 31.9922V75.9922C97.1221 75.9922 93.0927 71.9627 93.0927 66.9922H137.093ZM153.907 57.9922C158.878 57.9922 162.907 62.0216 162.907 66.9922H118.907C118.907 86.3222 134.577 101.992 153.907 101.992L153.907 57.9922ZM160.055 57.9922L153.907 57.9922L153.907 101.992H160.055L160.055 57.9922ZM211.379 109.316C211.379 80.9706 188.401 57.9922 160.055 57.9922L160.055 101.992C164.1 101.992 167.379 105.271 167.379 109.316H211.379ZM211.212 108.927C211.319 109.028 211.379 109.169 211.379 109.316H167.379C167.379 121.251 172.287 132.661 180.951 140.869L211.212 108.927ZM214.486 112.029L211.212 108.927L180.951 140.869L184.225 143.971L214.486 112.029ZM211.212 147.072L214.486 143.971L184.225 112.029L180.951 115.13L211.212 147.072ZM211.379 146.684C211.379 146.831 211.319 146.971 211.212 147.072L180.951 115.13C172.287 123.339 167.379 134.749 167.379 146.684H211.379ZM160.055 198.007C188.401 198.007 211.379 175.029 211.379 146.684L167.379 146.684C167.379 150.728 164.1 154.007 160.055 154.007V198.007ZM153.907 198.007H160.055V154.007H153.907V198.007ZM162.907 189.007C162.907 193.978 158.878 198.007 153.907 198.007V154.007C134.577 154.007 118.907 169.677 118.907 189.007H162.907ZM153.907 180.007C158.878 180.007 162.907 184.037 162.907 189.007H118.907C118.907 208.337 134.577 224.007 153.907 224.007V180.007ZM160.055 180.007H153.907V224.007H160.055V180.007ZM193.358 147.893C192.729 165.729 178.055 180.007 160.055 180.007V224.007C201.836 224.007 235.87 190.877 237.33 149.442L193.358 147.893ZM211.986 121.544L200.214 132.697L230.474 164.638L242.247 153.486L211.986 121.544ZM211.865 121.665C211.944 121.586 212.026 121.506 212.11 121.427L242.123 153.602C242.456 153.292 242.782 152.976 243.101 152.654L211.865 121.665ZM210.161 124.079C210.595 123.182 211.177 122.357 211.88 121.65L243.086 152.669C245.867 149.871 248.101 146.684 249.757 143.265L210.161 124.079ZM209.258 127.997C209.258 126.682 209.551 125.335 210.165 124.07L249.753 143.273C252.099 138.437 253.255 133.212 253.258 128.022L209.258 127.997ZM211.88 134.35C210.129 132.588 209.256 130.255 209.258 127.997L253.258 128.022C253.263 119.115 249.859 110.145 243.086 103.33L211.88 134.35ZM212.109 134.572C212.026 134.494 211.944 134.415 211.864 134.334L243.101 103.346C242.781 103.023 242.455 102.707 242.124 102.398L212.109 134.572ZM200.214 123.303L211.986 134.456L242.247 102.514L230.474 91.3611L200.214 123.303ZM160.055 75.9922C178.055 75.9922 192.729 90.2706 193.358 108.107L237.33 106.557C235.87 65.1223 201.836 31.9922 160.055 31.9922L160.055 75.9922ZM153.907 75.9922L160.055 75.9922L160.055 31.9922L153.907 31.9922L153.907 75.9922ZM162.907 66.9922C162.907 71.9627 158.878 75.9922 153.907 75.9922L153.907 31.9922C134.577 31.9922 118.907 47.6622 118.907 66.9922H162.907Z" fill="white" mask="url(#path-1-outside-1_86_31)"/>
</svg>
