<svg width="256" height="256" viewBox="0 0 256 256" fill="none" xmlns="http://www.w3.org/2000/svg">
<path d="M97 68V64V68ZM89.6434 68V64V68ZM52 105.643L56 105.643V105.643H52ZM44.778 122.434L42.027 119.53H42.027L44.778 122.434ZM38.9024 128L36.1514 125.096L33.0863 128L36.1514 130.904L38.9024 128ZM44.7779 133.566L42.0269 136.47V136.47L44.7779 133.566ZM89.6433 214V210V214ZM26.0119 151.603L30.0112 151.526L29.979 149.851L28.7629 148.699L26.0119 151.603ZM11.1317 137.506L13.8827 134.602L13.8729 134.593L13.8631 134.584L11.1317 137.506ZM10.8393 137.224L13.6595 134.387L13.6567 134.385L10.8393 137.224ZM8.21337 133.492L11.8395 131.804L11.8388 131.802L8.21337 133.492ZM7.00124 128.182L3.00162 128.237L7.00124 128.182ZM10.7787 118.837L13.6144 121.658L13.6172 121.655L10.7787 118.837ZM11.1402 118.486L13.869 121.411L13.8801 121.4L13.8912 121.39L11.1402 118.486ZM26.012 104.397L28.763 107.301L29.9791 106.149L30.0113 104.474L26.012 104.397ZM89.6434 42V38V42ZM97 42V46V42ZM159 68V64V68ZM166.357 68V64V68ZM204 105.643L200 105.643V105.643L204 105.643ZM211.222 122.434L208.471 125.337L211.222 122.434ZM217.098 128L219.849 130.904L222.914 128L219.849 125.096L217.098 128ZM211.222 133.566L213.973 136.47V136.47L211.222 133.566ZM166.357 214V210V214ZM229.988 151.603L227.237 148.699L226.021 149.851L225.989 151.526L229.988 151.603ZM244.868 137.506L242.137 134.584L242.127 134.593L242.117 134.602L244.868 137.506ZM245.161 137.224L242.343 134.385L242.34 134.388L245.161 137.224ZM247.787 133.492L244.161 131.802L244.16 131.804L247.787 133.492ZM248.999 128.182L252.998 128.237V128.237L248.999 128.182ZM245.221 118.837L242.383 121.655L242.386 121.658L245.221 118.837ZM244.86 118.486L242.109 121.39L242.12 121.4L242.131 121.411L244.86 118.486ZM229.988 104.397L225.989 104.474L226.021 106.149L227.237 107.301L229.988 104.397ZM166.357 42V38V42ZM159 42V46V42ZM97 72C106.389 72 114 64.3888 114 55H106C106 59.9706 101.971 64 97 64V72ZM89.6434 72L97 72V64L89.6434 64V72ZM56 105.643C56 87.0626 71.0627 72 89.6434 72V64C66.6444 64 48 82.6444 48 105.643H56ZM47.529 125.337C52.9368 120.214 56 113.093 56 105.643L48 105.643C48 110.896 45.8401 115.917 42.027 119.53L47.529 125.337ZM41.6534 130.904L47.529 125.337L42.027 119.53L36.1514 125.096L41.6534 130.904ZM47.5289 130.663L41.6534 125.096L36.1514 130.904L42.0269 136.47L47.5289 130.663ZM56 150.357C56 142.907 52.9368 135.786 47.5289 130.663L42.0269 136.47C45.8401 140.083 48 145.104 48 150.357H56ZM89.6433 184C71.0626 184 56 168.937 56 150.357H48C48 173.356 66.6443 192 89.6433 192V184ZM97 184H89.6433V192H97V184ZM114 201C114 191.611 106.389 184 97 184V192C101.971 192 106 196.029 106 201H114ZM97 218C106.389 218 114 210.389 114 201H106C106 205.971 101.971 210 97 210V218ZM89.6433 218H97V210H89.6433V218ZM22.0127 151.68C22.7185 188.428 52.7271 218 89.6433 218V210C57.0939 210 30.6335 183.926 30.0112 151.526L22.0127 151.68ZM8.38077 140.41L23.261 154.507L28.7629 148.699L13.8827 134.602L8.38077 140.41ZM8.01907 140.061C8.14457 140.185 8.2717 140.308 8.40038 140.428L13.8631 134.584C13.7946 134.52 13.7267 134.454 13.6595 134.387L8.01907 140.061ZM4.58722 135.181C5.41427 136.957 6.56185 138.615 8.02188 140.063L13.6567 134.385C12.8783 133.612 12.274 132.737 11.8395 131.804L4.58722 135.181ZM3.00162 128.237C3.03424 130.607 3.56019 132.978 4.58793 135.182L11.8388 131.802C11.2981 130.642 11.0182 129.388 11.0009 128.127L3.00162 128.237ZM7.94288 116.015C4.5962 119.38 2.94081 123.821 3.00162 128.237L11.0009 128.127C10.9685 125.776 11.8463 123.435 13.6144 121.658L7.94288 116.015ZM8.41142 115.561C8.25191 115.71 8.09476 115.862 7.94009 116.018L13.6172 121.655C13.7001 121.571 13.784 121.49 13.869 121.411L8.41142 115.561ZM23.261 101.493L8.38923 115.582L13.8912 121.39L28.763 107.301L23.261 101.493ZM89.6434 38C52.7271 38 22.7186 67.5716 22.0127 104.32L30.0113 104.474C30.6336 72.0744 57.0939 46 89.6434 46V38ZM97 38L89.6434 38V46L97 46V38ZM114 55C114 45.6112 106.389 38 97 38V46C101.971 46 106 50.0294 106 55H114ZM159 64C154.029 64 150 59.9706 150 55H142C142 64.3888 149.611 72 159 72V64ZM166.357 64L159 64V72L166.357 72V64ZM208 105.643C208 82.6444 189.356 64 166.357 64V72C184.937 72 200 87.0626 200 105.643L208 105.643ZM213.973 119.53C210.16 115.917 208 110.896 208 105.643L200 105.643C200 113.093 203.063 120.214 208.471 125.337L213.973 119.53ZM219.849 125.096L213.973 119.53L208.471 125.337L214.347 130.904L219.849 125.096ZM213.973 136.47L219.849 130.904L214.347 125.096L208.471 130.663L213.973 136.47ZM208 150.357C208 145.104 210.16 140.083 213.973 136.47L208.471 130.663C203.063 135.786 200 142.907 200 150.357H208ZM166.357 192C189.356 192 208 173.356 208 150.357H200C200 168.937 184.937 184 166.357 184V192ZM159 192H166.357V184H159V192ZM150 201C150 196.029 154.029 192 159 192V184C149.611 184 142 191.611 142 201H150ZM159 210C154.029 210 150 205.971 150 201H142C142 210.389 149.611 218 159 218V210ZM166.357 210H159V218H166.357V210ZM225.989 151.526C225.366 183.926 198.906 210 166.357 210V218C203.273 218 233.281 188.428 233.987 151.68L225.989 151.526ZM242.117 134.602L227.237 148.699L232.739 154.507L247.619 140.41L242.117 134.602ZM242.34 134.388C242.273 134.454 242.205 134.52 242.137 134.584L247.6 140.428C247.728 140.308 247.855 140.185 247.981 140.061L242.34 134.388ZM244.16 131.804C243.726 132.737 243.122 133.612 242.343 134.385L247.978 140.063C249.438 138.615 250.586 136.957 251.413 135.181L244.16 131.804ZM244.999 128.127C244.982 129.388 244.702 130.642 244.161 131.802L251.412 135.182C252.44 132.978 252.966 130.607 252.998 128.237L244.999 128.127ZM242.386 121.658C244.154 123.435 245.032 125.776 244.999 128.127L252.998 128.237C253.059 123.821 251.404 119.38 248.057 116.015L242.386 121.658ZM242.131 121.411C242.216 121.49 242.3 121.571 242.383 121.655L248.06 116.018C247.905 115.863 247.748 115.71 247.589 115.561L242.131 121.411ZM227.237 107.301L242.109 121.39L247.611 115.582L232.739 101.493L227.237 107.301ZM166.357 46C198.906 46 225.366 72.0744 225.989 104.474L233.987 104.32C233.281 67.5716 203.273 38 166.357 38V46ZM159 46L166.357 46V38L159 38V46ZM150 55C150 50.0294 154.029 46 159 46V38C149.611 38 142 45.6112 142 55H150Z" fill="white"/>
</svg>
