<svg width="256" height="256" viewBox="0 0 256 256" fill="none" xmlns="http://www.w3.org/2000/svg">
<path d="M78.1832 219.826L80.1087 223.332L80.1087 223.332L78.1832 219.826ZM73.7398 217.261L69.7407 217.346L73.7398 217.261ZM109.681 202.528L111.606 206.034L111.606 206.034L109.681 202.528ZM109.7 200.786L107.7 204.25L109.7 200.786ZM74.4713 180.447L76.4713 176.982L74.4713 180.447ZM72.9715 181.334L68.9724 181.419L68.9724 181.42L72.9715 181.334ZM76.2577 216.32C76.9159 215.959 77.7228 216.425 77.7389 217.175L69.7407 217.346C69.8531 222.602 75.5014 225.863 80.1087 223.332L76.2577 216.32ZM107.755 199.022L76.2577 216.32L80.1087 223.332L111.606 206.034L107.755 199.022ZM107.7 204.25C105.675 203.081 105.706 200.148 107.755 199.022L111.606 206.034C115.022 204.159 115.074 199.27 111.7 197.322L107.7 204.25ZM72.4713 183.911L107.7 204.25L111.7 197.322L76.4713 176.982L72.4713 183.911ZM76.9706 181.248C77.0206 183.586 74.4961 185.08 72.4713 183.911L76.4713 176.982C73.0967 175.034 68.8891 177.524 68.9724 181.419L76.9706 181.248ZM77.7389 217.175L76.9706 181.248L68.9724 181.42L69.7407 217.346L77.7389 217.175ZM115.591 185.679C115.315 186.157 114.703 186.321 114.225 186.045L110.225 192.973C114.529 195.458 120.034 193.984 122.519 189.679L115.591 185.679ZM191.02 55.0313L115.591 185.679L122.519 189.679L197.948 59.0313L191.02 55.0313ZM164.136 36.0454L189.922 50.9333L193.922 44.0051L168.136 29.1172L164.136 36.0454ZM84.6081 167.791L160.038 37.1435L153.109 33.1435L77.6799 163.791L84.6081 167.791ZM84.9741 169.157C84.4958 168.881 84.3319 168.269 84.6081 167.791L77.6799 163.791C75.1946 168.096 76.6695 173.6 80.9741 176.085L84.9741 169.157ZM114.225 186.045L84.9741 169.157L80.9741 176.085L110.225 192.973L114.225 186.045ZM168.136 29.1172C162.874 26.0796 156.147 27.8823 153.109 33.1435L160.038 37.1435C160.866 35.7086 162.701 35.217 164.136 36.0454L168.136 29.1172ZM197.948 59.0313C200.986 53.7701 199.183 47.0426 193.922 44.0051L189.922 50.9333C191.357 51.7617 191.849 53.5965 191.02 55.0313L197.948 59.0313Z" fill="white"/>
</svg>
