<svg width="256" height="256" viewBox="0 0 256 256" fill="none" xmlns="http://www.w3.org/2000/svg">
<path d="M128 177C145.673 177 160 191.327 160 209C160 226.673 145.673 241 128 241C110.327 241 96 226.673 96 209C96 191.327 110.327 177 128 177ZM218 101C232.912 101 245 113.088 245 128C245 142.912 232.912 155 218 155H38C23.0883 155 11 142.912 11 128C11 113.088 23.0883 101 38 101H218ZM128 15C145.673 15 160 29.3269 160 47C160 64.6731 145.673 79 128 79C110.327 79 96 64.6731 96 47C96 29.3269 110.327 15 128 15Z" stroke="white" stroke-width="22"/>
</svg>
