<svg width="256" height="256" viewBox="0 0 256 256" fill="none" xmlns="http://www.w3.org/2000/svg">
<path fill-rule="evenodd" clip-rule="evenodd" d="M128 75C135.18 75 141 69.1797 141 62C141 54.8203 135.18 49 128 49C120.82 49 115 54.8203 115 62C115 69.1797 120.82 75 128 75ZM128 83C139.598 83 149 73.598 149 62C149 50.402 139.598 41 128 41C116.402 41 107 50.402 107 62C107 73.598 116.402 83 128 83ZM16 120C11.5817 120 8 123.582 8 128C8 132.418 11.5817 136 16 136H240C244.418 136 248 132.418 248 128C248 123.582 244.418 120 240 120H16ZM0 128C0 136.837 7.16344 144 16 144H240C248.837 144 256 136.837 256 128C256 119.163 248.837 112 240 112H16C7.16344 112 0 119.163 0 128ZM141 194C141 201.18 135.18 207 128 207C120.82 207 115 201.18 115 194C115 186.82 120.82 181 128 181C135.18 181 141 186.82 141 194ZM149 194C149 205.598 139.598 215 128 215C116.402 215 107 205.598 107 194C107 182.402 116.402 173 128 173C139.598 173 149 182.402 149 194Z" fill="white"/>
</svg>
