<svg width="256" height="256" viewBox="0 0 256 256" fill="none" xmlns="http://www.w3.org/2000/svg">
<mask id="path-1-outside-1_114_30" maskUnits="userSpaceOnUse" x="24" y="24" width="208" height="208" fill="black">
<rect fill="white" x="24" y="24" width="208" height="208"/>
<path fill-rule="evenodd" clip-rule="evenodd" d="M32 52C32 40.9543 40.9543 32 52 32H204C212.519 32 219.794 37.3264 222.677 44.8307C223.527 46.7124 224 48.8009 224 51V52V204C224 215.046 215.046 224 204 224H52C40.9543 224 32 215.046 32 204V52ZM150 38V218H53C44.7157 218 38 211.284 38 203V53C38 44.7157 44.7157 38 53 38H150Z"/>
</mask>
<path d="M222.677 44.8307L215.209 47.6992L215.291 47.9144L215.386 48.1245L222.677 44.8307ZM150 38H158V30H150V38ZM150 218V226H158V218H150ZM52 24C36.536 24 24 36.536 24 52H40C40 45.3726 45.3726 40 52 40V24ZM204 24H52V40H204V24ZM230.145 41.9621C226.114 31.4694 215.939 24 204 24V40C209.099 40 213.474 43.1834 215.209 47.6992L230.145 41.9621ZM232 51C232 47.6428 231.276 44.4332 229.967 41.5368L215.386 48.1245C215.778 48.9916 216 49.959 216 51H232ZM232 52V51H216V52H232ZM232 204V52H216V204H232ZM204 232C219.464 232 232 219.464 232 204H216C216 210.627 210.627 216 204 216V232ZM52 232H204V216H52V232ZM24 204C24 219.464 36.536 232 52 232V216C45.3726 216 40 210.627 40 204H24ZM24 52V204H40V52H24ZM142 38V218H158V38H142ZM53 226H150V210H53V226ZM30 203C30 215.703 40.2974 226 53 226V210C49.134 210 46 206.866 46 203H30ZM30 53V203H46V53H30ZM53 30C40.2975 30 30 40.2974 30 53H46C46 49.134 49.134 46 53 46V30ZM150 30H53V46H150V30Z" fill="white" mask="url(#path-1-outside-1_114_30)"/>
</svg>
