<svg width="256" height="256" viewBox="0 0 256 256" fill="none" xmlns="http://www.w3.org/2000/svg">
<mask id="path-1-outside-1_114_25" maskUnits="userSpaceOnUse" x="24" y="24" width="208" height="208" fill="black">
<rect fill="white" x="24" y="24" width="208" height="208"/>
<path fill-rule="evenodd" clip-rule="evenodd" d="M33.3234 44.8306C36.2058 37.3264 43.4809 32 52 32H204C215.046 32 224 40.9543 224 52V204C224 215.046 215.046 224 204 224H52C40.9543 224 32 215.046 32 204V52V51C32 48.8009 32.4732 46.7124 33.3234 44.8306ZM106 218V38H203C211.284 38 218 44.7157 218 53V203C218 211.284 211.284 218 203 218H106Z"/>
</mask>
<path d="M33.3234 44.8306L40.6138 48.1244L40.7088 47.9144L40.7914 47.6992L33.3234 44.8306ZM106 38V30H98V38H106ZM106 218H98V226H106V218ZM52 24C40.0606 24 29.8857 31.4694 25.8554 41.9621L40.7914 47.6992C42.526 43.1834 46.9012 40 52 40V24ZM204 24H52V40H204V24ZM232 52C232 36.536 219.464 24 204 24V40C210.627 40 216 45.3726 216 52H232ZM232 204V52H216V204H232ZM204 232C219.464 232 232 219.464 232 204H216C216 210.627 210.627 216 204 216V232ZM52 232H204V216H52V232ZM24 204C24 219.464 36.536 232 52 232V216C45.3726 216 40 210.627 40 204H24ZM40 204V52H24V204H40ZM40 52V51H24V52H40ZM40 51C40 49.9591 40.2221 48.9916 40.6138 48.1244L26.0329 41.5369C24.7243 44.4332 24 47.6428 24 51H40ZM98 38V218H114V38H98ZM203 30H106V46H203V30ZM226 53C226 40.2975 215.703 30 203 30V46C206.866 46 210 49.134 210 53H226ZM226 203V53H210V203H226ZM203 226C215.703 226 226 215.703 226 203H210C210 206.866 206.866 210 203 210V226ZM106 226H203V210H106V226Z" fill="white" mask="url(#path-1-outside-1_114_25)"/>
</svg>
