<svg width="256" height="256" viewBox="0 0 256 256" fill="none" xmlns="http://www.w3.org/2000/svg">
<mask id="path-1-outside-1_139_43" maskUnits="userSpaceOnUse" x="61" y="6" width="134" height="245" fill="black">
<rect fill="white" x="61" y="6" width="134" height="245"/>
<path fill-rule="evenodd" clip-rule="evenodd" d="M127.905 14C132.047 14 135.405 17.3579 135.405 21.5V43.2109C142.731 43.6246 149.623 44.9077 156.08 47.06C164.221 49.5766 171.549 53.4254 178.062 58.6064C179.691 59.9387 180.801 61.493 181.393 63.2694C181.985 64.8977 182.059 66.5261 181.615 68.1544C181.171 69.6347 180.357 70.893 179.173 71.9292C178.136 72.9654 176.73 73.5575 174.954 73.7056C173.325 73.8536 171.475 73.2615 169.403 71.9292C163.481 67.4883 157.338 64.3056 150.973 62.3812C144.607 60.3088 137.576 59.2726 129.878 59.2726C122.033 59.2726 115.223 60.4568 109.45 62.8253C103.825 65.1938 99.3841 68.6725 96.1274 73.2615C93.0188 77.7024 91.4644 82.8834 91.4644 88.8047C91.4644 95.9101 93.6109 101.535 97.9038 105.68C102.345 109.825 109.524 112.86 119.442 114.784L142.535 119.669C157.486 122.778 168.514 127.515 175.62 133.88C182.873 140.097 186.5 148.609 186.5 159.415C186.5 165.929 185.168 171.924 182.503 177.401C179.839 182.878 175.99 187.615 170.957 191.612C165.924 195.461 159.855 198.421 152.749 200.494C147.46 202.036 141.678 203.005 135.405 203.399V234.911C135.405 239.053 132.047 242.411 127.905 242.411C123.762 242.411 120.405 239.053 120.405 234.911V203.312C116.33 203.027 112.309 202.532 108.34 201.826C101.679 200.642 95.4613 198.939 89.6881 196.719C84.0629 194.499 78.9558 191.686 74.3669 188.281C72.5905 186.949 71.3323 185.469 70.5921 183.84C70 182.064 69.852 180.362 70.148 178.733C70.5921 176.957 71.3323 175.477 72.3685 174.292C73.5527 173.108 74.959 172.442 76.5874 172.294C78.2157 172.146 79.9921 172.664 81.9165 173.848C88.5778 178.585 95.6833 182.064 103.233 184.284C110.782 186.357 119.294 187.393 128.768 187.393C142.091 187.393 151.935 184.951 158.3 180.066C164.814 175.032 168.07 168.445 168.07 160.303C168.07 153.642 165.702 148.461 160.965 144.76C156.376 140.911 148.604 137.877 137.65 135.656L114.557 130.993C100.642 128.033 90.2062 123.222 83.2487 116.56C76.4393 109.751 73.0346 100.721 73.0346 89.4708C73.0346 82.5134 74.4409 76.2221 77.2535 70.5969C80.0661 64.8237 83.9889 59.9387 89.0219 55.9419C94.055 51.797 100.05 48.6144 107.008 46.3939C111.204 45.0546 115.67 44.1193 120.405 43.5878L120.405 21.5C120.405 17.3579 123.762 14 127.905 14Z"/>
</mask>
<path d="M135.405 43.2109H127.405V50.7719L134.954 51.1982L135.405 43.2109ZM156.08 47.06L153.55 54.6495L153.633 54.6773L153.717 54.7033L156.08 47.06ZM178.062 58.6064L183.128 52.4148L183.086 52.3799L183.043 52.3456L178.062 58.6064ZM181.393 63.2694L173.804 65.7992L173.838 65.9018L173.875 66.0034L181.393 63.2694ZM181.615 68.1544L189.278 70.4532L189.307 70.3566L189.333 70.2593L181.615 68.1544ZM179.173 71.9292L173.905 65.9086L173.704 66.084L173.516 66.2723L179.173 71.9292ZM174.954 73.7056L174.289 65.7332L174.259 65.7357L174.229 65.7384L174.954 73.7056ZM169.403 71.9292L164.603 78.3292L164.834 78.5024L165.076 78.6586L169.403 71.9292ZM150.973 62.3812L148.496 69.9882L148.577 70.0144L148.658 70.0389L150.973 62.3812ZM109.45 62.8253L106.414 55.424L106.38 55.4379L106.346 55.4522L109.45 62.8253ZM96.1274 73.2615L89.6033 68.6315L89.5884 68.6526L89.5735 68.6738L96.1274 73.2615ZM97.9038 105.68L92.347 111.435L92.3957 111.482L92.4452 111.529L97.9038 105.68ZM119.442 114.784L121.098 106.957L121.032 106.943L120.966 106.931L119.442 114.784ZM142.535 119.669L140.879 127.496L140.893 127.499L140.906 127.502L142.535 119.669ZM175.62 133.88L170.282 139.839L170.347 139.897L170.413 139.954L175.62 133.88ZM182.503 177.401L175.309 173.901H175.309L182.503 177.401ZM170.957 191.612L175.816 197.967L175.875 197.922L175.932 197.877L170.957 191.612ZM152.749 200.494L150.509 192.814L152.749 200.494ZM135.405 203.399L134.903 195.415L127.405 195.886V203.399H135.405ZM120.405 203.312H128.405V195.853L120.963 195.332L120.405 203.312ZM108.34 201.826L109.74 193.95H109.74L108.34 201.826ZM89.6881 196.719L86.7507 204.16L86.7834 204.173L86.8162 204.186L89.6881 196.719ZM74.3669 188.281L69.5669 194.681L69.5835 194.694L69.6001 194.706L74.3669 188.281ZM70.5921 183.84L63.0027 186.37L63.1354 186.768L63.3092 187.151L70.5921 183.84ZM70.148 178.733L62.3869 176.793L62.3237 177.046L62.2771 177.302L70.148 178.733ZM72.3685 174.292L66.7116 168.635L66.5233 168.824L66.3479 169.024L72.3685 174.292ZM76.5874 172.294L75.8631 164.327H75.863L76.5874 172.294ZM81.9165 173.848L86.5526 167.329L86.3358 167.174L86.1093 167.035L81.9165 173.848ZM103.233 184.284L100.976 191.959L101.045 191.98L101.115 191.999L103.233 184.284ZM158.3 180.066L163.171 186.412L163.181 186.404L163.192 186.396L158.3 180.066ZM160.965 144.76L155.824 150.89L155.93 150.979L156.04 151.064L160.965 144.76ZM137.65 135.656L139.239 127.816L139.233 127.815L137.65 135.656ZM114.557 130.993L112.892 138.818L112.933 138.827L112.974 138.835L114.557 130.993ZM83.2487 116.56L77.5919 122.217L77.6534 122.279L77.7162 122.339L83.2487 116.56ZM77.2535 70.5969L84.4089 74.1746L84.4274 74.1377L84.4454 74.1007L77.2535 70.5969ZM89.0219 55.9419L93.997 62.2068L94.0527 62.1625L94.1076 62.1173L89.0219 55.9419ZM107.008 46.3939L104.575 38.7726L104.575 38.7726L107.008 46.3939ZM120.405 43.5878L121.297 51.5378L128.405 50.74V43.5878L120.405 43.5878ZM120.405 21.5L128.405 21.5V21.5H120.405ZM143.405 21.5C143.405 12.9396 136.465 6 127.905 6V22C127.628 22 127.405 21.7761 127.405 21.5H143.405ZM143.405 43.2109V21.5H127.405V43.2109H143.405ZM134.954 51.1982C141.627 51.5751 147.815 52.738 153.55 54.6495L158.61 39.4706C151.43 37.0774 143.835 35.6742 135.856 35.2236L134.954 51.1982ZM153.717 54.7033C160.931 56.933 167.367 60.3208 173.082 64.8672L183.043 52.3456C175.731 46.53 167.512 42.2201 158.442 39.4168L153.717 54.7033ZM172.996 64.7981C173.603 65.2947 173.747 65.6297 173.804 65.7992L188.982 60.7396C187.855 57.3564 185.778 54.5827 183.128 52.4148L172.996 64.7981ZM173.875 66.0034C173.894 66.0574 173.901 66.0869 173.902 66.0938C173.904 66.1003 173.902 66.0928 173.901 66.0751C173.9 66.0573 173.901 66.0409 173.902 66.0299C173.903 66.0192 173.904 66.0247 173.897 66.0495L189.333 70.2593C190.224 66.9915 190.052 63.6733 188.911 60.5354L173.875 66.0034ZM173.952 65.8556C173.945 65.879 173.941 65.8867 173.943 65.883C173.945 65.8791 173.949 65.8712 173.955 65.8623C173.96 65.8535 173.963 65.8512 173.959 65.8561C173.954 65.8614 173.938 65.8793 173.905 65.9086L184.441 77.9498C186.735 75.9419 188.393 73.402 189.278 70.4532L173.952 65.8556ZM173.516 66.2723C173.759 66.0285 174.026 65.866 174.236 65.7774C174.428 65.6967 174.476 65.7177 174.289 65.7332L175.618 81.6779C178.856 81.4081 182.182 80.2333 184.829 77.586L173.516 66.2723ZM174.229 65.7384C174.663 65.699 174.876 65.783 174.783 65.7531C174.673 65.7179 174.326 65.5839 173.729 65.1998L165.076 78.6586C167.924 80.4889 171.575 82.0457 175.678 81.6727L174.229 65.7384ZM174.203 65.5292C167.617 60.5901 160.644 56.9475 153.288 54.7235L148.658 70.0389C154.032 71.6637 159.346 74.3865 164.603 78.3292L174.203 65.5292ZM153.449 54.7742C146.175 52.4057 138.293 51.2726 129.878 51.2726V67.2726C136.859 67.2726 143.04 68.2118 148.496 69.9882L153.449 54.7742ZM129.878 51.2726C121.249 51.2726 113.364 52.5728 106.414 55.424L112.487 70.2267C117.083 68.3409 122.816 67.2726 129.878 67.2726V51.2726ZM106.346 55.4522C99.4681 58.348 93.795 62.7251 89.6033 68.6315L102.651 77.8914C104.973 74.6199 108.182 72.0396 112.555 70.1984L106.346 55.4522ZM89.5735 68.6738C85.4364 74.5839 83.4644 81.401 83.4644 88.8047H99.4644C99.4644 84.3659 100.601 80.8208 102.681 77.8492L89.5735 68.6738ZM83.4644 88.8047C83.4644 97.6339 86.1982 105.499 92.347 111.435L103.461 99.9249C101.024 97.572 99.4644 94.1864 99.4644 88.8047H83.4644ZM92.4452 111.529C98.4903 117.171 107.4 120.597 117.918 122.638L120.966 106.931C111.648 105.123 106.199 102.479 103.362 99.8317L92.4452 111.529ZM117.787 122.611L140.879 127.496L144.191 111.842L121.098 106.957L117.787 122.611ZM140.906 127.502C155.226 130.479 164.678 134.818 170.282 139.839L180.958 127.921C172.351 120.211 159.747 115.077 144.164 111.837L140.906 127.502ZM170.413 139.954C175.649 144.442 178.5 150.602 178.5 159.415H194.5C194.5 146.616 190.097 135.753 180.826 127.806L170.413 139.954ZM178.5 159.415C178.5 164.802 177.407 169.589 175.309 173.901L189.697 180.901C192.928 174.258 194.5 167.055 194.5 159.415H178.5ZM175.309 173.901C173.197 178.243 170.131 182.052 165.982 185.347L175.932 197.877C181.849 193.178 186.48 187.513 189.697 180.901L175.309 173.901ZM166.097 185.257C161.968 188.415 156.824 190.972 150.509 192.814L154.989 208.174C162.885 205.871 169.879 202.507 175.816 197.967L166.097 185.257ZM150.509 192.814C145.859 194.17 140.668 195.053 134.903 195.415L135.906 211.384C142.688 210.957 149.061 209.903 154.989 208.174L150.509 192.814ZM143.405 234.911V203.399H127.405V234.911H143.405ZM127.905 250.411C136.465 250.411 143.405 243.471 143.405 234.911H127.405C127.405 234.635 127.628 234.411 127.905 234.411V250.411ZM112.405 234.911C112.405 243.471 119.344 250.411 127.905 250.411V234.411C128.181 234.411 128.405 234.635 128.405 234.911H112.405ZM112.405 203.312V234.911H128.405V203.312H112.405ZM120.963 195.332C117.168 195.066 113.427 194.605 109.74 193.95L106.94 209.703C111.191 210.458 115.493 210.988 119.846 211.293L120.963 195.332ZM109.74 193.95C103.535 192.846 97.8148 191.273 92.5599 189.252L86.8162 204.186C93.1078 206.606 99.8222 208.437 106.94 209.703L109.74 193.95ZM92.6254 189.278C87.614 187.3 83.1281 184.82 79.1337 181.856L69.6001 194.706C74.7836 198.552 80.5119 201.697 86.7507 204.16L92.6254 189.278ZM79.1669 181.881C78.2087 181.163 77.9412 180.675 77.8751 180.53L63.3092 187.151C64.7234 190.262 66.9724 192.735 69.5669 194.681L79.1669 181.881ZM78.1816 181.31C77.958 180.64 77.9936 180.304 78.019 180.164L62.2771 177.302C61.7103 180.419 62.042 183.488 63.0027 186.37L78.1816 181.31ZM77.9092 180.674C78.0958 179.927 78.3158 179.644 78.3891 179.56L66.3479 169.024C64.3487 171.309 63.0885 173.987 62.3869 176.793L77.9092 180.674ZM78.0254 179.949C78.0259 179.949 78.001 179.973 77.9482 180.011C77.8946 180.049 77.8232 180.093 77.7361 180.134C77.5469 180.224 77.3859 180.254 77.3117 180.261L75.863 164.327C72.3222 164.649 69.1842 166.163 66.7116 168.635L78.0254 179.949ZM77.3116 180.261C77.0058 180.289 76.8484 180.236 76.9009 180.251C76.9706 180.272 77.2416 180.365 77.7237 180.662L86.1093 167.035C83.2643 165.284 79.7607 163.972 75.8631 164.327L77.3116 180.261ZM77.2803 180.368C84.6367 185.599 92.5417 189.479 100.976 191.959L105.49 176.609C98.8249 174.649 92.519 171.571 86.5526 167.329L77.2803 180.368ZM101.115 191.999C109.481 194.296 118.723 195.393 128.768 195.393V179.393C119.865 179.393 112.084 178.418 105.351 176.57L101.115 191.999ZM128.768 195.393C142.789 195.393 154.751 192.874 163.171 186.412L153.43 173.719C149.119 177.027 141.393 179.393 128.768 179.393V195.393ZM163.192 186.396C171.64 179.867 176.07 170.955 176.07 160.303H160.07C160.07 165.936 157.987 170.198 153.409 173.735L163.192 186.396ZM176.07 160.303C176.07 151.484 172.796 143.851 165.89 138.456L156.04 151.064C158.608 153.071 160.07 155.8 160.07 160.303H176.07ZM166.106 138.631C159.946 133.464 150.551 130.109 139.239 127.816L136.061 143.497C146.658 145.645 152.806 148.359 155.824 150.89L166.106 138.631ZM139.233 127.815L116.141 123.152L112.974 138.835L136.067 143.498L139.233 127.815ZM116.222 123.169C103.112 120.379 94.269 116.036 88.7813 110.782L77.7162 122.339C86.1434 130.407 98.1731 135.686 112.892 138.818L116.222 123.169ZM88.9056 110.904C83.8486 105.847 81.0346 98.9847 81.0346 89.4708H65.0346C65.0346 102.458 69.0301 113.655 77.5919 122.217L88.9056 110.904ZM81.0346 89.4708C81.0346 83.6215 82.2087 78.5751 84.4089 74.1746L70.0981 67.0192C66.6732 73.869 65.0346 81.4052 65.0346 89.4708H81.0346ZM84.4454 74.1007C86.7341 69.4028 89.8991 65.461 93.997 62.2068L84.0469 49.677C78.0787 54.4164 73.398 60.2447 70.0616 67.0932L84.4454 74.1007ZM94.1076 62.1173C98.2673 58.6917 103.335 55.9636 109.44 54.0152L104.575 38.7726C96.7655 41.2651 89.8426 44.9024 83.9363 49.7664L94.1076 62.1173ZM109.44 54.0152C113.096 52.8483 117.043 52.0154 121.297 51.5378L119.512 35.6377C114.297 36.2231 109.312 37.261 104.575 38.7726L109.44 54.0152ZM112.405 21.5L112.405 43.5878L128.405 43.5878L128.405 21.5L112.405 21.5ZM127.905 6C119.344 6 112.405 12.9396 112.405 21.5H128.405C128.405 21.7761 128.181 22 127.905 22V6Z" fill="white" mask="url(#path-1-outside-1_139_43)"/>
</svg>
