<svg width="256" height="256" viewBox="0 0 256 256" fill="none" xmlns="http://www.w3.org/2000/svg">
<mask id="path-1-outside-1_234_115" maskUnits="userSpaceOnUse" x="61" y="1" width="135" height="255" fill="black">
<rect fill="white" x="61" y="1" width="135" height="255"/>
<path fill-rule="evenodd" clip-rule="evenodd" d="M127.875 5C132.017 5 135.375 8.35786 135.375 12.5V36.0416C143.571 36.4507 151.268 37.8553 158.469 40.2554C167.309 42.9879 175.266 47.1671 182.338 52.7929C184.106 54.2395 185.312 55.9272 185.955 57.8561C186.598 59.6242 186.678 61.3923 186.196 63.1604C185.714 64.7678 184.829 66.1341 183.544 67.2592C182.418 68.3844 180.891 69.0273 178.963 69.1881C177.194 69.3488 175.185 68.7058 172.935 67.2592C166.505 62.4371 159.835 58.9813 152.923 56.8917C146.011 54.6414 138.376 53.5162 130.018 53.5162C121.499 53.5162 114.105 54.8021 107.836 57.3739C101.728 59.9457 96.9063 63.723 93.3701 68.7059C89.9946 73.528 88.3069 79.1538 88.3069 85.5832C88.3069 93.2986 90.6376 99.4066 95.2989 103.907C100.121 108.408 107.917 111.703 118.686 113.793L143.761 119.097C159.996 122.472 171.971 127.616 179.686 134.528C187.562 141.279 191.5 150.521 191.5 162.255C191.5 169.327 190.053 175.837 187.16 181.784C184.267 187.732 180.088 192.875 174.623 197.215C169.158 201.394 162.567 204.609 154.852 206.859C148.928 208.587 142.436 209.652 135.375 210.053V244.229C135.375 248.371 132.017 251.729 127.875 251.729C123.733 251.729 120.375 248.371 120.375 244.229L120.375 209.963C115.731 209.662 111.149 209.109 106.631 208.306C99.3977 207.02 92.6468 205.172 86.378 202.761C80.27 200.35 74.7246 197.296 69.7417 193.599C67.8129 192.152 66.4466 190.545 65.6429 188.776C65 186.848 64.8393 184.999 65.1607 183.231C65.6429 181.302 66.4466 179.695 67.5718 178.409C68.8577 177.123 70.3847 176.4 72.1528 176.239C73.9209 176.078 75.8498 176.641 77.9393 177.927C85.1725 183.07 92.8879 186.848 101.085 189.259C109.283 191.509 118.525 192.634 128.813 192.634C143.279 192.634 153.968 189.982 160.88 184.678C167.952 179.213 171.488 172.06 171.488 163.219C171.488 155.986 168.916 150.36 163.773 146.342C158.79 142.163 150.351 138.868 138.457 136.457L113.382 131.393C98.2726 128.179 86.9406 122.955 79.386 115.721C71.9921 108.328 68.2951 98.5226 68.2951 86.3066C68.2951 78.7519 69.8221 71.9206 72.8761 65.8126C75.9301 59.5438 80.1897 54.2395 85.6547 49.8996C91.1198 45.399 97.6296 41.9431 105.184 39.5321C109.931 38.0173 114.994 36.9784 120.375 36.4153L120.375 12.5C120.375 8.35786 123.733 5 127.875 5Z"/>
</mask>
<path d="M135.375 36.0416H131.375V39.8469L135.175 40.0366L135.375 36.0416ZM158.469 40.2554L157.204 44.0501L157.245 44.064L157.287 44.077L158.469 40.2554ZM182.338 52.7929L184.871 49.697L184.85 49.6796L184.828 49.6625L182.338 52.7929ZM185.955 57.8561L182.16 59.121L182.177 59.1723L182.195 59.2231L185.955 57.8561ZM186.196 63.1604L190.027 64.3098L190.042 64.2615L190.055 64.2129L186.196 63.1604ZM183.544 67.2592L180.91 64.2489L180.809 64.3366L180.715 64.4308L183.544 67.2592ZM178.963 69.1881L178.63 65.2019L178.615 65.2031L178.6 65.2045L178.963 69.1881ZM172.935 67.2592L170.535 70.4592L170.65 70.5458L170.772 70.6239L172.935 67.2592ZM152.923 56.8917L151.685 60.6952L151.725 60.7083L151.766 60.7205L152.923 56.8917ZM107.836 57.3739L106.318 53.6732L106.301 53.6802L106.284 53.6874L107.836 57.3739ZM93.3701 68.7059L90.1081 66.3909L90.1006 66.4014L90.0932 66.412L93.3701 68.7059ZM95.2989 103.907L92.5206 106.785L92.5449 106.808L92.5697 106.831L95.2989 103.907ZM118.686 113.793L119.514 109.879L119.481 109.872L119.448 109.866L118.686 113.793ZM143.761 119.097L142.933 123.01L142.947 123.013L143.761 119.097ZM179.686 134.528L177.017 137.507L177.049 137.536L177.083 137.565L179.686 134.528ZM187.16 181.784L190.757 183.534L187.16 181.784ZM174.623 197.215L177.052 200.393L177.082 200.37L177.11 200.348L174.623 197.215ZM154.852 206.859L155.972 210.699H155.972L154.852 206.859ZM135.375 210.053L135.148 206.059L131.375 206.274V210.053H135.375ZM120.375 244.229H116.375H120.375ZM120.375 209.963H124.375V206.214L120.634 205.972L120.375 209.963ZM106.631 208.306L107.331 204.368H107.331L106.631 208.306ZM86.378 202.761L84.9094 206.481L84.9257 206.488L84.9421 206.494L86.378 202.761ZM69.7417 193.599L67.3418 196.799L67.35 196.805L67.3584 196.811L69.7417 193.599ZM65.6429 188.776L61.8482 190.041L61.9146 190.241L62.0015 190.432L65.6429 188.776ZM65.1607 183.231L61.2802 182.261L61.2486 182.387L61.2253 182.515L65.1607 183.231ZM67.5718 178.409L64.7434 175.58L64.6492 175.675L64.5615 175.775L67.5718 178.409ZM72.1528 176.239L72.5149 180.223L72.1528 176.239ZM77.9393 177.927L80.2574 174.667L80.149 174.59L80.0357 174.52L77.9393 177.927ZM101.085 189.259L99.9568 193.096L99.9916 193.106L100.027 193.116L101.085 189.259ZM160.88 184.678L163.315 187.851L163.325 187.843L160.88 184.678ZM163.773 146.342L161.202 149.407L161.256 149.451L161.31 149.494L163.773 146.342ZM138.457 136.457L139.251 132.536L139.249 132.536L138.457 136.457ZM113.382 131.393L112.549 135.306L112.57 135.31L112.59 135.314L113.382 131.393ZM79.386 115.721L76.5575 118.55L76.5883 118.581L76.6197 118.611L79.386 115.721ZM72.8761 65.8126L76.4538 67.6014L76.463 67.583L76.4721 67.5645L72.8761 65.8126ZM85.6547 49.8996L88.1422 53.0321L88.1701 53.0099L88.1975 52.9873L85.6547 49.8996ZM105.184 39.5321L103.968 35.7214L103.968 35.7214L105.184 39.5321ZM120.375 36.4153L120.791 40.3935L124.375 40.0185V36.4153H120.375ZM120.375 12.5L124.375 12.5V12.5H120.375ZM139.375 12.5C139.375 6.14873 134.226 1 127.875 1V9C129.808 9 131.375 10.567 131.375 12.5H139.375ZM139.375 36.0416V12.5H131.375V36.0416H139.375ZM135.175 40.0366C143.038 40.4291 150.375 41.7738 157.204 44.0501L159.734 36.4607C152.162 33.9369 144.103 32.4724 135.574 32.0466L135.175 40.0366ZM157.287 44.077C165.664 46.6661 173.174 50.6148 179.848 55.9233L184.828 49.6625C177.357 43.7194 168.954 39.3097 159.65 36.4338L157.287 44.077ZM179.805 55.8887C181.062 56.9175 181.785 57.9956 182.16 59.121L189.749 56.5912C188.839 53.8589 187.15 51.5615 184.871 49.697L179.805 55.8887ZM182.195 59.2231C182.564 60.2364 182.595 61.1596 182.337 62.108L190.055 64.2129C190.761 61.625 190.631 59.012 189.714 56.4891L182.195 59.2231ZM182.364 62.011C182.103 62.8841 181.64 63.6096 180.91 64.2489L186.178 70.2695C188.019 68.6585 189.325 66.6515 190.027 64.3098L182.364 62.011ZM180.715 64.4308C180.396 64.7504 179.829 65.102 178.63 65.2019L179.295 73.1742C181.954 72.9526 184.441 72.0183 186.372 70.0876L180.715 64.4308ZM178.6 65.2045C178.069 65.2528 176.961 65.0921 175.098 63.8945L170.772 70.6239C173.41 72.3196 176.32 73.4448 179.325 73.1716L178.6 65.2045ZM175.335 64.0592C168.573 58.988 161.488 55.3022 154.081 53.0628L151.766 60.7205C158.182 62.6603 164.438 65.8862 170.535 70.4592L175.335 64.0592ZM154.162 53.0882C146.795 50.6898 138.735 49.5162 130.018 49.5162V57.5162C138.018 57.5162 145.228 58.5929 151.685 60.6952L154.162 53.0882ZM130.018 49.5162C121.107 49.5162 113.175 50.8601 106.318 53.6732L109.355 61.0746C115.035 58.7441 121.891 57.5162 130.018 57.5162V49.5162ZM106.284 53.6874C99.55 56.5228 94.1118 60.7493 90.1081 66.3909L96.6321 71.0208C99.7009 66.6967 103.907 63.3686 109.389 61.0604L106.284 53.6874ZM90.0932 66.412C86.2034 71.9687 84.3069 78.4126 84.3069 85.5832H92.3069C92.3069 79.895 93.7858 75.0872 96.647 70.9997L90.0932 66.412ZM84.3069 85.5832C84.3069 94.1605 86.9312 101.388 92.5206 106.785L98.0773 101.03C94.3439 97.425 92.3069 92.4367 92.3069 85.5832H84.3069ZM92.5697 106.831C98.1939 112.081 106.855 115.572 117.924 117.719L119.448 109.866C108.979 107.834 102.048 104.735 98.0282 100.983L92.5697 106.831ZM117.858 117.706L142.933 123.01L144.589 115.184L119.514 109.879L117.858 117.706ZM142.947 123.013C158.865 126.323 170.052 131.268 177.017 137.507L182.355 131.548C173.889 123.964 161.126 118.622 144.575 115.181L142.947 123.013ZM177.083 137.565C183.95 143.451 187.5 151.518 187.5 162.255H195.5C195.5 149.524 191.174 139.106 182.289 131.491L177.083 137.565ZM187.5 162.255C187.5 168.764 186.173 174.67 183.563 180.035L190.757 183.534C193.934 177.004 195.5 169.891 195.5 162.255H187.5ZM183.563 180.035C180.946 185.414 177.158 190.094 172.135 194.083L177.11 200.348C183.017 195.657 187.588 190.049 190.757 183.534L183.563 180.035ZM172.193 194.038C167.18 197.871 161.052 200.884 153.732 203.019L155.972 210.699C164.083 208.334 171.135 204.917 177.052 200.393L172.193 194.038ZM153.732 203.019C148.138 204.651 141.949 205.673 135.148 206.059L135.602 214.046C142.922 213.63 149.719 212.523 155.972 210.699L153.732 203.019ZM139.375 244.229V210.053H131.375V244.229H139.375ZM127.875 255.729C134.226 255.729 139.375 250.581 139.375 244.229H131.375C131.375 246.162 129.808 247.729 127.875 247.729V255.729ZM116.375 244.229C116.375 250.581 121.524 255.729 127.875 255.729V247.729C125.942 247.729 124.375 246.162 124.375 244.229H116.375ZM116.375 209.963L116.375 244.229H124.375L124.375 209.963H116.375ZM120.634 205.972C116.136 205.68 111.702 205.145 107.331 204.368L105.931 212.244C110.597 213.074 115.326 213.644 120.116 213.955L120.634 205.972ZM107.331 204.368C100.326 203.122 93.8235 201.339 87.8139 199.027L84.9421 206.494C91.47 209.005 98.4695 210.918 105.931 212.244L107.331 204.368ZM87.8467 199.04C82.0455 196.75 76.8107 193.863 72.1251 190.386L67.3584 196.811C72.6385 200.728 78.4945 203.949 84.9094 206.481L87.8467 199.04ZM72.1417 190.399C70.622 189.259 69.7511 188.148 69.2844 187.121L62.0015 190.432C63.1422 192.941 65.0038 195.045 67.3418 196.799L72.1417 190.399ZM69.4377 187.512C68.979 186.136 68.9101 184.97 69.0962 183.947L61.2253 182.515C60.7684 185.028 61.021 187.56 61.8482 190.041L69.4377 187.512ZM69.0413 184.201C69.3948 182.787 69.9384 181.779 70.5821 181.043L64.5615 175.775C62.9549 177.611 61.8911 179.817 61.2802 182.261L69.0413 184.201ZM70.4002 181.237C71.042 180.596 71.7031 180.296 72.5149 180.223L71.7907 172.255C69.0663 172.503 66.6734 173.65 64.7434 175.58L70.4002 181.237ZM72.5149 180.223C73.1484 180.165 74.2136 180.331 75.843 181.333L80.0357 174.52C77.4859 172.951 74.6934 171.991 71.7907 172.255L72.5149 180.223ZM75.6212 181.187C83.2019 186.577 91.3171 190.555 99.9568 193.096L102.214 185.421C94.4587 183.14 87.1431 179.563 80.2574 174.667L75.6212 181.187ZM100.027 193.116C108.633 195.478 118.24 196.634 128.813 196.634V188.634C118.811 188.634 109.934 187.54 102.144 185.401L100.027 193.116ZM128.813 196.634C143.628 196.634 155.376 193.944 163.315 187.851L158.444 181.504C152.56 186.02 142.93 188.634 128.813 188.634V196.634ZM163.325 187.843C171.365 181.63 175.488 173.315 175.488 163.219H167.488C167.488 170.805 164.539 176.795 158.434 181.512L163.325 187.843ZM175.488 163.219C175.488 154.907 172.463 148.055 166.235 143.19L161.31 149.494C165.37 152.665 167.488 157.065 167.488 163.219H175.488ZM166.343 143.277C160.575 138.439 151.325 134.984 139.251 132.536L137.662 140.377C149.378 142.752 157.005 145.886 161.202 149.407L166.343 143.277ZM139.249 132.536L114.174 127.472L112.59 135.314L137.665 140.377L139.249 132.536ZM114.214 127.481C99.5072 124.352 88.972 119.362 82.1523 112.832L76.6197 118.611C84.9092 126.547 97.038 132.005 112.549 135.306L114.214 127.481ZM82.2144 112.893C75.6967 106.375 72.2951 97.6544 72.2951 86.3066H64.2951C64.2951 99.3908 68.2874 110.28 76.5575 118.55L82.2144 112.893ZM72.2951 86.3066C72.2951 79.306 73.706 73.0971 76.4538 67.6014L69.2984 64.0237C65.9382 70.744 64.2951 78.1978 64.2951 86.3066H72.2951ZM76.4721 67.5645C79.2641 61.8334 83.1448 57.0007 88.1422 53.0321L83.1672 46.7672C77.2345 51.4784 72.5961 57.2543 69.2802 64.0607L76.4721 67.5645ZM88.1975 52.9873C93.2259 48.8463 99.2719 45.6178 106.4 43.3427L103.968 35.7214C95.9873 38.2685 89.0136 41.9517 83.1119 46.8119L88.1975 52.9873ZM106.4 43.3427C110.865 41.9177 115.659 40.9306 120.791 40.3935L119.959 32.437C114.329 33.0261 108.996 34.1169 103.968 35.7214L106.4 43.3427ZM116.375 12.5L116.375 36.4153H124.375L124.375 12.5L116.375 12.5ZM127.875 1C121.524 1 116.375 6.14872 116.375 12.5H124.375C124.375 10.567 125.942 9 127.875 9V1Z" fill="white" mask="url(#path-1-outside-1_234_115)"/>
<mask id="path-3-inside-2_234_115" fill="white">
<path fill-rule="evenodd" clip-rule="evenodd" d="M127.875 5C132.017 5 135.375 8.35786 135.375 12.5V36.0416C143.571 36.4507 151.268 37.8553 158.469 40.2554C167.309 42.9879 175.266 47.1671 182.338 52.7929C184.106 54.2395 185.312 55.9272 185.955 57.8561C186.598 59.6242 186.678 61.3923 186.196 63.1604C185.714 64.7678 184.829 66.1341 183.544 67.2592C182.418 68.3844 180.891 69.0273 178.963 69.1881C177.194 69.3488 175.185 68.7058 172.935 67.2592C166.505 62.4371 159.835 58.9813 152.923 56.8917C146.011 54.6414 138.376 53.5162 130.018 53.5162C121.499 53.5162 114.105 54.8021 107.836 57.3739C101.728 59.9457 96.9063 63.723 93.3701 68.7059C89.9946 73.528 88.3069 79.1538 88.3069 85.5832C88.3069 93.2986 90.6376 99.4066 95.2989 103.907C100.121 108.408 107.917 111.703 118.686 113.793L143.761 119.097C159.996 122.472 171.971 127.616 179.686 134.528C187.562 141.279 191.5 150.521 191.5 162.255C191.5 169.327 190.053 175.837 187.16 181.784C184.267 187.732 180.088 192.875 174.623 197.215C169.158 201.394 162.567 204.609 154.852 206.859C148.928 208.587 142.436 209.652 135.375 210.053V244.229C135.375 248.371 132.017 251.729 127.875 251.729C123.733 251.729 120.375 248.371 120.375 244.229L120.375 209.963C115.731 209.662 111.149 209.109 106.631 208.306C99.3977 207.02 92.6468 205.172 86.378 202.761C80.27 200.35 74.7246 197.296 69.7417 193.599C67.8129 192.152 66.4466 190.545 65.6429 188.776C65 186.848 64.8393 184.999 65.1607 183.231C65.6429 181.302 66.4466 179.695 67.5718 178.409C68.8577 177.123 70.3847 176.4 72.1528 176.239C73.9209 176.078 75.8498 176.641 77.9393 177.927C85.1725 183.07 92.8879 186.848 101.085 189.259C109.283 191.509 118.525 192.634 128.813 192.634C143.279 192.634 153.968 189.982 160.88 184.678C167.952 179.213 171.488 172.06 171.488 163.219C171.488 155.986 168.916 150.36 163.773 146.342C158.79 142.163 150.351 138.868 138.457 136.457L113.382 131.393C98.2726 128.179 86.9406 122.955 79.386 115.721C71.9921 108.328 68.2951 98.5226 68.2951 86.3066C68.2951 78.7519 69.8221 71.9206 72.8761 65.8126C75.9301 59.5438 80.1897 54.2395 85.6547 49.8996C91.1198 45.399 97.6296 41.9431 105.184 39.5321C109.931 38.0173 114.994 36.9784 120.375 36.4153L120.375 12.5C120.375 8.35786 123.733 5 127.875 5Z"/>
</mask>
<path d="M135.375 36.0416H131.375V39.8469L135.175 40.0366L135.375 36.0416ZM158.469 40.2554L157.204 44.0501L157.245 44.064L157.287 44.077L158.469 40.2554ZM182.338 52.7929L184.871 49.697L184.85 49.6796L184.828 49.6625L182.338 52.7929ZM185.955 57.8561L182.16 59.121L182.177 59.1723L182.195 59.2231L185.955 57.8561ZM186.196 63.1604L190.027 64.3098L190.042 64.2615L190.055 64.2129L186.196 63.1604ZM183.544 67.2592L180.91 64.2489L180.809 64.3366L180.715 64.4308L183.544 67.2592ZM178.963 69.1881L178.63 65.2019L178.615 65.2031L178.6 65.2045L178.963 69.1881ZM172.935 67.2592L170.535 70.4592L170.65 70.5458L170.772 70.6239L172.935 67.2592ZM152.923 56.8917L151.685 60.6952L151.725 60.7083L151.766 60.7205L152.923 56.8917ZM107.836 57.3739L106.318 53.6732L106.301 53.6802L106.284 53.6874L107.836 57.3739ZM93.3701 68.7059L90.1081 66.3909L90.1006 66.4014L90.0932 66.412L93.3701 68.7059ZM95.2989 103.907L92.5206 106.785L92.5449 106.808L92.5697 106.831L95.2989 103.907ZM118.686 113.793L119.514 109.879L119.481 109.872L119.448 109.866L118.686 113.793ZM143.761 119.097L142.933 123.01L142.947 123.013L143.761 119.097ZM179.686 134.528L177.017 137.507L177.049 137.536L177.083 137.565L179.686 134.528ZM187.16 181.784L190.757 183.534L187.16 181.784ZM174.623 197.215L177.052 200.393L177.082 200.37L177.11 200.348L174.623 197.215ZM154.852 206.859L155.972 210.699H155.972L154.852 206.859ZM135.375 210.053L135.148 206.059L131.375 206.274V210.053H135.375ZM120.375 244.229H116.375H120.375ZM120.375 209.963H124.375V206.214L120.634 205.972L120.375 209.963ZM106.631 208.306L107.331 204.368H107.331L106.631 208.306ZM86.378 202.761L84.9094 206.481L84.9257 206.488L84.9421 206.494L86.378 202.761ZM69.7417 193.599L67.3418 196.799L67.35 196.805L67.3584 196.811L69.7417 193.599ZM65.6429 188.776L61.8482 190.041L61.9146 190.241L62.0015 190.432L65.6429 188.776ZM65.1607 183.231L61.2802 182.261L61.2486 182.387L61.2253 182.515L65.1607 183.231ZM67.5718 178.409L64.7434 175.58L64.6492 175.675L64.5615 175.775L67.5718 178.409ZM72.1528 176.239L72.5149 180.223L72.1528 176.239ZM77.9393 177.927L80.2574 174.667L80.149 174.59L80.0357 174.52L77.9393 177.927ZM101.085 189.259L99.9568 193.096L99.9916 193.106L100.027 193.116L101.085 189.259ZM160.88 184.678L163.315 187.851L163.325 187.843L160.88 184.678ZM163.773 146.342L161.202 149.407L161.256 149.451L161.31 149.494L163.773 146.342ZM138.457 136.457L139.251 132.536L139.249 132.536L138.457 136.457ZM113.382 131.393L112.549 135.306L112.57 135.31L112.59 135.314L113.382 131.393ZM79.386 115.721L76.5575 118.55L76.5883 118.581L76.6197 118.611L79.386 115.721ZM72.8761 65.8126L76.4538 67.6014L76.463 67.583L76.4721 67.5645L72.8761 65.8126ZM85.6547 49.8996L88.1422 53.0321L88.1701 53.0099L88.1975 52.9873L85.6547 49.8996ZM105.184 39.5321L103.968 35.7214L103.968 35.7214L105.184 39.5321ZM120.375 36.4153L120.791 40.3935L124.375 40.0185V36.4153H120.375ZM120.375 12.5L124.375 12.5V12.5H120.375ZM139.375 12.5C139.375 6.14873 134.226 1 127.875 1V9C129.808 9 131.375 10.567 131.375 12.5H139.375ZM139.375 36.0416V12.5H131.375V36.0416H139.375ZM135.175 40.0366C143.038 40.4291 150.375 41.7738 157.204 44.0501L159.734 36.4607C152.162 33.9369 144.103 32.4724 135.574 32.0466L135.175 40.0366ZM157.287 44.077C165.664 46.6661 173.174 50.6148 179.848 55.9233L184.828 49.6625C177.357 43.7194 168.954 39.3097 159.65 36.4338L157.287 44.077ZM179.805 55.8887C181.062 56.9175 181.785 57.9956 182.16 59.121L189.749 56.5912C188.839 53.8589 187.15 51.5615 184.871 49.697L179.805 55.8887ZM182.195 59.2231C182.564 60.2364 182.595 61.1596 182.337 62.108L190.055 64.2129C190.761 61.625 190.631 59.012 189.714 56.4891L182.195 59.2231ZM182.364 62.011C182.103 62.8841 181.64 63.6096 180.91 64.2489L186.178 70.2695C188.019 68.6585 189.325 66.6515 190.027 64.3098L182.364 62.011ZM180.715 64.4308C180.396 64.7504 179.829 65.102 178.63 65.2019L179.295 73.1742C181.954 72.9526 184.441 72.0183 186.372 70.0876L180.715 64.4308ZM178.6 65.2045C178.069 65.2528 176.961 65.0921 175.098 63.8945L170.772 70.6239C173.41 72.3196 176.32 73.4448 179.325 73.1716L178.6 65.2045ZM175.335 64.0592C168.573 58.988 161.488 55.3022 154.081 53.0628L151.766 60.7205C158.182 62.6603 164.438 65.8862 170.535 70.4592L175.335 64.0592ZM154.162 53.0882C146.795 50.6898 138.735 49.5162 130.018 49.5162V57.5162C138.018 57.5162 145.228 58.5929 151.685 60.6952L154.162 53.0882ZM130.018 49.5162C121.107 49.5162 113.175 50.8601 106.318 53.6732L109.355 61.0746C115.035 58.7441 121.891 57.5162 130.018 57.5162V49.5162ZM106.284 53.6874C99.55 56.5228 94.1118 60.7493 90.1081 66.3909L96.6321 71.0208C99.7009 66.6967 103.907 63.3686 109.389 61.0604L106.284 53.6874ZM90.0932 66.412C86.2034 71.9687 84.3069 78.4126 84.3069 85.5832H92.3069C92.3069 79.895 93.7858 75.0872 96.647 70.9997L90.0932 66.412ZM84.3069 85.5832C84.3069 94.1605 86.9312 101.388 92.5206 106.785L98.0773 101.03C94.3439 97.425 92.3069 92.4367 92.3069 85.5832H84.3069ZM92.5697 106.831C98.1939 112.081 106.855 115.572 117.924 117.719L119.448 109.866C108.979 107.834 102.048 104.735 98.0282 100.983L92.5697 106.831ZM117.858 117.706L142.933 123.01L144.589 115.184L119.514 109.879L117.858 117.706ZM142.947 123.013C158.865 126.323 170.052 131.268 177.017 137.507L182.355 131.548C173.889 123.964 161.126 118.622 144.575 115.181L142.947 123.013ZM177.083 137.565C183.95 143.451 187.5 151.518 187.5 162.255H195.5C195.5 149.524 191.174 139.106 182.289 131.491L177.083 137.565ZM187.5 162.255C187.5 168.764 186.173 174.67 183.563 180.035L190.757 183.534C193.934 177.004 195.5 169.891 195.5 162.255H187.5ZM183.563 180.035C180.946 185.414 177.158 190.094 172.135 194.083L177.11 200.348C183.017 195.657 187.588 190.049 190.757 183.534L183.563 180.035ZM172.193 194.038C167.18 197.871 161.052 200.884 153.732 203.019L155.972 210.699C164.083 208.334 171.135 204.917 177.052 200.393L172.193 194.038ZM153.732 203.019C148.138 204.651 141.949 205.673 135.148 206.059L135.602 214.046C142.922 213.63 149.719 212.523 155.972 210.699L153.732 203.019ZM139.375 244.229V210.053H131.375V244.229H139.375ZM127.875 255.729C134.226 255.729 139.375 250.581 139.375 244.229H131.375C131.375 246.162 129.808 247.729 127.875 247.729V255.729ZM116.375 244.229C116.375 250.581 121.524 255.729 127.875 255.729V247.729C125.942 247.729 124.375 246.162 124.375 244.229H116.375ZM116.375 209.963L116.375 244.229H124.375L124.375 209.963H116.375ZM120.634 205.972C116.136 205.68 111.702 205.145 107.331 204.368L105.931 212.244C110.597 213.074 115.326 213.644 120.116 213.955L120.634 205.972ZM107.331 204.368C100.326 203.122 93.8235 201.339 87.8139 199.027L84.9421 206.494C91.47 209.005 98.4695 210.918 105.931 212.244L107.331 204.368ZM87.8467 199.04C82.0455 196.75 76.8107 193.863 72.1251 190.386L67.3584 196.811C72.6385 200.728 78.4945 203.949 84.9094 206.481L87.8467 199.04ZM72.1417 190.399C70.622 189.259 69.7511 188.148 69.2844 187.121L62.0015 190.432C63.1422 192.941 65.0038 195.045 67.3418 196.799L72.1417 190.399ZM69.4377 187.512C68.979 186.136 68.9101 184.97 69.0962 183.947L61.2253 182.515C60.7684 185.028 61.021 187.56 61.8482 190.041L69.4377 187.512ZM69.0413 184.201C69.3948 182.787 69.9384 181.779 70.5821 181.043L64.5615 175.775C62.9549 177.611 61.8911 179.817 61.2802 182.261L69.0413 184.201ZM70.4002 181.237C71.042 180.596 71.7031 180.296 72.5149 180.223L71.7907 172.255C69.0663 172.503 66.6734 173.65 64.7434 175.58L70.4002 181.237ZM72.5149 180.223C73.1484 180.165 74.2136 180.331 75.843 181.333L80.0357 174.52C77.4859 172.951 74.6934 171.991 71.7907 172.255L72.5149 180.223ZM75.6212 181.187C83.2019 186.577 91.3171 190.555 99.9568 193.096L102.214 185.421C94.4587 183.14 87.1431 179.563 80.2574 174.667L75.6212 181.187ZM100.027 193.116C108.633 195.478 118.24 196.634 128.813 196.634V188.634C118.811 188.634 109.934 187.54 102.144 185.401L100.027 193.116ZM128.813 196.634C143.628 196.634 155.376 193.944 163.315 187.851L158.444 181.504C152.56 186.02 142.93 188.634 128.813 188.634V196.634ZM163.325 187.843C171.365 181.63 175.488 173.315 175.488 163.219H167.488C167.488 170.805 164.539 176.795 158.434 181.512L163.325 187.843ZM175.488 163.219C175.488 154.907 172.463 148.055 166.235 143.19L161.31 149.494C165.37 152.665 167.488 157.065 167.488 163.219H175.488ZM166.343 143.277C160.575 138.439 151.325 134.984 139.251 132.536L137.662 140.377C149.378 142.752 157.005 145.886 161.202 149.407L166.343 143.277ZM139.249 132.536L114.174 127.472L112.59 135.314L137.665 140.377L139.249 132.536ZM114.214 127.481C99.5072 124.352 88.972 119.362 82.1523 112.832L76.6197 118.611C84.9092 126.547 97.038 132.005 112.549 135.306L114.214 127.481ZM82.2144 112.893C75.6967 106.375 72.2951 97.6544 72.2951 86.3066H64.2951C64.2951 99.3908 68.2874 110.28 76.5575 118.55L82.2144 112.893ZM72.2951 86.3066C72.2951 79.306 73.706 73.0971 76.4538 67.6014L69.2984 64.0237C65.9382 70.744 64.2951 78.1978 64.2951 86.3066H72.2951ZM76.4721 67.5645C79.2641 61.8334 83.1448 57.0007 88.1422 53.0321L83.1672 46.7672C77.2345 51.4784 72.5961 57.2543 69.2802 64.0607L76.4721 67.5645ZM88.1975 52.9873C93.2259 48.8463 99.2719 45.6178 106.4 43.3427L103.968 35.7214C95.9873 38.2685 89.0136 41.9517 83.1119 46.8119L88.1975 52.9873ZM106.4 43.3427C110.865 41.9177 115.659 40.9306 120.791 40.3935L119.959 32.437C114.329 33.0261 108.996 34.1169 103.968 35.7214L106.4 43.3427ZM116.375 12.5L116.375 36.4153H124.375L124.375 12.5L116.375 12.5ZM127.875 1C121.524 1 116.375 6.14872 116.375 12.5H124.375C124.375 10.567 125.942 9 127.875 9V1Z" fill="white" mask="url(#path-3-inside-2_234_115)"/>
</svg>
