<svg width="256" height="256" viewBox="0 0 256 256" fill="none" xmlns="http://www.w3.org/2000/svg">
<mask id="path-1-inside-1_99_63" fill="white">
<path fill-rule="evenodd" clip-rule="evenodd" d="M96.9081 143L118.454 164.546C123.726 169.818 132.274 169.818 137.546 164.546L159.092 143H204C215.046 143 224 151.954 224 163V192C224 203.046 215.046 212 204 212H52C40.9543 212 32 203.046 32 192V163C32 151.954 40.9543 143 52 143H96.9081ZM205 178C205 183.523 200.523 188 195 188C189.477 188 185 183.523 185 178C185 172.477 189.477 168 195 168C200.523 168 205 172.477 205 178Z"/>
</mask>
<path d="M96.9081 143L102.565 137.343L100.222 135H96.9081V143ZM118.454 164.546L112.797 170.203V170.203L118.454 164.546ZM159.092 143V135H155.778L153.435 137.343L159.092 143ZM91.2513 148.657L112.797 170.203L124.111 158.889L102.565 137.343L91.2513 148.657ZM112.797 170.203C121.193 178.599 134.807 178.599 143.203 170.203L131.889 158.889C129.741 161.037 126.259 161.037 124.111 158.889L112.797 170.203ZM143.203 170.203L164.749 148.657L153.435 137.343L131.889 158.889L143.203 170.203ZM204 135H159.092V151H204V135ZM232 163C232 147.536 219.464 135 204 135V151C210.627 151 216 156.373 216 163H232ZM232 192V163H216V192H232ZM204 220C219.464 220 232 207.464 232 192H216C216 198.627 210.627 204 204 204V220ZM52 220H204V204H52V220ZM24 192C24 207.464 36.536 220 52 220V204C45.3726 204 40 198.627 40 192H24ZM24 163V192H40V163H24ZM52 135C36.536 135 24 147.536 24 163H40C40 156.373 45.3726 151 52 151V135ZM96.9081 135H52V151H96.9081V135ZM195 196C204.941 196 213 187.941 213 178H197C197 179.105 196.105 180 195 180V196ZM177 178C177 187.941 185.059 196 195 196V180C193.895 180 193 179.105 193 178H177ZM195 160C185.059 160 177 168.059 177 178H193C193 176.895 193.895 176 195 176V160ZM213 178C213 168.059 204.941 160 195 160V176C196.105 176 197 176.895 197 178H213Z" fill="white" mask="url(#path-1-inside-1_99_63)"/>
<mask id="path-3-outside-2_99_63" maskUnits="userSpaceOnUse" x="64.7703" y="32.5" width="127" height="144" fill="black">
<rect fill="white" x="64.7703" y="32.5" width="127" height="144"/>
<path fill-rule="evenodd" clip-rule="evenodd" d="M128 40.5C132.142 40.5 135.5 43.8579 135.5 48V142.893L170.426 107.967C173.355 105.038 178.104 105.038 181.033 107.967C183.962 110.896 183.962 115.645 181.033 118.574L133.303 166.303C130.374 169.232 125.626 169.232 122.697 166.303L74.967 118.574C72.0381 115.645 72.0381 110.896 74.967 107.967C77.8959 105.038 82.6447 105.038 85.5736 107.967L120.5 142.893V48C120.5 43.8579 123.858 40.5 128 40.5Z"/>
</mask>
<path d="M135.5 48H127.5L127.5 48L135.5 48ZM135.5 142.893H127.5V162.207L141.157 148.55L135.5 142.893ZM170.426 107.967L176.083 113.624L176.083 113.624L170.426 107.967ZM181.033 118.574L186.69 124.23L181.033 118.574ZM133.303 166.303L127.646 160.646L133.303 166.303ZM122.697 166.303L128.354 160.646L122.697 166.303ZM74.967 118.574L69.3101 124.23L74.967 118.574ZM85.5736 107.967L91.2304 102.31L91.2304 102.31L85.5736 107.967ZM120.5 142.893L114.843 148.55L128.5 162.207L128.5 142.893H120.5ZM120.5 48H112.5L112.5 48L120.5 48ZM143.5 48C143.5 39.4396 136.56 32.5 128 32.5V48.5C127.724 48.5 127.5 48.2761 127.5 48H143.5ZM143.5 142.893V48L127.5 48L127.5 142.893H143.5ZM164.77 102.31L129.843 137.237L141.157 148.55L176.083 113.624L164.77 102.31ZM186.69 102.31C180.637 96.257 170.823 96.257 164.77 102.31L176.083 113.624C175.888 113.819 175.571 113.819 175.376 113.624L186.69 102.31ZM186.69 124.23C192.743 118.177 192.743 108.363 186.69 102.31L175.376 113.624C175.181 113.429 175.181 113.112 175.376 112.917L186.69 124.23ZM138.96 171.96L186.69 124.23L175.376 112.917L127.646 160.646L138.96 171.96ZM117.04 171.96C123.093 178.013 132.907 178.013 138.96 171.96L127.646 160.646C127.842 160.451 128.158 160.451 128.354 160.646L117.04 171.96ZM69.3101 124.23L117.04 171.96L128.354 160.646L80.6238 112.917L69.3101 124.23ZM69.3101 102.31C63.257 108.363 63.257 118.177 69.3101 124.23L80.6238 112.917C80.8191 113.112 80.8191 113.429 80.6238 113.624L69.3101 102.31ZM91.2304 102.31C85.1773 96.257 75.3633 96.257 69.3101 102.31L80.6238 113.624C80.4286 113.819 80.112 113.819 79.9167 113.624L91.2304 102.31ZM126.157 137.237L91.2304 102.31L79.9167 113.624L114.843 148.55L126.157 137.237ZM112.5 48L112.5 142.893H128.5L128.5 48L112.5 48ZM128 32.5C119.44 32.5 112.5 39.4396 112.5 48H128.5C128.5 48.2761 128.276 48.5 128 48.5V32.5Z" fill="white" mask="url(#path-3-outside-2_99_63)"/>
</svg>
