<svg width="256" height="256" viewBox="0 0 256 256" fill="none" xmlns="http://www.w3.org/2000/svg">
<mask id="path-1-inside-1_369_13" fill="white">
<path fill-rule="evenodd" clip-rule="evenodd" d="M135.5 13C135.5 8.85786 132.142 5.5 128 5.5C123.858 5.5 120.5 8.85786 120.5 13L120.5 139.893L85.5736 104.967C82.6447 102.038 77.8959 102.038 74.967 104.967C72.0381 107.896 72.0381 112.645 74.967 115.574L122.697 163.303C125.626 166.232 130.374 166.232 133.303 163.303L181.033 115.574C183.962 112.645 183.962 107.896 181.033 104.967C178.104 102.038 173.355 102.038 170.426 104.967L135.5 139.893V13ZM118.454 173.712L92.9078 148.166H20C8.95431 148.166 0 157.12 0 168.166V220.166C0 231.212 8.95431 240.166 20 240.166H236C247.046 240.166 256 231.212 256 220.166V168.166C256 157.12 247.046 148.166 236 148.166H163.092L137.546 173.712C132.274 178.984 123.726 178.984 118.454 173.712ZM224 216.166C235.046 216.166 244 207.212 244 196.166C244 185.12 235.046 176.166 224 176.166C212.954 176.166 204 185.12 204 196.166C204 207.212 212.954 216.166 224 216.166Z"/>
</mask>
<path d="M120.5 13L100.5 13L100.5 13L120.5 13ZM120.5 139.893L106.358 154.036L140.5 188.178L140.5 139.893L120.5 139.893ZM85.5736 104.967L71.4314 119.109L71.4315 119.109L85.5736 104.967ZM74.967 115.574L60.8249 129.716L60.8249 129.716L74.967 115.574ZM122.697 163.303L136.839 149.161L136.839 149.161L122.697 163.303ZM181.033 115.574L195.175 129.716L195.175 129.716L181.033 115.574ZM181.033 104.967L195.175 90.8249L195.175 90.8248L181.033 104.967ZM170.426 104.967L156.284 90.8248L156.284 90.8249L170.426 104.967ZM135.5 139.893H115.5V188.178L149.642 154.036L135.5 139.893ZM92.9078 148.166L107.05 134.024L101.192 128.166H92.9078V148.166ZM163.092 148.166V128.166H154.808L148.95 134.024L163.092 148.166ZM128 25.5C121.096 25.5 115.5 19.9036 115.5 13H155.5C155.5 -2.18783 143.188 -14.5 128 -14.5V25.5ZM140.5 13C140.5 19.9036 134.904 25.5 128 25.5V-14.5C112.812 -14.5 100.5 -2.18783 100.5 13H140.5ZM140.5 139.893L140.5 13L100.5 13L100.5 139.893L140.5 139.893ZM71.4315 119.109L106.358 154.036L134.642 125.751L99.7157 90.8249L71.4315 119.109ZM89.1091 119.109C84.2276 123.991 76.313 123.991 71.4314 119.109L99.7157 90.8249C88.9763 80.0854 71.5643 80.0855 60.8249 90.8249L89.1091 119.109ZM89.1091 101.431C93.9907 106.313 93.9907 114.228 89.1091 119.109L60.8249 90.8249C50.0854 101.564 50.0854 118.976 60.8249 129.716L89.1091 101.431ZM136.839 149.161L89.1091 101.431L60.8249 129.716L108.555 177.445L136.839 149.161ZM119.161 149.161C124.043 144.28 131.957 144.28 136.839 149.161L108.555 177.445C119.294 188.185 136.706 188.185 147.445 177.445L119.161 149.161ZM166.891 101.431L119.161 149.161L147.445 177.445L195.175 129.716L166.891 101.431ZM166.891 119.109C162.009 114.228 162.009 106.313 166.891 101.431L195.175 129.716C205.915 118.976 205.915 101.564 195.175 90.8249L166.891 119.109ZM184.569 119.109C179.687 123.991 171.772 123.991 166.891 119.109L195.175 90.8248C184.436 80.0854 167.024 80.0854 156.284 90.8248L184.569 119.109ZM149.642 154.036L184.569 119.109L156.284 90.8249L121.358 125.751L149.642 154.036ZM115.5 13V139.893H155.5V13H115.5ZM78.7657 162.308L104.312 187.854L132.596 159.57L107.05 134.024L78.7657 162.308ZM20 168.166H92.9078V128.166H20V168.166ZM20 168.166C20 168.152 20.0007 168.144 20.0009 168.142C20.0011 168.14 20.0011 168.141 20.0003 168.145C19.9995 168.149 19.9983 168.153 19.9967 168.159C19.9951 168.164 19.9934 168.168 19.9918 168.172C19.9885 168.18 19.9867 168.182 19.9881 168.18C19.9899 168.177 19.9939 168.172 20 168.166C20.0061 168.16 20.0114 168.156 20.0139 168.154C20.0161 168.153 20.0138 168.155 20.0061 168.158C20.0023 168.159 19.9977 168.161 19.9926 168.163C19.9874 168.164 19.9826 168.166 19.9788 168.166C19.9749 168.167 19.9737 168.167 19.9758 168.167C19.9779 168.167 19.9856 168.166 20 168.166V128.166C-2.09139 128.166 -20 146.075 -20 168.166H20ZM20 220.166V168.166H-20V220.166H20ZM20 220.166C19.9856 220.166 19.9779 220.165 19.9758 220.165C19.9737 220.165 19.9749 220.165 19.9788 220.166C19.9826 220.166 19.9874 220.168 19.9926 220.169C19.9977 220.171 20.0023 220.173 20.0061 220.174C20.0138 220.177 20.0162 220.179 20.014 220.178C20.0114 220.176 20.0061 220.172 20 220.166C19.9939 220.16 19.9899 220.155 19.9881 220.152C19.9867 220.15 19.9885 220.152 19.9918 220.16C19.9934 220.164 19.9951 220.168 19.9967 220.173C19.9983 220.179 19.9995 220.183 20.0003 220.187C20.0011 220.191 20.0011 220.192 20.0009 220.19C20.0007 220.188 20 220.18 20 220.166H-20C-20 242.257 -2.0914 260.166 20 260.166V220.166ZM236 220.166H20V260.166H236V220.166ZM236 220.166C236 220.18 235.999 220.188 235.999 220.19C235.999 220.192 235.999 220.191 236 220.187C236 220.183 236.002 220.179 236.003 220.173C236.005 220.168 236.007 220.164 236.008 220.16C236.011 220.152 236.013 220.15 236.012 220.152C236.01 220.155 236.006 220.16 236 220.166C235.994 220.172 235.989 220.176 235.986 220.178C235.984 220.179 235.986 220.177 235.994 220.174C235.998 220.173 236.002 220.171 236.007 220.169C236.013 220.168 236.017 220.166 236.021 220.166C236.025 220.165 236.026 220.165 236.024 220.165C236.022 220.165 236.014 220.166 236 220.166V260.166C258.091 260.166 276 242.257 276 220.166H236ZM236 168.166V220.166H276V168.166H236ZM236 168.166C236.014 168.166 236.022 168.167 236.024 168.167C236.026 168.167 236.025 168.167 236.021 168.166C236.017 168.166 236.013 168.164 236.007 168.163C236.002 168.161 235.998 168.159 235.994 168.158C235.986 168.155 235.984 168.153 235.986 168.154C235.989 168.156 235.994 168.16 236 168.166C236.006 168.172 236.01 168.177 236.012 168.18C236.013 168.182 236.011 168.18 236.008 168.172C236.007 168.168 236.005 168.164 236.003 168.159C236.002 168.153 236 168.149 236 168.145C235.999 168.141 235.999 168.14 235.999 168.142C235.999 168.144 236 168.152 236 168.166H276C276 146.075 258.091 128.166 236 128.166V168.166ZM163.092 168.166H236V128.166H163.092V168.166ZM151.688 187.854L177.234 162.308L148.95 134.024L123.404 159.57L151.688 187.854ZM104.312 187.854C117.394 200.937 138.606 200.937 151.688 187.854L123.404 159.57C125.942 157.032 130.058 157.032 132.596 159.57L104.312 187.854ZM224 196.166C224 196.18 223.999 196.188 223.999 196.19C223.999 196.192 223.999 196.191 224 196.187C224 196.183 224.002 196.179 224.003 196.173C224.005 196.168 224.007 196.164 224.008 196.16C224.011 196.152 224.013 196.15 224.012 196.152C224.01 196.155 224.006 196.16 224 196.166C223.994 196.172 223.989 196.176 223.986 196.178C223.984 196.179 223.986 196.177 223.994 196.174C223.998 196.173 224.002 196.171 224.007 196.169C224.013 196.168 224.017 196.166 224.021 196.166C224.025 196.165 224.026 196.165 224.024 196.165C224.022 196.165 224.014 196.166 224 196.166V236.166C246.091 236.166 264 218.257 264 196.166H224ZM224 196.166C224.014 196.166 224.022 196.167 224.024 196.167C224.026 196.167 224.025 196.167 224.021 196.166C224.017 196.166 224.013 196.164 224.007 196.163C224.002 196.161 223.998 196.159 223.994 196.158C223.986 196.155 223.984 196.153 223.986 196.154C223.989 196.156 223.994 196.16 224 196.166C224.006 196.172 224.01 196.177 224.012 196.18C224.013 196.182 224.011 196.18 224.008 196.172C224.007 196.168 224.005 196.164 224.003 196.159C224.002 196.153 224 196.149 224 196.145C223.999 196.141 223.999 196.14 223.999 196.142C223.999 196.144 224 196.152 224 196.166H264C264 174.075 246.091 156.166 224 156.166V196.166ZM224 196.166C224 196.152 224.001 196.144 224.001 196.142C224.001 196.14 224.001 196.141 224 196.145C224 196.149 223.998 196.153 223.997 196.159C223.995 196.164 223.993 196.168 223.992 196.172C223.989 196.18 223.987 196.182 223.988 196.18C223.99 196.177 223.994 196.172 224 196.166C224.006 196.16 224.011 196.156 224.014 196.154C224.016 196.153 224.014 196.155 224.006 196.158C224.002 196.159 223.998 196.161 223.993 196.163C223.987 196.164 223.983 196.166 223.979 196.166C223.975 196.167 223.974 196.167 223.976 196.167C223.978 196.167 223.986 196.166 224 196.166V156.166C201.909 156.166 184 174.075 184 196.166H224ZM224 196.166C223.986 196.166 223.978 196.165 223.976 196.165C223.974 196.165 223.975 196.165 223.979 196.166C223.983 196.166 223.987 196.168 223.993 196.169C223.998 196.171 224.002 196.173 224.006 196.174C224.014 196.177 224.016 196.179 224.014 196.178C224.011 196.176 224.006 196.172 224 196.166C223.994 196.16 223.99 196.155 223.988 196.152C223.987 196.15 223.989 196.152 223.992 196.16C223.993 196.164 223.995 196.168 223.997 196.173C223.998 196.179 224 196.183 224 196.187C224.001 196.191 224.001 196.192 224.001 196.19C224.001 196.188 224 196.18 224 196.166H184C184 218.257 201.909 236.166 224 236.166V196.166Z" fill="white" mask="url(#path-1-inside-1_369_13)"/>
</svg>
