<svg width="256" height="256" viewBox="0 0 256 256" fill="none" xmlns="http://www.w3.org/2000/svg">
<path fill-rule="evenodd" clip-rule="evenodd" d="M33.5 143C42.0604 143 49 136.06 49 127.5C49 118.94 42.0604 112 33.5 112C24.9396 112 18 118.94 18 127.5C18 136.06 24.9396 143 33.5 143ZM10 127.5C10 140.479 20.5213 151 33.5 151C46.4787 151 57 140.479 57 127.5C57 114.521 46.4787 104 33.5 104C20.5213 104 10 114.521 10 127.5ZM127.5 143C136.06 143 143 136.06 143 127.5C143 118.94 136.06 112 127.5 112C118.94 112 112 118.94 112 127.5C112 136.06 118.94 143 127.5 143ZM104 127.5C104 140.479 114.521 151 127.5 151C140.479 151 151 140.479 151 127.5C151 114.521 140.479 104 127.5 104C114.521 104 104 114.521 104 127.5ZM237 127.5C237 136.06 230.06 143 221.5 143C212.94 143 206 136.06 206 127.5C206 118.94 212.94 112 221.5 112C230.06 112 237 118.94 237 127.5ZM221.5 151C208.521 151 198 140.479 198 127.5C198 114.521 208.521 104 221.5 104C234.479 104 245 114.521 245 127.5C245 140.479 234.479 151 221.5 151Z" fill="white"/>
</svg>
