<svg width="256" height="256" viewBox="0 0 256 256" fill="none" xmlns="http://www.w3.org/2000/svg">
<path d="M185 128L174 128L174 128L185 128ZM215 98L215 87V87L215 98ZM245 128L256 128L256 128L245 128ZM215 158L215 169V169L215 158ZM98 128L87 128L87 128L98 128ZM128 98L128 87V87L128 98ZM158 128L169 128L169 128L158 128ZM128 158L128 169V169L128 158ZM11 128L-1.31134e-06 128L-1.31134e-06 128L11 128ZM41 98L41 87V87L41 98ZM71 128L82 128L82 128L71 128ZM41 158L41 169V169L41 158ZM185 128L196 128C196 117.507 204.507 109 215 109L215 98L215 87C192.356 87 174 105.356 174 128L185 128ZM215 98L215 109C225.493 109 234 117.507 234 128L245 128L256 128C256 105.356 237.644 87 215 87L215 98ZM245 128L234 128C234 138.493 225.493 147 215 147L215 158L215 169C237.644 169 256 150.644 256 128L245 128ZM215 158L215 147C204.507 147 196 138.493 196 128L185 128L174 128C174 150.644 192.356 169 215 169L215 158ZM98 128L109 128C109 117.507 117.507 109 128 109L128 98L128 87C105.356 87 87 105.356 87 128L98 128ZM128 98L128 109C138.493 109 147 117.507 147 128L158 128L169 128C169 105.356 150.644 87 128 87L128 98ZM158 128L147 128C147 138.493 138.493 147 128 147L128 158L128 169C150.644 169 169 150.644 169 128L158 128ZM128 158L128 147C117.507 147 109 138.493 109 128L98 128L87 128C87 150.644 105.356 169 128 169L128 158ZM11 128L22 128C22 117.507 30.5066 109 41 109L41 98L41 87C18.3563 87 -2.30113e-06 105.356 -1.31134e-06 128L11 128ZM41 98L41 109C51.4934 109 60 117.507 60 128L71 128L82 128C82 105.356 63.6437 87 41 87L41 98ZM71 128L60 128C60 138.493 51.4934 147 41 147L41 158L41 169C63.6437 169 82 150.644 82 128L71 128ZM41 158L41 147C30.5066 147 22 138.493 22 128L11 128L-1.31134e-06 128C4.92695e-05 150.644 18.3563 169 41 169L41 158Z" fill="white"/>
</svg>
