<svg width="256" height="256" viewBox="0 0 256 256" fill="none" xmlns="http://www.w3.org/2000/svg">
<path d="M98 215L87 215V215L98 215ZM128 185L128 174V174L128 185ZM158 215L169 215V215L158 215ZM128 245L128 256V256L128 245ZM98 128L87 128V128L98 128ZM128 98L128 87L128 87L128 98ZM158 128L169 128V128L158 128ZM128 158L128 169L128 169L128 158ZM98 41L87 41V41L98 41ZM128 11L128 -1.31134e-06L128 -1.31134e-06L128 11ZM158 41L169 41V41L158 41ZM128 71L128 82L128 82L128 71ZM98 215L109 215C109 204.507 117.507 196 128 196L128 185L128 174C105.356 174 87 192.356 87 215L98 215ZM128 185L128 196C138.493 196 147 204.507 147 215L158 215L169 215C169 192.356 150.644 174 128 174L128 185ZM158 215L147 215C147 225.493 138.493 234 128 234L128 245L128 256C150.644 256 169 237.644 169 215L158 215ZM128 245L128 234C117.507 234 109 225.493 109 215L98 215L87 215C87 237.644 105.356 256 128 256L128 245ZM98 128L109 128C109 117.507 117.507 109 128 109L128 98L128 87C105.356 87 87 105.356 87 128L98 128ZM128 98L128 109C138.493 109 147 117.507 147 128L158 128L169 128C169 105.356 150.644 87 128 87L128 98ZM158 128L147 128C147 138.493 138.493 147 128 147L128 158L128 169C150.644 169 169 150.644 169 128L158 128ZM128 158L128 147C117.507 147 109 138.493 109 128L98 128L87 128C87 150.644 105.356 169 128 169L128 158ZM98 41L109 41C109 30.5067 117.507 22 128 22L128 11L128 -1.31134e-06C105.356 7.59724e-05 87 18.3563 87 41L98 41ZM128 11L128 22C138.493 22 147 30.5066 147 41L158 41L169 41C169 18.3563 150.644 -2.30113e-06 128 -1.31134e-06L128 11ZM158 41L147 41C147 51.4934 138.493 60 128 60L128 71L128 82C150.644 82 169 63.6437 169 41L158 41ZM128 71L128 60C117.507 60 109 51.4933 109 41L98 41L87 41C87 63.6437 105.356 81.9999 128 82L128 71Z" fill="white"/>
</svg>
