<svg width="256" height="256" viewBox="0 0 256 256" fill="none" xmlns="http://www.w3.org/2000/svg">
<path fill-rule="evenodd" clip-rule="evenodd" d="M108 64C108 52.9543 116.954 44 128 44C139.046 44 148 52.9543 148 64C148 75.0457 139.046 84 128 84C116.954 84 108 75.0457 108 64ZM128 52C121.373 52 116 57.3726 116 64C116 70.6274 121.373 76 128 76C134.627 76 140 70.6274 140 64C140 57.3726 134.627 52 128 52ZM108 128C108 116.954 116.954 108 128 108C139.046 108 148 116.954 148 128C148 139.046 139.046 148 128 148C116.954 148 108 139.046 108 128ZM128 116C121.373 116 116 121.373 116 128C116 134.627 121.373 140 128 140C134.627 140 140 134.627 140 128C140 121.373 134.627 116 128 116ZM128 172C116.954 172 108 180.954 108 192C108 203.046 116.954 212 128 212C139.046 212 148 203.046 148 192C148 180.954 139.046 172 128 172ZM116 192C116 185.373 121.373 180 128 180C134.627 180 140 185.373 140 192C140 198.627 134.627 204 128 204C121.373 204 116 198.627 116 192Z" fill="white"/>
</svg>
