<svg width="256" height="256" viewBox="0 0 256 256" fill="none" xmlns="http://www.w3.org/2000/svg">
<path fill-rule="evenodd" clip-rule="evenodd" d="M112 33.5C112 42.0604 118.94 49 127.5 49C136.06 49 143 42.0604 143 33.5C143 24.9396 136.06 18 127.5 18C118.94 18 112 24.9396 112 33.5ZM127.5 10C114.521 10 104 20.5213 104 33.5C104 46.4787 114.521 57 127.5 57C140.479 57 151 46.4787 151 33.5C151 20.5213 140.479 10 127.5 10ZM112 127.5C112 136.06 118.94 143 127.5 143C136.06 143 143 136.06 143 127.5C143 118.94 136.06 112 127.5 112C118.94 112 112 118.94 112 127.5ZM127.5 104C114.521 104 104 114.521 104 127.5C104 140.479 114.521 151 127.5 151C140.479 151 151 140.479 151 127.5C151 114.521 140.479 104 127.5 104ZM127.5 237C118.94 237 112 230.06 112 221.5C112 212.94 118.94 206 127.5 206C136.06 206 143 212.94 143 221.5C143 230.06 136.06 237 127.5 237ZM104 221.5C104 208.521 114.521 198 127.5 198C140.479 198 151 208.521 151 221.5C151 234.479 140.479 245 127.5 245C114.521 245 104 234.479 104 221.5Z" fill="white"/>
</svg>
