<svg width="256" height="256" viewBox="0 0 256 256" fill="none" xmlns="http://www.w3.org/2000/svg">
<path fill-rule="evenodd" clip-rule="evenodd" d="M84 128C84 116.954 75.0457 108 64 108C52.9543 108 44 116.954 44 128C44 139.046 52.9543 148 64 148C75.0457 148 84 139.046 84 128ZM64 116C70.6274 116 76 121.373 76 128C76 134.627 70.6274 140 64 140C57.3726 140 52 134.627 52 128C52 121.373 57.3726 116 64 116ZM128 108C139.046 108 148 116.954 148 128C148 139.046 139.046 148 128 148C116.954 148 108 139.046 108 128C108 116.954 116.954 108 128 108ZM140 128C140 121.373 134.627 116 128 116C121.373 116 116 121.373 116 128C116 134.627 121.373 140 128 140C134.627 140 140 134.627 140 128ZM192 108C203.046 108 212 116.954 212 128C212 139.046 203.046 148 192 148C180.954 148 172 139.046 172 128C172 116.954 180.954 108 192 108ZM204 128C204 121.373 198.627 116 192 116C185.373 116 180 121.373 180 128C180 134.627 185.373 140 192 140C198.627 140 204 134.627 204 128Z" fill="white"/>
</svg>
