<svg width="256" height="256" viewBox="0 0 256 256" fill="none" xmlns="http://www.w3.org/2000/svg">
<mask id="path-1-inside-1_195_24" fill="white">
<path fill-rule="evenodd" clip-rule="evenodd" d="M69 32C60.7157 32 54 38.7157 54 47V209C54 217.284 60.7157 224 69 224H187C195.284 224 202 217.284 202 209V159H231.929L208.645 182.284C206.692 184.237 206.692 187.403 208.645 189.355C210.597 191.308 213.763 191.308 215.716 189.355L247.536 157.536C249.488 155.583 249.488 152.417 247.536 150.464L215.716 118.645C213.763 116.692 210.597 116.692 208.645 118.645C206.692 120.597 206.692 123.763 208.645 125.716L231.929 149H202V97C202 94.2386 199.761 92 197 92H157C148.716 92 142 85.2843 142 77V37C142 34.2386 139.761 32 137 32H69ZM202 149H148C145.239 149 143 151.239 143 154C143 156.761 145.239 159 148 159H202V149ZM150 36.8284C150 35.0466 152.154 34.1543 153.414 35.4142L198.586 80.5858C199.846 81.8457 198.953 84 197.172 84H160C154.477 84 150 79.5228 150 74V36.8284Z"/>
</mask>
<path d="M231.929 159L237.586 164.657L251.243 151H231.929V159ZM208.645 182.284L202.988 176.627L202.988 176.627L208.645 182.284ZM208.645 189.355L202.988 195.012L202.988 195.012L208.645 189.355ZM215.716 189.355L221.373 195.012L221.373 195.012L215.716 189.355ZM247.536 150.464L253.192 144.808L247.536 150.464ZM215.716 118.645L210.059 124.302L215.716 118.645ZM208.645 118.645L202.988 112.988L202.988 112.988L208.645 118.645ZM208.645 125.716L202.988 131.373L202.988 131.373L208.645 125.716ZM231.929 149V157H251.243L237.586 143.343L231.929 149ZM153.414 35.4142L159.071 29.7574L159.071 29.7574L153.414 35.4142ZM198.586 80.5858L204.243 74.929L204.243 74.9289L198.586 80.5858ZM62 47C62 43.134 65.134 40 69 40V24C56.2975 24 46 34.2975 46 47H62ZM62 209V47H46V209H62ZM69 216C65.134 216 62 212.866 62 209H46C46 221.703 56.2975 232 69 232V216ZM187 216H69V232H187V216ZM194 209C194 212.866 190.866 216 187 216V232C199.703 232 210 221.703 210 209H194ZM194 159V209H210V159H194ZM202 167H231.929V151H202V167ZM226.272 153.343L202.988 176.627L214.302 187.941L237.586 164.657L226.272 153.343ZM202.988 176.627C197.911 181.704 197.911 189.935 202.988 195.012L214.302 183.699C215.473 184.87 215.473 186.77 214.302 187.941L202.988 176.627ZM202.988 195.012C208.065 200.089 216.296 200.089 221.373 195.012L210.059 183.698C211.23 182.527 213.13 182.527 214.301 183.698L202.988 195.012ZM221.373 195.012L253.192 163.192L241.879 151.879L210.059 183.698L221.373 195.012ZM253.192 163.192C258.269 158.116 258.269 149.884 253.192 144.808L241.879 156.121C240.707 154.95 240.707 153.05 241.879 151.879L253.192 163.192ZM253.192 144.808L221.373 112.988L210.059 124.302L241.879 156.121L253.192 144.808ZM221.373 112.988C216.296 107.911 208.065 107.911 202.988 112.988L214.301 124.302C213.13 125.473 211.23 125.473 210.059 124.302L221.373 112.988ZM202.988 112.988C197.911 118.065 197.911 126.296 202.988 131.373L214.302 120.059C215.473 121.23 215.473 123.13 214.302 124.301L202.988 112.988ZM202.988 131.373L226.272 154.657L237.586 143.343L214.302 120.059L202.988 131.373ZM231.929 141H202V157H231.929V141ZM194 97V149H210V97H194ZM197 100C195.343 100 194 98.6569 194 97H210C210 89.8203 204.18 84 197 84V100ZM157 100H197V84H157V100ZM134 77C134 89.7025 144.297 100 157 100V84C153.134 84 150 80.866 150 77H134ZM134 37V77H150V37H134ZM137 40C135.343 40 134 38.6568 134 37H150C150 29.8203 144.18 24 137 24V40ZM69 40H137V24H69V40ZM202 141H148V157H202V141ZM148 141C140.82 141 135 146.82 135 154H151C151 155.657 149.657 157 148 157V141ZM135 154C135 161.18 140.82 167 148 167V151C149.657 151 151 152.343 151 154H135ZM148 167H202V151H148V167ZM194 149V159H210V149H194ZM159.071 29.7574C152.771 23.4577 142 27.9194 142 36.8284H158C158 42.1739 151.537 44.8508 147.757 41.0711L159.071 29.7574ZM204.243 74.9289L159.071 29.7574L147.757 41.0711L192.929 86.2426L204.243 74.9289ZM197.172 92C206.081 92 210.542 81.2285 204.243 74.929L192.929 86.2426C189.149 82.4629 191.826 76 197.172 76V92ZM160 92H197.172V76H160V92ZM142 74C142 83.9411 150.059 92 160 92V76C158.895 76 158 75.1046 158 74H142ZM142 36.8284V74H158V36.8284H142Z" fill="white" mask="url(#path-1-inside-1_195_24)"/>
</svg>
