<svg width="256" height="256" viewBox="0 0 256 256" fill="none" xmlns="http://www.w3.org/2000/svg">
<path d="M156.333 15.0465C156.333 11.4829 160.642 9.69822 163.162 12.2181L216.505 65.5612C219.025 68.0811 217.24 72.3896 213.677 72.3896H166.333C160.811 72.3896 156.333 67.9125 156.333 62.3896V15.0465Z" fill="white"/>
<path d="M43 24.2895C43 19.159 47.159 15 52.2895 15H134.165C135.27 15 136.165 15.8954 136.165 17V62.8684C136.165 79.0446 149.278 92.1579 165.454 92.1579H211.323C212.427 92.1579 213.323 93.0534 213.323 94.1579V232.616C213.323 237.746 209.164 241.905 204.033 241.905H52.2895C47.159 241.905 43 237.746 43 232.616V24.2895Z" stroke="white" stroke-width="20"/>
<path d="M65 165.5C65 158.758 70.4653 153.293 77.207 153.293H177.793C184.535 153.293 190 158.758 190 165.5V165.5C190 172.242 184.535 177.707 177.793 177.707H77.207C70.4653 177.707 65 172.242 65 165.5V165.5Z" fill="white"/>
</svg>
