<svg width="256" height="256" viewBox="0 0 256 256" fill="none" xmlns="http://www.w3.org/2000/svg">
<g clip-path="url(#clip0_391_180)">
<path d="M129 14.6569C129 11.0932 133.309 9.30857 135.828 11.8284L189.172 65.1716C191.691 67.6914 189.907 72 186.343 72H139C133.477 72 129 67.5228 129 62V14.6569Z" fill="white"/>
<rect x="131.5" y="149.5" width="124.5" height="20" rx="10" fill="white"/>
<rect x="210.64" y="110" width="70" height="20" rx="10" transform="rotate(45 210.64 110)" fill="white"/>
<rect x="196.5" y="195" width="70" height="20" rx="10" transform="rotate(-45 196.5 195)" fill="white"/>
<mask id="path-5-inside-1_391_180" fill="white">
<path fill-rule="evenodd" clip-rule="evenodd" d="M5.66663 23.8998C5.66663 13.2465 14.3028 4.61035 24.9561 4.61035H106.832C113.459 4.61035 118.832 9.98294 118.832 16.6104V62.4788C118.832 73.1321 127.468 81.7683 138.121 81.7683H183.99C190.617 81.7683 195.99 87.1409 195.99 93.7683V142H141.5C131.835 142 124 149.835 124 159.5C124 169.165 131.835 177 141.5 177H195.99V232.226C195.99 242.88 187.353 251.516 176.7 251.516H24.9561C14.3028 251.516 5.66663 242.88 5.66663 232.226V23.8998Z"/>
</mask>
<path d="M195.99 142V162H215.99V142H195.99ZM195.99 177H215.99V157H195.99V177ZM24.9561 -15.3896C3.25713 -15.3896 -14.3334 2.20085 -14.3334 23.8998H25.6666C25.6666 24.2922 25.3485 24.6104 24.9561 24.6104V-15.3896ZM106.832 -15.3896H24.9561V24.6104H106.832V-15.3896ZM138.832 16.6104C138.832 -1.06274 124.505 -15.3896 106.832 -15.3896V24.6104C102.413 24.6104 98.8316 21.0286 98.8316 16.6104H138.832ZM138.832 62.4788V16.6104H98.8316V62.4788H138.832ZM138.121 61.7683C138.513 61.7683 138.832 62.0864 138.832 62.4788H98.8316C98.8316 84.1778 116.422 101.768 138.121 101.768V61.7683ZM183.99 61.7683H138.121V101.768H183.99V61.7683ZM215.99 93.7683C215.99 76.0952 201.663 61.7683 183.99 61.7683V101.768C179.571 101.768 175.99 98.1865 175.99 93.7683H215.99ZM215.99 142V93.7683H175.99V142H215.99ZM141.5 162H195.99V122H141.5V162ZM144 159.5C144 160.881 142.881 162 141.5 162V122C120.789 122 104 138.789 104 159.5H144ZM141.5 157C142.881 157 144 158.119 144 159.5H104C104 180.211 120.789 197 141.5 197V157ZM195.99 157H141.5V197H195.99V157ZM215.99 232.226V177H175.99V232.226H215.99ZM176.7 271.516C198.399 271.516 215.99 253.925 215.99 232.226H175.99C175.99 231.834 176.308 231.516 176.7 231.516V271.516ZM24.9561 271.516H176.7V231.516H24.9561V271.516ZM-14.3334 232.226C-14.3334 253.925 3.25715 271.516 24.9561 271.516V231.516C25.3485 231.516 25.6666 231.834 25.6666 232.226H-14.3334ZM-14.3334 23.8998V232.226H25.6666V23.8998H-14.3334Z" fill="white" mask="url(#path-5-inside-1_391_180)"/>
</g>
<defs>
<clipPath id="clip0_391_180">
<rect width="256" height="256" fill="white"/>
</clipPath>
</defs>
</svg>
