<svg width="256" height="256" viewBox="0 0 256 256" fill="none" xmlns="http://www.w3.org/2000/svg">
<mask id="path-1-inside-1_195_24" fill="white">
<path fill-rule="evenodd" clip-rule="evenodd" d="M69 32C60.7157 32 54 38.7157 54 47V209C54 217.284 60.7157 224 69 224H187C195.284 224 202 217.284 202 209V159H231.929L208.645 182.284C206.692 184.237 206.692 187.403 208.645 189.355C210.597 191.308 213.763 191.308 215.716 189.355L247.536 157.536C249.488 155.583 249.488 152.417 247.536 150.464L215.716 118.645C213.763 116.692 210.597 116.692 208.645 118.645C206.692 120.597 206.692 123.763 208.645 125.716L231.929 149H202V97C202 94.2386 199.761 92 197 92H157C148.716 92 142 85.2843 142 77V37C142 34.2386 139.761 32 137 32H69ZM202 149V159H148C145.239 159 143 156.761 143 154C143 151.239 145.239 149 148 149H202Z"/>
</mask>
<path d="M231.929 159L239 166.071L256.071 149H231.929V159ZM208.645 182.284L201.574 175.213L201.574 175.213L208.645 182.284ZM208.645 189.355L201.574 196.426L201.574 196.426L208.645 189.355ZM215.716 189.355L222.787 196.426L222.787 196.426L215.716 189.355ZM247.536 150.464L254.607 143.393H254.607L247.536 150.464ZM215.716 118.645L208.645 125.716H208.645L215.716 118.645ZM208.645 118.645L201.574 111.574L201.574 111.574L208.645 118.645ZM208.645 125.716L201.574 132.787L201.574 132.787L208.645 125.716ZM231.929 149V159H256.071L239 141.929L231.929 149ZM64 47C64 44.2386 66.2386 42 69 42V22C55.1929 22 44 33.1929 44 47H64ZM64 209V47H44V209H64ZM69 214C66.2386 214 64 211.761 64 209H44C44 222.807 55.1929 234 69 234V214ZM187 214H69V234H187V214ZM192 209C192 211.761 189.761 214 187 214V234C200.807 234 212 222.807 212 209H192ZM192 159V209H212V159H192ZM231.929 149H202V169H231.929V149ZM215.716 189.355L239 166.071L224.858 151.929L201.574 175.213L215.716 189.355ZM215.716 182.284C217.668 184.237 217.668 187.403 215.716 189.355L201.574 175.213C195.716 181.071 195.716 190.569 201.574 196.426L215.716 182.284ZM208.645 182.284C210.597 180.332 213.763 180.332 215.716 182.284L201.574 196.426C207.431 202.284 216.929 202.284 222.787 196.426L208.645 182.284ZM240.464 150.464L208.645 182.284L222.787 196.426L254.607 164.607L240.464 150.464ZM240.464 157.536C238.512 155.583 238.512 152.417 240.464 150.464L254.607 164.607C260.464 158.749 260.464 149.251 254.607 143.393L240.464 157.536ZM208.645 125.716L240.464 157.536L254.607 143.393L222.787 111.574L208.645 125.716ZM215.716 125.716C213.763 127.668 210.597 127.668 208.645 125.716L222.787 111.574C216.929 105.716 207.431 105.716 201.574 111.574L215.716 125.716ZM215.716 118.645C217.668 120.597 217.668 123.763 215.716 125.716L201.574 111.574C195.716 117.431 195.716 126.929 201.574 132.787L215.716 118.645ZM239 141.929L215.716 118.645L201.574 132.787L224.858 156.071L239 141.929ZM202 159H231.929V139H202V159ZM192 97V149H212V97H192ZM197 102C194.239 102 192 99.7614 192 97H212C212 88.7157 205.284 82 197 82V102ZM157 102H197V82H157V102ZM132 77C132 90.8071 143.193 102 157 102V82C154.239 82 152 79.7614 152 77H132ZM132 37V77H152V37H132ZM137 42C134.239 42 132 39.7614 132 37H152C152 28.7157 145.284 22 137 22V42ZM69 42H137V22H69V42ZM212 159V149H192V159H212ZM148 169H202V149H148V169ZM133 154C133 162.284 139.716 169 148 169V149C150.761 149 153 151.239 153 154H133ZM148 139C139.716 139 133 145.716 133 154H153C153 156.761 150.761 159 148 159V139ZM202 139H148V159H202V139Z" fill="white" mask="url(#path-1-inside-1_195_24)"/>
<path d="M155 74V44.0711L189.929 79H160C157.239 79 155 76.7614 155 74Z" stroke="white" stroke-width="10"/>
</svg>
