<svg width="256" height="256" viewBox="0 0 256 256" fill="none" xmlns="http://www.w3.org/2000/svg">
<path d="M129 14.6569C129 11.0932 133.309 9.30857 135.828 11.8284L189.172 65.1716C191.691 67.6914 189.907 72 186.343 72H139C133.477 72 129 67.5228 129 62V14.6569Z" fill="white"/>
<path fill-rule="evenodd" clip-rule="evenodd" d="M183.571 117.072C179.666 113.166 173.334 113.166 169.429 117.072L134.196 152.304C132.312 154.123 131.14 156.675 131.14 159.5C131.14 159.584 131.141 159.668 131.143 159.752C131.17 162.275 132.146 164.791 134.071 166.716L169.426 202.072C173.332 205.977 179.663 205.977 183.569 202.072C187.474 198.166 187.474 191.835 183.569 187.929L165.14 169.5H245.64C251.162 169.5 255.64 165.023 255.64 159.5C255.64 153.978 251.162 149.5 245.64 149.5H165.284L183.571 131.214C187.476 127.308 187.476 120.977 183.571 117.072Z" fill="white"/>
<mask id="path-3-inside-1_391_207" fill="white">
<path fill-rule="evenodd" clip-rule="evenodd" d="M5.6665 23.8998C5.6665 13.2465 14.3027 4.61035 24.956 4.61035H106.831C113.459 4.61035 118.831 9.98294 118.831 16.6104V62.4788C118.831 73.1321 127.468 81.7683 138.121 81.7683H183.989C190.617 81.7683 195.989 87.1409 195.989 93.7683V142H182.578L188.562 135.865C195.408 128.847 195.408 117.468 188.562 110.45C181.716 103.432 170.616 103.432 163.77 110.45L128.333 146.777C121.487 153.795 121.487 165.174 128.333 172.192C128.872 172.745 129.437 173.254 130.024 173.719L163.087 207.612C169.888 214.585 180.916 214.585 187.717 207.612C194.519 200.64 194.519 189.335 187.717 182.362L182.486 177H195.989V232.226C195.989 242.88 187.353 251.516 176.7 251.516H24.956C14.3027 251.516 5.6665 242.88 5.6665 232.226V23.8998Z"/>
</mask>
<path d="M195.989 142V162H215.989V142H195.989ZM182.578 142L168.261 128.034L135.128 162H182.578V142ZM188.562 135.865L202.879 149.831L202.879 149.831L188.562 135.865ZM163.77 110.45L178.087 124.415L178.087 124.415L163.77 110.45ZM128.333 146.777L114.017 132.812L114.017 132.812L128.333 146.777ZM128.333 172.192L142.65 158.227L142.65 158.227L128.333 172.192ZM130.024 173.719L144.341 159.754L143.448 158.838L142.445 158.044L130.024 173.719ZM163.087 207.612L177.403 193.647L177.403 193.647L163.087 207.612ZM187.717 182.362L202.034 168.397L202.034 168.397L187.717 182.362ZM182.486 177V157H135.037L168.17 190.965L182.486 177ZM195.989 177H215.989V157H195.989V177ZM24.956 -15.3896C3.257 -15.3896 -14.3335 2.20085 -14.3335 23.8998H25.6665C25.6665 24.2922 25.3484 24.6104 24.956 24.6104V-15.3896ZM106.831 -15.3896H24.956V24.6104H106.831V-15.3896ZM138.831 16.6104C138.831 -1.06274 124.505 -15.3896 106.831 -15.3896V24.6104C102.413 24.6104 98.8315 21.0286 98.8315 16.6104H138.831ZM138.831 62.4788V16.6104H98.8315V62.4788H138.831ZM138.121 61.7683C138.513 61.7683 138.831 62.0864 138.831 62.4788H98.8315C98.8315 84.1778 116.422 101.768 138.121 101.768V61.7683ZM183.989 61.7683H138.121V101.768H183.989V61.7683ZM215.989 93.7683C215.989 76.0952 201.663 61.7683 183.989 61.7683V101.768C179.571 101.768 175.989 98.1865 175.989 93.7683H215.989ZM215.989 142V93.7683H175.989V142H215.989ZM195.989 122H182.578V162H195.989V122ZM196.894 155.965L202.879 149.831L174.245 121.899L168.261 128.034L196.894 155.965ZM202.879 149.831C217.303 135.044 217.303 111.271 202.879 96.4842L174.245 124.415C173.83 123.989 173.697 123.491 173.697 123.157C173.697 122.824 173.83 122.326 174.245 121.9L202.879 149.831ZM202.879 96.4842C188.184 81.42 164.148 81.42 149.453 96.4842L178.087 124.415C177.647 124.866 176.926 125.186 176.166 125.186C175.406 125.186 174.685 124.866 174.245 124.415L202.879 96.4842ZM149.453 96.4842L114.017 132.812L142.65 160.743L178.087 124.415L149.453 96.4842ZM114.017 132.812C99.5927 147.598 99.5926 171.371 114.017 186.158L142.65 158.227C143.065 158.653 143.199 159.152 143.199 159.485C143.199 159.818 143.065 160.317 142.65 160.743L114.017 132.812ZM114.017 186.158C115.15 187.32 116.348 188.4 117.604 189.395L142.445 158.044C142.526 158.108 142.594 158.17 142.65 158.227L114.017 186.158ZM115.708 187.685L148.77 221.578L177.403 193.647L144.341 159.754L115.708 187.685ZM148.77 221.578C163.42 236.596 187.384 236.596 202.034 221.578L173.401 193.647C173.863 193.173 174.612 192.842 175.402 192.842C176.192 192.842 176.941 193.173 177.403 193.647L148.77 221.578ZM202.034 221.578C216.413 206.837 216.413 183.138 202.034 168.397L173.401 196.328C172.963 195.879 172.819 195.35 172.819 194.987C172.819 194.624 172.963 194.096 173.401 193.647L202.034 221.578ZM202.034 168.397L196.803 163.034L168.17 190.965L173.401 196.328L202.034 168.397ZM182.486 197H195.989V157H182.486V197ZM215.989 232.226V177H175.989V232.226H215.989ZM176.7 271.516C198.399 271.516 215.989 253.925 215.989 232.226H175.989C175.989 231.834 176.308 231.516 176.7 231.516V271.516ZM24.956 271.516H176.7V231.516H24.956V271.516ZM-14.3335 232.226C-14.3335 253.925 3.25703 271.516 24.956 271.516V231.516C25.3484 231.516 25.6665 231.834 25.6665 232.226H-14.3335ZM-14.3335 23.8998V232.226H25.6665V23.8998H-14.3335Z" fill="white" mask="url(#path-3-inside-1_391_207)"/>
</svg>
