<svg width="256" height="256" viewBox="0 0 256 256" fill="none" xmlns="http://www.w3.org/2000/svg">
<mask id="path-1-inside-1_195_30" fill="white">
<path fill-rule="evenodd" clip-rule="evenodd" d="M69 32C60.7157 32 54 38.7157 54 47V209C54 217.284 60.7157 224 69 224H187C195.284 224 202 217.284 202 209V159H244C246.761 159 249 156.761 249 154C249 151.239 246.761 149 244 149H202V97C202 94.2386 199.761 92 197 92H157C148.716 92 142 85.2843 142 77V37C142 34.2386 139.761 32 137 32H69ZM202 149V159H160.071L183.355 182.284C185.308 184.237 185.308 187.403 183.355 189.355C181.403 191.308 178.237 191.308 176.284 189.355L144.464 157.536C142.512 155.583 142.512 152.417 144.464 150.464L176.284 118.645C178.237 116.692 181.403 116.692 183.355 118.645C185.308 120.597 185.308 123.763 183.355 125.716L160.071 149H202Z"/>
</mask>
<path d="M160.071 159V149H135.929L153 166.071L160.071 159ZM183.355 182.284L190.426 175.213L190.426 175.213L183.355 182.284ZM183.355 189.355L190.426 196.426L190.426 196.426L183.355 189.355ZM176.284 189.355L169.213 196.426L169.213 196.426L176.284 189.355ZM144.464 150.464L137.393 143.393L144.464 150.464ZM176.284 118.645L183.355 125.716H183.355L176.284 118.645ZM183.355 118.645L190.426 111.574L190.426 111.574L183.355 118.645ZM183.355 125.716L190.426 132.787L190.426 132.787L183.355 125.716ZM160.071 149L153 141.929L135.929 159H160.071V149ZM64 47C64 44.2386 66.2386 42 69 42V22C55.1929 22 44 33.1929 44 47H64ZM64 209V47H44V209H64ZM69 214C66.2386 214 64 211.761 64 209H44C44 222.807 55.1929 234 69 234V214ZM187 214H69V234H187V214ZM192 209C192 211.761 189.761 214 187 214V234C200.807 234 212 222.807 212 209H192ZM192 159V209H212V159H192ZM244 149H202V169H244V149ZM239 154C239 151.239 241.239 149 244 149V169C252.284 169 259 162.284 259 154H239ZM244 159C241.239 159 239 156.761 239 154H259C259 145.716 252.284 139 244 139V159ZM202 159H244V139H202V159ZM192 97V149H212V97H192ZM197 102C194.239 102 192 99.7614 192 97H212C212 88.7157 205.284 82 197 82V102ZM157 102H197V82H157V102ZM132 77C132 90.8071 143.193 102 157 102V82C154.239 82 152 79.7614 152 77H132ZM132 37V77H152V37H132ZM137 42C134.239 42 132 39.7614 132 37H152C152 28.7157 145.284 22 137 22V42ZM69 42H137V22H69V42ZM212 159V149H192V159H212ZM160.071 169H202V149H160.071V169ZM190.426 175.213L167.142 151.929L153 166.071L176.284 189.355L190.426 175.213ZM190.426 196.426C196.284 190.569 196.284 181.071 190.426 175.213L176.284 189.355C174.332 187.403 174.332 184.237 176.284 182.284L190.426 196.426ZM169.213 196.426C175.071 202.284 184.569 202.284 190.426 196.426L176.284 182.284C178.237 180.332 181.403 180.332 183.355 182.284L169.213 196.426ZM137.393 164.607L169.213 196.426L183.355 182.284L151.536 150.464L137.393 164.607ZM137.393 143.393C131.536 149.251 131.536 158.749 137.393 164.607L151.536 150.464C153.488 152.417 153.488 155.583 151.536 157.536L137.393 143.393ZM169.213 111.574L137.393 143.393L151.536 157.536L183.355 125.716L169.213 111.574ZM190.426 111.574C184.569 105.716 175.071 105.716 169.213 111.574L183.355 125.716C181.403 127.668 178.237 127.668 176.284 125.716L190.426 111.574ZM190.426 132.787C196.284 126.929 196.284 117.431 190.426 111.574L176.284 125.716C174.332 123.763 174.332 120.597 176.284 118.645L190.426 132.787ZM167.142 156.071L190.426 132.787L176.284 118.645L153 141.929L167.142 156.071ZM202 139H160.071V159H202V139Z" fill="white" mask="url(#path-1-inside-1_195_30)"/>
<path d="M155 74V44.0711L189.929 79H160C157.239 79 155 76.7614 155 74Z" stroke="white" stroke-width="10"/>
</svg>
