<svg width="256" height="256" viewBox="0 0 256 256" fill="none" xmlns="http://www.w3.org/2000/svg">
<mask id="path-1-inside-1_195_30" fill="white">
<path fill-rule="evenodd" clip-rule="evenodd" d="M69 32C60.7157 32 54 38.7157 54 47V209C54 217.284 60.7157 224 69 224H187C195.284 224 202 217.284 202 209V159H244C246.761 159 249 156.761 249 154C249 151.239 246.761 149 244 149H202V97C202 94.2386 199.761 92 197 92H157C148.716 92 142 85.2843 142 77V37C142 34.2386 139.761 32 137 32H69ZM202 149H160.071L183.355 125.716C185.308 123.763 185.308 120.597 183.355 118.645C181.403 116.692 178.237 116.692 176.284 118.645L144.464 150.464C142.512 152.417 142.512 155.583 144.464 157.536L176.284 189.355C178.237 191.308 181.403 191.308 183.355 189.355C185.308 187.403 185.308 184.237 183.355 182.284L160.071 159H202V149ZM150 36.8284C150 35.0466 152.154 34.1543 153.414 35.4142L198.586 80.5858C199.846 81.8457 198.953 84 197.172 84H160C154.477 84 150 79.5228 150 74V36.8284Z"/>
</mask>
<path d="M160.071 149L154.414 143.343L140.757 157H160.071V149ZM183.355 125.716L189.012 131.373L189.012 131.373L183.355 125.716ZM183.355 118.645L189.012 112.988L189.012 112.988L183.355 118.645ZM176.284 118.645L181.941 124.302L176.284 118.645ZM144.464 150.464L138.808 144.808L144.464 150.464ZM176.284 189.355L170.627 195.012L170.627 195.012L176.284 189.355ZM183.355 189.355L189.012 195.012L189.012 195.012L183.355 189.355ZM183.355 182.284L189.012 176.627L189.012 176.627L183.355 182.284ZM160.071 159V151H140.757L154.414 164.657L160.071 159ZM153.414 35.4142L159.071 29.7574L159.071 29.7574L153.414 35.4142ZM198.586 80.5858L204.243 74.929L204.243 74.9289L198.586 80.5858ZM62 47C62 43.134 65.134 40 69 40V24C56.2975 24 46 34.2975 46 47H62ZM62 209V47H46V209H62ZM69 216C65.134 216 62 212.866 62 209H46C46 221.703 56.2975 232 69 232V216ZM187 216H69V232H187V216ZM194 209C194 212.866 190.866 216 187 216V232C199.703 232 210 221.703 210 209H194ZM194 159V209H210V159H194ZM202 167H244V151H202V167ZM244 167C251.18 167 257 161.18 257 154H241C241 152.343 242.343 151 244 151V167ZM257 154C257 146.82 251.18 141 244 141V157C242.343 157 241 155.657 241 154H257ZM244 141H202V157H244V141ZM194 97V149H210V97H194ZM197 100C195.343 100 194 98.6569 194 97H210C210 89.8203 204.18 84 197 84V100ZM157 100H197V84H157V100ZM134 77C134 89.7025 144.297 100 157 100V84C153.134 84 150 80.866 150 77H134ZM134 37V77H150V37H134ZM137 40C135.343 40 134 38.6568 134 37H150C150 29.8203 144.18 24 137 24V40ZM69 40H137V24H69V40ZM202 141H160.071V157H202V141ZM165.728 154.657L189.012 131.373L177.698 120.059L154.414 143.343L165.728 154.657ZM189.012 131.373C194.089 126.296 194.089 118.065 189.012 112.988L177.698 124.301C176.527 123.13 176.527 121.23 177.698 120.059L189.012 131.373ZM189.012 112.988C183.935 107.911 175.704 107.911 170.627 112.988L181.941 124.302C180.77 125.473 178.87 125.473 177.699 124.302L189.012 112.988ZM170.627 112.988L138.808 144.808L150.121 156.121L181.941 124.302L170.627 112.988ZM138.808 144.808C133.731 149.884 133.731 158.116 138.808 163.192L150.121 151.879C151.293 153.05 151.293 154.95 150.121 156.121L138.808 144.808ZM138.808 163.192L170.627 195.012L181.941 183.698L150.121 151.879L138.808 163.192ZM170.627 195.012C175.704 200.089 183.935 200.089 189.012 195.012L177.699 183.698C178.87 182.527 180.77 182.527 181.941 183.698L170.627 195.012ZM189.012 195.012C194.089 189.935 194.089 181.704 189.012 176.627L177.698 187.941C176.527 186.77 176.527 184.87 177.698 183.699L189.012 195.012ZM189.012 176.627L165.728 153.343L154.414 164.657L177.698 187.941L189.012 176.627ZM160.071 167H202V151H160.071V167ZM194 149V159H210V149H194ZM159.071 29.7574C152.771 23.4577 142 27.9194 142 36.8284H158C158 42.1739 151.537 44.8508 147.757 41.0711L159.071 29.7574ZM204.243 74.9289L159.071 29.7574L147.757 41.0711L192.929 86.2426L204.243 74.9289ZM197.172 92C206.081 92 210.542 81.2285 204.243 74.929L192.929 86.2426C189.149 82.4629 191.826 76 197.172 76V92ZM160 92H197.172V76H160V92ZM142 74C142 83.9411 150.059 92 160 92V76C158.895 76 158 75.1046 158 74H142ZM142 36.8284V74H158V36.8284H142Z" fill="white" mask="url(#path-1-inside-1_195_30)"/>
</svg>
