<svg width="256" height="256" viewBox="0 0 256 256" fill="none" xmlns="http://www.w3.org/2000/svg">
<mask id="path-1-inside-1_710_559" fill="white">
<path d="M240.593 19C247.073 19 250.865 26.3019 247.137 31.6025L161.365 153.56C161.128 153.897 161 154.299 161 154.711V229.767C161 232.681 157.983 234.617 155.333 233.402L98.5005 207.354C96.3678 206.377 95.0005 204.245 95.0005 201.899V154.711C95.0005 154.299 94.8733 153.897 94.6364 153.56L8.86279 31.6025C5.1349 26.3019 8.92651 19 15.4067 19H240.593Z"/>
</mask>
<path d="M240.593 19L240.593 -3H240.593V19ZM247.137 31.6025L265.132 44.2585V44.2585L247.137 31.6025ZM161 229.767L183 229.767V229.767H161ZM155.333 233.402L164.5 213.403L164.5 213.403L155.333 233.402ZM98.5005 207.354L89.3341 227.354L89.3343 227.354L98.5005 207.354ZM8.86279 31.6025L-9.13239 44.2585L-9.13232 44.2586L8.86279 31.6025ZM15.4067 19V-3H15.4067L15.4067 19ZM94.6364 153.56L76.6413 166.217L94.6364 153.56ZM161.365 153.56L143.369 140.904L161.365 153.56ZM240.593 19L240.593 41C229.253 41 222.618 28.2229 229.142 18.9466L247.137 31.6025L265.132 44.2585C279.112 24.3809 264.894 -2.99991 240.593 -3L240.593 19ZM247.137 31.6025L229.142 18.9466L143.369 140.904L161.365 153.56L179.36 166.216L265.132 44.2585L247.137 31.6025ZM161 154.711H139V229.767H161H183V154.711H161ZM161 229.767L139 229.766C139.001 216.645 152.583 207.941 164.5 213.403L155.333 233.402L146.167 253.402C163.383 261.293 183 248.718 183 229.767L161 229.767ZM155.333 233.402L164.5 213.403L107.667 187.355L98.5005 207.354L89.3343 227.354L146.167 253.402L155.333 233.402ZM98.5005 207.354L107.667 187.355C113.357 189.963 117 195.647 117 201.899H95.0005H73.0005C73.0005 212.844 79.3784 222.791 89.3341 227.354L98.5005 207.354ZM95.0005 201.899H117V154.711H95.0005H73.0005V201.899H95.0005ZM94.6364 153.56L112.632 140.904L26.8579 18.9465L8.86279 31.6025L-9.13232 44.2586L76.6413 166.217L94.6364 153.56ZM8.86279 31.6025L26.858 18.9466C33.382 28.2229 26.7468 41 15.4068 41L15.4067 19L15.4067 -3C-8.89382 -2.99992 -23.1122 24.381 -9.13239 44.2585L8.86279 31.6025ZM15.4067 19V41H240.593V19V-3H15.4067V19ZM95.0005 154.711H117C117 149.769 115.475 144.947 112.632 140.904L94.6364 153.56L76.6413 166.217C74.272 162.848 73.0005 158.83 73.0005 154.711H95.0005ZM161.365 153.56L143.369 140.904C140.526 144.947 139 149.769 139 154.711H161H183C183 158.829 181.729 162.848 179.36 166.216L161.365 153.56Z" fill="white" mask="url(#path-1-inside-1_710_559)"/>
<path d="M196 41V39H215V66.5H195.7L210.207 45.7171C211.595 43.7285 210.173 41 207.747 41H196Z" fill="white"/>
<path d="M60 41V39H41V66.5H60.3L45.7927 45.7171C44.4046 43.7285 45.8274 41 48.2527 41H60Z" fill="white"/>
<path d="M117 186V189.713C117 190.888 117.685 191.954 118.753 192.442L127 196.209V198.5H115V186H117Z" fill="white"/>
<path d="M140 195C139.448 195 139 195.448 139 196V200.094C139 200.82 138.251 201.304 137.589 201.006L130.411 197.773C129.749 197.475 129 197.959 129 198.685V206.5C129 207.052 129.448 207.5 130 207.5H140C140.552 207.5 141 207.052 141 206.5V196C141 195.448 140.552 195 140 195Z" fill="white"/>
</svg>
