<svg width="256" height="256" viewBox="0 0 256 256" fill="none" xmlns="http://www.w3.org/2000/svg">
<g clip-path="url(#clip0_370_76)">
<path d="M12.4389 34.6022L3.44135 40.9302L3.44135 40.9302L12.4389 34.6022ZM95.9219 153.304H106.922V149.824L104.919 146.976L95.9219 153.304ZM99.422 205.137L104.005 195.137L104.005 195.137L99.422 205.137ZM154.411 230.341L158.995 220.341L158.995 220.341L154.411 230.341ZM160.078 153.304L151.08 146.976L149.078 149.824V153.304H160.078ZM243.561 34.6022L234.563 28.2742L234.563 28.2742L243.561 34.6022ZM21.4365 28.2742C22.8345 30.2619 21.4128 33 18.9826 33V11C3.59204 11 -5.41239 28.3412 3.44135 40.9302L21.4365 28.2742ZM104.919 146.976L21.4365 28.2742L3.44135 40.9302L86.9243 159.632L104.919 146.976ZM106.922 199.683V153.304H84.9219V199.683H106.922ZM104.005 195.137C105.782 195.952 106.922 197.728 106.922 199.683H84.9219C84.9219 206.33 88.7961 212.367 94.8388 215.137L104.005 195.137ZM158.995 220.341L104.005 195.137L94.8388 215.137L149.828 240.34L158.995 220.341ZM149.078 226.704C149.078 221.604 154.358 218.216 158.995 220.341L149.828 240.34C159.764 244.894 171.078 237.634 171.078 226.704H149.078ZM149.078 153.304V226.704H171.078V153.304H149.078ZM234.563 28.2742L151.08 146.976L169.076 159.632L252.559 40.9301L234.563 28.2742ZM237.017 33C234.587 33 233.165 30.2619 234.563 28.2742L252.559 40.9302C261.412 28.3412 252.408 11 237.017 11V33ZM18.9826 33H237.017V11H18.9826V33Z" fill="white"/>
</g>
<defs>
<clipPath id="clip0_370_76">
<rect width="256" height="256" fill="white"/>
</clipPath>
</defs>
</svg>
