<svg width="256" height="256" viewBox="0 0 256 256" fill="none" xmlns="http://www.w3.org/2000/svg">
<path d="M26.8415 47.5962L30.1155 45.2981L26.8415 47.5962ZM100 151.822H104V150.558L103.274 149.524L100 151.822ZM103.456 196.868L105.152 193.245V193.245L103.456 196.868ZM149.304 218.333L147.608 221.956L149.304 218.333ZM155 151.822L151.726 149.524L151 150.558V151.822H155ZM228.158 47.5961L231.432 49.8942V49.8942L228.158 47.5961ZM30.1155 45.2981C28.2549 42.6474 30.151 39 33.3894 39V31C23.6741 31 17.9859 41.9423 23.5675 49.8942L30.1155 45.2981ZM103.274 149.524L30.1155 45.2981L23.5675 49.8942L96.726 154.12L103.274 149.524ZM104 191.434V151.822H96V191.434H104ZM105.152 193.245C104.449 192.916 104 192.21 104 191.434H96C96 195.315 98.2452 198.845 101.76 200.491L105.152 193.245ZM151 214.711L105.152 193.245L101.76 200.491L147.608 221.956L151 214.711ZM151 214.711V214.711L147.608 221.956C152.913 224.439 159 220.568 159 214.711H151ZM151 151.822V214.711H159V151.822H151ZM224.884 45.2981L151.726 149.524L158.274 154.12L231.432 49.8942L224.884 45.2981ZM221.611 39C224.849 39 226.745 42.6474 224.884 45.2981L231.432 49.8942C237.014 41.9423 231.326 31 221.611 31V39ZM33.3894 39H221.611V31H33.3894V39Z" fill="white"/>
</svg>
