<svg width="256" height="256" viewBox="0 0 256 256" fill="none" xmlns="http://www.w3.org/2000/svg">
<path d="M59 40H60.9163L62.771 39.5183L76.1311 36.0481C90.1445 32.4082 104.855 32.4082 118.869 36.0481L132.229 39.5183L145.589 42.9884C162.753 47.4465 180.69 47.8688 198 44.2551V139.398L195.869 139.952C181.855 143.592 167.145 143.592 153.131 139.952L139.771 136.482L126.411 133.012C107.451 128.087 87.5485 128.087 68.5892 133.012L57.0837 136H46V40H59Z" stroke="white" stroke-width="30"/>
<path d="M29 18C29 9.71573 35.7157 3 44 3C52.2843 3 59 9.71573 59 18V238C59 246.284 52.2843 253 44 253C35.7157 253 29 246.284 29 238V18Z" fill="white"/>
</svg>
