<svg width="256" height="256" viewBox="0 0 256 256" fill="none" xmlns="http://www.w3.org/2000/svg">
<mask id="path-1-inside-1_279_34" fill="white">
<path fill-rule="evenodd" clip-rule="evenodd" d="M86.3334 5H77C70.9249 5 66 9.92487 66 16C66 22.0751 70.9249 27 77 27H86.3334V110.628L16.3927 221.888C8.43866 234.541 17.5329 251 32.4784 251H223.769C238.59 251 247.704 234.786 240.001 222.125L172.222 110.715V27H179C185.075 27 190 22.0751 190 16C190 9.92487 185.075 5 179 5H172.222H161.222H97.3334H86.3334ZM150.222 27H108.333V111.492C108.333 115.07 107.323 118.575 105.419 121.604L91.5446 143.676L92.1352 144.012C104.597 151.115 119.556 152.362 133.022 147.421C143.453 143.593 154.879 143.448 165.404 147.009L169.367 148.35L152.99 121.431C151.18 118.455 150.222 115.039 150.222 111.556V27Z"/>
</mask>
<path d="M86.3334 27H108.333V5H86.3334V27ZM86.3334 110.628L104.959 122.336L108.333 116.968V110.628H86.3334ZM16.3927 221.888L-2.2329 210.18L16.3927 221.888ZM240.001 222.125L258.796 210.69L258.796 210.69L240.001 222.125ZM172.222 110.715H150.222V116.881L153.427 122.149L172.222 110.715ZM172.222 27V5H150.222V27H172.222ZM150.222 27H172.222V5H150.222V27ZM108.333 27V5H86.3334V27H108.333ZM105.419 121.604L124.045 133.313L124.045 133.313L105.419 121.604ZM91.5446 143.676L72.9191 131.967L60.6939 151.415L80.6509 162.789L91.5446 143.676ZM92.1352 144.012L81.2415 163.126L81.2416 163.126L92.1352 144.012ZM133.022 147.421L125.444 126.767L125.444 126.767L133.022 147.421ZM165.404 147.009L158.353 167.848H158.353L165.404 147.009ZM169.367 148.35L162.316 169.189L219.585 188.566L188.162 136.915L169.367 148.35ZM152.99 121.431L171.785 109.997V109.997L152.99 121.431ZM77 27H86.3334V-17H77V27ZM88 16C88 22.0751 83.0752 27 77 27V-17C58.7747 -17 44 -2.2254 44 16H88ZM77 5C83.0752 5 88 9.92487 88 16H44C44 34.2254 58.7747 49 77 49V5ZM86.3334 5H77V49H86.3334V5ZM64.3334 27V110.628H108.333V27H64.3334ZM67.7078 98.9194L-2.2329 210.18L35.0183 233.597L104.959 122.336L67.7078 98.9194ZM-2.2329 210.18C-19.3968 237.484 0.227639 273 32.4784 273V229C34.8382 229 36.2741 231.599 35.0183 233.597L-2.2329 210.18ZM32.4784 273H223.769V229H32.4784V273ZM223.769 273C255.751 273 275.418 238.013 258.796 210.69L221.206 233.559C219.99 231.56 221.429 229 223.769 229V273ZM258.796 210.69L191.017 99.2805L153.427 122.149L221.206 233.559L258.796 210.69ZM194.222 110.715V27H150.222V110.715H194.222ZM179 5H172.222V49H179V5ZM168 16C168 9.92487 172.925 5 179 5V49C197.225 49 212 34.2254 212 16H168ZM179 27C172.925 27 168 22.0751 168 16H212C212 -2.22539 197.225 -17 179 -17V27ZM172.222 27H179V-17H172.222V27ZM161.222 27H172.222V-17H161.222V27ZM97.3334 27H161.222V-17H97.3334V27ZM86.3334 27H97.3334V-17H86.3334V27ZM150.222 5H108.333V49H150.222V5ZM130.333 111.492V27H86.3334V111.492H130.333ZM124.045 133.313C128.154 126.777 130.333 119.213 130.333 111.492H86.3334C86.3334 110.928 86.4929 110.374 86.7935 109.896L124.045 133.313ZM110.17 155.384L124.045 133.313L86.7935 109.896L72.9191 131.967L110.17 155.384ZM103.029 124.899L102.438 124.562L80.6509 162.789L81.2415 163.126L103.029 124.899ZM125.444 126.767C118.062 129.476 109.861 128.792 103.029 124.899L81.2416 163.126C99.3335 173.437 121.051 175.247 140.601 168.074L125.444 126.767ZM172.455 126.17C157.175 121 140.587 121.211 125.444 126.767L140.601 168.074C146.319 165.976 152.583 165.896 158.353 167.848L172.455 126.17ZM176.418 127.51L172.455 126.17L158.353 167.848L162.316 169.189L176.418 127.51ZM134.195 132.865L150.572 159.784L188.162 136.915L171.785 109.997L134.195 132.865ZM128.222 111.556C128.222 119.072 130.288 126.444 134.195 132.865L171.785 109.997C172.071 110.466 172.222 111.006 172.222 111.556H128.222ZM128.222 27V111.556H172.222V27H128.222Z" fill="white" mask="url(#path-1-inside-1_279_34)"/>
</svg>
