<svg width="256" height="256" viewBox="0 0 256 256" fill="none" xmlns="http://www.w3.org/2000/svg">
<path d="M11 48C11 36.9543 19.9543 28 31 28H100.268C105.721 28 110.938 30.2266 114.71 34.1643L125.751 45.6889C129.523 49.6266 134.74 51.8532 140.193 51.8532H225C236.046 51.8532 245 60.8075 245 71.8532V208C245 219.046 236.046 228 225 228H31C19.9543 228 11 219.046 11 208V48Z" stroke="white" stroke-width="22"/>
<path fill-rule="evenodd" clip-rule="evenodd" d="M128 65C119.91 65 113.352 71.5583 113.352 79.6484V125.352H67.6484C59.5583 125.352 53 131.91 53 140C53 148.09 59.5583 154.648 67.6484 154.648H113.352V200.352C113.352 208.442 119.91 215 128 215C136.09 215 142.648 208.442 142.648 200.352V154.648H188.352C196.442 154.648 203 148.09 203 140C203 131.91 196.442 125.352 188.352 125.352H142.648V79.6484C142.648 71.5583 136.09 65 128 65Z" fill="white"/>
</svg>
