<svg width="256" height="256" viewBox="0 0 256 256" fill="none" xmlns="http://www.w3.org/2000/svg">
<path d="M11 48C11 36.9543 19.9543 28 31 28H100.268C105.721 28 110.938 30.2266 114.71 34.1643L125.751 45.6889C129.523 49.6266 134.74 51.8532 140.193 51.8532H225C236.046 51.8532 245 60.8075 245 71.8532V208C245 219.046 236.046 228 225 228H31C19.9543 228 11 219.046 11 208V48Z" stroke="white" stroke-width="22"/>
<path d="M53 140C53 131.91 59.5583 125.352 67.6484 125.352H188.352C196.442 125.352 203 131.91 203 140V140C203 148.09 196.442 154.648 188.352 154.648H67.6484C59.5583 154.648 53 148.09 53 140V140Z" fill="white"/>
</svg>
