<svg width="256" height="256" viewBox="0 0 256 256" fill="none" xmlns="http://www.w3.org/2000/svg">
<path d="M53 53V57H57V53H53ZM53 82H57V78H53V82ZM53 173V177H57V173H53ZM53 202H57V198H53V202ZM82 202V198H78V202H82ZM173 202H177V198H173V202ZM202 202V198H198V202H202ZM202 173H198V177H202V173ZM202 82V78H198V82H202ZM202 53H198V57H202V53ZM173 53V57H177V53H173ZM82 53H78V57H82V53ZM173 173V177H177V173H173ZM173 82H177V78H173V82ZM82 82V78H78V82H82ZM82 173H78V177H82V173ZM57 21C57 17.6863 59.6863 15 63 15V7C55.268 7 49 13.268 49 21H57ZM57 53V21H49V53H57ZM21 57H53V49H21V57ZM15 63C15 59.6863 17.6863 57 21 57V49C13.268 49 7 55.268 7 63H15ZM15 72V63H7V72H15ZM21 78C17.6863 78 15 75.3137 15 72H7C7 79.732 13.268 86 21 86V78ZM53 78H21V86H53V78ZM57 173V82H49V173H57ZM21 177H53V169H21V177ZM15 183C15 179.686 17.6863 177 21 177V169C13.268 169 7 175.268 7 183H15ZM15 192V183H7V192H15ZM21 198C17.6863 198 15 195.314 15 192H7C7 199.732 13.268 206 21 206V198ZM53 198H21V206H53V198ZM57 234V202H49V234H57ZM63 240C59.6863 240 57 237.314 57 234H49C49 241.732 55.268 248 63 248V240ZM72 240H63V248H72V240ZM78 234C78 237.314 75.3137 240 72 240V248C79.732 248 86 241.732 86 234H78ZM78 202V234H86V202H78ZM173 198L82 198V206L173 206V198ZM177 234V202H169V234H177ZM183 240C179.686 240 177 237.314 177 234H169C169 241.732 175.268 248 183 248V240ZM192 240H183V248H192V240ZM198 234C198 237.314 195.314 240 192 240V248C199.732 248 206 241.732 206 234H198ZM198 202V234H206V202H198ZM234 198H202V206H234V198ZM240 192C240 195.314 237.314 198 234 198V206C241.732 206 248 199.732 248 192H240ZM240 183V192H248V183H240ZM234 177C237.314 177 240 179.686 240 183H248C248 175.268 241.732 169 234 169V177ZM202 177H234V169H202V177ZM198 82V173H206V82H198ZM234 78H202V86H234V78ZM240 72C240 75.3137 237.314 78 234 78V86C241.732 86 248 79.732 248 72H240ZM240 63V72H248V63H240ZM234 57C237.314 57 240 59.6863 240 63H248C248 55.268 241.732 49 234 49V57ZM202 57H234V49H202V57ZM198 21V53H206V21H198ZM192 15C195.314 15 198 17.6863 198 21H206C206 13.268 199.732 7 192 7V15ZM183 15H192V7H183V15ZM177 21C177 17.6863 179.686 15 183 15V7C175.268 7 169 13.268 169 21H177ZM177 53V21H169V53H177ZM82 57L173 57V49L82 49V57ZM78 21V53H86V21H78ZM72 15C75.3137 15 78 17.6863 78 21H86C86 13.268 79.732 7 72 7V15ZM63 15H72V7H63V15ZM177 173V82H169V173H177ZM173 78L82 78V86L173 86V78ZM78 82V173H86V82H78ZM82 177L173 177V169L82 169V177Z" fill="white"/>
</svg>
