<svg width="256" height="256" viewBox="0 0 256 256" fill="none" xmlns="http://www.w3.org/2000/svg">
  <mask id="path-2-inside-1_31_300" fill="white">
    <path fill-rule="evenodd" clip-rule="evenodd" d="M72 21L27 21C24.2386 21 22 23.2386 22 26L22 71C22 73.7614 24.2386 76 27 76C28.0292 76 28.9858 75.689 29.7809 75.1559L29.7908 75.556L49.6379 55.709L113.974 120.045C115.927 121.998 119.093 121.998 121.045 120.045C122.998 118.093 122.998 114.927 121.045 112.974L56.709 48.6379L77.5559 27.7909L76.678 27.7692C76.8861 27.2192 77 26.6229 77 26C77 23.2386 74.7614 21 72 21ZM230.019 21L185.019 21C182.258 21 180.019 23.2386 180.019 26C180.019 27.025 180.328 27.978 180.857 28.7712L180.06 28.7909L200.109 48.8397L135.974 112.974C134.022 114.927 134.022 118.093 135.974 120.045C137.927 121.998 141.093 121.998 143.045 120.045L207.18 55.9107L227.825 76.556L227.851 75.5066C228.507 75.8228 229.242 76 230.019 76C232.781 76 235.019 73.7614 235.019 71V26C235.019 23.2386 232.781 21 230.019 21ZM235.269 231.019V186.019C235.269 183.258 233.03 181.019 230.269 181.019C229.387 181.019 228.559 181.247 227.84 181.648L227.825 181.06L207.603 201.282L143.294 136.974C141.342 135.022 138.176 135.022 136.223 136.974C134.271 138.927 134.271 142.093 136.223 144.045L200.532 208.353L180.06 228.825L180.766 228.843C180.447 229.501 180.269 230.239 180.269 231.019C180.269 233.781 182.507 236.019 185.269 236.019H230.269C233.03 236.019 235.269 233.781 235.269 231.019ZM22.2493 231.019L22.2493 186.019C22.2493 183.258 24.4878 181.019 27.2493 181.019C28.1706 181.019 29.0337 181.269 29.7749 181.703L29.7908 181.06L49.9642 201.233L114.223 136.974C116.176 135.022 119.342 135.022 121.294 136.974C123.247 138.927 123.247 142.093 121.294 144.045L57.0352 208.304L77.5559 228.825L76.753 228.845C77.071 229.502 77.2493 230.24 77.2493 231.019C77.2493 233.781 75.0107 236.019 72.2493 236.019H27.2493C24.4878 236.019 22.2493 233.781 22.2493 231.019Z"/>
  </mask>
  <path d="M27 21L27 13H27V21ZM72 21V29V21ZM22 26H14V26L22 26ZM22 71H30H22ZM29.7809 75.1559L37.7785 74.9577L37.4178 60.4038L25.3258 68.5112L29.7809 75.1559ZM29.7908 75.556L21.7933 75.7542L22.2555 94.405L35.4477 81.2128L29.7908 75.556ZM49.6379 55.709L55.2947 50.0521L49.6379 44.3952L43.981 50.0521L49.6379 55.709ZM113.974 120.045L119.631 114.388L113.974 120.045ZM121.045 112.974L115.388 118.631L121.045 112.974ZM56.709 48.6379L51.0521 42.981L45.3952 48.6379L51.0521 54.2947L56.709 48.6379ZM77.5559 27.7909L83.2127 33.4478L96.4049 20.2556L77.7541 19.7934L77.5559 27.7909ZM76.678 27.7692L69.1957 24.938L65.2039 35.4873L76.4798 35.7667L76.678 27.7692ZM185.019 21V29V21ZM230.019 21V13V21ZM180.857 28.7712L181.055 36.7687L195.569 36.4091L187.512 24.3316L180.857 28.7712ZM180.06 28.7909L179.862 20.7934L161.211 21.2556L174.403 34.4478L180.06 28.7909ZM200.109 48.8397L205.765 54.4965L211.422 48.8397L205.765 43.1828L200.109 48.8397ZM135.974 112.974L141.631 118.631L135.974 112.974ZM143.045 120.045L137.388 114.388L143.045 120.045ZM207.18 55.9107L212.837 50.2539L207.18 44.597L201.523 50.2539L207.18 55.9107ZM227.825 76.556L222.168 82.2128L235.36 95.4051L235.822 76.7541L227.825 76.556ZM227.851 75.5066L231.325 68.3002L220.16 62.9186L219.853 75.3085L227.851 75.5066ZM227.84 181.648L219.842 181.846L220.17 195.076L231.732 188.637L227.84 181.648ZM227.825 181.06L235.822 180.862L235.36 162.211L222.168 175.403L227.825 181.06ZM207.603 201.282L201.946 206.939L207.603 212.596L213.26 206.939L207.603 201.282ZM200.532 208.353L206.188 214.01L211.845 208.353L206.188 202.697L200.532 208.353ZM180.06 228.825L174.403 223.168L161.211 236.36L179.862 236.823L180.06 228.825ZM180.766 228.843L187.966 232.33L193.379 221.153L180.964 220.845L180.766 228.843ZM22.2493 186.019H30.2493H22.2493ZM22.2493 231.019H14.2493H22.2493ZM29.7749 181.703L25.728 188.604L37.4362 195.47L37.7725 181.901L29.7749 181.703ZM29.7908 181.06L35.4477 175.403L22.2555 162.211L21.7933 180.862L29.7908 181.06ZM49.9642 201.233L44.3073 206.89L49.9642 212.547L55.621 206.89L49.9642 201.233ZM114.223 136.974L119.88 142.631L114.223 136.974ZM121.294 144.045L115.638 138.388L121.294 144.045ZM57.0352 208.304L51.3784 202.648L45.7215 208.304L51.3784 213.961L57.0352 208.304ZM77.5559 228.825L77.7541 236.823L96.4049 236.36L83.2127 223.168L77.5559 228.825ZM76.753 228.845L76.5548 220.847L64.147 221.155L69.5512 232.328L76.753 228.845ZM27 29L72 29V13L27 13L27 29ZM30 26C30 27.6569 28.6569 29 27 29V13C19.8203 13 14 18.8203 14 26H30ZM30 71L30 26L14 26L14 71H30ZM27 68C28.6569 68 30 69.3431 30 71H14C14 78.1797 19.8203 84 27 84V68ZM25.3258 68.5112C25.8073 68.1884 26.3938 68 27 68V84C29.6647 84 32.1643 83.1897 34.2361 81.8006L25.3258 68.5112ZM37.7884 75.3578L37.7785 74.9577L21.7834 75.3541L21.7933 75.7542L37.7884 75.3578ZM43.981 50.0521L24.134 69.8991L35.4477 81.2128L55.2947 61.3658L43.981 50.0521ZM119.631 114.388L55.2947 50.0521L43.981 61.3658L108.317 125.702L119.631 114.388ZM115.388 114.388C116.56 113.217 118.459 113.217 119.631 114.388L108.317 125.702C113.394 130.779 121.625 130.779 126.702 125.702L115.388 114.388ZM115.388 118.631C114.217 117.459 114.217 115.56 115.388 114.388L126.702 125.702C131.779 120.625 131.779 112.394 126.702 107.317L115.388 118.631ZM51.0521 54.2947L115.388 118.631L126.702 107.317L62.3658 42.981L51.0521 54.2947ZM71.899 22.1341L51.0521 42.981L62.3658 54.2947L83.2127 33.4478L71.899 22.1341ZM76.4798 35.7667L77.3577 35.7885L77.7541 19.7934L76.8762 19.7716L76.4798 35.7667ZM69 26C69 25.6408 69.0668 25.2787 69.1957 24.938L84.1602 30.6004C84.7054 29.1597 85 27.605 85 26H69ZM72 29C70.3431 29 69 27.6569 69 26H85C85 18.8203 79.1797 13 72 13V29ZM185.019 29L230.019 29V13L185.019 13V29ZM188.019 26C188.019 27.6568 186.676 29 185.019 29V13C177.84 13 172.019 18.8203 172.019 26H188.019ZM187.512 24.3316C187.833 24.8121 188.019 25.3964 188.019 26H172.019C172.019 28.6537 172.823 31.1439 174.202 33.2107L187.512 24.3316ZM180.258 36.7885L181.055 36.7687L180.659 20.7736L179.862 20.7934L180.258 36.7885ZM205.765 43.1828L185.717 23.1341L174.403 34.4478L194.452 54.4965L205.765 43.1828ZM141.631 118.631L205.765 54.4965L194.452 43.1828L130.317 107.317L141.631 118.631ZM141.631 114.388C142.803 115.56 142.803 117.459 141.631 118.631L130.317 107.317C125.24 112.394 125.24 120.625 130.317 125.702L141.631 114.388ZM137.388 114.388C138.56 113.217 140.459 113.217 141.631 114.388L130.317 125.702C135.394 130.779 143.625 130.779 148.702 125.702L137.388 114.388ZM201.523 50.2539L137.388 114.388L148.702 125.702L212.837 61.5676L201.523 50.2539ZM233.482 70.8991L212.837 50.2539L201.523 61.5676L222.168 82.2128L233.482 70.8991ZM219.853 75.3085L219.827 76.3578L235.822 76.7541L235.848 75.7048L219.853 75.3085ZM230.019 68C230.471 68 230.92 68.1053 231.325 68.3002L224.377 82.7131C226.093 83.5403 228.014 84 230.019 84V68ZM227.019 71C227.019 69.3432 228.362 68 230.019 68V84C237.199 84 243.019 78.1797 243.019 71H227.019ZM227.019 26V71H243.019V26H227.019ZM230.019 29C228.362 29 227.019 27.6568 227.019 26H243.019C243.019 18.8203 237.199 13 230.019 13V29ZM227.269 186.019V231.019H243.269V186.019H227.269ZM230.269 189.019C228.612 189.019 227.269 187.676 227.269 186.019H243.269C243.269 178.84 237.448 173.019 230.269 173.019V189.019ZM231.732 188.637C231.291 188.883 230.784 189.019 230.269 189.019V173.019C227.99 173.019 225.826 173.612 223.947 174.659L231.732 188.637ZM235.837 181.45L235.822 180.862L219.827 181.258L219.842 181.846L235.837 181.45ZM222.168 175.403L201.946 195.626L213.26 206.939L233.482 186.717L222.168 175.403ZM137.638 142.631L201.946 206.939L213.26 195.626L148.951 131.317L137.638 142.631ZM141.88 142.631C140.709 143.803 138.809 143.803 137.638 142.631L148.951 131.317C143.875 126.24 135.643 126.24 130.567 131.317L141.88 142.631ZM141.88 138.388C143.052 139.56 143.052 141.459 141.88 142.631L130.567 131.317C125.49 136.394 125.49 144.625 130.567 149.702L141.88 138.388ZM206.188 202.697L141.88 138.388L130.567 149.702L194.875 214.01L206.188 202.697ZM194.875 202.697L174.403 223.168L185.717 234.482L206.188 214.01L194.875 202.697ZM179.862 236.823L180.568 236.84L180.964 220.845L180.258 220.828L179.862 236.823ZM188.269 231.019C188.269 231.473 188.162 231.924 187.966 232.33L173.566 225.356C172.732 227.077 172.269 229.005 172.269 231.019H188.269ZM185.269 228.019C186.925 228.019 188.269 229.362 188.269 231.019H172.269C172.269 238.199 178.089 244.019 185.269 244.019V228.019ZM230.269 228.019H185.269V244.019H230.269V228.019ZM227.269 231.019C227.269 229.362 228.612 228.019 230.269 228.019V244.019C237.448 244.019 243.269 238.199 243.269 231.019H227.269ZM14.2493 186.019L14.2493 231.019H30.2493L30.2493 186.019H14.2493ZM27.2493 173.019C20.0696 173.019 14.2493 178.84 14.2493 186.019H30.2493C30.2493 187.676 28.9061 189.019 27.2493 189.019V173.019ZM33.8218 174.802C31.8868 173.668 29.6316 173.019 27.2493 173.019V189.019C26.7096 189.019 26.1806 188.87 25.728 188.604L33.8218 174.802ZM21.7933 180.862L21.7774 181.505L37.7725 181.901L37.7884 181.258L21.7933 180.862ZM55.621 195.577L35.4477 175.403L24.134 186.717L44.3073 206.89L55.621 195.577ZM108.567 131.317L44.3073 195.577L55.621 206.89L119.88 142.631L108.567 131.317ZM126.951 131.317C121.875 126.24 113.643 126.24 108.567 131.317L119.88 142.631C118.709 143.803 116.809 143.803 115.638 142.631L126.951 131.317ZM126.951 149.702C132.028 144.625 132.028 136.394 126.951 131.317L115.638 142.631C114.466 141.459 114.466 139.56 115.638 138.388L126.951 149.702ZM62.6921 213.961L126.951 149.702L115.638 138.388L51.3784 202.648L62.6921 213.961ZM83.2127 223.168L62.6921 202.648L51.3784 213.961L71.899 234.482L83.2127 223.168ZM76.9512 236.843L77.7541 236.823L77.3577 220.828L76.5548 220.847L76.9512 236.843ZM85.2493 231.019C85.2493 229.008 84.7868 227.082 83.9549 225.362L69.5512 232.328C69.3552 231.923 69.2493 231.472 69.2493 231.019H85.2493ZM72.2493 244.019C79.429 244.019 85.2493 238.199 85.2493 231.019H69.2493C69.2493 229.362 70.5924 228.019 72.2493 228.019V244.019ZM27.2493 244.019H72.2493V228.019H27.2493V244.019ZM14.2493 231.019C14.2493 238.199 20.0696 244.019 27.2493 244.019V228.019C28.9061 228.019 30.2493 229.362 30.2493 231.019H14.2493Z" fill="white" mask="url(#path-2-inside-1_31_300)"/>
</svg>
