<svg width="256" height="256" viewBox="0 0 256 256" fill="none" xmlns="http://www.w3.org/2000/svg">
<path fill-rule="evenodd" clip-rule="evenodd" d="M98.5642 51.1083L98.3083 51.3642L90.91 58.7625L84.5286 65.1439L78.8718 70.8007L73.2149 65.1439L14.5355 6.46447C12.5829 4.51184 9.41709 4.51184 7.46447 6.46447C5.51184 8.41709 5.51184 11.5829 7.46447 13.5355L66.1439 72.2149L71.8007 77.8718L66.1439 83.5286L58.7627 90.9098L51.8545 97.8179L51.179 98.4935L50.9538 98.7187L51.8317 98.7405C51.7512 98.9533 51.6847 99.173 51.6336 99.3985C51.5525 99.7559 51.5097 100.128 51.5097 100.51C51.5097 101.045 51.5939 101.561 51.7498 102.045C52.3977 104.055 54.2838 105.51 56.5097 105.51H101.51C104.271 105.51 106.51 103.271 106.51 100.51V55.5097C106.51 53.6889 105.536 52.0954 104.082 51.2211C103.835 51.0725 103.573 50.9447 103.301 50.8401C102.745 50.6266 102.141 50.5097 101.51 50.5097C100.791 50.5097 100.107 50.6614 99.4895 50.9346C99.3099 51.014 99.1358 51.1037 98.9681 51.2029C98.8868 51.251 98.807 51.3013 98.7287 51.3538L98.7188 50.9537L98.5642 51.1083ZM98.5097 62.4765L84.5286 76.4576L83.1144 77.8718L78.8718 82.1144L77.4576 83.5286L63.4765 97.5097H98.5097V62.4765ZM204.249 98.4116L203.738 97.9009L196.747 90.9098L190.164 84.3269L184.507 78.67L190.164 73.0131L248.642 14.5355C250.594 12.5829 250.594 9.41709 248.642 7.46447C246.689 5.51184 243.523 5.51184 241.571 7.46447L183.093 65.9421L177.436 71.5989L171.779 65.9421L164.6 58.7626L157.868 52.0304L157.115 51.2774L156.791 50.9537L156.765 52.003C156.529 51.8892 156.282 51.7934 156.027 51.7174C155.574 51.5822 155.094 51.5097 154.597 51.5097C153.907 51.5097 153.251 51.6491 152.654 51.9012C150.857 52.6594 149.597 54.4373 149.597 56.5097L149.597 101.51C149.597 104.271 151.835 106.51 154.597 106.51H199.597C201.421 106.51 203.018 105.532 203.891 104.072C204.339 103.322 204.597 102.446 204.597 101.51C204.597 100.688 204.398 99.912 204.047 99.2279C203.96 99.059 203.864 98.8956 203.759 98.7384L204.556 98.7187L204.249 98.4116ZM193.033 98.5097L178.85 84.3269L177.436 82.9126L173.194 78.67L171.779 77.2558L157.597 63.073L157.597 98.5097H193.033ZM156.992 204.355L157.394 203.953L164.6 196.747L171.356 189.991L177.013 184.334L182.67 189.991L241.321 248.642C243.274 250.595 246.44 250.595 248.392 248.642C250.345 246.689 250.345 243.524 248.392 241.571L189.741 182.92L184.084 177.263L189.741 171.606L196.747 164.6L203.831 157.515L204.337 157.01L204.556 156.791L203.85 156.773C203.926 156.616 203.994 156.455 204.054 156.289C204.244 155.76 204.347 155.191 204.347 154.597C204.347 153.904 204.207 153.245 203.952 152.645C203.192 150.854 201.416 149.597 199.347 149.597L154.347 149.597C151.586 149.597 149.347 151.835 149.347 154.597L149.347 199.597C149.347 201.565 150.484 203.267 152.137 204.083C152.804 204.412 153.554 204.597 154.347 204.597C155.077 204.597 155.77 204.441 156.395 204.16C156.525 204.101 156.652 204.037 156.776 203.968L156.791 204.556L156.992 204.355ZM157.347 192.686L171.356 178.677L172.771 177.263L177.013 173.02L178.427 171.606L192.436 157.597L157.347 157.597L157.347 192.686ZM98.7404 204.328L98.3083 203.896L91.1592 196.747L84.4517 190.04L78.7948 184.383L73.138 190.04L14.5355 248.642C12.5829 250.595 9.41709 250.595 7.46447 248.642C5.51184 246.689 5.51184 243.524 7.46447 241.571L66.0669 182.968L71.7237 177.312L66.0669 171.655L59.012 164.6L52.0268 157.615L51.4513 157.039L51.203 156.791L52.0059 156.771C51.9192 156.592 51.8429 156.407 51.7778 156.216C51.604 155.708 51.5097 155.164 51.5097 154.597C51.5097 153.905 51.65 153.247 51.9037 152.648C52.6634 150.855 54.4396 149.597 56.5097 149.597L101.51 149.597C104.271 149.597 106.51 151.835 106.51 154.597V199.597C106.51 201.525 105.418 203.199 103.819 204.033C103.128 204.393 102.343 204.597 101.51 204.597C100.754 204.597 100.037 204.429 99.3951 204.129C99.2544 204.063 99.1172 203.991 98.984 203.913L98.9681 204.556L98.7404 204.328ZM63.3226 157.597L77.3806 171.655L78.7948 173.069L83.0375 177.312L84.4517 178.726L98.5097 192.784V157.597L63.3226 157.597Z" fill="white"/>
</svg>
