<svg width="256" height="256" viewBox="0 0 256 256" fill="none" xmlns="http://www.w3.org/2000/svg">
<g clip-path="url(#clip0_252_13)">
<path d="M15.5 13C15.5 14.3807 14.3807 15.5 13 15.5V0.5C6.09644 0.5 0.5 6.09643 0.5 13H15.5ZM15.5 95.9032V13H0.5V95.9032H15.5ZM13 93.4032C14.3807 93.4032 15.5 94.5225 15.5 95.9032H0.5C0.5 102.807 6.09642 108.403 13 108.403V93.4032ZM49.4516 93.4032H13V108.403H49.4516V93.4032ZM46.9516 95.9032C46.9516 94.5225 48.0709 93.4032 49.4516 93.4032V108.403C56.3552 108.403 61.9516 102.807 61.9516 95.9032H46.9516ZM46.9516 59.4516V95.9032H61.9516V59.4516H46.9516ZM59.4516 46.9516C52.548 46.9516 46.9516 52.5481 46.9516 59.4516H61.9516C61.9516 60.8323 60.8323 61.9516 59.4516 61.9516V46.9516ZM95.9032 46.9516H59.4516V61.9516H95.9032V46.9516ZM93.4032 49.4516C93.4032 48.0709 94.5225 46.9516 95.9032 46.9516V61.9516C102.807 61.9516 108.403 56.3552 108.403 49.4516H93.4032ZM93.4032 13V49.4516H108.403V13H93.4032ZM95.9032 15.5C94.5225 15.5 93.4032 14.3807 93.4032 13H108.403C108.403 6.09645 102.807 0.5 95.9032 0.5V15.5ZM13 15.5H95.9032V0.5H13V15.5ZM162.597 13C162.597 14.3807 161.477 15.5 160.097 15.5V0.5C153.193 0.5 147.597 6.09643 147.597 13H162.597ZM162.597 49.4516V13H147.597V49.4516H162.597ZM160.097 46.9516C161.477 46.9516 162.597 48.0709 162.597 49.4516H147.597C147.597 56.3552 153.193 61.9516 160.097 61.9516V46.9516ZM196.548 46.9516H160.097V61.9516H196.548V46.9516ZM209.048 59.4516C209.048 52.548 203.452 46.9516 196.548 46.9516V61.9516C195.168 61.9516 194.048 60.8323 194.048 59.4516H209.048ZM209.048 95.9032V59.4516H194.048V95.9032H209.048ZM206.548 93.4032C207.929 93.4032 209.048 94.5225 209.048 95.9032H194.048C194.048 102.807 199.645 108.403 206.548 108.403V93.4032ZM243 93.4032H206.548V108.403H243V93.4032ZM240.5 95.9032C240.5 94.5225 241.619 93.4032 243 93.4032V108.403C249.904 108.403 255.5 102.807 255.5 95.9032H240.5ZM240.5 13V95.9032H255.5V13H240.5ZM243 15.5C241.619 15.5 240.5 14.3807 240.5 13H255.5C255.5 6.09645 249.904 0.5 243 0.5V15.5ZM160.097 15.5H243V0.5H160.097V15.5ZM194.048 196.548C194.048 195.168 195.168 194.048 196.548 194.048V209.048C203.452 209.048 209.048 203.452 209.048 196.548H194.048ZM194.048 160.097V196.548H209.048V160.097H194.048ZM206.548 147.597C199.645 147.597 194.048 153.193 194.048 160.097H209.048C209.048 161.477 207.929 162.597 206.548 162.597V147.597ZM243 147.597H206.548V162.597H243V147.597ZM255.5 160.097C255.5 153.193 249.904 147.597 243 147.597V162.597C241.619 162.597 240.5 161.477 240.5 160.097H255.5ZM255.5 243V160.097H240.5V243H255.5ZM243 255.5C249.904 255.5 255.5 249.904 255.5 243H240.5C240.5 241.619 241.619 240.5 243 240.5V255.5ZM160.097 255.5H243V240.5H160.097V255.5ZM147.597 243C147.597 249.904 153.193 255.5 160.097 255.5V240.5C161.477 240.5 162.597 241.619 162.597 243H147.597ZM147.597 206.548V243H162.597V206.548H147.597ZM160.097 194.048C153.193 194.048 147.597 199.645 147.597 206.548H162.597C162.597 207.929 161.477 209.048 160.097 209.048V194.048ZM196.548 194.048H160.097V209.048H196.548V194.048ZM15.5 160.097C15.5 161.477 14.3807 162.597 13 162.597V147.597C6.09645 147.597 0.5 153.193 0.5 160.097H15.5ZM15.5 243V160.097H0.5V243H15.5ZM13 240.5C14.3807 240.5 15.5 241.619 15.5 243H0.5C0.5 249.904 6.09644 255.5 13 255.5V240.5ZM95.9032 240.5H13V255.5H95.9032V240.5ZM93.4032 243C93.4032 241.619 94.5225 240.5 95.9032 240.5V255.5C102.807 255.5 108.403 249.904 108.403 243H93.4032ZM93.4032 206.548V243H108.403V206.548H93.4032ZM95.9032 209.048C94.5225 209.048 93.4032 207.929 93.4032 206.548H108.403C108.403 199.645 102.807 194.048 95.9032 194.048V209.048ZM59.4516 209.048H95.9032V194.048H59.4516V209.048ZM46.9516 196.548C46.9516 203.452 52.5481 209.048 59.4516 209.048V194.048C60.8323 194.048 61.9516 195.168 61.9516 196.548H46.9516ZM46.9516 160.097V196.548H61.9516V160.097H46.9516ZM49.4516 162.597C48.0709 162.597 46.9516 161.477 46.9516 160.097H61.9516C61.9516 153.193 56.3552 147.597 49.4516 147.597V162.597ZM13 162.597H49.4516V147.597H13V162.597Z" fill="white"/>
</g>
<defs>
<clipPath id="clip0_252_13">
<rect width="256" height="256" fill="white"/>
</clipPath>
</defs>
</svg>
