<svg width="256" height="256" viewBox="0 0 256 256" fill="none" xmlns="http://www.w3.org/2000/svg">
<path fill-rule="evenodd" clip-rule="evenodd" d="M29.9455 75.4013L30.2013 75.1455L37.5998 67.7471L43.981 61.3658L49.6379 55.709L55.2947 61.3658L113.974 120.045C115.927 121.998 119.093 121.998 121.045 120.045C122.998 118.093 122.998 114.927 121.045 112.974L62.3658 54.2947L56.709 48.6379L62.3658 42.981L69.747 35.5999L76.6551 28.6917L77.3307 28.0162L77.5559 27.7909L76.678 27.7692C76.7585 27.5564 76.8249 27.3367 76.8761 27.1111C76.9572 26.7538 77 26.3819 77 26C77 25.4644 76.9158 24.9485 76.7599 24.4647C76.1119 22.4544 74.2258 21 72 21L27 21C24.2386 21 22 23.2386 22 26L22 71C22 72.8208 22.9732 74.4143 24.4279 75.2886C24.6751 75.4371 24.9361 75.5649 25.2087 75.6695C25.7648 75.883 26.3687 76 27 76C27.7189 76 28.4024 75.8483 29.0202 75.5751C29.1998 75.4957 29.3739 75.406 29.5416 75.3068C29.6229 75.2587 29.7027 75.2084 29.7809 75.1559L29.7909 75.556L29.9455 75.4013ZM30 64.0331L43.981 50.0521L45.3952 48.6379L49.6379 44.3952L51.0521 42.981L65.0331 29L30 29L30 64.0331ZM194.452 54.4965L135.974 112.974C134.022 114.927 134.022 118.093 135.974 120.045C137.927 121.998 141.093 121.998 143.045 120.045L201.523 61.5676L207.18 55.9107L212.837 61.5676L220.016 68.747L226.748 75.4793L227.501 76.2322L227.825 76.556L227.851 75.5066C228.087 75.6205 228.334 75.7163 228.589 75.7923C229.042 75.9274 229.522 76 230.019 76C230.708 76 231.365 75.8606 231.962 75.6085C233.759 74.8502 235.019 73.0724 235.019 71V26C235.019 23.2386 232.781 21 230.019 21L185.019 21C183.194 21 181.598 21.9777 180.725 23.438C180.277 24.1872 180.019 25.0636 180.019 26C180.019 26.822 180.218 27.5976 180.569 28.2817C180.656 28.4507 180.752 28.6141 180.857 28.7712L180.06 28.7909L180.367 29.098L180.878 29.6087L187.869 36.5999L194.452 43.1828L200.109 48.8397L194.452 54.4965ZM191.583 29L205.765 43.1828L207.18 44.597L211.422 48.8397L212.837 50.2539L227.019 64.4367V29L191.583 29ZM213.26 195.626L207.603 201.282L201.946 195.626L143.294 136.974C141.342 135.022 138.176 135.022 136.223 136.974C134.271 138.927 134.271 142.093 136.223 144.045L194.875 202.697L200.532 208.353L194.875 214.01L187.869 221.016L180.784 228.101L180.279 228.607L180.06 228.825L180.766 228.843C180.69 229 180.622 229.162 180.562 229.327C180.372 229.856 180.269 230.425 180.269 231.019C180.269 231.712 180.409 232.371 180.664 232.971C181.424 234.762 183.199 236.019 185.269 236.019H230.269C233.03 236.019 235.269 233.781 235.269 231.019V186.019C235.269 184.051 234.132 182.349 232.479 181.533C231.812 181.204 231.062 181.019 230.269 181.019C229.539 181.019 228.846 181.176 228.221 181.456C228.091 181.515 227.964 181.579 227.84 181.648L227.825 181.06L227.624 181.261L227.222 181.663L220.016 188.869L213.26 195.626ZM227.269 192.93L213.26 206.939L211.845 208.353L207.603 212.596L206.188 214.01L192.179 228.019H227.269V192.93ZM62.6921 213.961L57.0352 208.304L62.6921 202.648L121.294 144.045C123.247 142.093 123.247 138.927 121.294 136.974C119.342 135.022 116.176 135.022 114.223 136.974L55.621 195.577L49.9642 201.233L44.3073 195.577L37.5998 188.869L30.4507 181.72L30.0185 181.288L29.7909 181.06L29.7749 181.703C29.6417 181.625 29.5045 181.553 29.3638 181.487C28.7215 181.187 28.005 181.019 27.2493 181.019C26.4163 181.019 25.6308 181.223 24.94 181.583C23.341 182.418 22.2493 184.091 22.2493 186.019L22.2493 231.019C22.2493 233.781 24.4878 236.019 27.2493 236.019H72.2493C74.3193 236.019 76.0955 234.761 76.8552 232.968C77.1089 232.369 77.2493 231.711 77.2493 231.019C77.2493 230.453 77.155 229.908 76.9812 229.4C76.916 229.209 76.8397 229.024 76.753 228.845L77.5559 228.825L77.3076 228.577L76.7321 228.001L69.747 221.016L62.6921 213.961ZM65.4364 228.019L51.3784 213.961L49.9642 212.547L45.7215 208.304L44.3073 206.89L30.2493 192.832L30.2493 228.019H65.4364Z" fill="white"/>
</svg>
