<svg width="256" height="256" viewBox="0 0 256 256" fill="none" xmlns="http://www.w3.org/2000/svg">
<g clip-path="url(#clip0_252_25)">
<path d="M93.4032 95.9032C93.4032 94.5225 94.5225 93.4032 95.9032 93.4032V108.403C102.807 108.403 108.403 102.807 108.403 95.9032H93.4032ZM93.4032 13V95.9032H108.403V13H93.4032ZM95.9032 15.5C94.5225 15.5 93.4032 14.3807 93.4032 13H108.403C108.403 6.09645 102.807 0.5 95.9032 0.5V15.5ZM59.4516 15.5H95.9032V0.5H59.4516V15.5ZM61.9516 13C61.9516 14.3807 60.8323 15.5 59.4516 15.5V0.5C52.5481 0.5 46.9516 6.09643 46.9516 13H61.9516ZM61.9516 49.4516V13H46.9516V49.4516H61.9516ZM49.4516 61.9516C56.3552 61.9516 61.9516 56.3552 61.9516 49.4516H46.9516C46.9516 48.0709 48.0709 46.9516 49.4516 46.9516V61.9516ZM13 61.9516H49.4516V46.9516H13V61.9516ZM15.5 59.4516C15.5 60.8323 14.3807 61.9516 13 61.9516V46.9516C6.09645 46.9516 0.5 52.548 0.5 59.4516H15.5ZM15.5 95.9032V59.4516H0.5V95.9032H15.5ZM13 93.4032C14.3807 93.4032 15.5 94.5225 15.5 95.9032H0.5C0.5 102.807 6.09643 108.403 13 108.403V93.4032ZM95.9032 93.4032H13V108.403H95.9032V93.4032ZM240.5 95.9032C240.5 94.5225 241.619 93.4032 243 93.4032V108.403C249.904 108.403 255.5 102.807 255.5 95.9032H240.5ZM240.5 59.4516V95.9032H255.5V59.4516H240.5ZM243 61.9516C241.619 61.9516 240.5 60.8323 240.5 59.4516H255.5C255.5 52.5481 249.904 46.9516 243 46.9516V61.9516ZM206.548 61.9516H243V46.9516H206.548V61.9516ZM194.048 49.4516C194.048 56.3552 199.645 61.9516 206.548 61.9516V46.9516C207.929 46.9516 209.048 48.0709 209.048 49.4516H194.048ZM194.048 13V49.4516H209.048V13H194.048ZM196.548 15.5C195.168 15.5 194.048 14.3807 194.048 13H209.048C209.048 6.09645 203.452 0.5 196.548 0.5V15.5ZM160.097 15.5H196.548V0.5H160.097V15.5ZM162.597 13C162.597 14.3807 161.477 15.5 160.097 15.5V0.5C153.193 0.5 147.597 6.09644 147.597 13H162.597ZM162.597 95.9032V13H147.597V95.9032H162.597ZM160.097 93.4032C161.477 93.4032 162.597 94.5225 162.597 95.9032H147.597C147.597 102.807 153.193 108.403 160.097 108.403V93.4032ZM243 93.4032H160.097V108.403H243V93.4032ZM209.048 206.548C209.048 207.929 207.929 209.048 206.548 209.048V194.048C199.645 194.048 194.048 199.645 194.048 206.548H209.048ZM209.048 243V206.548H194.048V243H209.048ZM196.548 255.5C203.452 255.5 209.048 249.904 209.048 243H194.048C194.048 241.619 195.168 240.5 196.548 240.5V255.5ZM160.097 255.5H196.548V240.5H160.097V255.5ZM147.597 243C147.597 249.904 153.193 255.5 160.097 255.5V240.5C161.477 240.5 162.597 241.619 162.597 243H147.597ZM147.597 160.097V243H162.597V160.097H147.597ZM160.097 147.597C153.193 147.597 147.597 153.193 147.597 160.097H162.597C162.597 161.477 161.477 162.597 160.097 162.597V147.597ZM243 147.597H160.097V162.597H243V147.597ZM255.5 160.097C255.5 153.193 249.904 147.597 243 147.597V162.597C241.619 162.597 240.5 161.477 240.5 160.097H255.5ZM255.5 196.548V160.097H240.5V196.548H255.5ZM243 209.048C249.904 209.048 255.5 203.452 255.5 196.548H240.5C240.5 195.168 241.619 194.048 243 194.048V209.048ZM206.548 209.048H243V194.048H206.548V209.048ZM93.4032 243C93.4032 241.619 94.5225 240.5 95.9032 240.5V255.5C102.807 255.5 108.403 249.904 108.403 243H93.4032ZM93.4032 160.097V243H108.403V160.097H93.4032ZM95.9032 162.597C94.5225 162.597 93.4032 161.477 93.4032 160.097H108.403C108.403 153.193 102.807 147.597 95.9032 147.597V162.597ZM13 162.597H95.9032V147.597H13V162.597ZM15.5 160.097C15.5 161.477 14.3807 162.597 13 162.597V147.597C6.09645 147.597 0.5 153.193 0.5 160.097H15.5ZM15.5 196.548V160.097H0.5V196.548H15.5ZM13 194.048C14.3807 194.048 15.5 195.168 15.5 196.548H0.5C0.5 203.452 6.09643 209.048 13 209.048V194.048ZM49.4516 194.048H13V209.048H49.4516V194.048ZM61.9516 206.548C61.9516 199.645 56.3552 194.048 49.4516 194.048V209.048C48.0709 209.048 46.9516 207.929 46.9516 206.548H61.9516ZM61.9516 243V206.548H46.9516V243H61.9516ZM59.4516 240.5C60.8323 240.5 61.9516 241.619 61.9516 243H46.9516C46.9516 249.904 52.548 255.5 59.4516 255.5V240.5ZM95.9032 240.5H59.4516V255.5H95.9032V240.5Z" fill="white"/>
</g>
<defs>
<clipPath id="clip0_252_25">
<rect width="256" height="256" fill="white"/>
</clipPath>
</defs>
</svg>
