<svg width="256" height="256" viewBox="0 0 256 256" fill="none" xmlns="http://www.w3.org/2000/svg">
<path d="M82 115H74.5V122.5H82V115ZM82 140V132.5H74.5V140H82ZM57 140H64.5V132.5H57V140ZM57 115V122.5H64.5V115H57ZM73 55.5C32.9594 55.5 0.5 87.9594 0.5 128H15.5C15.5 96.2436 41.2436 70.5 73 70.5V55.5ZM183 55.5H73V70.5H183V55.5ZM255.5 128C255.5 87.9594 223.041 55.5 183 55.5V70.5C214.756 70.5 240.5 96.2436 240.5 128H255.5ZM183 200.5C223.041 200.5 255.5 168.041 255.5 128H240.5C240.5 159.756 214.756 185.5 183 185.5V200.5ZM73 200.5H183V185.5H73V200.5ZM0.5 128C0.5 168.041 32.9594 200.5 73 200.5V185.5C41.2436 185.5 15.5 159.756 15.5 128H0.5ZM206.5 113C206.5 117.142 203.142 120.5 199 120.5V135.5C211.426 135.5 221.5 125.426 221.5 113H206.5ZM199 105.5C203.142 105.5 206.5 108.858 206.5 113H221.5C221.5 100.574 211.426 90.5 199 90.5V105.5ZM191.5 113C191.5 108.858 194.858 105.5 199 105.5V90.5C186.574 90.5 176.5 100.574 176.5 113H191.5ZM199 120.5C194.858 120.5 191.5 117.142 191.5 113H176.5C176.5 125.426 186.574 135.5 199 135.5V120.5ZM176.5 143C176.5 147.142 173.142 150.5 169 150.5V165.5C181.426 165.5 191.5 155.426 191.5 143H176.5ZM169 135.5C173.142 135.5 176.5 138.858 176.5 143H191.5C191.5 130.574 181.426 120.5 169 120.5V135.5ZM161.5 143C161.5 138.858 164.858 135.5 169 135.5V120.5C156.574 120.5 146.5 130.574 146.5 143H161.5ZM169 150.5C164.858 150.5 161.5 147.142 161.5 143H146.5C146.5 155.426 156.574 165.5 169 165.5V150.5ZM65 82.5C56.4396 82.5 49.5 89.4396 49.5 98H64.5C64.5 97.7239 64.7239 97.5 65 97.5V82.5ZM74 82.5H65V97.5H74V82.5ZM89.5 98C89.5 89.4396 82.5604 82.5 74 82.5V97.5C74.2761 97.5 74.5 97.7239 74.5 98H89.5ZM89.5 115V98H74.5V115H89.5ZM99 107.5H82V122.5H99V107.5ZM114.5 123C114.5 114.44 107.56 107.5 99 107.5V122.5C99.2761 122.5 99.5 122.724 99.5 123H114.5ZM114.5 132V123H99.5V132H114.5ZM99 147.5C107.56 147.5 114.5 140.56 114.5 132H99.5C99.5 132.276 99.2761 132.5 99 132.5V147.5ZM82 147.5H99V132.5H82V147.5ZM89.5 157V140H74.5V157H89.5ZM74 172.5C82.5604 172.5 89.5 165.56 89.5 157H74.5C74.5 157.276 74.2761 157.5 74 157.5V172.5ZM65 172.5H74V157.5H65V172.5ZM49.5 157C49.5 165.56 56.4396 172.5 65 172.5V157.5C64.7239 157.5 64.5 157.276 64.5 157H49.5ZM49.5 140V157H64.5V140H49.5ZM40 147.5H57V132.5H40V147.5ZM24.5 132C24.5 140.56 31.4396 147.5 40 147.5V132.5C39.7239 132.5 39.5 132.276 39.5 132H24.5ZM24.5 123V132H39.5V123H24.5ZM40 107.5C31.4396 107.5 24.5 114.44 24.5 123H39.5C39.5 122.724 39.7239 122.5 40 122.5V107.5ZM57 107.5H40V122.5H57V107.5ZM49.5 98V115H64.5V98H49.5Z" fill="white"/>
</svg>
