<svg width="256" height="256" viewBox="0 0 256 256" fill="none" xmlns="http://www.w3.org/2000/svg">
<path d="M103.448 23.0292L92.4842 22.1392V22.1392L103.448 23.0292ZM152.552 23.0292L141.588 23.9191V23.9191L152.552 23.0292ZM154.837 51.1783L143.873 52.0682L144.457 59.2695L151.298 61.5936L154.837 51.1783ZM163.963 54.9115L159.188 64.821L165.65 67.9351L171.105 63.2771L163.963 54.9115ZM186.009 36.0877L178.867 27.7222V27.7222L186.009 36.0877ZM202.287 36.7285L210.065 28.9503V28.9503L202.287 36.7285ZM219.439 53.8812L227.217 46.103L227.217 46.103L219.439 53.8812ZM220.08 70.1585L211.715 63.0158V63.0158L220.08 70.1585ZM201.553 91.8577L193.187 84.7151L188.44 90.2748L191.728 96.8045L201.553 91.8577ZM205.554 101.223L195.187 104.901L197.568 111.611L204.664 112.187L205.554 101.223ZM232.971 103.448L232.081 114.412L232.971 103.448ZM232.971 152.552L232.081 141.588H232.081L232.971 152.552ZM205.942 154.746L205.053 143.782L197.842 144.367L195.523 151.22L205.942 154.746ZM201.952 164.429L192.073 159.591L188.898 166.073L193.581 171.566L201.952 164.429ZM219.654 185.19L211.283 192.327L219.654 185.19ZM185.573 219.271L192.71 210.901L185.573 219.271ZM164.956 201.692L172.093 193.321L166.557 188.601L160.046 191.848L164.956 201.692ZM154.746 205.943L151.22 195.523L144.367 197.842L143.782 205.053L154.746 205.943ZM152.552 232.971L163.516 233.861V233.861L152.552 232.971ZM103.448 232.971L92.4842 233.861V233.861L103.448 232.971ZM101.223 205.554L112.187 204.665L111.611 197.568L104.901 195.188L101.223 205.554ZM91.9677 201.609L96.8996 191.777L90.3862 188.509L84.8375 193.233L91.9677 201.609ZM70.7835 219.642L77.9137 228.018L77.9137 228.018L70.7835 219.642ZM54.5198 218.99L62.298 211.211L62.2979 211.211L54.5198 218.99ZM37.0102 201.48L29.232 209.258L29.232 209.258L37.0102 201.48ZM36.3578 185.216L27.9817 178.086L27.9816 178.086L36.3578 185.216ZM54.7448 163.616L63.121 170.747L67.7393 165.321L64.6767 158.888L54.7448 163.616ZM51.1775 154.837L61.5929 151.298L59.2688 144.457L52.0674 143.873L51.1775 154.837ZM23.0292 152.552L22.1392 163.516H22.1392L23.0292 152.552ZM12 140.591H23H12ZM23.0292 103.448L22.1392 92.4842H22.1392L23.0292 103.448ZM51.5678 101.132L52.4577 112.096L59.5447 111.52L61.9302 104.822L51.5678 101.132ZM55.0802 92.7778L64.9668 97.6002L68.123 91.1297L63.4564 85.6476L55.0802 92.7778ZM36.3579 70.7839L44.7341 63.6537L36.3579 70.7839ZM37.0103 54.5202L44.7884 62.2984H44.7884L37.0103 54.5202ZM54.5197 37.0107L62.2979 44.7889V44.7889L54.5197 37.0107ZM70.7834 36.3584L77.9136 27.9822V27.9822L70.7834 36.3584ZM92.7774 55.0807L85.6472 63.4569L91.1292 68.1235L97.5998 64.9673L92.7774 55.0807ZM101.132 51.5682L104.822 61.9306L111.52 59.5451L112.096 52.4581L101.132 51.5682ZM115.409 1C103.428 1 93.4535 10.1975 92.4842 22.1392L114.412 23.9191C114.454 23.3999 114.888 23 115.409 23V1ZM140.591 1H115.409V23H140.591V1ZM163.516 22.1392C162.547 10.1975 152.572 1 140.591 1V23C141.112 23 141.546 23.3999 141.588 23.9191L163.516 22.1392ZM165.801 50.2883L163.516 22.1392L141.588 23.9191L143.873 52.0682L165.801 50.2883ZM168.738 45.0021C165.391 43.3894 161.932 41.9713 158.375 40.7629L151.298 61.5936C154.005 62.5131 156.638 63.5926 159.188 64.821L168.738 45.0021ZM178.867 27.7222L156.82 46.546L171.105 63.2771L193.152 44.4533L178.867 27.7222ZM210.065 28.9503C201.579 20.4641 187.994 19.9293 178.867 27.7222L193.152 44.4533C193.549 44.1145 194.139 44.1377 194.508 44.5067L210.065 28.9503ZM227.217 46.103L210.065 28.9503L194.508 44.5067L211.661 61.6594L227.217 46.103ZM228.446 77.3012C236.239 68.1741 235.704 54.5893 227.217 46.103L211.661 61.6594C212.03 62.0283 212.053 62.619 211.715 63.0158L228.446 77.3012ZM209.918 99.0004L228.446 77.3012L211.715 63.0158L193.187 84.7151L209.918 99.0004ZM215.92 97.5444C214.623 93.8882 213.103 90.3382 211.378 86.9109L191.728 96.8045C193.043 99.4157 194.2 102.119 195.187 104.901L215.92 97.5444ZM233.861 92.4842L206.444 90.2588L204.664 112.187L232.081 114.412L233.861 92.4842ZM255 115.409C255 103.428 245.803 93.4535 233.861 92.4842L232.081 114.412C232.6 114.454 233 114.888 233 115.409H255ZM255 140.591V115.409H233V140.591H255ZM233.861 163.516C245.803 162.547 255 152.572 255 140.591H233C233 141.112 232.6 141.546 232.081 141.588L233.861 163.516ZM206.832 165.71L233.861 163.516L232.081 141.588L205.053 143.782L206.832 165.71ZM211.831 169.267C213.566 165.724 215.082 162.053 216.362 158.272L195.523 151.22C194.549 154.097 193.395 156.892 192.073 159.591L211.831 169.267ZM228.024 178.054L210.322 157.292L193.581 171.566L211.283 192.327L228.024 178.054ZM226.786 209.24C235.268 200.758 235.807 187.181 228.024 178.054L211.283 192.327C211.622 192.724 211.598 193.315 211.23 193.683L226.786 209.24ZM209.622 226.403L226.786 209.24L211.23 193.683L194.066 210.847L209.622 226.403ZM178.436 227.642C187.564 235.424 201.14 234.885 209.622 226.403L194.066 210.847C193.697 211.216 193.107 211.239 192.71 210.901L178.436 227.642ZM157.819 210.062L178.436 227.642L192.71 210.901L172.093 193.321L157.819 210.062ZM158.272 216.362C162.266 215.011 166.137 213.395 169.865 211.536L160.046 191.848C157.206 193.265 154.259 194.495 151.22 195.523L158.272 216.362ZM163.516 233.861L165.71 206.833L143.782 205.053L141.588 232.081L163.516 233.861ZM140.591 255C152.572 255 162.547 245.803 163.516 233.861L141.588 232.081C141.546 232.6 141.112 233 140.591 233V255ZM115.409 255H140.591V233H115.409V255ZM92.4842 233.861C93.4535 245.803 103.428 255 115.409 255V233C114.888 233 114.454 232.6 114.412 232.081L92.4842 233.861ZM90.2588 206.444L92.4842 233.861L114.412 232.081L112.187 204.665L90.2588 206.444ZM87.0358 211.441C90.4245 213.141 93.9327 214.64 97.5446 215.921L104.901 195.188C102.152 194.212 99.4812 193.071 96.8996 191.777L87.0358 211.441ZM77.9137 228.018L99.0979 209.985L84.8375 193.233L63.6532 211.266L77.9137 228.018ZM46.7416 226.768C55.2185 235.245 68.785 235.789 77.9137 228.018L63.6533 211.266C63.2563 211.604 62.6665 211.58 62.298 211.211L46.7416 226.768ZM29.232 209.258L46.7416 226.768L62.2979 211.211L44.7883 193.702L29.232 209.258ZM27.9816 178.086C20.2109 187.215 20.755 200.781 29.232 209.258L44.7884 193.702C44.4198 193.333 44.3961 192.743 44.734 192.347L27.9816 178.086ZM46.3686 156.486L27.9817 178.086L44.734 192.347L63.121 170.747L46.3686 156.486ZM40.7621 158.375C41.9232 161.793 43.2779 165.12 44.8129 168.345L64.6767 158.888C63.5076 156.432 62.4764 153.899 61.5929 151.298L40.7621 158.375ZM22.1392 163.516L50.2875 165.801L52.0674 143.873L23.9191 141.588L22.1392 163.516ZM1 140.591C0.999996 152.572 10.1975 162.547 22.1392 163.516L23.9191 141.588C23.3999 141.546 23 141.112 23 140.591H1ZM1 115.409V140.591H23V115.409H1ZM22.1392 92.4842C10.1975 93.4535 1 103.428 1 115.409H23C23 114.888 23.3999 114.454 23.9191 114.412L22.1392 92.4842ZM50.6779 90.1677L22.1392 92.4842L23.9191 114.412L52.4577 112.096L50.6779 90.1677ZM45.1937 87.9554C43.6962 91.0254 42.3628 94.1912 41.2054 97.4411L61.9302 104.822C62.811 102.349 63.8261 99.9389 64.9668 97.6002L45.1937 87.9554ZM27.9817 77.9141L46.7041 99.908L63.4564 85.6476L44.7341 63.6537L27.9817 77.9141ZM29.2321 46.742C20.7552 55.2189 20.211 68.7854 27.9817 77.9141L44.7341 63.6537C44.3962 63.2568 44.4199 62.6669 44.7884 62.2984L29.2321 46.742ZM46.7416 29.2325L29.2321 46.742L44.7884 62.2984L62.2979 44.7889L46.7416 29.2325ZM77.9136 27.9822C68.785 20.2114 55.2185 20.7556 46.7416 29.2325L62.2979 44.7889C62.6665 44.4203 63.2563 44.3967 63.6532 44.7345L77.9136 27.9822ZM99.9076 46.7046L77.9136 27.9822L63.6532 44.7345L85.6472 63.4569L99.9076 46.7046ZM97.4411 41.2057C94.1911 42.3632 91.0252 43.6966 87.955 45.1942L97.5998 64.9673C99.9385 63.8265 102.349 62.8115 104.822 61.9306L97.4411 41.2057ZM92.4842 22.1392L90.1677 50.6782L112.096 52.4581L114.412 23.9191L92.4842 22.1392ZM152.399 128.545C152.399 141.719 141.719 152.4 128.544 152.4V174.4C153.869 174.4 174.399 153.87 174.399 128.545H152.399ZM128.544 104.691C141.719 104.691 152.399 115.371 152.399 128.545H174.399C174.399 103.22 153.869 82.6906 128.544 82.6906V104.691ZM104.69 128.545C104.69 115.371 115.37 104.691 128.544 104.691V82.6906C103.22 82.6906 82.69 103.22 82.69 128.545H104.69ZM128.544 152.4C115.37 152.4 104.69 141.719 104.69 128.545H82.69C82.69 153.87 103.22 174.4 128.544 174.4V152.4Z" fill="white"/>
</svg>
