<svg width="256" height="256" viewBox="0 0 256 256" fill="none" xmlns="http://www.w3.org/2000/svg">
<path d="M105.303 32.0485L101.316 31.7313V31.7313L105.303 32.0485ZM149.697 32.0485L153.684 31.7313V31.7313L149.697 32.0485ZM151.667 56.8106L147.679 57.1277L147.89 59.7705L150.405 60.6065L151.667 56.8106ZM160.518 60.3968L158.781 64.0003L161.131 65.1327L163.115 63.4389L160.518 60.3968ZM180.068 43.7046L177.47 40.6626V40.6626L180.068 43.7046ZM196.345 44.3453L193.517 47.1738V47.1738L196.345 44.3453ZM210.809 58.8088L207.98 61.6372V61.6372L210.809 58.8088ZM211.449 75.086L214.491 77.6834L214.491 77.6834L211.449 75.086ZM195.029 94.3173L191.987 91.72L190.261 93.7417L191.457 96.1161L195.029 94.3173ZM198.868 103.387L195.089 104.699L195.946 107.167L198.551 107.375L198.868 103.387ZM222.952 105.303L223.269 101.316L222.952 105.303ZM222.952 149.697L222.634 145.71L222.952 149.697ZM199.217 151.585L198.899 147.598L196.253 147.808L195.419 150.328L199.217 151.585ZM195.395 160.945L191.803 159.186L190.649 161.543L192.352 163.541L195.395 160.945ZM211.059 179.316L208.015 181.911H208.015L211.059 179.316ZM210.413 195.587L213.241 198.415L210.413 195.587ZM195.939 210.061L193.11 207.233V207.233L195.939 210.061ZM179.668 210.707L182.263 207.664V207.664L179.668 210.707ZM161.429 195.156L164.024 192.113L162.011 190.396L159.644 191.577L161.429 195.156ZM151.585 199.217L150.328 195.419L147.808 196.253L147.598 198.899L151.585 199.217ZM149.697 222.952L145.71 222.634L149.697 222.952ZM105.303 222.952L101.316 223.269L105.303 222.952ZM103.387 198.868L107.375 198.551L107.167 195.946L104.699 195.089L103.387 198.868ZM94.419 195.08L96.2124 191.505L93.8439 190.317L91.8262 192.034L94.419 195.08ZM75.66 211.049L78.2528 214.095L75.66 211.049ZM59.3963 210.397L56.5679 213.225L59.3963 210.397ZM44.6033 195.604L41.7749 198.432H41.7749L44.6033 195.604ZM43.951 179.34L46.9968 181.933H46.9968L43.951 179.34ZM60.2443 160.199L63.2902 162.792L64.9696 160.819L63.8559 158.48L60.2443 160.199ZM56.8106 151.667L60.6065 150.405L59.7705 147.89L57.1277 147.679L56.8106 151.667ZM32.0485 149.697L31.7313 153.684H31.7313L32.0485 149.697ZM32.0485 105.303L31.7313 101.316H31.7313L32.0485 105.303ZM57.1604 103.305L57.4776 107.293L60.0787 107.086L60.9376 104.622L57.1604 103.305ZM60.5521 95.1621L64.1472 96.9157L65.2949 94.5628L63.5979 92.5693L60.5521 95.1621ZM43.951 75.6601L40.9051 78.2529V78.2529L43.951 75.6601ZM44.6033 59.3964L47.4318 62.2248L44.6033 59.3964ZM59.3962 44.6035L56.5678 41.7751V41.7751L59.3962 44.6035ZM75.6599 43.9512L78.2527 40.9053L75.6599 43.9512ZM95.1618 60.5522L92.569 63.5981L94.5625 65.295L96.9154 64.1473L95.1618 60.5522ZM103.305 57.1604L104.622 60.9376L107.086 60.0787L107.293 57.4776L103.305 57.1604ZM117.265 17C108.921 17 101.977 23.413 101.316 31.7313L109.29 32.3656C109.621 28.2065 113.093 25 117.265 25V17ZM137.735 17H117.265V25H137.735V17ZM153.684 31.7313C153.023 23.413 146.079 17 137.735 17V25C141.907 25 145.379 28.2065 145.71 32.3656L153.684 31.7313ZM155.654 56.4934L153.684 31.7313L145.71 32.3656L147.679 57.1277L155.654 56.4934ZM162.254 56.7934C159.247 55.3441 156.133 54.0796 152.928 53.0146L150.405 60.6065C153.283 61.5628 156.08 62.6984 158.781 64.0003L162.254 56.7934ZM177.47 40.6626L157.92 57.3548L163.115 63.4389L182.665 46.7466L177.47 40.6626ZM199.174 41.5169C193.27 35.6134 183.82 35.2414 177.47 40.6626L182.665 46.7466C185.84 44.036 190.565 44.222 193.517 47.1738L199.174 41.5169ZM213.637 55.9803L199.174 41.5169L193.517 47.1738L207.98 61.6372L213.637 55.9803ZM214.491 77.6834C219.912 71.3341 219.54 61.8838 213.637 55.9803L207.98 61.6372C210.932 64.5889 211.118 69.3141 208.407 72.4887L214.491 77.6834ZM198.071 96.9146L214.491 77.6834L208.407 72.4887L191.987 91.72L198.071 96.9146ZM202.647 102.075C201.504 98.785 200.15 95.594 198.602 92.5185L191.457 96.1161C192.848 98.8791 194.063 101.745 195.089 104.699L202.647 102.075ZM223.269 101.316L199.185 99.3998L198.551 107.375L222.634 109.29L223.269 101.316ZM238 117.265C238 108.921 231.587 101.977 223.269 101.316L222.634 109.29C226.794 109.621 230 113.093 230 117.265H238ZM238 137.735V117.265H230V137.735H238ZM223.269 153.684C231.587 153.023 238 146.079 238 137.735H230C230 141.907 226.794 145.379 222.634 145.71L223.269 153.684ZM199.534 155.572L223.269 153.684L222.634 145.71L198.899 147.598L199.534 155.572ZM198.988 162.705C200.542 159.531 201.89 156.238 203.014 152.842L195.419 150.328C194.41 153.377 193.199 156.335 191.803 159.186L198.988 162.705ZM214.103 176.721L198.439 158.35L192.352 163.541L208.015 181.911L214.103 176.721ZM213.241 198.415C219.142 192.515 219.517 183.071 214.103 176.721L208.015 181.911C210.722 185.086 210.535 189.808 207.584 192.759L213.241 198.415ZM198.767 212.89L213.241 198.415L207.584 192.759L193.11 207.233L198.767 212.89ZM177.072 213.751C183.422 219.165 192.866 218.79 198.767 212.89L193.11 207.233C190.16 210.183 185.438 210.371 182.263 207.664L177.072 213.751ZM158.834 198.2L177.072 213.751L182.263 207.664L164.024 192.113L158.834 198.2ZM152.842 203.014C156.42 201.83 159.884 200.397 163.214 198.736L159.644 191.577C156.652 193.069 153.541 194.356 150.328 195.419L152.842 203.014ZM153.684 223.269L155.572 199.534L147.598 198.899L145.71 222.634L153.684 223.269ZM137.735 238C146.079 238 153.023 231.587 153.684 223.269L145.71 222.634C145.379 226.794 141.907 230 137.735 230V238ZM117.265 238H137.735V230H117.265V238ZM101.316 223.269C101.977 231.587 108.921 238 117.265 238V230C113.093 230 109.621 226.794 109.29 222.634L101.316 223.269ZM99.3998 199.185L101.316 223.269L109.29 222.634L107.375 198.551L99.3998 199.185ZM92.6256 198.656C95.6681 200.182 98.8232 201.517 102.075 202.647L104.699 195.089C101.779 194.075 98.9456 192.876 96.2124 191.505L92.6256 198.656ZM78.2528 214.095L97.0118 198.126L91.8262 192.034L73.0672 208.003L78.2528 214.095ZM56.5679 213.225C62.4649 219.122 71.9024 219.501 78.2528 214.095L73.0672 208.003C69.892 210.706 65.1732 210.517 62.2247 207.568L56.5679 213.225ZM41.7749 198.432L56.5679 213.225L62.2247 207.568L47.4317 192.775L41.7749 198.432ZM40.9051 176.747C35.4993 183.097 35.8779 192.535 41.7749 198.432L47.4317 192.775C44.4832 189.827 44.294 185.108 46.9968 181.933L40.9051 176.747ZM57.1985 157.607L40.9051 176.747L46.9968 181.933L63.2902 162.792L57.1985 157.607ZM53.0146 152.928C54.0401 156.014 55.2505 159.015 56.6327 161.919L63.8559 158.48C62.6143 155.872 61.5273 153.176 60.6065 150.405L53.0146 152.928ZM31.7313 153.684L56.4934 155.654L57.1277 147.679L32.3656 145.71L31.7313 153.684ZM17 137.735C17 146.079 23.413 153.023 31.7313 153.684L32.3656 145.71C28.2065 145.379 25 141.907 25 137.735H17ZM17 117.265V137.735H25V117.265H17ZM31.7313 101.316C23.413 101.977 17 108.921 17 117.265H25C25 113.093 28.2065 109.621 32.3656 109.29L31.7313 101.316ZM56.8433 99.318L31.7313 101.316L32.3656 109.29L57.4776 107.293L56.8433 99.318ZM56.9569 93.4085C55.6044 96.1813 54.4093 99.0453 53.3833 101.989L60.9376 104.622C61.8589 101.979 62.9322 99.4066 64.1472 96.9157L56.9569 93.4085ZM40.9051 78.2529L57.5062 97.7549L63.5979 92.5693L46.9969 73.0673L40.9051 78.2529ZM41.7749 56.568C35.8779 62.465 35.4994 71.9025 40.9051 78.2529L46.9969 73.0673C44.294 69.8921 44.4833 65.1734 47.4318 62.2248L41.7749 56.568ZM56.5678 41.7751L41.7749 56.568L47.4318 62.2248L62.2246 47.432L56.5678 41.7751ZM78.2527 40.9053C71.9023 35.4996 62.4648 35.8781 56.5678 41.7751L62.2246 47.432C65.1731 44.4835 69.8919 44.2942 73.0671 46.9971L78.2527 40.9053ZM97.7546 57.5063L78.2527 40.9053L73.0671 46.9971L92.569 63.5981L97.7546 57.5063ZM101.989 53.3833C99.0452 54.4094 96.1811 55.6045 93.4082 56.9571L96.9154 64.1473C99.4064 62.9323 101.979 61.8589 104.622 60.9376L101.989 53.3833ZM101.316 31.7313L99.318 56.8433L107.293 57.4776L109.29 32.3656L101.316 31.7313ZM156 128C156 143.464 143.464 156 128 156V164C147.882 164 164 147.882 164 128H156ZM128 100C143.464 100 156 112.536 156 128H164C164 108.118 147.882 92 128 92V100ZM100 128C100 112.536 112.536 100 128 100V92C108.118 92 92 108.118 92 128H100ZM128 156C112.536 156 100 143.464 100 128H92C92 147.882 108.118 164 128 164V156Z" fill="white"/>
</svg>
