<svg width="256" height="256" viewBox="0 0 256 256" fill="none" xmlns="http://www.w3.org/2000/svg">
<mask id="path-1-outside-1_710_121" maskUnits="userSpaceOnUse" x="0" y="40" width="257" height="177" fill="black">
<rect fill="white" y="40" width="257" height="177"/>
<path d="M209.002 62C222.809 62.0003 234.002 73.1931 234.002 87V169.783C234.002 183.59 222.809 194.783 209.002 194.783H47C33.193 194.783 22.0002 183.59 22 169.783V87C22 73.1929 33.1929 62 47 62H209.002ZM42 169.783C42.0002 172.544 44.2387 174.783 47 174.783H85.75V138.392H42V169.783ZM105.751 174.783H150.251V138.392H105.751V174.783ZM170.251 174.783H209.002C211.763 174.783 214.002 172.544 214.002 169.783V138.392H170.251V174.783ZM47 82C44.2386 82 42 84.2386 42 87V118.392H85.75V82H47ZM105.751 118.392H150.251V82H105.751V118.392ZM170.251 118.392H214.002V87C214.002 84.2388 211.763 82.0003 209.002 82H170.251V118.392Z"/>
</mask>
<path d="M209.002 62L209.002 40H209.002V62ZM234.002 87H256.002V87L234.002 87ZM234.002 169.783L256.002 169.783V169.783H234.002ZM209.002 194.783V216.783H209.002L209.002 194.783ZM22 169.783H0V169.783L22 169.783ZM42 169.783H20V169.784L42 169.783ZM85.75 174.783V196.783H107.75V174.783H85.75ZM85.75 138.392H107.75V116.392H85.75V138.392ZM42 138.392V116.392H20V138.392H42ZM105.751 174.783H83.751V196.783H105.751V174.783ZM150.251 174.783V196.783H172.251V174.783H150.251ZM150.251 138.392H172.251V116.392H150.251V138.392ZM105.751 138.392V116.392H83.751V138.392H105.751ZM170.251 174.783H148.251V196.783H170.251V174.783ZM209.002 174.783V196.783H209.005L209.002 174.783ZM214.002 169.783L236.002 169.784V169.783H214.002ZM214.002 138.392H236.002V116.392H214.002V138.392ZM170.251 138.392V116.392H148.251V138.392H170.251ZM42 118.392H20V140.392H42V118.392ZM85.75 118.392V140.392H107.75V118.392H85.75ZM85.75 82H107.75V60H85.75V82ZM105.751 118.392H83.751V140.392H105.751V118.392ZM150.251 118.392V140.392H172.251V118.392H150.251ZM150.251 82H172.251V60H150.251V82ZM105.751 82V60H83.751V82H105.751ZM170.251 118.392H148.251V140.392H170.251V118.392ZM214.002 118.392V140.392H236.002V118.392H214.002ZM214.002 87H236.002V87L214.002 87ZM209.002 82L209.005 60H209.002V82ZM170.251 82V60H148.251V82H170.251ZM209.002 62L209.001 84C210.659 84 212.002 85.3439 212.002 87L234.002 87L256.002 87C256.002 61.0423 234.959 40.0006 209.002 40L209.002 62ZM234.002 87H212.002V169.783H234.002H256.002V87H234.002ZM234.002 169.783L212.002 169.783C212.002 171.439 210.659 172.783 209.001 172.783L209.002 194.783L209.002 216.783C234.959 216.783 256.002 195.741 256.002 169.783L234.002 169.783ZM209.002 194.783V172.783H47V194.783V216.783H209.002V194.783ZM47 194.783V172.783C45.3435 172.783 44 171.44 44 169.783L22 169.783L0 169.783C0.000303268 195.74 21.0424 216.783 47 216.783V194.783ZM22 169.783H44V87H22H0V169.783H22ZM22 87H44C44 85.3431 45.3431 84 47 84V62V40C21.0426 40 0 61.0426 0 87H22ZM47 62V84H209.002V62V40H47V62ZM42 169.783L20 169.784C20.0009 184.694 32.0872 196.783 47 196.783V174.783V152.783C56.3902 152.783 63.9995 160.395 64 169.782L42 169.783ZM47 174.783V196.783H85.75V174.783V152.783H47V174.783ZM85.75 174.783H107.75V138.392H85.75H63.75V174.783H85.75ZM85.75 138.392V116.392H42V138.392V160.392H85.75V138.392ZM42 138.392H20V169.783H42H64V138.392H42ZM105.751 174.783V196.783H150.251V174.783V152.783H105.751V174.783ZM150.251 174.783H172.251V138.392H150.251H128.251V174.783H150.251ZM150.251 138.392V116.392H105.751V138.392V160.392H150.251V138.392ZM105.751 138.392H83.751V174.783H105.751H127.751V138.392H105.751ZM170.251 174.783V196.783H209.002V174.783V152.783H170.251V174.783ZM209.002 174.783L209.005 196.783C223.912 196.781 236.001 184.696 236.002 169.784L214.002 169.783L192.002 169.782C192.002 160.392 199.614 152.784 208.999 152.783L209.002 174.783ZM214.002 169.783H236.002V138.392H214.002H192.002V169.783H214.002ZM214.002 138.392V116.392H170.251V138.392V160.392H214.002V138.392ZM170.251 138.392H148.251V174.783H170.251H192.251V138.392H170.251ZM47 82V60C32.0882 60 20 72.0884 20 87H42H64C64 96.3888 56.3889 104 47 104V82ZM42 87H20V118.392H42H64V87H42ZM42 118.392V140.392H85.75V118.392V96.3916H42V118.392ZM85.75 118.392H107.75V82H85.75H63.75V118.392H85.75ZM85.75 82V60H47V82V104H85.75V82ZM105.751 118.392V140.392H150.251V118.392V96.3916H105.751V118.392ZM150.251 118.392H172.251V82H150.251H128.251V118.392H150.251ZM150.251 82V60H105.751V82V104H150.251V82ZM105.751 82H83.751V118.392H105.751H127.751V82H105.751ZM170.251 118.392V140.392H214.002V118.392V96.3916H170.251V118.392ZM214.002 118.392H236.002V87H214.002H192.002V118.392H214.002ZM214.002 87L236.002 87C236.002 72.0858 223.911 60.0018 209.005 60L209.002 82L208.999 104C199.615 103.999 192.002 96.3917 192.002 87L214.002 87ZM209.002 82V60H170.251V82V104H209.002V82ZM170.251 82H148.251V118.392H170.251H192.251V82H170.251Z" fill="white" mask="url(#path-1-outside-1_710_121)"/>
</svg>
