<svg width="256" height="256" viewBox="0 0 256 256" fill="none" xmlns="http://www.w3.org/2000/svg">
<path fill-rule="evenodd" clip-rule="evenodd" d="M49 66C40.1634 66 33 73.1634 33 82V116V124H41H83H91V116V74V66H83H49ZM83 74H49C44.5817 74 41 77.5817 41 82V116H83V74ZM17 82C17 64.3269 31.3269 50 49 50H91H95H99H157H161H165H207C224.673 50 239 64.3269 239 82V124V128V132V174C239 191.673 224.673 206 207 206H165H161H157H99H95H91H49C31.3269 206 17 191.673 17 174V132V128V124V82ZM33 174C33 182.837 40.1634 190 49 190H83H91V182V140V132H83H41H33V140V174ZM41 140V174C41 178.418 44.5817 182 49 182H83V140H41ZM207 190C215.837 190 223 182.837 223 174V140V132H215H173H165V140V182V190H173H207ZM173 182H207C211.418 182 215 178.418 215 174V140H173V182ZM223 82C223 73.1634 215.837 66 207 66H173H165V74V116V124H173H215H223V116V82ZM215 116V82C215 77.5817 211.418 74 207 74H173V116H215ZM207 58C220.255 58 231 68.7452 231 82V124V128V132V174C231 187.255 220.255 198 207 198H165H161H157H99H95H91H49C35.7452 198 25 187.255 25 174V132V128V124V82C25 68.7452 35.7452 58 49 58H91H95H99H157H161H165H207ZM149 116V74H107V116H149ZM149 182V140H107V182H149ZM157 116V124H149H107H99V116V74V66H107H149H157V74V116ZM157 182V190H149H107H99V182V140V132H107H149H157V140V182Z" fill="white"/>
</svg>
