<svg width="256" height="256" viewBox="0 0 256 256" fill="none" xmlns="http://www.w3.org/2000/svg">
<path fill-rule="evenodd" clip-rule="evenodd" d="M37 64H63C69.6274 64 75 69.3726 75 76V102C75 108.627 69.6274 114 63 114H37C30.3726 114 25 108.627 25 102V76C25 69.3726 30.3726 64 37 64ZM17 76C17 64.9543 25.9543 56 37 56H63C74.0457 56 83 64.9543 83 76V102C83 113.046 74.0457 122 63 122H37C25.9543 122 17 113.046 17 102V76ZM115 64H141C147.627 64 153 69.3726 153 76V102C153 108.627 147.627 114 141 114H115C108.373 114 103 108.627 103 102V76C103 69.3726 108.373 64 115 64ZM95 76C95 64.9543 103.954 56 115 56H141C152.046 56 161 64.9543 161 76V102C161 113.046 152.046 122 141 122H115C103.954 122 95 113.046 95 102V76ZM219 64H193C186.373 64 181 69.3726 181 76V102C181 108.627 186.373 114 193 114H219C225.627 114 231 108.627 231 102V76C231 69.3726 225.627 64 219 64ZM193 56C181.954 56 173 64.9543 173 76V102C173 113.046 181.954 122 193 122H219C230.046 122 239 113.046 239 102V76C239 64.9543 230.046 56 219 56H193ZM37 142H63C69.6274 142 75 147.373 75 154V180C75 186.627 69.6274 192 63 192H37C30.3726 192 25 186.627 25 180V154C25 147.373 30.3726 142 37 142ZM17 154C17 142.954 25.9543 134 37 134H63C74.0457 134 83 142.954 83 154V180C83 191.046 74.0457 200 63 200H37C25.9543 200 17 191.046 17 180V154ZM141 142H115C108.373 142 103 147.373 103 154V180C103 186.627 108.373 192 115 192H141C147.627 192 153 186.627 153 180V154C153 147.373 147.627 142 141 142ZM115 134C103.954 134 95 142.954 95 154V180C95 191.046 103.954 200 115 200H141C152.046 200 161 191.046 161 180V154C161 142.954 152.046 134 141 134H115ZM193 142H219C225.627 142 231 147.373 231 154V180C231 186.627 225.627 192 219 192H193C186.373 192 181 186.627 181 180V154C181 147.373 186.373 142 193 142ZM173 154C173 142.954 181.954 134 193 134H219C230.046 134 239 142.954 239 154V180C239 191.046 230.046 200 219 200H193C181.954 200 173 191.046 173 180V154Z" fill="white"/>
</svg>
