<svg width="256" height="256" viewBox="0 0 256 256" fill="none" xmlns="http://www.w3.org/2000/svg">
<rect width="256" height="256" stroke="white"/>
<mask id="path-2-outside-1_30_173" maskUnits="userSpaceOnUse" x="17" y="50" width="222" height="156" fill="black">
<rect fill="white" x="17" y="50" width="222" height="156"/>
<path fill-rule="evenodd" clip-rule="evenodd" d="M49 58C35.7452 58 25 68.7452 25 82V124V128V132V174C25 187.255 35.7452 198 49 198H91H95H99H157H161H165H207C220.255 198 231 187.255 231 174V132V128V124V82C231 68.7452 220.255 58 207 58H165H161H157H99H95H91H49ZM223 124V82C223 73.1634 215.837 66 207 66H165V124H223ZM157 124V66H99V124H157ZM223 132H165V190H207C215.837 190 223 182.837 223 174V132ZM157 190V132H99V190H157ZM91 132V190H49C40.1634 190 33 182.837 33 174V132H91ZM33 124H91V66H49C40.1634 66 33 73.1634 33 82V124Z"/>
</mask>
<path d="M223 124V132H231V124H223ZM165 66V58H157V66H165ZM165 124H157V132H165V124ZM157 124V132H165V124H157ZM157 66H165V58H157V66ZM99 66V58H91V66H99ZM99 124H91V132H99V124ZM223 132H231V124H223V132ZM165 132V124H157V132H165ZM165 190H157V198H165V190ZM157 190V198H165V190H157ZM157 132H165V124H157V132ZM99 132V124H91V132H99ZM99 190H91V198H99V190ZM91 190V198H99V190H91ZM91 132H99V124H91V132ZM33 132V124H25V132H33ZM91 124V132H99V124H91ZM33 124H25V132H33V124ZM91 66H99V58H91V66ZM33 82C33 73.1634 40.1634 66 49 66V50C31.3269 50 17 64.3269 17 82H33ZM33 124V82H17V124H33ZM33 128V124H17V128H33ZM33 132V128H17V132H33ZM33 174V132H17V174H33ZM49 190C40.1634 190 33 182.837 33 174H17C17 191.673 31.3269 206 49 206V190ZM91 190H49V206H91V190ZM95 190H91V206H95V190ZM99 190H95V206H99V190ZM157 190H99V206H157V190ZM161 190H157V206H161V190ZM165 190H161V206H165V190ZM207 190H165V206H207V190ZM223 174C223 182.837 215.837 190 207 190V206C224.673 206 239 191.673 239 174H223ZM223 132V174H239V132H223ZM223 128V132H239V128H223ZM223 124V128H239V124H223ZM223 82V124H239V82H223ZM207 66C215.837 66 223 73.1634 223 82H239C239 64.3269 224.673 50 207 50V66ZM165 66H207V50H165V66ZM161 66H165V50H161V66ZM157 66H161V50H157V66ZM99 66H157V50H99V66ZM95 66H99V50H95V66ZM91 66H95V50H91V66ZM49 66H91V50H49V66ZM231 124V82H215V124H231ZM231 82C231 68.7452 220.255 58 207 58V74C211.418 74 215 77.5817 215 82H231ZM207 58H165V74H207V58ZM157 66V124H173V66H157ZM165 132H223V116H165V132ZM165 124V66H149V124H165ZM157 58H99V74H157V58ZM91 66V124H107V66H91ZM99 132H157V116H99V132ZM223 124H165V140H223V124ZM157 132V190H173V132H157ZM165 198H207V182H165V198ZM207 198C220.255 198 231 187.255 231 174H215C215 178.418 211.418 182 207 182V198ZM231 174V132H215V174H231ZM165 190V132H149V190H165ZM157 124H99V140H157V124ZM91 132V190H107V132H91ZM99 198H157V182H99V198ZM99 190V132H83V190H99ZM49 198H91V182H49V198ZM25 174C25 187.255 35.7452 198 49 198V182C44.5817 182 41 178.418 41 174H25ZM25 132V174H41V132H25ZM91 124H33V140H91V124ZM91 116H33V132H91V116ZM83 66V124H99V66H83ZM49 74H91V58H49V74ZM41 82C41 77.5817 44.5817 74 49 74V58C35.7452 58 25 68.7452 25 82H41ZM41 124V82H25V124H41Z" fill="white" mask="url(#path-2-outside-1_30_173)"/>
</svg>
