<svg width="256" height="256" viewBox="0 0 256 256" fill="none" xmlns="http://www.w3.org/2000/svg">
<mask id="path-1-inside-1_710_66" fill="white">
<path d="M60.1084 134.919C68.9448 134.919 76.1084 142.082 76.1084 150.919V195.027C76.1082 203.864 68.9447 211.027 60.1084 211.027H16C7.16355 211.027 0.000169442 203.864 0 195.027V150.919C0 142.082 7.16344 134.919 16 134.919H60.1084ZM150.054 134.919C158.89 134.919 166.054 142.082 166.054 150.919V195.027C166.054 203.864 158.89 211.027 150.054 211.027H105.946C97.1098 211.027 89.9465 203.864 89.9463 195.027V150.919C89.9463 142.082 97.1097 134.919 105.946 134.919H150.054ZM240 134.919C248.837 134.919 256 142.082 256 150.919V195.027C256 203.864 248.836 211.027 240 211.027H195.892C187.055 211.027 179.892 203.864 179.892 195.027V150.919C179.892 142.082 187.055 134.919 195.892 134.919H240ZM60.1084 44.9727C68.9447 44.9728 76.1082 52.1363 76.1084 60.9727V105.081C76.1084 113.918 68.9448 121.081 60.1084 121.081H16C7.16344 121.081 0 113.918 0 105.081V60.9727C0.00016543 52.1362 7.16355 44.9727 16 44.9727H60.1084ZM150.054 44.9727C158.89 44.9727 166.054 52.1362 166.054 60.9727V105.081C166.054 113.918 158.89 121.081 150.054 121.081H105.946C97.1097 121.081 89.9463 113.918 89.9463 105.081V60.9727C89.9465 52.1362 97.1098 44.9727 105.946 44.9727H150.054ZM240 44.9727C248.836 44.9727 256 52.1362 256 60.9727V105.081C256 113.918 248.837 121.081 240 121.081H195.892C187.055 121.081 179.892 113.918 179.892 105.081V60.9727C179.892 52.1363 187.055 44.9728 195.892 44.9727H240Z"/>
</mask>
<path d="M60.1084 134.919L60.1088 112.919H60.1084V134.919ZM76.1084 195.027L98.1084 195.028V195.027H76.1084ZM60.1084 211.027V233.027H60.1088L60.1084 211.027ZM0 195.027H-22V195.028L0 195.027ZM16 134.919V112.919H16L16 134.919ZM166.054 195.027L188.054 195.028V195.027H166.054ZM89.9463 195.027H67.9463V195.028L89.9463 195.027ZM256 195.027L278 195.028V195.027H256ZM240 211.027V233.027V233.027V211.027ZM195.892 211.027L195.891 233.027H195.892V211.027ZM179.892 195.027H157.892V195.028L179.892 195.027ZM195.892 134.919V112.919H195.891L195.892 134.919ZM60.1084 44.9727L60.1088 22.9727H60.1084V44.9727ZM76.1084 60.9727H98.1084V60.9722L76.1084 60.9727ZM60.1084 121.081V143.081H60.1088L60.1084 121.081ZM0 60.9727L-22 60.9722V60.9727H0ZM16 44.9727V22.9727H16L16 44.9727ZM166.054 60.9727H188.054V60.9722L166.054 60.9727ZM89.9463 60.9727L67.9463 60.9722V60.9727H89.9463ZM256 60.9727H278V60.9722L256 60.9727ZM240 121.081V143.081V143.081V121.081ZM195.892 121.081L195.891 143.081H195.892V121.081ZM179.892 60.9727L157.892 60.9722V60.9727H179.892ZM195.892 44.9727V22.9727H195.891L195.892 44.9727ZM60.1084 134.919L60.108 156.919C56.7949 156.919 54.1084 154.233 54.1084 150.919H76.1084H98.1084C98.1084 129.932 81.0948 112.919 60.1088 112.919L60.1084 134.919ZM76.1084 150.919H54.1084V195.027H76.1084H98.1084V150.919H76.1084ZM76.1084 195.027L54.1084 195.027C54.1085 191.713 56.7944 189.027 60.108 189.027L60.1084 211.027L60.1088 233.027C81.0951 233.027 98.108 216.014 98.1084 195.028L76.1084 195.027ZM60.1084 211.027V189.027H16V211.027V233.027H60.1084V211.027ZM16 211.027V189.027C19.3142 189.027 21.9999 191.714 22 195.027L0 195.027L-22 195.028C-21.9996 216.014 -4.98714 233.027 16 233.027V211.027ZM0 195.027H22V150.919H0H-22V195.027H0ZM0 150.919H22C22 154.233 19.3137 156.919 16 156.919V134.919L16 112.919C-4.98682 112.919 -22 129.932 -22 150.919H0ZM16 134.919V156.919H60.1084V134.919V112.919H16V134.919ZM150.054 134.919V156.919C146.74 156.919 144.054 154.233 144.054 150.919H166.054H188.054C188.054 129.932 171.041 112.919 150.054 112.919V134.919ZM166.054 150.919H144.054V195.027H166.054H188.054V150.919H166.054ZM166.054 195.027L144.054 195.027C144.054 191.714 146.74 189.027 150.054 189.027V211.027V233.027C171.041 233.027 188.053 216.014 188.054 195.028L166.054 195.027ZM150.054 211.027V189.027H105.946V211.027V233.027H150.054V211.027ZM105.946 211.027V189.027C109.261 189.027 111.946 191.714 111.946 195.027L89.9463 195.027L67.9463 195.028C67.9467 216.014 84.9592 233.027 105.946 233.027V211.027ZM89.9463 195.027H111.946V150.919H89.9463H67.9463V195.027H89.9463ZM89.9463 150.919H111.946C111.946 154.233 109.26 156.919 105.946 156.919V134.919V112.919C84.9595 112.919 67.9463 129.932 67.9463 150.919H89.9463ZM105.946 134.919V156.919H150.054V134.919V112.919H105.946V134.919ZM240 134.919V156.919C236.686 156.919 234 154.233 234 150.919H256H278C278 129.932 260.987 112.919 240 112.919V134.919ZM256 150.919H234V195.027H256H278V150.919H256ZM256 195.027L234 195.027C234 191.714 236.686 189.027 240 189.027V211.027V233.027C260.987 233.027 278 216.014 278 195.028L256 195.027ZM240 211.027V189.027H195.892V211.027V233.027H240V211.027ZM195.892 211.027L195.892 189.027C199.206 189.027 201.892 191.713 201.892 195.027L179.892 195.027L157.892 195.028C157.892 216.014 174.905 233.027 195.891 233.027L195.892 211.027ZM179.892 195.027H201.892V150.919H179.892H157.892V195.027H179.892ZM179.892 150.919H201.892C201.892 154.233 199.205 156.919 195.892 156.919L195.892 134.919L195.891 112.919C174.905 112.919 157.892 129.932 157.892 150.919H179.892ZM195.892 134.919V156.919H240V134.919V112.919H195.892V134.919ZM60.1084 44.9727L60.108 66.9727C56.7943 66.9726 54.1085 64.2866 54.1084 60.9731L76.1084 60.9727L98.1084 60.9722C98.108 39.986 81.0951 22.973 60.1088 22.9727L60.1084 44.9727ZM76.1084 60.9727H54.1084V105.081H76.1084H98.1084V60.9727H76.1084ZM76.1084 105.081H54.1084C54.1084 101.767 56.7949 99.0811 60.108 99.0811L60.1084 121.081L60.1088 143.081C81.0948 143.081 98.1084 126.068 98.1084 105.081H76.1084ZM60.1084 121.081V99.0811H16V121.081V143.081H60.1084V121.081ZM16 121.081V99.0811C19.3137 99.0811 22 101.767 22 105.081H0H-22C-22 126.068 -4.98682 143.081 16 143.081V121.081ZM0 105.081H22V60.9727H0H-22V105.081H0ZM0 60.9727L22 60.9731C21.9999 64.2862 19.3142 66.9727 16 66.9727V44.9727L16 22.9727C-4.98713 22.9727 -21.9996 39.9863 -22 60.9722L0 60.9727ZM16 44.9727V66.9727H60.1084V44.9727V22.9727H16V44.9727ZM150.054 44.9727V66.9727C146.739 66.9727 144.054 64.2862 144.054 60.9731L166.054 60.9727L188.054 60.9722C188.053 39.9863 171.041 22.9727 150.054 22.9727V44.9727ZM166.054 60.9727H144.054V105.081H166.054H188.054V60.9727H166.054ZM166.054 105.081H144.054C144.054 101.767 146.74 99.0811 150.054 99.0811V121.081V143.081C171.041 143.081 188.054 126.068 188.054 105.081H166.054ZM150.054 121.081V99.0811H105.946V121.081V143.081H150.054V121.081ZM105.946 121.081V99.0811C109.26 99.0811 111.946 101.767 111.946 105.081H89.9463H67.9463C67.9463 126.068 84.9595 143.081 105.946 143.081V121.081ZM89.9463 105.081H111.946V60.9727H89.9463H67.9463V105.081H89.9463ZM89.9463 60.9727L111.946 60.9731C111.946 64.2862 109.261 66.9727 105.946 66.9727V44.9727V22.9727C84.9592 22.9727 67.9467 39.9863 67.9463 60.9722L89.9463 60.9727ZM105.946 44.9727V66.9727H150.054V44.9727V22.9727H105.946V44.9727ZM240 44.9727V66.9727C236.686 66.9727 234 64.2862 234 60.9731L256 60.9727L278 60.9722C278 39.9863 260.987 22.9727 240 22.9727V44.9727ZM256 60.9727H234V105.081H256H278V60.9727H256ZM256 105.081H234C234 101.767 236.686 99.0811 240 99.0811V121.081V143.081C260.987 143.081 278 126.068 278 105.081H256ZM240 121.081V99.0811H195.892V121.081V143.081H240V121.081ZM195.892 121.081L195.892 99.0811C199.205 99.0811 201.892 101.767 201.892 105.081H179.892H157.892C157.892 126.068 174.905 143.081 195.891 143.081L195.892 121.081ZM179.892 105.081H201.892V60.9727H179.892H157.892V105.081H179.892ZM179.892 60.9727L201.892 60.9731C201.892 64.2867 199.206 66.9726 195.892 66.9727L195.892 44.9727L195.891 22.9727C174.905 22.973 157.892 39.986 157.892 60.9722L179.892 60.9727ZM195.892 44.9727V66.9727H240V44.9727V22.9727H195.892V44.9727Z" fill="white" mask="url(#path-1-inside-1_710_66)"/>
</svg>
