<svg width="256" height="256" viewBox="0 0 256 256" fill="none" xmlns="http://www.w3.org/2000/svg">
<mask id="path-1-inside-1_252_6" fill="white">
<path fill-rule="evenodd" clip-rule="evenodd" d="M28 47C16.9543 47 8 55.9543 8 67V128.593C8 129.029 8.5601 129.207 8.81135 128.851C12.1404 124.134 17.1667 120.891 22.8355 119.801L23.4319 119.686C25.8053 119.23 28.2167 119 30.6335 119H227.098C229.36 119 231.617 119.228 233.833 119.68L234.333 119.782C239.704 120.878 244.384 124.145 247.264 128.809C247.475 129.15 248 129.001 248 128.6V67C248 55.9543 239.046 47 228 47H28ZM28 123.601C16.9543 123.601 8 132.555 8 143.601V188.934C8 199.98 16.9543 208.934 28 208.934H228C239.046 208.934 248 199.98 248 188.934V143.601C248 132.555 239.046 123.601 228 123.601H28ZM211 176C216.523 176 221 171.523 221 166C221 160.477 216.523 156 211 156C205.477 156 201 160.477 201 166C201 171.523 205.477 176 211 176ZM177 166C177 171.523 172.523 176 167 176C161.477 176 157 171.523 157 166C157 160.477 161.477 156 167 156C172.523 156 177 160.477 177 166Z"/>
</mask>
<path d="M8.81135 128.851L-3.44316 120.2L-3.44322 120.2L8.81135 128.851ZM22.8355 119.801L20.0028 105.071L20.0028 105.071L22.8355 119.801ZM23.4319 119.686L26.2646 134.416L26.2646 134.416L23.4319 119.686ZM233.833 119.68L230.833 134.377L230.834 134.377L233.833 119.68ZM234.333 119.782L237.332 105.085L237.332 105.085L234.333 119.782ZM247.264 128.809L234.503 136.692L234.503 136.692L247.264 128.809ZM23 67C23 64.2386 25.2386 62 28 62V32C8.67003 32 -7 47.67 -7 67H23ZM23 128.593V67H-7V128.593H23ZM-3.44322 120.2C4.74573 108.599 23 114.394 23 128.593H-7C-7 143.664 12.3745 149.814 21.0659 137.501L-3.44322 120.2ZM20.0028 105.071C10.5255 106.893 2.1224 112.316 -3.44316 120.2L21.0659 137.501C22.1584 135.953 23.8078 134.889 25.6682 134.531L20.0028 105.071ZM20.5992 104.956L20.0028 105.071L25.6682 134.531L26.2646 134.416L20.5992 104.956ZM30.6335 104C27.266 104 23.9061 104.32 20.5991 104.956L26.2646 134.416C27.7044 134.139 29.1673 134 30.6335 134V104ZM227.098 104H30.6335V134H227.098V104ZM236.832 104.983C233.629 104.329 230.368 104 227.098 104V134C228.353 134 229.604 134.126 230.833 134.377L236.832 104.983ZM237.332 105.085L236.832 104.983L230.834 134.377L231.333 134.479L237.332 105.085ZM260.026 120.927C254.971 112.742 246.758 107.009 237.332 105.085L231.333 134.479C232.65 134.748 233.796 135.548 234.503 136.692L260.026 120.927ZM233 128.6C233 113.889 252.296 108.41 260.026 120.927L234.503 136.692C242.654 149.889 263 144.113 263 128.6H233ZM233 67V128.6H263V67H233ZM228 62C230.761 62 233 64.2386 233 67H263C263 47.67 247.33 32 228 32V62ZM28 62H228V32H28V62ZM23 143.601C23 140.839 25.2386 138.601 28 138.601V108.601C8.67001 108.601 -7 124.271 -7 143.601H23ZM23 188.934V143.601H-7V188.934H23ZM28 193.934C25.2386 193.934 23 191.695 23 188.934H-7C-7 208.264 8.67002 223.934 28 223.934V193.934ZM228 193.934H28V223.934H228V193.934ZM233 188.934C233 191.695 230.761 193.934 228 193.934V223.934C247.33 223.934 263 208.264 263 188.934H233ZM233 143.601V188.934H263V143.601H233ZM228 138.601C230.761 138.601 233 140.839 233 143.601H263C263 124.271 247.33 108.601 228 108.601V138.601ZM28 138.601H228V108.601H28V138.601ZM206 166C206 163.239 208.239 161 211 161V191C224.807 191 236 179.807 236 166H206ZM211 171C208.239 171 206 168.761 206 166H236C236 152.193 224.807 141 211 141V171ZM216 166C216 168.761 213.761 171 211 171V141C197.193 141 186 152.193 186 166H216ZM211 161C213.761 161 216 163.239 216 166H186C186 179.807 197.193 191 211 191V161ZM167 191C180.807 191 192 179.807 192 166H162C162 163.239 164.239 161 167 161V191ZM142 166C142 179.807 153.193 191 167 191V161C169.761 161 172 163.239 172 166H142ZM167 141C153.193 141 142 152.193 142 166H172C172 168.761 169.761 171 167 171V141ZM192 166C192 152.193 180.807 141 167 141V171C164.239 171 162 168.761 162 166H192Z" fill="white" mask="url(#path-1-inside-1_252_6)"/>
</svg>
