<svg width="256" height="256" viewBox="0 0 256 256" fill="none" xmlns="http://www.w3.org/2000/svg">
  <g clip-path="url(#clip0_14_68)">
    <mask id="path-1-inside-1_14_68" fill="white">
      <path fill-rule="evenodd" clip-rule="evenodd" d="M80 0C71.1634 0 64 7.16344 64 16V64.0123H17.0878C8.25121 64.0123 1.08777 71.1758 1.08777 80.0123C1.08777 88.8489 8.25121 96.0123 17.0878 96.0123H64V159.988H14.9122C6.07568 159.988 -1.08777 167.151 -1.08777 175.988C-1.08777 184.824 6.07568 191.988 14.9122 191.988H64V240C64 248.837 71.1634 256 80 256C88.8366 256 96 248.837 96 240V191.988H160V240C160 248.837 167.163 256 176 256C184.837 256 192 248.837 192 240V191.988H238.912C247.749 191.988 254.912 184.824 254.912 175.988C254.912 167.151 247.749 159.988 238.912 159.988H192V96.0123H241.088C249.924 96.0123 257.088 88.8489 257.088 80.0123C257.088 71.1758 249.924 64.0123 241.088 64.0123H192V16C192 7.16344 184.837 0 176 0C167.163 0 160 7.16344 160 16V64.0123H96V16C96 7.16344 88.8366 0 80 0ZM160 159.988V96.0123H96V159.988H160Z"/>
    </mask>
    <path d="M64 64.0123V72.0123H72V64.0123H64ZM64 96.0123H72V88.0123H64V96.0123ZM64 159.988V167.988H72V159.988H64ZM64 191.988H72V183.988H64V191.988ZM96 191.988V183.988H88V191.988H96ZM160 191.988H168V183.988H160V191.988ZM192 191.988V183.988H184V191.988H192ZM192 159.988H184V167.988H192V159.988ZM192 96.0123V88.0123H184V96.0123H192ZM192 64.0123H184V72.0123H192V64.0123ZM160 64.0123V72.0123H168V64.0123H160ZM96 64.0123H88V72.0123H96V64.0123ZM160 159.988V167.988H168V159.988H160ZM160 96.0123H168V88.0123H160V96.0123ZM96 96.0123V88.0123H88V96.0123H96ZM96 159.988H88V167.988H96V159.988ZM72 16C72 11.5817 75.5817 8 80 8V-8C66.7452 -8 56 2.74517 56 16H72ZM72 64.0123V16H56V64.0123H72ZM17.0878 72.0123H64V56.0123H17.0878V72.0123ZM9.08777 80.0123C9.08777 75.5941 12.6695 72.0123 17.0878 72.0123V56.0123C3.83294 56.0123 -6.91223 66.7575 -6.91223 80.0123H9.08777ZM17.0878 88.0123C12.6695 88.0123 9.08777 84.4306 9.08777 80.0123H-6.91223C-6.91223 93.2672 3.83294 104.012 17.0878 104.012V88.0123ZM64 88.0123H17.0878V104.012H64V88.0123ZM72 159.988V96.0123H56V159.988H72ZM14.9122 167.988H64V151.988H14.9122V167.988ZM6.91223 175.988C6.91223 171.569 10.494 167.988 14.9122 167.988V151.988C1.6574 151.988 -9.08777 162.733 -9.08777 175.988H6.91223ZM14.9122 183.988C10.494 183.988 6.91223 180.406 6.91223 175.988H-9.08777C-9.08777 189.243 1.6574 199.988 14.9122 199.988V183.988ZM64 183.988H14.9122V199.988H64V183.988ZM72 240V191.988H56V240H72ZM80 248C75.5817 248 72 244.418 72 240H56C56 253.255 66.7452 264 80 264V248ZM88 240C88 244.418 84.4183 248 80 248V264C93.2548 264 104 253.255 104 240H88ZM88 191.988V240H104V191.988H88ZM160 183.988H96V199.988H160V183.988ZM168 240V191.988H152V240H168ZM176 248C171.582 248 168 244.418 168 240H152C152 253.255 162.745 264 176 264V248ZM184 240C184 244.418 180.418 248 176 248V264C189.255 264 200 253.255 200 240H184ZM184 191.988V240H200V191.988H184ZM238.912 183.988H192V199.988H238.912V183.988ZM246.912 175.988C246.912 180.406 243.331 183.988 238.912 183.988V199.988C252.167 199.988 262.912 189.243 262.912 175.988H246.912ZM238.912 167.988C243.331 167.988 246.912 171.569 246.912 175.988H262.912C262.912 162.733 252.167 151.988 238.912 151.988V167.988ZM192 167.988H238.912V151.988H192V167.988ZM184 96.0123V159.988H200V96.0123H184ZM241.088 88.0123H192V104.012H241.088V88.0123ZM249.088 80.0123C249.088 84.4306 245.506 88.0123 241.088 88.0123V104.012C254.343 104.012 265.088 93.2672 265.088 80.0123H249.088ZM241.088 72.0123C245.506 72.0123 249.088 75.594 249.088 80.0123H265.088C265.088 66.7575 254.343 56.0123 241.088 56.0123V72.0123ZM192 72.0123H241.088V56.0123H192V72.0123ZM184 16V64.0123H200V16H184ZM176 8C180.418 8 184 11.5817 184 16H200C200 2.74517 189.255 -8 176 -8V8ZM168 16C168 11.5817 171.582 8 176 8V-8C162.745 -8 152 2.74517 152 16H168ZM168 64.0123V16H152V64.0123H168ZM96 72.0123H160V56.0123H96V72.0123ZM88 16V64.0123H104V16H88ZM80 8C84.4183 8 88 11.5817 88 16H104C104 2.74517 93.2548 -8 80 -8V8ZM168 159.988V96.0123H152V159.988H168ZM160 88.0123H96V104.012H160V88.0123ZM88 96.0123V159.988H104V96.0123H88ZM96 167.988H160V151.988H96V167.988Z" fill="white" mask="url(#path-1-inside-1_14_68)"/>
  </g>
</svg>