<svg width="256" height="256" viewBox="0 0 256 256" fill="none" xmlns="http://www.w3.org/2000/svg">
<mask id="path-1-outside-1_710_21" maskUnits="userSpaceOnUse" x="0" y="0" width="256" height="256" fill="black">
<rect fill="white" width="256" height="256"/>
<path d="M167.415 22C174.671 22 180.554 27.8826 180.554 35.1387V75.0098H220.75C228.068 75.0098 234 80.9422 234 88.2598C234 95.5775 228.068 101.51 220.75 101.51H180.554V154.49H218.964C226.281 154.49 232.214 160.423 232.214 167.74C232.214 175.058 226.281 180.99 218.964 180.99H180.554V220.861C180.554 228.117 174.671 234 167.415 234C160.159 234 154.276 228.117 154.276 220.861V180.99H101.724V220.861C101.724 228.117 95.8411 234 88.585 234C81.3289 234 75.4463 228.117 75.4463 220.861V180.99H35.25C27.9324 180.99 22.0002 175.058 22 167.74C22 160.423 27.9323 154.49 35.25 154.49H75.4463V101.51H37.0361C29.7185 101.51 23.7861 95.5774 23.7861 88.2598C23.7864 80.9423 29.7187 75.01 37.0361 75.0098H75.4463V35.1387C75.4463 27.8826 81.3289 22 88.585 22C95.8411 22 101.724 27.8826 101.724 35.1387V75.0098H154.276V35.1387C154.276 27.8826 160.159 22 167.415 22ZM101.724 154.49H154.276V101.51H101.724V154.49Z"/>
</mask>
<path d="M167.415 22L167.415 0H167.415V22ZM180.554 75.0098H158.554V97.0098H180.554V75.0098ZM220.75 75.0098L220.75 53.0098H220.75V75.0098ZM234 88.2598H256V88.259L234 88.2598ZM220.75 101.51V123.51H220.75L220.75 101.51ZM180.554 101.51V79.5098H158.554V101.51H180.554ZM180.554 154.49H158.554V176.49H180.554V154.49ZM218.964 154.49L218.964 132.49H218.964V154.49ZM232.214 167.74L254.214 167.741V167.74H232.214ZM218.964 180.99V202.99H218.964L218.964 180.99ZM180.554 180.99V158.99H158.554V180.99H180.554ZM167.415 234V256H167.415L167.415 234ZM154.276 180.99H176.276V158.99H154.276V180.99ZM101.724 180.99V158.99H79.7236V180.99H101.724ZM88.585 234L88.5849 256H88.585V234ZM75.4463 180.99H97.4463V158.99H75.4463V180.99ZM35.25 180.99L35.2498 202.99H35.25V180.99ZM22 167.74H0V167.741L22 167.74ZM35.25 154.49V132.49H35.2498L35.25 154.49ZM75.4463 154.49V176.49H97.4463V154.49H75.4463ZM75.4463 101.51H97.4463V79.5098H75.4463V101.51ZM37.0361 101.51L37.0355 123.51H37.0361V101.51ZM23.7861 88.2598L1.78613 88.259V88.2598H23.7861ZM37.0361 75.0098V53.0098H37.0355L37.0361 75.0098ZM75.4463 75.0098V97.0098H97.4463V75.0098H75.4463ZM88.585 22V0H88.5849L88.585 22ZM101.724 75.0098H79.7236V97.0098H101.724V75.0098ZM154.276 75.0098V97.0098H176.276V75.0098H154.276ZM101.724 154.49H79.7236V176.49H101.724V154.49ZM154.276 154.49V176.49H176.276V154.49H154.276ZM154.276 101.51H176.276V79.5098H154.276V101.51ZM101.724 101.51V79.5098H79.7236V101.51H101.724ZM167.415 22L167.415 44C162.521 44 158.554 40.033 158.554 35.1387H180.554H202.554C202.554 15.7322 186.821 0.000133514 167.415 0L167.415 22ZM180.554 35.1387H158.554V75.0098H180.554H202.554V35.1387H180.554ZM180.554 75.0098V97.0098H220.75V75.0098V53.0098H180.554V75.0098ZM220.75 75.0098L220.75 97.0098C215.917 97.0097 212 93.0922 212 88.2605L234 88.2598L256 88.259C255.999 68.7923 240.218 53.01 220.75 53.0098L220.75 75.0098ZM234 88.2598H212C212 83.427 215.918 79.5098 220.75 79.5098L220.75 101.51L220.75 123.51C240.218 123.51 256 107.728 256 88.2598H234ZM220.75 101.51V79.5098H180.554V101.51V123.51H220.75V101.51ZM180.554 101.51H158.554V154.49H180.554H202.554V101.51H180.554ZM180.554 154.49V176.49H218.964V154.49V132.49H180.554V154.49ZM218.964 154.49L218.963 176.49C214.132 176.49 210.214 172.573 210.214 167.74H232.214H254.214C254.214 148.272 238.431 132.491 218.964 132.49L218.964 154.49ZM232.214 167.74L210.214 167.74C210.214 162.907 214.131 158.99 218.963 158.99L218.964 180.99L218.964 202.99C238.432 202.99 254.213 187.208 254.214 167.741L232.214 167.74ZM218.964 180.99V158.99H180.554V180.99V202.99H218.964V180.99ZM180.554 180.99H158.554V220.861H180.554H202.554V180.99H180.554ZM180.554 220.861H158.554C158.554 215.967 162.521 212 167.415 212L167.415 234L167.415 256C186.821 256 202.554 240.268 202.554 220.861H180.554ZM167.415 234V212C172.309 212 176.276 215.967 176.276 220.861H154.276H132.276C132.276 240.268 148.009 256 167.415 256V234ZM154.276 220.861H176.276V180.99H154.276H132.276V220.861H154.276ZM154.276 180.99V158.99H101.724V180.99V202.99H154.276V180.99ZM101.724 180.99H79.7236V220.861H101.724H123.724V180.99H101.724ZM101.724 220.861H79.7236C79.7236 215.967 83.6908 212 88.585 212V234V256C107.991 256 123.724 240.268 123.724 220.861H101.724ZM88.585 234L88.585 212C93.4791 212 97.4463 215.967 97.4463 220.861H75.4463H53.4463C53.4463 240.268 69.1786 256 88.5849 256L88.585 234ZM75.4463 220.861H97.4463V180.99H75.4463H53.4463V220.861H75.4463ZM75.4463 180.99V158.99H35.25V180.99V202.99H75.4463V180.99ZM35.25 180.99L35.2502 158.99C40.0833 158.99 43.9998 162.908 44 167.74L22 167.74L0 167.741C0.000637054 187.208 15.7816 202.99 35.2498 202.99L35.25 180.99ZM22 167.74H44C44 172.573 40.0824 176.49 35.2502 176.49L35.25 154.49L35.2498 132.49C15.7822 132.49 0 148.272 0 167.74H22ZM35.25 154.49V176.49H75.4463V154.49V132.49H35.25V154.49ZM75.4463 154.49H97.4463V101.51H75.4463H53.4463V154.49H75.4463ZM75.4463 101.51V79.5098H37.0361V101.51V123.51H75.4463V101.51ZM37.0361 101.51L37.0367 79.5098C41.8683 79.5099 45.7861 83.4266 45.7861 88.2598H23.7861H1.78613C1.78613 107.728 17.5687 123.509 37.0355 123.51L37.0361 101.51ZM23.7861 88.2598L45.7861 88.2605C45.786 93.0926 41.8692 97.0096 37.0367 97.0098L37.0361 75.0098L37.0355 53.0098C17.5682 53.0103 1.78677 68.792 1.78613 88.259L23.7861 88.2598ZM37.0361 75.0098V97.0098H75.4463V75.0098V53.0098H37.0361V75.0098ZM75.4463 75.0098H97.4463V35.1387H75.4463H53.4463V75.0098H75.4463ZM75.4463 35.1387H97.4463C97.4463 40.0329 93.4791 44 88.585 44L88.585 22L88.5849 0C69.1786 4.19617e-05 53.4463 15.7323 53.4463 35.1387H75.4463ZM88.585 22V44C83.6908 44 79.7236 40.0328 79.7236 35.1387H101.724H123.724C123.724 15.7323 107.991 0 88.585 0V22ZM101.724 35.1387H79.7236V75.0098H101.724H123.724V35.1387H101.724ZM101.724 75.0098V97.0098H154.276V75.0098V53.0098H101.724V75.0098ZM154.276 75.0098H176.276V35.1387H154.276H132.276V75.0098H154.276ZM154.276 35.1387H176.276C176.276 40.0328 172.309 44 167.415 44V22V0C148.009 0 132.276 15.7323 132.276 35.1387H154.276ZM101.724 154.49V176.49H154.276V154.49V132.49H101.724V154.49ZM154.276 154.49H176.276V101.51H154.276H132.276V154.49H154.276ZM154.276 101.51V79.5098H101.724V101.51V123.51H154.276V101.51ZM101.724 101.51H79.7236V154.49H101.724H123.724V101.51H101.724Z" fill="white" mask="url(#path-1-outside-1_710_21)"/>
</svg>
