<svg width="256" height="256" viewBox="0 0 256 256" fill="none" xmlns="http://www.w3.org/2000/svg">
<g clip-path="url(#clip0_14_68)">
<path fill-rule="evenodd" clip-rule="evenodd" d="M72 72.0123H64H17.0878C12.6695 72.0123 9.08777 75.5941 9.08777 80.0123C9.08777 84.4306 12.6695 88.0123 17.0878 88.0123H64H72V96.0123V159.988V167.988H64H14.9122C10.494 167.988 6.91223 171.569 6.91223 175.988C6.91223 180.406 10.494 183.988 14.9122 183.988H64H72V191.988V240C72 244.418 75.5817 248 80 248C84.4183 248 88 244.418 88 240V191.988V183.988H96H160H168V191.988V240C168 244.418 171.582 248 176 248C180.418 248 184 244.418 184 240V191.988V183.988H192H238.912C243.331 183.988 246.912 180.406 246.912 175.988C246.912 171.569 243.331 167.988 238.912 167.988H192H184V159.988V96.0123V88.0123H192H241.088C245.506 88.0123 249.088 84.4306 249.088 80.0123C249.088 75.594 245.506 72.0123 241.088 72.0123H192H184V64.0123V16C184 11.5817 180.418 8 176 8C171.582 8 168 11.5817 168 16V64.0123V72.0123H160H96H88V64.0123V16C88 11.5817 84.4183 8 80 8C75.5817 8 72 11.5817 72 16V64.0123V72.0123ZM168 167.988H160H96H88V159.988V96.0123V88.0123H96H160H168V96.0123V159.988V167.988ZM64 56.0123V16C64 7.16344 71.1634 0 80 0C88.8366 0 96 7.16344 96 16V56.0123V64.0123H104H152H160V56.0123V16C160 7.16344 167.163 0 176 0C184.837 0 192 7.16344 192 16V56.0123V64.0123H200H241.088C249.924 64.0123 257.088 71.1758 257.088 80.0123C257.088 88.8489 249.924 96.0123 241.088 96.0123H200H192V104.012V151.988V159.988H200H238.912C247.749 159.988 254.912 167.151 254.912 175.988C254.912 184.824 247.749 191.988 238.912 191.988H200H192V199.988V240C192 248.837 184.837 256 176 256C167.163 256 160 248.837 160 240V199.988V191.988H152H104H96V199.988V240C96 248.837 88.8366 256 80 256C71.1634 256 64 248.837 64 240V199.988V191.988H56H14.9122C6.07568 191.988 -1.08777 184.824 -1.08777 175.988C-1.08777 167.151 6.07568 159.988 14.9122 159.988H56H64V151.988V104.012V96.0123H56H17.0878C8.25121 96.0123 1.08777 88.8489 1.08777 80.0123C1.08777 71.1758 8.25121 64.0123 17.0878 64.0123H56H64V56.0123ZM152 96.0123H160V104.012V151.988V159.988H152H104H96V151.988V104.012V96.0123H104H152Z" fill="white"/>
</g>
<defs>
<clipPath id="clip0_14_68">
<rect width="256" height="256" fill="white"/>
</clipPath>
</defs>
</svg>
