<svg width="256" height="256" viewBox="0 0 256 256" fill="none" xmlns="http://www.w3.org/2000/svg">
<path d="M63.5041 24.5458C71.0149 23.5222 78.6429 23.7412 86.0826 25.1939L89.822 25.924C91.6739 26.2856 93.4858 26.8284 95.2315 27.5446L97.8156 28.6047C106.078 31.9946 113.48 37.1863 119.481 43.801L126.519 51.5588C127.312 52.4338 128.688 52.4338 129.481 51.5588L136.519 43.801C142.52 37.1863 149.922 31.9946 158.184 28.6047L160.747 27.5534C162.507 26.8314 164.334 26.2841 166.201 25.9196L169.875 25.202C177.344 23.7438 185 23.5121 192.543 24.5163V24.5163C211.172 26.9961 227.225 38.8611 235.061 55.942L236.98 60.1226C237.973 62.288 238.76 64.5423 239.329 66.8557L241.06 73.8838C242.116 78.1745 242.695 82.5687 242.787 86.9865L242.812 88.1958C242.936 94.2314 242.15 100.251 240.478 106.052L239.606 109.079C238.549 112.744 237.146 116.301 235.414 119.7L231.142 128.087C229.856 130.611 228.393 133.041 226.763 135.359L217.056 149.167L202.033 166.455L132.011 229.395C129.73 231.445 126.27 231.445 123.989 229.395L53.9672 166.455L38.9441 149.167L29.2367 135.359C27.6075 133.041 26.1444 130.611 24.8584 128.087L20.5855 119.7C18.854 116.301 17.4506 112.744 16.3943 109.079L15.6417 106.468C13.8916 100.395 13.1119 94.0833 13.3316 87.767L13.3598 86.9585C13.5128 82.5592 14.1495 78.1901 15.2583 73.9301L17.0927 66.8827C17.6996 64.5513 18.523 62.2817 19.5522 60.1035L21.9731 54.9802C29.7775 38.4634 45.4036 27.0124 63.5041 24.5458V24.5458Z" stroke="white" stroke-width="22"/>
</svg>
