<svg width="256" height="256" viewBox="0 0 256 256" fill="none" xmlns="http://www.w3.org/2000/svg">
<mask id="path-1-inside-1_710_785" fill="white">
<path d="M174.602 13.4546C182.92 11.8288 191.446 11.5704 199.847 12.6899C220.576 15.4526 238.436 28.6615 247.148 47.6724L249.301 52.3687C250.405 54.7789 251.28 57.2882 251.913 59.8628L254.023 68.4429C255.077 72.729 255.656 77.1188 255.747 81.5317L255.812 84.6968C255.937 90.7259 255.152 96.7396 253.483 102.535L252.04 107.55C250.986 111.213 249.584 114.767 247.855 118.164L240.651 132.321L227.123 151.585L210.401 170.85L132.014 241.388C129.732 243.441 126.268 243.441 123.986 241.388L45.5986 170.85L28.8769 151.585L15.3486 132.321L8.14446 118.164C6.41593 114.767 5.01522 111.213 3.96087 107.55L2.63665 102.95C0.890213 96.8828 0.111811 90.5785 0.330985 84.269L0.426688 81.5044C0.579374 77.1099 1.21476 72.7454 2.32122 68.4897L4.55657 59.8931C5.23117 57.2985 6.14671 54.7725 7.29095 52.3481L10.0029 46.6021C18.6795 28.2189 36.0647 15.471 56.206 12.7231C64.5703 11.582 73.0656 11.8263 81.3505 13.4458L85.5068 14.2583C87.5676 14.6612 89.5839 15.2653 91.5263 16.063L95.8193 17.8267C104.084 21.221 111.486 26.4181 117.485 33.0386L127.259 43.8237C127.656 44.2617 128.344 44.2617 128.741 43.8237L138.515 33.0386C144.514 26.4181 151.916 21.221 160.181 17.8267L164.45 16.0737C166.408 15.2695 168.441 14.6596 170.518 14.2534L174.602 13.4546Z"/>
</mask>
<path d="M174.602 13.4546L170.382 -8.13677L170.379 -8.13626L174.602 13.4546ZM199.847 12.6899L202.753 -9.11724L202.753 -9.11725L199.847 12.6899ZM247.148 47.6724L227.149 56.8381L227.149 56.8383L247.148 47.6724ZM249.301 52.3687L269.3 43.2029L269.3 43.2027L249.301 52.3687ZM251.913 59.8628L230.55 65.1167L230.55 65.1173L251.913 59.8628ZM254.023 68.4429L275.387 63.189L275.387 63.1884L254.023 68.4429ZM255.747 81.5317L277.742 81.077V81.077L255.747 81.5317ZM255.812 84.6968L277.808 84.2422V84.2421L255.812 84.6968ZM253.483 102.535L232.342 96.4488L232.341 96.4506L253.483 102.535ZM252.04 107.55L273.181 113.636L273.182 113.634L252.04 107.55ZM247.855 118.164L228.248 108.186L228.248 108.186L247.855 118.164ZM240.651 132.321L258.655 144.964L259.552 143.688L260.259 142.298L240.651 132.321ZM227.123 151.585L243.737 166.007L244.478 165.153L245.127 164.229L227.123 151.585ZM210.401 170.85L225.117 187.204L226.126 186.296L227.016 185.271L210.401 170.85ZM132.014 241.388L146.73 257.742L146.73 257.742L132.014 241.388ZM123.986 241.388L109.27 257.742L109.27 257.742L123.986 241.388ZM45.5986 170.85L28.9844 185.271L29.8739 186.296L30.8826 187.204L45.5986 170.85ZM28.8769 151.585L10.8727 164.229L11.522 165.153L12.2627 166.007L28.8769 151.585ZM15.3486 132.321L-4.25883 142.298L-3.55168 143.688L-2.65561 144.964L15.3486 132.321ZM8.14446 118.164L-11.4629 128.141L-11.4629 128.141L8.14446 118.164ZM3.96087 107.55L-17.1808 113.636L-17.1806 113.636L3.96087 107.55ZM2.63665 102.95L23.7783 96.8644L23.7781 96.8638L2.63665 102.95ZM0.330985 84.269L22.3177 85.0328L22.3178 85.0302L0.330985 84.269ZM0.426688 81.5044L-21.56 80.7405L-21.5601 80.7433L0.426688 81.5044ZM2.32122 68.4897L-18.9707 62.9533L-18.9709 62.9538L2.32122 68.4897ZM4.55657 59.8931L25.8485 65.4295L25.8486 65.4291L4.55657 59.8931ZM7.29095 52.3481L27.1863 61.7382L27.1864 61.738L7.29095 52.3481ZM10.0029 46.6021L-9.89241 37.2117L-9.89264 37.2122L10.0029 46.6021ZM56.206 12.7231L53.2321 -9.07493L53.2321 -9.07492L56.206 12.7231ZM81.3505 13.4458L85.5714 -8.1455L85.5711 -8.14557L81.3505 13.4458ZM85.5068 14.2583L81.2859 35.8496L81.286 35.8496L85.5068 14.2583ZM91.5263 16.063L99.8865 -4.28663L99.8842 -4.28756L91.5263 16.063ZM95.8193 17.8267L87.4591 38.1763L87.4611 38.1771L95.8193 17.8267ZM117.485 33.0386L101.183 47.8113L101.183 47.8115L117.485 33.0386ZM127.259 43.8237L143.561 29.051L143.561 29.0508L127.259 43.8237ZM128.741 43.8237L112.439 29.0508L112.439 29.051L128.741 43.8237ZM138.515 33.0386L154.817 47.8115L154.817 47.8113L138.515 33.0386ZM160.181 17.8267L151.825 -2.52483L151.822 -2.5238L160.181 17.8267ZM164.45 16.0737L172.806 36.4252L172.808 36.4243L164.45 16.0737ZM170.518 14.2534L174.739 35.8447L174.742 35.8443L170.518 14.2534ZM174.602 13.4546L178.823 35.0459C184.792 33.8791 190.912 33.6937 196.94 34.4971L199.847 12.6899L202.753 -9.11725C191.981 -10.5528 181.047 -10.2215 170.382 -8.13677L174.602 13.4546ZM199.847 12.6899L196.94 34.4971C210.178 36.2614 221.584 44.6969 227.149 56.8381L247.148 47.6724L267.148 38.5066C255.287 12.626 230.973 -5.35626 202.753 -9.11724L199.847 12.6899ZM247.148 47.6724L227.149 56.8383L229.301 61.5346L249.301 52.3687L269.3 43.2027L267.148 38.5064L247.148 47.6724ZM249.301 52.3687L229.301 61.5344C229.828 62.6853 230.247 63.8849 230.55 65.1167L251.913 59.8628L273.276 54.6089C272.313 50.6916 270.982 46.8724 269.3 43.2029L249.301 52.3687ZM251.913 59.8628L230.55 65.1173L232.66 73.6974L254.023 68.4429L275.387 63.1884L273.276 54.6083L251.913 59.8628ZM254.023 68.4429L232.66 73.6967C233.328 76.4125 233.694 79.1928 233.752 81.9865L255.747 81.5317L277.742 81.077C277.618 75.0448 276.827 69.0456 275.387 63.189L254.023 68.4429ZM255.747 81.5317L233.752 81.9864L233.817 85.1515L255.812 84.6968L277.808 84.2421L277.742 81.077L255.747 81.5317ZM255.812 84.6968L233.817 85.1513C233.896 88.9687 233.399 92.7775 232.342 96.4488L253.483 102.535L274.625 108.621C276.904 100.702 277.978 92.4831 277.808 84.2422L255.812 84.6968ZM253.483 102.535L232.341 96.4506L230.898 101.466L252.04 107.55L273.182 113.634L274.625 108.619L253.483 102.535ZM252.04 107.55L230.899 101.464C230.231 103.781 229.344 106.032 228.248 108.186L247.855 118.164L267.463 128.141C269.824 123.501 271.74 118.644 273.181 113.636L252.04 107.55ZM247.855 118.164L228.248 108.186L221.044 122.343L240.651 132.321L260.259 142.298L267.463 128.141L247.855 118.164ZM240.651 132.321L222.647 119.678L209.119 138.942L227.123 151.585L245.127 164.229L258.655 144.964L240.651 132.321ZM227.123 151.585L210.509 137.164L193.787 156.429L210.401 170.85L227.016 185.271L243.737 166.007L227.123 151.585ZM210.401 170.85L195.685 154.497L117.298 225.035L132.014 241.388L146.73 257.742L225.117 187.204L210.401 170.85ZM132.014 241.388L117.298 225.035C123.382 219.559 132.618 219.559 138.702 225.035L123.986 241.388L109.27 257.742C119.918 267.324 136.081 267.324 146.73 257.742L132.014 241.388ZM123.986 241.388L138.702 225.035L60.3145 154.497L45.5986 170.85L30.8826 187.204L109.27 257.742L123.986 241.388ZM45.5986 170.85L62.2128 156.429L45.4911 137.164L28.8769 151.585L12.2627 166.007L28.9844 185.271L45.5986 170.85ZM28.8769 151.585L46.8811 138.942L33.3527 119.678L15.3486 132.321L-2.65561 144.964L10.8727 164.229L28.8769 151.585ZM15.3486 132.321L34.956 122.343L27.7518 108.186L8.14446 118.164L-11.4629 128.141L-4.25883 142.298L15.3486 132.321ZM8.14446 118.164L27.7519 108.186C26.6575 106.035 25.7703 103.785 25.1023 101.464L3.96087 107.55L-17.1806 113.636C-15.7399 118.641 -13.8256 123.498 -11.4629 128.141L8.14446 118.164ZM3.96087 107.55L25.1025 101.465L23.7783 96.8644L2.63665 102.95L-18.505 109.035L-17.1808 113.636L3.96087 107.55ZM2.63665 102.95L23.7781 96.8638C22.6718 93.0205 22.1789 89.0278 22.3177 85.0328L0.330985 84.269L-21.6558 83.5053C-21.9553 92.1292 -20.8913 100.745 -18.5048 109.036L2.63665 102.95ZM0.330985 84.269L22.3178 85.0302L22.4135 82.2655L0.426688 81.5044L-21.5601 80.7433L-21.6558 83.5079L0.330985 84.269ZM0.426688 81.5044L22.4134 82.2683C22.5101 79.4854 22.9125 76.7211 23.6133 74.0257L2.32122 68.4897L-18.9709 62.9538C-20.483 68.7697 -21.3514 74.7345 -21.56 80.7405L0.426688 81.5044ZM2.32122 68.4897L23.6132 74.0262L25.8485 65.4295L4.55657 59.8931L-16.7354 54.3566L-18.9707 62.9533L2.32122 68.4897ZM4.55657 59.8931L25.8486 65.4291C26.1785 64.1606 26.6263 62.9248 27.1863 61.7382L7.29095 52.3481L-12.6044 42.958C-14.3329 46.6202 -15.7161 50.4365 -16.7355 54.357L4.55657 59.8931ZM7.29095 52.3481L27.1864 61.738L29.8984 55.9919L10.0029 46.6021L-9.89264 37.2122L-12.6046 42.9583L7.29095 52.3481ZM10.0029 46.6021L29.8981 55.9924C35.397 44.3418 46.4151 36.2627 59.1799 34.5212L56.206 12.7231L53.2321 -9.07492C25.7142 -5.32064 1.96193 12.096 -9.89241 37.2117L10.0029 46.6021ZM56.206 12.7231L59.1798 34.5212C65.1506 33.7067 71.2152 33.881 77.13 35.0372L81.3505 13.4458L85.5711 -8.14557C74.9159 -10.2284 63.99 -10.5426 53.2321 -9.07493L56.206 12.7231ZM81.3505 13.4458L77.1297 35.0371L81.2859 35.8496L85.5068 14.2583L89.7276 -7.333L85.5714 -8.1455L81.3505 13.4458ZM85.5068 14.2583L81.286 35.8496C81.9345 35.9764 82.5648 36.1657 83.1684 36.4135L91.5263 16.063L99.8842 -4.28756C96.603 -5.63515 93.2007 -6.65408 89.7275 -7.33302L85.5068 14.2583ZM91.5263 16.063L83.1661 36.4126L87.4591 38.1763L95.8193 17.8267L104.179 -2.52296L99.8865 -4.28663L91.5263 16.063ZM95.8193 17.8267L87.4611 38.1771C92.6954 40.3269 97.3835 43.6184 101.183 47.8113L117.485 33.0386L133.788 18.2658C125.588 9.21775 115.472 2.11504 104.177 -2.5238L95.8193 17.8267ZM117.485 33.0386L101.183 47.8115L110.957 58.5967L127.259 43.8237L143.561 29.0508L133.787 18.2657L117.485 33.0386ZM127.259 43.8237L110.956 58.5964C120.085 68.6708 135.914 68.6708 145.043 58.5965L128.741 43.8237L112.439 29.051C120.774 19.8527 135.226 19.8526 143.561 29.051L127.259 43.8237ZM128.741 43.8237L145.043 58.5967L154.817 47.8115L138.515 33.0386L122.212 18.2657L112.439 29.0508L128.741 43.8237ZM138.515 33.0386L154.817 47.8113C158.616 43.6184 163.304 40.3269 168.539 38.1771L160.181 17.8267L151.822 -2.5238C140.528 2.11504 130.411 9.21769 122.212 18.2658L138.515 33.0386ZM160.181 17.8267L168.536 38.1781L172.806 36.4252L164.45 16.0737L156.094 -4.27776L151.825 -2.52483L160.181 17.8267ZM164.45 16.0737L172.808 36.4243C173.434 36.1674 174.08 35.9735 174.739 35.8447L170.518 14.2534L166.298 -7.3379C162.801 -6.65441 159.383 -5.62847 156.092 -4.27679L164.45 16.0737ZM170.518 14.2534L174.742 35.8443L178.826 35.0454L174.602 13.4546L170.379 -8.13626L166.295 -7.33743L170.518 14.2534Z" fill="white" mask="url(#path-1-inside-1_710_785)"/>
</svg>
