<svg width="256" height="256" viewBox="0 0 256 256" fill="none" xmlns="http://www.w3.org/2000/svg">
<path d="M128.5 204L128.5 211.5H128.5V204ZM128.5 50.9995V43.4995V50.9995ZM67.4365 81.4109L61.4536 76.8882L67.4365 81.4109ZM53.2563 84.8212L49.5557 91.3447L53.2563 84.8212ZM51.5135 83.8326L55.2141 77.3091H55.2141L51.5135 83.8326ZM48.1875 70.4584L42.0765 66.1103L42.0765 66.1103L48.1875 70.4584ZM46.6375 182.297L52.8662 178.12L49.1604 172.594L43.2326 175.615L46.6375 182.297ZM34.7112 188.374L31.3063 181.691L31.3063 181.691L34.7112 188.374ZM31.8366 186.228L39.2115 187.592L39.2115 187.592L31.8366 186.228ZM40.3158 140.391L47.6907 141.756L47.6907 141.756L40.3158 140.391ZM43.1441 138.95L39.9129 145.719L39.9129 145.719L43.1441 138.95ZM85.2108 159.033L88.442 152.264L88.4419 152.264L85.2108 159.033ZM85.2571 162.62L88.662 169.302L88.662 169.302L85.2571 162.62ZM66.4231 172.216L63.0181 165.533L55.2195 169.507L60.3412 176.605L66.4231 172.216ZM121.172 139.509L125.723 133.548L125.446 133.337L125.151 133.152L121.172 139.509ZM123.066 140.673L126.333 133.922L126.333 133.922L123.066 140.673ZM154.363 155.817L151.096 162.568H151.096L154.363 155.817ZM169.056 150.706L175.807 153.973V153.973L169.056 150.706ZM163.946 136.013L160.679 142.764L163.946 136.013ZM138 123.459H130.5V128.162L134.733 130.21L138 123.459ZM197.5 127.5C197.5 165.607 166.608 196.499 128.5 196.5V211.5C174.892 211.499 212.5 173.891 212.5 127.5H197.5ZM128.5 58.4995C166.608 58.4995 197.5 89.3919 197.5 127.5H212.5C212.5 81.1076 174.892 43.4995 128.5 43.4995V58.4995ZM73.4194 85.9337C86.0281 69.2543 106.007 58.4995 128.5 58.4995V43.4995C101.107 43.4995 76.7753 56.6201 61.4536 76.8882L73.4194 85.9337ZM49.5557 91.3447C58.1373 96.2128 68.1928 92.8476 73.4194 85.9337L61.4536 76.8882C60.0234 78.7802 57.9769 78.8764 56.9569 78.2977L49.5557 91.3447ZM47.8129 90.356L49.5557 91.3447L56.9569 78.2977L55.2141 77.3091L47.8129 90.356ZM42.0765 66.1103C35.998 74.6534 39.6004 85.6973 47.8129 90.356L55.2141 77.3091C54.5888 76.9544 54.2332 76.4189 54.1075 75.9332C53.9933 75.4914 54.0647 75.135 54.2985 74.8065L42.0765 66.1103ZM128.5 21.4995C92.8297 21.4995 61.2765 39.1258 42.0765 66.1103L54.2985 74.8065C70.8053 51.6071 97.8885 36.4995 128.5 36.4995V21.4995ZM234.5 127.5C234.5 68.9573 187.042 21.4995 128.5 21.4995V36.4995C178.758 36.4995 219.5 77.2416 219.5 127.5H234.5ZM128.5 233.5C187.042 233.5 234.5 186.042 234.5 127.5H219.5C219.5 177.757 178.758 218.5 128.5 218.5V233.5ZM40.4088 186.475C59.4189 214.818 91.7764 233.5 128.5 233.5V218.5C96.9864 218.5 69.2098 202.487 52.8662 178.12L40.4088 186.475ZM38.1162 195.057L50.0424 188.98L43.2326 175.615L31.3063 181.691L38.1162 195.057ZM24.4618 184.864C23.0292 192.608 31.0995 198.632 38.1162 195.057L31.3063 181.691C35.3686 179.622 40.0409 183.109 39.2115 187.592L24.4618 184.864ZM32.9409 139.027L24.4618 184.864L39.2115 187.592L47.6907 141.756L32.9409 139.027ZM46.3752 132.182C40.7357 129.49 34.0776 132.882 32.9409 139.027L47.6907 141.756C47.0326 145.313 43.1779 147.277 39.9129 145.719L46.3752 132.182ZM88.4419 152.264L46.3752 132.182L39.9129 145.719L81.9796 165.801L88.4419 152.264ZM88.662 169.302C95.6788 165.727 95.5487 155.657 88.442 152.264L81.9796 165.801C77.8652 163.837 77.7898 158.007 81.8522 155.937L88.662 169.302ZM69.828 178.899L88.662 169.302L81.8522 155.937L63.0181 165.533L69.828 178.899ZM128.5 196.5C105.456 196.499 85.0485 185.21 72.5049 167.827L60.3412 176.605C75.5832 197.727 100.433 211.499 128.5 211.5L128.5 196.5ZM125.151 133.152C124.143 132.521 123.5 131.422 123.5 130.178H108.5C108.5 136.804 111.988 142.609 117.193 145.867L125.151 133.152ZM126.333 133.922C126.107 133.812 125.904 133.686 125.723 133.548L116.621 145.471C117.599 146.217 118.661 146.873 119.799 147.424L126.333 133.922ZM157.63 149.066L126.333 133.922L119.799 147.424L151.096 162.568L157.63 149.066ZM162.305 147.439C161.463 149.179 159.37 149.908 157.63 149.066L151.096 162.568C160.294 167.018 171.357 163.17 175.807 153.973L162.305 147.439ZM160.679 142.764C162.419 143.606 163.147 145.699 162.305 147.44L175.807 153.973C180.258 144.776 176.409 133.712 167.212 129.262L160.679 142.764ZM134.733 130.21L160.679 142.764L167.212 129.262L141.267 116.708L134.733 130.21ZM130.5 78V123.459H145.5V78H130.5ZM127 74.5C128.933 74.5 130.5 76.067 130.5 78H145.5C145.5 67.7827 137.217 59.5 127 59.5V74.5ZM123.5 78C123.5 76.067 125.067 74.5 127 74.5V59.5C116.783 59.5 108.5 67.7827 108.5 78H123.5ZM123.5 130.178V78H108.5V130.178H123.5Z" fill="white"/>
</svg>
