<svg width="256" height="256" viewBox="0 0 256 256" fill="none" xmlns="http://www.w3.org/2000/svg">
<rect width="256" height="256" stroke="white"/>
<mask id="path-2-outside-1_36_563" maskUnits="userSpaceOnUse" x="61.2029" y="59.9502" width="135" height="135" fill="black">
<rect fill="white" x="61.2029" y="59.9502" width="135" height="135"/>
<path fill-rule="evenodd" clip-rule="evenodd" d="M73.1126 163.726L79.9849 160.225C89.9177 174.994 106.432 185.075 125.574 186.078C157.896 187.772 185.471 162.944 187.164 130.622C188.858 98.3007 164.03 70.7259 131.708 69.032C110.581 67.9247 91.4821 78.1497 80.3136 94.3922C78.7478 96.6694 79.6068 99.739 82.0105 101.103C84.4116 102.465 87.4422 101.605 89.0456 99.3582C98.3701 86.2903 113.965 78.1158 131.185 79.0183C157.991 80.4231 178.583 103.293 177.178 130.099C175.773 156.905 152.904 177.497 126.098 176.092C110.655 175.283 97.2748 167.35 88.9743 155.645L100.934 149.551C102.412 148.798 102.384 146.678 100.888 145.964L77.7334 134.91C76.5461 134.343 75.1445 135.057 74.9051 136.351L70.238 161.581C69.9364 163.211 71.6354 164.479 73.1126 163.726ZM126 129C126 130.736 127.106 132.214 128.653 132.767L152.399 144.258C154.388 145.22 156.78 144.388 157.742 142.399C158.705 140.411 157.873 138.019 155.884 137.057L134 126.468V92C134 89.7909 132.209 88 130 88C127.791 88 126 89.7909 126 92V129Z"/>
</mask>
<path d="M79.9849 160.225L86.6232 155.76L82.6679 149.879L76.353 153.097L79.9849 160.225ZM73.1126 163.726L69.4807 156.598H69.4807L73.1126 163.726ZM125.574 186.078L125.993 178.089L125.574 186.078ZM187.164 130.622L195.153 131.041L187.164 130.622ZM131.708 69.032L132.127 61.0429L131.708 69.032ZM80.3136 94.3922L86.9056 98.9249L86.9056 98.9249L80.3136 94.3922ZM82.0105 101.103L85.9578 94.1442L82.0105 101.103ZM89.0456 99.3582L95.5577 104.005H95.5577L89.0456 99.3582ZM131.185 79.0183L131.604 71.0292H131.604L131.185 79.0183ZM177.178 130.099L185.167 130.517V130.517L177.178 130.099ZM126.098 176.092L125.679 184.081H125.679L126.098 176.092ZM88.9743 155.645L85.3424 148.516L77.093 152.72L82.4486 160.272L88.9743 155.645ZM100.934 149.551L97.3025 142.423L97.3025 142.423L100.934 149.551ZM100.888 145.964L97.4415 153.183H97.4415L100.888 145.964ZM77.7334 134.91L74.2869 142.129H74.2869L77.7334 134.91ZM74.9051 136.351L67.0386 134.896L67.0386 134.896L74.9051 136.351ZM70.238 161.581L78.1045 163.036L78.1045 163.036L70.238 161.581ZM128.653 132.767L132.137 125.566L131.751 125.379L131.347 125.235L128.653 132.767ZM152.399 144.258L148.915 151.459L148.915 151.459L152.399 144.258ZM157.742 142.399L164.944 145.884L164.944 145.884L157.742 142.399ZM155.884 137.057L152.399 144.258L152.399 144.258L155.884 137.057ZM134 126.468H126V131.484L130.516 133.669L134 126.468ZM76.353 153.097L69.4807 156.598L76.7445 170.855L83.6168 167.353L76.353 153.097ZM125.993 178.089C109.469 177.223 95.2127 168.532 86.6232 155.76L73.3466 164.689C84.6227 181.456 103.395 192.927 125.156 194.067L125.993 178.089ZM179.175 130.203C177.713 158.113 153.902 179.552 125.993 178.089L125.156 194.067C161.889 195.992 193.228 167.774 195.153 131.041L179.175 130.203ZM131.29 77.021C159.199 78.4837 180.638 102.294 179.175 130.203L195.153 131.041C197.079 94.3072 168.861 62.9681 132.127 61.0429L131.29 77.021ZM86.9056 98.9249C96.5633 84.8796 113.056 76.0654 131.29 77.021L132.127 61.0429C108.107 59.7841 86.4009 71.4199 73.7216 89.8595L86.9056 98.9249ZM85.9578 94.1442C87.2249 94.863 88.2568 96.9599 86.9056 98.9249L73.7216 89.8595C69.2389 96.3788 71.9887 104.615 78.0633 108.061L85.9578 94.1442ZM82.5334 94.7115C82.8295 94.2966 83.2711 93.9817 83.8237 93.8387C84.4095 93.6872 85.2078 93.7187 85.9578 94.1442L78.0633 108.061C84.4642 111.692 91.8771 109.163 95.5577 104.005L82.5334 94.7115ZM131.604 71.0292C111.541 69.9778 93.3785 79.5126 82.5334 94.7115L95.5577 104.005C103.362 93.068 116.389 86.2538 130.766 87.0073L131.604 71.0292ZM185.167 130.517C186.803 99.2991 162.822 72.6653 131.604 71.0292L130.766 87.0073C153.16 88.1809 170.363 107.286 169.189 129.68L185.167 130.517ZM125.679 184.081C156.897 185.717 183.531 161.736 185.167 130.517L169.189 129.68C168.015 152.074 148.91 169.276 126.516 168.103L125.679 184.081ZM82.4486 160.272C92.103 173.887 107.691 183.138 125.679 184.081L126.516 168.103C113.619 167.427 102.447 160.813 95.5001 151.017L82.4486 160.272ZM97.3025 142.423L85.3424 148.516L92.6063 162.773L104.566 156.679L97.3025 142.423ZM97.4415 153.183C92.953 151.04 92.8708 144.681 97.3025 142.423L104.566 156.679C111.952 152.915 111.815 142.315 104.335 138.744L97.4415 153.183ZM74.2869 142.129L97.4415 153.183L104.335 138.744L81.18 127.69L74.2869 142.129ZM82.7717 137.806C82.0537 141.687 77.8487 143.83 74.2869 142.129L81.18 127.69C75.2436 124.856 68.2352 128.427 67.0386 134.896L82.7717 137.806ZM78.1045 163.036L82.7717 137.806L67.0386 134.896L62.3715 160.125L78.1045 163.036ZM69.4807 156.598C73.9124 154.34 79.0093 158.145 78.1045 163.036L62.3715 160.125C60.8636 168.277 69.3584 174.618 76.7445 170.855L69.4807 156.598ZM131.347 125.235C132.882 125.784 134 127.251 134 129H118C118 134.222 121.331 138.645 125.958 140.3L131.347 125.235ZM155.884 137.057L132.137 125.566L125.168 139.969L148.915 151.459L155.884 137.057ZM150.541 138.915C151.503 136.926 153.895 136.094 155.884 137.056L148.915 151.459C154.881 154.346 162.057 151.85 164.944 145.884L150.541 138.915ZM152.399 144.258C150.411 143.296 149.579 140.903 150.541 138.915L164.944 145.884C167.83 139.918 165.334 132.742 159.368 129.855L152.399 144.258ZM130.516 133.669L152.399 144.258L159.368 129.855L137.485 119.266L130.516 133.669ZM126 92V126.468H142V92H126ZM130 96C127.791 96 126 94.2092 126 92H142C142 85.3726 136.628 80 130 80V96ZM134 92C134 94.2092 132.209 96 130 96V80C123.373 80 118 85.3726 118 92H134ZM134 129V92H118V129H134Z" fill="white" mask="url(#path-2-outside-1_36_563)"/>
</svg>
