<svg width="256" height="256" viewBox="0 0 256 256" fill="none" xmlns="http://www.w3.org/2000/svg">
<mask id="path-1-outside-1_710_360" maskUnits="userSpaceOnUse" x="5.96899" y="5.1369" width="244" height="250" fill="black">
<rect fill="white" x="5.96899" y="5.1369" width="244" height="250"/>
<path d="M121.146 29.8555C124.996 26.2307 131.004 26.2307 134.855 29.8555L223.865 113.644C230.459 119.85 226.066 130.926 217.011 130.926H210.741V207.304C210.741 221.111 199.548 232.304 185.741 232.304H178.396C164.589 232.304 153.396 221.111 153.396 207.304V178.235H153.241V168.65C153.241 157.605 144.287 148.65 133.241 148.65H121.939C110.894 148.65 101.939 157.605 101.939 168.65V178.235H101.785V207.304C101.785 221.111 90.5922 232.304 76.7852 232.304H69.4395C55.6327 232.303 44.4397 221.111 44.4395 207.304V130.926H38.9893C29.9339 130.926 25.5411 119.85 32.1348 113.644L121.146 29.8555Z"/>
</mask>
<path d="M121.146 29.8555L136.225 45.8747L136.225 45.8746L121.146 29.8555ZM134.855 29.8555L119.775 45.8746L119.775 45.8747L134.855 29.8555ZM223.865 113.644L238.945 97.6244L238.945 97.6243L223.865 113.644ZM217.011 130.926V152.926H217.011L217.011 130.926ZM210.741 130.926V108.926H188.741V130.926H210.741ZM210.741 207.304L232.741 207.304V207.304H210.741ZM185.741 232.304V254.304H185.742L185.741 232.304ZM178.396 232.304L178.395 254.304H178.396V232.304ZM153.396 207.304H131.396V207.304L153.396 207.304ZM153.396 178.235H175.396V156.235H153.396V178.235ZM153.241 178.235H131.241V200.235H153.241V178.235ZM121.939 148.65V126.65H121.939L121.939 148.65ZM101.939 178.235V200.235H123.939V178.235H101.939ZM101.785 178.235V156.235H79.7852V178.235H101.785ZM101.785 207.304L123.785 207.304V207.304H101.785ZM76.7852 232.304V254.304H76.7853L76.7852 232.304ZM69.4395 232.304L69.4392 254.304H69.4395V232.304ZM44.4395 207.304H22.4395V207.304L44.4395 207.304ZM44.4395 130.926H66.4395V108.926H44.4395V130.926ZM38.9893 130.926L38.9893 152.926H38.9893V130.926ZM32.1348 113.644L17.0555 97.6243L17.0555 97.6244L32.1348 113.644ZM121.146 29.8555L136.225 45.8746C131.604 50.2243 124.396 50.2243 119.775 45.8746L134.855 29.8555L149.934 13.8363C137.612 2.2371 118.388 2.2371 106.066 13.8363L121.146 29.8555ZM134.855 29.8555L119.775 45.8747L208.786 129.663L223.865 113.644L238.945 97.6243L149.934 13.8363L134.855 29.8555ZM223.865 113.644L208.786 129.663C200.874 122.215 206.144 108.926 217.011 108.926L217.011 130.926L217.011 152.926C245.988 152.926 260.044 117.486 238.945 97.6244L223.865 113.644ZM217.011 130.926V108.926H210.741V130.926V152.926H217.011V130.926ZM210.741 130.926H188.741V207.304H210.741H232.741V130.926H210.741ZM210.741 207.304L188.741 207.303C188.741 208.96 187.398 210.304 185.741 210.304L185.741 232.304L185.742 254.304C211.698 254.303 232.741 233.261 232.741 207.304L210.741 207.304ZM185.741 232.304V210.304H178.396V232.304V254.304H185.741V232.304ZM178.396 232.304L178.396 210.304C176.739 210.304 175.396 208.96 175.396 207.303L153.396 207.304L131.396 207.304C131.396 233.261 152.438 254.303 178.395 254.304L178.396 232.304ZM153.396 207.304H175.396V178.235H153.396H131.396V207.304H153.396ZM153.396 178.235V156.235H153.241V178.235V200.235H153.396V178.235ZM153.241 178.235H175.241V168.65H153.241H131.241V178.235H153.241ZM153.241 168.65H175.241C175.241 145.454 156.437 126.65 133.241 126.65V148.65V170.65C132.137 170.65 131.241 169.755 131.241 168.65H153.241ZM133.241 148.65V126.65H121.939V148.65V170.65H133.241V148.65ZM121.939 148.65L121.939 126.65C98.7437 126.65 79.9395 145.454 79.9395 168.65H101.939H123.939C123.939 169.755 123.044 170.65 121.94 170.65L121.939 148.65ZM101.939 168.65H79.9395V178.235H101.939H123.939V168.65H101.939ZM101.939 178.235V156.235H101.785V178.235V200.235H101.939V178.235ZM101.785 178.235H79.7852V207.304H101.785H123.785V178.235H101.785ZM101.785 207.304L79.7852 207.303C79.7852 208.96 78.4418 210.304 76.7851 210.304L76.7852 232.304L76.7853 254.304C102.743 254.304 123.785 233.261 123.785 207.304L101.785 207.304ZM76.7852 232.304V210.304H69.4395V232.304V254.304H76.7852V232.304ZM69.4395 232.304L69.4398 210.304C67.7829 210.304 66.4395 208.96 66.4395 207.303L44.4395 207.304L22.4395 207.304C22.4398 233.261 43.4824 254.303 69.4392 254.304L69.4395 232.304ZM44.4395 207.304H66.4395V130.926H44.4395H22.4395V207.304H44.4395ZM44.4395 130.926V108.926H38.9893V130.926V152.926H44.4395V130.926ZM38.9893 130.926L38.9893 108.926C49.8561 108.926 55.1264 122.215 47.2142 129.663L32.1348 113.644L17.0555 97.6244C-4.04406 117.486 10.0116 152.926 38.9893 152.926L38.9893 130.926ZM32.1348 113.644L47.2141 129.663L136.225 45.8747L121.146 29.8555L106.066 13.8363L17.0555 97.6243L32.1348 113.644Z" fill="white" mask="url(#path-1-outside-1_710_360)"/>
</svg>
