<svg width="256" height="256" viewBox="0 0 256 256" fill="none" xmlns="http://www.w3.org/2000/svg">
<path fill-rule="evenodd" clip-rule="evenodd" d="M119.315 15.7696C124.405 11.7434 131.595 11.7435 136.685 15.7696L237.827 95.7696C248.237 104.004 242.414 120.75 229.142 120.75H214V222C214 235.255 203.255 246 190 246H175C161.745 246 151 235.255 151 222V172V170C151 161.163 143.836 154 135 154H120C111.168 154 104.008 161.156 104 169.986L104 169.994V170V172L104 222C104 235.255 93.2547 246 79.9999 246H64.9999C51.7451 246 40.9999 235.255 40.9999 222V120.75H26.8583C13.5856 120.75 7.76321 104.004 18.1731 95.7696L119.315 15.7696ZM131.722 22.0441C129.541 20.3186 126.459 20.3186 124.278 22.0441L23.1361 102.044C18.6747 105.573 21.17 112.75 26.8583 112.75H44.9999H48.9999V116.75V222C48.9999 230.837 56.1633 238 64.9999 238H79.9999C88.8364 238 95.9999 230.837 95.9999 222L95.9999 172V170L95.9999 169.989V169.982V169.979C96.0113 156.734 106.752 146 120 146H135C148.255 146 159 156.745 159 170V172V222C159 230.837 166.163 238 175 238H190C198.836 238 206 230.837 206 222V116.75V112.75H210H229.142C234.83 112.75 237.325 105.573 232.864 102.044L131.722 22.0441Z" fill="white"/>
</svg>
