<svg width="256" height="256" viewBox="0 0 256 256" fill="none" xmlns="http://www.w3.org/2000/svg">
  <path d="M134.204 18.9069L136.685 15.7696L136.685 15.7696L134.204 18.9069ZM121.796 18.9069L124.278 22.0441L124.278 22.0441L121.796 18.9069ZM235.345 98.9069L237.827 95.7696L237.827 95.7696L235.345 98.9069ZM210 116.75V112.75H206V116.75H210ZM99.9999 169.982L95.9999 169.979V169.982H99.9999ZM99.9999 172L95.9999 172L95.9999 172L99.9999 172ZM99.9999 222L104 222L104 222L99.9999 222ZM44.9999 116.75H48.9999V112.75H44.9999V116.75ZM20.6547 98.9069L18.1732 95.7696L18.1732 95.7696L20.6547 98.9069ZM136.685 15.7696C131.595 11.7435 124.405 11.7434 119.315 15.7696L124.278 22.0441C126.459 20.3186 129.541 20.3186 131.722 22.0441L136.685 15.7696ZM237.827 95.7696L136.685 15.7696L131.722 22.0441L232.864 102.044L237.827 95.7696ZM229.142 120.75C242.414 120.75 248.237 104.004 237.827 95.7696L232.864 102.044C237.325 105.573 234.83 112.75 229.142 112.75V120.75ZM210 120.75H229.142V112.75H210V120.75ZM214 222V116.75H206V222H214ZM190 246C203.255 246 214 235.255 214 222H206C206 230.837 198.837 238 190 238V246ZM175 246H190V238H175V246ZM151 222C151 235.255 161.745 246 175 246V238C166.163 238 159 230.837 159 222H151ZM151 172V222H159V172H151ZM151 170V172H159V170H151ZM135 154C143.836 154 151 161.163 151 170H159C159 156.745 148.255 146 135 146V154ZM120 154H135V146H120V154ZM104 169.986C104.008 161.156 111.168 154 120 154V146C106.752 146 96.0114 156.734 95.9999 169.979L104 169.986ZM104 170C104 169.999 104 169.997 104 169.994C104 169.991 104 169.987 104 169.982H95.9999C95.9999 169.984 95.9999 169.985 95.9999 169.989C95.9999 169.991 95.9999 169.996 95.9999 170H104ZM104 172V170H95.9999V172H104ZM104 222L104 172L95.9999 172L95.9999 222L104 222ZM79.9999 246C93.2548 246 104 235.255 104 222H95.9999C95.9999 230.837 88.8365 238 79.9999 238V246ZM64.9999 246H79.9999V238H64.9999V246ZM40.9999 222C40.9999 235.255 51.7451 246 64.9999 246V238C56.1634 238 48.9999 230.837 48.9999 222H40.9999ZM40.9999 116.75V222H48.9999V116.75H40.9999ZM26.8583 120.75H44.9999V112.75H26.8583V120.75ZM18.1732 95.7696C7.76326 104.004 13.5856 120.75 26.8583 120.75V112.75C21.17 112.75 18.6747 105.573 23.1361 102.044L18.1732 95.7696ZM119.315 15.7696L18.1732 95.7696L23.1361 102.044L124.278 22.0441L119.315 15.7696Z" fill="white"/>
</svg>