<svg width="256" height="256" viewBox="0 0 256 256" fill="none" xmlns="http://www.w3.org/2000/svg">
<g clip-path="url(#clip0_355_2)">
<path d="M134.856 15.0035L142.397 6.99538V6.99537L134.856 15.0035ZM121.144 15.0035L128.686 23.0116V23.0116L121.144 15.0035ZM239.866 113.892L232.325 121.9L232.325 121.9L239.866 113.892ZM222.326 131.172V120.172H211.326V131.172H222.326ZM156.951 185.058H167.951V174.058H156.951V185.058ZM156.776 185.058H145.776V196.058H156.776V185.058ZM98.2904 185.058V196.058H109.29V185.058H98.2904ZM98.1146 185.058V174.058H87.1146V185.058H98.1146ZM32.7403 131.172H43.7403V120.172H32.7403V131.172ZM16.1334 113.892L8.5922 105.884L8.5922 105.884L16.1334 113.892ZM142.397 6.99537C134.31 -0.62038 121.69 -0.620354 113.603 6.99539L128.686 23.0116C128.3 23.3742 127.7 23.3742 127.314 23.0116L142.397 6.99537ZM247.408 105.884L142.397 6.99538L127.314 23.0116L232.325 121.9L247.408 105.884ZM233.011 142.172C252.025 142.172 261.25 118.92 247.408 105.884L232.325 121.9C232.328 121.903 232.313 121.889 232.287 121.855C232.26 121.822 232.229 121.775 232.196 121.716C232.129 121.594 232.08 121.457 232.054 121.322C232.003 121.063 232.046 120.892 232.081 120.804C232.116 120.716 232.202 120.561 232.417 120.408C232.529 120.327 232.658 120.261 232.791 120.218C232.855 120.198 232.91 120.185 232.952 120.179C232.994 120.172 233.015 120.172 233.011 120.172V142.172ZM222.326 142.172H233.011V120.172H222.326V142.172ZM233.326 221.697V131.172H211.326V221.697H233.326ZM197.326 257.697C217.208 257.697 233.326 241.579 233.326 221.697H211.326C211.326 229.429 205.058 235.697 197.326 235.697V257.697ZM181.952 257.697H197.326V235.697H181.952V257.697ZM145.951 221.697C145.951 241.579 162.069 257.697 181.952 257.697V235.697C174.22 235.697 167.951 229.429 167.951 221.697H145.951ZM145.951 185.058V221.697H167.951V185.058H145.951ZM156.776 196.058H156.951V174.058H156.776V196.058ZM145.776 171.331V185.058H167.776V171.331H145.776ZM136.776 162.331C141.746 162.331 145.776 166.36 145.776 171.331H167.776C167.776 154.21 153.897 140.331 136.776 140.331V162.331ZM118.29 162.331H136.776V140.331H118.29V162.331ZM109.29 171.331C109.29 166.36 113.32 162.331 118.29 162.331V140.331C101.17 140.331 87.2904 154.21 87.2904 171.331H109.29ZM109.29 185.058V171.331H87.2904V185.058H109.29ZM98.1146 196.058H98.2904V174.058H98.1146V196.058ZM109.115 221.697V185.058H87.1146V221.697H109.115ZM73.1146 257.697C92.9969 257.697 109.115 241.579 109.115 221.697H87.1146C87.1146 229.429 80.8466 235.697 73.1146 235.697V257.697ZM57.7403 257.697H73.1146V235.697H57.7403V257.697ZM21.7403 221.697C21.7403 241.579 37.8581 257.697 57.7403 257.697V235.697C50.0083 235.697 43.7403 229.429 43.7403 221.697H21.7403ZM21.7403 131.172V221.697H43.7403V131.172H21.7403ZM22.9891 142.172H32.7403V120.172H22.9891V142.172ZM8.5922 105.884C-5.25052 118.92 3.97474 142.172 22.9891 142.172V120.172C22.9851 120.172 23.0061 120.172 23.0482 120.179C23.0903 120.185 23.1451 120.198 23.209 120.218C23.3417 120.261 23.4711 120.327 23.5832 120.408C23.7974 120.561 23.8837 120.716 23.9186 120.804C23.9536 120.892 23.9966 121.063 23.946 121.322C23.9195 121.457 23.8706 121.594 23.8034 121.716C23.7711 121.775 23.7394 121.822 23.7133 121.855C23.6872 121.889 23.6717 121.903 23.6747 121.9L8.5922 105.884ZM113.603 6.99538L8.5922 105.884L23.6747 121.9L128.686 23.0116L113.603 6.99538Z" fill="white"/>
</g>
<defs>
<clipPath id="clip0_355_2">
<rect width="256" height="256" fill="white"/>
</clipPath>
</defs>
</svg>
