<svg width="256" height="256" viewBox="0 0 256 256" fill="none" xmlns="http://www.w3.org/2000/svg">
<path d="M134.204 18.9069L136.685 15.7696V15.7696L134.204 18.9069ZM121.796 18.9069L124.278 22.0441L124.278 22.0441L121.796 18.9069ZM235.345 98.9069L232.864 102.044L235.345 98.9069ZM210 116.75V112.75H206V116.75H210ZM44.9999 116.75H48.9999V112.75H44.9999V116.75ZM20.6547 98.9069L18.1732 95.7696H18.1732L20.6547 98.9069ZM45 79.6504L47.4815 82.7877L49 81.5866V79.6504H45ZM69 60.6671H65V68.931L71.4815 63.8044L69 60.6671ZM108 156.771L110.999 154.124V154.124L108 156.771ZM136.685 15.7696C131.595 11.7435 124.405 11.7434 119.315 15.7696L124.278 22.0441C126.459 20.3186 129.541 20.3186 131.722 22.0441L136.685 15.7696ZM237.827 95.7696L136.685 15.7696L131.722 22.0441L232.864 102.044L237.827 95.7696ZM229.142 120.75C242.414 120.75 248.237 104.004 237.827 95.7696L232.864 102.044C237.325 105.573 234.83 112.75 229.142 112.75V120.75ZM210 120.75H229.142V112.75H210V120.75ZM214 230V116.75H206V230H214ZM198 246C206.836 246 214 238.837 214 230H206C206 234.418 202.418 238 198 238V246ZM182 230C182 238.837 189.163 246 198 246V238C193.582 238 190 234.418 190 230H182ZM182 172V230H190V172H182ZM182 170V172H190V170H182ZM166 154C174.837 154 182 161.163 182 170H190C190 156.745 179.255 146 166 146V154ZM151 154H166V146H151V154ZM135 170C135 161.163 142.163 154 151 154V146C137.745 146 127 156.745 127 170H135ZM135 172V170H127V172H135ZM135 222V172H127V222H135ZM111 246C124.255 246 135 235.255 135 222H127C127 230.837 119.837 238 111 238V246ZM64.9999 246H111V238H64.9999V246ZM40.9999 222C40.9999 235.255 51.7451 246 64.9999 246V238C56.1634 238 48.9999 230.837 48.9999 222H40.9999ZM40.9999 116.75V222H48.9999V116.75H40.9999ZM26.8583 120.75H44.9999V112.75H26.8583V120.75ZM18.1732 95.7696C7.76326 104.004 13.5856 120.75 26.8583 120.75V112.75C21.17 112.75 18.6747 105.573 23.1361 102.044L18.1732 95.7696ZM42.5185 76.5132L18.1732 95.7696L23.1361 102.044L47.4815 82.7877L42.5185 76.5132ZM49 79.6504V51H41V79.6504H49ZM49 51C49 46.5817 52.5817 43 57 43V35C48.1634 35 41 42.1634 41 51H49ZM57 43C61.4183 43 65 46.5817 65 51H73C73 42.1634 65.8366 35 57 35V43ZM65 51V60.6671H73V51H65ZM119.315 15.7696L66.5185 57.5299L71.4815 63.8044L124.278 22.0441L119.315 15.7696ZM110.999 154.124C106.607 149.148 100.169 146 92.9999 146V154C97.7782 154 102.063 156.089 105.001 159.418L110.999 154.124ZM117 170C117 163.916 114.731 158.352 110.999 154.124L105.001 159.418C107.493 162.241 109 165.939 109 170H117ZM117 172V170H109V172H117ZM117 180V172H109V180H117ZM92.9999 204C106.255 204 117 193.255 117 180H109C109 188.837 101.837 196 92.9999 196V204ZM82.9999 204H92.9999V196H82.9999V204ZM58.9999 180C58.9999 193.255 69.7451 204 82.9999 204V196C74.1634 196 66.9999 188.837 66.9999 180H58.9999ZM58.9999 170V180H66.9999V170H58.9999ZM82.9999 146C69.7451 146 58.9999 156.745 58.9999 170H66.9999C66.9999 161.163 74.1634 154 82.9999 154V146ZM92.9999 146H82.9999V154H92.9999V146Z" fill="white"/>
</svg>
