<svg width="256" height="257" viewBox="0 0 256 257" fill="none" xmlns="http://www.w3.org/2000/svg">
<mask id="path-1-outside-1_710_368" maskUnits="userSpaceOnUse" x="2.66064" y="2.50928" width="250" height="254" fill="black">
<rect fill="white" x="2.66064" y="2.50928" width="250" height="254"/>
<path d="M121.794 26.6685C125.431 23.7895 130.57 23.7896 134.207 26.6685L226.527 99.7524C233.959 105.636 229.798 117.593 220.32 117.593H204.328V223.294C204.328 229.452 199.337 234.444 193.179 234.444C187.022 234.444 182.03 229.452 182.03 223.294V167.65C181.533 157.047 172.779 148.602 162.052 148.602H150.796C139.75 148.602 130.796 157.557 130.796 168.602V214.34C130.795 225.386 121.841 234.34 110.796 234.34H70.6491C59.6036 234.34 50.6493 225.386 50.6491 214.34V117.593H35.6804C26.2021 117.593 22.0418 105.636 29.4734 99.7524L50.8152 82.8569V54.3442C50.8152 47.2396 56.5747 41.48 63.6794 41.48C70.784 41.4801 76.5436 47.2397 76.5437 54.3442V62.4897L121.794 26.6685ZM81.7224 142.9C70.677 142.9 61.7226 151.855 61.7224 162.9V180.9C61.7224 191.945 70.6768 200.9 81.7224 200.9H99.7224C110.768 200.9 119.722 191.946 119.722 180.9V162.9C119.722 151.854 110.768 142.9 99.7224 142.9H81.7224Z"/>
</mask>
<path d="M121.794 26.6685L108.139 9.41868L108.139 9.41915L121.794 26.6685ZM134.207 26.6685L147.862 9.41918L147.861 9.41865L134.207 26.6685ZM226.527 99.7524L240.182 82.5032L240.182 82.5032L226.527 99.7524ZM220.32 117.593V139.593H220.32L220.32 117.593ZM204.328 117.593V95.5933H182.328V117.593H204.328ZM204.328 223.294L226.328 223.295V223.294H204.328ZM193.179 234.444V256.444H193.18L193.179 234.444ZM182.03 223.294H160.03V223.295L182.03 223.294ZM182.03 167.65H204.03V167.134L204.006 166.619L182.03 167.65ZM162.052 148.602L162.053 126.602H162.052V148.602ZM150.796 148.602V126.602H150.795L150.796 148.602ZM130.796 168.602L108.796 168.602V168.602H130.796ZM130.796 214.34L152.796 214.341V214.34H130.796ZM110.796 234.34V256.34H110.796L110.796 234.34ZM70.6491 234.34L70.6491 256.34H70.6491V234.34ZM50.6491 214.34H28.6491V214.341L50.6491 214.34ZM50.6491 117.593H72.6491V95.5933H50.6491V117.593ZM35.6804 117.593L35.6801 139.593H35.6804V117.593ZM29.4734 99.7524L43.1286 117.002L43.1288 117.001L29.4734 99.7524ZM50.8152 82.8569L64.4706 100.106L72.8152 93.4999V82.8569H50.8152ZM50.8152 54.3442L28.8152 54.344V54.3442H50.8152ZM63.6794 41.48L63.6798 19.48H63.6794V41.48ZM76.5437 54.3442H98.5437V54.344L76.5437 54.3442ZM76.5437 62.4897H54.5437V107.965L90.1988 79.7391L76.5437 62.4897ZM81.7224 142.9V120.9H81.7221L81.7224 142.9ZM61.7224 162.9L39.7224 162.899V162.9H61.7224ZM61.7224 180.9H39.7224V180.9H61.7224ZM81.7224 200.9L81.7221 222.9H81.7224V200.9ZM99.7224 200.9V222.9H99.7224L99.7224 200.9ZM119.722 180.9H141.722V180.9H119.722ZM119.722 162.9H141.722V162.899L119.722 162.9ZM99.7224 142.9L99.7224 120.9H99.7224V142.9ZM121.794 26.6685L135.448 43.9182C131.084 47.373 124.917 47.3729 120.552 43.9183L134.207 26.6685L147.861 9.41865C136.223 0.206175 119.777 0.206121 108.139 9.41868L121.794 26.6685ZM134.207 26.6685L120.552 43.9177L212.872 117.002L226.527 99.7524L240.182 82.5032L147.862 9.41918L134.207 26.6685ZM226.527 99.7524L212.872 117.002C203.953 109.941 208.947 95.5934 220.32 95.5933L220.32 117.593L220.32 139.593C250.65 139.593 263.964 101.33 240.182 82.5032L226.527 99.7524ZM220.32 117.593V95.5933H204.328V117.593V139.593H220.32V117.593ZM204.328 117.593H182.328V223.294H204.328H226.328V117.593H204.328ZM204.328 223.294L182.328 223.294C182.328 217.303 187.184 212.444 193.178 212.444L193.179 234.444L193.18 256.444C211.489 256.443 226.328 241.6 226.328 223.295L204.328 223.294ZM193.179 234.444V212.444C199.172 212.444 204.03 217.302 204.03 223.294L182.03 223.294L160.03 223.295C160.03 241.602 174.872 256.444 193.179 256.444V234.444ZM182.03 223.294H204.03V167.65H182.03H160.03V223.294H182.03ZM182.03 167.65L204.006 166.619C202.961 144.336 184.585 126.602 162.053 126.602L162.052 148.602L162.052 170.602C160.973 170.602 160.105 169.757 160.054 168.68L182.03 167.65ZM162.052 148.602V126.602H150.796V148.602V170.602H162.052V148.602ZM150.796 148.602L150.795 126.602C127.6 126.602 108.796 145.406 108.796 168.602L130.796 168.602L152.796 168.603C152.796 169.707 151.901 170.602 150.796 170.602L150.796 148.602ZM130.796 168.602H108.796V214.34H130.796H152.796V168.602H130.796ZM130.796 214.34L108.796 214.34C108.796 213.236 109.691 212.34 110.796 212.34L110.796 234.34L110.796 256.34C133.992 256.34 152.795 237.536 152.796 214.341L130.796 214.34ZM110.796 234.34V212.34H70.6491V234.34V256.34H110.796V234.34ZM70.6491 234.34L70.6492 212.34C71.7542 212.34 72.6491 213.236 72.6491 214.34L50.6491 214.34L28.6491 214.341C28.6495 237.536 47.4529 256.34 70.6491 256.34L70.6491 234.34ZM50.6491 214.34H72.6491V117.593H50.6491H28.6491V214.34H50.6491ZM50.6491 117.593V95.5933H35.6804V117.593V139.593H50.6491V117.593ZM35.6804 117.593L35.6807 95.5933C47.0537 95.5934 52.0473 109.941 43.1286 117.002L29.4734 99.7524L15.8181 82.5032C-7.96367 101.33 5.35045 139.593 35.6801 139.593L35.6804 117.593ZM29.4734 99.7524L43.1288 117.001L64.4706 100.106L50.8152 82.8569L37.1597 65.6079L15.8179 82.5034L29.4734 99.7524ZM50.8152 82.8569H72.8152V54.3442H50.8152H28.8152V82.8569H50.8152ZM50.8152 54.3442L72.8152 54.3445C72.8151 59.3897 68.7252 63.48 63.6794 63.48V41.48V19.48C44.4243 19.48 28.8153 35.0895 28.8152 54.344L50.8152 54.3442ZM63.6794 41.48L63.679 63.48C58.6338 63.4799 54.5437 59.3902 54.5437 54.3444L76.5437 54.3442L98.5437 54.344C98.5435 35.0891 82.9341 19.4803 63.6798 19.48L63.6794 41.48ZM76.5437 54.3442H54.5437V62.4897H76.5437H98.5437V54.3442H76.5437ZM76.5437 62.4897L90.1988 79.7391L135.449 43.9178L121.794 26.6685L108.139 9.41915L62.8886 45.2404L76.5437 62.4897ZM81.7224 142.9L81.7221 120.9C58.5265 120.9 39.7229 139.704 39.7224 162.899L61.7224 162.9L83.7224 162.9C83.7224 164.005 82.8275 164.9 81.7227 164.9L81.7224 142.9ZM61.7224 162.9H39.7224V180.9H61.7224H83.7224V162.9H61.7224ZM61.7224 180.9H39.7224C39.7224 204.096 58.5268 222.9 81.7221 222.9L81.7224 200.9L81.7227 178.9C82.8268 178.9 83.7224 179.795 83.7224 180.9H61.7224ZM81.7224 200.9V222.9H99.7224V200.9V178.9H81.7224V200.9ZM99.7224 200.9L99.7224 222.9C122.918 222.9 141.722 204.096 141.722 180.9H119.722H97.7224C97.7224 179.795 98.6178 178.9 99.7223 178.9L99.7224 200.9ZM119.722 180.9H141.722V162.9H119.722H97.7224V180.9H119.722ZM119.722 162.9L141.722 162.899C141.722 139.705 122.919 120.9 99.7224 120.9L99.7224 142.9L99.7223 164.9C98.6172 164.9 97.7224 164.004 97.7224 162.9L119.722 162.9ZM99.7224 142.9V120.9H81.7224V142.9V164.9H99.7224V142.9Z" fill="white" mask="url(#path-1-outside-1_710_368)"/>
</svg>
