<svg width="256" height="256" viewBox="0 0 256 256" fill="none" xmlns="http://www.w3.org/2000/svg">
<path d="M158.299 90.7087L161.745 88.6777V88.6776L158.299 90.7087ZM147.961 90.7087L144.515 88.6777V88.6777L147.961 90.7087ZM219.309 194.225L222.755 192.194L219.309 194.225ZM144.171 203.272V199.272H143.552L142.962 199.459L144.171 203.272ZM36.6398 194.003L33.4148 191.637H33.4148L36.6398 194.003ZM87.0638 125.282L90.2887 127.648H90.2887L87.0638 125.282ZM96.7387 125.282L99.9637 122.915H99.9637L96.7387 125.282ZM113.844 148.594L110.619 150.96L114.209 155.853L117.29 150.625L113.844 148.594ZM40 33C26.7452 33 16 43.7452 16 57H24C24 48.1634 31.1634 41 40 41V33ZM215.704 33H40V41H215.704V33ZM239.704 57C239.704 43.7452 228.959 33 215.704 33V41C224.54 41 231.704 48.1634 231.704 57H239.704ZM239.704 199V57H231.704V199H239.704ZM215.704 223C228.959 223 239.704 212.255 239.704 199H231.704C231.704 207.837 224.54 215 215.704 215V223ZM40 223H215.704V215H40V223ZM16 199C16 212.255 26.7452 223 40 223V215C31.1634 215 24 207.837 24 199H16ZM16 57V199H24V57H16ZM68.3086 97.1728C79.8248 97.1728 89.1605 87.8371 89.1605 76.321H81.1605C81.1605 83.4189 75.4065 89.1728 68.3086 89.1728V97.1728ZM47.4568 76.321C47.4568 87.8372 56.7925 97.1728 68.3086 97.1728V89.1728C61.2108 89.1728 55.4568 83.4189 55.4568 76.321H47.4568ZM68.3086 55.4691C56.7925 55.4691 47.4568 64.8048 47.4568 76.321H55.4568C55.4568 69.2231 61.2108 63.4691 68.3086 63.4691V55.4691ZM89.1605 76.321C89.1605 64.8048 79.8248 55.4691 68.3086 55.4691V63.4691C75.4065 63.4691 81.1605 69.2231 81.1605 76.321H89.1605ZM161.745 88.6776C157.876 82.1143 148.383 82.1144 144.515 88.6777L151.407 92.7397C152.18 91.427 154.079 91.427 154.853 92.7397L161.745 88.6776ZM222.755 192.194L161.745 88.6777L154.853 92.7397L215.863 196.256L222.755 192.194ZM214.14 207.272C221.878 207.272 226.684 198.86 222.755 192.194L215.863 196.256C216.649 197.589 215.688 199.272 214.14 199.272V207.272ZM144.171 207.272H214.14V199.272H144.171V207.272ZM142.325 207.552C143.388 207.552 144.414 207.391 145.38 207.085L142.962 199.459C142.783 199.516 142.573 199.552 142.325 199.552V207.552ZM41.4773 207.552H142.325V199.552H41.4773V207.552ZM33.4148 191.637C28.5685 198.242 33.285 207.552 41.4773 207.552V199.552C39.8388 199.552 38.8955 197.69 39.8648 196.369L33.4148 191.637ZM83.8388 122.915L33.4148 191.637L39.8648 196.369L90.2887 127.648L83.8388 122.915ZM99.9637 122.915C95.968 117.47 87.8344 117.47 83.8388 122.915L90.2887 127.648C91.0879 126.559 92.7146 126.559 93.5137 127.648L99.9637 122.915ZM117.069 146.228L99.9637 122.915L93.5137 127.648L110.619 150.96L117.069 146.228ZM144.515 88.6777L110.398 146.563L117.29 150.625L151.407 92.7397L144.515 88.6777Z" fill="white"/>
</svg>
