<svg width="256" height="256" viewBox="0 0 256 256" fill="none" xmlns="http://www.w3.org/2000/svg">
<path d="M160.862 95.2247L169.627 90.411L169.627 90.411L160.862 95.2247ZM148.282 95.2247L139.517 90.411L139.517 90.411L148.282 95.2247ZM225.874 213.604L217.109 218.418L217.109 218.418L225.874 213.604ZM89.5602 226L89.5423 236L89.5513 236H89.5602V226ZM89.5347 226L89.5527 216L89.5437 216H89.5347V226ZM29.6398 212.915L21.3918 207.261L21.3918 207.261L29.6398 212.915ZM82.3529 136.021L74.1049 130.367L74.1049 130.367L82.3529 136.021ZM93.9309 136.021L102.179 130.367L102.179 130.367L93.9309 136.021ZM111.668 161.895L103.42 167.549L112.61 180.954L120.433 166.709L111.668 161.895ZM30.7163 19C14.1477 19 0.716278 32.4315 0.716278 49H20.7163C20.7163 43.4772 25.1934 39 30.7163 39V19ZM225.284 19H30.7163V39H225.284V19ZM255.284 49C255.284 32.4314 241.852 19 225.284 19V39C230.807 39 235.284 43.4772 235.284 49H255.284ZM255.284 206V49H235.284V206H255.284ZM225.284 236C241.852 236 255.284 222.569 255.284 206H235.284C235.284 211.523 230.807 216 225.284 216V236ZM30.7163 236H225.284V216H30.7163V236ZM0.716278 206C0.716278 222.569 14.1478 236 30.7163 236V216C25.1934 216 20.7163 211.523 20.7163 206H0.716278ZM0.716278 49V206H20.7163V49H0.716278ZM59.2791 105.888C77.4531 105.888 92.1861 91.1554 92.1861 72.9814H72.1861C72.1861 80.1097 66.4074 85.8884 59.2791 85.8884V105.888ZM26.3721 72.9814C26.3721 91.1554 41.105 105.888 59.2791 105.888V85.8884C52.1507 85.8884 46.3721 80.1097 46.3721 72.9814H26.3721ZM59.2791 40.0744C41.105 40.0744 26.3721 54.8074 26.3721 72.9814H46.3721C46.3721 65.8531 52.1507 60.0744 59.2791 60.0744V40.0744ZM92.1861 72.9814C92.1861 54.8074 77.4531 40.0744 59.2791 40.0744V60.0744C66.4074 60.0744 72.1861 65.8531 72.1861 72.9814H92.1861ZM169.627 90.411C162.961 78.2732 146.183 78.2731 139.517 90.411L157.047 100.038C156.766 100.551 155.877 101.308 154.572 101.308C153.267 101.308 152.379 100.551 152.097 100.038L169.627 90.411ZM234.639 208.79L169.627 90.411L152.097 100.038L217.109 218.418L234.639 208.79ZM219.584 236C226.876 236 232.305 231.518 234.92 226.365C237.524 221.232 237.844 214.627 234.639 208.79L217.109 218.418C216.889 218.017 216.935 217.609 217.084 217.315C217.172 217.143 217.377 216.834 217.813 216.54C218.291 216.217 218.928 216 219.584 216V236ZM89.5602 236H219.584V216H89.5602V236ZM89.5168 236L89.5423 236L89.5782 216L89.5527 216L89.5168 236ZM35.4288 236H89.5347V216H35.4288V236ZM21.3918 207.261C17.3951 213.091 17.3443 220.079 19.7478 225.512C22.1581 230.96 27.669 236 35.4288 236V216C36.1425 216 36.8347 216.253 37.3377 216.618C37.7877 216.945 37.9711 217.269 38.0377 217.42C38.139 217.649 38.2137 218.094 37.8878 218.57L21.3918 207.261ZM74.1049 130.367L21.3918 207.261L37.8878 218.57L90.6009 141.676L74.1049 130.367ZM102.179 130.367C95.2889 120.317 80.9948 120.317 74.1049 130.367L90.6009 141.676C90.2501 142.187 89.3705 142.829 88.1419 142.829C86.9132 142.829 86.0336 142.187 85.6829 141.676L102.179 130.367ZM119.916 156.241L102.179 130.367L85.6829 141.676L103.42 167.549L119.916 156.241ZM139.517 90.411L102.903 157.081L120.433 166.709L157.047 100.038L139.517 90.411Z" fill="white"/>
</svg>
