<svg width="256" height="256" viewBox="0 0 256 256" fill="none" xmlns="http://www.w3.org/2000/svg">
<mask id="path-1-outside-1_710_331" maskUnits="userSpaceOnUse" x="0.25" y="26" width="256" height="204" fill="black">
<rect fill="white" x="0.25" y="26" width="256" height="204"/>
<path d="M218 176C226.837 176 234 183.163 234 192C234 200.837 226.837 208 218 208H95C86.1634 208 79 200.837 79 192C79 183.163 86.1634 176 95 176H218ZM22.25 107.486C22.2502 101.269 29.0331 97.4276 34.3652 100.626L68.5635 121.14C73.7427 124.247 73.7427 131.753 68.5635 134.86L34.3652 155.374C29.0331 158.572 22.2502 154.731 22.25 148.514V107.486ZM218 112C226.837 112 234 119.163 234 128C234 136.837 226.837 144 218 144H95C86.1634 144 79 136.837 79 128C79 119.163 86.1634 112 95 112H218ZM218 48C226.837 48 234 55.1634 234 64C234 72.8366 226.837 80 218 80H95C86.1634 80 79 72.8366 79 64C79 55.1634 86.1634 48 95 48H218Z"/>
</mask>
<path d="M218 176V154V154V176ZM95 208L95 230H95V208ZM22.25 107.486L0.25 107.486V107.486H22.25ZM34.3652 100.626L45.682 81.7598L45.6818 81.7597L34.3652 100.626ZM68.5635 121.14L79.8812 102.274L79.8802 102.274L68.5635 121.14ZM68.5635 134.86L79.8802 153.726L79.8812 153.726L68.5635 134.86ZM34.3652 155.374L45.6818 174.24L45.682 174.24L34.3652 155.374ZM22.25 148.514H0.25V148.514L22.25 148.514ZM218 112V90V90V112ZM95 144L95 166H95V144ZM218 48V26V26V48ZM95 80L95 102H95V80ZM218 176V198C214.686 198 212 195.314 212 192H234H256C256 171.013 238.987 154 218 154V176ZM234 192H212C212 188.686 214.686 186 218 186V208V230C238.987 230 256 212.987 256 192H234ZM218 208V186H95V208V230H218V208ZM95 208L95 186C98.3137 186 101 188.686 101 192H79H57C57 212.987 74.0132 230 95 230L95 208ZM79 192H101C101 195.314 98.3137 198 95 198V176V154C74.0132 154 57 171.013 57 192H79ZM95 176V198H218V176V154H95V176ZM22.25 107.486L44.25 107.487C44.2496 118.368 32.3804 125.09 23.0487 119.492L34.3652 100.626L45.6818 81.7597C25.6858 69.7655 0.250793 84.1695 0.25 107.486L22.25 107.486ZM34.3652 100.626L23.0485 119.492L57.2467 140.006L68.5635 121.14L79.8802 102.274L45.682 81.7598L34.3652 100.626ZM68.5635 121.14L57.2458 140.005C48.182 134.568 48.182 121.432 57.2458 115.995L68.5635 134.86L79.8812 153.726C99.3035 142.074 99.3035 113.926 79.8812 102.274L68.5635 121.14ZM68.5635 134.86L57.2467 115.994L23.0485 136.508L34.3652 155.374L45.682 174.24L79.8802 153.726L68.5635 134.86ZM34.3652 155.374L23.0486 136.508C32.3804 130.91 44.2496 137.632 44.25 148.513L22.25 148.514L0.25 148.514C0.250826 171.83 25.6858 186.235 45.6818 174.24L34.3652 155.374ZM22.25 148.514H44.25V107.486H22.25H0.25V148.514H22.25ZM218 112V134C214.686 134 212 131.314 212 128H234H256C256 107.013 238.987 90 218 90V112ZM234 128H212C212 124.686 214.686 122 218 122V144V166C238.987 166 256 148.987 256 128H234ZM218 144V122H95V144V166H218V144ZM95 144L95 122C98.3137 122 101 124.686 101 128H79H57C57 148.987 74.0132 166 95 166L95 144ZM79 128H101C101 131.314 98.3137 134 95 134V112V90C74.0132 90 57 107.013 57 128H79ZM95 112V134H218V112V90H95V112ZM218 48V70C214.686 70 212 67.3137 212 64H234H256C256 43.0132 238.987 26 218 26V48ZM234 64H212C212 60.6863 214.686 58 218 58V80V102C238.987 102 256 84.9868 256 64H234ZM218 80V58H95V80V102H218V80ZM95 80L95 58C98.3137 58 101 60.6863 101 64H79H57C57 84.9868 74.0132 102 95 102L95 80ZM79 64H101C101 67.3137 98.3137 70 95 70V48V26C74.0132 26 57 43.0132 57 64H79ZM95 48V70H218V48V26H95V48Z" fill="white" mask="url(#path-1-outside-1_710_331)"/>
</svg>
