<svg width="256" height="256" viewBox="0 0 256 256" fill="none" xmlns="http://www.w3.org/2000/svg">
<path fill-rule="evenodd" clip-rule="evenodd" d="M83 56H240C244.418 56 248 59.5817 248 64C248 68.4183 244.418 72 240 72H83C78.5817 72 75 68.4183 75 64C75 59.5817 78.5817 56 83 56ZM67 64C67 55.1634 74.1634 48 83 48H240C248.837 48 256 55.1634 256 64C256 72.8366 248.837 80 240 80H83C74.1634 80 67 72.8366 67 64ZM83 120H240C244.418 120 248 123.582 248 128C248 132.418 244.418 136 240 136H83C78.5817 136 75 132.418 75 128C75 123.582 78.5817 120 83 120ZM67 128C67 119.163 74.1634 112 83 112H240C248.837 112 256 119.163 256 128C256 136.837 248.837 144 240 144H83C74.1634 144 67 136.837 67 128ZM240 184H83C78.5817 184 75 187.582 75 192C75 196.418 78.5817 200 83 200H240C244.418 200 248 196.418 248 192C248 187.582 244.418 184 240 184ZM83 176C74.1634 176 67 183.163 67 192C67 200.837 74.1634 208 83 208H240C248.837 208 256 200.837 256 192C256 183.163 248.837 176 240 176H83ZM51.4478 128L17.25 107.487L17.25 148.513L51.4478 128ZM55.563 134.86C60.7428 131.753 60.7428 124.247 55.563 121.14L21.3652 100.626C16.033 97.4277 9.25 101.269 9.25 107.487V148.513C9.25 154.731 16.033 158.572 21.3652 155.374L55.563 134.86Z" fill="white"/>
</svg>
