<svg width="256" height="256" viewBox="0 0 256 256" fill="none" xmlns="http://www.w3.org/2000/svg">
<mask id="path-1-outside-1_710_337" maskUnits="userSpaceOnUse" x="0.552979" y="26" width="256" height="204" fill="black">
<rect fill="white" x="0.552979" y="26" width="256" height="204"/>
<path d="M218 176C226.837 176 234 183.164 234 192C234 200.836 226.837 208 218 208H95.0002C86.1636 208 79.0002 200.837 79.0002 192C79.0002 183.163 86.1636 176 95.0002 176H218ZM60.6359 100.626C65.968 97.4279 72.751 101.269 72.7512 107.486V148.514C72.7509 154.731 65.968 158.572 60.6359 155.374L26.4377 134.86C21.2581 131.753 21.2581 124.247 26.4377 121.14L60.6359 100.626ZM218 112C226.837 112 234 119.164 234 128C234 136.836 226.837 144 218 144H95.0002C86.1636 144 79.0002 136.837 79.0002 128C79.0002 119.163 86.1636 112 95.0002 112H218ZM218 48C226.837 48.0001 234 55.1635 234 64C234 72.8365 226.837 79.9999 218 80H95.0002C86.1636 80 79.0002 72.8366 79.0002 64C79.0002 55.1634 86.1636 48 95.0002 48H218Z"/>
</mask>
<path d="M218 176L218.001 154H218V176ZM218 208V230H218.001L218 208ZM60.6359 100.626L49.32 81.7593L49.3192 81.7598L60.6359 100.626ZM72.7512 107.486H94.7512V107.486L72.7512 107.486ZM72.7512 148.514L94.7512 148.514V148.514H72.7512ZM60.6359 155.374L49.3192 174.24L49.32 174.241L60.6359 155.374ZM26.4377 134.86L15.1207 153.726L15.1209 153.726L26.4377 134.86ZM26.4377 121.14L15.1209 102.274L15.1207 102.274L26.4377 121.14ZM218 112L218.001 90H218V112ZM218 144V166H218.001L218 144ZM218 48L218.001 26H218V48ZM218 80V102H218.001L218 80ZM218 176L218 198C214.687 198 212 195.314 212 192H234H256C256 171.013 238.987 154 218.001 154L218 176ZM234 192H212C212 188.686 214.687 186 218 186L218 208L218.001 230C238.987 230 256 212.987 256 192H234ZM218 208V186H95.0002V208V230H218V208ZM95.0002 208V186C98.3139 186 101 188.686 101 192H79.0002H57.0002C57.0002 212.987 74.0134 230 95.0002 230V208ZM79.0002 192H101C101 195.314 98.3139 198 95.0002 198V176V154C74.0134 154 57.0002 171.013 57.0002 192H79.0002ZM95.0002 176V198H218V176V154H95.0002V176ZM60.6359 100.626L71.9518 119.493C62.6214 125.089 50.7515 118.369 50.7512 107.487L72.7512 107.486L94.7512 107.486C94.7504 84.1684 69.3146 69.7669 49.32 81.7593L60.6359 100.626ZM72.7512 107.486H50.7512V148.514H72.7512H94.7512V107.486H72.7512ZM72.7512 148.514L50.7512 148.513C50.7516 137.631 62.6213 130.911 71.9518 136.507L60.6359 155.374L49.32 174.241C69.3147 186.233 94.7503 171.832 94.7512 148.514L72.7512 148.514ZM60.6359 155.374L71.9527 136.508L37.7545 115.994L26.4377 134.86L15.1209 153.726L49.3192 174.24L60.6359 155.374ZM26.4377 134.86L37.7547 115.994C46.8191 121.432 46.8191 134.568 37.7547 140.006L26.4377 121.14L15.1207 102.274C-4.30293 113.925 -4.30291 142.075 15.1207 153.726L26.4377 134.86ZM26.4377 121.14L37.7545 140.006L71.9527 119.492L60.6359 100.626L49.3192 81.7598L15.1209 102.274L26.4377 121.14ZM218 112L218 134C214.687 134 212 131.314 212 128H234H256C256 107.013 238.987 90.0003 218.001 90L218 112ZM234 128H212C212 124.686 214.687 122 218 122L218 144L218.001 166C238.987 166 256 148.987 256 128H234ZM218 144V122H95.0002V144V166H218V144ZM95.0002 144V122C98.3139 122 101 124.686 101 128H79.0002H57.0002C57.0002 148.987 74.0134 166 95.0002 166V144ZM79.0002 128H101C101 131.314 98.3139 134 95.0002 134V112V90C74.0134 90 57.0002 107.013 57.0002 128H79.0002ZM95.0002 112V134H218V112V90H95.0002V112ZM218 48L218 70C214.687 69.9999 212 67.3142 212 64H234H256C256 43.0129 238.987 26.0003 218.001 26L218 48ZM234 64H212C212 60.6859 214.687 58.0001 218 58L218 80L218.001 102C238.987 102 256 84.9871 256 64H234ZM218 80V58H95.0002V80V102H218V80ZM95.0002 80V58C98.3139 58 101 60.6863 101 64H79.0002H57.0002C57.0002 84.9868 74.0134 102 95.0002 102V80ZM79.0002 64H101C101 67.3137 98.3139 70 95.0002 70V48V26C74.0134 26 57.0002 43.0132 57.0002 64H79.0002ZM95.0002 48V70H218V48V26H95.0002V48Z" fill="white" mask="url(#path-1-outside-1_710_337)"/>
</svg>
