<svg width="256" height="256" viewBox="0 0 256 256" fill="none" xmlns="http://www.w3.org/2000/svg">
<g clip-path="url(#clip0_36_591)">
<path fill-rule="evenodd" clip-rule="evenodd" d="M82.9999 56H240C244.418 56 248 59.5817 248 64C248 68.4183 244.418 72 240 72H82.9999C78.5817 72 75 68.4183 75 64C75 59.5817 78.5817 56 82.9999 56ZM67 64C67 55.1634 74.1634 48 82.9999 48H240C248.837 48 256 55.1634 256 64C256 72.8366 248.837 80 240 80H82.9999C74.1634 80 67 72.8366 67 64ZM82.9999 120H240C244.418 120 248 123.582 248 128C248 132.418 244.418 136 240 136H82.9999C78.5817 136 75 132.418 75 128C75 123.582 78.5817 120 82.9999 120ZM67 128C67 119.163 74.1634 112 82.9999 112H240C248.837 112 256 119.163 256 128C256 136.837 248.837 144 240 144H82.9999C74.1634 144 67 136.837 67 128ZM240 184H82.9999C78.5817 184 75 187.582 75 192C75 196.418 78.5817 200 82.9999 200H240C244.418 200 248 196.418 248 192C248 187.582 244.418 184 240 184ZM82.9999 176C74.1634 176 67 183.163 67 192C67 200.837 74.1634 208 82.9999 208H240C248.837 208 256 200.837 256 192C256 183.163 248.837 176 240 176H82.9999ZM14.5521 128L48.7499 107.487L48.75 148.513L14.5521 128ZM10.4369 134.86C5.25719 131.753 5.25718 124.247 10.4369 121.14L44.6348 100.626C49.967 97.4277 56.75 101.269 56.75 107.487V148.513C56.75 154.731 49.967 158.572 44.6348 155.374L10.4369 134.86Z" fill="white"/>
</g>
<defs>
<clipPath id="clip0_36_591">
<rect width="256" height="256" fill="white"/>
</clipPath>
</defs>
</svg>
