<svg width="256" height="256" viewBox="0 0 256 256" fill="none" xmlns="http://www.w3.org/2000/svg">
<path d="M136.724 78.6453L133.987 75.7278L133.94 75.7719L133.894 75.8176L136.724 78.6453ZM136.724 58.302L133.805 61.0371L133.893 61.1312L133.987 61.2195L136.724 58.302ZM116.108 58.0194L113.278 55.1917L113.23 55.2404L113.183 55.2909L116.108 58.0194ZM224 128C224 181.019 181.019 224 128 224V232C185.438 232 232 185.438 232 128H224ZM128 32C181.019 32 224 74.9807 224 128H232C232 70.5624 185.438 24 128 24V32ZM32 128C32 74.9807 74.9807 32 128 32V24C70.5624 24 24 70.5624 24 128H32ZM128 224C74.9807 224 32 181.019 32 128H24C24 185.438 70.5624 232 128 232V224ZM96.5938 198.219C93.28 198.219 90.5938 195.532 90.5938 192.219H82.5938C82.5938 199.951 88.8618 206.219 96.5938 206.219V198.219ZM160.188 198.219H96.5938V206.219H160.188V198.219ZM166.188 192.219C166.188 195.532 163.501 198.219 160.188 198.219V206.219C167.919 206.219 174.188 199.951 174.188 192.219H166.188ZM166.188 191.595V192.219H174.188V191.595H166.188ZM160.188 185.595C163.501 185.595 166.188 188.281 166.188 191.595H174.188C174.188 183.863 167.919 177.595 160.188 177.595V185.595ZM145.086 185.595H160.188V177.595H145.086V185.595ZM138.086 178.594C138.086 182.46 141.22 185.595 145.086 185.595V177.595C145.638 177.595 146.086 178.042 146.086 178.594H138.086ZM138.086 110.979V178.594H146.086V110.979H138.086ZM132.086 104.979C135.399 104.979 138.086 107.665 138.086 110.979H146.086C146.086 103.247 139.818 96.979 132.086 96.979V104.979ZM106.753 104.979H132.086V96.979H106.753V104.979ZM100.753 110.979C100.753 107.665 103.44 104.979 106.753 104.979V96.979C99.0214 96.979 92.7534 103.247 92.7534 110.979H100.753ZM100.753 111.603V110.979H92.7534V111.603H100.753ZM106.753 117.603C103.44 117.603 100.753 114.917 100.753 111.603H92.7534C92.7534 119.335 99.0214 125.603 106.753 125.603V117.603ZM114.52 117.603H106.753V125.603H114.52V117.603ZM121.52 124.603C121.52 120.737 118.386 117.603 114.52 117.603V125.603C113.967 125.603 113.52 125.156 113.52 124.603H121.52ZM121.52 178.595V124.603H113.52V178.595H121.52ZM114.52 185.595C118.386 185.595 121.52 182.46 121.52 178.595H113.52C113.52 178.042 113.967 177.595 114.52 177.595V185.595ZM96.5938 185.595H114.52V177.595H96.5938V185.595ZM90.5938 191.594C90.5938 188.281 93.28 185.595 96.5938 185.595V177.595C88.8618 177.595 82.5938 183.863 82.5938 191.594H90.5938ZM90.5938 192.219V191.594H82.5938V192.219H90.5938ZM126.557 78.8835C123.677 78.8835 121.302 77.9012 119.219 75.8176L113.561 81.4731C117.126 85.0403 121.529 86.8835 126.557 86.8835V78.8835ZM133.894 75.8176C131.812 77.9012 129.437 78.8835 126.557 78.8835V86.8835C131.584 86.8835 135.987 85.0403 139.553 81.4731L133.894 75.8176ZM137.242 68.4736C137.242 71.2703 136.233 73.621 133.987 75.7278L139.46 81.5628C143.239 78.0187 145.242 73.5883 145.242 68.4736H137.242ZM133.987 61.2195C136.233 63.3263 137.242 65.677 137.242 68.4736H145.242C145.242 63.359 143.239 58.9286 139.46 55.3845L133.987 61.2195ZM126.557 57.7812C129.35 57.7812 131.699 58.7897 133.805 61.0371L139.642 55.5669C136.1 51.7866 131.671 49.7812 126.557 49.7812V57.7812ZM118.937 60.8472C120.98 58.8026 123.432 57.7812 126.557 57.7812V49.7812C121.397 49.7812 116.883 51.5853 113.278 55.1917L118.937 60.8472ZM116.154 68.4736C116.154 65.2621 117.14 62.7761 119.032 60.748L113.183 55.2909C109.803 58.9137 108.154 63.3971 108.154 68.4736H116.154ZM119.219 75.8176C117.136 73.7338 116.154 71.357 116.154 68.4736H108.154C108.154 73.5016 109.995 77.9059 113.561 81.4731L119.219 75.8176Z" fill="white"/>
</svg>
