<svg width="256" height="256" viewBox="0 0 256 256" fill="none" xmlns="http://www.w3.org/2000/svg">
<path d="M136.724 78.6453L131.593 73.175L131.504 73.2577L131.419 73.3433L136.724 78.6453ZM136.724 58.302L131.251 63.4302L131.416 63.6068L131.593 63.7723L136.724 58.302ZM116.108 58.0194L110.803 52.7174L110.712 52.8088L110.623 52.9034L116.108 58.0194ZM220.5 128C220.5 179.086 179.086 220.5 128 220.5V235.5C187.371 235.5 235.5 187.371 235.5 128H220.5ZM128 35.5C179.086 35.5 220.5 76.9137 220.5 128H235.5C235.5 68.6294 187.371 20.5 128 20.5V35.5ZM35.5 128C35.5 76.9137 76.9137 35.5 128 35.5V20.5C68.6294 20.5 20.5 68.6294 20.5 128H35.5ZM128 220.5C76.9137 220.5 35.5 179.086 35.5 128H20.5C20.5 187.371 68.6294 235.5 128 235.5V220.5ZM96.5938 194.719C95.213 194.719 94.0938 193.599 94.0938 192.219H79.0938C79.0938 201.884 86.9288 209.719 96.5938 209.719V194.719ZM160.188 194.719H96.5938V209.719H160.188V194.719ZM162.688 192.219C162.688 193.599 161.568 194.719 160.188 194.719V209.719C169.852 209.719 177.688 201.884 177.688 192.219H162.688ZM162.688 191.595V192.219H177.688V191.595H162.688ZM160.188 189.095C161.568 189.095 162.688 190.214 162.688 191.595H177.688C177.688 181.93 169.852 174.095 160.188 174.095V189.095ZM145.086 189.095H160.188V174.095H145.086V189.095ZM134.586 178.595C134.586 184.393 139.287 189.095 145.086 189.095V174.095C147.571 174.095 149.586 176.109 149.586 178.595H134.586ZM134.586 110.979V178.595H149.586V110.979H134.586ZM132.086 108.479C133.466 108.479 134.586 109.598 134.586 110.979H149.586C149.586 101.314 141.751 93.479 132.086 93.479V108.479ZM106.753 108.479H132.086V93.479H106.753V108.479ZM104.253 110.979C104.253 109.598 105.373 108.479 106.753 108.479V93.479C97.0884 93.479 89.2534 101.314 89.2534 110.979H104.253ZM104.253 111.603V110.979H89.2534V111.603H104.253ZM106.753 114.103C105.373 114.103 104.253 112.984 104.253 111.603H89.2534C89.2534 121.268 97.0884 129.103 106.753 129.103V114.103ZM114.52 114.103H106.753V129.103H114.52V114.103ZM125.02 124.603C125.02 118.804 120.319 114.103 114.52 114.103V129.103C112.034 129.103 110.02 127.089 110.02 124.603H125.02ZM125.02 178.595V124.603H110.02V178.595H125.02ZM114.52 189.095C120.319 189.095 125.02 184.393 125.02 178.595H110.02C110.02 176.109 112.034 174.095 114.52 174.095V189.095ZM96.5938 189.095H114.52V174.095H96.5938V189.095ZM94.0938 191.594C94.0938 190.214 95.213 189.095 96.5938 189.095V174.095C86.9288 174.095 79.0938 181.93 79.0938 191.594H94.0938ZM94.0938 192.219V191.594H79.0938V192.219H94.0938ZM126.557 75.3835C124.616 75.3835 123.128 74.7779 121.694 73.3433L111.085 83.9473C115.3 88.1637 120.59 90.3835 126.557 90.3835V75.3835ZM131.419 73.3433C129.985 74.7779 128.498 75.3835 126.557 75.3835V90.3835C132.523 90.3835 137.814 88.1637 142.028 83.9473L131.419 73.3433ZM133.742 68.4736C133.742 70.2561 133.169 71.6969 131.593 73.175L141.854 84.1156C146.303 79.9428 148.742 74.6025 148.742 68.4736H133.742ZM131.593 63.7723C133.169 65.2504 133.742 66.6912 133.742 68.4736H148.742C148.742 62.3448 146.303 57.0045 141.854 52.8317L131.593 63.7723ZM126.557 61.2812C128.335 61.2812 129.773 61.8535 131.251 63.4302L142.196 53.1737C138.026 48.7228 132.686 46.2812 126.557 46.2812V61.2812ZM121.412 63.3215C122.773 61.9602 124.323 61.2812 126.557 61.2812V46.2812C120.507 46.2812 115.091 48.4278 110.803 52.7174L121.412 63.3215ZM119.654 68.4736C119.654 66.0781 120.35 64.466 121.592 63.1355L110.623 52.9034C106.593 57.2238 104.654 62.5812 104.654 68.4736H119.654ZM121.694 73.3433C120.26 71.9086 119.654 70.4188 119.654 68.4736H104.654C104.654 74.4398 106.871 79.7311 111.085 83.9473L121.694 73.3433Z" fill="white"/>
</svg>
