<svg width="256" height="256" viewBox="0 0 256 256" fill="none" xmlns="http://www.w3.org/2000/svg">
<path d="M202.322 11C211.535 11.0001 218.57 19.2279 217.14 28.3291L214.387 45.8428C213.24 53.1377 206.954 58.5125 199.569 58.5127H165.4L143.388 197.487H172.813C182.027 197.487 189.063 205.715 187.632 214.816L184.879 232.329C183.732 239.624 177.445 245 170.061 245H52.6777C43.4648 245 36.4298 236.772 37.8604 227.671L40.6133 210.157C41.7603 202.862 48.0461 197.488 55.4307 197.487H89.5996L111.612 58.5127H82.1865C72.9734 58.5127 65.9375 50.2849 67.3682 41.1836L70.1211 23.6709L70.1787 23.3301C71.4647 16.2086 77.6699 11 84.9395 11H202.322Z" stroke="white" stroke-width="22"/>
</svg>
