<svg width="256" height="256" viewBox="0 0 256 256" fill="none" xmlns="http://www.w3.org/2000/svg">
<rect width="256" height="256" stroke="white"/>
<mask id="path-2-outside-1_33_463" maskUnits="userSpaceOnUse" x="76" y="53" width="109" height="148" fill="black">
<rect fill="white" x="76" y="53" width="109" height="148"/>
<path d="M85.7352 193L87.7152 180.04H114.895L131.635 74.56H104.455L106.615 61.6H175.375L173.215 74.56H146.215L129.475 180.04H156.475L154.495 193H85.7352Z"/>
</mask>
<path d="M85.7352 193L77.8269 191.792L76.4201 201H85.7352V193ZM87.7152 180.04V172.04H80.8446L79.8069 178.832L87.7152 180.04ZM114.895 180.04V188.04H121.726L122.796 181.294L114.895 180.04ZM131.635 74.56L139.536 75.8139L141.005 66.56H131.635V74.56ZM104.455 74.56L96.564 73.2448L95.0115 82.56H104.455V74.56ZM106.615 61.6V53.6H99.8381L98.724 60.2848L106.615 61.6ZM175.375 61.6L183.266 62.9152L184.819 53.6H175.375V61.6ZM173.215 74.56V82.56H179.992L181.106 75.8752L173.215 74.56ZM146.215 74.56V66.56H139.385L138.314 73.3061L146.215 74.56ZM129.475 180.04L121.574 178.786L120.105 188.04H129.475V180.04ZM156.475 180.04L164.383 181.248L165.79 172.04H156.475V180.04ZM154.495 193V201H161.366L162.403 194.208L154.495 193ZM93.6434 194.208L95.6234 181.248L79.8069 178.832L77.8269 191.792L93.6434 194.208ZM87.7152 188.04H114.895V172.04H87.7152V188.04ZM122.796 181.294L139.536 75.8139L123.734 73.3061L106.994 178.786L122.796 181.294ZM131.635 66.56H104.455V82.56H131.635V66.56ZM112.346 75.8752L114.506 62.9152L98.724 60.2848L96.564 73.2448L112.346 75.8752ZM106.615 69.6H175.375V53.6H106.615V69.6ZM167.484 60.2848L165.324 73.2448L181.106 75.8752L183.266 62.9152L167.484 60.2848ZM173.215 66.56H146.215V82.56H173.215V66.56ZM138.314 73.3061L121.574 178.786L137.376 181.294L154.116 75.8139L138.314 73.3061ZM129.475 188.04H156.475V172.04H129.475V188.04ZM148.567 178.832L146.587 191.792L162.403 194.208L164.383 181.248L148.567 178.832ZM154.495 185H85.7352V201H154.495V185Z" fill="white" mask="url(#path-2-outside-1_33_463)"/>
</svg>
