<svg width="256" height="256" viewBox="0 0 256 256" fill="none" xmlns="http://www.w3.org/2000/svg">
<path fill-rule="evenodd" clip-rule="evenodd" d="M76.4201 201L77.8269 191.792L79.8069 178.832L80.8445 172.04H87.7152H108.065L122.265 82.5601H104.455H95.0115L96.564 73.2449L98.724 60.2849L99.8381 53.6001H106.615H175.375H184.819L183.266 62.9153L181.106 75.8753L179.992 82.5601H173.215H153.046L138.845 172.04H156.475H165.79L164.383 181.248L162.403 194.208L161.366 201H154.495H85.7352H76.4201ZM137.575 180.04H129.475L130.745 172.04L146.215 74.5601H173.215L174.042 69.6001L175.375 61.6001H167.265H106.615L105.788 66.5601L104.455 74.5601H112.566H123.535H131.635L130.366 82.5601L114.895 180.04H87.7152L86.9574 185L85.7352 193H93.828H154.495L155.253 188.04L156.475 180.04H148.382H137.575Z" fill="white"/>
</svg>
