<svg width="256" height="256" viewBox="0 0 256 256" fill="none" xmlns="http://www.w3.org/2000/svg">
  <path d="M43.4361 118.902C35.912 122.602 36.0086 133.363 43.5979 136.927L124.174 174.772C126.598 175.91 129.402 175.91 131.826 174.772L212.402 136.927C219.991 133.363 220.088 122.602 212.564 118.902L138.591 82.5245C131.912 79.2401 124.088 79.2401 117.409 82.5246L43.4361 118.902Z" stroke="white" stroke-width="8"/>
  <mask id="path-3-outside-1_32_374" maskUnits="userSpaceOnUse" x="32.1487" y="136.602" width="192" height="65" fill="black">
    <rect fill="white" x="32.1487" y="136.602" width="192" height="65"/>
    <path fill-rule="evenodd" clip-rule="evenodd" d="M46.8472 145.048C45.5546 144.441 44.0562 144.454 42.7748 145.084C39.2383 146.824 39.2837 151.881 42.8508 153.557L125.449 192.351C127.065 193.11 128.935 193.11 130.551 192.351L213.149 153.557C216.716 151.881 216.761 146.824 213.225 145.084C211.944 144.454 210.445 144.441 209.153 145.048L130.551 181.965C128.935 182.724 127.065 182.724 125.449 181.965L46.8472 145.048Z"/>
  </mask>
  <path d="M130.551 181.965L127.15 174.724L130.551 181.965ZM125.449 181.965L128.85 174.724L125.449 181.965ZM209.153 145.048L212.554 152.289L209.153 145.048ZM213.149 153.557L209.748 146.316L213.149 153.557ZM125.449 192.351L128.85 185.11L125.449 192.351ZM130.551 192.351L127.15 185.11L130.551 192.351ZM128.85 185.11L46.2518 146.316L39.4499 160.798L122.048 199.592L128.85 185.11ZM209.748 146.316L127.15 185.11L133.951 199.592L216.55 160.798L209.748 146.316ZM205.752 137.807L127.15 174.724L133.952 189.206L212.554 152.289L205.752 137.807ZM128.85 174.724L50.2481 137.807L43.4462 152.289L122.048 189.206L128.85 174.724ZM127.15 174.724C127.688 174.471 128.311 174.471 128.85 174.724L122.048 189.206C125.818 190.977 130.181 190.977 133.952 189.206L127.15 174.724ZM216.755 137.906C213.293 136.203 209.244 136.167 205.752 137.807L212.554 152.289C211.646 152.715 210.594 152.706 209.695 152.263L216.755 137.906ZM216.55 160.798C226.188 156.271 226.311 142.605 216.755 137.906L209.695 152.263C207.212 151.042 207.244 147.492 209.748 146.316L216.55 160.798ZM122.048 199.592C125.818 201.363 130.181 201.363 133.951 199.592L127.15 185.11C127.688 184.857 128.311 184.857 128.85 185.11L122.048 199.592ZM46.3052 152.263C45.4056 152.706 44.3536 152.715 43.4462 152.289L50.2481 137.807C46.7557 136.167 42.7069 136.203 39.2444 137.906L46.3052 152.263ZM39.2444 137.906C29.6887 142.605 29.8112 156.271 39.4499 160.798L46.2518 146.316C48.7561 147.492 48.7879 151.042 46.3052 152.263L39.2444 137.906Z" fill="white" mask="url(#path-3-outside-1_32_374)"/>
  <mask id="path-5-outside-2_32_374" maskUnits="userSpaceOnUse" x="32.1487" y="157.373" width="192" height="65" fill="black">
    <rect fill="white" x="32.1487" y="157.373" width="192" height="65"/>
    <path fill-rule="evenodd" clip-rule="evenodd" d="M46.8472 165.819C45.5546 165.212 44.0562 165.225 42.7748 165.855C39.2383 167.595 39.2837 172.652 42.8508 174.328L125.874 213.322C127.221 213.954 128.779 213.954 130.125 213.322L213.149 174.328C216.716 172.652 216.761 167.595 213.225 165.855C211.944 165.225 210.445 165.212 209.153 165.819L130.125 202.936C128.779 203.568 127.221 203.568 125.874 202.936L46.8472 165.819Z"/>
  </mask>
  <path d="M130.125 202.936L126.724 195.695L130.125 202.936ZM125.874 202.936L122.473 210.177L125.874 202.936ZM209.153 165.819L212.554 173.06L209.153 165.819ZM213.149 174.328L216.55 181.569L213.149 174.328ZM125.874 213.322L129.275 206.081L125.874 213.322ZM130.125 213.322L126.724 206.081L130.125 213.322ZM129.275 206.081L46.2518 167.087L39.4499 181.569L122.473 220.563L129.275 206.081ZM209.748 167.087L126.724 206.081L133.526 220.563L216.55 181.569L209.748 167.087ZM205.752 158.578L126.724 195.695L133.526 210.177L212.554 173.06L205.752 158.578ZM129.275 195.695L50.2481 158.578L43.4462 173.06L122.473 210.177L129.275 195.695ZM126.724 195.695C127.532 195.315 128.467 195.315 129.275 195.695L122.473 210.177C125.974 211.821 130.025 211.821 133.526 210.177L126.724 195.695ZM216.755 158.677C213.293 156.974 209.244 156.938 205.752 158.578L212.554 173.06C211.646 173.486 210.594 173.477 209.695 173.034L216.755 158.677ZM216.55 181.569C226.188 177.042 226.311 163.376 216.755 158.677L209.695 173.034C207.212 171.813 207.244 168.263 209.748 167.087L216.55 181.569ZM122.473 220.563C125.974 222.207 130.025 222.207 133.526 220.563L126.724 206.081C127.532 205.701 128.467 205.701 129.275 206.081L122.473 220.563ZM46.3052 173.034C45.4056 173.477 44.3536 173.486 43.4462 173.06L50.2481 158.578C46.7557 156.938 42.7069 156.974 39.2444 158.677L46.3052 173.034ZM39.2444 158.677C29.6887 163.376 29.8112 177.042 39.4499 181.569L46.2518 167.087C48.7561 168.263 48.7879 171.813 46.3052 173.034L39.2444 158.677Z" fill="white" mask="url(#path-5-outside-2_32_374)"/>
</svg>
