<svg width="256" height="256" viewBox="0 0 256 256" fill="none" xmlns="http://www.w3.org/2000/svg">
<path fill-rule="evenodd" clip-rule="evenodd" d="M41.6709 115.313L115.644 78.9351C123.436 75.1033 132.564 75.1033 140.356 78.9351L214.329 115.313C223.58 119.862 224.602 132.034 217.518 138.311C225.65 142.975 225.93 154.513 218.478 159.689C226.256 165.095 225.569 177.333 216.55 181.569L133.526 220.563C130.025 222.207 125.974 222.207 122.473 220.563L39.4499 181.569C30.4306 177.333 29.7437 165.095 37.5221 159.689C30.0699 154.513 30.3502 142.975 38.4815 138.311C31.3978 132.034 32.4205 119.862 41.6709 115.313ZM45.2013 122.492C40.6868 124.712 40.7448 131.168 45.2983 133.307L125.874 171.151C127.221 171.784 128.779 171.784 130.126 171.151L210.702 133.307C215.255 131.168 215.313 124.712 210.799 122.492L136.826 86.114C131.26 83.377 124.74 83.377 119.174 86.114L45.2013 122.492ZM42.7748 145.085C44.0562 144.454 45.5546 144.441 46.8472 145.048L125.449 181.965C127.065 182.724 128.935 182.724 130.551 181.965L209.153 145.048C210.445 144.441 211.944 144.454 213.225 145.085C216.761 146.824 216.716 151.881 213.149 153.557L130.551 192.351C128.935 193.11 127.065 193.11 125.449 192.351L42.8508 153.557C39.2837 151.881 39.2383 146.824 42.7748 145.085ZM46.8472 165.819C45.5546 165.212 44.0562 165.225 42.7748 165.856C39.2383 167.595 39.2837 172.652 42.8508 174.328L125.874 213.322C127.221 213.954 128.779 213.954 130.125 213.322L213.149 174.328C216.716 172.652 216.761 167.595 213.225 165.856C211.944 165.225 210.445 165.212 209.153 165.819L130.125 202.936C128.779 203.568 127.221 203.568 125.874 202.936L46.8472 165.819Z" fill="white"/>
</svg>
