<svg width="256" height="256" viewBox="0 0 256 256" fill="none" xmlns="http://www.w3.org/2000/svg">
<mask id="path-1-outside-1_710_27" maskUnits="userSpaceOnUse" x="0" y="46" width="256" height="163" fill="black">
<rect fill="white" y="46" width="256" height="163"/>
<path d="M220.9 160.8C228.135 160.8 234 166.666 234 173.9C234 181.135 228.135 187 220.9 187H35.0996C27.865 187 22.0002 181.135 22 173.9C22 166.666 27.8649 160.8 35.0996 160.8H220.9ZM220.9 114.4C228.135 114.401 234 120.265 234 127.5C234 134.735 228.135 140.599 220.9 140.6H35.0996C27.8649 140.599 22 134.735 22 127.5C22 120.265 27.8649 114.401 35.0996 114.4H220.9ZM220.9 68C228.135 68.0002 234 73.865 234 81.0996C234 88.3344 228.135 94.2 220.9 94.2002H35.0996C27.8649 94.2 22 88.3344 22 81.0996C22.0002 73.865 27.865 68.0002 35.0996 68H220.9Z"/>
</mask>
<path d="M220.9 160.8L220.901 138.8H220.9V160.8ZM234 173.9L256 173.901V173.9H234ZM220.9 187V209H220.901L220.9 187ZM35.0996 187L35.099 209H35.0996V187ZM22 173.9H0V173.901L22 173.9ZM35.0996 160.8V138.8H35.099L35.0996 160.8ZM220.9 114.4L220.901 92.4004H220.9V114.4ZM234 127.5H256V127.5L234 127.5ZM220.9 140.6V162.6H220.901L220.9 140.6ZM35.0996 140.6L35.099 162.6H35.0996V140.6ZM22 127.5L0 127.5V127.5H22ZM35.0996 114.4V92.4004H35.099L35.0996 114.4ZM220.9 68L220.901 46H220.9V68ZM234 81.0996H256V81.099L234 81.0996ZM220.9 94.2002V116.2H220.901L220.9 94.2002ZM35.0996 94.2002L35.099 116.2H35.0996V94.2002ZM22 81.0996L0 81.099V81.0996H22ZM35.0996 68V46H35.099L35.0996 68ZM220.9 160.8L220.9 182.8C215.983 182.8 212 178.814 212 173.9H234H256C256 154.517 240.287 138.8 220.901 138.8L220.9 160.8ZM234 173.9L212 173.9C212 168.985 215.985 165 220.9 165L220.9 187L220.901 209C240.285 208.999 255.999 193.285 256 173.901L234 173.9ZM220.9 187V165H35.0996V187V209H220.9V187ZM35.0996 187L35.1003 165C40.0154 165 43.9999 168.985 44 173.9L22 173.9L0 173.901C0.00056076 193.285 15.7146 208.999 35.099 209L35.0996 187ZM22 173.9H44C44 178.814 40.0168 182.8 35.1003 182.8L35.0996 160.8L35.099 138.8C15.713 138.8 0 154.517 0 173.9H22ZM35.0996 160.8V182.8H220.9V160.8V138.8H35.0996V160.8ZM220.9 114.4L220.9 136.4C215.985 136.4 212 132.416 212 127.5L234 127.5L256 127.5C256 108.114 240.285 92.401 220.901 92.4004L220.9 114.4ZM234 127.5H212C212 122.584 215.985 118.6 220.9 118.6L220.9 140.6L220.901 162.6C240.285 162.599 256 146.886 256 127.5H234ZM220.9 140.6V118.6H35.0996V140.6V162.6H220.9V140.6ZM35.0996 140.6L35.1003 118.6C40.0146 118.6 44 122.584 44 127.5H22H0C0 146.886 15.7151 162.599 35.099 162.6L35.0996 140.6ZM22 127.5L44 127.5C44 132.416 40.0146 136.4 35.1003 136.4L35.0996 114.4L35.099 92.4004C15.7151 92.401 1.90735e-06 108.114 0 127.5L22 127.5ZM35.0996 114.4V136.4H220.9V114.4V92.4004H35.0996V114.4ZM220.9 68L220.9 90C215.985 89.9999 212 86.0154 212 81.1003L234 81.0996L256 81.099C255.999 61.7146 240.285 46.0006 220.901 46L220.9 68ZM234 81.0996H212C212 76.1856 215.983 72.2003 220.9 72.2002L220.9 94.2002L220.901 116.2C240.287 116.2 256 100.483 256 81.0996H234ZM220.9 94.2002V72.2002H35.0996V94.2002V116.2H220.9V94.2002ZM35.0996 94.2002L35.1003 72.2002C40.0168 72.2003 44 76.1856 44 81.0996H22H0C0 100.483 15.713 116.2 35.099 116.2L35.0996 94.2002ZM22 81.0996L44 81.1003C43.9999 86.0154 40.0154 89.9999 35.1003 90L35.0996 68L35.099 46C15.7146 46.0006 0.000566483 61.7146 0 81.099L22 81.0996ZM35.0996 68V90H220.9V68V46H35.0996V68Z" fill="white" mask="url(#path-1-outside-1_710_27)"/>
</svg>
