<svg width="256" height="256" viewBox="0 0 256 256" fill="none" xmlns="http://www.w3.org/2000/svg">
<mask id="path-1-inside-1_41_712" fill="white">
<path fill-rule="evenodd" clip-rule="evenodd" d="M112 88H77C54.9086 88 37 105.909 37 128C37 150.091 54.9086 168 77 168H112V158H77C60.4315 158 47 144.569 47 128C47 111.431 60.4315 98 77 98H112V88ZM144 158H179C195.569 158 209 144.569 209 128C209 111.431 195.569 98 179 98H144V88H179C201.091 88 219 105.909 219 128C219 150.091 201.091 168 179 168H144V158Z"/>
</mask>
<path d="M112 88H120V80H112V88ZM112 168V176H120V168H112ZM112 158H120V150H112V158ZM112 98V106H120V98H112ZM144 158V150H136V158H144ZM144 98H136V106H144V98ZM144 88V80H136V88H144ZM144 168H136V176H144V168ZM112 80H77V96H112V80ZM77 80C50.4903 80 29 101.49 29 128H45C45 110.327 59.3269 96 77 96V80ZM29 128C29 154.51 50.4903 176 77 176V160C59.3269 160 45 145.673 45 128H29ZM77 176H112V160H77V176ZM120 168V158H104V168H120ZM77 166H112V150H77V166ZM39 128C39 148.987 56.0132 166 77 166V150C64.8497 150 55 140.15 55 128H39ZM77 90C56.0132 90 39 107.013 39 128H55C55 115.85 64.8497 106 77 106V90ZM112 90H77V106H112V90ZM120 98V88H104V98H120ZM144 166H179V150H144V166ZM179 166C199.987 166 217 148.987 217 128H201C201 140.15 191.15 150 179 150V166ZM217 128C217 107.013 199.987 90 179 90V106C191.15 106 201 115.85 201 128H217ZM179 90H144V106H179V90ZM136 88V98H152V88H136ZM179 80H144V96H179V80ZM227 128C227 101.49 205.51 80 179 80V96C196.673 96 211 110.327 211 128H227ZM179 176C205.51 176 227 154.51 227 128H211C211 145.673 196.673 160 179 160V176ZM144 176H179V160H144V176ZM136 158V168H152V158H136Z" fill="white" mask="url(#path-1-inside-1_41_712)"/>
<rect x="64" y="112" width="128" height="32" rx="16" stroke="white" stroke-width="8"/>
</svg>
