<svg width="256" height="256" viewBox="0 0 256 256" fill="none" xmlns="http://www.w3.org/2000/svg">
<path fill-rule="evenodd" clip-rule="evenodd" d="M61 56H240C244.418 56 248 59.5817 248 64C248 68.4183 244.418 72 240 72H61C56.5817 72 53 68.4183 53 64C53 59.5817 56.5817 56 61 56ZM45 64C45 55.1634 52.1634 48 61 48H240C248.837 48 256 55.1634 256 64C256 72.8366 248.837 80 240 80H61C52.1634 80 45 72.8366 45 64ZM10 184H22C23.1046 184 24 184.895 24 186V198C24 199.105 23.1046 200 22 200H10C8.89543 200 8 199.105 8 198V186C8 184.895 8.89543 184 10 184ZM0 186C0 180.477 4.47715 176 10 176H22C27.5228 176 32 180.477 32 186V198C32 203.523 27.5228 208 22 208H10C4.47715 208 0 203.523 0 198V186ZM22 120H10C8.89543 120 8 120.895 8 122V134C8 135.105 8.89543 136 10 136H22C23.1046 136 24 135.105 24 134V122C24 120.895 23.1046 120 22 120ZM10 112C4.47715 112 0 116.477 0 122V134C0 139.523 4.47715 144 10 144H22C27.5228 144 32 139.523 32 134V122C32 116.477 27.5228 112 22 112H10ZM10 56H22C23.1046 56 24 56.8954 24 58V70C24 71.1046 23.1046 72 22 72H10C8.89543 72 8 71.1046 8 70V58C8 56.8954 8.89543 56 10 56ZM0 58C0 52.4772 4.47715 48 10 48H22C27.5228 48 32 52.4772 32 58V70C32 75.5228 27.5228 80 22 80H10C4.47715 80 0 75.5228 0 70V58ZM240 120H61C56.5817 120 53 123.582 53 128C53 132.418 56.5817 136 61 136H240C244.418 136 248 132.418 248 128C248 123.582 244.418 120 240 120ZM61 112C52.1634 112 45 119.163 45 128C45 136.837 52.1634 144 61 144H240C248.837 144 256 136.837 256 128C256 119.163 248.837 112 240 112H61ZM61 184H240C244.418 184 248 187.582 248 192C248 196.418 244.418 200 240 200H61C56.5817 200 53 196.418 53 192C53 187.582 56.5817 184 61 184ZM45 192C45 183.163 52.1634 176 61 176H240C248.837 176 256 183.163 256 192C256 200.837 248.837 208 240 208H61C52.1634 208 45 200.837 45 192Z" fill="white"/>
</svg>
