<svg width="256" height="256" viewBox="0 0 256 256" fill="none" xmlns="http://www.w3.org/2000/svg">
<mask id="path-1-outside-1_710_58" maskUnits="userSpaceOnUse" x="0" y="47" width="256" height="163" fill="black">
<rect fill="white" y="47" width="256" height="163"/>
<path d="M35.4004 161.8C42.6351 161.8 48.5 167.666 48.5 174.9C48.4998 182.135 42.635 188 35.4004 188H35.0996C27.865 188 22.0002 182.135 22 174.9C22 167.666 27.8649 161.8 35.0996 161.8H35.4004ZM220.9 161.8C228.135 161.8 234 167.666 234 174.9C234 182.135 228.135 188 220.9 188H72.3652C65.1306 188 59.2658 182.135 59.2656 174.9C59.2656 167.666 65.1305 161.8 72.3652 161.8H220.9ZM35.4004 115.4C42.6351 115.401 48.5 121.265 48.5 128.5C48.5 135.735 42.6351 141.599 35.4004 141.6H35.0996C27.8649 141.599 22 135.735 22 128.5C22 121.265 27.8649 115.401 35.0996 115.4H35.4004ZM220.9 115.4C228.135 115.401 234 121.265 234 128.5C234 135.735 228.135 141.599 220.9 141.6H72.3652C65.1305 141.599 59.2656 135.735 59.2656 128.5C59.2656 121.265 65.1305 115.401 72.3652 115.4H220.9ZM35.4004 69C42.635 69.0002 48.4998 74.865 48.5 82.0996C48.5 89.3344 42.6351 95.2 35.4004 95.2002H35.0996C27.8649 95.2 22 89.3344 22 82.0996C22.0002 74.865 27.865 69.0002 35.0996 69H35.4004ZM220.9 69C228.135 69.0002 234 74.865 234 82.0996C234 89.3344 228.135 95.2 220.9 95.2002H72.3652C65.1305 95.2 59.2656 89.3344 59.2656 82.0996C59.2658 74.865 65.1306 69.0002 72.3652 69H220.9Z"/>
</mask>
<path d="M35.4004 161.8L35.401 139.8H35.4004V161.8ZM48.5 174.9L70.5 174.901V174.9H48.5ZM35.4004 188V210H35.401L35.4004 188ZM35.0996 188L35.099 210H35.0996V188ZM22 174.9H0V174.901L22 174.9ZM35.0996 161.8V139.8H35.099L35.0996 161.8ZM220.9 161.8L220.901 139.8H220.9V161.8ZM234 174.9L256 174.901V174.9H234ZM220.9 188V210H220.901L220.9 188ZM72.3652 188L72.3646 210H72.3652V188ZM59.2656 174.9H37.2656V174.901L59.2656 174.9ZM72.3652 161.8V139.8H72.3646L72.3652 161.8ZM35.4004 115.4L35.401 93.4004H35.4004V115.4ZM48.5 128.5L70.5 128.5V128.5H48.5ZM35.4004 141.6V163.6H35.401L35.4004 141.6ZM35.0996 141.6L35.099 163.6H35.0996V141.6ZM22 128.5H0V128.5L22 128.5ZM35.0996 115.4V93.4004H35.099L35.0996 115.4ZM220.9 115.4L220.901 93.4004H220.9V115.4ZM234 128.5L256 128.5V128.5H234ZM220.9 141.6V163.6H220.901L220.9 141.6ZM72.3652 141.6L72.3646 163.6H72.3652V141.6ZM59.2656 128.5H37.2656V128.5L59.2656 128.5ZM72.3652 115.4V93.4004H72.3646L72.3652 115.4ZM35.4004 69L35.401 47H35.4004V69ZM48.5 82.0996H70.5V82.099L48.5 82.0996ZM35.4004 95.2002V117.2H35.401L35.4004 95.2002ZM35.0996 95.2002L35.099 117.2H35.0996V95.2002ZM22 82.0996L0 82.099V82.0996H22ZM35.0996 69V47H35.099L35.0996 69ZM220.9 69L220.901 47H220.9V69ZM234 82.0996H256V82.099L234 82.0996ZM220.9 95.2002V117.2H220.901L220.9 95.2002ZM72.3652 95.2002L72.3646 117.2H72.3652V95.2002ZM59.2656 82.0996L37.2656 82.099V82.0996H59.2656ZM72.3652 69V47H72.3646L72.3652 69ZM35.4004 161.8L35.3997 183.8C30.4832 183.8 26.5 179.814 26.5 174.9H48.5H70.5C70.5 155.517 54.787 139.8 35.401 139.8L35.4004 161.8ZM48.5 174.9L26.5 174.9C26.5001 169.985 30.4846 166 35.3997 166L35.4004 188L35.401 210C54.7854 209.999 70.4994 194.285 70.5 174.901L48.5 174.9ZM35.4004 188V166H35.0996V188V210H35.4004V188ZM35.0996 188L35.1003 166C40.0154 166 43.9999 169.985 44 174.9L22 174.9L0 174.901C0.000583649 194.285 15.7146 209.999 35.099 210L35.0996 188ZM22 174.9H44C44 179.814 40.0168 183.8 35.1003 183.8L35.0996 161.8L35.099 139.8C15.713 139.8 0 155.517 0 174.9H22ZM35.0996 161.8V183.8H35.4004V161.8V139.8H35.0996V161.8ZM220.9 161.8L220.9 183.8C215.983 183.8 212 179.814 212 174.9H234H256C256 155.517 240.287 139.8 220.901 139.8L220.9 161.8ZM234 174.9L212 174.9C212 169.985 215.985 166 220.9 166L220.9 188L220.901 210C240.285 209.999 255.999 194.285 256 174.901L234 174.9ZM220.9 188V166H72.3652V188V210H220.9V188ZM72.3652 188L72.3659 166C77.281 166 81.2655 169.985 81.2656 174.9L59.2656 174.9L37.2656 174.901C37.2662 194.285 52.9802 209.999 72.3646 210L72.3652 188ZM59.2656 174.9H81.2656C81.2656 179.814 77.2824 183.8 72.3659 183.8L72.3652 161.8L72.3646 139.8C52.9786 139.8 37.2656 155.517 37.2656 174.9H59.2656ZM72.3652 161.8V183.8H220.9V161.8V139.8H72.3652V161.8ZM35.4004 115.4L35.3997 137.4C30.4854 137.4 26.5 133.416 26.5 128.5H48.5H70.5C70.5 109.114 54.7849 93.401 35.401 93.4004L35.4004 115.4ZM48.5 128.5L26.5 128.5C26.5 123.584 30.4854 119.6 35.3997 119.6L35.4004 141.6L35.401 163.6C54.7849 163.599 70.5 147.886 70.5 128.5L48.5 128.5ZM35.4004 141.6V119.6H35.0996V141.6V163.6H35.4004V141.6ZM35.0996 141.6L35.1003 119.6C40.0146 119.6 44 123.584 44 128.5L22 128.5L0 128.5C7.62939e-06 147.886 15.7151 163.599 35.099 163.6L35.0996 141.6ZM22 128.5H44C44 133.416 40.0146 137.4 35.1003 137.4L35.0996 115.4L35.099 93.4004C15.7151 93.401 0 109.114 0 128.5H22ZM35.0996 115.4V137.4H35.4004V115.4V93.4004H35.0996V115.4ZM220.9 115.4L220.9 137.4C215.985 137.4 212 133.416 212 128.5H234H256C256 109.114 240.285 93.401 220.901 93.4004L220.9 115.4ZM234 128.5L212 128.5C212 123.584 215.985 119.6 220.9 119.6L220.9 141.6L220.901 163.6C240.285 163.599 256 147.886 256 128.5L234 128.5ZM220.9 141.6V119.6H72.3652V141.6V163.6H220.9V141.6ZM72.3652 141.6L72.3659 119.6C77.2803 119.6 81.2656 123.584 81.2656 128.5L59.2656 128.5L37.2656 128.5C37.2656 147.886 52.9807 163.599 72.3646 163.6L72.3652 141.6ZM59.2656 128.5H81.2656C81.2656 133.416 77.2802 137.4 72.3659 137.4L72.3652 115.4L72.3646 93.4004C52.9807 93.401 37.2656 109.114 37.2656 128.5H59.2656ZM72.3652 115.4V137.4H220.9V115.4V93.4004H72.3652V115.4ZM35.4004 69L35.3997 91C30.4846 90.9999 26.5001 87.0154 26.5 82.1003L48.5 82.0996L70.5 82.099C70.4994 62.7146 54.7854 47.0006 35.401 47L35.4004 69ZM48.5 82.0996H26.5C26.5 77.1856 30.4832 73.2003 35.3997 73.2002L35.4004 95.2002L35.401 117.2C54.787 117.2 70.5 101.483 70.5 82.0996H48.5ZM35.4004 95.2002V73.2002H35.0996V95.2002V117.2H35.4004V95.2002ZM35.0996 95.2002L35.1003 73.2002C40.0168 73.2003 44 77.1856 44 82.0996H22H0C0 101.483 15.713 117.2 35.099 117.2L35.0996 95.2002ZM22 82.0996L44 82.1003C43.9999 87.0154 40.0154 90.9999 35.1003 91L35.0996 69L35.099 47C15.7146 47.0006 0.000566483 62.7146 0 82.099L22 82.0996ZM35.0996 69V91H35.4004V69V47H35.0996V69ZM220.9 69L220.9 91C215.985 90.9999 212 87.0154 212 82.1003L234 82.0996L256 82.099C255.999 62.7146 240.285 47.0006 220.901 47L220.9 69ZM234 82.0996H212C212 77.1856 215.983 73.2003 220.9 73.2002L220.9 95.2002L220.901 117.2C240.287 117.2 256 101.483 256 82.0996H234ZM220.9 95.2002V73.2002H72.3652V95.2002V117.2H220.9V95.2002ZM72.3652 95.2002L72.3659 73.2002C77.2824 73.2003 81.2656 77.1856 81.2656 82.0996H59.2656H37.2656C37.2656 101.483 52.9786 117.2 72.3646 117.2L72.3652 95.2002ZM59.2656 82.0996L81.2656 82.1003C81.2655 87.0154 77.281 90.9999 72.3659 91L72.3652 69L72.3646 47C52.9802 47.0006 37.2662 62.7146 37.2656 82.099L59.2656 82.0996ZM72.3652 69V91H220.9V69V47H72.3652V69Z" fill="white" mask="url(#path-1-outside-1_710_58)"/>
</svg>
