<svg width="256" height="256" viewBox="0 0 256 256" fill="none" xmlns="http://www.w3.org/2000/svg">
<mask id="path-1-outside-1_710_323" maskUnits="userSpaceOnUse" x="0" y="46" width="256" height="163" fill="black">
<rect fill="white" y="46" width="256" height="163"/>
<path d="M44.5 160.8C46.7091 160.8 48.4999 162.591 48.5 164.8V183C48.5 185.209 46.7091 187 44.5 187H26C23.7909 187 22 185.209 22 183V164.8C22.0001 162.591 23.7909 160.8 26 160.8H44.5ZM220.9 160.8C228.135 160.8 234 166.666 234 173.9C234 181.135 228.135 187 220.9 187H72.3652C65.1306 187 59.2658 181.135 59.2656 173.9C59.2656 166.666 65.1305 160.8 72.3652 160.8H220.9ZM44.5 114.4C46.7091 114.4 48.5 116.191 48.5 118.4V136.6C48.5 138.809 46.7091 140.6 44.5 140.6H26C23.7909 140.6 22 138.809 22 136.6V118.4C22 116.191 23.7909 114.4 26 114.4H44.5ZM220.9 114.4C228.135 114.401 234 120.265 234 127.5C234 134.735 228.135 140.599 220.9 140.6H72.3652C65.1305 140.599 59.2656 134.735 59.2656 127.5C59.2656 120.265 65.1305 114.401 72.3652 114.4H220.9ZM44.5 68C46.7091 68 48.5 69.7909 48.5 72V90.2002C48.4999 92.4092 46.7091 94.2002 44.5 94.2002H26C23.7909 94.2002 22.0001 92.4092 22 90.2002V72C22 69.7909 23.7909 68 26 68H44.5ZM220.9 68C228.135 68.0002 234 73.865 234 81.0996C234 88.3344 228.135 94.2 220.9 94.2002H72.3652C65.1305 94.2 59.2656 88.3344 59.2656 81.0996C59.2658 73.865 65.1306 68.0002 72.3652 68H220.9Z"/>
</mask>
<path d="M44.5 160.8V138.8V160.8ZM48.5 164.8H70.5V164.799L48.5 164.8ZM44.5 187V209V187ZM26 187V209V187ZM22 164.8L0 164.799V164.8H22ZM26 160.8L26 138.8L26 160.8ZM220.9 160.8L220.901 138.8H220.9V160.8ZM234 173.9L256 173.901V173.9H234ZM220.9 187V209H220.901L220.9 187ZM72.3652 187L72.3646 209H72.3652V187ZM59.2656 173.9H37.2656V173.901L59.2656 173.9ZM72.3652 160.8V138.8H72.3646L72.3652 160.8ZM44.5 114.4V92.4004V114.4ZM44.5 140.6V162.6V140.6ZM26 140.6V162.6V140.6ZM26 114.4L26 92.4004L26 114.4ZM220.9 114.4L220.901 92.4004H220.9V114.4ZM234 127.5H256V127.5L234 127.5ZM220.9 140.6V162.6H220.901L220.9 140.6ZM72.3652 140.6L72.3646 162.6H72.3652V140.6ZM59.2656 127.5L37.2656 127.5V127.5H59.2656ZM72.3652 114.4V92.4004H72.3646L72.3652 114.4ZM44.5 68V46V68ZM48.5 72H70.5V72L48.5 72ZM48.5 90.2002L70.5 90.2012V90.2002H48.5ZM44.5 94.2002V116.2V94.2002ZM26 94.2002V116.2V94.2002ZM22 90.2002H0V90.2012L22 90.2002ZM26 68L26 46L26 68ZM220.9 68L220.901 46H220.9V68ZM234 81.0996H256V81.099L234 81.0996ZM220.9 94.2002V116.2H220.901L220.9 94.2002ZM72.3652 94.2002L72.3646 116.2H72.3652V94.2002ZM59.2656 81.0996L37.2656 81.099V81.0996H59.2656ZM72.3652 68V46H72.3646L72.3652 68ZM44.5 160.8V182.8C34.5577 182.8 26.5005 174.74 26.5 164.801L48.5 164.8L70.5 164.799C70.4993 150.441 58.8604 138.8 44.5 138.8V160.8ZM48.5 164.8H26.5V183H48.5H70.5V164.8H48.5ZM48.5 183H26.5C26.5 173.059 34.5589 165 44.5 165V187V209C58.8594 209 70.5 197.359 70.5 183H48.5ZM44.5 187V165H26V187V209H44.5V187ZM26 187L26 165C35.9411 165 44 173.059 44 183H22H0C0 197.359 11.6406 209 26 209L26 187ZM22 183H44V164.8H22H0V183H22ZM22 164.8L44 164.801C43.9995 174.74 35.9422 182.8 26 182.8L26 160.8L26 138.8C11.6396 138.8 0.000692368 150.441 0 164.799L22 164.8ZM26 160.8V182.8H44.5V160.8V138.8H26V160.8ZM220.9 160.8L220.9 182.8C215.983 182.8 212 178.814 212 173.9H234H256C256 154.517 240.287 138.8 220.901 138.8L220.9 160.8ZM234 173.9L212 173.9C212 168.985 215.985 165 220.9 165L220.9 187L220.901 209C240.285 208.999 255.999 193.285 256 173.901L234 173.9ZM220.9 187V165H72.3652V187V209H220.9V187ZM72.3652 187L72.3659 165C77.281 165 81.2655 168.985 81.2656 173.9L59.2656 173.9L37.2656 173.901C37.2662 193.285 52.9802 208.999 72.3646 209L72.3652 187ZM59.2656 173.9H81.2656C81.2656 178.814 77.2824 182.8 72.3659 182.8L72.3652 160.8L72.3646 138.8C52.9786 138.8 37.2656 154.517 37.2656 173.9H59.2656ZM72.3652 160.8V182.8H220.9V160.8V138.8H72.3652V160.8ZM44.5 114.4V136.4C34.5589 136.4 26.5 128.342 26.5 118.4H48.5H70.5C70.5 104.041 58.8594 92.4004 44.5 92.4004V114.4ZM48.5 118.4H26.5V136.6H48.5H70.5V118.4H48.5ZM48.5 136.6H26.5C26.5 126.658 34.5589 118.6 44.5 118.6V140.6V162.6C58.8594 162.6 70.5 150.959 70.5 136.6H48.5ZM44.5 140.6V118.6H26V140.6V162.6H44.5V140.6ZM26 140.6L26 118.6C35.9411 118.6 44 126.658 44 136.6H22H0C0 150.959 11.6406 162.6 26 162.6L26 140.6ZM22 136.6H44V118.4H22H0V136.6H22ZM22 118.4H44C44 128.342 35.9411 136.4 26 136.4L26 114.4L26 92.4004C11.6406 92.4004 0 104.041 0 118.4H22ZM26 114.4V136.4H44.5V114.4V92.4004H26V114.4ZM220.9 114.4L220.9 136.4C215.985 136.4 212 132.416 212 127.5L234 127.5L256 127.5C256 108.114 240.285 92.401 220.901 92.4004L220.9 114.4ZM234 127.5H212C212 122.584 215.985 118.6 220.9 118.6L220.9 140.6L220.901 162.6C240.285 162.599 256 146.886 256 127.5H234ZM220.9 140.6V118.6H72.3652V140.6V162.6H220.9V140.6ZM72.3652 140.6L72.3659 118.6C77.2802 118.6 81.2656 122.584 81.2656 127.5H59.2656H37.2656C37.2656 146.886 52.9807 162.599 72.3646 162.6L72.3652 140.6ZM59.2656 127.5L81.2656 127.5C81.2656 132.416 77.2802 136.4 72.3659 136.4L72.3652 114.4L72.3646 92.4004C52.9807 92.401 37.2656 108.114 37.2656 127.5L59.2656 127.5ZM72.3652 114.4V136.4H220.9V114.4V92.4004H72.3652V114.4ZM44.5 68V90C34.5589 90 26.5 81.9411 26.5 72L48.5 72L70.5 72C70.5 57.6406 58.8594 46 44.5 46V68ZM48.5 72H26.5V90.2002H48.5H70.5V72H48.5ZM48.5 90.2002L26.5 90.1992C26.5005 80.2598 34.5578 72.2002 44.5 72.2002V94.2002V116.2C58.8604 116.2 70.4993 104.559 70.5 90.2012L48.5 90.2002ZM44.5 94.2002V72.2002H26V94.2002V116.2H44.5V94.2002ZM26 94.2002L26 72.2002C35.9422 72.2002 43.9995 80.2598 44 90.1991L22 90.2002L0 90.2012C0.000682831 104.559 11.6396 116.2 26 116.2L26 94.2002ZM22 90.2002H44V72H22H0V90.2002H22ZM22 72H44C44 81.9411 35.9411 90 26 90L26 68L26 46C11.6406 46 0 57.6406 0 72H22ZM26 68V90H44.5V68V46H26V68ZM220.9 68L220.9 90C215.985 89.9999 212 86.0154 212 81.1003L234 81.0996L256 81.099C255.999 61.7146 240.285 46.0006 220.901 46L220.9 68ZM234 81.0996H212C212 76.1856 215.983 72.2003 220.9 72.2002L220.9 94.2002L220.901 116.2C240.287 116.2 256 100.483 256 81.0996H234ZM220.9 94.2002V72.2002H72.3652V94.2002V116.2H220.9V94.2002ZM72.3652 94.2002L72.3659 72.2002C77.2824 72.2003 81.2656 76.1856 81.2656 81.0996H59.2656H37.2656C37.2656 100.483 52.9786 116.2 72.3646 116.2L72.3652 94.2002ZM59.2656 81.0996L81.2656 81.1003C81.2655 86.0154 77.281 89.9999 72.3659 90L72.3652 68L72.3646 46C52.9802 46.0006 37.2662 61.7146 37.2656 81.099L59.2656 81.0996ZM72.3652 68V90H220.9V68V46H72.3652V68Z" fill="white" mask="url(#path-1-outside-1_710_323)"/>
</svg>
