<svg width="256" height="256" viewBox="0 0 256 256" fill="none" xmlns="http://www.w3.org/2000/svg">
<path fill-rule="evenodd" clip-rule="evenodd" d="M240 56H61C56.5817 56 53 59.5817 53 64C53 68.4183 56.5817 72 61 72H240C244.418 72 248 68.4183 248 64C248 59.5817 244.418 56 240 56ZM61 48C52.1634 48 45 55.1634 45 64C45 72.8366 52.1634 80 61 80H240C248.837 80 256 72.8366 256 64C256 55.1634 248.837 48 240 48H61ZM8 128C8 132.418 11.5817 136 16 136C20.4183 136 24 132.418 24 128C24 123.582 20.4183 120 16 120C11.5817 120 8 123.582 8 128ZM16 112C7.16344 112 0 119.163 0 128C0 136.837 7.16344 144 16 144C24.8366 144 32 136.837 32 128C32 119.163 24.8366 112 16 112ZM16 200C11.5817 200 8 196.418 8 192C8 187.582 11.5817 184 16 184C20.4183 184 24 187.582 24 192C24 196.418 20.4183 200 16 200ZM0 192C0 183.163 7.16344 176 16 176C24.8366 176 32 183.163 32 192C32 200.837 24.8366 208 16 208C7.16344 208 0 200.837 0 192ZM16 72C11.5817 72 8 68.4183 8 64C8 59.5817 11.5817 56 16 56C20.4183 56 24 59.5817 24 64C24 68.4183 20.4183 72 16 72ZM0 64C0 55.1634 7.16344 48 16 48C24.8366 48 32 55.1634 32 64C32 72.8366 24.8366 80 16 80C7.16344 80 0 72.8366 0 64ZM61 120H240C244.418 120 248 123.582 248 128C248 132.418 244.418 136 240 136H61C56.5817 136 53 132.418 53 128C53 123.582 56.5817 120 61 120ZM45 128C45 119.163 52.1634 112 61 112H240C248.837 112 256 119.163 256 128C256 136.837 248.837 144 240 144H61C52.1634 144 45 136.837 45 128ZM61 184H240C244.418 184 248 187.582 248 192C248 196.418 244.418 200 240 200H61C56.5817 200 53 196.418 53 192C53 187.582 56.5817 184 61 184ZM45 192C45 183.163 52.1634 176 61 176H240C248.837 176 256 183.163 256 192C256 200.837 248.837 208 240 208H61C52.1634 208 45 200.837 45 192Z" fill="white"/>
</svg>
