<svg width="256" height="256" viewBox="0 0 256 256" fill="none" xmlns="http://www.w3.org/2000/svg">
<path d="M197 91C197 100.303 193.403 113.889 187.498 129.398C181.642 144.778 173.69 161.611 165.351 177.235C157.011 192.864 148.334 207.188 141.059 217.56C137.412 222.76 134.184 226.87 131.578 229.638C130.268 231.03 129.209 231.981 128.41 232.555C127.464 233.235 127.413 233 128 233V241C130.047 241 131.844 239.939 133.079 239.051C134.462 238.058 135.918 236.699 137.403 235.122C140.386 231.953 143.865 227.492 147.609 222.154C155.116 211.451 163.959 196.834 172.409 181.002C180.86 165.166 188.968 148.019 194.974 132.245C200.932 116.599 205 101.855 205 91H197ZM128 22C166.108 22 197 52.8924 197 91H205C205 48.4741 170.526 14 128 14V22ZM59 91C59 52.8924 89.8924 22 128 22V14C85.4741 14 51 48.4741 51 91H59ZM128 233C128.587 233 128.536 233.235 127.59 232.555C126.791 231.981 125.732 231.03 124.422 229.638C121.816 226.87 118.588 222.76 114.941 217.56C107.666 207.188 98.9894 192.864 90.6489 177.235C82.3102 161.611 74.358 144.778 68.5019 129.398C62.5968 113.889 59 100.303 59 91H51C51 101.855 55.0682 116.599 61.0256 132.245C67.032 148.019 75.1398 165.166 83.5911 181.002C92.0406 196.834 100.884 211.451 108.391 222.154C112.136 227.492 115.614 231.953 118.597 235.122C120.082 236.699 121.538 238.058 122.921 239.051C124.156 239.939 125.953 241 128 241V233ZM160.5 91C160.5 108.949 145.949 123.5 128 123.5V131.5C150.368 131.5 168.5 113.368 168.5 91H160.5ZM128 58.5C145.949 58.5 160.5 73.0508 160.5 91H168.5C168.5 68.6325 150.368 50.5 128 50.5V58.5ZM95.5 91C95.5 73.0508 110.051 58.5 128 58.5V50.5C105.632 50.5 87.5 68.6325 87.5 91H95.5ZM128 123.5C110.051 123.5 95.5 108.949 95.5 91H87.5C87.5 113.368 105.632 131.5 128 131.5V123.5Z" fill="white"/>
</svg>
