<svg width="256" height="256" viewBox="0 0 256 256" fill="none" xmlns="http://www.w3.org/2000/svg">
<path d="M194 89C194 97.4982 190.606 110.846 184.421 127.089C178.372 142.977 170.116 160.466 161.416 176.768C152.71 193.08 143.7 207.942 136.223 218.601C132.458 223.969 129.266 228.007 126.836 230.587C125.603 231.898 124.822 232.556 124.475 232.805C123.722 233.347 125.147 232 128 232V254C132.393 254 135.767 251.782 137.315 250.67C139.269 249.266 141.141 247.488 142.855 245.667C146.321 241.985 150.203 236.982 154.234 231.234C162.35 219.663 171.82 203.999 180.824 187.126C189.834 170.244 198.518 151.891 204.981 134.917C211.309 118.298 216 101.765 216 89H194ZM128 23C164.451 23 194 52.5492 194 89H216C216 40.3989 176.601 1 128 1V23ZM62 89C62 52.5492 91.5492 23 128 23V1C79.3989 1 40 40.3989 40 89H62ZM128 232C130.853 232 132.278 233.347 131.525 232.805C131.178 232.556 130.397 231.898 129.164 230.587C126.734 228.007 123.542 223.969 119.777 218.601C112.3 207.942 103.29 193.08 94.5845 176.768C85.8844 160.466 77.6282 142.977 71.5788 127.089C65.3943 110.846 62 97.4982 62 89H40C40 101.765 44.6907 118.298 51.0187 134.917C57.4818 151.891 66.1656 170.244 75.1755 187.126C84.1803 203.999 93.6497 219.663 101.766 231.234C105.797 236.982 109.679 241.985 113.145 245.667C114.859 247.488 116.731 249.266 118.685 250.67C120.233 251.782 123.607 254 128 254V232ZM155.5 89.0003C155.5 104.188 143.188 116.5 128 116.5V138.5C155.338 138.5 177.5 116.338 177.5 89.0003H155.5ZM128 61.5003C143.188 61.5003 155.5 73.8125 155.5 89.0003H177.5C177.5 61.6622 155.338 39.5003 128 39.5003V61.5003ZM100.5 89.0003C100.5 73.8125 112.812 61.5003 128 61.5003V39.5003C100.662 39.5003 78.5002 61.6622 78.5002 89.0003H100.5ZM128 116.5C112.812 116.5 100.5 104.188 100.5 89.0003H78.5002C78.5002 116.338 100.662 138.5 128 138.5V116.5Z" fill="white"/>
</svg>
