<svg width="256" height="256" viewBox="0 0 256 256" fill="none" xmlns="http://www.w3.org/2000/svg">
<mask id="path-1-inside-1_51_915" fill="white">
<path fill-rule="evenodd" clip-rule="evenodd" d="M127.5 0C88.5639 0 57 31.5639 57 70.5V100.224C47.3775 101.671 40 109.974 40 120V236C40 247.046 48.9543 256 60 256H196C207.046 256 216 247.046 216 236V120C216 109.629 208.107 101.102 198 100.099V70.5C198 31.5639 166.436 0 127.5 0ZM168 100V70.5C168 48.1325 149.868 30 127.5 30C105.132 30 87 48.1325 87 70.5V100H168Z"/>
</mask>
<path d="M57 100.224L58.19 108.135L65 107.11V100.224H57ZM198 100.099H190V107.344L197.21 108.06L198 100.099ZM168 100V108H176V100H168ZM87 100H79V108H87V100ZM65 70.5C65 35.9822 92.9822 8 127.5 8V-8C84.1456 -8 49 27.1456 49 70.5H65ZM65 100.224V70.5H49V100.224H65ZM48 120C48 113.992 52.4236 109.002 58.19 108.135L55.81 92.3125C42.3314 94.34 32 105.956 32 120H48ZM48 236V120H32V236H48ZM60 248C53.3726 248 48 242.627 48 236H32C32 251.464 44.536 264 60 264V248ZM196 248H60V264H196V248ZM208 236C208 242.627 202.627 248 196 248V264C211.464 264 224 251.464 224 236H208ZM208 120V236H224V120H208ZM197.21 108.06C203.265 108.661 208 113.782 208 120H224C224 105.476 212.948 93.5436 198.79 92.1379L197.21 108.06ZM190 70.5V100.099H206V70.5H190ZM127.5 8C162.018 8 190 35.9822 190 70.5H206C206 27.1456 170.854 -8 127.5 -8V8ZM176 100V70.5H160V100H176ZM176 70.5C176 43.7142 154.286 22 127.5 22V38C145.449 38 160 52.5507 160 70.5H176ZM127.5 22C100.714 22 79 43.7142 79 70.5H95C95 52.5507 109.551 38 127.5 38V22ZM79 70.5V100H95V70.5H79ZM87 108H168V92H87V108Z" fill="white" mask="url(#path-1-inside-1_51_915)"/>
</svg>
