<svg width="256" height="256" viewBox="0 0 256 256" fill="none" xmlns="http://www.w3.org/2000/svg">
<mask id="path-1-inside-1_51_908" fill="white">
<path fill-rule="evenodd" clip-rule="evenodd" d="M127.5 0C88.5639 0 57 31.5639 57 70.5V100.224C47.3775 101.671 40 109.974 40 120V236C40 247.046 48.9543 256 60 256H196C207.046 256 216 247.046 216 236V120C216 109.629 208.107 101.102 198 100.099V70.5C198 31.5639 166.436 0 127.5 0ZM168 100V70.5C168 48.1325 149.868 30 127.5 30C105.132 30 87 48.1325 87 70.5V100H168ZM134 180.179C137.598 177.985 140 174.023 140 169.5C140 162.596 134.404 157 127.5 157C120.596 157 115 162.596 115 169.5C115 174.43 117.854 178.693 122 180.728V193C122 196.314 124.686 199 128 199C131.314 199 134 196.314 134 193V180.179Z"/>
</mask>
<path d="M57 100.224L58.19 108.135L65 107.11V100.224H57ZM198 100.099H190V107.344L197.21 108.06L198 100.099ZM168 100V108H176V100H168ZM87 100H79V108H87V100ZM134 180.179L129.834 173.349L126 175.688V180.179H134ZM122 180.728H130V175.743L125.525 173.546L122 180.728ZM65 70.5C65 35.9822 92.9822 8 127.5 8V-8C84.1456 -8 49 27.1457 49 70.5H65ZM65 100.224V70.5H49V100.224H65ZM55.81 92.3125C42.3314 94.34 32 105.956 32 120H48C48 113.992 52.4236 109.002 58.19 108.135L55.81 92.3125ZM32 120V236H48V120H32ZM32 236C32 251.464 44.536 264 60 264V248C53.3726 248 48 242.627 48 236H32ZM60 264H196V248H60V264ZM196 264C211.464 264 224 251.464 224 236H208C208 242.627 202.627 248 196 248V264ZM224 236V120H208V236H224ZM224 120C224 105.476 212.948 93.5436 198.79 92.1379L197.21 108.06C203.265 108.661 208 113.782 208 120H224ZM190 70.5V100.099H206V70.5H190ZM127.5 8C162.018 8 190 35.9822 190 70.5H206C206 27.1456 170.854 -8 127.5 -8V8ZM176 100V70.5H160V100H176ZM176 70.5C176 43.7142 154.286 22 127.5 22V38C145.449 38 160 52.5507 160 70.5H176ZM127.5 22C100.714 22 79 43.7142 79 70.5H95C95 52.5508 109.551 38 127.5 38V22ZM79 70.5V100H95V70.5H79ZM168 92H87V108H168V92ZM132 169.5C132 171.119 131.15 172.547 129.834 173.349L138.166 187.009C144.046 183.422 148 176.927 148 169.5H132ZM127.5 165C129.985 165 132 167.015 132 169.5H148C148 158.178 138.822 149 127.5 149V165ZM123 169.5C123 167.015 125.015 165 127.5 165V149C116.178 149 107 158.178 107 169.5H123ZM125.525 173.546C124.013 172.804 123 171.263 123 169.5H107C107 177.597 111.695 184.582 118.475 187.91L125.525 173.546ZM130 193V180.728H114V193H130ZM128 191C129.105 191 130 191.895 130 193H114C114 200.732 120.268 207 128 207V191ZM126 193C126 191.895 126.895 191 128 191V207C135.732 207 142 200.732 142 193H126ZM126 180.179V193H142V180.179H126Z" fill="white" mask="url(#path-1-inside-1_51_908)"/>
</svg>
