<svg width="256" height="256" viewBox="0 0 256 256" fill="none" xmlns="http://www.w3.org/2000/svg">
<mask id="path-1-inside-1_54_4" fill="white">
<path fill-rule="evenodd" clip-rule="evenodd" d="M88.5117 59.5H57.8531C63.1349 25.7886 92.3058 0 127.5 0C166.436 0 198 31.5639 198 70.5V100.099C208.107 101.102 216 109.629 216 120V236C216 247.046 207.046 256 196 256H60C48.9543 256 40 247.046 40 236V120C40 108.954 48.9543 100 60 100H168V70.5C168 48.1325 149.868 30 127.5 30C108.945 30 93.3046 42.4778 88.5117 59.5Z"/>
</mask>
<path d="M57.8531 59.5L49.9495 58.2617L48.5021 67.5H57.8531V59.5ZM88.5117 59.5V67.5H94.5702L96.2123 61.6682L88.5117 59.5ZM198 100.099H190V107.344L197.21 108.06L198 100.099ZM168 100V108H176V100H168ZM57.8531 67.5H88.5117V51.5H57.8531V67.5ZM127.5 -8C88.3047 -8 55.8318 20.7181 49.9495 58.2617L65.7567 60.7383C70.4381 30.8591 96.307 8 127.5 8V-8ZM206 70.5C206 27.1456 170.854 -8 127.5 -8V8C162.018 8 190 35.9822 190 70.5H206ZM206 100.099V70.5H190V100.099H206ZM197.21 108.06C203.265 108.661 208 113.782 208 120H224C224 105.476 212.948 93.5436 198.79 92.1379L197.21 108.06ZM208 120V236H224V120H208ZM208 236C208 242.627 202.627 248 196 248V264C211.464 264 224 251.464 224 236H208ZM196 248H60V264H196V248ZM60 248C53.3726 248 48 242.627 48 236H32C32 251.464 44.536 264 60 264V248ZM48 236V120H32V236H48ZM48 120C48 113.373 53.3726 108 60 108V92C44.536 92 32 104.536 32 120H48ZM60 108H168V92H60V108ZM160 70.5V100H176V70.5H160ZM127.5 38C145.449 38 160 52.5507 160 70.5H176C176 43.7142 154.286 22 127.5 22V38ZM96.2123 61.6682C100.06 48.0043 112.622 38 127.5 38V22C105.268 22 86.5496 36.9512 80.8111 57.3318L96.2123 61.6682Z" fill="white" mask="url(#path-1-inside-1_54_4)"/>
</svg>
