<svg width="256" height="256" viewBox="0 0 256 256" fill="none" xmlns="http://www.w3.org/2000/svg">
<path d="M127.5 0C164.779 0.000182454 195 30.2209 195 67.5V100H203L203.517 100.007C214.324 100.281 223 109.127 223 120V236C223 246.873 214.324 255.719 203.517 255.993L203 256H53C42.127 256 33.2808 247.324 33.0068 236.517L33 236V120C33 108.954 41.9543 100 53 100H171V67.5C171 43.4757 151.524 24.0002 127.5 24C108.827 24.0001 92.9025 35.7653 86.7344 52.2871C84.543 58.1569 79.4667 62.9998 73.2012 63C66.136 63 60.4427 56.9675 62.2549 50.1387C69.9157 21.2728 96.2233 0.000158286 127.5 0ZM60 122C57.2386 122 55 124.239 55 127V229C55 231.761 57.2386 234 60 234H196C198.761 234 201 231.761 201 229V127C201 124.239 198.761 122 196 122H60Z" fill="white"/>
</svg>
