<svg width="256" height="256" viewBox="0 0 256 256" fill="none" xmlns="http://www.w3.org/2000/svg">
<mask id="path-1-outside-1_710_352" maskUnits="userSpaceOnUse" x="0" y="0" width="256" height="257" fill="black">
<rect fill="white" width="256" height="257"/>
<path d="M103.451 22C148.435 22 184.902 58.4669 184.902 103.451C184.902 118.69 180.715 132.951 173.432 145.148L228.142 199.858C235.952 207.669 235.952 220.332 228.142 228.143C220.331 235.953 207.668 235.953 199.857 228.143L145.148 173.433C132.951 180.716 118.69 184.903 103.451 184.903L102.398 184.896C57.8994 184.333 22 148.084 22 103.451C22.0003 58.4669 58.4671 22.0001 103.451 22ZM103.451 57C77.7972 57.0001 57.0003 77.7968 57 103.451C57 129.106 77.797 149.903 103.451 149.903C129.105 149.903 149.902 129.106 149.902 103.451C149.902 77.7967 129.105 57 103.451 57Z"/>
</mask>
<path d="M103.451 22V0H103.451L103.451 22ZM184.902 103.451H206.902V103.451L184.902 103.451ZM173.432 145.148L154.543 133.87L145.756 148.585L157.875 160.705L173.432 145.148ZM228.142 199.858L243.698 184.302L243.698 184.302L228.142 199.858ZM228.142 228.143L243.698 243.699L243.698 243.699L228.142 228.143ZM199.857 228.143L184.301 243.699L184.301 243.699L199.857 228.143ZM145.148 173.433L160.705 157.876L148.585 145.757L133.869 154.544L145.148 173.433ZM103.451 184.903L103.308 206.903L103.38 206.903H103.451V184.903ZM102.398 184.896L102.12 206.895L102.188 206.896L102.256 206.896L102.398 184.896ZM22 103.451L0 103.451V103.451H22ZM103.451 57V35H103.451L103.451 57ZM57 103.451L35 103.451V103.451H57ZM103.451 149.903L103.451 171.903H103.451V149.903ZM149.902 103.451H171.902V103.451L149.902 103.451ZM103.451 22V44C136.285 44 162.902 70.6171 162.902 103.451L184.902 103.451L206.902 103.451C206.902 46.3167 160.586 0 103.451 0V22ZM184.902 103.451H162.902C162.902 114.607 159.848 124.985 154.543 133.87L173.432 145.148L192.321 156.427C201.582 140.917 206.902 122.773 206.902 103.451H184.902ZM173.432 145.148L157.875 160.705L212.585 215.415L228.142 199.858L243.698 184.302L188.988 129.592L173.432 145.148ZM228.142 199.858L212.585 215.415C211.804 214.634 211.804 213.367 212.585 212.586L228.142 228.143L243.698 243.699C260.1 227.297 260.1 200.704 243.698 184.302L228.142 199.858ZM228.142 228.143L212.585 212.586C213.366 211.805 214.633 211.805 215.414 212.586L199.857 228.143L184.301 243.699C200.703 260.101 227.296 260.101 243.698 243.699L228.142 228.143ZM199.857 228.143L215.414 212.586L160.705 157.876L145.148 173.433L129.592 188.989L184.301 243.699L199.857 228.143ZM145.148 173.433L133.869 154.544C124.985 159.849 114.607 162.903 103.451 162.903V184.903V206.903C122.773 206.903 140.917 201.583 156.428 192.321L145.148 173.433ZM103.451 184.903L103.594 162.904L102.541 162.897L102.398 184.896L102.256 206.896L103.308 206.903L103.451 184.903ZM102.398 184.896L102.677 162.898C70.2035 162.487 44 136.027 44 103.451H22H0C0 160.141 45.5952 206.179 102.12 206.895L102.398 184.896ZM22 103.451L44 103.451C44.0002 70.6172 70.6174 44 103.451 44L103.451 22L103.451 0C46.3167 8.39233e-05 0.000324249 46.3167 0 103.451L22 103.451ZM103.451 57L103.451 35C65.6469 35.0001 35.0004 65.6465 35 103.451L57 103.451L79 103.451C79.0001 89.9471 89.9475 79 103.451 79L103.451 57ZM57 103.451H35C35 141.256 65.6464 171.903 103.451 171.903L103.451 149.903L103.451 127.903C89.9477 127.903 79 116.956 79 103.451H57ZM103.451 149.903V171.903C141.256 171.903 171.902 141.256 171.902 103.451H149.902H127.902C127.902 116.956 116.955 127.903 103.451 127.903V149.903ZM149.902 103.451L171.902 103.451C171.902 65.6465 141.256 35 103.451 35V57V79C116.955 79 127.902 89.947 127.902 103.451L149.902 103.451Z" fill="white" mask="url(#path-1-outside-1_710_352)"/>
</svg>
