<svg width="256" height="256" viewBox="0 0 256 256" fill="none" xmlns="http://www.w3.org/2000/svg">
  <path d="M118.253 173.961L115.424 171.132L117.702 168.855L120.413 170.594L118.253 173.961ZM97.0395 152.747L100.406 150.587L102.145 153.298L99.8679 155.576L97.0395 152.747ZM156 169C126.177 169 102 144.823 102 115H110C110 140.405 130.595 161 156 161V169ZM210 115C210 144.823 185.823 169 156 169V161C181.405 161 202 140.405 202 115H210ZM156 61C185.823 61 210 85.1766 210 115H202C202 89.5949 181.405 69 156 69V61ZM102 115C102 85.1766 126.177 61 156 61V69C130.595 69 110 89.5949 110 115H102ZM156 189C141.311 189 127.61 184.716 116.093 177.327L120.413 170.594C130.679 177.18 142.887 181 156 181V189ZM230 115C230 155.869 196.869 189 156 189V181C192.451 181 222 151.451 222 115H230ZM156 41C196.869 41 230 74.1309 230 115H222C222 78.5492 192.451 49 156 49V41ZM82 115C82 74.1309 115.131 41 156 41V49C119.549 49 90 78.5492 90 115H82ZM93.6727 154.907C86.2842 143.39 82 129.689 82 115H90C90 128.113 93.8199 140.321 100.406 150.587L93.6727 154.907ZM99.8679 155.576L52.2218 203.222L46.565 197.565L94.211 149.919L99.8679 155.576ZM52.2218 203.222C47.9261 207.518 47.9261 214.482 52.2218 218.778L46.565 224.435C39.145 217.015 39.145 204.985 46.565 197.565L52.2218 203.222ZM52.2218 218.778C56.5176 223.074 63.4824 223.074 67.7782 218.778L73.435 224.435C66.0151 231.855 53.9849 231.855 46.565 224.435L52.2218 218.778ZM67.7782 218.778L115.424 171.132L121.081 176.789L73.435 224.435L67.7782 218.778Z" fill="white"/>
</svg>