<svg width="256" height="256" viewBox="0 0 256 256" fill="none" xmlns="http://www.w3.org/2000/svg">
<path fill-rule="evenodd" clip-rule="evenodd" d="M222 107C222 66.1309 188.869 33 148 33C107.131 33 74 66.1309 74 107C74 120.532 77.6358 133.225 83.9848 144.145L38.565 189.565C31.145 196.985 31.145 209.015 38.565 216.435C45.9849 223.855 58.0151 223.855 65.435 216.435L110.855 171.015C121.775 177.364 134.468 181 148 181C188.869 181 222 147.869 222 107ZM148 41C184.451 41 214 70.5492 214 107C214 143.451 184.451 173 148 173C134.887 173 122.679 169.18 112.413 162.594L109.702 160.855L107.424 163.132L59.7782 210.778C55.4824 215.074 48.5176 215.074 44.2218 210.778C39.9261 206.482 39.9261 199.518 44.2218 195.222L91.8679 147.576L94.1453 145.298L92.4062 142.587C85.8199 132.321 82 120.113 82 107C82 70.5492 111.549 41 148 41ZM202 107C202 77.1766 177.823 53 148 53C118.177 53 94 77.1766 94 107C94 136.823 118.177 161 148 161C177.823 161 202 136.823 202 107ZM148 61C173.405 61 194 81.5949 194 107C194 132.405 173.405 153 148 153C122.595 153 102 132.405 102 107C102 81.5949 122.595 61 148 61Z" fill="white"/>
</svg>
