<svg width="256" height="256" viewBox="0 0 256 256" fill="none" xmlns="http://www.w3.org/2000/svg">
<path fill-rule="evenodd" clip-rule="evenodd" d="M33 107C33 66.1309 66.1309 33 107 33C147.869 33 181 66.1309 181 107C181 120.532 177.364 133.225 171.015 144.145L216.435 189.565C223.855 196.985 223.855 209.015 216.435 216.435C209.015 223.855 196.985 223.855 189.565 216.435L144.145 171.015C133.225 177.364 120.532 181 107 181C66.1309 181 33 147.869 33 107ZM107 41C70.5492 41 41 70.5492 41 107C41 143.451 70.5492 173 107 173C120.113 173 132.321 169.18 142.587 162.594L145.298 160.855L147.576 163.132L195.222 210.778C199.518 215.074 206.482 215.074 210.778 210.778C215.074 206.482 215.074 199.518 210.778 195.222L163.132 147.576L160.855 145.298L162.594 142.587C169.18 132.321 173 120.113 173 107C173 70.5492 143.451 41 107 41ZM53 107C53 77.1766 77.1766 53 107 53C136.823 53 161 77.1766 161 107C161 136.823 136.823 161 107 161C77.1766 161 53 136.823 53 107ZM107 61C81.5949 61 61 81.5949 61 107C61 132.405 81.5949 153 107 153C132.405 153 153 132.405 153 107C153 81.5949 132.405 61 107 61Z" fill="white"/>
</svg>
