<svg width="257" height="256" viewBox="0 0 257 256" fill="none" xmlns="http://www.w3.org/2000/svg">
<mask id="path-1-outside-1_710_356" maskUnits="userSpaceOnUse" x="-0.000549316" y="0" width="256" height="257" fill="black">
<rect fill="white" x="-0.000549316" width="256" height="257"/>
<path d="M152.548 22C107.564 22.0001 71.0973 58.4669 71.0971 103.451C71.0971 118.69 75.2844 132.951 82.5678 145.148L27.8578 199.858C20.0474 207.669 20.0474 220.332 27.8578 228.143C35.6683 235.953 48.3316 235.953 56.142 228.143L110.851 173.434C123.048 180.717 137.309 184.903 152.548 184.903L153.601 184.896C198.1 184.333 233.999 148.084 233.999 103.451C233.999 58.4669 197.532 22.0001 152.548 22ZM152.548 57C178.202 57.0001 198.999 77.7968 198.999 103.451C198.999 129.106 178.202 149.903 152.548 149.903C126.894 149.903 106.097 129.106 106.097 103.451C106.097 77.7968 126.894 57.0001 152.548 57Z"/>
</mask>
<path d="M152.548 22L152.548 0H152.548L152.548 22ZM71.0971 103.451H49.0971V103.451L71.0971 103.451ZM82.5678 145.148L101.457 133.87L110.244 148.585L98.1242 160.705L82.5678 145.148ZM27.8578 199.858L12.3015 184.302L12.3015 184.302L27.8578 199.858ZM27.8578 228.143L12.3016 243.699L12.3015 243.699L27.8578 228.143ZM56.142 228.143L40.5856 212.586L40.5857 212.586L56.142 228.143ZM110.851 173.434L95.2947 157.877L107.414 145.758L122.13 154.545L110.851 173.434ZM152.548 184.903L152.691 206.903L152.62 206.903H152.548L152.548 184.903ZM153.601 184.896L153.88 206.895L153.812 206.896L153.744 206.896L153.601 184.896ZM233.999 103.451L255.999 103.451V103.451H233.999ZM152.548 57L152.548 35H152.548L152.548 57ZM198.999 103.451L220.999 103.451V103.451H198.999ZM152.548 149.903L152.548 171.903H152.548L152.548 149.903ZM106.097 103.451H84.0971V103.451L106.097 103.451ZM152.548 22L152.548 44C119.714 44 93.0973 70.6172 93.0971 103.451L71.0971 103.451L49.0971 103.451C49.0974 46.3167 95.4138 8.39233e-05 152.548 0L152.548 22ZM71.0971 103.451H93.0971C93.0971 114.607 96.1514 124.985 101.457 133.87L82.5678 145.148L63.6789 156.427C54.4175 140.917 49.0971 122.773 49.0971 103.451H71.0971ZM82.5678 145.148L98.1242 160.705L43.4142 215.415L27.8578 199.858L12.3015 184.302L67.0115 129.592L82.5678 145.148ZM27.8578 199.858L43.4142 215.415C44.1953 214.634 44.1953 213.367 43.4142 212.586L27.8578 228.143L12.3015 243.699C-4.10049 227.297 -4.10049 200.704 12.3015 184.302L27.8578 199.858ZM27.8578 228.143L43.4141 212.586C42.6332 211.805 41.3669 211.805 40.5856 212.586L56.142 228.143L71.6984 243.699C55.2963 260.101 28.7035 260.101 12.3016 243.699L27.8578 228.143ZM56.142 228.143L40.5857 212.586L95.2947 157.877L110.851 173.434L126.407 188.99L71.6984 243.699L56.142 228.143ZM110.851 173.434L122.13 154.545C131.014 159.85 141.391 162.903 152.548 162.903L152.548 184.903L152.548 206.903C133.227 206.903 115.083 201.585 99.572 192.322L110.851 173.434ZM152.548 184.903L152.405 162.904L153.458 162.897L153.601 184.896L153.744 206.896L152.691 206.903L152.548 184.903ZM153.601 184.896L153.322 162.898C185.796 162.487 211.999 136.027 211.999 103.451H233.999H255.999C255.999 160.141 210.404 206.179 153.88 206.895L153.601 184.896ZM233.999 103.451L211.999 103.451C211.999 70.6172 185.382 44.0001 152.548 44L152.548 22L152.548 0C209.683 0.000104904 255.999 46.3167 255.999 103.451L233.999 103.451ZM152.548 57L152.548 35C190.353 35.0001 220.999 65.6465 220.999 103.451L198.999 103.451L176.999 103.451C176.999 89.9471 166.052 79 152.548 79L152.548 57ZM198.999 103.451H220.999C220.999 141.256 190.353 171.903 152.548 171.903L152.548 149.903L152.548 127.903C166.052 127.903 176.999 116.956 176.999 103.451H198.999ZM152.548 149.903L152.548 171.903C114.743 171.903 84.0971 141.256 84.0971 103.451H106.097H128.097C128.097 116.956 139.045 127.903 152.548 127.903L152.548 149.903ZM106.097 103.451L84.0971 103.451C84.0975 65.6465 114.744 35.0001 152.548 35L152.548 57L152.548 79C139.045 79 128.097 89.9471 128.097 103.451L106.097 103.451Z" fill="white" mask="url(#path-1-outside-1_710_356)"/>
</svg>
