<svg width="256" height="256" viewBox="0 0 256 256" fill="none" xmlns="http://www.w3.org/2000/svg">
  <path d="M110.253 165.961L107.424 163.132L109.702 160.855L112.413 162.594L110.253 165.961ZM89.0395 144.747L92.4062 142.587L94.1453 145.298L91.8679 147.576L89.0395 144.747ZM148 161C118.177 161 94 136.823 94 107H102C102 132.405 122.595 153 148 153V161ZM202 107C202 136.823 177.823 161 148 161V153C173.405 153 194 132.405 194 107H202ZM148 53C177.823 53 202 77.1766 202 107H194C194 81.5949 173.405 61 148 61V53ZM94 107C94 77.1766 118.177 53 148 53V61C122.595 61 102 81.5949 102 107H94ZM148 181C133.311 181 119.61 176.716 108.093 169.327L112.413 162.594C122.679 169.18 134.887 173 148 173V181ZM222 107C222 147.869 188.869 181 148 181V173C184.451 173 214 143.451 214 107H222ZM148 33C188.869 33 222 66.1309 222 107H214C214 70.5492 184.451 41 148 41V33ZM74 107C74 66.1309 107.131 33 148 33V41C111.549 41 82 70.5492 82 107H74ZM85.6727 146.907C78.2842 135.39 74 121.689 74 107H82C82 120.113 85.8199 132.321 92.4062 142.587L85.6727 146.907ZM91.8679 147.576L44.2218 195.222L38.565 189.565L86.211 141.919L91.8679 147.576ZM44.2218 195.222C39.9261 199.518 39.9261 206.482 44.2218 210.778L38.565 216.435C31.145 209.015 31.145 196.985 38.565 189.565L44.2218 195.222ZM44.2218 210.778C48.5176 215.074 55.4824 215.074 59.7782 210.778L65.435 216.435C58.0151 223.855 45.9849 223.855 38.565 216.435L44.2218 210.778ZM59.7782 210.778L107.424 163.132L113.081 168.789L65.435 216.435L59.7782 210.778Z" fill="white"/>
</svg>
