<svg width="256" height="256" viewBox="0 0 256 256" fill="none" xmlns="http://www.w3.org/2000/svg">
  <path d="M152.747 173.961L155.576 171.132L153.298 168.855L150.587 170.594L152.747 173.961ZM173.961 152.747L170.594 150.587L168.855 153.298L171.132 155.576L173.961 152.747ZM115 169C144.823 169 169 144.823 169 115H161C161 140.405 140.405 161 115 161V169ZM61 115C61 144.823 85.1766 169 115 169V161C89.5949 161 69 140.405 69 115H61ZM115 61C85.1766 61 61 85.1766 61 115H69C69 89.5949 89.5949 69 115 69V61ZM169 115C169 85.1766 144.823 61 115 61V69C140.405 69 161 89.5949 161 115H169ZM115 189C129.689 189 143.39 184.716 154.907 177.327L150.587 170.594C140.321 177.18 128.113 181 115 181V189ZM41 115C41 155.869 74.1309 189 115 189V181C78.5492 181 49 151.451 49 115H41ZM115 41C74.1309 41 41 74.1309 41 115H49C49 78.5492 78.5492 49 115 49V41ZM189 115C189 74.1309 155.869 41 115 41V49C151.451 49 181 78.5492 181 115H189ZM177.327 154.907C184.716 143.39 189 129.689 189 115H181C181 128.113 177.18 140.321 170.594 150.587L177.327 154.907ZM171.132 155.576L218.778 203.222L224.435 197.565L176.789 149.919L171.132 155.576ZM218.778 203.222C223.074 207.518 223.074 214.482 218.778 218.778L224.435 224.435C231.855 217.015 231.855 204.985 224.435 197.565L218.778 203.222ZM218.778 218.778C214.482 223.074 207.518 223.074 203.222 218.778L197.565 224.435C204.985 231.855 217.015 231.855 224.435 224.435L218.778 218.778ZM203.222 218.778L155.576 171.132L149.919 176.789L197.565 224.435L203.222 218.778Z" fill="white"/>
</svg>