<svg width="256" height="256" viewBox="0 0 256 256" fill="none" xmlns="http://www.w3.org/2000/svg">
<path fill-rule="evenodd" clip-rule="evenodd" d="M180.367 29.098L180.878 29.6087L187.869 36.5999L194.452 43.1828L200.109 48.8397L194.452 54.4965L135.974 112.974C134.022 114.927 134.022 118.093 135.974 120.045C137.927 121.998 141.093 121.998 143.045 120.045L201.523 61.5676L207.18 55.9107L212.837 61.5676L220.016 68.747L226.748 75.4793L227.501 76.2322L227.825 76.556L227.851 75.5066C228.087 75.6205 228.334 75.7163 228.589 75.7923C229.042 75.9274 229.522 76 230.019 76C230.708 76 231.365 75.8606 231.962 75.6085C233.759 74.8502 235.019 73.0724 235.019 71V26C235.019 23.2386 232.781 21 230.019 21L185.019 21C183.194 21 181.598 21.9777 180.725 23.438C180.277 24.1872 180.019 25.0636 180.019 26C180.019 26.822 180.218 27.5976 180.569 28.2817C180.656 28.4507 180.752 28.6141 180.857 28.7712L180.06 28.7909L180.367 29.098ZM191.583 29L205.765 43.1828L207.18 44.597L211.422 48.8397L212.837 50.2539L227.019 64.4367V29L191.583 29ZM24.94 181.583C25.6308 181.223 26.4163 181.019 27.2493 181.019C28.005 181.019 28.7215 181.187 29.3638 181.487C29.5045 181.553 29.6417 181.625 29.7749 181.703L29.7909 181.06L30.0185 181.288L30.4507 181.72L37.5998 188.869L44.3073 195.577L49.9642 201.233L55.621 195.577L114.223 136.974C116.176 135.022 119.342 135.022 121.294 136.974C123.247 138.927 123.247 142.093 121.294 144.045L62.6921 202.648L57.0352 208.304L62.6921 213.961L69.747 221.016L76.7321 228.001L77.3076 228.577L77.5559 228.825L76.753 228.845C76.8397 229.024 76.916 229.209 76.9812 229.4C77.155 229.908 77.2493 230.453 77.2493 231.019C77.2493 231.711 77.1089 232.369 76.8552 232.968C76.0955 234.761 74.3193 236.019 72.2493 236.019H27.2493C24.4878 236.019 22.2493 233.781 22.2493 231.019L22.2493 186.019C22.2493 184.091 23.341 182.418 24.94 181.583ZM65.4364 228.019L51.3784 213.961L49.9642 212.547L45.7215 208.304L44.3073 206.89L30.2493 192.832L30.2493 228.019H65.4364Z" fill="white"/>
</svg>
