<svg width="256" height="256" viewBox="0 0 256 256" fill="none" xmlns="http://www.w3.org/2000/svg">
  <mask id="path-2-inside-1_31_329" fill="white">
    <path fill-rule="evenodd" clip-rule="evenodd" d="M230.019 21L185.019 21C182.258 21 180.019 23.2386 180.019 26C180.019 27.025 180.328 27.978 180.857 28.7712L180.06 28.7909L200.109 48.8397L135.974 112.974C134.022 114.927 134.022 118.093 135.974 120.045C137.927 121.998 141.093 121.998 143.045 120.045L207.18 55.9107L227.825 76.556L227.851 75.5066C228.507 75.8228 229.242 76 230.019 76C232.781 76 235.019 73.7614 235.019 71V26C235.019 23.2386 232.781 21 230.019 21ZM22.2493 231.019L22.2493 186.019C22.2493 183.258 24.4878 181.019 27.2493 181.019C28.1706 181.019 29.0337 181.269 29.7749 181.703L29.7909 181.06L49.9642 201.233L114.223 136.974C116.176 135.022 119.342 135.022 121.294 136.974C123.247 138.927 123.247 142.093 121.294 144.045L57.0352 208.304L77.5559 228.825L76.753 228.845C77.071 229.502 77.2493 230.24 77.2493 231.019C77.2493 233.781 75.0107 236.019 72.2493 236.019H27.2493C24.4878 236.019 22.2493 233.781 22.2493 231.019Z"/>
  </mask>
  <path d="M185.019 21V29V21ZM230.019 21V13V21ZM180.857 28.7712L181.055 36.7687L195.569 36.4091L187.512 24.3316L180.857 28.7712ZM180.06 28.7909L179.862 20.7934L161.211 21.2556L174.403 34.4478L180.06 28.7909ZM200.109 48.8397L205.765 54.4965L211.422 48.8397L205.765 43.1828L200.109 48.8397ZM135.974 112.974L141.631 118.631L135.974 112.974ZM143.045 120.045L137.388 114.388L143.045 120.045ZM207.18 55.9107L212.837 50.2539L207.18 44.597L201.523 50.2539L207.18 55.9107ZM227.825 76.556L222.168 82.2128L235.36 95.4051L235.822 76.7542L227.825 76.556ZM227.851 75.5066L231.325 68.3002L220.16 62.9186L219.853 75.3085L227.851 75.5066ZM22.2493 186.019H30.2493H22.2493ZM22.2493 231.019H14.2493H22.2493ZM29.7749 181.703L25.728 188.604L37.4362 195.47L37.7725 181.901L29.7749 181.703ZM29.7909 181.06L35.4477 175.403L22.2555 162.211L21.7933 180.862L29.7909 181.06ZM49.9642 201.233L44.3073 206.89L49.9642 212.547L55.621 206.89L49.9642 201.233ZM114.223 136.974L119.88 142.631L114.223 136.974ZM121.294 144.045L115.638 138.388L121.294 144.045ZM57.0352 208.304L51.3784 202.648L45.7215 208.304L51.3784 213.961L57.0352 208.304ZM77.5559 228.825L77.7541 236.823L96.4049 236.36L83.2128 223.168L77.5559 228.825ZM76.753 228.845L76.5548 220.847L64.147 221.155L69.5512 232.328L76.753 228.845ZM185.019 29L230.019 29V13L185.019 13V29ZM188.019 26C188.019 27.6569 186.676 29 185.019 29V13C177.84 13 172.019 18.8203 172.019 26H188.019ZM187.512 24.3316C187.833 24.8121 188.019 25.3964 188.019 26H172.019C172.019 28.6537 172.823 31.1439 174.202 33.2107L187.512 24.3316ZM180.258 36.7885L181.055 36.7687L180.659 20.7737L179.862 20.7934L180.258 36.7885ZM205.765 43.1828L185.717 23.1341L174.403 34.4478L194.452 54.4965L205.765 43.1828ZM141.631 118.631L205.765 54.4965L194.452 43.1828L130.317 107.317L141.631 118.631ZM141.631 114.388C142.803 115.56 142.803 117.459 141.631 118.631L130.317 107.317C125.24 112.394 125.24 120.625 130.317 125.702L141.631 114.388ZM137.388 114.388C138.56 113.217 140.459 113.217 141.631 114.388L130.317 125.702C135.394 130.779 143.625 130.779 148.702 125.702L137.388 114.388ZM201.523 50.2539L137.388 114.388L148.702 125.702L212.837 61.5676L201.523 50.2539ZM233.482 70.8991L212.837 50.2539L201.523 61.5676L222.168 82.2128L233.482 70.8991ZM219.853 75.3085L219.827 76.3578L235.822 76.7542L235.848 75.7048L219.853 75.3085ZM230.019 68C230.471 68 230.92 68.1053 231.325 68.3002L224.377 82.7131C226.093 83.5403 228.014 84 230.019 84V68ZM227.019 71C227.019 69.3432 228.362 68 230.019 68V84C237.199 84 243.019 78.1797 243.019 71H227.019ZM227.019 26V71H243.019V26H227.019ZM230.019 29C228.362 29 227.019 27.6568 227.019 26H243.019C243.019 18.8203 237.199 13 230.019 13V29ZM14.2493 186.019L14.2493 231.019H30.2493L30.2493 186.019H14.2493ZM27.2493 173.019C20.0696 173.019 14.2493 178.84 14.2493 186.019H30.2493C30.2493 187.676 28.9061 189.019 27.2493 189.019V173.019ZM33.8218 174.802C31.8868 173.668 29.6316 173.019 27.2493 173.019V189.019C26.7096 189.019 26.1806 188.87 25.728 188.604L33.8218 174.802ZM21.7933 180.862L21.7774 181.505L37.7725 181.901L37.7884 181.258L21.7933 180.862ZM55.621 195.577L35.4477 175.403L24.134 186.717L44.3073 206.89L55.621 195.577ZM108.567 131.317L44.3073 195.577L55.621 206.89L119.88 142.631L108.567 131.317ZM126.951 131.317C121.875 126.24 113.643 126.24 108.567 131.317L119.88 142.631C118.709 143.803 116.809 143.803 115.638 142.631L126.951 131.317ZM126.951 149.702C132.028 144.625 132.028 136.394 126.951 131.317L115.638 142.631C114.466 141.459 114.466 139.56 115.638 138.388L126.951 149.702ZM62.6921 213.961L126.951 149.702L115.638 138.388L51.3784 202.648L62.6921 213.961ZM83.2128 223.168L62.6921 202.648L51.3784 213.961L71.899 234.482L83.2128 223.168ZM76.9512 236.843L77.7541 236.823L77.3577 220.828L76.5548 220.847L76.9512 236.843ZM85.2493 231.019C85.2493 229.008 84.7868 227.082 83.9549 225.362L69.5512 232.328C69.3552 231.923 69.2493 231.472 69.2493 231.019H85.2493ZM72.2493 244.019C79.429 244.019 85.2493 238.199 85.2493 231.019H69.2493C69.2493 229.362 70.5924 228.019 72.2493 228.019V244.019ZM27.2493 244.019H72.2493V228.019H27.2493V244.019ZM14.2493 231.019C14.2493 238.199 20.0696 244.019 27.2493 244.019V228.019C28.9061 228.019 30.2493 229.362 30.2493 231.019H14.2493Z" fill="white" mask="url(#path-2-inside-1_31_329)"/>
</svg>
