<svg width="256" height="256" viewBox="0 0 256 256" fill="none" xmlns="http://www.w3.org/2000/svg">
<rect width="256" height="256" stroke="white"/>
<mask id="path-2-inside-1_31_348" fill="white">
<path fill-rule="evenodd" clip-rule="evenodd" d="M154.597 106.51H199.597C202.358 106.51 204.597 104.271 204.597 101.51C204.597 100.485 204.288 99.5316 203.759 98.7384L204.556 98.7187L184.507 78.67L248.642 14.5355C250.594 12.5829 250.594 9.41709 248.642 7.46447C246.689 5.51184 243.523 5.51184 241.571 7.46447L177.436 71.5989L156.791 50.9537L156.765 52.003C156.109 51.6869 155.373 51.5097 154.597 51.5097C151.835 51.5097 149.597 53.7482 149.597 56.5097L149.597 101.51C149.597 104.271 151.835 106.51 154.597 106.51ZM106.51 154.597V199.597C106.51 202.358 104.271 204.597 101.51 204.597C100.588 204.597 99.7252 204.348 98.984 203.913L98.9681 204.556L78.7948 184.383L14.5355 248.642C12.5829 250.595 9.41709 250.595 7.46447 248.642C5.51184 246.689 5.51184 243.524 7.46447 241.571L71.7237 177.312L51.203 156.791L52.0059 156.771C51.6879 156.114 51.5097 155.376 51.5097 154.597C51.5097 151.835 53.7482 149.597 56.5097 149.597L101.51 149.597C104.271 149.597 106.51 151.835 106.51 154.597Z"/>
</mask>
<path d="M203.759 98.7384L203.561 90.7409L189.047 91.1006L197.104 103.178L203.759 98.7384ZM204.556 98.7187L204.754 106.716L223.405 106.254L210.213 93.0618L204.556 98.7187ZM184.507 78.67L178.85 73.0131L173.194 78.67L178.85 84.3269L184.507 78.67ZM248.642 14.5355L242.985 8.87868L248.642 14.5355ZM248.642 7.46447L254.299 1.80761L248.642 7.46447ZM241.571 7.46447L235.914 1.80761L241.571 7.46447ZM177.436 71.5989L171.779 77.2558L177.436 82.9126L183.093 77.2558L177.436 71.5989ZM156.791 50.9537L162.448 45.2968L149.255 32.1045L148.793 50.7555L156.791 50.9537ZM156.765 52.003L153.291 59.2095L164.455 64.5912L164.762 52.2012L156.765 52.003ZM149.597 56.5097L157.597 56.5097V56.5097H149.597ZM149.597 101.51H141.597H149.597ZM98.984 203.913L103.031 197.012L91.3228 190.146L90.9865 203.715L98.984 203.913ZM98.9681 204.556L93.3112 210.213L106.503 223.405L106.966 204.754L98.9681 204.556ZM78.7948 184.383L84.4517 178.726L78.7948 173.069L73.138 178.726L78.7948 184.383ZM14.5355 248.642L8.87868 242.985L14.5355 248.642ZM7.46447 248.642L1.80761 254.299L7.46447 248.642ZM7.46447 241.571L1.80761 235.914L7.46447 241.571ZM71.7237 177.312L77.3806 182.968L83.0375 177.312L77.3806 171.655L71.7237 177.312ZM51.203 156.791L51.0048 148.793L32.354 149.256L45.5462 162.448L51.203 156.791ZM52.0059 156.771L52.2041 164.769L64.6118 164.461L59.2078 153.288L52.0059 156.771ZM56.5097 149.597V157.597H56.5097L56.5097 149.597ZM101.51 149.597V141.597V149.597ZM199.597 98.5097H154.597V114.51H199.597V98.5097ZM196.597 101.51C196.597 99.8528 197.94 98.5097 199.597 98.5097V114.51C206.776 114.51 212.597 108.689 212.597 101.51H196.597ZM197.104 103.178C196.783 102.698 196.597 102.113 196.597 101.51H212.597C212.597 98.856 211.793 96.3657 210.414 94.2988L197.104 103.178ZM204.358 90.7212L203.561 90.7409L203.957 106.736L204.754 106.716L204.358 90.7212ZM178.85 84.3269L198.899 104.376L210.213 93.0618L190.164 73.0131L178.85 84.3269ZM242.985 8.87868L178.85 73.0131L190.164 84.3269L254.299 20.1924L242.985 8.87868ZM242.985 13.1213C241.813 11.9497 241.813 10.0503 242.985 8.87868L254.299 20.1924C259.375 15.1156 259.375 6.88443 254.299 1.80761L242.985 13.1213ZM247.228 13.1213C246.056 14.2929 244.156 14.2929 242.985 13.1213L254.299 1.80761C249.222 -3.2692 240.991 -3.2692 235.914 1.80761L247.228 13.1213ZM183.093 77.2558L247.228 13.1213L235.914 1.80761L171.779 65.9421L183.093 77.2558ZM151.134 56.6105L171.779 77.2558L183.093 65.9421L162.448 45.2968L151.134 56.6105ZM164.762 52.2012L164.788 51.1518L148.793 50.7555L148.767 51.8049L164.762 52.2012ZM154.597 59.5097C154.145 59.5097 153.695 59.4044 153.291 59.2095L160.239 44.7966C158.523 43.9693 156.602 43.5097 154.597 43.5097V59.5097ZM157.597 56.5097C157.597 58.1665 156.253 59.5097 154.597 59.5097V43.5097C147.417 43.5097 141.597 49.33 141.597 56.5097H157.597ZM157.597 101.51L157.597 56.5097L141.597 56.5097L141.597 101.51H157.597ZM154.597 98.5097C156.253 98.5097 157.597 99.8528 157.597 101.51H141.597C141.597 108.689 147.417 114.51 154.597 114.51V98.5097ZM114.51 199.597V154.597H98.5097V199.597H114.51ZM101.51 212.597C108.689 212.597 114.51 206.776 114.51 199.597H98.5097C98.5097 197.94 99.8528 196.597 101.51 196.597V212.597ZM94.9371 210.814C96.8721 211.949 99.1274 212.597 101.51 212.597V196.597C102.049 196.597 102.578 196.747 103.031 197.012L94.9371 210.814ZM106.966 204.754L106.982 204.111L90.9865 203.715L90.9705 204.358L106.966 204.754ZM73.138 190.04L93.3112 210.213L104.625 198.899L84.4517 178.726L73.138 190.04ZM20.1924 254.299L84.4517 190.04L73.138 178.726L8.87868 242.985L20.1924 254.299ZM1.80761 254.299C6.88443 259.376 15.1156 259.376 20.1924 254.299L8.87868 242.985C10.0503 241.814 11.9497 241.814 13.1213 242.985L1.80761 254.299ZM1.80761 235.914C-3.2692 240.991 -3.2692 249.222 1.80761 254.299L13.1213 242.985C14.2929 244.157 14.2929 246.056 13.1213 247.228L1.80761 235.914ZM66.0669 171.655L1.80761 235.914L13.1213 247.228L77.3806 182.968L66.0669 171.655ZM45.5462 162.448L66.0669 182.968L77.3806 171.655L56.8599 151.134L45.5462 162.448ZM51.8077 148.773L51.0048 148.793L51.4012 164.788L52.2041 164.769L51.8077 148.773ZM43.5097 154.597C43.5097 156.608 43.9721 158.534 44.804 160.254L59.2078 153.288C59.4037 153.693 59.5097 154.144 59.5097 154.597H43.5097ZM56.5097 141.597C49.33 141.597 43.5097 147.417 43.5097 154.597H59.5097C59.5097 156.254 58.1665 157.597 56.5097 157.597V141.597ZM101.51 141.597L56.5097 141.597L56.5097 157.597L101.51 157.597V141.597ZM114.51 154.597C114.51 147.417 108.689 141.597 101.51 141.597V157.597C99.8528 157.597 98.5097 156.254 98.5097 154.597H114.51Z" fill="white" mask="url(#path-2-inside-1_31_348)"/>
</svg>
