<svg width="256" height="256" viewBox="0 0 256 256" fill="none" xmlns="http://www.w3.org/2000/svg">
<path fill-rule="evenodd" clip-rule="evenodd" d="M204.249 98.4116L203.738 97.9009L196.747 90.9098L190.164 84.3269L184.507 78.67L190.164 73.0131L248.642 14.5355C250.594 12.5829 250.594 9.41709 248.642 7.46447C246.689 5.51184 243.523 5.51184 241.571 7.46447L183.093 65.9421L177.436 71.5989L171.779 65.9421L164.6 58.7626L157.868 52.0304L157.115 51.2774L156.791 50.9537L156.765 52.003C156.529 51.8892 156.282 51.7934 156.027 51.7174C155.574 51.5822 155.094 51.5097 154.597 51.5097C153.907 51.5097 153.251 51.6491 152.654 51.9012C150.857 52.6594 149.597 54.4373 149.597 56.5097L149.597 101.51C149.597 104.271 151.835 106.51 154.597 106.51H199.597C201.421 106.51 203.018 105.532 203.891 104.072C204.339 103.322 204.597 102.446 204.597 101.51C204.597 100.688 204.398 99.912 204.047 99.2279C203.96 99.059 203.864 98.8956 203.759 98.7384L204.556 98.7187L204.249 98.4116ZM193.033 98.5097L178.85 84.3269L177.436 82.9126L173.194 78.67L171.779 77.2558L157.597 63.073L157.597 98.5097H193.033ZM98.5097 192.784V157.597L63.3226 157.597L77.3806 171.655L78.7948 173.069L83.0375 177.312L84.4517 178.726L98.5097 192.784ZM51.9037 152.648C52.6634 150.855 54.4396 149.597 56.5097 149.597L101.51 149.597C104.271 149.597 106.51 151.835 106.51 154.597V199.597C106.51 201.525 105.418 203.199 103.819 204.033C103.128 204.393 102.343 204.597 101.51 204.597C100.754 204.597 100.037 204.429 99.3951 204.129C99.2544 204.063 99.1172 203.991 98.984 203.913L98.9681 204.556L98.7404 204.328L98.3083 203.896L91.1592 196.747L84.4517 190.04L78.7948 184.383L73.138 190.04L14.5355 248.642C12.5829 250.595 9.41709 250.595 7.46447 248.642C5.51184 246.689 5.51184 243.524 7.46447 241.571L66.0669 182.968L71.7237 177.312L66.0669 171.655L59.012 164.6L52.0268 157.615L51.4513 157.039L51.203 156.791L52.0059 156.771C51.9192 156.592 51.8429 156.407 51.7778 156.216C51.604 155.708 51.5097 155.164 51.5097 154.597C51.5097 153.905 51.65 153.247 51.9037 152.648Z" fill="white"/>
</svg>
