<svg width="256" height="256" viewBox="0 0 256 256" fill="none" xmlns="http://www.w3.org/2000/svg">
  <mask id="path-1-inside-1_10_13" fill="white">
    <path d="M16 144C7.16344 144 0 136.837 0 128V128C0 119.163 7.16344 112 16 112H240C248.837 112 256 119.163 256 128V128C256 136.837 248.837 144 240 144H16Z"/>
  </mask>
  <path d="M16 120H240V104H16V120ZM240 136H16V152H240V136ZM248 128C248 132.418 244.418 136 240 136V152C253.255 152 264 141.255 264 128H248ZM240 120C244.418 120 248 123.582 248 128H264C264 114.745 253.255 104 240 104V120ZM8 128C8 123.582 11.5817 120 16 120V104C2.74517 104 -8 114.745 -8 128H8ZM-8 128C-8 141.255 2.74517 152 16 152V136C11.5817 136 8 132.418 8 128H-8Z" fill="white" mask="url(#path-1-inside-1_10_13)"/>
</svg>