<svg width="256" height="256" viewBox="0 0 256 256" fill="none" xmlns="http://www.w3.org/2000/svg">
<g clip-path="url(#clip0_211_25)">
<path d="M57.0401 56.1908L55.1144 48.9422V48.9422L57.0401 56.1908ZM53.3239 61.0232H45.8239V61.0232L53.3239 61.0232ZM245.209 6.20061L243.283 -1.04795V-1.04795L245.209 6.20061ZM251.493 171.207H243.993V171.219L243.993 171.23L251.493 171.207ZM224.333 142.456L222.453 149.717L231.833 152.145V142.456H224.333ZM218.121 62.6121L216.304 55.3357L218.121 62.6121ZM86.1126 95.587L84.295 88.3105H84.295L86.1126 95.587ZM82.3243 221.005H74.8243L74.8243 221.014L82.3243 221.005ZM82.3244 221.066H89.8244L89.8244 221.057L82.3244 221.066ZM53.324 191.183L51.772 198.52L60.824 200.435L60.824 191.183H53.324ZM55.1144 48.9422C49.637 50.3974 45.8239 55.3557 45.8239 61.0232H60.8239C60.8239 62.1567 60.0613 63.1483 58.9659 63.4394L55.1144 48.9422ZM243.283 -1.04795L55.1144 48.9422L58.9659 63.4394L247.135 13.4492L243.283 -1.04795ZM258.993 11.033C258.993 2.82494 251.216 -3.15545 243.283 -1.04795L247.135 13.4492C245.548 13.8707 243.993 12.6746 243.993 11.033H258.993ZM258.993 171.207V11.033H243.993V171.207H258.993ZM243.993 171.23C243.993 171.249 243.993 171.267 243.993 171.283H258.993C258.993 171.249 258.993 171.216 258.993 171.185L243.993 171.23ZM243.993 171.283C243.993 176.84 241.044 182.412 235.209 186.841C229.368 191.274 220.967 194.233 211.376 194.233V209.233C223.941 209.233 235.598 205.377 244.278 198.789C252.962 192.197 258.993 182.543 258.993 171.283H243.993ZM211.376 194.233C201.785 194.233 193.384 191.274 187.543 186.841C181.708 182.412 178.759 176.84 178.759 171.283H163.759C163.759 182.543 169.79 192.197 178.474 198.789C187.154 205.377 198.811 209.233 211.376 209.233V194.233ZM178.759 171.283C178.759 165.726 181.708 160.154 187.543 155.725C193.384 151.292 201.785 148.333 211.376 148.333V133.333C198.811 133.333 187.154 137.19 178.474 143.777C169.79 150.369 163.759 160.023 163.759 171.283H178.759ZM211.376 148.333C215.282 148.333 219.008 148.825 222.453 149.717L226.213 135.195C221.528 133.983 216.538 133.333 211.376 133.333V148.333ZM216.833 67.4631V142.456H231.833V67.4631H216.833ZM219.939 69.8886C218.361 70.2827 216.833 69.0893 216.833 67.4631H231.833C231.833 59.3319 224.192 53.3652 216.304 55.3357L219.939 69.8886ZM87.9302 102.863L219.939 69.8886L216.304 55.3357L84.295 88.3105L87.9302 102.863ZM89.8243 100.438C89.8243 101.585 89.0433 102.585 87.9302 102.863L84.295 88.3105C78.7293 89.7008 74.8243 94.7011 74.8243 100.438H89.8243ZM89.8243 221.005V100.438H74.8243V221.005H89.8243ZM89.8244 221.057L89.8243 220.995L74.8243 221.014L74.8244 221.076L89.8244 221.057ZM43.1739 259.5C67.1953 259.5 89.8244 243.843 89.8244 221.066H74.8244C74.8244 232.458 62.3969 244.5 43.1739 244.5V259.5ZM-3.47656 221.066C-3.47656 243.843 19.1525 259.5 43.1739 259.5V244.5C23.9509 244.5 11.5234 232.458 11.5234 221.066H-3.47656ZM43.1739 182.633C19.1525 182.633 -3.47656 198.29 -3.47656 221.066H11.5234C11.5234 209.675 23.9509 197.633 43.1739 197.633V182.633ZM54.876 183.845C51.1266 183.052 47.2039 182.633 43.1739 182.633V197.633C46.1648 197.633 49.0471 197.944 51.772 198.52L54.876 183.845ZM45.8239 61.0232L45.824 191.183H60.824L60.8239 61.0232L45.8239 61.0232Z" fill="white"/>
</g>
<defs>
<clipPath id="clip0_211_25">
<rect width="256" height="256" fill="white"/>
</clipPath>
</defs>
</svg>
