<svg width="256" height="256" viewBox="0 0 256 256" fill="none" xmlns="http://www.w3.org/2000/svg">
<path fill-rule="evenodd" clip-rule="evenodd" d="M127.5 32.6207L114.305 54.7501H140.695L127.5 32.6207ZM131.794 24.2022C129.855 20.9498 125.145 20.9498 123.205 24.2022L104.728 55.1893C102.741 58.5222 105.143 62.7501 109.023 62.7501H145.977C149.857 62.7501 152.259 58.5222 150.271 55.1894L131.794 24.2022ZM100.307 154H94.4968H85.9286H74.7036L78.3665 143.39L91.4219 105.571L93.2824 100.182H98.984H109.288H114.992L116.851 105.575L129.888 143.393L130.506 145.184V141.254V138.695L131.991 136.611L141.852 122.774H138.469H130.469V114.774V108.182V100.182H138.469H167.423H175.423V108.182V112.928V115.489L173.936 117.574L164.067 131.408H167.46H175.46V139.408V146V154H167.46H138.506H133.545H130.506H122.325H113.757H107.943L106.148 148.471L105.143 145.376H103.112L102.104 148.475L100.307 154ZM112.037 140.703L113.554 145.376L113.757 146H113.863H122.325L122.11 145.376L119.623 138.163L119.567 138L119.352 137.376L117.201 131.135L114.443 123.135L111.464 114.493L109.509 108.824L109.288 108.182H98.984L98.7624 108.824L96.8071 114.488L93.822 123.135L91.0602 131.135L88.9056 137.376L88.6903 138L88.6264 138.185L86.1439 145.376L85.9286 146H94.3919H94.4968L94.6996 145.376L96.2118 140.728L96.7301 139.135L97.3022 137.376H97.3689H101.961H102.546H105.715H106.2H110.89H110.957L111.528 139.135L112.037 140.703ZM108.93 131.135L108.359 129.376L108.338 129.312L106.333 123.135L104.371 117.093L104.319 116.931L104.284 116.824H103.988L103.953 116.931L103.899 117.097L101.935 123.135L99.9265 129.31L99.9047 129.376L99.3326 131.135H99.5235H100.519H101.961H106.2H107.745H108.739H108.93ZM138.469 108.182V114.774H146.469H147.554H156.279H157.378L156.375 116.182L151.676 122.774L142.758 135.288L140.825 138L138.506 141.254V146H146.506H148.533H159.46H167.46V139.408H159.46H158.36H149.646H148.533L149.537 138L154.24 131.408L163.164 118.898L165.102 116.182L167.423 112.928V108.182H159.423H157.378H146.469H138.469ZM114.189 199.5L127.5 222.19L140.811 199.5H114.189ZM123.187 230.649C125.119 233.942 129.881 233.942 131.813 230.649L150.362 199.03C152.318 195.697 149.914 191.5 146.05 191.5H108.95C105.086 191.5 102.682 195.697 104.638 199.03L123.187 230.649Z" fill="white"/>
</svg>
