<svg width="256" height="256" viewBox="0 0 256 256" fill="none" xmlns="http://www.w3.org/2000/svg">
<rect width="256" height="256" stroke="white"/>
<mask id="path-2-outside-1_30_105" maskUnits="userSpaceOnUse" x="74" y="100" width="102" height="54" fill="black">
<rect fill="white" x="74" y="100" width="102" height="54"/>
<path d="M94.4968 146H85.9286L98.984 108.182H109.288L122.325 146H113.757L104.284 116.824H103.988L94.4968 146ZM93.9613 131.135H114.2V137.376H93.9613V131.135ZM138.506 146V141.254L157.378 114.774H138.469V108.182H167.423V112.928L148.533 139.408H167.46V146H138.506Z"/>
</mask>
<path d="M94.4968 146V154H100.307L102.104 148.475L94.4968 146ZM85.9286 146L78.3665 143.389L74.7036 154H85.9286V146ZM98.984 108.182V100.182H93.2825L91.4219 105.571L98.984 108.182ZM109.288 108.182L116.851 105.575L114.992 100.182H109.288V108.182ZM122.325 146V154H133.545L129.888 143.393L122.325 146ZM113.757 146L106.148 148.471L107.943 154H113.757V146ZM104.284 116.824L111.893 114.353L110.097 108.824H104.284V116.824ZM103.988 116.824V108.824H98.1781L96.3807 114.349L103.988 116.824ZM93.9613 131.135V123.135H85.9613V131.135H93.9613ZM114.2 131.135H122.2V123.135H114.2V131.135ZM114.2 137.376V145.376H122.2V137.376H114.2ZM93.9613 137.376H85.9613V145.376H93.9613V137.376ZM94.4968 138H85.9286V154H94.4968V138ZM93.4907 148.611L106.546 110.792L91.4219 105.571L78.3665 143.389L93.4907 148.611ZM98.984 116.182H109.288V100.182H98.984V116.182ZM101.725 110.789L114.762 148.607L129.888 143.393L116.851 105.575L101.725 110.789ZM122.325 138H113.757V154H122.325V138ZM121.366 143.529L111.893 114.353L96.6748 119.294L106.148 148.471L121.366 143.529ZM104.284 108.824H103.988V124.824H104.284V108.824ZM96.3807 114.349L86.8892 143.525L102.104 148.475L111.596 119.299L96.3807 114.349ZM93.9613 139.135H114.2V123.135H93.9613V139.135ZM106.2 131.135V137.376H122.2V131.135H106.2ZM114.2 129.376H93.9613V145.376H114.2V129.376ZM101.961 137.376V131.135H85.9613V137.376H101.961ZM138.506 146H130.506V154H138.506V146ZM138.506 141.254L131.991 136.611L130.506 138.695V141.254H138.506ZM157.378 114.774L163.893 119.417L172.903 106.774H157.378V114.774ZM138.469 114.774H130.469V122.774H138.469V114.774ZM138.469 108.182V100.182H130.469V108.182H138.469ZM167.423 108.182H175.423V100.182H167.423V108.182ZM167.423 112.928L173.936 117.574L175.423 115.489V112.928H167.423ZM148.533 139.408L142.02 134.762L132.998 147.408H148.533V139.408ZM167.46 139.408H175.46V131.408H167.46V139.408ZM167.46 146V154H175.46V146H167.46ZM146.506 146V141.254H130.506V146H146.506ZM145.02 145.897L163.893 119.417L150.863 110.131L131.991 136.611L145.02 145.897ZM157.378 106.774H138.469V122.774H157.378V106.774ZM146.469 114.774V108.182H130.469V114.774H146.469ZM138.469 116.182H167.423V100.182H138.469V116.182ZM159.423 108.182V112.928H175.423V108.182H159.423ZM160.911 108.282L142.02 134.762L155.045 144.054L173.936 117.574L160.911 108.282ZM148.533 147.408H167.46V131.408H148.533V147.408ZM159.46 139.408V146H175.46V139.408H159.46ZM167.46 138H138.506V154H167.46V138Z" fill="white" mask="url(#path-2-outside-1_30_105)"/>
<path d="M126.641 26.2507C127.029 25.6003 127.971 25.6002 128.359 26.2507L146.836 57.2379C147.233 57.9044 146.753 58.75 145.977 58.75H109.023C108.247 58.75 107.767 57.9044 108.164 57.2379L126.641 26.2507Z" stroke="white" stroke-width="8"/>
<path d="M126.637 228.625C127.024 229.283 127.976 229.283 128.363 228.625L146.912 197.006C147.303 196.339 146.822 195.5 146.05 195.5H108.95C108.178 195.5 107.697 196.339 108.088 197.006L126.637 228.625Z" stroke="white" stroke-width="8"/>
</svg>
