<svg width="256" height="256" viewBox="0 0 256 256" fill="none" xmlns="http://www.w3.org/2000/svg">
<mask id="path-1-inside-1_135_2" fill="white">
<path fill-rule="evenodd" clip-rule="evenodd" d="M67.6583 172.626L67.5 172.499L152.687 65.0574L187.63 92.5926L102.186 200.236L102.143 200.201L68.8002 210.595C66.7796 211.225 64.7597 209.621 64.9155 207.51L67.5 172.5L67.6583 172.626ZM193.067 85.7437L158.107 58.2211L169.016 44.4631C170.731 42.2991 173.877 41.9359 176.041 43.6521L203.073 65.0925C205.237 66.809 205.599 69.9551 203.882 72.1185L193.067 85.7437Z"/>
</mask>
<path d="M67.5 172.499L61.2313 167.529L56.2818 173.772L62.5036 178.747L67.5 172.499ZM67.6583 172.626L62.6708 178.881L72.6547 166.378L67.6583 172.626ZM152.687 65.0574L157.638 58.7738L151.374 53.8372L146.418 60.0872L152.687 65.0574ZM187.63 92.5926L193.896 97.5664L198.888 91.2782L192.582 86.3091L187.63 92.5926ZM102.186 200.236L97.1893 206.484L103.46 211.498L108.452 205.209L102.186 200.236ZM102.143 200.201L107.139 193.953L103.82 191.299L99.7618 192.564L102.143 200.201ZM68.8002 210.595L71.181 218.233H71.181L68.8002 210.595ZM64.9155 207.51L72.8938 208.099L64.9155 207.51ZM67.5 172.5L72.4876 166.245L60.6375 156.796L59.5217 171.911L67.5 172.5ZM158.107 58.2211L151.839 53.2509L146.851 59.5412L153.159 64.5069L158.107 58.2211ZM193.067 85.7437L188.118 92.0295L194.379 96.9584L199.333 90.7175L193.067 85.7437ZM169.016 44.4631L162.747 39.4929L162.747 39.4929L169.016 44.4631ZM176.041 43.6521L171.069 49.92L171.069 49.92L176.041 43.6521ZM203.073 65.0925L208.044 58.8247L208.044 58.8246L203.073 65.0925ZM203.882 72.1185L210.148 77.0923L203.882 72.1185ZM62.5036 178.747L62.6619 178.874L72.6547 166.378L72.4964 166.252L62.5036 178.747ZM146.418 60.0872L61.2313 167.529L73.7687 177.47L158.956 70.0277L146.418 60.0872ZM192.582 86.3091L157.638 58.7738L147.736 71.341L182.679 98.8762L192.582 86.3091ZM108.452 205.209L193.896 97.5664L181.364 87.6189L95.9198 195.262L108.452 205.209ZM97.1461 206.449L97.1893 206.484L107.182 193.988L107.139 193.953L97.1461 206.449ZM99.7618 192.564L66.4193 202.958L71.181 218.233L104.523 207.839L99.7618 192.564ZM66.4193 202.958C69.7869 201.908 73.1535 204.581 72.8938 208.099L56.9372 206.921C56.3659 214.66 63.7723 220.542 71.181 218.233L66.4193 202.958ZM72.8938 208.099L75.4783 173.089L59.5217 171.911L56.9372 206.921L72.8938 208.099ZM62.5125 178.755L62.6708 178.881L72.6459 166.371L72.4876 166.245L62.5125 178.755ZM153.159 64.5069L188.118 92.0295L198.015 79.458L163.056 51.9354L153.159 64.5069ZM162.747 39.4929L151.839 53.2509L164.376 63.1914L175.284 49.4334L162.747 39.4929ZM181.012 37.3842C175.386 32.9221 167.208 33.8663 162.747 39.4929L175.284 49.4334C174.255 50.7318 172.368 50.9497 171.069 49.92L181.012 37.3842ZM208.044 58.8246L181.012 37.3842L171.069 49.92L198.102 71.3604L208.044 58.8246ZM210.148 77.0923C214.613 71.4673 213.671 63.2874 208.044 58.8247L198.102 71.3604C196.803 70.3305 196.586 68.4429 197.616 67.1448L210.148 77.0923ZM199.333 90.7175L210.148 77.0923L197.616 67.1448L186.801 80.77L199.333 90.7175Z" fill="white" mask="url(#path-1-inside-1_135_2)"/>
</svg>
