<svg width="256" height="256" viewBox="0 0 256 256" fill="none" xmlns="http://www.w3.org/2000/svg">
<path d="M46.6613 188.364L40.7844 183.704L36.1464 189.554L41.9744 194.219L46.6613 188.364ZM46.6694 188.37L52.5475 193.028L57.1828 187.179L51.3563 182.515L46.6694 188.37ZM71.9674 156.446L77.8444 161.106L77.8455 161.104L71.9674 156.446ZM85 140L90.2414 134.636L84.2898 128.821L79.1219 135.342L85 140ZM85.0038 140.004L79.7624 145.369L85.7125 151.182L90.8807 144.664L85.0038 140.004ZM158.915 46.7836L163.546 40.8839L157.675 36.2759L153.038 42.124L158.915 46.7836ZM206.422 84.0717L212.296 88.7346L216.985 82.828L211.053 78.172L206.422 84.0717ZM98.7742 219.686L92.8999 215.023L92.8735 215.057L92.8475 215.09L98.7742 219.686ZM90 231L91.8039 238.28L94.3311 237.654L95.9266 235.597L90 231ZM36.5048 244.256L38.3087 251.536H38.3087L36.5048 244.256ZM34.0563 241.955L41.4342 243.303L34.0563 241.955ZM43 193L37.1219 188.342L35.9587 189.81L35.6221 191.653L43 193ZM170.728 31.8846L164.851 27.225L160.165 33.1351L166.102 37.7876L170.728 31.8846ZM218.27 69.1451L213.644 75.0481L219.51 79.646L224.144 73.808L218.27 69.1451ZM185.585 13.1467L179.708 8.48711V8.48712L185.585 13.1467ZM192.61 12.3357L197.27 6.45957V6.45957L192.61 12.3357ZM232.11 43.6646L236.77 37.7885L236.77 37.7885L232.11 43.6646ZM232.919 50.6907L238.793 55.3535V55.3535L232.919 50.6907ZM41.9744 194.219L41.9825 194.225L51.3563 182.515L51.3482 182.508L41.9744 194.219ZM66.0905 151.787L40.7844 183.704L52.5382 193.023L77.8444 161.106L66.0905 151.787ZM77.8455 161.104L90.8781 144.659L79.1219 135.342L66.0893 151.788L77.8455 161.104ZM79.7586 145.365L79.7624 145.369L90.2453 134.64L90.2414 134.636L79.7586 145.365ZM153.038 42.124L79.1269 135.345L90.8807 144.664L164.792 51.4432L153.038 42.124ZM211.053 78.172L163.546 40.8839L154.284 52.6833L201.791 89.9714L211.053 78.172ZM104.648 224.349L212.296 88.7346L200.548 79.4088L92.8999 215.023L104.648 224.349ZM92.8475 215.09L84.0734 226.404L95.9266 235.597L104.701 224.283L92.8475 215.09ZM88.1961 223.721L34.701 236.976L38.3087 251.536L91.8039 238.28L88.1961 223.721ZM34.701 236.976C38.5766 236.016 42.1518 239.375 41.4342 243.303L26.6785 240.607C25.439 247.392 31.6143 253.194 38.3087 251.536L34.701 236.976ZM41.4342 243.303L50.3779 194.348L35.6221 191.653L26.6785 240.607L41.4342 243.303ZM48.8781 197.659L52.5475 193.028L40.7913 183.712L37.1219 188.342L48.8781 197.659ZM166.102 37.7876L213.644 75.0481L222.897 63.242L175.355 25.9815L166.102 37.7876ZM179.708 8.48712L164.851 27.225L176.605 36.5442L191.462 17.8063L179.708 8.48712ZM197.27 6.45957C191.861 2.16909 183.997 3.07697 179.708 8.48711L191.462 17.8063C190.604 18.8883 189.031 19.0699 187.949 18.2118L197.27 6.45957ZM236.77 37.7885L197.27 6.45957L187.949 18.2118L227.449 49.5408L236.77 37.7885ZM238.793 55.3535C243.086 49.9449 242.181 42.0796 236.77 37.7885L227.449 49.5408C226.367 48.6825 226.186 47.1095 227.045 46.0278L238.793 55.3535ZM224.144 73.808L238.793 55.3535L227.045 46.0278L212.396 64.4822L224.144 73.808Z" fill="white"/>
</svg>
