<svg width="256" height="256" viewBox="0 0 256 256" fill="none" xmlns="http://www.w3.org/2000/svg">
<g clip-path="url(#clip0_9_4)">
<mask id="path-1-inside-1_9_4" fill="white">
<path fill-rule="evenodd" clip-rule="evenodd" d="M128 0C119.163 0 112 7.16344 112 16V112H16C7.16344 112 0 119.163 0 128C0 136.837 7.16344 144 16 144H112V240C112 248.837 119.163 256 128 256C136.837 256 144 248.837 144 240V144H240C248.837 144 256 136.837 256 128C256 119.163 248.837 112 240 112H144V16C144 7.16344 136.837 0 128 0Z"/>
</mask>
<path d="M112 112V120H120V112H112ZM112 144H120V136H112V144ZM144 144V136H136V144H144ZM144 112H136V120H144V112ZM120 16C120 11.5817 123.582 8 128 8V-8C114.745 -8 104 2.74517 104 16H120ZM120 112V16H104V112H120ZM16 120H112V104H16V120ZM8 128C8 123.582 11.5817 120 16 120V104C2.74517 104 -8 114.745 -8 128H8ZM16 136C11.5817 136 8 132.418 8 128H-8C-8 141.255 2.74517 152 16 152V136ZM112 136H16V152H112V136ZM120 240V144H104V240H120ZM128 248C123.582 248 120 244.418 120 240H104C104 253.255 114.745 264 128 264V248ZM136 240C136 244.418 132.418 248 128 248V264C141.255 264 152 253.255 152 240H136ZM136 144V240H152V144H136ZM240 136H144V152H240V136ZM248 128C248 132.418 244.418 136 240 136V152C253.255 152 264 141.255 264 128H248ZM240 120C244.418 120 248 123.582 248 128H264C264 114.745 253.255 104 240 104V120ZM144 120H240V104H144V120ZM136 16V112H152V16H136ZM128 8C132.418 8 136 11.5817 136 16H152C152 2.74517 141.255 -8 128 -8V8Z" fill="white" mask="url(#path-1-inside-1_9_4)"/>
</g>
<defs>
<clipPath id="clip0_9_4">
<rect width="256" height="256" fill="white"/>
</clipPath>
</defs>
</svg>
