<svg width="256" height="256" viewBox="0 0 256 256" fill="none" xmlns="http://www.w3.org/2000/svg">
<g clip-path="url(#clip0_301_29)">
<mask id="path-1-inside-1_301_29" fill="white">
<path fill-rule="evenodd" clip-rule="evenodd" d="M128 0C111.431 0 98 13.4315 98 30V98H30C13.4315 98 0 111.431 0 128C0 144.569 13.4315 158 30 158H98V226C98 242.569 111.431 256 128 256C144.569 256 158 242.569 158 226V158H226C242.569 158 256 144.569 256 128C256 111.431 242.569 98 226 98H158V30C158 13.4315 144.569 0 128 0Z"/>
</mask>
<path d="M98 98V113H113V98H98ZM98 158H113V143H98V158ZM158 158V143H143V158H158ZM158 98H143V113H158V98ZM113 30C113 21.7157 119.716 15 128 15V-15C103.147 -15 83 5.14719 83 30H113ZM113 98V30H83V98H113ZM30 113H98V83H30V113ZM15 128C15 119.716 21.7157 113 30 113V83C5.14719 83 -15 103.147 -15 128H15ZM30 143C21.7157 143 15 136.284 15 128H-15C-15 152.853 5.14719 173 30 173V143ZM98 143H30V173H98V143ZM113 226V158H83V226H113ZM128 241C119.716 241 113 234.284 113 226H83C83 250.853 103.147 271 128 271V241ZM143 226C143 234.284 136.284 241 128 241V271C152.853 271 173 250.853 173 226H143ZM143 158V226H173V158H143ZM226 143H158V173H226V143ZM241 128C241 136.284 234.284 143 226 143V173C250.853 173 271 152.853 271 128H241ZM226 113C234.284 113 241 119.716 241 128H271C271 103.147 250.853 83 226 83V113ZM158 113H226V83H158V113ZM143 30V98H173V30H143ZM128 15C136.284 15 143 21.7157 143 30H173C173 5.14719 152.853 -15 128 -15V15Z" fill="white" mask="url(#path-1-inside-1_301_29)"/>
</g>
<defs>
<clipPath id="clip0_301_29">
<rect width="256" height="256" fill="white"/>
</clipPath>
</defs>
</svg>
