<svg width="256" height="256" viewBox="0 0 256 256" fill="none" xmlns="http://www.w3.org/2000/svg">
<mask id="path-1-inside-1_710_10" fill="white">
<path d="M128 0C147.33 0 163 15.67 163 35V93H221C240.33 93 256 108.67 256 128C256 147.33 240.33 163 221 163H163V221C163 240.33 147.33 256 128 256C108.67 256 93 240.33 93 221V163H35C15.67 163 0 147.33 0 128C0 108.67 15.67 93 35 93H93V35C93 15.67 108.67 0 128 0Z"/>
</mask>
<path d="M163 93H141V115H163V93ZM163 163V141H141V163H163ZM93 163H115V141H93V163ZM93 93V115H115V93H93ZM128 0V22C135.18 22 141 27.8203 141 35H163H185C185 3.51977 159.48 -22 128 -22V0ZM163 35H141V93H163H185V35H163ZM163 93V115H221V93V71H163V93ZM221 93V115C228.18 115 234 120.82 234 128H256H278C278 96.5198 252.48 71 221 71V93ZM256 128H234C234 135.18 228.18 141 221 141V163V185C252.48 185 278 159.48 278 128H256ZM221 163V141H163V163V185H221V163ZM163 163H141V221H163H185V163H163ZM163 221H141C141 228.18 135.18 234 128 234V256V278C159.48 278 185 252.48 185 221H163ZM128 256V234C120.82 234 115 228.18 115 221H93H71C71 252.48 96.5198 278 128 278V256ZM93 221H115V163H93H71V221H93ZM93 163V141H35V163V185H93V163ZM35 163V141C27.8203 141 22 135.18 22 128H0H-22C-22 159.48 3.51977 185 35 185V163ZM0 128H22C22 120.82 27.8203 115 35 115V93V71C3.51977 71 -22 96.5198 -22 128H0ZM35 93V115H93V93V71H35V93ZM93 93H115V35H93H71V93H93ZM93 35H115C115 27.8203 120.82 22 128 22V0V-22C96.5198 -22 71 3.51977 71 35H93Z" fill="white" mask="url(#path-1-inside-1_710_10)"/>
</svg>
