<svg width="256" height="256" viewBox="0 0 256 256" fill="none" xmlns="http://www.w3.org/2000/svg">
<path d="M87.6708 209.181L84.8424 212.009H84.8424L87.6708 209.181ZM105.349 209.181L108.177 212.009H108.177L105.349 209.181ZM14.8392 136.349L17.6676 133.521L17.6588 133.512L14.8392 136.349ZM14.8388 136.349L12.0104 139.177L12.0192 139.186L14.8388 136.349ZM14.8388 118.671L12.0104 115.843L12.0104 115.843L14.8388 118.671ZM14.9181 118.592L17.7218 121.445L17.7342 121.433L17.7466 121.421L14.9181 118.592ZM87.6712 45.8394L84.8428 43.011V43.011L87.6712 45.8394ZM105.349 45.8394L102.52 48.6678V48.6678L105.349 45.8394ZM105.349 63.5171L102.52 60.6886V60.6886L105.349 63.5171ZM41.3557 127.51L38.5273 124.682L35.6988 127.51L38.5273 130.339L41.3557 127.51ZM105.349 191.503L102.52 194.331H102.52L105.349 191.503ZM167.349 209.181L164.52 206.352L167.349 209.181ZM240.18 136.349L243.009 139.177L243.024 139.162L243.04 139.146L240.18 136.349ZM240.181 136.349L237.352 133.52L237.336 133.536L237.32 133.552L240.181 136.349ZM240.181 118.671L237.352 121.499L237.352 121.499L240.181 118.671ZM240.101 118.592L237.273 121.421L237.285 121.433L237.298 121.445L240.101 118.592ZM167.348 45.8394L170.177 43.011V43.011L167.348 45.8394ZM149.671 45.8394L152.499 48.6678V48.6678L149.671 45.8394ZM149.671 63.5171L146.842 66.3455L149.671 63.5171ZM213.664 127.51L216.492 130.339L219.321 127.51L216.492 124.682L213.664 127.51ZM149.671 191.503L152.499 194.331L149.671 191.503ZM84.8424 212.009C91.2861 218.453 101.733 218.453 108.177 212.009L102.52 206.352C99.2006 209.672 93.8187 209.672 90.4993 206.352L84.8424 212.009ZM12.0108 139.177L84.8424 212.009L90.4993 206.352L17.6676 133.521L12.0108 139.177ZM12.0192 139.186L12.0196 139.186L17.6588 133.512L17.6584 133.511L12.0192 139.186ZM12.0104 115.843C5.56676 122.286 5.56676 132.733 12.0104 139.177L17.6673 133.52C14.3478 130.201 14.3478 124.819 17.6673 121.499L12.0104 115.843ZM12.1145 115.739C12.0798 115.774 12.0451 115.808 12.0104 115.843L17.6672 121.5C17.6852 121.481 17.7034 121.463 17.7218 121.445L12.1145 115.739ZM84.8428 43.011L12.0897 115.764L17.7466 121.421L90.4996 48.6678L84.8428 43.011ZM108.177 43.011C101.734 36.5673 91.2864 36.5673 84.8428 43.011L90.4996 48.6678C93.8191 45.3484 99.201 45.3484 102.52 48.6678L108.177 43.011ZM108.177 66.3455C114.621 59.9018 114.621 49.4546 108.177 43.011L102.52 48.6678C105.84 51.9873 105.84 57.3692 102.52 60.6886L108.177 66.3455ZM44.1841 130.339L108.177 66.3455L102.52 60.6886L38.5273 124.682L44.1841 130.339ZM108.177 188.675L44.1841 124.682L38.5273 130.339L102.52 194.331L108.177 188.675ZM108.177 212.009C114.621 205.565 114.621 195.118 108.177 188.675L102.52 194.331C105.84 197.651 105.84 203.033 102.52 206.352L108.177 212.009ZM164.52 206.352C161.201 209.672 155.819 209.672 152.499 206.352L146.842 212.009C153.286 218.453 163.733 218.453 170.177 212.009L164.52 206.352ZM237.352 133.521L164.52 206.352L170.177 212.009L243.009 139.177L237.352 133.521ZM237.32 133.552L237.32 133.553L243.04 139.146L243.041 139.145L237.32 133.552ZM237.352 121.499C240.672 124.819 240.672 130.201 237.352 133.52L243.009 139.177C249.453 132.733 249.453 122.286 243.009 115.843L237.352 121.499ZM237.298 121.445C237.316 121.464 237.334 121.482 237.352 121.499L243.009 115.843C242.974 115.808 242.939 115.773 242.905 115.739L237.298 121.445ZM164.52 48.6678L237.273 121.421L242.93 115.764L170.177 43.011L164.52 48.6678ZM152.499 48.6678C155.818 45.3484 161.2 45.3484 164.52 48.6678L170.177 43.011C163.733 36.5673 153.286 36.5673 146.842 43.011L152.499 48.6678ZM152.499 60.6886C149.179 57.3692 149.179 51.9873 152.499 48.6678L146.842 43.011C140.398 49.4546 140.398 59.9018 146.842 66.3455L152.499 60.6886ZM216.492 124.682L152.499 60.6886L146.842 66.3455L210.835 130.339L216.492 124.682ZM152.499 194.331L216.492 130.339L210.835 124.682L146.842 188.675L152.499 194.331ZM152.499 206.352C149.18 203.033 149.18 197.651 152.499 194.331L146.842 188.675C140.399 195.118 140.399 205.565 146.842 212.009L152.499 206.352Z" fill="white"/>
</svg>
