<svg width="256" height="256" viewBox="0 0 256 256" fill="none" xmlns="http://www.w3.org/2000/svg">
<g clip-path="url(#clip0_84_79)">
<mask id="path-1-outside-1_84_79" maskUnits="userSpaceOnUse" x="-0.980621" y="27.3975" width="257" height="201" fill="black">
<rect fill="white" x="-0.980621" y="27.3975" width="257" height="201"/>
<path fill-rule="evenodd" clip-rule="evenodd" d="M147.796 202.272C152.265 206.74 159.51 206.74 163.978 202.272L230.649 135.601C235.117 131.133 235.117 123.888 230.649 119.419C230.626 119.397 230.604 119.375 230.582 119.353L163.978 52.7489C159.509 48.2803 152.264 48.2803 147.796 52.7489C143.327 57.2175 143.327 64.4625 147.796 68.931L206.375 127.51L147.796 186.09C143.327 190.558 143.327 197.803 147.796 202.272ZM107.223 202.272C102.755 206.74 95.5098 206.74 91.0412 202.272L24.3708 135.601C19.9022 131.133 19.9022 123.888 24.3708 119.419C24.3928 119.397 24.4148 119.375 24.4369 119.354L91.0415 52.7489C95.5101 48.2803 102.755 48.2803 107.224 52.7489C111.692 57.2175 111.692 64.4625 107.224 68.931L48.6443 127.51L107.223 186.09C111.692 190.558 111.692 197.803 107.223 202.272Z"/>
</mask>
<path d="M147.796 202.272L163.352 186.715L163.352 186.715L147.796 202.272ZM230.649 135.601L246.205 151.158L246.205 151.158L230.649 135.601ZM230.649 119.419L246.205 103.863L246.202 103.86L230.649 119.419ZM230.582 119.353L215.026 134.909L215.087 134.971L215.15 135.032L230.582 119.353ZM163.978 52.7489L148.421 68.3052L148.421 68.3052L163.978 52.7489ZM147.796 52.7489L163.352 68.3052L163.352 68.3052L147.796 52.7489ZM147.796 68.931L132.239 84.4874V84.4874L147.796 68.931ZM206.375 127.51L221.931 143.067L237.488 127.51L221.931 111.954L206.375 127.51ZM91.0412 202.272L75.4849 217.828L75.4849 217.828L91.0412 202.272ZM107.223 202.272L122.78 217.828L122.78 217.828L107.223 202.272ZM24.3708 135.601L39.9272 120.045H39.9272L24.3708 135.601ZM24.3708 119.419L8.81522 103.862L8.81446 103.863L24.3708 119.419ZM24.4369 119.354L39.8687 135.033L39.9312 134.972L39.9932 134.91L24.4369 119.354ZM91.0415 52.7489L75.4852 37.1926L91.0415 52.7489ZM107.224 52.7489L122.78 37.1925L107.224 52.7489ZM107.224 68.931L122.78 84.4874L107.224 68.931ZM48.6443 127.51L33.0879 111.954L17.5316 127.51L33.0879 143.067L48.6443 127.51ZM107.223 186.09L91.667 201.646L107.223 186.09ZM148.422 186.715C152.545 182.592 159.229 182.592 163.352 186.715L132.24 217.828C145.3 230.888 166.474 230.888 179.534 217.828L148.422 186.715ZM215.092 120.045L148.422 186.715L179.534 217.828L246.205 151.158L215.092 120.045ZM215.092 134.975C210.969 130.852 210.969 124.168 215.092 120.045L246.205 151.158C259.265 138.098 259.265 116.923 246.205 103.863L215.092 134.975ZM215.15 135.032C215.132 135.015 215.114 134.997 215.095 134.978L246.202 103.86C246.139 103.797 246.076 103.735 246.014 103.674L215.15 135.032ZM148.421 68.3052L215.026 134.909L246.138 103.797L179.534 37.1925L148.421 68.3052ZM163.352 68.3052C159.229 72.4282 152.544 72.4282 148.421 68.3052L179.534 37.1926C166.474 24.1325 145.299 24.1324 132.239 37.1926L163.352 68.3052ZM163.352 53.3747C167.475 57.4976 167.475 64.1823 163.352 68.3052L132.239 37.1925C119.179 50.2527 119.179 71.4273 132.239 84.4874L163.352 53.3747ZM221.931 111.954L163.352 53.3747L132.239 84.4874L190.819 143.067L221.931 111.954ZM163.352 201.646L221.931 143.067L190.819 111.954L132.24 170.533L163.352 201.646ZM163.352 186.715C167.475 190.838 167.475 197.523 163.352 201.646L132.24 170.533C119.18 183.593 119.179 204.768 132.24 217.828L163.352 186.715ZM75.4849 217.828C88.545 230.888 109.72 230.888 122.78 217.828L91.667 186.715C95.79 182.592 102.475 182.592 106.598 186.715L75.4849 217.828ZM8.81447 151.158L75.4849 217.828L106.598 186.715L39.9272 120.045L8.81447 151.158ZM8.81446 103.863C-4.24568 116.923 -4.24562 138.098 8.81447 151.158L39.9272 120.045C44.0501 124.168 44.0501 130.852 39.9272 134.975L8.81446 103.863ZM9.005 103.674C8.94143 103.736 8.87817 103.799 8.81522 103.862L39.9264 134.976C39.9073 134.995 39.8881 135.014 39.8687 135.033L9.005 103.674ZM75.4852 37.1926L8.88051 103.797L39.9932 134.91L106.598 68.3052L75.4852 37.1926ZM122.78 37.1925C109.72 24.1324 88.5453 24.1325 75.4852 37.1926L106.598 68.3052C102.475 72.4282 95.7903 72.4282 91.6674 68.3052L122.78 37.1925ZM122.78 84.4874C135.84 71.4273 135.84 50.2527 122.78 37.1925L91.6674 68.3052C87.5444 64.1823 87.5444 57.4976 91.6674 53.3747L122.78 84.4874ZM64.2006 143.067L122.78 84.4874L91.6674 53.3747L33.0879 111.954L64.2006 143.067ZM122.78 170.533L64.2006 111.954L33.0879 143.067L91.667 201.646L122.78 170.533ZM122.78 217.828C135.84 204.768 135.84 183.593 122.78 170.533L91.667 201.646C87.5441 197.523 87.544 190.838 91.667 186.715L122.78 217.828Z" fill="white" mask="url(#path-1-outside-1_84_79)"/>
</g>
<defs>
<clipPath id="clip0_84_79">
<rect width="256" height="256" fill="white"/>
</clipPath>
</defs>
</svg>
