<svg width="256" height="256" viewBox="0 0 256 256" fill="none" xmlns="http://www.w3.org/2000/svg">
<g clip-path="url(#clip0_213_86)">
<path d="M189.032 51.0754L182.634 47.1623L175.654 58.5754H189.032V51.0754ZM248 110.044L244.086 116.442L255.5 123.424V110.044H248ZM248 189.029H255.5V175.65L244.086 182.631L248 189.029ZM189.031 247.999L182.633 244.085L175.652 255.499H189.031V247.999ZM110.046 247.999V255.499H123.425L116.444 244.085L110.046 247.999ZM51.0769 189.031H58.5769V175.652L47.1634 182.633L51.0769 189.031ZM51.0769 110.046L47.1634 116.444L58.5769 123.426V110.046H51.0769ZM110.045 51.0754V58.5754H123.423L116.443 47.1623L110.045 51.0754ZM195.43 54.9885C198.386 50.1563 200.115 44.6539 200.115 38.7692H185.115C185.115 41.6355 184.288 44.4573 182.634 47.1623L195.43 54.9885ZM233 43.5754H189.032V58.5754H233V43.5754ZM255.5 66.0754C255.5 53.649 245.426 43.5754 233 43.5754V58.5754C237.142 58.5754 240.5 61.9333 240.5 66.0754H255.5ZM255.5 110.044V66.0754H240.5V110.044H255.5ZM235.692 113.96C238.559 113.96 241.381 114.787 244.086 116.442L251.914 103.646C247.081 100.69 241.578 98.9598 235.692 98.9598V113.96ZM212.423 149.537C212.423 139.024 215.478 129.82 220.038 123.436C224.609 117.037 230.246 113.96 235.692 113.96V98.9598C224.145 98.9598 214.398 105.525 207.832 114.717C201.256 123.924 197.423 136.258 197.423 149.537H212.423ZM235.692 185.114C230.246 185.114 224.609 182.036 220.038 175.637C215.478 169.253 212.423 160.049 212.423 149.537H197.423C197.423 162.815 201.256 175.149 207.832 184.356C214.398 193.548 224.145 200.114 235.692 200.114V185.114ZM244.086 182.631C241.381 184.286 238.559 185.114 235.692 185.114V200.114C241.578 200.114 247.081 198.383 251.914 195.427L244.086 182.631ZM255.5 232.998V189.029H240.5V232.998H255.5ZM233 255.499C245.426 255.499 255.5 245.425 255.5 232.998H240.5C240.5 237.141 237.142 240.499 233 240.499V255.499ZM189.031 255.499H233V240.499H189.031V255.499ZM185.115 235.691C185.115 238.558 184.288 241.38 182.633 244.085L195.429 251.912C198.385 247.079 200.115 241.576 200.115 235.691H185.115ZM149.538 212.422C160.051 212.422 169.255 215.477 175.639 220.037C182.038 224.607 185.115 230.245 185.115 235.691H200.115C200.115 224.144 193.55 214.397 184.358 207.831C175.151 201.255 162.817 197.422 149.538 197.422V212.422ZM113.962 235.691C113.962 230.245 117.039 224.607 123.438 220.037C129.822 215.477 139.026 212.422 149.538 212.422V197.422C136.26 197.422 123.926 201.255 114.719 207.831C105.527 214.397 98.9616 224.144 98.9616 235.691H113.962ZM116.444 244.085C114.789 241.38 113.962 238.558 113.962 235.691H98.9616C98.9616 241.576 100.692 247.079 103.648 251.912L116.444 244.085ZM66.0769 255.499H110.046V240.499H66.0769V255.499ZM43.5769 232.999C43.5769 245.425 53.6505 255.499 66.0769 255.499V240.499C61.9348 240.499 58.5769 237.141 58.5769 232.999H43.5769ZM43.5769 189.031V232.999H58.5769V189.031H43.5769ZM38.7692 200.116C44.6547 200.116 50.1578 198.385 54.9905 195.429L47.1634 182.633C44.4581 184.288 41.6359 185.116 38.7692 185.116V200.116ZM0.5 149.539C0.5 162.817 4.33297 175.151 10.9091 184.358C17.4749 193.55 27.2218 200.116 38.7692 200.116V185.116C33.3233 185.116 27.6855 182.038 23.1151 175.639C18.555 169.255 15.5 160.051 15.5 149.539H0.5ZM38.7692 98.9618C27.2218 98.9618 17.4749 105.527 10.9091 114.719C4.33297 123.926 0.5 136.26 0.5 149.539H15.5C15.5 139.026 18.555 129.822 23.1151 123.438C27.6855 117.039 33.3233 113.962 38.7692 113.962V98.9618ZM54.9905 103.648C50.1578 100.692 44.6547 98.9618 38.7692 98.9618V113.962C41.6359 113.962 44.4581 114.789 47.1634 116.444L54.9905 103.648ZM43.5769 66.0754V110.046H58.5769V66.0754H43.5769ZM66.0769 43.5754C53.6505 43.5754 43.5769 53.649 43.5769 66.0754H58.5769C58.5769 61.9333 61.9348 58.5754 66.0769 58.5754V43.5754ZM110.045 43.5754H66.0769V58.5754H110.045V43.5754ZM98.9615 38.7692C98.9615 44.6539 100.691 50.1563 103.647 54.9885L116.443 47.1623C114.789 44.4573 113.962 41.6355 113.962 38.7692H98.9615ZM149.538 0.5C136.26 0.5 123.926 4.33296 114.719 10.9091C105.527 17.4749 98.9615 27.2218 98.9615 38.7692H113.962C113.962 33.3233 117.039 27.6855 123.438 23.1151C129.822 18.555 139.026 15.5 149.538 15.5V0.5ZM200.115 38.7692C200.115 27.2218 193.55 17.4749 184.358 10.9091C175.151 4.33296 162.817 0.5 149.538 0.5V15.5C160.051 15.5 169.255 18.555 175.639 23.1151C182.038 27.6855 185.115 33.3233 185.115 38.7692H200.115Z" fill="white"/>
</g>
<defs>
<clipPath id="clip0_213_86">
<rect width="256" height="256" fill="white"/>
</clipPath>
</defs>
</svg>
