<svg width="256" height="256" viewBox="0 0 256 256" fill="none" xmlns="http://www.w3.org/2000/svg">
<mask id="path-1-outside-1_96_43" maskUnits="userSpaceOnUse" x="36.1948" y="36.1948" width="185" height="185" fill="black">
<rect fill="white" x="36.1948" y="36.1948" width="185" height="185"/>
<path fill-rule="evenodd" clip-rule="evenodd" d="M44.1948 125.195C44.1948 80.4598 80.4598 44.1948 125.195 44.1948L206.585 44.1948C209.898 44.1948 212.585 46.8811 212.585 50.1948C212.585 53.5085 209.898 56.1948 206.585 56.1948L125.195 56.1948C87.0872 56.1948 56.1948 87.0872 56.1948 125.195L56.1948 206.585C56.1948 209.898 53.5085 212.585 50.1948 212.585C46.8811 212.585 44.1948 209.898 44.1948 206.585L44.1948 125.195Z"/>
</mask>
<path d="M125.195 44.1948V52.1948V44.1948ZM44.1948 125.195H36.1948H44.1948ZM206.585 44.1948V52.1948V44.1948ZM206.585 56.1948V64.1948V56.1948ZM125.195 56.1948V64.1948V56.1948ZM56.1948 125.195H48.1948H56.1948ZM56.1948 206.585H48.1948H56.1948ZM44.1948 206.585H36.1948H44.1948ZM125.195 36.1948C76.0415 36.1948 36.1948 76.0415 36.1948 125.195H52.1948C52.1948 84.878 84.8781 52.1948 125.195 52.1948V36.1948ZM206.585 36.1948L125.195 36.1948V52.1948L206.585 52.1948V36.1948ZM220.585 50.1948C220.585 42.4628 214.317 36.1948 206.585 36.1948V52.1948C205.48 52.1948 204.585 51.2994 204.585 50.1948H220.585ZM206.585 64.1948C214.317 64.1948 220.585 57.9268 220.585 50.1948H204.585C204.585 49.0903 205.48 48.1948 206.585 48.1948V64.1948ZM125.195 64.1948L206.585 64.1948V48.1948L125.195 48.1948V64.1948ZM64.1948 125.195C64.1948 91.5055 91.5055 64.1948 125.195 64.1948V48.1948C82.6689 48.1948 48.1948 82.6689 48.1948 125.195H64.1948ZM64.1948 206.585L64.1948 125.195H48.1948L48.1948 206.585H64.1948ZM50.1948 220.585C57.9268 220.585 64.1948 214.317 64.1948 206.585H48.1948C48.1948 205.48 49.0903 204.585 50.1948 204.585V220.585ZM36.1948 206.585C36.1948 214.317 42.4628 220.585 50.1948 220.585V204.585C51.2994 204.585 52.1948 205.48 52.1948 206.585H36.1948ZM36.1948 125.195L36.1948 206.585H52.1948L52.1948 125.195H36.1948Z" fill="white" mask="url(#path-1-outside-1_96_43)"/>
</svg>
