<svg width="256" height="256" viewBox="0 0 256 256" fill="none" xmlns="http://www.w3.org/2000/svg">
<mask id="path-1-outside-1_96_43" maskUnits="userSpaceOnUse" x="17.1948" y="17.1948" width="223" height="223" fill="black">
<rect fill="white" x="17.1948" y="17.1948" width="223" height="223"/>
<path fill-rule="evenodd" clip-rule="evenodd" d="M39.1948 125.195C39.1948 77.6983 77.6984 39.1948 125.195 39.1948L206.585 39.1948C212.66 39.1948 217.585 44.1197 217.585 50.1948C217.585 56.27 212.66 61.1948 206.585 61.1948L125.195 61.1948C89.8486 61.1948 61.1948 89.8486 61.1948 125.195L61.1948 206.585C61.1948 212.66 56.27 217.585 50.1948 217.585C44.1197 217.585 39.1948 212.66 39.1948 206.585L39.1948 125.195Z"/>
</mask>
<path d="M125.195 39.1948V61.1948V39.1948ZM39.1948 125.195H17.1948H39.1948ZM206.585 39.1948V61.1948V39.1948ZM206.585 61.1948V83.1948V61.1948ZM125.195 61.1948V83.1948V61.1948ZM61.1948 125.195H39.1948H61.1948ZM61.1948 206.585H39.1948H61.1948ZM39.1948 206.585H17.1948H39.1948ZM125.195 17.1948C65.5481 17.1948 17.1948 65.5481 17.1948 125.195H61.1948C61.1948 89.8486 89.8486 61.1948 125.195 61.1948V17.1948ZM206.585 17.1948L125.195 17.1948V61.1948L206.585 61.1948V17.1948ZM239.585 50.1948C239.585 31.9694 224.81 17.1948 206.585 17.1948V61.1948C200.51 61.1948 195.585 56.27 195.585 50.1948H239.585ZM206.585 83.1948C224.81 83.1948 239.585 68.4202 239.585 50.1948H195.585C195.585 44.1197 200.51 39.1948 206.585 39.1948V83.1948ZM125.195 83.1948L206.585 83.1948V39.1948L125.195 39.1948V83.1948ZM83.1948 125.195C83.1948 101.999 101.999 83.1948 125.195 83.1948V39.1948C77.6984 39.1948 39.1948 77.6983 39.1948 125.195H83.1948ZM83.1948 206.585L83.1948 125.195H39.1948L39.1948 206.585H83.1948ZM50.1948 239.585C68.4202 239.585 83.1948 224.81 83.1948 206.585H39.1948C39.1948 200.51 44.1197 195.585 50.1948 195.585V239.585ZM17.1948 206.585C17.1948 224.81 31.9694 239.585 50.1948 239.585V195.585C56.27 195.585 61.1948 200.51 61.1948 206.585H17.1948ZM17.1948 125.195L17.1948 206.585H61.1948L61.1948 125.195H17.1948Z" fill="white" mask="url(#path-1-outside-1_96_43)"/>
</svg>
