<svg width="256" height="256" viewBox="0 0 256 256" fill="none" xmlns="http://www.w3.org/2000/svg">
<mask id="path-1-outside-1_710_146" maskUnits="userSpaceOnUse" x="0" y="8" width="256" height="241" fill="black">
<rect fill="white" y="8" width="256" height="241"/>
<path d="M218.999 30C227.283 30.0001 233.999 36.7158 233.999 45C233.999 53.2842 227.283 59.9999 218.999 60H94.2197C70.9026 60 52 78.9026 52 102.22C52.0003 125.537 70.9028 144.438 94.2197 144.438H182.263L156.307 118.483C150.449 112.626 150.449 103.127 156.307 97.2695C162.164 91.4118 171.663 91.4121 177.521 97.2695L226.739 146.489C227.663 147.073 228.537 147.767 229.342 148.572C229.358 148.588 229.373 148.604 229.389 148.62C232.23 151.35 233.999 155.187 233.999 159.438C233.999 163.689 232.23 167.526 229.389 170.256C229.373 170.272 229.358 170.289 229.342 170.305C228.536 171.11 227.661 171.805 226.736 172.389L177.521 221.607C171.663 227.465 162.164 227.465 156.307 221.607C150.449 215.75 150.449 206.251 156.307 200.394L182.263 174.438H94.2197C54.3343 174.438 22.0003 142.105 22 102.22C22 62.3341 54.3341 30 94.2197 30H218.999Z"/>
</mask>
<path d="M218.999 30L218.999 8H218.999V30ZM233.999 45L255.999 45.0001V45H233.999ZM218.999 60V82H218.999L218.999 60ZM52 102.22H30V102.22L52 102.22ZM182.263 144.438V166.438H235.377L197.819 128.882L182.263 144.438ZM156.307 118.483L140.75 134.039L140.751 134.04L156.307 118.483ZM156.307 97.2695L140.75 81.7131L140.75 81.7132L156.307 97.2695ZM177.521 97.2695L193.077 81.7133L193.076 81.7126L177.521 97.2695ZM226.739 146.489L211.183 162.045L212.915 163.777L214.985 165.086L226.739 146.489ZM229.342 148.572L244.898 133.016L244.898 133.016L229.342 148.572ZM229.389 148.62L213.764 164.108L213.954 164.299L214.148 164.485L229.389 148.62ZM233.999 159.438L255.999 159.439V159.438L233.999 159.438ZM229.389 170.256L214.147 154.391L213.953 154.577L213.764 154.768L229.389 170.256ZM229.342 170.305L244.898 185.861L244.898 185.861L229.342 170.305ZM226.736 172.389L214.986 153.789L212.913 155.099L211.18 156.833L226.736 172.389ZM177.521 221.607L193.076 237.164L193.077 237.163L177.521 221.607ZM156.307 221.607L140.75 237.164L140.75 237.164L156.307 221.607ZM156.307 200.394L140.751 184.837L140.75 184.838L156.307 200.394ZM182.263 174.438L197.819 189.995L235.377 152.438H182.263V174.438ZM22 102.22H0V102.22L22 102.22ZM218.999 30L218.999 52C215.133 51.9999 211.999 48.8664 211.999 45H233.999H255.999C255.999 24.5652 239.433 8.00033 218.999 8L218.999 30ZM233.999 45L211.999 44.9999C211.999 41.1336 215.133 38.0001 218.999 38L218.999 60L218.999 82C239.433 81.9997 255.999 65.4347 255.999 45.0001L233.999 45ZM218.999 60V38H94.2197V60V82H218.999V60ZM94.2197 60V38C58.7524 38 30 66.7524 30 102.22H52H74C74 91.0529 83.0529 82 94.2197 82V60ZM52 102.22L30 102.22C30.0004 137.687 58.7529 166.438 94.2197 166.438V144.438V122.438C83.0527 122.438 74.0001 113.386 74 102.219L52 102.22ZM94.2197 144.438V166.438H182.263V144.438V122.438H94.2197V144.438ZM182.263 144.438L197.819 128.882L171.863 102.927L156.307 118.483L140.751 134.04L166.707 159.995L182.263 144.438ZM156.307 118.483L171.864 102.928C174.596 105.661 174.597 110.092 171.863 112.826L156.307 97.2695L140.75 81.7132C126.3 96.163 126.302 119.59 140.75 134.039L156.307 118.483ZM156.307 97.2695L171.863 112.826C169.129 115.56 164.698 115.559 161.965 112.826L177.521 97.2695L193.076 81.7126C178.627 67.2648 155.2 67.2635 140.75 81.7131L156.307 97.2695ZM177.521 97.2695L161.964 112.826L211.183 162.045L226.739 146.489L242.296 130.933L193.077 81.7133L177.521 97.2695ZM226.739 146.489L214.985 165.086C214.545 164.808 214.141 164.484 213.785 164.129L229.342 148.572L244.898 133.016C242.932 131.05 240.781 129.338 238.493 127.892L226.739 146.489ZM229.342 148.572L213.785 164.129C213.753 164.096 213.724 164.067 213.7 164.043C213.676 164.018 213.655 163.997 213.639 163.981C213.623 163.964 213.61 163.951 213.601 163.942C213.593 163.934 213.587 163.928 213.587 163.927C213.587 163.927 213.587 163.927 213.587 163.927C213.587 163.928 213.587 163.928 213.588 163.928C213.588 163.928 213.588 163.929 213.589 163.929C213.59 163.93 213.593 163.933 213.596 163.937C213.603 163.943 213.614 163.955 213.629 163.97C213.643 163.985 213.662 164.005 213.685 164.027C213.707 164.05 213.734 164.078 213.764 164.108L229.389 148.62L245.013 133.132C245.065 133.184 245.105 133.226 245.125 133.246C245.136 133.257 245.143 133.265 245.146 133.268C245.147 133.269 245.148 133.27 245.148 133.269C245.147 133.269 245.148 133.269 245.146 133.268C245.146 133.267 245.145 133.266 245.144 133.265C245.137 133.258 245.106 133.226 245.068 133.188C245.029 133.147 244.97 133.088 244.898 133.016L229.342 148.572ZM229.389 148.62L214.148 164.485C212.852 163.241 211.999 161.422 211.999 159.439L233.999 159.438L255.999 159.438C255.999 148.953 251.608 139.459 244.63 132.755L229.389 148.62ZM233.999 159.438L211.999 159.438C211.999 157.453 212.853 155.634 214.147 154.391L229.389 170.256L244.63 186.121C251.606 179.419 255.999 169.926 255.999 159.439L233.999 159.438ZM229.389 170.256L213.764 154.768C213.694 154.838 213.633 154.901 213.582 154.953C213.531 155.006 213.488 155.051 213.455 155.086C213.438 155.104 213.423 155.119 213.411 155.132C213.399 155.145 213.388 155.156 213.38 155.165C213.372 155.173 213.366 155.18 213.362 155.184C213.36 155.186 213.359 155.188 213.358 155.189C213.357 155.189 213.357 155.189 213.357 155.189C213.357 155.19 213.357 155.19 213.357 155.19C213.357 155.189 213.36 155.186 213.365 155.181C213.369 155.177 213.376 155.169 213.385 155.16C213.403 155.141 213.431 155.112 213.465 155.075C213.5 155.039 213.545 154.992 213.598 154.938C213.651 154.884 213.714 154.82 213.785 154.748L229.342 170.305L244.898 185.861C245.047 185.713 245.166 185.589 245.242 185.51C245.281 185.469 245.312 185.436 245.334 185.413C245.354 185.392 245.371 185.374 245.374 185.371C245.382 185.363 245.371 185.373 245.362 185.383C245.35 185.396 245.328 185.42 245.299 185.45C245.242 185.509 245.142 185.614 245.014 185.743L229.389 170.256ZM229.342 170.305L213.785 154.748C214.148 154.385 214.553 154.063 214.986 153.789L226.736 172.389L238.487 190.988C240.769 189.546 242.924 187.836 244.898 185.861L229.342 170.305ZM226.736 172.389L211.18 156.833L161.964 206.052L177.521 221.607L193.077 237.163L242.293 187.945L226.736 172.389ZM177.521 221.607L161.965 206.051C164.698 203.318 169.129 203.317 171.863 206.051L156.307 221.607L140.75 237.164C155.2 251.613 178.628 251.612 193.076 237.164L177.521 221.607ZM156.307 221.607L171.863 206.051C174.597 208.785 174.596 213.216 171.864 215.949L156.307 200.394L140.75 184.838C126.302 199.287 126.3 222.714 140.75 237.164L156.307 221.607ZM156.307 200.394L171.863 215.95L197.819 189.995L182.263 174.438L166.707 158.882L140.751 184.837L156.307 200.394ZM182.263 174.438V152.438H94.2197V174.438V196.438H182.263V174.438ZM94.2197 174.438V152.438C66.4843 152.438 44.0002 129.955 44 102.22L22 102.22L0 102.22C0.000352859 154.256 42.1843 196.438 94.2197 196.438V174.438ZM22 102.22H44C44 74.4844 66.4844 52 94.2197 52V30V8C42.1838 8 0 50.1838 0 102.22H22ZM94.2197 30V52H218.999V30V8H94.2197V30Z" fill="white" mask="url(#path-1-outside-1_710_146)"/>
</svg>
