<svg width="256" height="256" viewBox="0 0 256 256" fill="none" xmlns="http://www.w3.org/2000/svg">
  <mask id="path-2-outside-1_33_473" maskUnits="userSpaceOnUse" x="36.5" y="63.5" width="182" height="171" fill="black">
    <rect fill="white" x="36.5" y="63.5" width="182" height="171"/>
    <path fill-rule="evenodd" clip-rule="evenodd" d="M210.5 78C210.5 74.4101 207.59 71.5 204 71.5H101C69.7959 71.5 44.5 96.7959 44.5 128C44.5 159.204 69.7959 184.5 101 184.5H188.308L158.038 214.77C155.5 217.308 155.5 221.424 158.038 223.962C160.576 226.5 164.692 226.5 167.23 223.962L208.596 182.596C211.135 180.058 211.135 175.942 208.596 173.404L167.23 132.038C164.692 129.5 160.576 129.5 158.038 132.038C155.5 134.576 155.5 138.692 158.038 141.23L188.308 171.5H101C76.9756 171.5 57.5 152.024 57.5 128C57.5 103.976 76.9756 84.5 101 84.5H204C207.59 84.5 210.5 81.5899 210.5 78Z"/>
  </mask>
  <path d="M188.308 184.5L193.964 190.157L207.621 176.5H188.308V184.5ZM158.038 214.77L163.695 220.426L158.038 214.77ZM167.23 223.962L161.574 218.305L167.23 223.962ZM208.596 182.596L202.939 176.939L208.596 182.596ZM208.596 173.404L202.939 179.061L208.596 173.404ZM167.23 132.038L172.887 126.381L167.23 132.038ZM158.038 141.23L163.695 135.574L158.038 141.23ZM188.308 171.5V179.5H207.621L193.964 165.843L188.308 171.5ZM204 79.5C203.172 79.5 202.5 78.8284 202.5 78H218.5C218.5 69.9919 212.008 63.5 204 63.5V79.5ZM101 79.5H204V63.5H101V79.5ZM52.5 128C52.5 101.214 74.2142 79.5 101 79.5V63.5C65.3777 63.5 36.5 92.3776 36.5 128H52.5ZM101 176.5C74.2142 176.5 52.5 154.786 52.5 128H36.5C36.5 163.622 65.3777 192.5 101 192.5V176.5ZM188.308 176.5H101V192.5H188.308V176.5ZM163.695 220.426L193.964 190.157L182.651 178.843L152.381 209.113L163.695 220.426ZM163.695 218.305C164.281 218.891 164.281 219.841 163.695 220.426L152.381 209.113C146.719 214.775 146.719 223.956 152.381 229.619L163.695 218.305ZM161.574 218.305C162.159 217.719 163.109 217.719 163.695 218.305L152.381 229.619C158.044 235.281 167.225 235.281 172.887 229.619L161.574 218.305ZM202.939 176.939L161.574 218.305L172.887 229.619L214.253 188.253L202.939 176.939ZM202.939 179.061C202.354 178.475 202.354 177.525 202.939 176.939L214.253 188.253C219.916 182.59 219.916 173.41 214.253 167.747L202.939 179.061ZM161.574 137.695L202.939 179.061L214.253 167.747L172.887 126.381L161.574 137.695ZM163.695 137.695C163.109 138.281 162.159 138.281 161.574 137.695L172.887 126.381C167.225 120.719 158.044 120.719 152.381 126.381L163.695 137.695ZM163.695 135.574C164.281 136.159 164.281 137.109 163.695 137.695L152.381 126.381C146.719 132.044 146.719 141.225 152.381 146.887L163.695 135.574ZM193.964 165.843L163.695 135.574L152.381 146.887L182.651 177.157L193.964 165.843ZM101 179.5H188.308V163.5H101V179.5ZM49.5 128C49.5 156.443 72.5573 179.5 101 179.5V163.5C81.3939 163.5 65.5 147.606 65.5 128H49.5ZM101 76.5C72.5573 76.5 49.5 99.5573 49.5 128H65.5C65.5 108.394 81.3939 92.5 101 92.5V76.5ZM204 76.5H101V92.5H204V76.5ZM202.5 78C202.5 77.1716 203.172 76.5 204 76.5V92.5C212.008 92.5 218.5 86.0081 218.5 78H202.5Z" fill="white" mask="url(#path-2-outside-1_33_473)"/>
</svg>
