<svg width="256" height="256" viewBox="0 0 256 256" fill="none" xmlns="http://www.w3.org/2000/svg">
<path fill-rule="evenodd" clip-rule="evenodd" d="M180.308 163.5L158.038 141.23C155.5 138.692 155.5 134.576 158.038 132.038C160.576 129.5 164.692 129.5 167.23 132.038L208.596 173.404C211.135 175.942 211.135 180.058 208.596 182.596L167.23 223.962C164.692 226.5 160.576 226.5 158.038 223.962C155.5 221.424 155.5 217.308 158.038 214.77L180.308 192.5L188.308 184.5H176.994H101C69.7959 184.5 44.5 159.204 44.5 128C44.5 96.7959 69.7959 71.5 101 71.5H204C207.59 71.5 210.5 74.4101 210.5 78C210.5 81.5899 207.59 84.5 204 84.5H101C76.9756 84.5 57.5 103.976 57.5 128C57.5 152.024 76.9756 171.5 101 171.5H176.994H188.308L180.308 163.5ZM168.994 163.5L152.381 146.887C146.719 141.225 146.719 132.044 152.381 126.381C158.044 120.719 167.225 120.719 172.887 126.381L214.253 167.747C219.916 173.41 219.916 182.59 214.253 188.253L172.887 229.619C167.225 235.281 158.044 235.281 152.381 229.619C146.719 223.956 146.719 214.775 152.381 209.113L168.994 192.5H101C65.3777 192.5 36.5 163.622 36.5 128C36.5 92.3776 65.3777 63.5 101 63.5H204C212.008 63.5 218.5 69.9919 218.5 78C218.5 86.0081 212.008 92.5 204 92.5H101C81.3939 92.5 65.5 108.394 65.5 128C65.5 147.606 81.3939 163.5 101 163.5H168.994Z" fill="white"/>
</svg>
