<svg width="256" height="256" viewBox="0 0 256 256" fill="none" xmlns="http://www.w3.org/2000/svg">
<g clip-path="url(#clip0_338_9)">
<path d="M245.651 55.0477L242.721 48.1439L245.651 55.0477ZM228.114 62.4918L231.044 69.3956L225.425 71.7807L221.949 66.7631L228.114 62.4918ZM248.349 57.4624L241.164 55.3111L248.349 57.4624ZM231.829 112.635L224.644 110.483L224.644 110.483L231.829 112.635ZM228.995 113.838L225.551 120.5L225.551 120.5L228.995 113.838ZM177.832 87.3949L174.388 94.0576L177.832 87.3949ZM177.969 83.7772L180.899 90.6809L177.969 83.7772ZM194.896 76.5918L200.647 71.7777L207.145 79.5402L197.827 83.4956L194.896 76.5918ZM137.806 48.0781L138.199 40.5884L138.199 40.5884L137.806 48.0781ZM53.8451 123.677L46.3554 123.285L53.8451 123.677ZM129.444 207.638L129.837 200.148L129.837 200.148L129.444 207.638ZM192.388 181.984L186.874 176.9L192.388 181.984ZM217.73 176.632L214.029 183.155L217.73 176.632ZM223.109 199.929L217.272 195.219L217.272 195.219L223.109 199.929ZM127.612 242.59L128.005 235.1L127.612 242.59ZM18.8931 121.845L26.3828 122.238L18.8931 121.845ZM139.638 13.1261L140.031 5.63633L139.638 13.1261ZM248.582 61.9515L231.044 69.3956L225.183 55.588L242.721 48.1439L248.582 61.9515ZM241.164 55.3111C239.828 59.7724 244.295 63.7711 248.582 61.9515L242.721 48.1439C250.125 45.001 257.841 51.9078 255.533 59.6137L241.164 55.3111ZM224.644 110.483L241.164 55.3111L255.533 59.6137L239.014 114.786L224.644 110.483ZM232.438 107.175C229.378 105.593 225.632 107.183 224.644 110.483L239.014 114.786C237.307 120.487 230.838 123.233 225.551 120.5L232.438 107.175ZM181.276 80.7322L232.438 107.175L225.551 120.5L174.388 94.0576L181.276 80.7322ZM180.899 90.6809C185.186 88.8613 185.413 82.8703 181.276 80.7322L174.388 94.0576C167.243 90.3644 167.634 80.0164 175.038 76.8734L180.899 90.6809ZM197.827 83.4956L180.899 90.6809L175.038 76.8734L191.966 69.688L197.827 83.4956ZM189.145 81.406C176.68 66.5153 158.32 56.6635 137.414 55.5678L138.199 40.5884C163.437 41.911 185.62 53.8262 200.647 71.7777L189.145 81.406ZM137.414 55.5678C97.4889 53.4754 63.4272 84.1447 61.3349 124.07L46.3554 123.285C48.8814 75.0868 90.001 38.0624 138.199 40.5884L137.414 55.5678ZM61.3349 124.07C59.2425 163.994 89.9118 198.056 129.837 200.148L129.052 215.128C80.8538 212.602 43.8295 171.482 46.3554 123.285L61.3349 124.07ZM129.837 200.148C152.224 201.322 172.764 192.202 186.874 176.9L197.901 187.069C180.895 205.511 156.084 216.545 129.052 215.128L129.837 200.148ZM186.874 176.9C195.066 168.016 209.256 163.202 221.431 170.108L214.029 183.155C209.505 180.589 202.724 181.839 197.901 187.069L186.874 176.9ZM221.431 170.108C233.205 176.788 238.472 192.83 228.946 204.638L217.272 195.219C219.984 191.858 219.207 186.092 214.029 183.155L221.431 170.108ZM228.946 204.638C205.148 234.137 167.992 252.217 127.22 250.08L128.005 235.1C163.77 236.975 196.364 221.135 217.272 195.219L228.946 204.638ZM127.22 250.08C59.7186 246.542 7.8658 188.954 11.4034 121.453L26.3828 122.238C23.2788 181.466 68.7765 231.996 128.005 235.1L127.22 250.08ZM11.4034 121.453C14.941 53.9515 72.5293 2.09874 140.031 5.63633L139.246 20.6158C80.0172 17.5118 29.4869 63.0095 26.3828 122.238L11.4034 121.453ZM140.031 5.63633C179.403 7.69975 213.452 28.1603 234.279 58.2205L221.949 66.7631C203.653 40.3554 173.784 22.4259 139.246 20.6158L140.031 5.63633Z" fill="white"/>
</g>
<defs>
<clipPath id="clip0_338_9">
<rect width="256" height="256" fill="white"/>
</clipPath>
</defs>
</svg>
