<svg width="256" height="256" viewBox="0 0 256 256" fill="none" xmlns="http://www.w3.org/2000/svg">
  <mask id="path-2-outside-1_33_475" maskUnits="userSpaceOnUse" x="54.4094" y="55.3941" width="146.083" height="144.228" fill="black">
    <rect fill="white" x="54.4094" y="55.3941" width="146.083" height="144.228"/>
    <path fill-rule="evenodd" clip-rule="evenodd" d="M175.211 160.225L182.084 163.726C183.561 164.479 185.26 163.211 184.958 161.581L180.291 136.351C180.052 135.057 178.65 134.343 177.463 134.91L154.308 145.964C152.812 146.678 152.785 148.798 154.262 149.551L166.222 155.645C157.921 167.35 144.541 175.283 129.099 176.092C102.292 177.497 79.4229 156.905 78.0181 130.099C76.6132 103.293 97.205 80.4231 124.011 79.0182C141.231 78.1158 156.826 86.2903 166.151 99.3582C167.754 101.605 170.785 102.465 173.186 101.103C175.589 99.739 176.448 96.6694 174.883 94.3922C163.714 78.1497 144.615 67.9247 123.488 69.0319C91.1664 70.7258 66.3379 98.3007 68.0318 130.622C69.7257 162.944 97.3005 187.772 129.622 186.078C148.764 185.075 165.279 174.994 175.211 160.225Z"/>
  </mask>
  <path d="M182.084 163.726L185.716 156.598L182.084 163.726ZM175.211 160.225L178.843 153.097L172.528 149.879L168.573 155.76L175.211 160.225ZM184.958 161.581L177.092 163.036L177.092 163.036L184.958 161.581ZM180.291 136.351L188.158 134.896L188.158 134.896L180.291 136.351ZM177.463 134.91L174.016 127.69L174.016 127.69L177.463 134.91ZM154.308 145.964L150.862 138.744L150.862 138.744L154.308 145.964ZM154.262 149.551L157.894 142.422L157.894 142.422L154.262 149.551ZM166.222 155.645L172.748 160.272L178.103 152.72L169.854 148.516L166.222 155.645ZM129.099 176.092L129.517 184.081L129.099 176.092ZM78.0181 130.099L86.0071 129.68L78.0181 130.099ZM124.011 79.0182L123.593 71.0292L123.593 71.0292L124.011 79.0182ZM166.151 99.3582L159.639 104.005L159.639 104.005L166.151 99.3582ZM173.186 101.103L169.238 94.1442L169.238 94.1442L173.186 101.103ZM174.883 94.3922L168.291 98.9249L168.291 98.9249L174.883 94.3922ZM123.488 69.0319L123.069 61.0429L123.488 69.0319ZM68.0318 130.622L60.0427 131.041L68.0318 130.622ZM129.622 186.078L129.203 178.089L129.622 186.078ZM185.716 156.598L178.843 153.097L171.579 167.353L178.452 170.855L185.716 156.598ZM177.092 163.036C176.187 158.145 181.284 154.34 185.716 156.598L178.452 170.855C185.838 174.618 194.333 168.277 192.825 160.125L177.092 163.036ZM172.425 137.806L177.092 163.036L192.825 160.125L188.158 134.896L172.425 137.806ZM180.909 142.129C177.348 143.83 173.142 141.687 172.425 137.806L188.158 134.896C186.961 128.427 179.953 124.856 174.016 127.69L180.909 142.129ZM157.755 153.183L180.909 142.129L174.016 127.69L150.862 138.744L157.755 153.183ZM157.894 142.422C162.325 144.681 162.243 151.04 157.755 153.183L150.862 138.744C143.381 142.315 143.244 152.915 150.63 156.679L157.894 142.422ZM169.854 148.516L157.894 142.422L150.63 156.679L162.59 162.773L169.854 148.516ZM159.696 151.017C152.75 160.813 141.577 167.427 128.68 168.103L129.517 184.081C147.506 183.138 163.093 173.887 172.748 160.272L159.696 151.017ZM128.68 168.103C106.286 169.276 87.1807 152.074 86.0071 129.68L70.029 130.517C71.6651 161.736 98.2989 185.717 129.517 184.081L128.68 168.103ZM86.0071 129.68C84.8335 107.286 102.036 88.1809 124.43 87.0073L123.593 71.0292C92.3741 72.6653 68.393 99.2991 70.029 130.517L86.0071 129.68ZM124.43 87.0073C138.807 86.2538 151.835 93.068 159.639 104.005L172.663 94.7115C161.818 79.5126 143.655 69.9778 123.593 71.0292L124.43 87.0073ZM159.639 104.005C163.319 109.163 170.732 111.692 177.133 108.061L169.238 94.1442C169.988 93.7187 170.787 93.6872 171.372 93.8387C171.925 93.9817 172.367 94.2965 172.663 94.7115L159.639 104.005ZM177.133 108.061C183.207 104.615 185.957 96.3788 181.475 89.8595L168.291 98.9249C166.939 96.9599 167.971 94.8629 169.238 94.1442L177.133 108.061ZM181.475 89.8595C168.795 71.4199 147.09 59.7841 123.069 61.0429L123.907 77.021C142.14 76.0654 158.633 84.8795 168.291 98.9249L181.475 89.8595ZM123.069 61.0429C86.3355 62.968 58.1176 94.3072 60.0427 131.041L76.0208 130.203C74.5582 102.294 95.9973 78.4836 123.907 77.021L123.069 61.0429ZM60.0427 131.041C61.9679 167.774 93.307 195.992 130.041 194.067L129.203 178.089C101.294 179.552 77.4835 158.113 76.0208 130.203L60.0427 131.041ZM130.041 194.067C151.801 192.927 170.574 181.456 181.85 164.689L168.573 155.76C159.984 168.532 145.727 177.223 129.203 178.089L130.041 194.067Z" fill="white" mask="url(#path-2-outside-1_33_475)"/>
</svg>
