<svg width="256" height="256" viewBox="0 0 256 256" fill="none" xmlns="http://www.w3.org/2000/svg">
<g clip-path="url(#clip0_427_20)">
<path d="M175.177 82.4847L181.986 76.5985L190.525 86.4761L178.255 90.9419L175.177 82.4847ZM156.313 98.0982L160.661 90.2183L160.661 90.2183L156.313 98.0982ZM205.76 125.384L210.108 117.504L210.108 117.504L205.76 125.384ZM212.782 122.828L221.178 126.069L221.178 126.069L212.782 122.828ZM233.122 70.1417L224.726 66.9003L224.726 66.9003L233.122 70.1417ZM206.759 70.9899L209.837 79.4472L203.28 81.8338L199.335 76.0778L206.759 70.9899ZM174.822 40.5102L170.086 48.1634L170.086 48.1634L174.822 40.5102ZM106.449 25.1957L107.467 34.1379L107.467 34.1379L106.449 25.1957ZM12.4194 118.408L3.48646 117.311L3.48646 117.311L12.4194 118.408ZM27.1366 186.912L19.4424 191.581L19.4424 191.581L27.1366 186.912ZM151.153 233.279L153.896 241.851L151.153 233.279ZM197.272 203.81L203.897 209.902L203.897 209.902L197.272 203.81ZM193.906 182.265L188.873 189.726L188.873 189.726L193.906 182.265ZM170.288 185.534L176.508 192.039L176.508 192.039L170.288 185.534ZM141.373 202.727L144.117 211.299L144.117 211.299L141.373 202.727ZM92.3396 201.55L95.4915 193.12L95.4915 193.12L92.3396 201.55ZM54.5617 170.27L62.2559 165.601L62.2559 165.601L54.5617 170.27ZM44.2596 122.317L53.1925 123.414L53.1925 123.414L44.2596 122.317ZM65.8567 78.2807L59.5206 71.889L59.5206 71.889L65.8567 78.2807ZM110.08 57.0687L111.099 66.0109L111.099 66.0109L110.08 57.0687ZM157.942 67.7888L162.677 60.1356L162.677 60.1357L157.942 67.7888ZM178.255 90.9419L160.091 97.5534L153.934 80.6389L172.099 74.0274L178.255 90.9419ZM160.091 97.5534C163.351 96.3668 163.698 91.8943 160.661 90.2183L151.964 105.978C141.472 100.188 142.672 84.7378 153.934 80.6389L160.091 97.5534ZM160.661 90.2183L210.108 117.504L201.412 133.263L151.964 105.978L160.661 90.2183ZM210.108 117.504C207.964 116.32 205.268 117.302 204.386 119.586L221.178 126.069C218.131 133.962 208.819 137.351 201.412 133.263L210.108 117.504ZM204.386 119.586L224.726 66.9003L241.518 73.3831L221.178 126.069L204.386 119.586ZM224.726 66.9003C223.477 70.1366 226.618 73.3393 229.878 72.1528L223.722 55.2383C234.984 51.1393 245.835 62.2031 241.518 73.3831L224.726 66.9003ZM229.878 72.1528L209.837 79.4472L203.681 62.5327L223.722 55.2383L229.878 72.1528ZM199.335 76.0778C191.683 64.9125 181.748 55.3797 170.086 48.1634L179.558 32.857C193.363 41.3998 205.124 52.6852 214.183 65.902L199.335 76.0778ZM170.086 48.1634C151.381 36.5882 129.323 31.6477 107.467 34.1379L105.43 16.2536C131.303 13.3057 157.415 19.1543 179.558 32.857L170.086 48.1634ZM107.467 34.1379C85.6117 36.628 65.2307 46.4039 49.6086 61.8902L36.9363 49.1068C55.4298 30.7741 79.5569 19.2014 105.43 16.2536L107.467 34.1379ZM49.6086 61.8902C33.9865 77.3765 24.0331 97.6713 21.3523 119.504L3.48646 117.311C6.66002 91.4646 18.4429 67.4396 36.9363 49.1068L49.6086 61.8902ZM21.3523 119.504C18.6715 141.338 23.4193 163.437 34.8309 182.243L19.4424 191.581C5.93345 169.319 0.312905 143.157 3.48646 117.311L21.3523 119.504ZM34.8309 182.243C46.2424 201.049 63.6529 215.465 84.257 223.168L77.9533 240.028C53.5621 230.909 32.9514 213.843 19.4424 191.581L34.8309 182.243ZM84.257 223.168C104.861 230.872 127.459 231.414 148.409 224.708L153.896 241.851C129.096 249.79 102.345 249.148 77.9533 240.028L84.257 223.168ZM148.409 224.708C164.67 219.503 179.203 210.166 190.646 197.719L203.897 209.902C190.351 224.636 173.147 235.689 153.896 241.851L148.409 224.708ZM190.646 197.719C191.616 196.664 191.961 195.383 191.719 193.96C191.462 192.453 190.522 190.838 188.873 189.726L198.938 174.803C210.042 182.292 214.249 198.643 203.897 209.902L190.646 197.719ZM188.873 189.726C185.941 187.749 180.715 188.016 176.508 192.039L164.068 179.03C172.666 170.807 187.182 166.873 198.938 174.803L188.873 189.726ZM176.508 192.039C167.368 200.78 156.31 207.396 144.117 211.299L138.629 194.156C148.205 191.091 156.889 185.895 164.068 179.03L176.508 192.039ZM144.117 211.299C126.179 217.041 106.83 216.576 89.1878 209.98L95.4915 193.12C109.346 198.3 124.542 198.665 138.629 194.156L144.117 211.299ZM89.1878 209.98C71.5459 203.384 56.6384 191.041 46.8675 174.939L62.2559 165.601C69.9293 178.247 81.6367 187.94 95.4915 193.12L89.1878 209.98ZM46.8675 174.939C37.0966 158.837 33.0313 139.914 35.3267 121.22L53.1925 123.414C51.3898 138.095 54.5824 152.956 62.2559 165.601L46.8675 174.939ZM35.3267 121.22C37.6221 102.526 46.1445 85.1489 59.5206 71.889L72.1929 84.6723C61.6881 95.0858 54.9952 108.733 53.1925 123.414L35.3267 121.22ZM59.5206 71.889C72.8968 58.6291 90.3476 50.2587 109.061 48.1266L111.099 66.0109C96.4024 67.6853 82.6976 74.2589 72.1929 84.6723L59.5206 71.889ZM109.061 48.1266C127.775 45.9944 146.661 50.2246 162.677 60.1356L153.206 75.442C140.628 67.6585 125.795 64.3364 111.099 66.0109L109.061 48.1266ZM162.677 60.1357C169.962 64.6434 176.46 70.207 181.986 76.5985L168.369 88.3708C164.029 83.3512 158.926 78.9822 153.206 75.442L162.677 60.1357Z" fill="white"/>
</g>
<defs>
<clipPath id="clip0_427_20">
<rect width="256" height="256" fill="white"/>
</clipPath>
</defs>
</svg>
