<svg width="256" height="256" viewBox="0 0 256 256" fill="none" xmlns="http://www.w3.org/2000/svg">
<mask id="path-1-outside-1_110_47" maskUnits="userSpaceOnUse" x="35.4615" y="37.4272" width="184.437" height="181.654" fill="black">
<rect fill="white" x="35.4615" y="37.4272" width="184.437" height="181.654"/>
<path fill-rule="evenodd" clip-rule="evenodd" d="M190.128 85.2098L200.197 80.079C201.675 79.3263 203.374 80.5945 203.072 82.2248L196.612 117.147C196.373 118.44 194.971 119.155 193.784 118.588L161.734 103.288C160.238 102.573 160.21 100.453 161.688 99.7006L178.441 91.1642C167.601 75.874 150.125 65.5112 129.954 64.4541C94.9458 62.6193 65.0785 89.5121 63.2437 124.521C61.409 159.529 88.3017 189.397 123.31 191.231C145.81 192.41 166.186 181.724 178.361 164.643C180.444 161.721 184.384 160.604 187.505 162.375C190.63 164.147 191.747 168.138 189.712 171.099C175.14 192.307 150.209 205.659 122.63 204.213C80.4515 202.003 48.0511 166.019 50.2616 123.84C52.472 81.6618 88.4563 49.2614 130.635 51.4719C155.615 52.781 177.166 65.9368 190.128 85.2098Z"/>
</mask>
<path d="M200.197 80.079L196.565 72.9509L196.565 72.9509L200.197 80.079ZM190.128 85.2098L193.759 92.3379L187.444 95.5555L183.489 89.6744L190.128 85.2098ZM203.072 82.2248L195.205 80.7696L195.205 80.7696L203.072 82.2248ZM196.612 117.147L204.478 118.602L204.478 118.602L196.612 117.147ZM193.784 118.588L190.337 125.807L190.337 125.807L193.784 118.588ZM161.734 103.288L165.181 96.068L165.181 96.068L161.734 103.288ZM161.688 99.7006L158.056 92.5726L158.056 92.5726L161.688 99.7006ZM178.441 91.1642L184.968 86.5374L190.322 94.0895L182.073 98.2923L178.441 91.1642ZM129.954 64.4541L129.536 72.4431L129.536 72.4431L129.954 64.4541ZM63.2437 124.521L55.2547 124.102L63.2437 124.521ZM123.31 191.231L123.729 183.242L123.31 191.231ZM178.361 164.643L171.847 160L171.847 160L178.361 164.643ZM187.505 162.375L183.558 169.333L183.558 169.333L187.505 162.375ZM189.712 171.099L183.119 166.568L183.119 166.568L189.712 171.099ZM122.63 204.213L122.211 212.202L122.63 204.213ZM50.2616 123.84L58.2506 124.259L50.2616 123.84ZM130.635 51.4719L130.216 59.4609L130.635 51.4719ZM203.829 87.207L193.759 92.3379L186.496 78.0818L196.565 72.9509L203.829 87.207ZM195.205 80.7696C194.301 85.6604 199.398 89.4651 203.829 87.207L196.565 72.9509C203.951 69.1875 212.446 75.5286 210.938 83.68L195.205 80.7696ZM188.745 115.692L195.205 80.7696L210.938 83.68L204.478 118.602L188.745 115.692ZM197.23 111.368C193.668 109.668 189.463 111.811 188.745 115.692L204.478 118.602C203.282 125.07 196.273 128.641 190.337 125.807L197.23 111.368ZM165.181 96.068L197.23 111.368L190.337 125.807L158.287 110.507L165.181 96.068ZM165.32 106.829C169.751 104.571 169.669 98.2108 165.181 96.068L158.287 110.507C150.807 106.936 150.67 96.336 158.056 92.5726L165.32 106.829ZM182.073 98.2923L165.32 106.829L158.056 92.5726L174.809 84.0362L182.073 98.2923ZM171.915 95.791C162.429 82.4105 147.16 73.3668 129.536 72.4431L130.373 56.465C153.09 57.6556 172.774 69.3375 184.968 86.5374L171.915 95.791ZM129.536 72.4431C98.9394 70.8396 72.8363 94.343 71.2328 124.939L55.2547 124.102C57.3207 84.6811 90.9523 54.3991 130.373 56.465L129.536 72.4431ZM71.2328 124.939C69.6293 155.536 93.1326 181.639 123.729 183.242L122.892 199.22C83.4708 197.154 53.1888 163.523 55.2547 124.102L71.2328 124.939ZM123.729 183.242C143.384 184.272 161.192 174.947 171.847 160L184.876 169.287C171.18 188.5 148.235 200.548 122.892 199.22L123.729 183.242ZM171.847 160C176.008 154.162 184.332 151.377 191.453 155.416L183.558 169.333C183.948 169.554 184.339 169.548 184.548 169.494C184.724 169.449 184.819 169.366 184.876 169.287L171.847 160ZM191.453 155.416C198.249 159.272 201.254 168.428 196.306 175.629L183.119 166.568C182.739 167.122 182.669 167.8 182.804 168.314C182.928 168.79 183.22 169.142 183.558 169.333L191.453 155.416ZM196.306 175.629C180.223 199.035 152.685 213.8 122.211 212.202L123.049 196.224C147.733 197.518 170.057 185.578 183.119 166.568L196.306 175.629ZM122.211 212.202C75.6206 209.761 39.8308 170.012 42.2725 123.422L58.2506 124.259C56.2714 162.025 85.2824 194.245 123.049 196.224L122.211 212.202ZM42.2725 123.422C44.7142 76.8309 84.4628 41.0411 131.053 43.4829L130.216 59.4609C92.4499 57.4817 60.2298 86.4927 58.2506 124.259L42.2725 123.422ZM131.053 43.4829C158.652 44.9292 182.461 59.4748 196.766 80.7452L183.489 89.6744C171.871 72.3988 152.578 60.6329 130.216 59.4609L131.053 43.4829Z" fill="white" mask="url(#path-1-outside-1_110_47)"/>
</svg>
