<svg width="256" height="256" viewBox="0 0 256 256" fill="none" xmlns="http://www.w3.org/2000/svg">
<mask id="path-1-outside-1_96_32" maskUnits="userSpaceOnUse" x="17.5" y="17.9814" width="220" height="222" fill="black">
<rect fill="white" x="17.5" y="17.9814" width="220" height="222"/>
<path fill-rule="evenodd" clip-rule="evenodd" d="M31.5 25.9814C34.8137 25.9814 37.5 28.6677 37.5 31.9814V218.029L223.029 219C226.342 219.017 229.015 221.718 228.997 225.031C228.98 228.345 226.28 231.017 222.966 231L31.9685 230C29.412 229.987 27.2374 228.376 26.385 226.119C25.8237 225.206 25.5 224.132 25.5 222.981V31.9814C25.5 28.6677 28.1863 25.9814 31.5 25.9814ZM63.9267 115.806C106.316 115.806 140.68 150.169 140.68 192.558C140.68 195.872 143.366 198.558 146.68 198.558C149.993 198.558 152.68 195.872 152.68 192.558C152.68 143.542 112.944 103.806 63.9267 103.806C60.613 103.806 57.9267 106.492 57.9267 109.806C57.9267 113.119 60.613 115.806 63.9267 115.806Z"/>
</mask>
<path d="M37.5 218.029H29.5V225.987L37.4581 226.029L37.5 218.029ZM223.029 219L222.987 227L223.029 219ZM222.966 231L222.924 239L222.966 231ZM31.9685 230L32.0104 222H32.0104L31.9685 230ZM26.385 226.119L33.869 223.293L33.5995 222.579L33.2001 221.93L26.385 226.119ZM140.68 192.558L148.68 192.558V192.558H140.68ZM63.9267 115.806V123.806H63.9267L63.9267 115.806ZM152.68 192.558H144.68H152.68ZM63.9267 103.806V111.806H63.9267L63.9267 103.806ZM57.9267 109.806H65.9267V109.806L57.9267 109.806ZM45.5 31.9814C45.5 24.2495 39.232 17.9814 31.5 17.9814V33.9814C30.3954 33.9814 29.5 33.086 29.5 31.9814H45.5ZM45.5 218.029V31.9814H29.5V218.029H45.5ZM223.071 211L37.5419 210.029L37.4581 226.029L222.987 227L223.071 211ZM236.997 225.073C237.038 217.341 230.803 211.041 223.071 211L222.987 227C221.882 226.994 220.992 226.094 220.997 224.99L236.997 225.073ZM222.924 239C230.656 239.04 236.957 232.805 236.997 225.073L220.997 224.99C221.003 223.885 221.903 222.994 223.008 223L222.924 239ZM31.9266 238L222.924 239L223.008 223L32.0104 222L31.9266 238ZM18.901 228.946C20.885 234.199 25.9489 237.969 31.9266 238L32.0104 222C32.8751 222.005 33.5898 222.554 33.869 223.293L18.901 228.946ZM17.5 222.981C17.5 225.653 18.2561 228.172 19.5699 230.309L33.2001 221.93C33.3913 222.241 33.5 222.611 33.5 222.981H17.5ZM17.5 31.9814V222.981H33.5V31.9814H17.5ZM31.5 17.9814C23.768 17.9814 17.5 24.2495 17.5 31.9814H33.5C33.5 33.086 32.6046 33.9814 31.5 33.9814V17.9814ZM148.68 192.558C148.68 145.751 110.734 107.806 63.9267 107.806L63.9267 123.806C101.898 123.806 132.68 154.587 132.68 192.558H148.68ZM146.68 190.558C147.784 190.558 148.68 191.454 148.68 192.558L132.68 192.558C132.68 200.29 138.948 206.558 146.68 206.558V190.558ZM144.68 192.558C144.68 191.454 145.575 190.558 146.68 190.558V206.558C154.411 206.558 160.68 200.29 160.68 192.558H144.68ZM63.9267 111.806C108.525 111.806 144.68 147.96 144.68 192.558H160.68C160.68 139.123 117.362 95.8056 63.9267 95.8056L63.9267 111.806ZM65.9267 109.806C65.9267 110.91 65.0313 111.806 63.9267 111.806V95.8056C56.1947 95.8056 49.9267 102.074 49.9267 109.806L65.9267 109.806ZM63.9267 107.806C65.0313 107.806 65.9267 108.701 65.9267 109.806H49.9267C49.9267 117.538 56.1948 123.806 63.9267 123.806V107.806Z" fill="white" mask="url(#path-1-outside-1_96_32)"/>
</svg>
