<svg width="256" height="256" viewBox="0 0 256 256" fill="none" xmlns="http://www.w3.org/2000/svg">
<mask id="path-1-outside-1_343_2" maskUnits="userSpaceOnUse" x="3" y="3" width="251" height="250" fill="black">
<rect fill="white" x="3" y="3" width="251" height="250"/>
<path fill-rule="evenodd" clip-rule="evenodd" d="M35.9424 25.0002C42.0175 24.9683 46.968 29.8674 46.9999 35.9424L47.9056 208.935L220.839 208.935C226.914 208.935 231.839 213.86 231.839 219.935C231.839 226.01 226.914 230.935 220.839 230.935L37.7249 230.935C37.1564 230.935 36.5981 230.892 36.0528 230.809C30.4281 230.348 25.9928 225.652 25.9627 219.903L25.0002 36.0576C24.9683 29.9825 29.8674 25.032 35.9424 25.0002ZM60.0635 116.009C104.697 116.009 140.879 152.191 140.879 196.824C140.879 202.899 145.804 207.824 151.879 207.824C157.954 207.824 162.879 202.899 162.879 196.824C162.879 140.041 116.847 94.0087 60.0635 94.0088C53.9884 94.0088 49.0635 98.9336 49.0635 105.009C49.0635 111.084 53.9884 116.009 60.0635 116.009Z"/>
</mask>
<path d="M46.9999 35.9424L68.9995 35.8272V35.8272L46.9999 35.9424ZM35.9424 25.0002L36.0576 46.9999L35.9424 25.0002ZM47.9056 208.935L25.9059 209.05L26.0205 230.935H47.9056L47.9056 208.935ZM220.839 208.935V230.935V208.935ZM220.839 230.935V252.935V230.935ZM37.7249 230.935L37.7249 208.935H37.7249V230.935ZM36.0528 230.809L39.3695 209.06L38.6114 208.945L37.8471 208.882L36.0528 230.809ZM25.9627 219.903L47.9624 219.788L25.9627 219.903ZM25.0002 36.0576L46.9999 35.9424L25.0002 36.0576ZM140.879 196.824L118.879 196.824V196.824H140.879ZM60.0635 116.009V138.009H60.0636L60.0635 116.009ZM151.879 207.824L151.879 185.824H151.879V207.824ZM162.879 196.824L140.879 196.824V196.824H162.879ZM60.0635 94.0088V116.009H60.0636L60.0635 94.0088ZM49.0635 105.009L71.0635 105.009V105.009L49.0635 105.009ZM68.9995 35.8272C68.9041 17.6021 54.0524 2.90504 35.8272 3.00046L36.0576 46.9999C29.9825 47.0317 25.032 42.1326 25.0002 36.0576L68.9995 35.8272ZM69.9053 208.82L68.9995 35.8272L25.0002 36.0576L25.9059 209.05L69.9053 208.82ZM220.839 186.935L47.9056 186.935L47.9056 230.935L220.839 230.935V186.935ZM253.839 219.935C253.839 201.71 239.064 186.935 220.839 186.935V230.935C214.764 230.935 209.839 226.01 209.839 219.935H253.839ZM220.839 252.935C239.064 252.935 253.839 238.16 253.839 219.935H209.839C209.839 213.86 214.764 208.935 220.839 208.935V252.935ZM37.7249 252.935L220.839 252.935V208.935L37.7249 208.935L37.7249 252.935ZM32.7362 252.557C34.3751 252.807 36.0422 252.935 37.7249 252.935V208.935C38.2707 208.935 38.821 208.976 39.3695 209.06L32.7362 252.557ZM3.963 220.018C4.05336 237.278 17.3613 251.353 34.2586 252.735L37.8471 208.882C43.495 209.344 47.9322 214.027 47.9624 219.788L3.963 220.018ZM3.00046 36.1728L3.963 220.018L47.9624 219.788L46.9999 35.9424L3.00046 36.1728ZM35.8272 3.00046C17.6021 3.09587 2.90504 17.9476 3.00046 36.1728L46.9999 35.9424C47.0317 42.0175 42.1326 46.968 36.0576 46.9999L35.8272 3.00046ZM162.879 196.824C162.879 140.041 116.847 94.0087 60.0635 94.0088L60.0636 138.009C92.5465 138.009 118.879 164.341 118.879 196.824L162.879 196.824ZM151.879 185.824C157.954 185.824 162.879 190.749 162.879 196.824H118.879C118.879 215.05 133.654 229.824 151.879 229.824V185.824ZM140.879 196.824C140.879 190.749 145.804 185.824 151.879 185.824L151.879 229.824C170.104 229.824 184.879 215.05 184.879 196.824H140.879ZM60.0636 116.009C104.697 116.009 140.879 152.191 140.879 196.824L184.879 196.824C184.879 127.891 128.997 72.0087 60.0635 72.0088L60.0636 116.009ZM71.0635 105.009C71.0635 111.084 66.1387 116.009 60.0635 116.009V72.0088C41.8381 72.0088 27.0635 86.7834 27.0635 105.009L71.0635 105.009ZM60.0635 94.0088C66.1387 94.0088 71.0635 98.9336 71.0635 105.009L27.0635 105.009C27.0636 123.234 41.8382 138.009 60.0635 138.009V94.0088Z" fill="white" mask="url(#path-1-outside-1_343_2)"/>
</svg>
