<svg width="256" height="256" viewBox="0 0 256 256" fill="none" xmlns="http://www.w3.org/2000/svg">
<mask id="path-1-outside-1_84_114" maskUnits="userSpaceOnUse" x="5.03491" y="20.8486" width="246" height="215" fill="black">
<rect fill="white" x="5.03491" y="20.8486" width="246" height="215"/>
<path fill-rule="evenodd" clip-rule="evenodd" d="M27.0349 128L27.0349 113.174C27.0349 74.3345 58.5207 42.8486 97.3605 42.8486C104.54 42.8486 110.36 48.6689 110.36 55.8486C110.36 63.0283 104.54 68.8486 97.3605 68.8486C72.8801 68.8486 53.0349 88.6939 53.0349 113.174V128V142.825C53.0349 167.306 72.8801 187.151 97.3605 187.151C104.54 187.151 110.36 192.971 110.36 200.151C110.36 207.331 104.54 213.151 97.3605 213.151C58.5207 213.151 27.0349 181.665 27.0349 142.825L27.0349 128ZM228.965 128V113.174C228.965 74.3345 197.479 42.8486 158.64 42.8486C151.46 42.8486 145.64 48.6689 145.64 55.8486C145.64 63.0283 151.46 68.8486 158.64 68.8486C183.12 68.8486 202.965 88.6939 202.965 113.174V128V142.825C202.965 167.306 183.12 187.151 158.64 187.151C151.46 187.151 145.64 192.971 145.64 200.151C145.64 207.331 151.46 213.151 158.64 213.151C197.479 213.151 228.965 181.665 228.965 142.825V128Z"/>
</mask>
<path d="M27.0349 113.174H5.03491V113.174L27.0349 113.174ZM27.0349 128L49.0349 128V128H27.0349ZM97.3605 42.8486L97.3605 64.8486L97.3605 42.8486ZM97.3605 68.8486L97.3605 46.8486L97.3605 68.8486ZM53.0349 113.174H31.0349H53.0349ZM53.0349 142.825H31.0349V142.825L53.0349 142.825ZM97.3605 187.151V165.151H97.3605L97.3605 187.151ZM27.0349 142.825H5.03491H27.0349ZM158.64 42.8486L158.64 64.8486L158.64 42.8486ZM158.64 68.8486V46.8486V68.8486ZM158.64 187.151L158.64 165.151H158.64V187.151ZM5.03491 113.174V128L49.0349 128V113.174L5.03491 113.174ZM97.3605 20.8486C46.3705 20.8486 5.03491 62.1842 5.03491 113.174H49.0349C49.0349 86.4847 70.671 64.8486 97.3605 64.8486L97.3605 20.8486ZM132.36 55.8486C132.36 36.5187 116.69 20.8486 97.3605 20.8486L97.3605 64.8486C92.3899 64.8486 88.3605 60.8192 88.3605 55.8486H132.36ZM97.3605 90.8486C116.69 90.8486 132.36 75.1786 132.36 55.8486H88.3605C88.3605 50.8781 92.3899 46.8486 97.3605 46.8486L97.3605 90.8486ZM75.0349 113.174C75.0349 100.844 85.0304 90.8486 97.3605 90.8486L97.3605 46.8486C60.7299 46.8486 31.0349 76.5436 31.0349 113.174L75.0349 113.174ZM75.0349 128V113.174H31.0349V128H75.0349ZM75.0349 142.825V128H31.0349V142.825H75.0349ZM97.3605 165.151C85.0304 165.151 75.0349 155.155 75.0349 142.825L31.0349 142.825C31.0349 179.456 60.7299 209.151 97.3605 209.151L97.3605 165.151ZM132.36 200.151C132.36 180.821 116.69 165.151 97.3605 165.151V209.151C92.3899 209.151 88.3605 205.122 88.3605 200.151H132.36ZM97.3605 235.151C116.69 235.151 132.36 219.481 132.36 200.151H88.3605C88.3605 195.18 92.3899 191.151 97.3605 191.151V235.151ZM5.03491 142.825C5.03491 193.815 46.3705 235.151 97.3605 235.151V191.151C70.671 191.151 49.0349 169.515 49.0349 142.825H5.03491ZM5.03491 128V142.825L49.0349 142.825V128L5.03491 128ZM206.965 113.174V128H250.965V113.174H206.965ZM158.64 64.8486C185.329 64.8486 206.965 86.4847 206.965 113.174H250.965C250.965 62.1842 209.63 20.8486 158.64 20.8486L158.64 64.8486ZM167.64 55.8486C167.64 60.8192 163.61 64.8486 158.64 64.8486L158.64 20.8486C139.31 20.8486 123.64 36.5187 123.64 55.8486H167.64ZM158.64 46.8486C163.61 46.8486 167.64 50.8781 167.64 55.8486H123.64C123.64 75.1786 139.31 90.8486 158.64 90.8486L158.64 46.8486ZM224.965 113.174C224.965 76.5436 195.27 46.8486 158.64 46.8486L158.64 90.8486C170.97 90.8486 180.965 100.844 180.965 113.174H224.965ZM224.965 128V113.174H180.965V128H224.965ZM224.965 142.825V128H180.965V142.825H224.965ZM158.64 209.151C195.27 209.151 224.965 179.456 224.965 142.825H180.965C180.965 155.155 170.97 165.151 158.64 165.151L158.64 209.151ZM167.64 200.151C167.64 205.122 163.61 209.151 158.64 209.151V165.151C139.31 165.151 123.64 180.821 123.64 200.151H167.64ZM158.64 191.151C163.61 191.151 167.64 195.18 167.64 200.151H123.64C123.64 219.481 139.31 235.151 158.64 235.151V191.151ZM206.965 142.825C206.965 169.515 185.329 191.151 158.64 191.151V235.151C209.63 235.151 250.965 193.815 250.965 142.825H206.965ZM206.965 128V142.825H250.965V128H206.965Z" fill="white" mask="url(#path-1-outside-1_84_114)"/>
</svg>
