<svg width="256" height="256" viewBox="0 0 256 256" fill="none" xmlns="http://www.w3.org/2000/svg">
<path d="M52 128H56H52ZM52 143H48H52ZM52 113H48H52ZM97 68V64V68ZM97 42V46V42ZM26 113H22H26ZM26 143H22H26ZM159 68V64V68ZM159 42V46V42ZM48 128L48 143H56L56 128H48ZM48 113L48 128H56L56 113H48ZM97 64C69.938 64 48 85.938 48 113H56C56 90.3563 74.3563 72 97 72V64ZM106 55C106 59.9706 101.971 64 97 64V72C106.389 72 114 64.3888 114 55H106ZM97 46C101.971 46 106 50.0294 106 55H114C114 45.6112 106.389 38 97 38V46ZM30 113C30 75.9969 59.9969 46 97 46V38C55.5786 38 22 71.5786 22 113H30ZM30 128V113H22V128H30ZM30 143V128H22V143H30ZM97 210C59.9969 210 30 180.003 30 143H22C22 184.421 55.5786 218 97 218V210ZM106 201C106 205.971 101.971 210 97 210V218C106.389 218 114 210.389 114 201H106ZM97 192C101.971 192 106 196.029 106 201H114C114 191.611 106.389 184 97 184V192ZM48 143C48 170.062 69.938 192 97 192V184C74.3563 184 56 165.644 56 143H48ZM200 128V143H208V128H200ZM200 113V128H208V113H200ZM159 72C181.644 72 200 90.3563 200 113H208C208 85.938 186.062 64 159 64V72ZM142 55C142 64.3888 149.611 72 159 72V64C154.029 64 150 59.9706 150 55H142ZM159 38C149.611 38 142 45.6112 142 55H150C150 50.0294 154.029 46 159 46V38ZM234 113C234 71.5786 200.421 38 159 38V46C196.003 46 226 75.9969 226 113H234ZM234 128V113H226V128H234ZM234 143V128H226V143H234ZM159 218C200.421 218 234 184.421 234 143H226C226 180.003 196.003 210 159 210V218ZM142 201C142 210.389 149.611 218 159 218V210C154.029 210 150 205.971 150 201H142ZM159 184C149.611 184 142 191.611 142 201H150C150 196.029 154.029 192 159 192V184ZM200 143C200 165.644 181.644 184 159 184V192C186.062 192 208 170.062 208 143H200Z" fill="white"/>
</svg>
