<svg width="256" height="256" viewBox="0 0 256 256" fill="none" xmlns="http://www.w3.org/2000/svg">
<mask id="path-1-outside-1_96_13" maskUnits="userSpaceOnUse" x="16.5" y="16.5" width="223" height="223" fill="black">
<rect fill="white" x="16.5" y="16.5" width="223" height="223"/>
<path fill-rule="evenodd" clip-rule="evenodd" d="M52 24.5C36.8122 24.5 24.5 36.8122 24.5 52V120.5V128V204C24.5 219.188 36.8122 231.5 52 231.5H128H135.5H204C219.188 231.5 231.5 219.188 231.5 204V52C231.5 36.8122 219.188 24.5 204 24.5H52ZM135.5 216.5H204C210.904 216.5 216.5 210.904 216.5 204V52C216.5 45.0964 210.904 39.5 204 39.5H52C45.0964 39.5 39.5 45.0964 39.5 52V120.5H108C123.188 120.5 135.5 132.812 135.5 148V216.5ZM39.5 135.5V204C39.5 210.041 43.7848 215.08 49.4808 216.246C50.2945 216.413 51.1371 216.5 52 216.5H120.5V148C120.5 141.096 114.904 135.5 108 135.5H39.5Z"/>
</mask>
<path d="M135.5 216.5H127.5V224.5H135.5V216.5ZM39.5 120.5H31.5V128.5H39.5V120.5ZM39.5 135.5V127.5H31.5V135.5H39.5ZM49.4808 216.246L47.877 224.084L47.8771 224.084L49.4808 216.246ZM120.5 216.5V224.5H128.5V216.5H120.5ZM32.5 52C32.5 41.2305 41.2304 32.5 52 32.5V16.5C32.3939 16.5 16.5 32.3939 16.5 52H32.5ZM32.5 120.5V52H16.5V120.5H32.5ZM32.5 128V120.5H16.5V128H32.5ZM32.5 204V128H16.5V204H32.5ZM52 223.5C41.2305 223.5 32.5 214.77 32.5 204H16.5C16.5 223.606 32.3939 239.5 52 239.5V223.5ZM128 223.5H52V239.5H128V223.5ZM135.5 223.5H128V239.5H135.5V223.5ZM204 223.5H135.5V239.5H204V223.5ZM223.5 204C223.5 214.77 214.77 223.5 204 223.5V239.5C223.606 239.5 239.5 223.606 239.5 204H223.5ZM223.5 52V204H239.5V52H223.5ZM204 32.5C214.77 32.5 223.5 41.2304 223.5 52H239.5C239.5 32.3939 223.606 16.5 204 16.5V32.5ZM52 32.5H204V16.5H52V32.5ZM135.5 224.5H204V208.5H135.5V224.5ZM204 224.5C215.322 224.5 224.5 215.322 224.5 204H208.5C208.5 206.485 206.485 208.5 204 208.5V224.5ZM224.5 204V52H208.5V204H224.5ZM224.5 52C224.5 40.6782 215.322 31.5 204 31.5V47.5C206.485 47.5 208.5 49.5147 208.5 52H224.5ZM204 31.5H52V47.5H204V31.5ZM52 31.5C40.6782 31.5 31.5 40.6782 31.5 52H47.5C47.5 49.5147 49.5147 47.5 52 47.5V31.5ZM31.5 52V120.5H47.5V52H31.5ZM39.5 128.5H108V112.5H39.5V128.5ZM108 128.5C118.77 128.5 127.5 137.23 127.5 148H143.5C143.5 128.394 127.606 112.5 108 112.5V128.5ZM127.5 148V216.5H143.5V148H127.5ZM31.5 135.5V204H47.5V135.5H31.5ZM31.5 204C31.5 213.916 38.5323 222.171 47.877 224.084L51.0846 208.408C49.0373 207.99 47.5 206.165 47.5 204H31.5ZM47.8771 224.084C49.2155 224.358 50.5953 224.5 52 224.5V208.5C51.6789 208.5 51.3736 208.468 51.0846 208.408L47.8771 224.084ZM52 224.5H120.5V208.5H52V224.5ZM128.5 216.5V148H112.5V216.5H128.5ZM128.5 148C128.5 136.678 119.322 127.5 108 127.5V143.5C110.485 143.5 112.5 145.515 112.5 148H128.5ZM108 127.5H39.5V143.5H108V127.5Z" fill="white" mask="url(#path-1-outside-1_96_13)"/>
</svg>
