<svg width="256" height="256" viewBox="0 0 256 256" fill="none" xmlns="http://www.w3.org/2000/svg">
<path d="M28 25.5C12.8122 25.5 0.5 37.8122 0.5 53H15.5C15.5 46.0965 21.0965 40.5 28 40.5V25.5ZM228 25.5H28V40.5H228V25.5ZM255.5 53C255.5 37.8122 243.188 25.5 228 25.5V40.5C234.904 40.5 240.5 46.0964 240.5 53H255.5ZM255.5 98.3333V53H240.5V98.3333H255.5ZM228 125.833C243.188 125.833 255.5 113.521 255.5 98.3333H240.5C240.5 105.237 234.904 110.833 228 110.833V125.833ZM28 125.833H228V110.833H28V125.833ZM0.5 98.3333C0.5 113.521 12.8122 125.833 28 125.833V110.833C21.0964 110.833 15.5 105.237 15.5 98.3333H0.5ZM0.5 53V98.3333H15.5V53H0.5ZM211.733 99.1667C224.712 99.1667 235.233 88.6454 235.233 75.6667H220.233C220.233 80.3611 216.428 84.1667 211.733 84.1667V99.1667ZM188.233 75.6667C188.233 88.6454 198.755 99.1667 211.733 99.1667V84.1667C207.039 84.1667 203.233 80.3611 203.233 75.6667H188.233ZM211.733 52.1667C198.755 52.1667 188.233 62.688 188.233 75.6667H203.233C203.233 70.9722 207.039 67.1667 211.733 67.1667V52.1667ZM235.233 75.6667C235.233 62.688 224.712 52.1667 211.733 52.1667V67.1667C216.428 67.1667 220.233 70.9722 220.233 75.6667H235.233ZM175.433 75.6667C175.433 80.3611 171.628 84.1667 166.933 84.1667V99.1667C179.912 99.1667 190.433 88.6454 190.433 75.6667H175.433ZM166.933 67.1667C171.628 67.1667 175.433 70.9722 175.433 75.6667H190.433C190.433 62.688 179.912 52.1667 166.933 52.1667V67.1667ZM158.433 75.6667C158.433 70.9722 162.239 67.1667 166.933 67.1667V52.1667C153.955 52.1667 143.433 62.688 143.433 75.6667H158.433ZM166.933 84.1667C162.239 84.1667 158.433 80.3611 158.433 75.6667H143.433C143.433 88.6454 153.955 99.1667 166.933 99.1667V84.1667Z" fill="white"/>
<path d="M28 131.101C12.8122 131.101 0.5 143.413 0.5 158.601H15.5C15.5 151.697 21.0965 146.101 28 146.101V131.101ZM228 131.101H28V146.101H228V131.101ZM255.5 158.601C255.5 143.413 243.188 131.101 228 131.101V146.101C234.904 146.101 240.5 151.697 240.5 158.601H255.5ZM255.5 203.934V158.601H240.5V203.934H255.5ZM228 231.434C243.188 231.434 255.5 219.122 255.5 203.934H240.5C240.5 210.837 234.904 216.434 228 216.434V231.434ZM28 231.434H228V216.434H28V231.434ZM0.5 203.934C0.5 219.122 12.8122 231.434 28 231.434V216.434C21.0964 216.434 15.5 210.837 15.5 203.934H0.5ZM0.5 158.601V203.934H15.5V158.601H0.5ZM211.733 204.767C224.712 204.767 235.233 194.246 235.233 181.267H220.233C220.233 185.962 216.428 189.767 211.733 189.767V204.767ZM188.233 181.267C188.233 194.246 198.755 204.767 211.733 204.767V189.767C207.039 189.767 203.233 185.962 203.233 181.267H188.233ZM211.733 157.767C198.755 157.767 188.233 168.289 188.233 181.267H203.233C203.233 176.573 207.039 172.767 211.733 172.767V157.767ZM235.233 181.267C235.233 168.289 224.712 157.767 211.733 157.767V172.767C216.428 172.767 220.233 176.573 220.233 181.267H235.233ZM175.433 181.267C175.433 185.962 171.628 189.767 166.933 189.767V204.767C179.912 204.767 190.433 194.246 190.433 181.267H175.433ZM166.933 172.767C171.628 172.767 175.433 176.573 175.433 181.267H190.433C190.433 168.289 179.912 157.767 166.933 157.767V172.767ZM158.433 181.267C158.433 176.573 162.239 172.767 166.933 172.767V157.767C153.955 157.767 143.433 168.289 143.433 181.267H158.433ZM166.933 189.767C162.239 189.767 158.433 185.962 158.433 181.267H143.433C143.433 194.246 153.955 204.767 166.933 204.767V189.767Z" fill="white"/>
</svg>
