<svg width="256" height="256" viewBox="0 0 256 256" fill="none" xmlns="http://www.w3.org/2000/svg">
<mask id="path-1-inside-1_41_693" fill="white">
<path fill-rule="evenodd" clip-rule="evenodd" d="M88 134C113.405 134 134 113.405 134 88C134 62.5949 113.405 42 88 42C62.5949 42 42 62.5949 42 88C42 113.405 62.5949 134 88 134ZM102 213V141C121.591 137.023 137.023 121.591 141 102H213V213H102Z"/>
</mask>
<path d="M102 141L100.409 133.16L94 134.461V141H102ZM102 213H94V221H102V213ZM141 102V94H134.461L133.16 100.409L141 102ZM213 102H221V94H213V102ZM213 213V221H221V213H213ZM126 88C126 108.987 108.987 126 88 126V142C117.823 142 142 117.823 142 88H126ZM88 50C108.987 50 126 67.0132 126 88H142C142 58.1766 117.823 34 88 34V50ZM50 88C50 67.0132 67.0132 50 88 50V34C58.1766 34 34 58.1766 34 88H50ZM88 126C67.0132 126 50 108.987 50 88H34C34 117.823 58.1766 142 88 142V126ZM94 141V213H110V141H94ZM133.16 100.409C129.822 116.851 116.851 129.822 100.409 133.16L103.591 148.84C126.331 144.224 144.224 126.331 148.84 103.591L133.16 100.409ZM213 94H141V110H213V94ZM221 213V102H205V213H221ZM102 221H213V205H102V221Z" fill="white" mask="url(#path-1-inside-1_41_693)"/>
</svg>
