<svg width="256" height="256" viewBox="0 0 256 256" fill="none" xmlns="http://www.w3.org/2000/svg">
<path d="M230.962 50C230.962 67.7948 216.738 82 199.462 82C182.186 82 167.962 67.7948 167.962 50C167.962 32.2052 182.186 18 199.462 18C216.738 18 230.962 32.2052 230.962 50Z" stroke="white" stroke-width="22"/>
<path d="M230.962 206C230.962 223.795 216.738 238 199.462 238C182.186 238 167.962 223.795 167.962 206C167.962 188.205 182.186 174 199.462 174C216.738 174 230.962 188.205 230.962 206Z" stroke="white" stroke-width="22"/>
<path d="M82 129C82 145.998 68.0201 160 50.5 160C32.9799 160 19 145.998 19 129C19 112.002 32.9799 98 50.5 98C68.0201 98 82 112.002 82 129Z" stroke="white" stroke-width="22"/>
<rect x="69.9634" y="101.333" width="106.667" height="30.67" transform="rotate(-30 69.9634 101.333)" fill="white"/>
<rect x="83.2967" y="128.887" width="106.667" height="30.67" transform="rotate(30 83.2967 128.887)" fill="white"/>
</svg>
