<svg width="256" height="257" viewBox="0 0 256 257" fill="none" xmlns="http://www.w3.org/2000/svg">
<mask id="path-1-inside-1_710_752" fill="white">
<path d="M118.765 2.14258C124.853 -0.723412 131.904 -0.713671 137.984 2.16797L160.271 12.7295L187.248 25.5146L241.469 45.4209C245.69 46.9707 248.496 50.9905 248.496 55.4873V80.1133C248.496 112.673 240.261 144.704 224.557 173.226L223.865 174.481C216.454 187.942 207.366 200.408 196.819 211.582L194.305 214.246C182.698 226.543 169.204 236.909 154.331 244.954L140.437 252.471C132.924 256.534 123.876 256.567 116.335 252.558L102.1 244.99C86.8698 236.894 73.2365 226.1 61.8633 213.133L57.6777 208.36C50.5728 200.26 44.2213 191.527 38.7031 182.272L37.1553 179.678C17.7465 147.126 7.50002 109.932 7.5 72.0332V55.4766C7.50025 50.9776 10.3126 46.9583 14.5391 45.417L69.1357 25.5059L96.3018 12.7178L118.765 2.14258Z"/>
</mask>
<path d="M118.765 2.14258L109.394 -17.762L109.394 -17.7619L118.765 2.14258ZM137.984 2.16797L128.563 22.0484L128.563 22.0485L137.984 2.16797ZM160.271 12.7295L169.692 -7.15094L169.692 -7.15104L160.271 12.7295ZM187.248 25.5146L177.826 45.3951L178.729 45.8227L179.666 46.1668L187.248 25.5146ZM241.469 45.4209L249.051 24.7687V24.7687L241.469 45.4209ZM248.496 55.4873H270.496V55.487L248.496 55.4873ZM224.557 173.226L205.285 162.615L205.284 162.615L224.557 173.226ZM223.865 174.481L243.137 185.092L243.138 185.092L223.865 174.481ZM196.819 211.582L212.818 226.683L212.818 226.683L196.819 211.582ZM194.305 214.246L178.306 199.145L178.306 199.145L194.305 214.246ZM154.331 244.954L143.864 225.604L143.863 225.604L154.331 244.954ZM140.437 252.471L150.904 271.821L150.904 271.821L140.437 252.471ZM116.335 252.558L106.008 271.983L106.009 271.984L116.335 252.558ZM102.1 244.99L91.773 264.416L91.773 264.416L102.1 244.99ZM61.8633 213.133L45.3232 227.639L45.3237 227.639L61.8633 213.133ZM57.6777 208.36L74.2178 193.854L74.2174 193.854L57.6777 208.36ZM38.7031 182.272L57.5992 171.006L57.5968 171.002L38.7031 182.272ZM37.1553 179.678L18.2592 190.944L18.2616 190.949L37.1553 179.678ZM7.5 72.0332H-14.5V72.0332L7.5 72.0332ZM7.5 55.4766L-14.5 55.4754V55.4766H7.5ZM14.5391 45.417L22.0766 66.0854L22.0767 66.0854L14.5391 45.417ZM69.1357 25.5059L76.6734 46.1743L77.6068 45.8339L78.5057 45.4107L69.1357 25.5059ZM96.3018 12.7178L105.672 32.6226L105.673 32.6223L96.3018 12.7178ZM118.765 2.14258L128.135 22.0472C128.269 21.9842 128.426 21.9837 128.563 22.0484L137.984 2.16797L147.406 -17.7125C135.382 -23.411 121.436 -23.431 109.394 -17.762L118.765 2.14258ZM137.984 2.16797L128.563 22.0485L150.849 32.61L160.271 12.7295L169.692 -7.15104L147.406 -17.7126L137.984 2.16797ZM160.271 12.7295L150.849 32.6099L177.826 45.3951L187.248 25.5146L196.67 5.63422L169.692 -7.15094L160.271 12.7295ZM187.248 25.5146L179.666 46.1668L233.887 66.0731L241.469 45.4209L249.051 24.7687L194.83 4.86249L187.248 25.5146ZM241.469 45.4209L233.887 66.0731C229.446 64.4426 226.496 60.2156 226.496 55.4876L248.496 55.4873L270.496 55.487C270.496 41.7654 261.934 29.4987 249.051 24.7687L241.469 45.4209ZM248.496 55.4873H226.496V80.1133H248.496H270.496V55.4873H248.496ZM248.496 80.1133H226.496C226.496 108.962 219.199 137.343 205.285 162.615L224.557 173.226L243.829 183.837C261.322 152.064 270.496 116.383 270.496 80.1133H248.496ZM224.557 173.226L205.284 162.615L204.593 163.871L223.865 174.481L243.138 185.092L243.829 183.836L224.557 173.226ZM223.865 174.481L204.593 163.87C198.079 175.702 190.091 186.659 180.82 196.481L196.819 211.582L212.818 226.683C224.641 214.157 234.829 200.182 243.137 185.092L223.865 174.481ZM196.819 211.582L180.821 196.481L178.306 199.145L194.305 214.246L210.303 229.347L212.818 226.683L196.819 211.582ZM194.305 214.246L178.306 199.145C168.305 209.74 156.679 218.672 143.864 225.604L154.331 244.954L164.798 264.305C181.729 255.146 197.091 243.346 210.303 229.347L194.305 214.246ZM154.331 244.954L143.863 225.604L129.969 233.121L140.437 252.471L150.904 271.821L164.799 264.304L154.331 244.954ZM140.437 252.471L129.97 233.12C128.939 233.677 127.697 233.682 126.661 233.132L116.335 252.558L106.009 271.984C120.056 279.451 136.909 279.391 150.904 271.821L140.437 252.471ZM116.335 252.558L126.662 233.132L112.426 225.564L102.1 244.99L91.773 264.416L106.008 271.983L116.335 252.558ZM102.1 244.99L112.426 225.564C99.5481 218.718 88.0199 209.591 78.4029 198.626L61.8633 213.133L45.3237 227.639C58.4531 242.609 74.1915 255.07 91.773 264.416L102.1 244.99ZM61.8633 213.133L78.4034 198.627L74.2178 193.854L57.6777 208.36L41.1376 222.866L45.3232 227.639L61.8633 213.133ZM57.6777 208.36L74.2174 193.854C67.9946 186.759 62.4319 179.111 57.5992 171.006L38.7031 182.272L19.8071 193.539C26.0107 203.944 33.1509 213.76 41.1381 222.867L57.6777 208.36ZM38.7031 182.272L57.5968 171.002L56.0489 168.407L37.1553 179.678L18.2616 190.949L19.8095 193.543L38.7031 182.272ZM37.1553 179.678L56.0513 168.411C38.6741 139.267 29.5 105.965 29.5 72.0332L7.5 72.0332L-14.5 72.0332C-14.5 113.898 -3.18109 154.986 18.2592 190.944L37.1553 179.678ZM7.5 72.0332H29.5V55.4766H7.5H-14.5V72.0332H7.5ZM7.5 55.4766L29.5 55.4778C29.4997 60.221 26.5349 64.4596 22.0766 66.0854L14.5391 45.417L7.00149 24.7485C-5.90972 29.4571 -14.4992 41.7342 -14.5 55.4754L7.5 55.4766ZM14.5391 45.417L22.0767 66.0854L76.6734 46.1743L69.1357 25.5059L61.5981 4.83744L7.00139 24.7486L14.5391 45.417ZM69.1357 25.5059L78.5057 45.4107L105.672 32.6226L96.3018 12.7178L86.9318 -7.18709L59.7658 5.601L69.1357 25.5059ZM96.3018 12.7178L105.673 32.6223L128.135 22.0471L118.765 2.14258L109.394 -17.7619L86.931 -7.18673L96.3018 12.7178Z" fill="white" mask="url(#path-1-inside-1_710_752)"/>
</svg>
