<svg width="256" height="256" viewBox="0 0 256 256" fill="none" xmlns="http://www.w3.org/2000/svg">
<g clip-path="url(#clip0_233_97)">
<path d="M18 55.2485C18 55.1612 18.0546 55.0832 18.1366 55.0532L73.1829 34.9787L100.774 21.9894L123.237 11.4143C126.484 9.88574 130.245 9.8906 133.488 11.4275L155.773 21.9894L183.181 34.9787L237.85 55.0495C237.938 55.0817 237.996 55.1651 237.996 55.2585V79.885C237.996 110.674 230.209 140.962 215.359 167.933L214.667 169.189C207.684 181.872 199.121 193.618 189.183 204.147L186.669 206.81C175.829 218.295 163.226 227.977 149.335 235.49V235.49L135.441 243.006C131.022 245.397 125.699 245.416 121.263 243.058L107.028 235.49V235.49C92.9207 227.991 80.2921 217.992 69.7569 205.98L65.5712 201.208C58.8872 193.587 52.9126 185.373 47.7214 176.667L46.1741 174.071C27.7348 143.146 18 107.81 18 71.8046V55.2485Z" stroke="white" stroke-width="21"/>
</g>
<defs>
<clipPath id="clip0_233_97">
<rect width="256" height="256" fill="white"/>
</clipPath>
</defs>
</svg>
