<svg width="256" height="256" viewBox="0 0 256 256" fill="none" xmlns="http://www.w3.org/2000/svg">
<g clip-path="url(#clip0_239_82)">
<path d="M18.1366 55.0534L21.7338 64.918L21.7341 64.9179L18.1366 55.0534ZM46.1741 174.072L37.1555 179.449L37.1555 179.449L46.1741 174.072ZM47.7214 176.667L56.74 171.289L56.74 171.289L47.7214 176.667ZM65.5712 201.208L73.4651 194.285L65.5712 201.208ZM69.7569 205.981L61.863 212.904H61.863L69.7569 205.981ZM107.028 235.491L111.957 226.219H111.957L107.028 235.491ZM121.263 243.058L116.335 252.329H116.335L121.263 243.058ZM135.441 243.006L140.436 252.242H140.436L135.441 243.006ZM149.335 235.491L144.34 226.255H144.34L149.335 235.491ZM186.669 206.81L179.033 199.603L179.033 199.603L186.669 206.81ZM189.183 204.147L196.819 211.354L196.819 211.354L189.183 204.147ZM214.667 169.189L223.865 174.253L214.667 169.189ZM215.359 167.933L206.161 162.869V162.869L215.359 167.933ZM237.85 55.0496L234.231 64.9063L234.231 64.9064L237.85 55.0496ZM183.181 34.9789L178.684 44.4672L179.115 44.6713L179.562 44.8356L183.181 34.9789ZM155.773 21.9895L160.27 12.5012V12.5012L155.773 21.9895ZM133.488 11.4277L128.991 20.916L133.488 11.4277ZM123.237 11.4144L118.765 1.91453V1.91453L123.237 11.4144ZM100.774 21.9895L105.247 31.4894L100.774 21.9895ZM73.1829 34.9789L76.7803 44.8434L77.226 44.6808L77.6552 44.4788L73.1829 34.9789ZM28.5 55.2486C28.5 59.5731 25.7967 63.4364 21.7338 64.918L14.5395 45.1888C10.3124 46.7302 7.5 50.7496 7.5 55.2486H28.5ZM28.5 71.8047V55.2486H7.5V71.8047H28.5ZM55.1927 168.694C37.723 139.395 28.5 105.917 28.5 71.8047H7.5C7.5 109.703 17.7467 146.897 37.1555 179.449L55.1927 168.694ZM56.74 171.289L55.1927 168.694L37.1555 179.449L38.7029 182.044L56.74 171.289ZM73.4651 194.285C67.2023 187.144 61.6041 179.447 56.74 171.289L38.7028 182.044C44.2211 191.299 50.5722 200.031 57.6772 208.132L73.4651 194.285ZM77.6508 199.057L73.4651 194.285L57.6772 208.132L61.863 212.904L77.6508 199.057ZM111.957 226.219C98.9717 219.316 87.3478 210.113 77.6508 199.057L61.863 212.904C73.2363 225.871 86.8697 236.666 102.1 244.762L111.957 226.219ZM126.192 233.786L111.957 226.219L102.1 244.762L116.335 252.329L126.192 233.786ZM130.445 233.771C129.119 234.488 127.523 234.494 126.192 233.786L116.335 252.329C123.876 256.338 132.924 256.305 140.436 252.242L130.445 233.771ZM144.34 226.255L130.445 233.771L140.436 252.242L154.331 244.726L144.34 226.255ZM179.033 199.603C168.96 210.276 157.248 219.273 144.34 226.255L154.331 244.726C169.204 236.681 182.698 226.315 194.305 214.018L179.033 199.603ZM181.548 196.939L179.033 199.603L194.305 214.018L196.819 211.354L181.548 196.939ZM205.469 164.125C198.914 176.03 190.876 187.056 181.548 196.94L196.819 211.354C207.366 200.18 216.454 187.713 223.865 174.253L205.469 164.125ZM206.161 162.869L205.469 164.125L223.865 174.253L224.557 172.997L206.161 162.869ZM227.496 79.8851C227.496 108.903 220.157 137.449 206.161 162.869L224.557 172.997C240.261 144.475 248.496 112.445 248.496 79.8851H227.496ZM227.496 55.2587V79.8851H248.496V55.2587H227.496ZM234.231 64.9064C230.185 63.421 227.496 59.569 227.496 55.2587H248.496C248.496 50.7616 245.69 46.7426 241.469 45.1929L234.231 64.9064ZM179.562 44.8356L234.231 64.9063L241.469 45.1929L186.8 25.1221L179.562 44.8356ZM151.276 31.4778L178.684 44.4672L187.678 25.4905L160.27 12.5012L151.276 31.4778ZM128.991 20.916L151.276 31.4778L160.27 12.5012L137.985 1.93935L128.991 20.916ZM127.71 20.9144C128.116 20.7233 128.586 20.7239 128.991 20.916L137.985 1.93935C131.904 -0.942422 124.853 -0.95153 118.765 1.91453L127.71 20.9144ZM105.247 31.4894L127.71 20.9144L118.765 1.91453L96.302 12.4896L105.247 31.4894ZM77.6552 44.4788L105.247 31.4894L96.302 12.4896L68.7106 25.4789L77.6552 44.4788ZM21.7341 64.9179L76.7803 44.8434L69.5855 25.1143L14.5392 45.1889L21.7341 64.9179ZM43 128C43 121.925 47.9249 117 54 117V96C36.3269 96 22 110.327 22 128H43ZM54 139C47.9249 139 43 134.075 43 128H22C22 145.673 36.3269 160 54 160V139ZM201 139H54V160H201V139ZM212 128C212 134.075 207.075 139 201 139V160C218.673 160 233 145.673 233 128H212ZM201 117C207.075 117 212 121.925 212 128H233C233 110.327 218.673 96 201 96V117ZM54 117H201V96H54V117Z" fill="white"/>
</g>
<defs>
<clipPath id="clip0_239_82">
<rect width="256" height="256" fill="white"/>
</clipPath>
</defs>
</svg>
