<svg width="256" height="256" viewBox="0 0 256 256" fill="none" xmlns="http://www.w3.org/2000/svg">
<mask id="path-1-inside-1_10_20" fill="white">
<path d="M60.1178 218.51C53.8694 224.758 43.7387 224.758 37.4903 218.51V218.51C31.242 212.261 31.242 202.131 37.4903 195.882L195.882 37.4904C202.131 31.242 212.261 31.242 218.51 37.4904V37.4904C224.758 43.7387 224.758 53.8694 218.51 60.1178L60.1178 218.51Z"/>
</mask>
<path d="M43.1472 201.539L201.539 43.1472L190.225 31.8335L31.8335 190.225L43.1472 201.539ZM212.853 54.4609L54.4609 212.853L65.7746 224.167L224.167 65.7746L212.853 54.4609ZM212.853 43.1472C215.977 46.2714 215.977 51.3367 212.853 54.4609L224.167 65.7746C233.539 56.402 233.539 41.2061 224.167 31.8335L212.853 43.1472ZM201.539 43.1472C204.663 40.023 209.729 40.023 212.853 43.1472L224.167 31.8335C214.794 22.4609 199.598 22.4609 190.225 31.8335L201.539 43.1472ZM43.1472 212.853C40.023 209.729 40.023 204.663 43.1472 201.539L31.8335 190.225C22.4609 199.598 22.4609 214.794 31.8335 224.167L43.1472 212.853ZM31.8335 224.167C41.2061 233.539 56.402 233.539 65.7746 224.167L54.4609 212.853C51.3367 215.977 46.2714 215.977 43.1472 212.853L31.8335 224.167Z" fill="white" mask="url(#path-1-inside-1_10_20)"/>
</svg>
