<svg width="256" height="256" viewBox="0 0 256 256" fill="none" xmlns="http://www.w3.org/2000/svg">
<path fill-rule="evenodd" clip-rule="evenodd" d="M71.4812 183L74.0228 173.025L107.503 41.6249L109.038 35.6001H115.255H140.815H147.032L148.567 41.6248L182.047 173.025L184.186 181.42L198.05 166.553C203.442 160.77 212.502 160.454 218.285 165.846C224.068 171.239 224.385 180.299 218.992 186.082L173.753 234.595C173.574 234.786 173.392 234.972 173.205 235.152C167.779 240.627 158.95 240.833 153.275 235.541L125.553 209.69C119.77 204.297 119.454 195.237 124.846 189.454C130.239 183.671 139.299 183.355 145.082 188.747L139.626 194.598C137.074 192.219 133.077 192.358 130.697 194.91C128.318 197.462 128.457 201.459 131.009 203.839L158.731 229.69C161.257 232.046 165.202 231.932 167.589 229.452C167.696 229.352 167.801 229.248 167.902 229.139L213.141 180.626C215.521 178.074 215.381 174.077 212.829 171.697C210.278 169.318 206.28 169.457 203.9 172.009L168.194 210.3L162.738 216.15L156.887 210.695L139.626 194.598L145.082 188.747L162.343 204.844L182.713 183H174.295H154.675H148.355L146.892 176.851L140.435 149.7H115.816L109.358 176.851L107.896 183H101.575H81.7752H71.4812ZM109.495 141.7H146.755L154.675 175H166.04H174.295L172.257 167L140.815 43.6001H115.255L83.8135 167L81.7752 175H90.0308H101.575L109.495 141.7ZM123.969 79.871C123.404 82.2812 122.78 84.8309 122.095 87.5201L114.982 117.68L113.095 125.68H121.315H134.754H142.975L141.079 117.68L133.975 87.7001C133.335 84.9446 132.736 82.3405 132.177 79.8877C131.447 76.6825 130.785 73.7358 130.193 71.0474C130.191 71.0407 130.19 71.0341 130.188 71.0274C130.13 70.7624 130.072 70.5 130.015 70.2401C129.055 65.2001 128.395 61.7801 128.035 59.9801C127.675 61.7801 127.015 65.2001 126.055 70.2401C126.005 70.499 125.953 70.7603 125.901 71.0238C125.892 71.0654 125.884 71.1071 125.876 71.1488C125.342 73.8188 124.707 76.7262 123.969 79.871ZM128.018 97.2568L123.201 117.68H132.858L128.018 97.2568Z" fill="white"/>
</svg>
