<svg width="256" height="256" viewBox="0 0 256 256" fill="none" xmlns="http://www.w3.org/2000/svg">
<rect width="256" height="256" stroke="white"/>
<mask id="path-2-outside-1_34_496" maskUnits="userSpaceOnUse" x="70.7751" y="35.6001" width="153" height="204" fill="black">
<rect fill="white" x="70.7751" y="35.6001" width="153" height="204"/>
<path fill-rule="evenodd" clip-rule="evenodd" d="M115.255 43.6001L81.7751 175H101.575L109.495 141.7H146.755L154.675 175H174.295L140.815 43.6001H115.255ZM142.975 125.68H113.095L122.095 87.5201C123.775 80.9201 125.095 75.1601 126.055 70.2401C127.015 65.2001 127.675 61.7801 128.035 59.9801C128.395 61.7801 129.055 65.2001 130.015 70.2401C131.095 75.1601 132.415 80.9801 133.975 87.7001L142.975 125.68ZM158.731 229.69C161.257 232.046 165.202 231.932 167.589 229.452C167.696 229.352 167.801 229.248 167.902 229.139L213.141 180.626C215.521 178.074 215.381 174.077 212.829 171.697C210.278 169.318 206.28 169.457 203.9 172.009L162.738 216.15L139.626 194.598C137.074 192.219 133.077 192.358 130.697 194.91C128.318 197.462 128.457 201.459 131.009 203.839L158.731 229.69Z"/>
</mask>
<path d="M81.7751 175L74.0228 173.025L71.4812 183H81.7751V175ZM115.255 43.6001V35.6001H109.038L107.503 41.6248L115.255 43.6001ZM101.575 175V183H107.896L109.358 176.851L101.575 175ZM109.495 141.7V133.7H103.175L101.712 139.849L109.495 141.7ZM146.755 141.7L154.538 139.849L153.076 133.7H146.755V141.7ZM154.675 175L146.892 176.851L148.355 183H154.675V175ZM174.295 175V183H184.589L182.047 173.025L174.295 175ZM140.815 43.6001L148.567 41.6248L147.032 35.6001H140.815V43.6001ZM113.095 125.68L105.309 123.844L102.989 133.68H113.095V125.68ZM142.975 125.68V133.68H153.092L150.76 123.835L142.975 125.68ZM122.095 87.5201L114.342 85.5467L114.325 85.615L114.309 85.6837L122.095 87.5201ZM126.055 70.2401L133.907 71.7722L133.911 71.7546L133.914 71.737L126.055 70.2401ZM128.035 59.9801L135.88 58.4112L120.191 58.4112L128.035 59.9801ZM130.015 70.2401L122.156 71.737L122.177 71.8465L122.201 71.9554L130.015 70.2401ZM133.975 87.7001L126.182 89.5091L126.187 89.5269L126.191 89.5447L133.975 87.7001ZM167.589 229.452L162.129 223.606L161.973 223.751L161.826 223.904L167.589 229.452ZM158.731 229.69L153.275 235.541L158.731 229.69ZM167.902 229.139L173.753 234.595H173.753L167.902 229.139ZM213.141 180.626L218.992 186.082L218.992 186.082L213.141 180.626ZM212.829 171.697L207.373 177.548L207.373 177.548L212.829 171.697ZM203.9 172.009L198.05 166.553L198.05 166.553L203.9 172.009ZM162.738 216.15L157.282 222.001L163.133 227.457L168.589 221.606L162.738 216.15ZM139.626 194.598L145.082 188.747L145.082 188.747L139.626 194.598ZM130.697 194.91L124.846 189.454L124.846 189.454L130.697 194.91ZM131.009 203.839L125.553 209.69H125.553L131.009 203.839ZM89.5275 176.975L123.007 45.5753L107.503 41.6248L74.0228 173.025L89.5275 176.975ZM101.575 167H81.7751V183H101.575V167ZM101.712 139.849L93.7923 173.149L109.358 176.851L117.278 143.551L101.712 139.849ZM146.755 133.7H109.495V149.7H146.755V133.7ZM162.458 173.149L154.538 139.849L138.972 143.551L146.892 176.851L162.458 173.149ZM174.295 167H154.675V183H174.295V167ZM133.063 45.5753L166.543 176.975L182.047 173.025L148.567 41.6248L133.063 45.5753ZM115.255 51.6001H140.815V35.6001H115.255V51.6001ZM113.095 133.68H142.975V117.68H113.095V133.68ZM114.309 85.6837L105.309 123.844L120.882 127.517L129.882 89.3565L114.309 85.6837ZM118.203 68.708C117.28 73.4384 115.997 79.045 114.342 85.5467L129.848 89.4935C131.553 82.7952 132.91 76.8818 133.907 71.7722L118.203 68.708ZM120.191 58.4112C119.822 60.2525 119.156 63.7073 118.196 68.7432L133.914 71.737C134.875 66.6929 135.528 63.3077 135.88 61.549L120.191 58.4112ZM137.874 68.7432C136.915 63.7073 136.248 60.2525 135.88 58.4112L120.191 61.549C120.542 63.3077 121.196 66.6929 122.156 71.737L137.874 68.7432ZM141.768 85.8911C140.213 79.1918 138.9 73.4045 137.829 68.5248L122.201 71.9554C123.29 76.9157 124.618 82.7684 126.182 89.5091L141.768 85.8911ZM150.76 123.835L141.76 85.8554L126.191 89.5447L135.191 127.525L150.76 123.835ZM161.826 223.904C162.463 223.242 163.513 223.211 164.187 223.839L153.275 235.541C159.002 240.881 167.94 240.623 173.353 235L161.826 223.904ZM162.051 223.683C162.076 223.657 162.101 223.631 162.129 223.606L173.05 235.299C173.291 235.074 173.525 234.839 173.753 234.595L162.051 223.683ZM207.29 175.17L162.051 223.683L173.753 234.595L218.992 186.082L207.29 175.17ZM207.373 177.548C206.694 176.914 206.657 175.85 207.29 175.17L218.992 186.082C224.385 180.299 224.068 171.239 218.285 165.846L207.373 177.548ZM209.751 177.465C209.118 178.145 208.053 178.182 207.373 177.548L218.285 165.846C212.502 160.454 203.442 160.77 198.05 166.553L209.751 177.465ZM168.589 221.606L209.751 177.465L198.05 166.553L156.887 210.695L168.589 221.606ZM134.17 200.449L157.282 222.001L168.194 210.3L145.082 188.747L134.17 200.449ZM136.548 200.366C135.914 201.046 134.85 201.083 134.17 200.449L145.082 188.747C139.299 183.355 130.239 183.671 124.846 189.454L136.548 200.366ZM136.465 197.988C137.145 198.622 137.182 199.686 136.548 200.366L124.846 189.454C119.454 195.237 119.77 204.297 125.553 209.69L136.465 197.988ZM164.187 223.839L136.465 197.988L125.553 209.69L153.275 235.541L164.187 223.839Z" fill="white" mask="url(#path-2-outside-1_34_496)"/>
</svg>
