<svg width="256" height="256" viewBox="0 0 256 256" fill="none" xmlns="http://www.w3.org/2000/svg">
<path d="M52 128H56H52ZM52 181H56H52ZM52 75H56V75L52 75ZM59 68V64V68ZM97 68V64V68ZM97 42V46V42ZM59 42V46V42ZM26 75H30H26ZM26 128H22H26ZM26 181H30H26ZM59 214V210H59L59 214ZM197 68V64V68ZM159 68V64V68ZM159 42V46V42ZM197 42V46V42ZM197 214V210V214ZM48 128L48 181H56L56 128H48ZM48 75L48 128H56L56 75H48ZM59 64C52.9249 64 48 68.9249 48 75L56 75C56 73.3431 57.3431 72 59 72V64ZM97 64L59 64V72L97 72V64ZM106 55C106 59.9706 101.971 64 97 64V72C106.389 72 114 64.3888 114 55H106ZM97 46C101.971 46 106 50.0294 106 55H114C114 45.6112 106.389 38 97 38V46ZM59 46L97 46V38L59 38V46ZM30 75C30 58.9837 42.9837 46 59 46V38C38.5655 38 22 54.5655 22 75H30ZM30 128L30 75H22L22 128H30ZM30 181L30 128H22L22 181H30ZM59 210C42.9837 210 30 197.016 30 181H22C22 201.435 38.5655 218 59 218L59 210ZM97 210H59V218H97V210ZM106 201C106 205.971 101.971 210 97 210V218C106.389 218 114 210.389 114 201H106ZM97 192C101.971 192 106 196.029 106 201H114C114 191.611 106.389 184 97 184V192ZM59 192H97V184H59V192ZM48 181C48 187.075 52.9249 192 59 192V184C57.3431 184 56 182.657 56 181H48ZM200 128V181H208V128H200ZM200 75V128H208V75H200ZM197 72C198.657 72 200 73.3431 200 75H208C208 68.9249 203.075 64 197 64V72ZM159 72L197 72V64L159 64V72ZM142 55C142 64.3888 149.611 72 159 72V64C154.029 64 150 59.9706 150 55H142ZM159 38C149.611 38 142 45.6112 142 55H150C150 50.0294 154.029 46 159 46V38ZM197 38L159 38V46L197 46V38ZM234 75C234 54.5655 217.435 38 197 38V46C213.016 46 226 58.9837 226 75H234ZM234 128V75H226V128H234ZM234 181V128H226V181H234ZM197 218C217.435 218 234 201.435 234 181H226C226 197.016 213.016 210 197 210V218ZM159 218H197V210H159V218ZM142 201C142 210.389 149.611 218 159 218V210C154.029 210 150 205.971 150 201H142ZM159 184C149.611 184 142 191.611 142 201H150C150 196.029 154.029 192 159 192V184ZM197 184H159V192H197V184ZM200 181C200 182.657 198.657 184 197 184V192C203.075 192 208 187.075 208 181H200Z" fill="white"/>
</svg>
