<svg width="256" height="256" viewBox="0 0 256 256" fill="none" xmlns="http://www.w3.org/2000/svg">
<mask id="path-1-outside-1_86_10" maskUnits="userSpaceOnUse" x="5.03491" y="20.8486" width="246" height="215" fill="black">
<rect fill="white" x="5.03491" y="20.8486" width="246" height="215"/>
<path fill-rule="evenodd" clip-rule="evenodd" d="M27.0349 75.8486L27.0349 128L27.0349 180.151C27.0349 198.376 41.8095 213.151 60.0349 213.151H97.3605C104.54 213.151 110.36 207.331 110.36 200.151C110.36 192.971 104.54 187.151 97.3605 187.151L60.0349 187.151C56.1689 187.151 53.0349 184.017 53.0349 180.151L53.0349 128L53.0349 75.8486C53.0349 71.9826 56.1689 68.8486 60.0349 68.8486L97.3605 68.8486C104.54 68.8486 110.36 63.0283 110.36 55.8486C110.36 48.6689 104.54 42.8486 97.3605 42.8486L60.0349 42.8486C41.8095 42.8486 27.0349 57.6232 27.0349 75.8486ZM228.965 75.8486V128V180.151C228.965 198.376 214.19 213.151 195.965 213.151H158.64C151.46 213.151 145.64 207.331 145.64 200.151C145.64 192.971 151.46 187.151 158.64 187.151L195.965 187.151C199.831 187.151 202.965 184.017 202.965 180.151V128V75.8486C202.965 71.9826 199.831 68.8486 195.965 68.8486L158.64 68.8486C151.46 68.8486 145.64 63.0283 145.64 55.8486C145.64 48.6689 151.46 42.8486 158.64 42.8486L195.965 42.8486C214.19 42.8486 228.965 57.6232 228.965 75.8486Z"/>
</mask>
<path d="M27.0349 128H49.0349H27.0349ZM27.0349 75.8486H5.03491V75.8486L27.0349 75.8486ZM27.0349 180.151H5.03491H27.0349ZM97.3605 187.151V165.151H97.3605L97.3605 187.151ZM60.0349 187.151V209.151H60.0349L60.0349 187.151ZM53.0349 180.151L75.0349 180.151V180.151H53.0349ZM53.0349 128H31.0349H53.0349ZM53.0349 75.8486H75.0349V75.8486L53.0349 75.8486ZM60.0349 68.8486L60.0349 90.8486H60.0349L60.0349 68.8486ZM97.3605 68.8486L97.3605 46.8486L97.3605 68.8486ZM97.3605 42.8486L97.3605 20.8486L97.3605 42.8486ZM60.0349 42.8486L60.0349 64.8486H60.0349L60.0349 42.8486ZM158.64 187.151V165.151V187.151ZM195.965 187.151L195.965 209.151H195.965V187.151ZM195.965 68.8486V90.8486V68.8486ZM158.64 68.8486L158.64 46.8486L158.64 68.8486ZM158.64 42.8486L158.64 20.8486L158.64 42.8486ZM195.965 42.8486V64.8486V42.8486ZM49.0349 128L49.0349 75.8486L5.03491 75.8486L5.03492 128H49.0349ZM49.0349 180.151L49.0349 128H5.03492L5.03491 180.151H49.0349ZM60.0349 191.151C53.9598 191.151 49.0349 186.226 49.0349 180.151H5.03491C5.03491 210.527 29.6593 235.151 60.0349 235.151V191.151ZM97.3605 191.151H60.0349V235.151H97.3605V191.151ZM88.3605 200.151C88.3605 195.18 92.3899 191.151 97.3605 191.151V235.151C116.69 235.151 132.36 219.481 132.36 200.151H88.3605ZM97.3605 209.151C92.3899 209.151 88.3605 205.122 88.3605 200.151H132.36C132.36 180.821 116.69 165.151 97.3605 165.151V209.151ZM60.0349 209.151L97.3605 209.151L97.3605 165.151L60.0349 165.151L60.0349 209.151ZM31.0349 180.151C31.0349 196.167 44.0187 209.151 60.0349 209.151V165.151C68.3192 165.151 75.0349 171.867 75.0349 180.151L31.0349 180.151ZM31.0349 128L31.0349 180.151H75.0349L75.0349 128H31.0349ZM31.0349 75.8486L31.0349 128H75.0349L75.0349 75.8486H31.0349ZM60.0349 46.8486C44.0187 46.8486 31.0349 59.8324 31.0349 75.8487L75.0349 75.8486C75.0349 84.1329 68.3192 90.8486 60.0349 90.8486L60.0349 46.8486ZM97.3605 46.8486L60.0349 46.8486L60.0349 90.8486L97.3605 90.8486L97.3605 46.8486ZM88.3605 55.8486C88.3605 50.8781 92.3899 46.8486 97.3605 46.8486L97.3605 90.8486C116.69 90.8486 132.36 75.1786 132.36 55.8486H88.3605ZM97.3605 64.8486C92.3899 64.8486 88.3605 60.8192 88.3605 55.8486H132.36C132.36 36.5187 116.69 20.8486 97.3605 20.8486L97.3605 64.8486ZM60.0349 64.8486L97.3605 64.8486L97.3605 20.8486L60.0349 20.8486L60.0349 64.8486ZM49.0349 75.8486C49.0349 69.7735 53.9598 64.8486 60.0349 64.8486L60.0349 20.8486C29.6593 20.8486 5.03491 45.473 5.03491 75.8486H49.0349ZM250.965 128V75.8486H206.965V128H250.965ZM250.965 180.151V128H206.965V180.151H250.965ZM195.965 235.151C226.341 235.151 250.965 210.527 250.965 180.151H206.965C206.965 186.226 202.04 191.151 195.965 191.151V235.151ZM158.64 235.151H195.965V191.151H158.64V235.151ZM123.64 200.151C123.64 219.481 139.31 235.151 158.64 235.151V191.151C163.61 191.151 167.64 195.18 167.64 200.151H123.64ZM158.64 165.151C139.31 165.151 123.64 180.821 123.64 200.151H167.64C167.64 205.122 163.61 209.151 158.64 209.151V165.151ZM195.965 165.151L158.64 165.151L158.64 209.151L195.965 209.151L195.965 165.151ZM180.965 180.151C180.965 171.867 187.681 165.151 195.965 165.151V209.151C211.981 209.151 224.965 196.167 224.965 180.151H180.965ZM180.965 128V180.151H224.965V128H180.965ZM180.965 75.8486V128H224.965V75.8486H180.965ZM195.965 90.8486C187.681 90.8486 180.965 84.1329 180.965 75.8486H224.965C224.965 59.8324 211.981 46.8486 195.965 46.8486L195.965 90.8486ZM158.64 90.8486L195.965 90.8486L195.965 46.8486L158.64 46.8486L158.64 90.8486ZM123.64 55.8486C123.64 75.1786 139.31 90.8486 158.64 90.8486L158.64 46.8486C163.61 46.8486 167.64 50.8781 167.64 55.8486H123.64ZM158.64 20.8486C139.31 20.8486 123.64 36.5187 123.64 55.8486H167.64C167.64 60.8192 163.61 64.8486 158.64 64.8486L158.64 20.8486ZM195.965 20.8486L158.64 20.8486L158.64 64.8486L195.965 64.8486L195.965 20.8486ZM250.965 75.8486C250.965 45.473 226.341 20.8486 195.965 20.8486L195.965 64.8486C202.04 64.8486 206.965 69.7735 206.965 75.8486H250.965Z" fill="white" mask="url(#path-1-outside-1_86_10)"/>
</svg>
