<svg width="256" height="256" viewBox="0 0 256 256" fill="none" xmlns="http://www.w3.org/2000/svg">
<g clip-path="url(#clip0_12_55)">
<path d="M119.897 10.2351C122.302 2.88577 132.698 2.88579 135.103 10.2351L157.465 78.5712C158.541 81.8592 161.609 84.0831 165.068 84.0831H237.311C245.075 84.0831 248.288 94.029 241.992 98.5711L183.644 140.664C180.82 142.701 179.638 146.33 180.721 149.64L203.031 217.817C205.439 225.178 197.028 231.324 190.747 226.793L132.18 184.543C129.386 182.527 125.614 182.527 122.82 184.543L64.2528 226.793C57.9721 231.324 49.5605 225.178 51.9691 217.817L74.2791 149.64C75.3619 146.33 74.18 142.701 71.3562 140.664L13.0084 98.571C6.7122 94.0289 9.9253 84.0831 17.6888 84.0831H89.9317C93.3913 84.0831 96.459 81.8592 97.535 78.5711L119.897 10.2351Z" stroke="white" stroke-width="8"/>
</g>
<defs>
<clipPath id="clip0_12_55">
<rect width="256" height="256" fill="white"/>
</clipPath>
</defs>
</svg>
