<svg width="256" height="256" viewBox="0 0 256 256" fill="none" xmlns="http://www.w3.org/2000/svg">
  <mask id="path-2-outside-1_33_468" maskUnits="userSpaceOnUse" x="60.0942" y="51.6201" width="136" height="152" fill="black">
    <rect fill="white" x="60.0942" y="51.6201" width="136" height="152"/>
    <path fill-rule="evenodd" clip-rule="evenodd" d="M106.435 190.48C112.675 193.36 120.115 194.8 128.755 194.8C136.795 194.8 143.815 193.3 149.815 190.3C155.935 187.3 160.675 183.1 164.035 177.7C167.395 172.3 169.075 166 169.075 158.8C169.075 149.92 166.675 142.18 161.875 135.58C160.295 133.407 158.5 131.442 156.49 129.686L182.979 130.19C185.74 130.243 188.021 128.047 188.073 125.286C188.126 122.525 185.93 120.245 183.17 120.192L134.421 119.263L123.535 115.78C118.135 114.1 113.995 111.28 111.115 107.32C108.235 103.36 106.795 98.6801 106.795 93.2801C106.795 87.2801 108.715 82.6001 112.555 79.2401C116.515 75.8801 121.975 74.2001 128.935 74.2001C136.015 74.2001 141.475 76.0601 145.315 79.7801C149.275 83.3801 151.255 88.4201 151.255 94.9001H167.455C167.335 84.2201 163.795 75.7001 156.835 69.3401C149.875 62.8601 140.635 59.6201 129.115 59.6201C121.315 59.6201 114.535 61.1201 108.775 64.1201C103.015 67.0001 98.5151 71.0801 95.2751 76.3601C92.1551 81.5201 90.5951 87.6401 90.5951 94.7201C90.5951 103.48 92.9951 111.1 97.7951 117.58C98.0522 117.919 98.3149 118.252 98.5832 118.581L73.1895 118.097C70.4286 118.045 68.1478 120.24 68.0952 123.001C68.0426 125.762 70.2381 128.043 72.999 128.095L111.913 128.837C114.022 129.837 116.276 130.704 118.675 131.44L136.495 137.02C141.775 138.58 145.795 141.34 148.555 145.3C151.435 149.26 152.875 153.88 152.875 159.16C152.875 165.76 150.715 170.92 146.395 174.64C142.195 178.36 136.315 180.22 128.755 180.22C120.715 180.22 114.415 178.3 109.855 174.46C105.415 170.62 103.195 165.4 103.195 158.8H86.9951C87.1151 166.24 88.8551 172.66 92.2151 178.06C95.5751 183.46 100.315 187.6 106.435 190.48Z"/>
  </mask>
  <path d="M106.435 190.48L103.029 197.719L103.056 197.731L103.083 197.744L106.435 190.48ZM149.815 190.3L146.294 183.117L146.266 183.131L146.237 183.145L149.815 190.3ZM164.035 177.7L157.243 173.474L157.243 173.474L164.035 177.7ZM161.875 135.58L168.345 130.875V130.875L161.875 135.58ZM156.49 129.686L156.643 121.687L134.707 121.269L151.225 135.709L156.49 129.686ZM182.979 130.19L183.131 122.192L182.979 130.19ZM188.073 125.286L196.072 125.439L188.073 125.286ZM183.17 120.192L183.017 128.191H183.017L183.17 120.192ZM134.421 119.263L131.982 126.883L133.098 127.24L134.268 127.262L134.421 119.263ZM123.535 115.78L125.973 108.161L125.943 108.151L125.912 108.141L123.535 115.78ZM111.115 107.32L117.585 102.615L117.585 102.615L111.115 107.32ZM112.555 79.2401L107.379 73.14L107.333 73.1794L107.287 73.2195L112.555 79.2401ZM145.315 79.7801L139.749 85.526L139.84 85.6143L139.934 85.6996L145.315 79.7801ZM151.255 94.9001H143.255V102.9H151.255V94.9001ZM167.455 94.9001V102.9H175.546L175.455 94.8102L167.455 94.9001ZM156.835 69.3401L151.384 75.1953L151.411 75.2207L151.439 75.2458L156.835 69.3401ZM108.775 64.1201L112.353 71.2755L112.412 71.246L112.471 71.2154L108.775 64.1201ZM95.2751 76.3601L88.4565 72.176L88.4428 72.1983L88.4292 72.2208L95.2751 76.3601ZM97.7951 117.58L91.3666 122.342L91.3949 122.38L91.4235 122.418L97.7951 117.58ZM98.5832 118.581L98.4308 126.579L115.713 126.909L104.779 113.521L98.5832 118.581ZM73.1895 118.097L73.0371 126.096L73.1895 118.097ZM68.0952 123.001L76.0937 123.153L68.0952 123.001ZM72.999 128.095L72.8467 136.094H72.8467L72.999 128.095ZM111.913 128.837L115.34 121.608L113.786 120.871L112.065 120.838L111.913 128.837ZM118.675 131.44L121.066 123.806L121.043 123.799L121.021 123.792L118.675 131.44ZM136.495 137.02L134.105 144.655L134.166 144.674L134.228 144.692L136.495 137.02ZM148.555 145.3L141.992 149.874L142.038 149.94L142.085 150.005L148.555 145.3ZM146.395 174.64L141.175 168.578L141.133 168.614L141.091 168.651L146.395 174.64ZM109.855 174.46L104.622 180.511L104.662 180.545L104.702 180.579L109.855 174.46ZM103.195 158.8H111.195V150.8H103.195V158.8ZM86.9951 158.8V150.8H78.865L78.9961 158.929L86.9951 158.8ZM92.2151 178.06L85.4226 182.287V182.287L92.2151 178.06ZM128.755 186.8C120.984 186.8 114.743 185.503 109.788 183.216L103.083 197.744C110.608 201.217 119.246 202.8 128.755 202.8V186.8ZM146.237 183.145C141.548 185.49 135.797 186.8 128.755 186.8V202.8C137.793 202.8 146.082 201.111 153.393 197.456L146.237 183.145ZM157.243 173.474C154.732 177.509 151.168 180.727 146.294 183.117L153.336 197.483C160.702 193.873 166.619 188.691 170.828 181.927L157.243 173.474ZM161.075 158.8C161.075 164.709 159.713 169.504 157.243 173.474L170.828 181.927C175.077 175.097 177.075 167.292 177.075 158.8H161.075ZM155.405 140.285C159.122 145.396 161.075 151.454 161.075 158.8H177.075C177.075 148.387 174.228 138.964 168.345 130.875L155.405 140.285ZM151.225 135.709C152.782 137.07 154.174 138.592 155.405 140.285L168.345 130.875C166.416 128.222 164.218 125.815 161.755 123.663L151.225 135.709ZM183.131 122.192L156.643 121.687L156.338 137.684L182.827 138.189L183.131 122.192ZM180.075 125.134C180.106 123.477 181.475 122.16 183.131 122.192L182.827 138.189C190.005 138.325 195.935 132.617 196.072 125.439L180.075 125.134ZM183.017 128.191C181.361 128.159 180.043 126.791 180.075 125.134L196.072 125.439C196.209 118.26 190.5 112.33 183.322 112.193L183.017 128.191ZM134.268 127.262L183.017 128.191L183.322 112.193L134.573 111.265L134.268 127.262ZM121.097 123.4L131.982 126.883L136.859 111.644L125.973 108.161L121.097 123.4ZM104.645 112.025C108.69 117.587 114.379 121.31 121.159 123.419L125.912 108.141C121.891 106.89 119.3 104.973 117.585 102.615L104.645 112.025ZM98.7951 93.2801C98.7951 100.188 100.668 106.557 104.645 112.026L117.585 102.615C115.802 100.163 114.795 97.1721 114.795 93.2801H98.7951ZM107.287 73.2195C101.401 78.3699 98.7951 85.42 98.7951 93.2801H114.795C114.795 89.1403 116.029 86.8303 117.823 85.2607L107.287 73.2195ZM128.935 66.2001C120.729 66.2001 113.213 68.1902 107.379 73.14L117.731 85.3402C119.817 83.57 123.222 82.2001 128.935 82.2001V66.2001ZM150.881 74.0342C145.115 68.4483 137.399 66.2001 128.935 66.2001V82.2001C134.632 82.2001 137.835 83.6719 139.749 85.526L150.881 74.0342ZM159.255 94.9001C159.255 86.6811 156.671 79.2917 150.696 73.8606L139.934 85.6996C141.88 87.4686 143.255 90.1591 143.255 94.9001H159.255ZM167.455 86.9001H151.255V102.9H167.455V86.9001ZM151.439 75.2458C156.538 79.9058 159.357 86.2013 159.456 94.99L175.455 94.8102C175.313 82.2389 171.052 71.4944 162.232 63.4344L151.439 75.2458ZM129.115 67.6201C139.064 67.6201 146.205 70.3733 151.384 75.1953L162.286 63.485C153.546 55.3469 142.207 51.6201 129.115 51.6201V67.6201ZM112.471 71.2154C116.882 68.918 122.345 67.6201 129.115 67.6201V51.6201C120.285 51.6201 112.189 53.3222 105.08 57.0248L112.471 71.2154ZM102.094 80.5443C104.52 76.5898 107.874 73.515 112.353 71.2755L105.197 56.9647C98.1563 60.4852 92.5099 65.5704 88.4565 72.176L102.094 80.5443ZM98.5951 94.7201C98.5951 88.8422 99.8788 84.2077 102.121 80.4995L88.4292 72.2208C84.4314 78.8326 82.5951 86.438 82.5951 94.7201H98.5951ZM104.224 112.818C100.534 107.837 98.5951 101.922 98.5951 94.7201H82.5951C82.5951 105.038 85.4566 114.363 91.3666 122.342L104.224 112.818ZM104.779 113.521C104.571 113.265 104.367 113.006 104.167 112.742L91.4235 122.418C91.7376 122.831 92.0588 123.239 92.3869 123.641L104.779 113.521ZM73.0371 126.096L98.4308 126.579L98.7355 110.582L73.3418 110.099L73.0371 126.096ZM76.0937 123.153C76.0622 124.81 74.6937 126.127 73.0371 126.096L73.3418 110.099C66.1634 109.962 60.2333 115.67 60.0966 122.849L76.0937 123.153ZM73.1514 120.097C74.8079 120.128 76.1253 121.497 76.0937 123.153L60.0966 122.849C59.9599 130.027 65.6683 135.957 72.8467 136.094L73.1514 120.097ZM112.065 120.838L73.1514 120.097L72.8467 136.094L111.761 136.835L112.065 120.838ZM121.021 123.792C118.965 123.161 117.074 122.43 115.34 121.608L108.486 136.065C110.97 137.243 113.588 138.248 116.33 139.089L121.021 123.792ZM138.886 129.386L121.066 123.806L116.285 139.075L134.105 144.655L138.886 129.386ZM155.118 140.726C151.175 135.069 145.526 131.347 138.762 129.348L134.228 144.692C138.024 145.814 140.415 147.612 141.992 149.874L155.118 140.726ZM160.875 159.16C160.875 152.329 158.979 146.031 155.025 140.595L142.085 150.005C143.891 152.489 144.875 155.431 144.875 159.16H160.875ZM151.615 180.702C157.987 175.215 160.875 167.682 160.875 159.16H144.875C144.875 163.839 143.443 166.625 141.175 168.578L151.615 180.702ZM128.755 188.22C137.583 188.22 145.593 186.037 151.699 180.629L141.091 168.651C138.797 170.683 135.047 172.22 128.755 172.22V188.22ZM104.702 180.579C111.139 186 119.489 188.22 128.755 188.22V172.22C121.941 172.22 117.691 170.6 115.008 168.341L104.702 180.579ZM95.1951 158.8C95.1951 167.4 98.1945 174.952 104.622 180.511L115.088 168.409C112.636 166.288 111.195 163.4 111.195 158.8H95.1951ZM86.9951 166.8H103.195V150.8H86.9951V166.8ZM99.0076 173.834C96.5355 169.861 95.0947 164.911 94.9941 158.671L78.9961 158.929C79.1355 167.57 81.1747 175.459 85.4226 182.287L99.0076 173.834ZM109.841 183.242C105.024 180.975 101.5 177.84 99.0076 173.834L85.4226 182.287C89.65 189.08 95.6061 194.226 103.029 197.719L109.841 183.242Z" fill="white" mask="url(#path-2-outside-1_33_468)"/>
</svg>
