<svg width="256" height="256" viewBox="0 0 256 256" fill="none" xmlns="http://www.w3.org/2000/svg">
<path d="M129.355 11C144.231 11 157.835 13.6889 169.902 19.3877L169.901 19.3887C181.861 25.0054 191.619 32.9121 198.814 43.1963L199.406 44.0508C205.435 52.9158 208.929 62.8948 209.921 73.7822C210.757 82.9632 203.304 89.868 195.104 89.8682H173.675C165.784 89.868 160.11 84.0162 158.764 77.5781C157.708 72.5285 155.216 68.7693 150.938 65.8105L150.884 65.7734C145.586 62.0622 138.428 59.8262 128.672 59.8262C121.639 59.8262 116.14 60.9765 111.868 62.8867L111.821 62.9082L111.774 62.9287C107.324 64.8694 104.345 67.328 102.342 70.1162C100.487 72.7196 99.5244 75.6477 99.5244 79.2705C99.5245 82.4225 100.214 84.5381 101.151 86.0615C102.549 88.2161 104.364 90.0654 106.709 91.6328C109.729 93.5309 112.979 95.151 116.478 96.4854C119.898 97.7285 123.161 98.7682 126.271 99.6123L127.603 99.9648L127.653 99.9775L127.704 99.9912L147.232 105.213C153.997 106.925 160.862 109.209 167.824 112.041H213C220.732 112.041 227 118.309 227 126.041V139.332C227 147.064 220.732 153.332 213 153.332H209.93C211.982 159.654 212.934 166.491 212.934 173.716C212.934 187.294 209.492 199.739 202.402 210.697L202.403 210.698C195.347 221.707 185.221 230.12 172.56 236.1C159.724 242.193 144.706 245 127.891 245C111.741 245 97.1832 242.366 84.5244 236.708C71.9304 231.079 61.7095 222.91 54.2656 212.11L54.2549 212.094L54.2441 212.078C47.6398 202.425 43.7755 191.338 42.4629 179.091C41.4785 169.906 48.8655 162.716 57.2822 162.716H79.6504C87.4515 162.716 93.1427 168.439 94.5234 174.928L94.6436 175.559L94.7832 176.32C95.5192 180.046 96.9147 182.927 98.8125 185.237C101.66 188.554 105.331 191.134 110.09 192.926C115.258 194.778 121.091 195.771 127.695 195.771C135.041 195.771 141.153 194.59 146.235 192.492C151.439 190.304 155.059 187.503 157.559 184.291C159.832 181.309 161.043 177.838 161.043 173.414C161.043 169.464 160.003 167.198 158.672 165.671L158.637 165.632L158.603 165.592C156.561 163.204 153.485 160.879 148.921 158.852L148.878 158.832C144.419 156.829 139.331 154.988 133.581 153.332H42C34.2682 153.332 28.0002 147.064 28 139.332V126.041C28 118.309 34.268 112.041 42 112.041H55.4434C50.0489 103.063 47.4385 92.6237 47.4385 81.0791C47.4385 67.175 51.1451 54.5574 58.835 43.6816C66.29 33.138 76.3171 25.0836 88.583 19.458V19.457C100.903 13.7391 114.564 11.0001 129.355 11Z" stroke="white" stroke-width="22"/>
</svg>
