<svg width="256" height="256" viewBox="0 0 256 256" fill="none" xmlns="http://www.w3.org/2000/svg">
<path fill-rule="evenodd" clip-rule="evenodd" d="M103.056 197.731L103.029 197.719C95.6062 194.226 89.65 189.08 85.4227 182.287C81.1747 175.459 79.1355 167.57 78.9962 158.929L78.8651 150.8H86.9951H103.195H111.195V158.8C111.195 163.375 112.62 166.257 115.048 168.375C117.733 170.616 121.975 172.22 128.755 172.22C135.047 172.22 138.797 170.683 141.091 168.651L141.133 168.614L141.175 168.578C143.443 166.625 144.875 163.839 144.875 159.16C144.875 155.431 143.891 152.489 142.085 150.005L142.038 149.94L141.992 149.874C140.415 147.612 138.024 145.814 134.228 144.692L134.166 144.674L134.105 144.655L116.307 139.082C114.165 138.424 112.098 137.666 110.113 136.804L72.8467 136.094C65.6683 135.957 59.9599 130.027 60.0966 122.849C60.2334 115.67 66.1635 109.962 73.3419 110.099L85.0632 110.322C83.4084 105.439 82.5951 100.221 82.5951 94.7201C82.5951 86.438 84.4314 78.8326 88.4293 72.2208L88.4428 72.1983L88.4565 72.176C92.4987 65.5888 98.1249 60.5136 105.139 56.9942C112.233 53.3128 120.31 51.6201 129.115 51.6201C142.193 51.6201 153.522 55.3392 162.259 63.4596C171.061 71.5168 175.314 82.252 175.455 94.8102L175.546 102.9H167.455H151.255H143.255V94.9001C143.255 90.1591 141.88 87.4686 139.934 85.6996L139.84 85.6143L139.749 85.526C137.835 83.6719 134.632 82.2001 128.935 82.2001C123.264 82.2001 119.868 83.5497 117.778 85.3007C116.009 86.8695 114.795 89.1753 114.795 93.2801C114.795 97.1721 115.802 100.163 117.585 102.615C119.3 104.973 121.891 106.89 125.912 108.141L125.943 108.151L125.973 108.161L135.744 111.287L183.322 112.193C190.5 112.33 196.209 118.26 196.072 125.439C195.935 132.617 190.005 138.325 182.827 138.189L172.585 137.994C175.602 144.331 177.075 151.309 177.075 158.8C177.075 167.292 175.077 175.097 170.828 181.927C166.624 188.683 160.716 193.86 153.364 197.47C146.061 201.115 137.781 202.8 128.755 202.8C119.246 202.8 110.608 201.217 103.083 197.744L103.056 197.731ZM149.815 190.3C155.935 187.3 160.675 183.1 164.035 177.7C167.395 172.3 169.075 166 169.075 158.8C169.075 150.905 167.178 143.911 163.384 137.818C162.91 137.058 162.408 136.312 161.875 135.58C160.295 133.407 158.5 131.442 156.49 129.686L167.614 129.898L182.979 130.19C185.74 130.243 188.021 128.047 188.073 125.286C188.126 122.525 185.93 120.245 183.17 120.192L134.421 119.263L123.535 115.78C118.135 114.1 113.995 111.28 111.115 107.32C108.235 103.36 106.795 98.6801 106.795 93.2801C106.795 87.2801 108.715 82.6001 112.555 79.2401C116.515 75.8801 121.975 74.2001 128.935 74.2001C136.015 74.2001 141.475 76.0601 145.315 79.7801C149.275 83.3801 151.255 88.4201 151.255 94.9001H159.255H159.455H167.455C167.423 92.0832 167.154 89.4165 166.646 86.9001C165.23 79.876 161.959 74.0226 156.835 69.3401C149.875 62.8601 140.635 59.6201 129.115 59.6201C121.315 59.6201 114.535 61.1201 108.775 64.1201C103.015 67.0001 98.5151 71.0801 95.2751 76.3601C92.1551 81.5201 90.5951 87.6401 90.5951 94.7201C90.5951 100.466 91.6277 105.721 93.6928 110.486C94.7761 112.986 96.1435 115.35 97.7951 117.58C98.0523 117.919 98.315 118.252 98.5832 118.581L96.5286 118.542L96.4978 118.541L88.7534 118.394L73.1895 118.097C70.4286 118.045 68.1478 120.24 68.0952 123.001C68.0426 125.762 70.2381 128.043 72.9991 128.095L111.913 128.837C114.022 129.837 116.276 130.704 118.675 131.44L136.495 137.02C141.775 138.58 145.795 141.34 148.555 145.3C151.435 149.26 152.875 153.88 152.875 159.16C152.875 165.76 150.715 170.92 146.395 174.64C142.195 178.36 136.315 180.22 128.755 180.22C120.715 180.22 114.415 178.3 109.855 174.46C105.415 170.62 103.195 165.4 103.195 158.8H95.1951H94.9964H86.9951C87.0405 161.613 87.3173 164.279 87.8257 166.8C88.6621 170.948 90.1253 174.701 92.2151 178.06C95.5751 183.46 100.315 187.6 106.435 190.48C112.675 193.36 120.115 194.8 128.755 194.8C136.795 194.8 143.815 193.3 149.815 190.3Z" fill="white"/>
</svg>
