<svg width="256" height="256" viewBox="0 0 256 256" fill="none" xmlns="http://www.w3.org/2000/svg">
<mask id="path-1-outside-1_710_32" maskUnits="userSpaceOnUse" x="0" y="26" width="209" height="204" fill="black">
<rect fill="white" y="26" width="209" height="204"/>
<path d="M171 176C179.837 176 187 183.163 187 192C187 200.837 179.837 208 171 208H38C29.1634 208 22 200.837 22 192C22 183.163 29.1634 176 38 176H171ZM115 112C123.837 112 131 119.163 131 128C131 136.837 123.837 144 115 144H38C29.1634 144 22 136.837 22 128C22 119.163 29.1634 112 38 112H115ZM159 48C167.837 48 175 55.1634 175 64C175 72.8366 167.837 80 159 80H38C29.1634 80 22 72.8366 22 64C22 55.1634 29.1634 48 38 48H159Z"/>
</mask>
<path d="M171 176V154V154V176ZM38 208L38 230H38V208ZM115 112V90V90V112ZM38 144L38 166H38V144ZM159 80V102V80ZM38 48V26V48ZM171 176V198C167.686 198 165 195.314 165 192H187H209C209 171.013 191.987 154 171 154V176ZM187 192H165C165 188.686 167.686 186 171 186V208V230C191.987 230 209 212.987 209 192H187ZM171 208V186H38V208V230H171V208ZM38 208L38 186C41.3137 186 44 188.686 44 192H22H0C0 212.987 17.0132 230 38 230L38 208ZM22 192H44C44 195.314 41.3137 198 38 198V176V154C17.0132 154 0 171.013 0 192H22ZM38 176V198H171V176V154H38V176ZM115 112V134C111.686 134 109 131.314 109 128H131H153C153 107.013 135.987 90 115 90V112ZM131 128H109C109 124.686 111.686 122 115 122V144V166C135.987 166 153 148.987 153 128H131ZM115 144V122H38V144V166H115V144ZM38 144L38 122C41.3137 122 44 124.686 44 128H22H0C0 148.987 17.0132 166 38 166L38 144ZM22 128H44C44 131.314 41.3137 134 38 134V112V90C17.0132 90 0 107.013 0 128H22ZM38 112V134H115V112V90H38V112ZM159 48V70C155.686 70 153 67.3137 153 64H175H197C197 43.0132 179.987 26 159 26V48ZM175 64H153C153 60.6863 155.686 58 159 58V80V102C179.987 102 197 84.9868 197 64H175ZM159 80V58H38V80V102H159V80ZM38 80V58C41.3137 58 44 60.6863 44 64H22H0C0 84.9868 17.0132 102 38 102V80ZM22 64H44C44 67.3137 41.3137 70 38 70V48V26C17.0132 26 0 43.0132 0 64H22ZM38 48V70H159V48V26H38V48Z" fill="white" mask="url(#path-1-outside-1_710_32)"/>
</svg>
