<svg width="256" height="256" viewBox="0 0 256 256" fill="none" xmlns="http://www.w3.org/2000/svg">
<path d="M205.622 11C212.022 11.0002 217.275 16.0166 217.605 22.3721L217.617 22.6758L218.968 72.6367C219.15 79.3885 213.727 84.9609 206.973 84.9609H194.285C188.166 84.9609 183.027 80.3561 182.357 74.2734L181.05 62.3965L181.036 62.2666L181.024 62.1357C180.75 58.9441 180.018 56.279 178.95 54.0215L178.803 53.709L178.675 53.3877C177.943 51.5518 176.948 50.3697 175.66 49.4893L175.474 49.3613L175.292 49.2266C174.652 48.7489 172.867 47.8457 168.663 47.8457H152.408V199.219C152.408 203.691 153.086 205.19 153.618 206.049C153.804 206.294 153.971 206.441 154.165 206.567C154.426 206.737 154.927 206.998 155.876 207.262C157.93 207.833 160.529 208.045 164.448 208.045H169.911C176.538 208.045 181.911 213.418 181.911 220.045V233C181.911 239.627 176.538 245 169.911 245H84.5273C77.8999 245 72.5273 239.627 72.5273 233V220.045C72.5274 213.418 77.9 208.045 84.5273 208.045H89.9893C93.3052 208.045 96.1132 207.734 98.4736 207.202C99.7253 206.821 100.357 206.29 100.831 205.652L100.888 205.576C101.107 205.286 102.029 203.748 102.029 199.219V47.8457H86.0557C82.1374 47.8457 80.4048 48.7068 79.708 49.2266L79.5264 49.3613L79.3398 49.4893C78.0522 50.3697 77.0568 51.5518 76.3252 53.3877L76.2861 53.4854L76.2461 53.5811C75.1905 56.0909 74.393 59.0372 73.9385 62.4941L72.6426 74.2734C71.9732 80.3561 66.8342 84.9609 60.7148 84.9609H48.0273C41.273 84.9609 35.8498 79.3886 36.0322 72.6367L37.3828 22.6758L37.3945 22.3721C37.7247 16.0166 42.9785 11.0001 49.3779 11H205.622Z" stroke="white" stroke-width="22"/>
</svg>
