<svg width="256" height="256" viewBox="0 0 256 256" fill="none" xmlns="http://www.w3.org/2000/svg">
  <path d="M27.6653 48.8848L31.0955 50.9424L31.0955 50.9424L27.6653 48.8848ZM41.3861 48.8848L37.9559 50.9424H37.9559L41.3861 48.8848ZM7.15194 83.0826L10.5821 85.1402L7.15194 83.0826ZM25.5257 95.1978H29.5257V91.1978H25.5257V95.1978ZM25.5257 161.698V165.698H29.5257V161.698H25.5257ZM7.15194 173.813L10.5821 171.755H10.5821L7.15194 173.813ZM27.6653 208.011L31.0955 205.953L27.6653 208.011ZM41.3861 208.011L37.9559 205.953H37.9559L41.3861 208.011ZM61.8995 173.813L65.3297 175.871L61.8995 173.813ZM43.5257 161.698H39.5257V165.698H43.5257V161.698ZM43.5257 95.1978V91.1978H39.5257V95.1978H43.5257ZM61.8995 83.0826L58.4693 85.1402L61.8995 83.0826ZM31.0955 50.9424C32.649 48.3525 36.4024 48.3525 37.9559 50.9424L44.8163 46.8272C40.1558 39.0576 28.8957 39.0576 24.2351 46.8272L31.0955 50.9424ZM10.5821 85.1402L31.0955 50.9424L24.2351 46.8272L3.72173 81.0251L10.5821 85.1402ZM14.0124 91.1978C10.9034 91.1978 8.9829 87.8063 10.5821 85.1402L3.72173 81.0251C-1.07602 89.0234 4.68545 99.1978 14.0124 99.1978V91.1978ZM25.5257 91.1978H14.0124V99.1978H25.5257V91.1978ZM29.5257 161.698L29.5257 95.1978H21.5257L21.5257 161.698H29.5257ZM14.0124 165.698H25.5257V157.698H14.0124V165.698ZM10.5821 171.755C8.9829 169.089 10.9034 165.698 14.0124 165.698V157.698C4.68545 157.698 -1.07602 167.872 3.72173 175.871L10.5821 171.755ZM31.0955 205.953L10.5821 171.755L3.72173 175.871L24.2351 210.068L31.0955 205.953ZM37.9559 205.953C36.4024 208.543 32.649 208.543 31.0955 205.953L24.2351 210.068C28.8957 217.838 40.1558 217.838 44.8164 210.068L37.9559 205.953ZM58.4693 171.755L37.9559 205.953L44.8163 210.068L65.3297 175.871L58.4693 171.755ZM55.0391 165.698C58.1481 165.698 60.0686 169.089 58.4693 171.755L65.3297 175.871C70.1275 167.872 64.366 157.698 55.0391 157.698V165.698ZM43.5257 165.698H55.0391V157.698H43.5257V165.698ZM39.5257 95.1978L39.5257 161.698H47.5257L47.5257 95.1978H39.5257ZM55.0391 91.1978H43.5257V99.1978H55.0391V91.1978ZM58.4693 85.1402C60.0686 87.8063 58.1481 91.1978 55.0391 91.1978V99.1978C64.366 99.1978 70.1275 89.0234 65.3297 81.0251L58.4693 85.1402ZM37.9559 50.9424L58.4693 85.1402L65.3297 81.0251L44.8163 46.8272L37.9559 50.9424ZM71 64C71 57.3726 76.3726 52 83 52V44C71.9543 44 63 52.9543 63 64H71ZM83 76C76.3726 76 71 70.6274 71 64H63C63 75.0457 71.9543 84 83 84V76ZM234 76H83V84H234V76ZM246 64C246 70.6274 240.627 76 234 76V84C245.046 84 254 75.0457 254 64H246ZM234 52C240.627 52 246 57.3726 246 64H254C254 52.9543 245.046 44 234 44V52ZM83 52H234V44H83V52ZM71 128C71 121.373 76.3726 116 83 116V108C71.9543 108 63 116.954 63 128H71ZM83 140C76.3726 140 71 134.627 71 128H63C63 139.046 71.9543 148 83 148V140ZM234 140H83V148H234V140ZM246 128C246 134.627 240.627 140 234 140V148C245.046 148 254 139.046 254 128H246ZM234 116C240.627 116 246 121.373 246 128H254C254 116.954 245.046 108 234 108V116ZM83 116H234V108H83V116ZM83 172C71.9543 172 63 180.954 63 192H71C71 185.373 76.3726 180 83 180V172ZM234 172H83V180H234V172ZM254 192C254 180.954 245.046 172 234 172V180C240.627 180 246 185.373 246 192H254ZM234 212C245.046 212 254 203.046 254 192H246C246 198.627 240.627 204 234 204V212ZM83 212H234V204H83V212ZM63 192C63 203.046 71.9543 212 83 212V204C76.3726 204 71 198.627 71 192H63Z" fill="white"/>
</svg>
