<svg width="256" height="256" viewBox="0 0 256 256" fill="none" xmlns="http://www.w3.org/2000/svg">
<mask id="path-1-outside-1_710_47" maskUnits="userSpaceOnUse" x="16" y="26" width="224" height="204" fill="black">
<rect fill="white" x="16" y="26" width="224" height="204"/>
<path d="M202 176C210.837 176 218 183.163 218 192C218 200.837 210.837 208 202 208H54C45.1634 208 38 200.837 38 192C38 183.163 45.1634 176 54 176H202ZM202 112C210.837 112 218 119.163 218 128C218 136.837 210.837 144 202 144H54C45.1634 144 38 136.837 38 128C38 119.163 45.1634 112 54 112H202ZM202 48C210.837 48 218 55.1634 218 64C218 72.8366 210.837 80 202 80H54C45.1634 80 38 72.8366 38 64C38 55.1634 45.1634 48 54 48H202Z"/>
</mask>
<path d="M202 176V154V154V176ZM54 208V230V230V208ZM202 112V90V90V112ZM54 144V166V166V144ZM202 48V26V26V48ZM54 80V102V102V80ZM202 176V198C198.686 198 196 195.314 196 192H218H240C240 171.013 222.987 154 202 154V176ZM218 192H196C196 188.686 198.686 186 202 186V208V230C222.987 230 240 212.987 240 192H218ZM202 208V186H54V208V230H202V208ZM54 208V186C57.3137 186 60 188.686 60 192H38H16C16 212.987 33.0132 230 54 230L54 208ZM38 192H60C60 195.314 57.3137 198 54 198V176V154C33.0132 154 16 171.013 16 192H38ZM54 176V198H202V176V154H54V176ZM202 112V134C198.686 134 196 131.314 196 128H218H240C240 107.013 222.987 90 202 90V112ZM218 128H196C196 124.686 198.686 122 202 122V144V166C222.987 166 240 148.987 240 128H218ZM202 144V122H54V144V166H202V144ZM54 144V122C57.3137 122 60 124.686 60 128H38H16C16 148.987 33.0132 166 54 166L54 144ZM38 128H60C60 131.314 57.3137 134 54 134V112V90C33.0132 90 16 107.013 16 128H38ZM54 112V134H202V112V90H54V112ZM202 48V70C198.686 70 196 67.3137 196 64H218H240C240 43.0132 222.987 26 202 26V48ZM218 64H196C196 60.6863 198.686 58 202 58V80V102C222.987 102 240 84.9868 240 64H218ZM202 80V58H54V80V102H202V80ZM54 80V58C57.3137 58 60 60.6863 60 64H38H16C16 84.9868 33.0132 102 54 102L54 80ZM38 64H60C60 67.3137 57.3137 70 54 70V48V26C33.0132 26 16 43.0132 16 64H38ZM54 48V70H202V48V26H54V48Z" fill="white" mask="url(#path-1-outside-1_710_47)"/>
</svg>
