<svg width="256" height="256" viewBox="0 0 256 256" fill="none" xmlns="http://www.w3.org/2000/svg">
<path opacity="0.8" fill-rule="evenodd" clip-rule="evenodd" d="M71.8105 70.1094H185.014L185.739 90.2222L185.955 96.2109L186.207 103.172L186.244 104.211H181.322C180.245 99.1468 179.068 95.0238 177.793 91.842C177.681 91.5632 177.568 91.2917 177.455 91.0273C176.166 87.6289 174.408 84.9922 172.182 83.1172C169.955 81.2422 167.025 80.0117 163.393 79.4258C159.76 78.8398 155.072 78.5469 149.33 78.5469H146.607H138.607V86.5469V181.379C138.607 185.012 138.842 187.941 139.311 190.168C139.728 192.15 140.47 193.761 141.538 195C141.669 195.153 141.806 195.3 141.947 195.441C143.354 196.73 145.287 197.668 147.748 198.254C150.326 198.723 153.666 199.074 157.768 199.309V203H157.557H149.768H146.885H146.618H138.665H118.111H110.382H110.156H107.408H99.6191H99.4082V199.309C103.51 199.074 106.791 198.723 109.252 198.254C111.713 197.668 113.588 196.672 114.877 195.266C114.957 195.179 115.036 195.09 115.112 195C116.382 193.507 117.182 191.544 117.514 189.113C117.982 186.535 118.217 183.137 118.217 178.918V86.5469V78.5469H110.217H107.318C101.693 78.5469 97.0644 78.8398 93.4316 79.4258C89.916 80.0117 86.9863 81.2422 84.6426 83.1172C82.416 84.9922 80.5996 87.6289 79.1934 91.0273C79.1446 91.1514 79.096 91.2771 79.0474 91.4044C77.8113 94.6425 76.6295 98.9114 75.5019 104.211H70.5801L70.6176 103.172L70.8687 96.2109L71.0984 89.8455L71.8105 70.1094ZM86.6125 94.0211C85.5578 96.7235 84.4449 100.621 83.3268 105.876L81.9789 112.211H75.5019H70.5801H62.2862L62.5853 103.922L63.8157 69.8209L64.094 62.1094H71.8105H185.014H192.73L193.008 69.8209L194.239 103.922L194.538 112.211H186.244H181.322H174.845L173.497 105.876C172.38 100.622 171.221 96.7891 170.102 94.1787L170.035 94.023L169.975 93.8646C169.051 91.4282 167.984 90.0409 167.029 89.2365C166.167 88.5113 164.694 87.7391 162.119 87.3237C159.072 86.8323 154.854 86.5469 149.33 86.5469H146.607V181.379C146.607 184.744 146.831 187.057 147.139 188.52C147.254 189.067 147.387 189.399 147.477 189.579C147.498 189.62 147.516 189.654 147.532 189.681C147.799 189.861 148.358 190.156 149.407 190.423C151.518 190.793 154.427 191.105 158.224 191.322L165.768 191.753V199.309V203V211H157.768H99.4082H91.4082V203V199.309V191.753L98.9518 191.322C102.767 191.104 105.596 190.792 107.561 190.432C108.579 190.171 108.935 189.896 108.989 189.85L108.989 189.85L108.999 189.839C109.038 189.796 109.4 189.403 109.587 188.032L109.611 187.857L109.643 187.682C109.99 185.772 110.217 182.909 110.217 178.918V86.5469H107.318C101.935 86.5469 97.7786 86.8299 94.7274 87.3202C92.3756 87.7148 90.8073 88.4552 89.7199 89.3012C88.7269 90.1619 87.6216 91.6041 86.6125 94.0211ZM108.996 189.843C108.996 189.843 108.994 189.845 108.991 189.848C108.994 189.845 108.996 189.843 108.996 189.843Z" fill="white"/>
</svg>
