<svg width="257" height="256" viewBox="0 0 257 256" fill="none" xmlns="http://www.w3.org/2000/svg">
<mask id="path-1-outside-1_710_344" maskUnits="userSpaceOnUse" x="-0.966187" y="23" width="257" height="211" fill="black">
<rect fill="white" x="-0.966187" y="23" width="257" height="211"/>
<path d="M43.6984 48.8847C46.8054 43.705 54.312 43.7051 57.4191 48.8847L77.9328 83.083C81.131 88.4151 77.2902 95.1982 71.0724 95.1982H59.5587V161.697H71.0724C77.2902 161.697 81.131 168.48 77.9328 173.812L57.4191 208.011C54.312 213.19 46.8054 213.19 43.6984 208.011L23.1857 173.812C19.9874 168.48 23.8281 161.697 30.046 161.697H41.5587V95.1982H30.046C23.8281 95.1982 19.9874 88.4152 23.1857 83.083L43.6984 48.8847ZM218.033 176C226.87 176 234.033 183.163 234.033 192C234.033 200.837 226.87 208 218.033 208H95.0333C86.1969 208 79.0333 200.836 79.0333 192C79.0334 183.164 86.1969 176 95.0333 176H218.033ZM218.033 112C226.87 112 234.033 119.163 234.033 128C234.033 136.837 226.87 144 218.033 144H95.0333C86.1969 144 79.0333 136.836 79.0333 128C79.0333 119.163 86.1969 112 95.0333 112H218.033ZM218.033 48C226.87 48 234.033 55.1634 234.033 64C234.033 72.8365 226.87 80 218.033 80H95.0333C86.1969 79.9998 79.0333 72.8364 79.0333 64C79.0333 55.1635 86.1969 48.0001 95.0333 48H218.033Z"/>
</mask>
<path d="M43.6984 48.8847L24.8322 37.568L24.832 37.5684L43.6984 48.8847ZM57.4191 48.8847L76.2852 37.568L76.285 37.5675L57.4191 48.8847ZM77.9328 83.083L96.7993 71.7669L96.7989 71.7662L77.9328 83.083ZM59.5587 95.1982V73.1982H37.5587V95.1982H59.5587ZM59.5587 161.697H37.5587V183.697H59.5587V161.697ZM77.9328 173.812L96.7989 185.129L96.7993 185.129L77.9328 173.812ZM57.4191 208.011L76.285 219.328L76.2852 219.327L57.4191 208.011ZM43.6984 208.011L24.832 219.327L24.8322 219.327L43.6984 208.011ZM23.1857 173.812L4.31931 185.129H4.31932L23.1857 173.812ZM41.5587 161.697V183.697H63.5587V161.697H41.5587ZM41.5587 95.1982H63.5587V73.1982H41.5587V95.1982ZM23.1857 83.083L4.31932 71.7666L4.31931 71.7666L23.1857 83.083ZM234.033 192H256.033V192L234.033 192ZM95.0333 208L95.033 230H95.0333V208ZM79.0333 192L57.0333 192V192H79.0333ZM95.0333 176V154H95.033L95.0333 176ZM234.033 128L256.033 128V128H234.033ZM95.0333 144L95.033 166H95.0333V144ZM79.0333 128H57.0333V128L79.0333 128ZM95.0333 112V90H95.033L95.0333 112ZM234.033 64L256.033 64V64H234.033ZM95.0333 80L95.033 102H95.0333V80ZM79.0333 64H57.0333V64L79.0333 64ZM95.0333 48V26H95.033L95.0333 48ZM43.6984 48.8847L62.5645 60.2015C57.1268 69.2668 43.9902 69.2654 38.5532 60.2019L57.4191 48.8847L76.285 37.5675C64.6337 18.1449 36.484 18.1433 24.8322 37.568L43.6984 48.8847ZM57.4191 48.8847L38.553 60.2015L59.0666 94.3997L77.9328 83.083L96.7989 71.7662L76.2852 37.568L57.4191 48.8847ZM77.9328 83.083L59.0662 94.399C53.4703 85.0693 60.1893 73.1982 71.0724 73.1982V95.1982V117.198C94.3912 117.198 108.792 91.761 96.7993 71.7669L77.9328 83.083ZM71.0724 95.1982V73.1982H59.5587V95.1982V117.198H71.0724V95.1982ZM59.5587 95.1982H37.5587V161.697H59.5587H81.5587V95.1982H59.5587ZM59.5587 161.697V183.697H71.0724V161.697V139.697H59.5587V161.697ZM71.0724 161.697V183.697C60.1893 183.697 53.4703 171.826 59.0662 162.496L77.9328 173.812L96.7993 185.129C108.792 165.134 94.3912 139.697 71.0724 139.697V161.697ZM77.9328 173.812L59.0666 162.496L38.553 196.694L57.4191 208.011L76.2852 219.327L96.7989 185.129L77.9328 173.812ZM57.4191 208.011L38.5532 196.694C43.9902 187.63 57.1268 187.629 62.5645 196.694L43.6984 208.011L24.8322 219.327C36.484 238.752 64.6337 238.751 76.285 219.328L57.4191 208.011ZM43.6984 208.011L62.5647 196.694L42.052 162.496L23.1857 173.812L4.31932 185.129L24.832 219.327L43.6984 208.011ZM23.1857 173.812L42.0521 162.496C47.6485 171.826 40.9286 183.697 30.046 183.697V161.697V139.697C6.72766 139.697 -7.6738 165.134 4.31931 185.129L23.1857 173.812ZM30.046 161.697V183.697H41.5587V161.697V139.697H30.046V161.697ZM41.5587 161.697H63.5587V95.1982H41.5587H19.5587V161.697H41.5587ZM41.5587 95.1982V73.1982H30.046V95.1982V117.198H41.5587V95.1982ZM30.046 95.1982V73.1982C40.9286 73.1982 47.6485 85.0691 42.0521 94.3993L23.1857 83.083L4.31931 71.7666C-7.6738 91.7612 6.72766 117.198 30.046 117.198V95.1982ZM23.1857 83.083L42.052 94.3993L62.5647 60.2011L43.6984 48.8847L24.832 37.5684L4.31932 71.7666L23.1857 83.083ZM218.033 176V198C214.72 198 212.033 195.314 212.033 192L234.033 192L256.033 192C256.033 171.013 239.02 154 218.033 154V176ZM234.033 192H212.033C212.033 188.686 214.72 186 218.033 186V208V230C239.02 230 256.033 212.987 256.033 192H234.033ZM218.033 208V186H95.0333V208V230H218.033V208ZM95.0333 208L95.0337 186C98.3469 186 101.033 188.686 101.033 192H79.0333H57.0333C57.0333 212.987 74.0469 230 95.033 230L95.0333 208ZM79.0333 192L101.033 192C101.033 195.314 98.3469 198 95.0337 198L95.0333 176L95.033 154C74.0469 154 57.0334 171.013 57.0333 192L79.0333 192ZM95.0333 176V198H218.033V176V154H95.0333V176ZM218.033 112V134C214.72 134 212.033 131.314 212.033 128H234.033H256.033C256.033 107.013 239.02 90 218.033 90V112ZM234.033 128L212.033 128C212.033 124.686 214.72 122 218.033 122V144V166C239.02 166 256.033 148.987 256.033 128L234.033 128ZM218.033 144V122H95.0333V144V166H218.033V144ZM95.0333 144L95.0337 122C98.3469 122 101.033 124.686 101.033 128L79.0333 128L57.0333 128C57.0334 148.987 74.0469 166 95.033 166L95.0333 144ZM79.0333 128H101.033C101.033 131.314 98.3469 134 95.0337 134L95.0333 112L95.033 90C74.0469 90.0003 57.0333 107.013 57.0333 128H79.0333ZM95.0333 112V134H218.033V112V90H95.0333V112ZM218.033 48V70C214.72 70 212.033 67.3137 212.033 64H234.033H256.033C256.033 43.0131 239.02 26 218.033 26V48ZM234.033 64L212.033 64C212.033 60.6863 214.72 58 218.033 58V80V102C239.02 102 256.033 84.9868 256.033 64L234.033 64ZM218.033 80V58H95.0333V80V102H218.033V80ZM95.0333 80L95.0337 58C98.3469 58 101.033 60.6858 101.033 64L79.0333 64L57.0333 64C57.0333 84.987 74.0469 102 95.033 102L95.0333 80ZM79.0333 64H101.033C101.033 67.3141 98.3469 69.9999 95.0337 70L95.0333 48L95.033 26C74.0469 26.0003 57.0333 43.0129 57.0333 64H79.0333ZM95.0333 48V70H218.033V48V26H95.0333V48Z" fill="white" mask="url(#path-1-outside-1_710_344)"/>
</svg>
