<svg width="256" height="256" viewBox="0 0 256 256" fill="none" xmlns="http://www.w3.org/2000/svg">
<g clip-path="url(#clip0_35_536)">
<g opacity="0.8">
<mask id="path-2-outside-1_35_536" maskUnits="userSpaceOnUse" x="62" y="62" width="133" height="149" fill="black">
<rect fill="white" x="62" y="62" width="133" height="149"/>
<path d="M107.318 78.5469C101.693 78.5469 97.0645 78.8398 93.4316 79.4258C89.916 80.0117 86.9863 81.2422 84.6426 83.1172C82.416 84.9922 80.5996 87.6289 79.1934 91.0273C77.9043 94.3086 76.6738 98.7031 75.502 104.211H70.5801L71.8105 70.1094H185.014L186.244 104.211H181.322C180.15 98.7031 178.861 94.3086 177.455 91.0273C176.166 87.6289 174.408 84.9922 172.182 83.1172C169.955 81.2422 167.025 80.0117 163.393 79.4258C159.76 78.8398 155.072 78.5469 149.33 78.5469H138.607V181.379C138.607 185.012 138.842 187.941 139.311 190.168C139.779 192.395 140.658 194.152 141.947 195.441C143.354 196.73 145.287 197.668 147.748 198.254C150.326 198.723 153.666 199.074 157.768 199.309V203H99.4082V199.309C103.51 199.074 106.791 198.723 109.252 198.254C111.713 197.668 113.588 196.672 114.877 195.266C116.283 193.742 117.162 191.691 117.514 189.113C117.982 186.535 118.217 183.137 118.217 178.918V78.5469H107.318Z"/>
</mask>
<path d="M93.4316 79.4258L92.1578 71.5279L92.1371 71.5312L92.1164 71.5346L93.4316 79.4258ZM84.6426 83.1172L79.645 76.8702L79.5665 76.9331L79.4895 76.9979L84.6426 83.1172ZM79.1934 91.0273L71.8012 87.9685L71.7737 88.0351L71.7473 88.1021L79.1934 91.0273ZM75.502 104.211V112.211H81.9789L83.3268 105.876L75.502 104.211ZM70.5801 104.211L62.5853 103.922L62.2862 112.211H70.5801V104.211ZM71.8105 70.1094V62.1094H64.094L63.8157 69.8209L71.8105 70.1094ZM185.014 70.1094L193.008 69.8209L192.73 62.1094H185.014V70.1094ZM186.244 104.211V112.211H194.538L194.239 103.922L186.244 104.211ZM181.322 104.211L173.497 105.876L174.845 112.211H181.322V104.211ZM177.455 91.0273L169.975 93.8646L170.035 94.023L170.102 94.1787L177.455 91.0273ZM138.607 78.5469V70.5469H130.607V78.5469H138.607ZM141.947 195.441L136.29 201.098L136.413 201.221L136.541 201.339L141.947 195.441ZM147.748 198.254L145.895 206.036L146.105 206.086L146.317 206.125L147.748 198.254ZM157.768 199.309H165.768V191.753L158.224 191.322L157.768 199.309ZM157.768 203V211H165.768V203H157.768ZM99.4082 203H91.4082V211H99.4082V203ZM99.4082 199.309L98.9518 191.322L91.4082 191.753V199.309H99.4082ZM109.252 198.254L110.749 206.113L110.928 206.079L111.105 206.036L109.252 198.254ZM114.877 195.266L108.999 189.839L108.989 189.85L108.98 189.86L114.877 195.266ZM117.514 189.113L109.643 187.682L109.611 187.857L109.587 188.032L117.514 189.113ZM118.217 78.5469H126.217V70.5469H118.217V78.5469ZM107.318 70.5469C101.465 70.5469 96.3703 70.8484 92.1578 71.5279L94.7055 87.3237C97.7586 86.8313 101.922 86.5469 107.318 86.5469V70.5469ZM92.1164 71.5346C87.5061 72.303 83.2395 73.9946 79.645 76.8702L89.6401 89.3641C90.7331 88.4897 92.3259 87.7204 94.7468 87.3169L92.1164 71.5346ZM79.4895 76.9979C76.0576 79.888 73.5717 83.69 71.8012 87.9685L86.5855 94.0862C87.6276 91.5678 88.7745 90.0964 89.7957 89.2365L79.4895 76.9979ZM71.7473 88.1021C70.2319 91.9597 68.8933 96.83 67.6771 102.546L83.3268 105.876C84.4544 100.576 85.5767 96.6575 86.6394 93.9526L71.7473 88.1021ZM75.502 96.2109H70.5801V112.211H75.502V96.2109ZM78.5749 104.499L79.8053 70.3979L63.8157 69.8209L62.5853 103.922L78.5749 104.499ZM71.8105 78.1094H185.014V62.1094H71.8105V78.1094ZM177.019 70.3979L178.249 104.499L194.239 103.922L193.008 69.8209L177.019 70.3979ZM186.244 96.2109H181.322V112.211H186.244V96.2109ZM189.147 102.546C187.921 96.7843 186.502 91.8281 184.808 87.876L170.102 94.1787C171.221 96.7891 172.38 100.622 173.497 105.876L189.147 102.546ZM184.935 88.1901C183.281 83.8296 180.833 79.9434 177.335 76.9979L167.029 89.2365C167.984 90.0409 169.051 91.4282 169.975 93.8646L184.935 88.1901ZM177.335 76.9979C173.743 73.9731 169.356 72.2843 164.666 71.5279L162.119 87.3237C164.694 87.7391 166.167 88.5113 167.029 89.2365L177.335 76.9979ZM164.666 71.5279C160.447 70.8474 155.291 70.5469 149.33 70.5469V86.5469C154.854 86.5469 159.072 86.8323 162.119 87.3237L164.666 71.5279ZM149.33 70.5469H138.607V86.5469H149.33V70.5469ZM130.607 78.5469V181.379H146.607V78.5469H130.607ZM130.607 181.379C130.607 185.28 130.853 188.825 131.482 191.816L147.139 188.52C146.831 187.057 146.607 184.744 146.607 181.379H130.607ZM131.482 191.816C132.191 195.184 133.66 198.468 136.29 201.098L147.604 189.785C147.604 189.784 147.602 189.782 147.597 189.777C147.593 189.772 147.586 189.763 147.576 189.749C147.556 189.721 147.521 189.667 147.477 189.579C147.387 189.399 147.254 189.067 147.139 188.52L131.482 191.816ZM136.541 201.339C139.227 203.8 142.526 205.234 145.895 206.036L149.601 190.471C148.048 190.102 147.48 189.661 147.353 189.544L136.541 201.339ZM146.317 206.125C149.344 206.675 153.044 207.052 157.311 207.296L158.224 191.322C154.288 191.097 151.308 190.77 149.179 190.383L146.317 206.125ZM149.768 199.309V203H165.768V199.309H149.768ZM157.768 195H99.4082V211H157.768V195ZM107.408 203V199.309H91.4082V203H107.408ZM99.8646 207.296C104.125 207.052 107.797 206.675 110.749 206.113L107.755 190.395C105.785 190.771 102.895 191.096 98.9518 191.322L99.8646 207.296ZM111.105 206.036C114.622 205.199 118.104 203.585 120.774 200.671L108.98 189.86C109.072 189.759 108.803 190.137 107.399 190.471L111.105 206.036ZM120.755 200.692C123.528 197.688 124.924 193.98 125.44 190.194L109.587 188.032C109.4 189.403 109.038 189.796 108.999 189.839L120.755 200.692ZM125.385 190.544C125.975 187.298 126.217 183.365 126.217 178.918H110.217C110.217 182.909 109.99 185.772 109.643 187.682L125.385 190.544ZM126.217 178.918V78.5469H110.217V178.918H126.217ZM118.217 70.5469H107.318V86.5469H118.217V70.5469Z" fill="white" mask="url(#path-2-outside-1_35_536)"/>
</g>
</g>
<defs>
<clipPath id="clip0_35_536">
<rect width="256" height="256" fill="white"/>
</clipPath>
</defs>
</svg>
