<svg width="256" height="256" viewBox="0 0 256 256" fill="none" xmlns="http://www.w3.org/2000/svg">
<mask id="path-1-outside-1_710_37" maskUnits="userSpaceOnUse" x="47" y="26" width="209" height="204" fill="black">
<rect fill="white" x="47" y="26" width="209" height="204"/>
<path d="M218 176C226.837 176 234 183.163 234 192C234 200.837 226.837 208 218 208H85C76.1634 208 69 200.837 69 192C69 183.163 76.1634 176 85 176H218ZM218 112C226.837 112 234 119.163 234 128C234 136.837 226.837 144 218 144H141C132.163 144 125 136.837 125 128C125 119.163 132.163 112 141 112H218ZM218 48C226.837 48 234 55.1634 234 64C234 72.8366 226.837 80 218 80H97C88.1634 80 81 72.8366 81 64C81 55.1634 88.1634 48 97 48H218Z"/>
</mask>
<path d="M218 208V230V230V208ZM85 176V154H85L85 176ZM218 144V166V166V144ZM141 112V90V90V112ZM218 48V26V48ZM97 80V102V80ZM218 176V198C214.686 198 212 195.314 212 192H234H256C256 171.013 238.987 154 218 154V176ZM234 192H212C212 188.686 214.686 186 218 186V208V230C238.987 230 256 212.987 256 192H234ZM218 208V186H85V208V230H218V208ZM85 208V186C88.3137 186 91 188.686 91 192H69H47C47 212.987 64.0132 230 85 230V208ZM69 192H91C91 195.314 88.3137 198 85 198L85 176L85 154C64.0132 154 47 171.013 47 192H69ZM85 176V198H218V176V154H85V176ZM218 112V134C214.686 134 212 131.314 212 128H234H256C256 107.013 238.987 90 218 90V112ZM234 128H212C212 124.686 214.686 122 218 122V144V166C238.987 166 256 148.987 256 128H234ZM218 144V122H141V144V166H218V144ZM141 144V122C144.314 122 147 124.686 147 128H125H103C103 148.987 120.013 166 141 166V144ZM125 128H147C147 131.314 144.314 134 141 134V112V90C120.013 90 103 107.013 103 128H125ZM141 112V134H218V112V90H141V112ZM218 48V70C214.686 70 212 67.3137 212 64H234H256C256 43.0132 238.987 26 218 26V48ZM234 64H212C212 60.6863 214.686 58 218 58V80V102C238.987 102 256 84.9868 256 64H234ZM218 80V58H97V80V102H218V80ZM97 80V58C100.314 58 103 60.6863 103 64H81H59C59 84.9868 76.0132 102 97 102V80ZM81 64H103C103 67.3137 100.314 70 97 70V48V26C76.0132 26 59 43.0132 59 64H81ZM97 48V70H218V48V26H97V48Z" fill="white" mask="url(#path-1-outside-1_710_37)"/>
</svg>
