<svg width="256" height="256" viewBox="0 0 256 256" fill="none" xmlns="http://www.w3.org/2000/svg">
<mask id="path-1-outside-1_40_661" maskUnits="userSpaceOnUse" x="9" y="9" width="238" height="238" fill="black">
<rect fill="white" x="9" y="9" width="238" height="238"/>
<path fill-rule="evenodd" clip-rule="evenodd" d="M17 33C17 40.0904 21.6121 46.1037 28 48.2032V207.797C21.6121 209.896 17 215.91 17 223C17 231.837 24.1634 239 33 239C40.0904 239 46.1037 234.388 48.2032 228H207.797C209.896 234.388 215.91 239 223 239C231.837 239 239 231.837 239 223C239 215.91 234.388 209.896 228 207.797V48.2032C234.388 46.1037 239 40.0904 239 33C239 24.1634 231.837 17 223 17C215.91 17 209.896 21.6121 207.797 28H48.2032C46.1037 21.6121 40.0904 17 33 17C24.1634 17 17 24.1634 17 33ZM48.2032 218H207.797C209.379 213.185 213.185 209.379 218 207.797V48.2032C213.185 46.6207 209.379 42.8148 207.797 38H48.2032C46.6207 42.8148 42.8148 46.6207 38 48.2032V207.797C42.8148 209.379 46.6207 213.185 48.2032 218ZM93.4316 79.4258C97.0645 78.8398 101.693 78.5469 107.318 78.5469H118.217V178.918C118.217 183.137 117.982 186.535 117.514 189.113C117.162 191.691 116.283 193.742 114.877 195.266C113.588 196.672 111.713 197.668 109.252 198.254C106.791 198.723 103.51 199.074 99.4082 199.309V203H157.768V199.309C153.666 199.074 150.326 198.723 147.748 198.254C145.287 197.668 143.354 196.73 141.947 195.441C140.658 194.152 139.779 192.395 139.311 190.168C138.842 187.941 138.607 185.012 138.607 181.379V78.5469H149.33C155.072 78.5469 159.76 78.8398 163.393 79.4258C167.025 80.0117 169.955 81.2422 172.182 83.1172C174.408 84.9922 176.166 87.6289 177.455 91.0273C178.861 94.3086 180.15 98.7031 181.322 104.211H186.244L185.014 70.1094H71.8105L70.5801 104.211H75.502C76.6738 98.7031 77.9043 94.3086 79.1934 91.0273C80.5996 87.6289 82.416 84.9922 84.6426 83.1172C86.9863 81.2422 89.916 80.0117 93.4316 79.4258Z"/>
</mask>
<path d="M28 48.2032H36V42.4117L30.498 40.6032L28 48.2032ZM28 207.797L30.498 215.397L36 213.588V207.797H28ZM48.2032 228V220H42.4117L40.6032 225.502L48.2032 228ZM207.797 228L215.397 225.502L213.588 220H207.797V228ZM228 207.797H220V213.588L225.502 215.397L228 207.797ZM228 48.2032L225.502 40.6032L220 42.4117V48.2032H228ZM207.797 28V36H213.588L215.397 30.498L207.797 28ZM48.2032 28L40.6032 30.498L42.4117 36H48.2032V28ZM48.2032 218L40.6032 220.498L42.4117 226H48.2032V218ZM207.797 218V226H213.588L215.397 220.498L207.797 218ZM218 207.797L220.498 215.397L226 213.588V207.797H218ZM218 48.2032H226V42.4117L220.498 40.6032L218 48.2032ZM207.797 38L215.397 35.502L213.588 30H207.797V38ZM48.2032 38V30H42.4117L40.6032 35.502L48.2032 38ZM38 48.2032L35.502 40.6032L30 42.4117V48.2032H38ZM38 207.797H30V213.588L35.502 215.397L38 207.797ZM93.4316 79.4258L92.1578 71.5279L92.1371 71.5312L92.1164 71.5346L93.4316 79.4258ZM118.217 78.5469H126.217V70.5469H118.217V78.5469ZM117.514 189.113L109.643 187.682L109.611 187.857L109.587 188.032L117.514 189.113ZM114.877 195.266L108.999 189.839L108.989 189.85L108.98 189.86L114.877 195.266ZM109.252 198.254L110.749 206.113L110.928 206.079L111.105 206.036L109.252 198.254ZM99.4082 199.309L98.9518 191.322L91.4082 191.753V199.309H99.4082ZM99.4082 203H91.4082V211H99.4082V203ZM157.768 203V211H165.768V203H157.768ZM157.768 199.309H165.768V191.753L158.224 191.322L157.768 199.309ZM147.748 198.254L145.895 206.036L146.105 206.086L146.317 206.125L147.748 198.254ZM141.947 195.441L136.29 201.098L136.413 201.221L136.541 201.339L141.947 195.441ZM138.607 78.5469V70.5469H130.607V78.5469H138.607ZM177.455 91.0273L169.975 93.8646L170.035 94.023L170.102 94.1787L177.455 91.0273ZM181.322 104.211L173.497 105.876L174.845 112.211H181.322V104.211ZM186.244 104.211V112.211H194.538L194.239 103.922L186.244 104.211ZM185.014 70.1094L193.008 69.8209L192.73 62.1094H185.014V70.1094ZM71.8105 70.1094V62.1094H64.094L63.8158 69.8209L71.8105 70.1094ZM70.5801 104.211L62.5853 103.922L62.2862 112.211H70.5801V104.211ZM75.502 104.211V112.211H81.9789L83.3268 105.876L75.502 104.211ZM79.1934 91.0273L71.8012 87.9685L71.7737 88.0351L71.7473 88.1021L79.1934 91.0273ZM84.6426 83.1172L79.645 76.8702L79.5665 76.9331L79.4895 76.9979L84.6426 83.1172ZM30.498 40.6032C27.2955 39.5506 25 36.5329 25 33H9C9 43.6479 15.9288 52.6567 25.502 55.8032L30.498 40.6032ZM36 207.797V48.2032H20V207.797H36ZM25 223C25 219.467 27.2955 216.449 30.498 215.397L25.502 200.197C15.9288 203.343 9 212.352 9 223H25ZM33 231C28.5817 231 25 227.418 25 223H9C9 236.255 19.7452 247 33 247V231ZM40.6032 225.502C39.5506 228.705 36.5329 231 33 231V247C43.6479 247 52.6567 240.071 55.8032 230.498L40.6032 225.502ZM207.797 220H48.2032V236H207.797V220ZM223 231C219.467 231 216.449 228.705 215.397 225.502L200.197 230.498C203.343 240.071 212.352 247 223 247V231ZM231 223C231 227.418 227.418 231 223 231V247C236.255 247 247 236.255 247 223H231ZM225.502 215.397C228.705 216.449 231 219.467 231 223H247C247 212.352 240.071 203.343 230.498 200.197L225.502 215.397ZM220 48.2032V207.797H236V48.2032H220ZM231 33C231 36.5329 228.705 39.5506 225.502 40.6032L230.498 55.8032C240.071 52.6567 247 43.6479 247 33H231ZM223 25C227.418 25 231 28.5817 231 33H247C247 19.7452 236.255 9 223 9V25ZM215.397 30.498C216.449 27.2955 219.467 25 223 25V9C212.352 9 203.343 15.9288 200.197 25.502L215.397 30.498ZM48.2032 36H207.797V20H48.2032V36ZM33 25C36.5329 25 39.5506 27.2955 40.6032 30.498L55.8032 25.502C52.6567 15.9288 43.6479 9 33 9V25ZM25 33C25 28.5817 28.5817 25 33 25V9C19.7452 9 9 19.7452 9 33H25ZM48.2032 226H207.797V210H48.2032V226ZM215.397 220.498C216.186 218.098 218.098 216.186 220.498 215.397L215.502 200.197C208.273 202.573 202.573 208.273 200.197 215.502L215.397 220.498ZM226 207.797V48.2032H210V207.797H226ZM220.498 40.6032C218.098 39.8143 216.186 37.9022 215.397 35.502L200.197 40.498C202.573 47.7273 208.273 53.4271 215.502 55.8032L220.498 40.6032ZM207.797 30H48.2032V46H207.797V30ZM40.6032 35.502C39.8143 37.9022 37.9022 39.8143 35.502 40.6032L40.498 55.8032C47.7273 53.4271 53.4271 47.7273 55.8032 40.498L40.6032 35.502ZM30 48.2032V207.797H46V48.2032H30ZM35.502 215.397C37.9022 216.186 39.8143 218.098 40.6032 220.498L55.8032 215.502C53.4271 208.273 47.7273 202.573 40.498 200.197L35.502 215.397ZM107.318 70.5469C101.465 70.5469 96.3703 70.8484 92.1578 71.5279L94.7055 87.3237C97.7586 86.8313 101.922 86.5469 107.318 86.5469V70.5469ZM118.217 70.5469H107.318V86.5469H118.217V70.5469ZM126.217 178.918V78.5469H110.217V178.918H126.217ZM125.385 190.544C125.975 187.298 126.217 183.365 126.217 178.918H110.217C110.217 182.909 109.99 185.772 109.643 187.682L125.385 190.544ZM120.755 200.692C123.528 197.688 124.924 193.98 125.44 190.194L109.587 188.032C109.4 189.403 109.038 189.796 108.999 189.839L120.755 200.692ZM111.105 206.036C114.622 205.199 118.104 203.585 120.774 200.671L108.98 189.86C109.072 189.759 108.803 190.137 107.399 190.471L111.105 206.036ZM99.8646 207.296C104.125 207.052 107.797 206.675 110.749 206.113L107.755 190.395C105.785 190.771 102.895 191.096 98.9518 191.322L99.8646 207.296ZM107.408 203V199.309H91.4082V203H107.408ZM157.768 195H99.4082V211H157.768V195ZM149.768 199.309V203H165.768V199.309H149.768ZM146.317 206.125C149.344 206.675 153.044 207.052 157.311 207.296L158.224 191.322C154.288 191.097 151.308 190.77 149.179 190.383L146.317 206.125ZM136.541 201.339C139.227 203.8 142.526 205.234 145.895 206.036L149.601 190.471C148.048 190.102 147.48 189.661 147.353 189.544L136.541 201.339ZM131.482 191.816C132.191 195.184 133.66 198.468 136.29 201.098L147.604 189.785C147.604 189.784 147.602 189.782 147.597 189.777C147.593 189.772 147.586 189.763 147.576 189.749C147.556 189.721 147.521 189.667 147.477 189.579C147.387 189.399 147.254 189.067 147.139 188.52L131.482 191.816ZM130.607 181.379C130.607 185.28 130.853 188.825 131.482 191.816L147.139 188.52C146.831 187.057 146.607 184.744 146.607 181.379H130.607ZM130.607 78.5469V181.379H146.607V78.5469H130.607ZM149.33 70.5469H138.607V86.5469H149.33V70.5469ZM164.666 71.5279C160.447 70.8474 155.291 70.5469 149.33 70.5469V86.5469C154.854 86.5469 159.072 86.8323 162.119 87.3237L164.666 71.5279ZM177.335 76.9979C173.743 73.9731 169.356 72.2843 164.666 71.5279L162.119 87.3237C164.694 87.7391 166.167 88.5113 167.029 89.2365L177.335 76.9979ZM184.935 88.1901C183.281 83.8296 180.833 79.9434 177.335 76.9979L167.029 89.2365C167.984 90.0409 169.051 91.4282 169.975 93.8646L184.935 88.1901ZM189.147 102.546C187.921 96.7843 186.502 91.8281 184.808 87.876L170.102 94.1787C171.221 96.7891 172.38 100.622 173.497 105.876L189.147 102.546ZM186.244 96.2109H181.322V112.211H186.244V96.2109ZM177.019 70.3978L178.249 104.499L194.239 103.922L193.008 69.8209L177.019 70.3978ZM71.8105 78.1094H185.014V62.1094H71.8105V78.1094ZM78.5749 104.499L79.8053 70.3978L63.8158 69.8209L62.5853 103.922L78.5749 104.499ZM75.502 96.2109H70.5801V112.211H75.502V96.2109ZM71.7473 88.1021C70.2319 91.9597 68.8933 96.83 67.6771 102.546L83.3268 105.876C84.4544 100.576 85.5767 96.6575 86.6394 93.9526L71.7473 88.1021ZM79.4895 76.9979C76.0576 79.888 73.5717 83.69 71.8012 87.9685L86.5855 94.0862C87.6276 91.5678 88.7745 90.0964 89.7957 89.2365L79.4895 76.9979ZM92.1164 71.5346C87.5061 72.303 83.2395 73.9946 79.645 76.8702L89.6401 89.3641C90.7331 88.4897 92.3259 87.7204 94.7468 87.3169L92.1164 71.5346Z" fill="white" mask="url(#path-1-outside-1_40_661)"/>
</svg>
