<svg width="256" height="256" viewBox="0 0 256 256" fill="none" xmlns="http://www.w3.org/2000/svg">
<mask id="path-1-outside-1_710_42" maskUnits="userSpaceOnUse" x="23" y="26" width="209" height="204" fill="black">
<rect fill="white" x="23" y="26" width="209" height="204"/>
<path d="M194 176C202.837 176 210 183.163 210 192C210 200.837 202.837 208 194 208H61C52.1634 208 45 200.837 45 192C45 183.163 52.1634 176 61 176H194ZM166 112C174.837 112 182 119.163 182 128C182 136.837 174.837 144 166 144H89C80.1634 144 73 136.837 73 128C73 119.163 80.1634 112 89 112H166ZM188 48C196.837 48 204 55.1634 204 64C204 72.8366 196.837 80 188 80H67C58.1634 80 51 72.8366 51 64C51 55.1634 58.1634 48 67 48H188Z"/>
</mask>
<path d="M194 208V230V230V208ZM61 176V154H61L61 176ZM166 144V166V166V144ZM89 112V90H89L89 112ZM188 48V26V48ZM67 80V102V80ZM194 176V198C190.686 198 188 195.314 188 192H210H232C232 171.013 214.987 154 194 154V176ZM210 192H188C188 188.686 190.686 186 194 186V208V230C214.987 230 232 212.987 232 192H210ZM194 208V186H61V208V230H194V208ZM61 208V186C64.3137 186 67 188.686 67 192H45H23C23 212.987 40.0132 230 61 230V208ZM45 192H67C67 195.314 64.3137 198 61 198L61 176L61 154C40.0132 154 23 171.013 23 192H45ZM61 176V198H194V176V154H61V176ZM166 112V134C162.686 134 160 131.314 160 128H182H204C204 107.013 186.987 90 166 90V112ZM182 128H160C160 124.686 162.686 122 166 122V144V166C186.987 166 204 148.987 204 128H182ZM166 144V122H89V144V166H166V144ZM89 144V122C92.3137 122 95 124.686 95 128H73H51C51 148.987 68.0132 166 89 166V144ZM73 128H95C95 131.314 92.3137 134 89 134L89 112L89 90C68.0132 90 51 107.013 51 128H73ZM89 112V134H166V112V90H89V112ZM188 48V70C184.686 70 182 67.3137 182 64H204H226C226 43.0132 208.987 26 188 26V48ZM204 64H182C182 60.6863 184.686 58 188 58V80V102C208.987 102 226 84.9868 226 64H204ZM188 80V58H67V80V102H188V80ZM67 80V58C70.3137 58 73 60.6863 73 64H51H29C29 84.9868 46.0132 102 67 102V80ZM51 64H73C73 67.3137 70.3137 70 67 70V48V26C46.0132 26 29 43.0132 29 64H51ZM67 48V70H188V48V26H67V48Z" fill="white" mask="url(#path-1-outside-1_710_42)"/>
</svg>
