<svg width="256" height="256" viewBox="0 0 256 256" fill="none" xmlns="http://www.w3.org/2000/svg">
<path fill-rule="evenodd" clip-rule="evenodd" d="M208 64C208 52.9543 199.046 44 188 44H67C55.9543 44 47 52.9543 47 64C47 75.0457 55.9543 84 67 84H188C199.046 84 208 75.0457 208 64ZM188 52C194.627 52 200 57.3726 200 64C200 70.6274 194.627 76 188 76H67C60.3726 76 55 70.6274 55 64C55 57.3726 60.3726 52 67 52H188ZM186 128C186 116.954 177.046 108 166 108H89C77.9543 108 69 116.954 69 128C69 139.046 77.9543 148 89 148H166C177.046 148 186 139.046 186 128ZM166 116C172.627 116 178 121.373 178 128C178 134.627 172.627 140 166 140H89C82.3726 140 77 134.627 77 128C77 121.373 82.3726 116 89 116H166ZM194 172C205.046 172 214 180.954 214 192C214 203.046 205.046 212 194 212H61C49.9543 212 41 203.046 41 192C41 180.954 49.9543 172 61 172H194ZM206 192C206 185.373 200.627 180 194 180H61C54.3726 180 49 185.373 49 192C49 198.627 54.3726 204 61 204H194C200.627 204 206 198.627 206 192Z" fill="white"/>
</svg>
