<svg width="256" height="256" viewBox="0 0 256 256" fill="none" xmlns="http://www.w3.org/2000/svg">
<path fill-rule="evenodd" clip-rule="evenodd" d="M222 64C222 52.9543 213.046 44 202 44H54C42.9543 44 34 52.9543 34 64C34 75.0457 42.9543 84 54 84H202C213.046 84 222 75.0457 222 64ZM202 52C208.627 52 214 57.3726 214 64C214 70.6274 208.627 76 202 76H54C47.3726 76 42 70.6274 42 64C42 57.3726 47.3726 52 54 52H202ZM222 128C222 116.954 213.046 108 202 108H54C42.9543 108 34 116.954 34 128C34 139.046 42.9543 148 54 148H202C213.046 148 222 139.046 222 128ZM202 116C208.627 116 214 121.373 214 128C214 134.627 208.627 140 202 140H54C47.3726 140 42 134.627 42 128C42 121.373 47.3726 116 54 116H202ZM202 172C213.046 172 222 180.954 222 192C222 203.046 213.046 212 202 212H54C42.9543 212 34 203.046 34 192C34 180.954 42.9543 172 54 172H202ZM214 192C214 185.373 208.627 180 202 180H54C47.3726 180 42 185.373 42 192C42 198.627 47.3726 204 54 204H202C208.627 204 214 198.627 214 192Z" fill="white"/>
</svg>
