<svg width="256" height="256" viewBox="0 0 256 256" fill="none" xmlns="http://www.w3.org/2000/svg">
<path fill-rule="evenodd" clip-rule="evenodd" d="M0 64C0 52.9543 8.95431 44 20 44H141C152.046 44 161 52.9543 161 64C161 75.0457 152.046 84 141 84H20C8.9543 84 0 75.0457 0 64ZM20 52C13.3726 52 8 57.3726 8 64C8 70.6274 13.3726 76 20 76H141C147.627 76 153 70.6274 153 64C153 57.3726 147.627 52 141 52H20ZM0 128C0 116.954 8.9543 108 20 108H97C108.046 108 117 116.954 117 128C117 139.046 108.046 148 97 148H20C8.95431 148 0 139.046 0 128ZM20 116C13.3726 116 8 121.373 8 128C8 134.627 13.3726 140 20 140H97C103.627 140 109 134.627 109 128C109 121.373 103.627 116 97 116H20ZM20 172C8.9543 172 0 180.954 0 192C0 203.046 8.95431 212 20 212H153C164.046 212 173 203.046 173 192C173 180.954 164.046 172 153 172H20ZM8 192C8 185.373 13.3726 180 20 180H153C159.627 180 165 185.373 165 192C165 198.627 159.627 204 153 204H20C13.3726 204 8 198.627 8 192Z" fill="white"/>
</svg>
