<svg width="256" height="256" viewBox="0 0 256 256" fill="none" xmlns="http://www.w3.org/2000/svg">
<path fill-rule="evenodd" clip-rule="evenodd" d="M255 64C255 52.9543 246.046 44 235 44H114C102.954 44 94 52.9543 94 64C94 75.0457 102.954 84 114 84H235C246.046 84 255 75.0457 255 64ZM235 52C241.627 52 247 57.3726 247 64C247 70.6274 241.627 76 235 76H114C107.373 76 102 70.6274 102 64C102 57.3726 107.373 52 114 52H235ZM255 128C255 116.954 246.046 108 235 108H158C146.954 108 138 116.954 138 128C138 139.046 146.954 148 158 148H235C246.046 148 255 139.046 255 128ZM235 116C241.627 116 247 121.373 247 128C247 134.627 241.627 140 235 140H158C151.373 140 146 134.627 146 128C146 121.373 151.373 116 158 116H235ZM235 172C246.046 172 255 180.954 255 192C255 203.046 246.046 212 235 212H102C90.9543 212 82 203.046 82 192C82 180.954 90.9543 172 102 172H235ZM247 192C247 185.373 241.627 180 235 180H102C95.3726 180 90 185.373 90 192C90 198.627 95.3726 204 102 204H235C241.627 204 247 198.627 247 192Z" fill="white"/>
</svg>
