<svg width="256" height="256" viewBox="0 0 256 256" fill="none" xmlns="http://www.w3.org/2000/svg">
<g clip-path="url(#clip0_227_63)">
<path d="M34.2094 10.462L39.5586 15.719V15.719L34.2094 10.462ZM44.805 9.73776L40.2208 15.6737L40.2209 15.6737L44.805 9.73776ZM10.3617 34.728L5.01252 29.471H5.01252L10.3617 34.728ZM9.74274 45.2341L3.81322 49.8266L3.81322 49.8266L9.74274 45.2341ZM51.3002 98.8906L57.2297 94.2981L51.3002 98.8906ZM83.5556 100.054L88.827 94.7187L86.6359 92.5536H83.5556V100.054ZM133.25 149.156L138.824 154.173L143.613 148.853L138.521 143.821L133.25 149.156ZM134.042 183.905L128.702 189.172L134.042 183.905ZM194.254 244.965L188.913 250.231H188.913L194.254 244.965ZM208.404 245.056L213.676 250.39L208.404 245.056ZM245.031 208.854L250.304 214.189V214.189L245.031 208.854ZM245.097 194.696L250.419 189.411H250.419L245.097 194.696ZM184.976 134.154L179.654 139.439L184.976 134.154ZM149.223 133.183L143.951 138.518L148.991 143.499L154.25 138.749L149.223 133.183ZM98.9371 83.4889H91.4371V86.6215L93.6653 88.8235L98.9371 83.4889ZM97.7708 50.642L102.355 44.7061L102.355 44.7061L97.7708 50.642ZM136.984 23.448L140.661 29.9848L140.661 29.9848L136.984 23.448ZM124.847 35.8456L131.46 39.383V39.383L124.847 35.8456ZM148.65 16.8858L144.973 10.349L144.973 10.349L148.65 16.8858ZM167.653 11.4138L168.016 18.905L167.653 11.4138ZM188.323 10.4136L188.686 17.9048L188.323 10.4136ZM196.808 15.3782L203.516 12.0241L203.516 12.0241L196.808 15.3782ZM197.212 16.185L190.503 19.539L190.503 19.5391L197.212 16.185ZM195.816 24.3484L201.029 29.7408V29.7408L195.816 24.3484ZM165.843 53.3225L160.63 47.93V47.93L165.843 53.3225ZM233.079 59.3833L238.382 64.6866V64.6866L233.079 59.3833ZM244.287 63.5948L251.771 63.0959V63.0959L244.287 63.5948ZM245.601 83.2947L253.084 82.7959V82.7958L245.601 83.2947ZM245.404 84.8257L252.519 87.1974L245.404 84.8257ZM239.145 103.602L245.668 107.304L246.029 106.668L246.261 105.974L239.145 103.602ZM229.817 120.039L223.294 116.337V116.337L229.817 120.039ZM221.218 128.493L217.627 121.909L217.627 121.909L221.218 128.493ZM207.199 136.14L202.436 141.933L206.346 145.148L210.791 142.724L207.199 136.14ZM192.848 124.34L188.085 130.133L192.848 124.34ZM164.777 115.897L164 108.437L164.777 115.897ZM152.181 117.209L146.917 122.551L149.438 125.035L152.958 124.669L152.181 117.209ZM111.952 77.572L104.531 76.486L103.981 80.2468L106.688 82.9144L111.952 77.572ZM114.693 58.8471L122.113 59.9331L114.693 58.8471ZM118.138 48.3878L111.525 44.8504L111.525 44.8504L118.138 48.3878ZM116.093 150.931L123.573 151.485L123.83 148.011L121.342 145.573L116.093 150.931ZM87.1051 122.534L92.3535 117.176L87.0197 111.951L81.771 117.262L87.1051 122.534ZM115.519 158.679L122.999 159.233L115.519 158.679ZM116.974 174.888L109.713 176.766L116.974 174.888ZM118.694 181.538L123.997 186.841L127.028 183.81L125.955 179.66L118.694 181.538ZM64.232 235.999L69.5353 241.303L64.232 235.999ZM19.3344 235.999L14.0311 241.303H14.0311L19.3344 235.999ZM19.2036 191.233L24.5378 196.505H24.5378L19.2036 191.233ZM39.5586 15.719C39.7361 15.5384 40.0205 15.519 40.2208 15.6737L49.3892 3.80183C43.1778 -0.995123 34.3611 -0.392485 28.8602 5.20499L39.5586 15.719ZM15.711 39.985L39.5586 15.719L28.8602 5.20499L5.01252 29.471L15.711 39.985ZM15.6723 40.6416C15.5191 40.4439 15.5356 40.1634 15.711 39.985L5.01252 29.471C-0.422266 35.0012 -0.934587 43.6965 3.81322 49.8266L15.6723 40.6416ZM57.2297 94.2981L15.6723 40.6416L3.81322 49.8266L45.3707 103.483L57.2297 94.2981ZM53.672 92.5536C55.0639 92.5536 56.3775 93.1977 57.2297 94.2981L45.3707 103.483C47.3594 106.051 50.4243 107.554 53.672 107.554V92.5536ZM83.5556 92.5536H53.672V107.554H83.5556V92.5536ZM138.521 143.821L88.827 94.7187L78.2841 105.389L127.978 154.491L138.521 143.821ZM139.382 178.639C132.752 171.916 132.508 161.192 138.824 154.173L127.675 144.139C116.049 157.057 116.499 176.797 128.702 189.172L139.382 178.639ZM199.594 239.699L139.382 178.639L128.702 189.172L188.913 250.231L199.594 239.699ZM203.132 239.722C202.149 240.693 200.564 240.683 199.594 239.699L188.913 250.231C195.705 257.119 206.796 257.19 213.676 250.39L203.132 239.722ZM239.759 203.52L203.132 239.722L213.676 250.39L250.304 214.189L239.759 203.52ZM239.776 199.981C240.75 200.962 240.743 202.548 239.759 203.52L250.304 214.189C257.189 207.383 257.241 196.28 250.419 189.411L239.776 199.981ZM179.654 139.439L239.776 199.981L250.419 189.411L190.298 128.869L179.654 139.439ZM154.25 138.749C161.544 132.16 172.728 132.464 179.654 139.439L190.298 128.869C177.728 116.212 157.433 115.661 144.196 127.617L154.25 138.749ZM93.6653 88.8235L143.951 138.518L154.495 127.848L104.209 78.1543L93.6653 88.8235ZM91.4371 53.0164V83.4889H106.437V53.0164H91.4371ZM93.1866 56.5779C92.0832 55.7258 91.4371 54.4105 91.4371 53.0164H106.437C106.437 49.7635 104.929 46.6943 102.355 44.7061L93.1866 56.5779ZM40.2209 15.6737L93.1866 56.5779L102.355 44.7061L49.3892 3.80183L40.2209 15.6737ZM133.307 16.9111C126.919 20.5042 121.69 25.8458 118.233 32.3082L131.46 39.383C133.57 35.4384 136.762 32.1779 140.661 29.9848L133.307 16.9111ZM144.973 10.349L133.307 16.9111L140.661 29.9848L152.327 23.4226L144.973 10.349ZM167.291 3.92254C159.453 4.30177 151.812 6.50208 144.973 10.349L152.327 23.4226C157.135 20.7184 162.506 19.1716 168.016 18.905L167.291 3.92254ZM187.961 2.92236L167.291 3.92254L168.016 18.905L188.686 17.9048L187.961 2.92236ZM203.516 12.0241C200.593 6.17618 194.491 2.60637 187.961 2.92236L188.686 17.9048C189.28 17.8761 189.834 18.2006 190.1 18.7323L203.516 12.0241ZM203.92 12.8309L203.516 12.0241L190.1 18.7322L190.503 19.539L203.92 12.8309ZM201.029 29.7408C205.581 25.34 206.752 18.4942 203.92 12.8309L190.503 19.5391C190.406 19.3438 190.446 19.1077 190.603 18.956L201.029 29.7408ZM171.055 58.7149L201.029 29.7408L190.603 18.956L160.63 47.93L171.055 58.7149ZM171.513 57.6364C171.513 58.043 171.348 58.4322 171.055 58.7149L160.63 47.93C157.999 50.4737 156.513 53.9766 156.513 57.6364H171.513ZM171.513 84.5871V57.6364H156.513V84.5871H171.513ZM170.013 83.0871C170.841 83.0871 171.513 83.7587 171.513 84.5871H156.513C156.513 92.0429 162.557 98.0871 170.013 98.0871V83.0871ZM199.39 83.0871H170.013V98.0871H199.39V83.0871ZM198.329 83.5264C198.61 83.2451 198.992 83.0871 199.39 83.0871V98.0871C202.97 98.0871 206.404 96.6648 208.936 94.133L198.329 83.5264ZM227.775 54.08L198.329 83.5264L208.936 94.133L238.382 64.6866L227.775 54.08ZM237.728 49.9577C233.995 49.9577 230.415 51.4405 227.775 54.08L238.382 64.6866C238.208 64.8602 237.973 64.9577 237.728 64.9577V49.9577ZM251.771 63.0959C251.278 55.7026 245.137 49.9577 237.728 49.9577V64.9577C237.24 64.9577 236.836 64.5799 236.804 64.0937L251.771 63.0959ZM253.084 82.7958L251.771 63.0959L236.804 64.0937L238.117 83.7936L253.084 82.7958ZM252.519 87.1974C252.992 85.7808 253.183 84.2858 253.084 82.7959L238.117 83.7936C238.087 83.3401 238.145 82.8852 238.289 82.454L252.519 87.1974ZM246.261 105.974L252.519 87.1974L238.289 82.454L232.03 101.231L246.261 105.974ZM236.339 123.741L245.668 107.304L232.623 99.9002L223.294 116.337L236.339 123.741ZM224.81 135.078C229.634 132.446 233.627 128.52 236.339 123.741L223.294 116.337C221.961 118.686 219.998 120.616 217.627 121.909L224.81 135.078ZM210.791 142.724L224.81 135.078L217.627 121.909L203.608 129.556L210.791 142.724ZM188.085 130.133L202.436 141.933L211.963 130.347L197.611 118.547L188.085 130.133ZM165.554 123.356C173.668 122.511 181.783 124.952 188.085 130.133L197.611 118.547C188.211 110.817 176.105 107.176 164 108.437L165.554 123.356ZM152.958 124.669L165.554 123.356L164 108.437L151.404 109.749L152.958 124.669ZM106.688 82.9144L146.917 122.551L157.445 111.866L117.216 72.2295L106.688 82.9144ZM107.272 57.7611L104.531 76.486L119.373 78.658L122.113 59.9331L107.272 57.7611ZM111.525 44.8504C109.372 48.8759 107.933 53.2441 107.272 57.7611L122.113 59.9331C122.523 57.1314 123.416 54.422 124.752 51.9252L111.525 44.8504ZM118.233 32.3082L111.525 44.8504L124.752 51.9252L131.46 39.383L118.233 32.3082ZM121.342 145.573L92.3535 117.176L81.8568 127.892L110.845 156.288L121.342 145.573ZM122.999 159.233L123.573 151.485L108.614 150.377L108.04 158.125L122.999 159.233ZM124.236 173.011C123.074 168.517 122.656 163.862 122.999 159.233L108.04 158.125C107.576 164.388 108.141 170.685 109.713 176.766L124.236 173.011ZM125.955 179.66L124.236 173.011L109.713 176.766L111.432 183.415L125.955 179.66ZM69.5353 241.303L123.997 186.841L113.39 176.234L58.9287 230.696L69.5353 241.303ZM14.0311 241.303C29.3581 256.63 54.2082 256.63 69.5353 241.303L58.9287 230.696C49.4595 240.165 34.1069 240.165 24.6377 230.696L14.0311 241.303ZM13.8695 185.961C-1.30497 201.314 -1.23276 226.039 14.0311 241.303L24.6377 230.696C15.2075 221.266 15.1629 205.99 24.5378 196.505L13.8695 185.961ZM81.771 117.262L13.8695 185.961L24.5378 196.505L92.4393 127.806L81.771 117.262Z" fill="white"/>
</g>
<defs>
<clipPath id="clip0_227_63">
<rect width="256" height="256" fill="white"/>
</clipPath>
</defs>
</svg>
