<svg width="256" height="256" viewBox="0 0 256 256" fill="none" xmlns="http://www.w3.org/2000/svg">
<path d="M82.6129 24.9167C84.9356 24.9167 87.0497 23.5761 88.0401 21.4751L92.77 11.4416C93.7604 9.3406 95.8745 8 98.1972 8H157.803C160.125 8 162.24 9.3406 163.23 11.4416L167.96 21.4751C168.95 23.5761 171.064 24.9167 173.387 24.9167H210C214.418 24.9167 218 28.4984 218 32.9167V42C218 46.4183 214.418 50 210 50H46C41.5817 50 38 46.4183 38 42V32.9167C38 28.4984 41.5817 24.9167 46 24.9167H82.6129Z" stroke="white" stroke-width="15"/>
<path d="M50.5 71C50.5 72.3807 49.3807 73.5 48 73.5V58.5C41.0964 58.5 35.5 64.0965 35.5 71H50.5ZM50.5 233V71H35.5V233H50.5ZM58 240.5C53.8579 240.5 50.5 237.142 50.5 233H35.5C35.5 245.426 45.5736 255.5 58 255.5V240.5ZM198 240.5H58V255.5H198V240.5ZM205.5 233C205.5 237.142 202.142 240.5 198 240.5V255.5C210.426 255.5 220.5 245.426 220.5 233H205.5ZM205.5 71V233H220.5V71H205.5ZM208 73.5C206.619 73.5 205.5 72.3807 205.5 71H220.5C220.5 64.0964 214.904 58.5 208 58.5V73.5ZM48 73.5H208V58.5H48V73.5ZM69.5 106.75C69.5 103.298 72.2982 100.5 75.75 100.5V85.5C64.014 85.5 54.5 95.0139 54.5 106.75H69.5ZM69.5 206.444V106.75H54.5V206.444H69.5ZM75.75 212.694C72.2982 212.694 69.5 209.896 69.5 206.444H54.5C54.5 218.18 64.014 227.694 75.75 227.694V212.694ZM82 206.444C82 209.896 79.2018 212.694 75.75 212.694V227.694C87.4861 227.694 97 218.18 97 206.444H82ZM82 106.75V206.444H97V106.75H82ZM75.75 100.5C79.2018 100.5 82 103.298 82 106.75H97C97 95.014 87.4861 85.5 75.75 85.5V100.5ZM121.75 106.75C121.75 103.298 124.548 100.5 128 100.5V85.5C116.264 85.5 106.75 95.0139 106.75 106.75H121.75ZM121.75 206.444V106.75H106.75V206.444H121.75ZM128 212.694C124.548 212.694 121.75 209.896 121.75 206.444H106.75C106.75 218.18 116.264 227.694 128 227.694V212.694ZM134.25 206.444C134.25 209.896 131.452 212.694 128 212.694V227.694C139.736 227.694 149.25 218.18 149.25 206.444H134.25ZM134.25 106.75V206.444H149.25V106.75H134.25ZM128 100.5C131.452 100.5 134.25 103.298 134.25 106.75H149.25C149.25 95.0139 139.736 85.5 128 85.5V100.5ZM180.25 85.5C168.514 85.5 159 95.0139 159 106.75H174C174 103.298 176.798 100.5 180.25 100.5V85.5ZM201.5 106.75C201.5 95.014 191.986 85.5 180.25 85.5V100.5C183.702 100.5 186.5 103.298 186.5 106.75H201.5ZM201.5 206.444V106.75H186.5V206.444H201.5ZM180.25 227.694C191.986 227.694 201.5 218.18 201.5 206.444H186.5C186.5 209.896 183.702 212.694 180.25 212.694V227.694ZM159 206.444C159 218.18 168.514 227.694 180.25 227.694V212.694C176.798 212.694 174 209.896 174 206.444H159ZM159 106.75V206.444H174V106.75H159Z" fill="white"/>
</svg>
