<svg width="256" height="256" viewBox="0 0 256 256" fill="none" xmlns="http://www.w3.org/2000/svg">
<path d="M80.7637 11C89.0479 11 95.7637 17.7157 95.7637 26V139.183C95.7637 145.796 97.1536 151.24 99.6465 155.805C102.185 160.352 105.706 163.902 110.407 166.572C114.92 169.078 120.638 170.553 127.957 170.553C135.36 170.553 141.11 169.067 145.617 166.559C150.372 163.884 153.823 160.355 156.231 155.872L156.25 155.839L156.269 155.805C158.761 151.24 160.15 145.796 160.15 139.183V26C160.15 17.7157 166.866 11 175.15 11H193.718C202.002 11.0002 208.718 17.7159 208.718 26V141.399C208.718 155.832 205.42 169.057 198.543 180.748L198.535 180.761L198.528 180.773C192.337 191.235 183.866 199.648 173.318 205.981H213C221.284 205.981 228 212.697 228 220.981V230C228 238.284 221.284 245 213 245H43C34.7157 245 28 238.284 28 230V220.981C28 212.697 34.7157 205.981 43 205.981H82.6816C72.1342 199.648 63.6629 191.235 57.4717 180.773L57.4648 180.761L57.457 180.748C50.5801 169.057 47.2823 155.832 47.2822 141.399V26C47.2822 17.7159 53.9981 11.0002 62.2822 11H80.7637Z" stroke="white" stroke-width="22"/>
</svg>
