<svg width="256" height="256" viewBox="0 0 256 256" fill="none" xmlns="http://www.w3.org/2000/svg">
<path fill-rule="evenodd" clip-rule="evenodd" d="M94.1719 185.248L94.1475 185.222C85.9461 176.565 82.2352 165.18 82.2352 152V56.6001V48.6001H90.2352H106.435H114.435V56.6001V152C114.435 157.894 115.838 161.579 117.771 163.943C119.405 165.818 122.298 167.4 128.035 167.4C133.652 167.4 136.511 165.819 138.161 163.894C140.183 161.534 141.635 157.877 141.635 152V56.6001V48.6001H149.635H165.835H173.835V56.6001V152C173.835 165.255 170.148 176.677 161.899 185.247C161.322 185.855 160.729 186.44 160.12 187H178C184.627 187 190 192.373 190 199C190 205.628 184.627 211 178 211L78 211C71.3726 211 66 205.628 66 199C66 192.373 71.3726 187 78 187H95.9745C95.3666 186.447 94.7737 185.872 94.1964 185.273L94.1719 185.248ZM111.082 187C115.933 188.867 121.584 189.8 128.035 189.8C134.549 189.8 140.23 188.867 145.078 187C149.428 185.325 153.107 182.898 156.115 179.72C162.595 173 165.835 163.76 165.835 152V64.6001V56.6001H157.835H157.635H149.635V64.6001V152C149.635 159.2 147.835 164.9 144.235 169.1C140.635 173.3 135.235 175.4 128.035 175.4C120.715 175.4 115.255 173.3 111.655 169.1C108.175 164.9 106.435 159.2 106.435 152V64.6001V56.6001H98.4352H98.2352H90.2352V64.6001V152C90.2352 163.64 93.4752 172.88 99.9552 179.72C103.02 182.898 106.729 185.325 111.082 187ZM109.675 195H78C75.7909 195 74 196.791 74 199C74 201.209 75.7909 203 78 203L178 203C180.209 203 182 201.209 182 199C182 196.791 180.209 195 178 195H146.485H128.035L109.675 195Z" fill="white"/>
</svg>
