<svg width="256" height="256" viewBox="0 0 256 256" fill="none" xmlns="http://www.w3.org/2000/svg">
  <mask id="path-2-outside-1_33_465" maskUnits="userSpaceOnUse" x="70.0942" y="53.6001" width="116" height="164" fill="black">
  <rect fill="white" x="70.0942" y="53.6001" width="116" height="164"/>
    <path fill-rule="evenodd" clip-rule="evenodd" d="M99.9551 184.72C106.435 191.44 115.795 194.8 128.035 194.8C140.395 194.8 149.755 191.44 156.115 184.72C162.595 178 165.835 168.76 165.835 157V61.6001H149.635V157C149.635 164.2 147.835 169.9 144.235 174.1C140.635 178.3 135.235 180.4 128.035 180.4C120.715 180.4 115.255 178.3 111.655 174.1C108.175 169.9 106.435 164.2 106.435 157V61.6001H90.2351V157C90.2351 168.64 93.4751 177.88 99.9551 184.72ZM83.1895 197.097C80.4286 197.045 78.1478 199.24 78.0952 202.001C78.0426 204.762 80.2381 207.043 82.999 207.095L172.983 208.809C175.744 208.862 178.024 206.666 178.077 203.905C178.13 201.144 175.934 198.864 173.173 198.811L83.1895 197.097Z"/>
  </mask>
  <path d="M99.9551 184.72L94.1475 190.222L94.1718 190.248L94.1963 190.273L99.9551 184.72ZM156.115 184.72L150.356 179.167L150.33 179.194L150.305 179.221L156.115 184.72ZM165.835 61.6001H173.835V53.6001H165.835V61.6001ZM149.635 61.6001V53.6001H141.635V61.6001H149.635ZM144.235 174.1L138.161 168.894H138.161L144.235 174.1ZM111.655 174.1L105.495 179.204L105.538 179.256L105.581 179.306L111.655 174.1ZM106.435 61.6001H114.435V53.6001H106.435V61.6001ZM90.2351 61.6001V53.6001H82.2351V61.6001H90.2351ZM78.0952 202.001L70.0966 201.849L78.0952 202.001ZM83.1895 197.097L83.3418 189.099H83.3418L83.1895 197.097ZM82.999 207.095L83.1514 199.097H83.1514L82.999 207.095ZM172.983 208.809L173.135 200.811H173.135L172.983 208.809ZM173.173 198.811L173.326 190.813H173.326L173.173 198.811ZM128.035 186.8C117.261 186.8 110.258 183.879 105.714 179.167L94.1963 190.273C102.613 199.001 114.329 202.8 128.035 202.8V186.8ZM150.305 179.221C145.913 183.861 138.966 186.8 128.035 186.8V202.8C141.824 202.8 153.597 199.019 161.925 190.219L150.305 179.221ZM157.835 157C157.835 167.252 155.05 174.3 150.356 179.167L161.874 190.273C170.14 181.7 173.835 170.268 173.835 157H157.835ZM157.835 61.6001V157H173.835V61.6001H157.835ZM149.635 69.6001H165.835V53.6001H149.635V69.6001ZM157.635 157V61.6001H141.635V157H157.635ZM150.309 179.306C155.487 173.266 157.635 165.523 157.635 157H141.635C141.635 162.877 140.183 166.534 138.161 168.894L150.309 179.306ZM128.035 188.4C136.818 188.4 144.76 185.781 150.309 179.306L138.161 168.894C136.51 170.819 133.652 172.4 128.035 172.4V188.4ZM105.581 179.306C111.155 185.809 119.182 188.4 128.035 188.4V172.4C122.249 172.4 119.355 170.791 117.729 168.894L105.581 179.306ZM98.4351 157C98.4351 165.462 100.491 173.165 105.495 179.204L117.815 168.996C115.859 166.635 114.435 162.938 114.435 157H98.4351ZM98.4351 61.6001V157H114.435V61.6001H98.4351ZM90.2351 69.6001H106.435V53.6001H90.2351V69.6001ZM98.2351 157V61.6001H82.2351V157H98.2351ZM105.763 179.218C101.004 174.195 98.2351 167.1 98.2351 157H82.2351C82.2351 170.18 85.9461 181.565 94.1475 190.222L105.763 179.218ZM86.0937 202.153C86.0622 203.81 84.6937 205.127 83.0371 205.096L83.3418 189.099C76.1634 188.962 70.2333 194.67 70.0966 201.849L86.0937 202.153ZM83.1514 199.097C84.808 199.128 86.1253 200.497 86.0937 202.153L70.0966 201.849C69.9599 209.027 75.6683 214.957 82.8467 215.094L83.1514 199.097ZM173.135 200.811L83.1514 199.097L82.8467 215.094L172.83 216.808L173.135 200.811ZM170.078 203.753C170.11 202.097 171.479 200.779 173.135 200.811L172.83 216.808C180.009 216.945 185.939 211.236 186.076 204.058L170.078 203.753ZM173.021 206.81C171.364 206.778 170.047 205.41 170.078 203.753L186.076 204.058C186.212 196.879 180.504 190.949 173.326 190.813L173.021 206.81ZM83.0371 205.096L173.021 206.81L173.326 190.813L83.3418 189.099L83.0371 205.096Z" fill="white" mask="url(#path-2-outside-1_33_465)"/>
</svg>
