<svg width="256" height="256" viewBox="0 0 256 256" fill="none" xmlns="http://www.w3.org/2000/svg">
  <mask id="path-2-outside-1_33_471" maskUnits="userSpaceOnUse" x="36.5" y="63.5" width="182" height="171" fill="black">
  <rect fill="white" x="36.5" y="63.5" width="182" height="171"/>
    <path fill-rule="evenodd" clip-rule="evenodd" d="M44.5 78C44.5 74.4101 47.4101 71.5 51 71.5H154C185.204 71.5 210.5 96.7959 210.5 128C210.5 159.204 185.204 184.5 154 184.5H66.6924L96.9619 214.77C99.5003 217.308 99.5003 221.424 96.9619 223.962C94.4235 226.5 90.308 226.5 87.7696 223.962L46.4038 182.596C43.8654 180.058 43.8654 175.942 46.4038 173.404L87.7696 132.038C90.308 129.5 94.4235 129.5 96.9619 132.038C99.5003 134.576 99.5003 138.692 96.9619 141.23L66.6924 171.5H154C178.024 171.5 197.5 152.024 197.5 128C197.5 103.976 178.024 84.5 154 84.5H51C47.4101 84.5 44.5 81.5899 44.5 78Z"/>
  </mask>
  <path d="M66.6924 184.5V176.5H47.3787L61.0355 190.157L66.6924 184.5ZM96.9619 214.77L91.3051 220.426L96.9619 214.77ZM87.7696 223.962L93.4264 218.305L87.7696 223.962ZM46.4038 182.596L52.0607 176.939H52.0607L46.4038 182.596ZM46.4038 173.404L52.0607 179.061H52.0607L46.4038 173.404ZM87.7696 132.038L82.1127 126.381L87.7696 132.038ZM96.9619 141.23L91.3051 135.574L96.9619 141.23ZM66.6924 171.5L61.0355 165.843L47.3787 179.5H66.6924V171.5ZM51 63.5C42.9919 63.5 36.5 69.9919 36.5 78H52.5C52.5 78.8284 51.8284 79.5 51 79.5V63.5ZM154 63.5H51V79.5H154V63.5ZM218.5 128C218.5 92.3776 189.622 63.5 154 63.5V79.5C180.786 79.5 202.5 101.214 202.5 128H218.5ZM154 192.5C189.622 192.5 218.5 163.622 218.5 128H202.5C202.5 154.786 180.786 176.5 154 176.5V192.5ZM66.6924 192.5H154V176.5H66.6924V192.5ZM102.619 209.113L72.3492 178.843L61.0355 190.157L91.3051 220.426L102.619 209.113ZM102.619 229.619C108.281 223.956 108.281 214.775 102.619 209.113L91.3051 220.426C90.7193 219.841 90.7193 218.891 91.3051 218.305L102.619 229.619ZM82.1127 229.619C87.7753 235.281 96.9562 235.281 102.619 229.619L91.3051 218.305C91.8909 217.719 92.8406 217.719 93.4264 218.305L82.1127 229.619ZM40.747 188.253L82.1127 229.619L93.4264 218.305L52.0607 176.939L40.747 188.253ZM40.747 167.747C35.0843 173.41 35.0843 182.59 40.747 188.253L52.0607 176.939C52.6464 177.525 52.6464 178.475 52.0607 179.061L40.747 167.747ZM82.1127 126.381L40.747 167.747L52.0607 179.061L93.4264 137.695L82.1127 126.381ZM102.619 126.381C96.9562 120.719 87.7753 120.719 82.1127 126.381L93.4264 137.695C92.8406 138.281 91.8909 138.281 91.3051 137.695L102.619 126.381ZM102.619 146.887C108.281 141.225 108.281 132.044 102.619 126.381L91.3051 137.695C90.7193 137.109 90.7193 136.159 91.3051 135.574L102.619 146.887ZM72.3492 177.157L102.619 146.887L91.3051 135.574L61.0355 165.843L72.3492 177.157ZM154 163.5H66.6924V179.5H154V163.5ZM189.5 128C189.5 147.606 173.606 163.5 154 163.5V179.5C182.443 179.5 205.5 156.443 205.5 128H189.5ZM154 92.5C173.606 92.5 189.5 108.394 189.5 128H205.5C205.5 99.5573 182.443 76.5 154 76.5V92.5ZM51 92.5H154V76.5H51V92.5ZM36.5 78C36.5 86.0081 42.9919 92.5 51 92.5V76.5C51.8284 76.5 52.5 77.1716 52.5 78H36.5Z" fill="white" mask="url(#path-2-outside-1_33_471)"/>
</svg>
