<svg width="256" height="256" viewBox="0 0 256 256" fill="none" xmlns="http://www.w3.org/2000/svg">
<path fill-rule="evenodd" clip-rule="evenodd" d="M66.6924 171.5L74.6924 163.5L96.9619 141.23C99.5003 138.692 99.5003 134.576 96.9619 132.038C94.4235 129.5 90.308 129.5 87.7696 132.038L46.4038 173.404C43.8654 175.942 43.8654 180.058 46.4038 182.596L87.7696 223.962C90.308 226.5 94.4235 226.5 96.9619 223.962C99.5003 221.424 99.5003 217.308 96.9619 214.77L74.6924 192.5L66.6924 184.5H78.0061H154C185.204 184.5 210.5 159.204 210.5 128C210.5 96.7959 185.204 71.5 154 71.5H51C47.4101 71.5 44.5 74.4101 44.5 78C44.5 81.5899 47.4101 84.5 51 84.5H154C178.024 84.5 197.5 103.976 197.5 128C197.5 152.024 178.024 171.5 154 171.5H78.0061H66.6924ZM86.0061 163.5H154C173.606 163.5 189.5 147.606 189.5 128C189.5 108.394 173.606 92.5 154 92.5H51C42.9919 92.5 36.5 86.0081 36.5 78C36.5 69.9919 42.9919 63.5 51 63.5H154C189.622 63.5 218.5 92.3776 218.5 128C218.5 163.622 189.622 192.5 154 192.5H86.0061L102.619 209.113C108.281 214.775 108.281 223.956 102.619 229.619C96.9562 235.281 87.7753 235.281 82.1127 229.619L40.747 188.253C35.0843 182.59 35.0843 173.41 40.747 167.747L82.1127 126.381C87.7753 120.719 96.9562 120.719 102.619 126.381C108.281 132.044 108.281 141.225 102.619 146.887L86.0061 163.5Z" fill="white"/>
</svg>
