<svg width="256" height="256" viewBox="0 0 256 256" fill="none" xmlns="http://www.w3.org/2000/svg">
<mask id="path-1-outside-1_710_142" maskUnits="userSpaceOnUse" x="0" y="8" width="256" height="241" fill="black">
<rect fill="white" y="8" width="256" height="241"/>
<path d="M161.779 30C201.665 30.0003 233.999 62.3341 233.999 102.22C233.999 142.105 201.665 174.439 161.779 174.439H73.7363L99.6914 200.395C105.549 206.252 105.549 215.75 99.6914 221.607C93.8337 227.465 84.3364 227.465 78.4785 221.607L29.2598 172.389C28.3359 171.805 27.4615 171.111 26.6562 170.306C26.6405 170.29 26.625 170.274 26.6094 170.258C23.7682 167.528 22.0001 163.69 22 159.439C22 155.197 23.7605 151.365 26.5918 148.637C26.6131 148.615 26.6348 148.594 26.6562 148.572C27.4616 147.767 28.3357 147.072 29.2598 146.488L78.4785 97.2705C84.3364 91.413 93.8337 91.4128 99.6914 97.2705C105.549 103.128 105.549 112.626 99.6914 118.483L73.7354 144.439H161.779C185.096 144.439 203.999 125.537 203.999 102.22C203.999 78.9027 185.096 60.0003 161.779 60H37C28.7157 60 22 53.2842 22 45C22 36.7157 28.7157 30 37 30H161.779Z"/>
</mask>
<path d="M161.779 30L161.779 8H161.779V30ZM233.999 102.22L255.999 102.22V102.22H233.999ZM161.779 174.439V196.439H161.779L161.779 174.439ZM73.7363 174.439V152.439H20.6236L58.18 189.996L73.7363 174.439ZM99.6914 200.395L115.249 184.839L115.248 184.838L99.6914 200.395ZM99.6914 221.607L115.248 237.164L115.248 237.164L99.6914 221.607ZM78.4785 221.607L62.9222 237.164L62.923 237.165L78.4785 221.607ZM29.2598 172.389L44.8161 156.832L43.0836 155.1L41.0124 153.791L29.2598 172.389ZM26.6562 170.306L11.0999 185.862L11.1002 185.862L26.6562 170.306ZM26.6094 170.258L42.2332 154.769L42.0443 154.579L41.8507 154.393L26.6094 170.258ZM22 159.439H0V159.44L22 159.439ZM26.5918 148.637L41.8577 164.478L42.0514 164.292L42.2404 164.1L26.5918 148.637ZM26.6562 148.572L11.1 133.016L11.0999 133.016L26.6562 148.572ZM29.2598 146.488L41.012 165.086L43.0833 163.777L44.816 162.045L29.2598 146.488ZM78.4785 97.2705L62.9227 81.7136L62.9223 81.714L78.4785 97.2705ZM99.6914 97.2705L115.248 81.7145L115.248 81.7142L99.6914 97.2705ZM99.6914 118.483L115.248 134.04L115.248 134.039L99.6914 118.483ZM73.7354 144.439L58.179 128.883L20.6227 166.439H73.7354V144.439ZM161.779 144.439V166.439H161.78L161.779 144.439ZM203.999 102.22L225.999 102.22V102.22H203.999ZM161.779 60L161.78 38H161.779V60ZM22 45H0V45.0001L22 45ZM161.779 30L161.779 52C189.515 52.0002 211.999 74.4845 211.999 102.22H233.999H255.999C255.999 50.1837 213.815 8.00038 161.779 8L161.779 30ZM233.999 102.22L211.999 102.22C211.999 129.955 189.515 152.439 161.779 152.439L161.779 174.439L161.779 196.439C213.815 196.439 255.999 154.256 255.999 102.22L233.999 102.22ZM161.779 174.439V152.439H73.7363V174.439V196.439H161.779V174.439ZM73.7363 174.439L58.18 189.996L84.1351 215.951L99.6914 200.395L115.248 184.838L89.2927 158.883L73.7363 174.439ZM99.6914 200.395L84.1343 215.95C81.4018 213.217 81.4004 208.786 84.135 206.051L99.6914 221.607L115.248 237.164C129.698 222.714 129.696 199.287 115.249 184.839L99.6914 200.395ZM99.6914 221.607L84.1351 206.051C86.8697 203.316 91.3014 203.318 94.0341 206.05L78.4785 221.607L62.923 237.165C77.3714 251.612 100.798 251.614 115.248 237.164L99.6914 221.607ZM78.4785 221.607L94.0349 206.051L44.8161 156.832L29.2598 172.389L13.7034 187.945L62.9222 237.164L78.4785 221.607ZM29.2598 172.389L41.0124 153.791C41.4481 154.066 41.8522 154.389 42.2123 154.749L26.6562 170.306L11.1002 185.862C13.0709 187.833 15.2237 189.543 17.5072 190.986L29.2598 172.389ZM26.6562 170.306L42.2126 154.749C42.2451 154.782 42.2739 154.811 42.2981 154.835C42.3224 154.86 42.3431 154.881 42.3593 154.897C42.3754 154.914 42.3884 154.927 42.3966 154.936C42.4046 154.944 42.4104 154.95 42.4107 154.95C42.4109 154.95 42.4109 154.95 42.4106 154.95C42.4104 154.95 42.4103 154.95 42.41 154.949C42.4097 154.949 42.4094 154.949 42.409 154.948C42.4077 154.947 42.4049 154.944 42.4016 154.941C42.3951 154.934 42.3834 154.922 42.3692 154.908C42.3547 154.893 42.3356 154.873 42.3133 154.85C42.2908 154.828 42.2638 154.8 42.2332 154.769L26.6094 170.258L10.9855 185.746C10.9334 185.694 10.893 185.652 10.873 185.632C10.8626 185.621 10.8549 185.613 10.8523 185.611C10.851 185.609 10.8501 185.608 10.8507 185.609C10.8514 185.61 10.8509 185.609 10.8521 185.61C10.8527 185.611 10.8537 185.612 10.8549 185.613C10.8614 185.62 10.892 185.652 10.9297 185.69C10.969 185.73 11.028 185.79 11.0999 185.862L26.6562 170.306ZM26.6094 170.258L41.8507 154.393C43.1491 155.64 44 157.459 44 159.439L22 159.439L0 159.44C0.000247955 169.921 4.38723 179.417 11.3681 186.123L26.6094 170.258ZM22 159.439H44C44 161.412 43.1541 163.229 41.8577 164.478L26.5918 148.637L11.3258 132.795C4.36688 139.501 0 148.982 0 159.439H22ZM26.5918 148.637L42.2404 164.1C42.2153 164.126 42.195 164.146 42.1815 164.16C42.1683 164.173 42.1589 164.182 42.1572 164.184C42.1563 164.185 42.1561 164.185 42.1581 164.183C42.1587 164.182 42.1641 164.177 42.1676 164.174C42.176 164.165 42.1927 164.149 42.2126 164.129L26.6562 148.572L11.0999 133.016C11.1091 133.007 11.115 133.001 11.1126 133.003C11.1108 133.005 11.1108 133.005 11.106 133.01C11.1026 133.013 11.097 133.019 11.0907 133.025C11.0681 133.048 11.0118 133.104 10.9432 133.173L26.5918 148.637ZM26.6562 148.572L42.2125 164.129C41.8596 164.482 41.4564 164.805 41.012 165.086L29.2598 146.488L17.5076 127.89C15.215 129.339 13.0637 131.052 11.1 133.016L26.6562 148.572ZM29.2598 146.488L44.816 162.045L94.0347 112.827L78.4785 97.2705L62.9223 81.714L13.7036 130.932L29.2598 146.488ZM78.4785 97.2705L94.0343 112.827C91.3013 115.56 86.8694 115.561 84.1351 112.827L99.6914 97.2705L115.248 81.7142C100.798 67.2644 77.3715 67.2658 62.9227 81.7136L78.4785 97.2705ZM99.6914 97.2705L84.1347 112.827C81.401 110.093 81.4013 105.661 84.1345 102.928L99.6914 118.483L115.248 134.039C129.696 119.59 129.697 96.1639 115.248 81.7145L99.6914 97.2705ZM99.6914 118.483L84.1351 102.927L58.179 128.883L73.7354 144.439L89.2917 159.996L115.248 134.04L99.6914 118.483ZM73.7354 144.439V166.439H161.779V144.439V122.439H73.7354V144.439ZM161.779 144.439L161.78 166.439C197.246 166.439 225.999 137.687 225.999 102.22L203.999 102.22L181.999 102.22C181.999 113.386 172.946 122.439 161.779 122.439L161.779 144.439ZM203.999 102.22H225.999C225.999 66.7522 197.246 38.0004 161.78 38L161.779 60L161.779 82C172.946 82.0001 181.999 91.0532 181.999 102.22H203.999ZM161.779 60V38H37V60V82H161.779V60ZM37 60V38C40.8661 38 44 41.134 44 44.9999L22 45L0 45.0001C6.67572e-05 65.4345 16.5654 82 37 82V60ZM22 45H44C44 48.866 40.866 52 37 52V30V8C16.5655 8 0 24.5655 0 45H22ZM37 30V52H161.779V30V8H37V30Z" fill="white" mask="url(#path-1-outside-1_710_142)"/>
</svg>
