<svg width="256" height="256" viewBox="0 0 256 256" fill="none" xmlns="http://www.w3.org/2000/svg">
<g clip-path="url(#clip0_29_50)">
<path fill-rule="evenodd" clip-rule="evenodd" d="M128 92C151.196 92 170 73.196 170 50C170 26.804 151.196 8 128 8C104.804 8 86 26.804 86 50C86 73.196 104.804 92 128 92ZM156 136H153H103H100C49.1898 136 8 177.19 8 228V248H103H153H248V228C248 177.19 206.81 136 156 136ZM178 50C178 77.6142 155.614 100 128 100C100.386 100 78 77.6142 78 50C78 22.3858 100.386 0 128 0C155.614 0 178 22.3858 178 50ZM153 128H156C211.228 128 256 172.772 256 228V248V256H248H153H103H8H0V248V228C0 172.772 44.7715 128 100 128H103H153Z" fill="white"/>
</g>
<defs>
<clipPath id="clip0_29_50">
<rect width="256" height="256" fill="white"/>
</clipPath>
</defs>
</svg>
