<svg width="256" height="256" viewBox="0 0 256 256" fill="none" xmlns="http://www.w3.org/2000/svg">
  <g clip-path="url(#clip0_29_50)">
    <mask id="path-2-inside-1_29_50" fill="white">
    <path fill-rule="evenodd" clip-rule="evenodd" d="M128 100C155.614 100 178 77.6142 178 50C178 22.3858 155.614 0 128 0C100.386 0 78 22.3858 78 50C78 77.6142 100.386 100 128 100ZM156 128H153H103H100C44.7715 128 0 172.772 0 228V256H103H153H256V228C256 172.772 211.228 128 156 128Z"/>
    </mask>
    <path d="M0 256H-8V264H0V256ZM256 256V264H264V256H256ZM170 50C170 73.196 151.196 92 128 92V108C160.033 108 186 82.0325 186 50H170ZM128 8C151.196 8 170 26.804 170 50H186C186 17.9675 160.033 -8 128 -8V8ZM86 50C86 26.804 104.804 8 128 8V-8C95.9675 -8 70 17.9675 70 50H86ZM128 92C104.804 92 86 73.196 86 50H70C70 82.0325 95.9675 108 128 108V92ZM153 136H156V120H153V136ZM103 136H153V120H103V136ZM100 136H103V120H100V136ZM8 228C8 177.19 49.1898 136 100 136V120C40.3532 120 -8 168.353 -8 228H8ZM8 256V228H-8V256H8ZM103 248H0V264H103V248ZM153 248H103V264H153V248ZM256 248H153V264H256V248ZM248 228V256H264V228H248ZM156 136C206.81 136 248 177.19 248 228H264C264 168.353 215.647 120 156 120V136Z" fill="white" mask="url(#path-2-inside-1_29_50)"/>
  </g>
</svg>