<svg width="256" height="256" viewBox="0 0 256 256" fill="none" xmlns="http://www.w3.org/2000/svg">
<mask id="path-1-inside-1_266_2" fill="white">
<path fill-rule="evenodd" clip-rule="evenodd" d="M97 135.001C43.3945 135.199 0 178.715 0 232.367V253C0 254.657 1.34314 256 3 256H97.3672V256H185.294C186.788 256 188 254.788 188 253.293C188 252.104 187.224 251.055 186.087 250.706L181.055 249.162C177.001 247.919 173.069 246.305 169.31 244.342C160.751 239.871 153.026 233.959 146.474 226.865L144.183 224.386C139.573 219.394 135.484 213.946 131.978 208.125L131 206.5L126 196L122.879 188.354C118.33 177.21 115.831 165.335 115.501 153.303L115.08 137.918C115.035 136.294 113.706 135 112.081 135H97.3672H97V135.001Z"/>
</mask>
<path d="M97 135.001L97.0554 150.001L112 149.945V135.001H97ZM97.3672 256V271H112.367V256H97.3672ZM97.3672 256V241H82.3672V256H97.3672ZM186.087 250.706L190.487 236.366L190.487 236.366L186.087 250.706ZM181.055 249.162L185.455 234.822L181.055 249.162ZM169.31 244.342L162.366 257.637L162.366 257.637L169.31 244.342ZM146.474 226.865L135.454 237.043V237.043L146.474 226.865ZM144.183 224.386L133.164 234.563L133.164 234.563L144.183 224.386ZM131.978 208.125L119.128 215.863L119.128 215.863L131.978 208.125ZM131 206.5L117.457 212.949L117.772 213.61L118.15 214.238L131 206.5ZM126 196L112.112 201.668L112.274 202.064L112.457 202.449L126 196ZM122.879 188.354L136.767 182.686V182.686L122.879 188.354ZM115.501 153.303L100.507 153.714V153.714L115.501 153.303ZM115.08 137.918L130.074 137.507V137.507L115.08 137.918ZM97 135V120H82V135H97ZM15 232.367C15 186.981 51.7094 150.168 97.0554 150.001L96.9446 120.001C35.0796 120.229 -15 170.45 -15 232.367H15ZM15 253V232.367H-15V253H15ZM3 241C9.62743 241 15 246.373 15 253H-15C-15 262.941 -6.94114 271 3 271V241ZM97.3672 241H3V271H97.3672V241ZM82.3672 256V256H112.367V256H82.3672ZM185.294 241H97.3672V271H185.294V241ZM173 253.293C173 246.504 178.504 241 185.294 241V271C195.073 271 203 263.072 203 253.293H173ZM181.688 265.046C176.525 263.463 173 258.694 173 253.293H203C203 245.515 197.923 238.647 190.487 236.366L181.688 265.046ZM176.656 263.503L181.688 265.046L190.487 236.366L185.455 234.822L176.656 263.503ZM162.366 257.637C166.94 260.026 171.723 261.99 176.656 263.503L185.455 234.822C182.279 233.848 179.199 232.584 176.254 231.046L162.366 257.637ZM135.454 237.043C143.175 245.402 152.279 252.369 162.366 257.637L176.255 231.046C169.222 227.373 162.876 222.516 157.493 216.688L135.454 237.043ZM133.164 234.563L135.454 237.043L157.493 216.688L155.203 214.208L133.164 234.563ZM119.128 215.863C123.159 222.557 127.862 228.823 133.164 234.563L155.203 214.208C151.284 209.966 147.808 205.334 144.828 200.386L119.128 215.863ZM118.15 214.238L119.128 215.863L144.828 200.386L143.85 198.762L118.15 214.238ZM112.457 202.449L117.457 212.949L144.543 200.051L139.543 189.551L112.457 202.449ZM108.991 194.022L112.112 201.668L139.888 190.332L136.767 182.686L108.991 194.022ZM100.507 153.714C100.886 167.551 103.76 181.206 108.991 194.022L136.767 182.686C132.9 173.213 130.776 163.12 130.496 152.892L100.507 153.714ZM100.086 138.329L100.507 153.714L130.496 152.892L130.074 137.507L100.086 138.329ZM112.081 150C105.582 150 100.264 144.826 100.086 138.329L130.074 137.507C129.807 127.762 121.83 120 112.081 120V150ZM97.3672 150H112.081V120H97.3672V150ZM97 150H97.3672V120H97V150ZM112 135.001V135H82V135.001H112Z" fill="white" mask="url(#path-1-inside-1_266_2)"/>
<circle cx="116.5" cy="61.5" r="40" stroke="white" stroke-width="15"/>
<mask id="path-4-inside-2_266_2" fill="white">
<path fill-rule="evenodd" clip-rule="evenodd" d="M193.019 115.578C191.398 114.81 189.517 114.807 187.894 115.571L178.156 120.156L163.289 127.155L163.044 127.27L162.789 127.363L137 136.768V141.569C137 159.887 141.953 177.865 151.334 193.599L152.168 194.997C154.778 199.374 157.782 203.505 161.143 207.337L163.398 209.908C168.596 215.834 174.826 220.767 181.786 224.467L186.18 226.803C188.842 228.218 192.035 228.206 194.687 226.772L198.911 224.487C205.834 220.742 212.115 215.917 217.518 210.193L218.872 208.758C223.879 203.454 228.193 197.536 231.711 191.146L232.083 190.47C239.597 176.824 243.537 161.5 243.537 145.922V136.758L217.934 127.359L217.678 127.265L217.432 127.148L202.664 120.149L193.019 115.578ZM182.783 104.714C187.653 102.422 193.294 102.429 198.158 104.734L207.804 109.306L222.325 116.188L251.526 126.908C253.935 127.793 255.537 130.087 255.537 132.653V145.922C255.537 163.524 251.085 180.839 242.595 196.258L242.223 196.934C238.216 204.212 233.302 210.953 227.599 216.995L226.244 218.43C219.966 225.082 212.666 230.69 204.62 235.042L200.396 237.327C194.21 240.673 186.758 240.7 180.548 237.399L176.153 235.063C167.911 230.681 160.532 224.839 154.376 217.821L152.121 215.249C148.279 210.869 144.845 206.147 141.861 201.142L141.027 199.744C130.538 182.152 125 162.051 125 141.569V132.648C125 130.08 126.605 127.786 129.018 126.906L158.423 116.182L173.044 109.299L182.783 104.714Z"/>
</mask>
<path d="M187.894 115.571L194.283 129.143L194.283 129.143L187.894 115.571ZM193.019 115.578L199.443 102.023V102.023L193.019 115.578ZM178.156 120.156L171.766 106.585V106.585L178.156 120.156ZM163.289 127.155L156.9 113.584L156.9 113.584L163.289 127.155ZM163.044 127.27L168.183 141.362L168.819 141.13L169.433 140.842L163.044 127.27ZM162.789 127.363L157.65 113.271L157.65 113.271L162.789 127.363ZM137 136.768L131.861 122.676L122 126.272V136.768H137ZM151.334 193.599L138.45 201.28L138.45 201.28L151.334 193.599ZM152.168 194.997L165.051 187.315L165.051 187.315L152.168 194.997ZM161.143 207.337L149.866 217.227H149.866L161.143 207.337ZM163.398 209.908L174.675 200.017L163.398 209.908ZM181.786 224.467L188.827 211.222L188.827 211.222L181.786 224.467ZM186.18 226.803L179.139 240.048L179.139 240.048L186.18 226.803ZM194.687 226.772L201.823 239.965L201.823 239.965L194.687 226.772ZM198.911 224.487L191.774 211.294H191.774L198.911 224.487ZM217.518 210.193L206.61 199.897L206.61 199.897L217.518 210.193ZM218.872 208.758L229.781 219.054L229.781 219.054L218.872 208.758ZM231.711 191.146L218.571 183.912L218.571 183.912L231.711 191.146ZM232.083 190.47L245.223 197.705L245.223 197.705L232.083 190.47ZM243.537 136.758H258.537V126.286L248.706 122.677L243.537 136.758ZM217.934 127.359L212.764 141.44L212.764 141.44L217.934 127.359ZM217.678 127.265L211.254 140.82L211.869 141.111L212.508 141.346L217.678 127.265ZM217.432 127.148L223.856 113.593L223.856 113.593L217.432 127.148ZM202.664 120.149L209.088 106.595V106.595L202.664 120.149ZM198.158 104.734L191.734 118.289L198.158 104.734ZM182.783 104.714L176.394 91.1431V91.1431L182.783 104.714ZM207.804 109.306L201.38 122.86L201.38 122.86L207.804 109.306ZM222.325 116.188L215.901 129.743L216.516 130.034L217.155 130.269L222.325 116.188ZM251.526 126.908L246.356 140.989H246.356L251.526 126.908ZM242.595 196.258L255.735 203.492V203.492L242.595 196.258ZM242.223 196.934L229.083 189.7L229.083 189.7L242.223 196.934ZM227.599 216.995L238.507 227.291L238.507 227.291L227.599 216.995ZM226.244 218.43L215.336 208.134L215.336 208.134L226.244 218.43ZM204.62 235.042L197.483 221.849L204.62 235.042ZM200.396 237.327L193.26 224.133L193.26 224.133L200.396 237.327ZM180.548 237.399L173.507 250.643L173.507 250.643L180.548 237.399ZM176.153 235.063L183.194 221.818L183.194 221.818L176.153 235.063ZM154.376 217.821L165.653 207.93L165.653 207.93L154.376 217.821ZM152.121 215.249L140.844 225.14H140.844L152.121 215.249ZM141.861 201.142L154.744 193.46L154.744 193.46L141.861 201.142ZM141.027 199.744L128.143 207.426L128.143 207.426L141.027 199.744ZM129.018 126.906L123.879 112.814L123.879 112.814L129.018 126.906ZM158.423 116.182L163.562 130.274L164.199 130.042L164.812 129.754L158.423 116.182ZM173.044 109.299L179.433 122.87L173.044 109.299ZM194.283 129.143C191.848 130.289 189.027 130.286 186.595 129.133L199.443 102.023C193.768 99.3337 187.187 99.3252 181.505 102L194.283 129.143ZM184.545 133.727L194.283 129.143L181.505 102L171.766 106.585L184.545 133.727ZM169.678 140.726L184.545 133.727L171.766 106.585L156.9 113.584L169.678 140.726ZM169.433 140.842L169.678 140.726L156.9 113.584L156.655 113.699L169.433 140.842ZM167.928 141.455L168.183 141.362L157.904 113.178L157.65 113.271L167.928 141.455ZM142.139 150.86L167.928 141.455L157.65 113.271L131.861 122.676L142.139 150.86ZM152 141.569V136.768H122V141.569H152ZM164.218 185.917C156.222 172.506 152 157.182 152 141.569H122C122 162.592 127.684 183.223 138.45 201.28L164.218 185.917ZM165.051 187.315L164.218 185.917L138.45 201.28L139.284 202.679L165.051 187.315ZM172.42 197.446C169.661 194.3 167.194 190.909 165.051 187.315L139.284 202.679C142.361 207.84 145.903 212.71 149.866 217.227L172.42 197.446ZM174.675 200.017L172.42 197.446L149.866 217.227L152.121 219.799L174.675 200.017ZM188.827 211.222C183.47 208.374 178.675 204.578 174.675 200.017L152.121 219.799C158.516 227.09 166.182 233.159 174.745 237.712L188.827 211.222ZM193.221 213.558L188.827 211.222L174.745 237.712L179.139 240.048L193.221 213.558ZM187.55 213.578C189.318 212.622 191.447 212.615 193.221 213.558L179.139 240.048C186.237 243.821 194.753 243.79 201.823 239.965L187.55 213.578ZM191.774 211.294L187.55 213.578L201.823 239.965L206.047 237.681L191.774 211.294ZM206.61 199.897C202.302 204.461 197.294 208.308 191.774 211.294L206.047 237.681C214.374 233.177 221.928 227.373 228.426 220.489L206.61 199.897ZM207.964 198.462L206.61 199.897L228.426 220.489L229.781 219.054L207.964 198.462ZM218.571 183.912C215.664 189.19 212.1 194.079 207.964 198.462L229.781 219.054C235.658 212.828 240.721 205.881 244.851 198.381L218.571 183.912ZM218.944 183.235L218.571 183.912L244.851 198.381L245.223 197.705L218.944 183.235ZM228.537 145.922C228.537 158.97 225.237 171.805 218.944 183.235L245.223 197.705C253.957 181.843 258.537 164.03 258.537 145.922H228.537ZM228.537 136.758V145.922H258.537V136.758H228.537ZM212.764 141.44L238.367 150.839L248.706 122.677L223.103 113.278L212.764 141.44ZM212.508 141.346L212.764 141.44L223.103 113.278L222.848 113.184L212.508 141.346ZM211.008 140.703L211.254 140.82L224.102 113.71L223.856 113.593L211.008 140.703ZM196.24 133.704L211.008 140.703L223.856 113.593L209.088 106.595L196.24 133.704ZM186.595 129.133L196.24 133.704L209.088 106.595L199.443 102.023L186.595 129.133ZM204.582 91.1795C195.664 86.9529 185.323 86.9396 176.394 91.1431L189.172 118.286C189.983 117.904 190.923 117.905 191.734 118.289L204.582 91.1795ZM214.228 95.7508L204.582 91.1795L191.734 118.289L201.38 122.86L214.228 95.7508ZM228.749 102.633L214.228 95.7508L201.38 122.86L215.901 129.743L228.749 102.633ZM256.695 112.827L227.495 102.107L217.155 130.269L246.356 140.989L256.695 112.827ZM270.537 132.653C270.537 123.796 265.01 115.88 256.695 112.827L246.356 140.989C242.86 139.706 240.537 136.377 240.537 132.653H270.537ZM270.537 145.922V132.653H240.537V145.922H270.537ZM255.735 203.492C265.445 185.858 270.537 166.054 270.537 145.922H240.537C240.537 160.994 236.725 175.82 229.455 189.023L255.735 203.492ZM255.363 204.169L255.735 203.492L229.455 189.023L229.083 189.7L255.363 204.169ZM238.507 227.291C245.08 220.327 250.744 212.558 255.363 204.169L229.083 189.7C225.687 195.867 221.523 201.579 216.691 206.699L238.507 227.291ZM237.153 228.726L238.507 227.291L216.691 206.699L215.336 208.134L237.153 228.726ZM211.756 248.236C221.206 243.124 229.779 236.538 237.153 228.726L215.336 208.134C210.152 213.626 204.126 218.255 197.483 221.849L211.756 248.236ZM207.533 250.52L211.756 248.236L197.483 221.849L193.26 224.133L207.533 250.52ZM173.507 250.643C184.154 256.303 196.927 256.257 207.533 250.52L193.26 224.133C191.492 225.089 189.363 225.097 187.589 224.154L173.507 250.643ZM169.112 248.307L173.507 250.643L187.589 224.154L183.194 221.818L169.112 248.307ZM143.099 227.711C150.452 236.095 159.266 243.073 169.112 248.307L183.194 221.818C176.555 218.288 170.612 213.583 165.653 207.93L143.099 227.711ZM140.844 225.14L143.099 227.711L165.653 207.93L163.398 205.358L140.844 225.14ZM128.977 208.824C132.428 214.612 136.4 220.074 140.844 225.14L163.398 205.358C160.158 201.664 157.261 197.681 154.744 193.46L128.977 208.824ZM128.143 207.426L128.977 208.824L154.744 193.46L153.911 192.062L128.143 207.426ZM110 141.569C110 164.755 116.269 187.511 128.143 207.426L153.911 192.062C144.807 176.793 140 159.346 140 141.569H110ZM110 132.648V141.569H140V132.648H110ZM123.879 112.814C115.545 115.853 110 123.777 110 132.648H140C140 136.383 137.665 139.719 134.157 140.998L123.879 112.814ZM153.284 102.09L123.879 112.814L134.157 140.998L163.562 130.274L153.284 102.09ZM166.655 95.7277L152.034 102.611L164.812 129.754L179.433 122.87L166.655 95.7277ZM176.394 91.1431L166.655 95.7277L179.433 122.87L189.172 118.286L176.394 91.1431Z" fill="white" mask="url(#path-4-inside-2_266_2)"/>
<line x1="190.5" y1="112" x2="190.5" y2="231" stroke="white" stroke-width="15"/>
</svg>
