<svg width="256" height="256" viewBox="0 0 256 256" fill="none" xmlns="http://www.w3.org/2000/svg">
<mask id="path-1-inside-1_710_52" fill="white">
<path d="M151 146C206.228 146 251 190.772 251 246V256H5V246C5 190.772 49.7715 146 105 146H151ZM128 0C163.346 0 192 28.6538 192 64C192 99.3462 163.346 128 128 128C92.6538 128 64 99.3462 64 64C64 28.6538 92.6538 0 128 0Z"/>
</mask>
<path d="M251 246H273V246H251ZM251 256V278H273V256H251ZM5 256H-17V278H5V256ZM151 146V168C194.078 168 229 202.922 229 246H251H273C273 178.621 218.379 124 151 124V146ZM251 246H229V256H251H273V246H251ZM251 256V234H5V256V278H251V256ZM5 256H27V246H5H-17V256H5ZM5 246H27C27 202.922 61.9218 168 105 168V146V124C37.6213 124 -17 178.621 -17 246H5ZM105 146V168H151V146V124H105V146ZM128 0V22C151.196 22 170 40.804 170 64H192H214C214 16.5035 175.496 -22 128 -22V0ZM192 64H170C170 87.196 151.196 106 128 106V128V150C175.496 150 214 111.496 214 64H192ZM128 128V106C104.804 106 86 87.196 86 64H64H42C42 111.496 80.5035 150 128 150V128ZM64 64H86C86 40.804 104.804 22 128 22V0V-22C80.5035 -22 42 16.5035 42 64H64Z" fill="white" mask="url(#path-1-inside-1_710_52)"/>
</svg>
