<svg width="256" height="256" viewBox="0 0 256 256" fill="none" xmlns="http://www.w3.org/2000/svg">
<mask id="path-1-inside-1_239_37" fill="white">
<path fill-rule="evenodd" clip-rule="evenodd" d="M128 100C155.614 100 178 77.6142 178 50C178 22.3858 155.614 0 128 0C100.386 0 78 22.3858 78 50C78 77.6142 100.386 100 128 100ZM151 128H148H108H105C49.7715 128 5 172.772 5 228V256H108H148H251V228C251 172.772 206.228 128 151 128Z"/>
</mask>
<path d="M5 256H-17V278H5V256ZM251 256V278H273V256H251ZM156 50C156 65.464 143.464 78 128 78V122C167.764 122 200 89.7645 200 50H156ZM128 22C143.464 22 156 34.536 156 50H200C200 10.2355 167.764 -22 128 -22V22ZM100 50C100 34.536 112.536 22 128 22V-22C88.2355 -22 56 10.2355 56 50H100ZM128 78C112.536 78 100 65.464 100 50H56C56 89.7645 88.2355 122 128 122V78ZM148 150H151V106H148V150ZM108 150H148V106H108V150ZM105 150H108V106H105V150ZM27 228C27 184.922 61.9218 150 105 150V106C37.6213 106 -17 160.621 -17 228H27ZM27 256V228H-17V256H27ZM108 234H5V278H108V234ZM148 234H108V278H148V234ZM251 234H148V278H251V234ZM229 228V256H273V228H229ZM151 150C194.078 150 229 184.922 229 228H273C273 160.621 218.379 106 151 106V150Z" fill="white" mask="url(#path-1-inside-1_239_37)"/>
</svg>
