<svg width="256" height="256" viewBox="0 0 256 256" fill="none" xmlns="http://www.w3.org/2000/svg">
<path fill-rule="evenodd" clip-rule="evenodd" d="M212 64C212 52.9543 203.046 44 192 44C180.954 44 172 52.9543 172 64C172 75.0457 180.954 84 192 84C203.046 84 212 75.0457 212 64ZM192 52C198.627 52 204 57.3726 204 64C204 70.6274 198.627 76 192 76C185.373 76 180 70.6274 180 64C180 57.3726 185.373 52 192 52ZM192 108C203.046 108 212 116.954 212 128C212 139.046 203.046 148 192 148C180.954 148 172 139.046 172 128C172 116.954 180.954 108 192 108ZM204 128C204 121.373 198.627 116 192 116C185.373 116 180 121.373 180 128C180 134.627 185.373 140 192 140C198.627 140 204 134.627 204 128ZM84 192C84 180.954 75.0457 172 64 172C52.9543 172 44 180.954 44 192C44 203.046 52.9543 212 64 212C75.0457 212 84 203.046 84 192ZM64 180C70.6274 180 76 185.373 76 192C76 198.627 70.6274 204 64 204C57.3726 204 52 198.627 52 192C52 185.373 57.3726 180 64 180ZM128 172C139.046 172 148 180.954 148 192C148 203.046 139.046 212 128 212C116.954 212 108 203.046 108 192C108 180.954 116.954 172 128 172ZM140 192C140 185.373 134.627 180 128 180C121.373 180 116 185.373 116 192C116 198.627 121.373 204 128 204C134.627 204 140 198.627 140 192ZM192 172C203.046 172 212 180.954 212 192C212 203.046 203.046 212 192 212C180.954 212 172 203.046 172 192C172 180.954 180.954 172 192 172ZM204 192C204 185.373 198.627 180 192 180C185.373 180 180 185.373 180 192C180 198.627 185.373 204 192 204C198.627 204 204 198.627 204 192ZM148 128C148 116.954 139.046 108 128 108C116.954 108 108 116.954 108 128C108 139.046 116.954 148 128 148C139.046 148 148 139.046 148 128ZM128 116C134.627 116 140 121.373 140 128C140 134.627 134.627 140 128 140C121.373 140 116 134.627 116 128C116 121.373 121.373 116 128 116ZM64 108C75.0457 108 84 116.954 84 128C84 139.046 75.0457 148 64 148C52.9543 148 44 139.046 44 128C44 116.954 52.9543 108 64 108ZM76 128C76 121.373 70.6274 116 64 116C57.3726 116 52 121.373 52 128C52 134.627 57.3726 140 64 140C70.6274 140 76 134.627 76 128ZM128 44C139.046 44 148 52.9543 148 64C148 75.0457 139.046 84 128 84C116.954 84 108 75.0457 108 64C108 52.9543 116.954 44 128 44ZM140 64C140 57.3726 134.627 52 128 52C121.373 52 116 57.3726 116 64C116 70.6274 121.373 76 128 76C134.627 76 140 70.6274 140 64ZM84 64C84 52.9543 75.0457 44 64 44C52.9543 44 44 52.9543 44 64C44 75.0457 52.9543 84 64 84C75.0457 84 84 75.0457 84 64ZM64 52C70.6274 52 76 57.3726 76 64C76 70.6274 70.6274 76 64 76C57.3726 76 52 70.6274 52 64C52 57.3726 57.3726 52 64 52Z" fill="white"/>
</svg>
