<svg width="256" height="256" viewBox="0 0 256 256" fill="none" xmlns="http://www.w3.org/2000/svg">
<path d="M38.4219 190.156V179.156H38.4219L38.4219 190.156ZM65.8438 217.578L76.8438 217.578V217.578H65.8438ZM38.4219 245V256V256V245ZM11 217.578H0V217.578L11 217.578ZM128 190.156V179.156V179.156V190.156ZM155.422 217.578H166.422V217.578H155.422ZM128 245V256V256V245ZM100.578 217.578H89.5781V217.578H100.578ZM217.578 190.156V179.156V179.156V190.156ZM245 217.578H256V217.578H245ZM217.578 245V256V256V245ZM190.156 217.578H179.156V217.578H190.156ZM38.4219 100.578V89.5781H38.4219L38.4219 100.578ZM65.8438 128L76.8438 128V128L65.8438 128ZM38.4219 155.422V166.422V166.422V155.422ZM11 128L0 128V128L11 128ZM128 100.578V89.5781V89.5781V100.578ZM155.422 128H166.422V128L155.422 128ZM128 155.422V166.422V166.422V155.422ZM100.578 128L89.5781 128V128L100.578 128ZM217.578 100.578V89.5781V89.5781V100.578ZM245 128H256V128L245 128ZM217.578 155.422V166.422V166.422V155.422ZM190.156 128L179.156 128V128H190.156ZM38.4219 11V0H38.4219L38.4219 11ZM65.8438 38.4219L76.8438 38.4219V38.4219L65.8438 38.4219ZM38.4219 65.8438V76.8438V76.8438V65.8438ZM11 38.4219L0 38.4219V38.4219L11 38.4219ZM128 11V0V0V11ZM155.422 38.4219L166.422 38.4219V38.4219L155.422 38.4219ZM128 65.8438V76.8438V76.8438V65.8438ZM100.578 38.4219L89.5781 38.4219V38.4219L100.578 38.4219ZM217.578 11V0V0V11ZM245 38.4219H256V38.4219L245 38.4219ZM217.578 65.8438V76.8438V76.8438V65.8438ZM190.156 38.4219L179.156 38.4219V38.4219H190.156ZM38.4219 190.156V201.156C47.4914 201.156 54.8438 208.509 54.8438 217.578H65.8438H76.8438C76.8438 196.358 59.6417 179.156 38.4219 179.156V190.156ZM65.8438 217.578L54.8438 217.578C54.8437 226.648 47.4914 234 38.4219 234V245V256C59.6417 256 76.8437 238.798 76.8438 217.578L65.8438 217.578ZM38.4219 245V234C29.3524 234 22 226.648 22 217.578L11 217.578L0 217.578C5.14984e-05 238.798 17.2021 256 38.4219 256V245ZM11 217.578H22C22 208.509 29.3523 201.156 38.4219 201.156L38.4219 190.156L38.4219 179.156C17.2021 179.156 -9.53674e-07 196.358 0 217.578H11ZM128 190.156V201.156C137.07 201.156 144.422 208.509 144.422 217.578H155.422H166.422C166.422 196.358 149.22 179.156 128 179.156V190.156ZM155.422 217.578H144.422C144.422 226.648 137.07 234 128 234V245V256C149.22 256 166.422 238.798 166.422 217.578H155.422ZM128 245V234C118.93 234 111.578 226.648 111.578 217.578H100.578H89.5781C89.5781 238.798 106.78 256 128 256V245ZM100.578 217.578H111.578C111.578 208.509 118.93 201.156 128 201.156V190.156V179.156C106.78 179.156 89.5781 196.358 89.5781 217.578H100.578ZM217.578 190.156V201.156C226.648 201.156 234 208.509 234 217.578H245H256C256 196.358 238.798 179.156 217.578 179.156V190.156ZM245 217.578H234C234 226.648 226.648 234 217.578 234V245V256C238.798 256 256 238.798 256 217.578H245ZM217.578 245V234C208.509 234 201.156 226.648 201.156 217.578H190.156H179.156C179.156 238.798 196.358 256 217.578 256V245ZM190.156 217.578H201.156C201.156 208.509 208.509 201.156 217.578 201.156V190.156V179.156C196.358 179.156 179.156 196.358 179.156 217.578H190.156ZM38.4219 100.578V111.578C47.4914 111.578 54.8437 118.93 54.8438 128L65.8438 128L76.8438 128C76.8437 106.78 59.6417 89.5781 38.4219 89.5781V100.578ZM65.8438 128L54.8438 128C54.8437 137.07 47.4914 144.422 38.4219 144.422V155.422V166.422C59.6417 166.422 76.8437 149.22 76.8438 128L65.8438 128ZM38.4219 155.422V144.422C29.3524 144.422 22 137.07 22 128L11 128L0 128C5.14984e-05 149.22 17.2021 166.422 38.4219 166.422V155.422ZM11 128L22 128C22 118.93 29.3524 111.578 38.4219 111.578L38.4219 100.578L38.4219 89.5781C17.2021 89.5781 5.72205e-05 106.78 0 128L11 128ZM128 100.578V111.578C137.069 111.578 144.422 118.93 144.422 128L155.422 128L166.422 128C166.422 106.78 149.22 89.5781 128 89.5781V100.578ZM155.422 128H144.422C144.422 137.07 137.07 144.422 128 144.422V155.422V166.422C149.22 166.422 166.422 149.22 166.422 128H155.422ZM128 155.422V144.422C118.93 144.422 111.578 137.07 111.578 128L100.578 128L89.5781 128C89.5781 149.22 106.78 166.422 128 166.422V155.422ZM100.578 128L111.578 128C111.578 118.93 118.931 111.578 128 111.578V100.578V89.5781C106.78 89.5781 89.5782 106.78 89.5781 128L100.578 128ZM217.578 100.578V111.578C226.648 111.578 234 118.93 234 128L245 128L256 128C256 106.78 238.798 89.5781 217.578 89.5781V100.578ZM245 128H234C234 137.07 226.648 144.422 217.578 144.422V155.422V166.422C238.798 166.422 256 149.22 256 128H245ZM217.578 155.422V144.422C208.509 144.422 201.156 137.07 201.156 128H190.156H179.156C179.156 149.22 196.358 166.422 217.578 166.422V155.422ZM190.156 128L201.156 128C201.156 118.93 208.509 111.578 217.578 111.578V100.578V89.5781C196.358 89.5781 179.156 106.78 179.156 128L190.156 128ZM38.4219 11V22C47.4914 22 54.8437 29.3523 54.8438 38.4219L65.8438 38.4219L76.8438 38.4219C76.8437 17.2021 59.6417 9.53674e-07 38.4219 0V11ZM65.8438 38.4219L54.8438 38.4219C54.8437 47.4914 47.4914 54.8438 38.4219 54.8438V65.8438V76.8438C59.6417 76.8438 76.8437 59.6416 76.8438 38.4219L65.8438 38.4219ZM38.4219 65.8438V54.8438C29.3524 54.8438 22 47.4914 22 38.4218L11 38.4219L0 38.4219C5.14984e-05 59.6416 17.2021 76.8438 38.4219 76.8438V65.8438ZM11 38.4219L22 38.4219C22 29.3523 29.3523 22 38.4219 22L38.4219 11L38.4219 0C17.2021 1.90735e-06 7.62939e-06 17.2021 0 38.4219L11 38.4219ZM128 11V22C137.07 22 144.422 29.3523 144.422 38.4219L155.422 38.4219L166.422 38.4219C166.422 17.2021 149.22 9.53674e-07 128 0V11ZM155.422 38.4219L144.422 38.4219C144.422 47.4914 137.07 54.8438 128 54.8438V65.8438V76.8438C149.22 76.8438 166.422 59.6417 166.422 38.4219L155.422 38.4219ZM128 65.8438V54.8438C118.93 54.8438 111.578 47.4914 111.578 38.4219L100.578 38.4219L89.5781 38.4219C89.5781 59.6417 106.78 76.8438 128 76.8438V65.8438ZM100.578 38.4219L111.578 38.4219C111.578 29.3523 118.93 22 128 22V11V0C106.78 2.86102e-06 89.5781 17.2021 89.5781 38.4219L100.578 38.4219ZM217.578 11V22C226.648 22 234 29.3523 234 38.4219L245 38.4219L256 38.4219C256 17.2021 238.798 9.53674e-07 217.578 0V11ZM245 38.4219H234C234 47.4914 226.648 54.8438 217.578 54.8438V65.8438V76.8438C238.798 76.8438 256 59.6417 256 38.4219H245ZM217.578 65.8438V54.8438C208.509 54.8438 201.156 47.4914 201.156 38.4219H190.156H179.156C179.156 59.6417 196.358 76.8438 217.578 76.8438V65.8438ZM190.156 38.4219L201.156 38.4219C201.156 29.3523 208.509 22 217.578 22V11V0C196.358 2.86102e-06 179.156 17.2021 179.156 38.4219L190.156 38.4219Z" fill="white"/>
</svg>
