<svg width="256" height="256" viewBox="0 0 256 256" fill="none" xmlns="http://www.w3.org/2000/svg">
<path fill-rule="evenodd" clip-rule="evenodd" d="M234.588 205.75L132.83 29.5C130.906 26.1667 126.094 26.1667 124.17 29.5L22.412 205.75C20.4874 209.083 22.8931 213.25 26.7421 213.25H230.258C234.107 213.25 236.513 209.083 234.588 205.75ZM148.419 20.5C139.566 5.16667 117.434 5.16667 108.581 20.5L6.8235 196.75C-2.02921 212.083 9.03666 231.25 26.7421 231.25H230.258C247.963 231.25 259.029 212.083 250.177 196.75L148.419 20.5ZM116 72C116 65.9249 120.925 61 127 61H130C136.075 61 141 65.9249 141 72V147C141 153.075 136.075 158 130 158H127C120.925 158 116 153.075 116 147V72ZM128.5 195C135.404 195 141 189.404 141 182.5C141 175.596 135.404 170 128.5 170C121.597 170 116 175.596 116 182.5C116 189.404 121.597 195 128.5 195Z" fill="white"/>
</svg>
