<svg width="256" height="256" viewBox="0 0 256 256" fill="none" xmlns="http://www.w3.org/2000/svg">
<path fill-rule="evenodd" clip-rule="evenodd" d="M148.419 20.5C139.566 5.16667 117.434 5.16667 108.581 20.5L6.8235 196.75C-2.02921 212.083 9.03666 231.25 26.7421 231.25H230.258C247.963 231.25 259.029 212.083 250.177 196.75L148.419 20.5ZM116 72C116 65.9249 120.925 61 127 61H130C136.075 61 141 65.9249 141 72V147C141 153.075 136.075 158 130 158H127C120.925 158 116 153.075 116 147V72ZM141 182.5C141 189.404 135.404 195 128.5 195C121.596 195 116 189.404 116 182.5C116 175.596 121.596 170 128.5 170C135.404 170 141 175.596 141 182.5Z" fill="white"/>
</svg>
