<svg width="256" height="256" viewBox="0 0 256 256" fill="none" xmlns="http://www.w3.org/2000/svg">
<g clip-path="url(#clip0_220_43)">
<mask id="path-1-outside-1_220_43" maskUnits="userSpaceOnUse" x="38" y="37" width="180" height="182" fill="black">
<rect fill="white" x="38" y="37" width="180" height="182"/>
<path fill-rule="evenodd" clip-rule="evenodd" d="M56.6921 56.6919C51.7693 61.6147 51.7693 69.5961 56.6921 74.5188L110.174 128L56.6921 181.482C51.7693 186.405 51.7693 194.386 56.6921 199.309C61.6149 204.232 69.5962 204.232 74.519 199.309L128.001 145.827L181.481 199.308C186.404 204.23 194.385 204.23 199.308 199.308C204.231 194.385 204.231 186.404 199.308 181.481L145.828 128L199.308 74.5199C204.231 69.5971 204.231 61.6157 199.308 56.6929C194.385 51.7702 186.404 51.7702 181.481 56.6929L128.001 110.173L74.5191 56.6919C69.5963 51.7691 61.6149 51.7691 56.6921 56.6919Z"/>
</mask>
<path d="M56.6921 74.5188L67.2987 63.9122L67.2987 63.9122L56.6921 74.5188ZM56.6921 56.6919L46.0855 46.0853L46.0855 46.0853L56.6921 56.6919ZM110.174 128L120.78 138.607L131.387 128L120.78 117.394L110.174 128ZM56.6921 181.482L67.2987 192.088L67.2987 192.088L56.6921 181.482ZM56.6921 199.309L67.2987 188.702L67.2987 188.702L56.6921 199.309ZM74.519 199.309L63.9124 188.702H63.9124L74.519 199.309ZM128.001 145.827L138.607 135.221L128.001 124.614L117.394 135.221L128.001 145.827ZM199.308 199.308L188.701 188.701L188.701 188.701L199.308 199.308ZM199.308 181.481L209.915 170.874L209.915 170.874L199.308 181.481ZM145.828 128L135.221 117.394L124.614 128L135.221 138.607L145.828 128ZM199.308 74.5199L188.701 63.9133V63.9133L199.308 74.5199ZM199.308 56.6929L188.701 67.2995L188.701 67.2996L199.308 56.6929ZM181.481 56.6929L170.874 46.0863L170.874 46.0863L181.481 56.6929ZM128.001 110.173L117.394 120.78L128.001 131.387L138.607 120.78L128.001 110.173ZM74.5191 56.6919L63.9125 67.2985L63.9125 67.2985L74.5191 56.6919ZM67.2987 63.9122C68.2338 64.8473 68.2338 66.3634 67.2987 67.2985L46.0855 46.0853C35.3049 56.8659 35.3048 74.3448 46.0855 85.1255L67.2987 63.9122ZM120.78 117.394L67.2987 63.9122L46.0855 85.1255L99.567 138.607L120.78 117.394ZM67.2987 192.088L120.78 138.607L99.567 117.394L46.0855 170.875L67.2987 192.088ZM67.2987 188.702C68.2338 189.637 68.2338 191.153 67.2987 192.088L46.0855 170.875C35.3048 181.656 35.3048 199.135 46.0855 209.915L67.2987 188.702ZM63.9124 188.702C64.8475 187.767 66.3636 187.767 67.2987 188.702L46.0855 209.915C56.8661 220.696 74.345 220.696 85.1256 209.915L63.9124 188.702ZM117.394 135.221L63.9124 188.702L85.1256 209.915L138.607 156.434L117.394 135.221ZM192.088 188.701L138.607 135.221L117.394 156.434L170.874 209.914L192.088 188.701ZM188.701 188.701C189.636 187.766 191.152 187.766 192.088 188.701L170.874 209.914C181.655 220.695 199.134 220.695 209.915 209.914L188.701 188.701ZM188.701 192.087C187.766 191.152 187.766 189.636 188.701 188.701L209.915 209.914C220.695 199.134 220.695 181.655 209.915 170.874L188.701 192.087ZM135.221 138.607L188.701 192.087L209.915 170.874L156.434 117.394L135.221 138.607ZM188.701 63.9133L135.221 117.394L156.434 138.607L209.914 85.1265L188.701 63.9133ZM188.701 67.2996C187.766 66.3645 187.766 64.8484 188.701 63.9133L209.914 85.1265C220.695 74.3459 220.695 56.867 209.914 46.0863L188.701 67.2996ZM192.088 67.2995C191.152 68.2346 189.636 68.2346 188.701 67.2995L209.914 46.0864C199.134 35.3057 181.655 35.3057 170.874 46.0863L192.088 67.2995ZM138.607 120.78L192.088 67.2995L170.874 46.0863L117.394 99.5667L138.607 120.78ZM63.9125 67.2985L117.394 120.78L138.607 99.5667L85.1257 46.0853L63.9125 67.2985ZM67.2987 67.2985C66.3636 68.2336 64.8476 68.2336 63.9125 67.2985L85.1257 46.0853C74.3451 35.3046 56.8662 35.3046 46.0855 46.0853L67.2987 67.2985Z" fill="white" mask="url(#path-1-outside-1_220_43)"/>
<circle cx="128" cy="128" r="120.5" stroke="white" stroke-width="15"/>
</g>
<defs>
<clipPath id="clip0_220_43">
<rect width="256" height="256" fill="white"/>
</clipPath>
</defs>
</svg>
