<svg width="256" height="256" viewBox="0 0 256 256" fill="none" xmlns="http://www.w3.org/2000/svg">
<path fill-rule="evenodd" clip-rule="evenodd" d="M37.4904 37.4903C31.242 43.7387 31.242 53.8693 37.4904 60.1177L105.373 128L37.4903 195.882C31.2419 202.131 31.2419 212.261 37.4903 218.51C43.7387 224.758 53.8693 224.758 60.1177 218.51L128 150.627L195.882 218.51C202.131 224.758 212.261 224.758 218.51 218.51C224.758 212.261 224.758 202.131 218.51 195.882L150.627 128L218.51 60.1178C224.758 53.8694 224.758 43.7387 218.51 37.4903C212.261 31.242 202.131 31.242 195.882 37.4903L128 105.373L60.1178 37.4903C53.8694 31.2419 43.7387 31.2419 37.4904 37.4903Z" fill="white"/>
</svg>
