<svg width="256" height="256" viewBox="0 0 256 256" fill="none" xmlns="http://www.w3.org/2000/svg">
<mask id="path-1-outside-1_710_13" maskUnits="userSpaceOnUse" x="0" y="0" width="256" height="256" fill="black">
<rect fill="white" width="256" height="256"/>
<path d="M57.4483 28.082C49.339 19.9728 36.1914 19.9728 28.0821 28.082C19.9728 36.1913 19.9729 49.3389 28.0821 57.4482L98.6339 127.999L28.0821 198.552C19.9728 206.661 19.9728 219.809 28.0821 227.918C36.1914 236.027 49.339 236.027 57.4483 227.918L128 157.366L198.552 227.918C206.661 236.027 219.809 236.027 227.918 227.918C236.027 219.809 236.027 206.661 227.918 198.552L157.366 128L227.918 57.4482C236.027 49.3389 236.027 36.1912 227.918 28.082C219.809 19.9727 206.66 19.9727 198.551 28.082L128 98.6328L57.4483 28.082Z"/>
</mask>
<path d="M57.4483 28.082L73.0045 12.5255L73.0045 12.5255L57.4483 28.082ZM28.0821 28.082L12.5258 12.5256L12.5258 12.5256L28.0821 28.082ZM28.0821 57.4482L12.5259 73.0047L12.5256 73.0044L28.0821 57.4482ZM98.6339 127.999L114.19 112.443L129.747 127.999L114.19 143.555L98.6339 127.999ZM28.0821 198.552L43.6385 214.108L43.6384 214.108L28.0821 198.552ZM28.0821 227.918L12.5258 243.474L12.5258 243.474L28.0821 227.918ZM57.4483 227.918L73.0047 243.474V243.474L57.4483 227.918ZM128 157.366L112.444 141.81L128 126.253L143.556 141.81L128 157.366ZM198.552 227.918L182.995 243.474V243.474L198.552 227.918ZM227.918 227.918L243.474 243.474L243.474 243.474L227.918 227.918ZM227.918 198.552L212.362 214.108V214.108L227.918 198.552ZM157.366 128L141.81 143.556L126.254 128L141.81 112.444L157.366 128ZM227.918 57.4482L243.475 73.0043L243.474 73.0046L227.918 57.4482ZM227.918 28.082L243.474 12.5256L243.474 12.5257L227.918 28.082ZM198.551 28.082L182.994 12.5256V12.5256L198.551 28.082ZM128 98.6328L143.556 114.189L128 129.745L112.444 114.189L128 98.6328ZM57.4483 28.082L41.8921 43.6385C42.3742 44.1206 43.1561 44.1207 43.6384 43.6384L28.0821 28.082L12.5258 12.5256C29.2267 -4.17515 56.3038 -4.1749 73.0045 12.5255L57.4483 28.082ZM28.0821 28.082L43.6384 43.6383C44.1208 43.156 44.1206 42.374 43.6386 41.892L28.0821 57.4482L12.5256 73.0044C-4.17482 56.3037 -4.1752 29.2266 12.5258 12.5256L28.0821 28.082ZM28.0821 57.4482L43.6383 41.8918L114.19 112.443L98.6339 127.999L83.0776 143.555L12.5259 73.0047L28.0821 57.4482ZM98.6339 127.999L114.19 143.555L43.6385 214.108L28.0821 198.552L12.5256 182.995L83.0774 112.443L98.6339 127.999ZM28.0821 198.552L43.6384 214.108C44.1207 213.626 44.1207 212.844 43.6384 212.362L28.0821 227.918L12.5258 243.474C-4.17511 226.773 -4.17511 199.696 12.5258 182.995L28.0821 198.552ZM28.0821 227.918L43.6384 212.361C43.1563 211.879 42.3743 211.879 41.892 212.362L57.4483 227.918L73.0047 243.474C56.3037 260.175 29.2266 260.175 12.5258 243.474L28.0821 227.918ZM57.4483 227.918L41.892 212.362L112.444 141.81L128 157.366L143.556 172.923L73.0047 243.474L57.4483 227.918ZM128 157.366L143.556 141.81L214.108 212.362L198.552 227.918L182.995 243.474L112.444 172.923L128 157.366ZM198.552 227.918L214.108 212.362C213.626 211.879 212.844 211.879 212.362 212.362L227.918 227.918L243.474 243.474C226.774 260.175 199.696 260.175 182.995 243.474L198.552 227.918ZM227.918 227.918L212.362 212.362C211.88 212.844 211.879 213.626 212.362 214.108L227.918 198.552L243.474 182.995C260.175 199.696 260.175 226.773 243.474 243.474L227.918 227.918ZM227.918 198.552L212.362 214.108L141.81 143.556L157.366 128L172.923 112.444L243.474 182.995L227.918 198.552ZM157.366 128L141.81 112.444L212.362 41.8919L227.918 57.4482L243.474 73.0046L172.923 143.556L157.366 128ZM227.918 57.4482L212.361 41.8921C211.879 42.3741 211.879 43.1558 212.362 43.6383L227.918 28.082L243.474 12.5257C260.175 29.2267 260.175 56.3037 243.475 73.0043L227.918 57.4482ZM227.918 28.082L212.362 43.6383C212.844 44.1206 213.625 44.1206 214.107 43.6383L198.551 28.082L182.994 12.5256C199.695 -4.17521 226.774 -4.17521 243.474 12.5256L227.918 28.082ZM198.551 28.082L214.107 43.6383L143.556 114.189L128 98.6328L112.444 83.0764L182.994 12.5256L198.551 28.082ZM128 98.6328L112.444 114.189L41.8921 43.6385L57.4483 28.082L73.0045 12.5255L143.556 83.0763L128 98.6328Z" fill="white" mask="url(#path-1-outside-1_710_13)"/>
</svg>
