<svg width="256" height="256" viewBox="0 0 256 256" fill="none" xmlns="http://www.w3.org/2000/svg">
  <g clip-path="url(#clip0_12_29)">
    <mask id="path-1-inside-1_12_29" fill="white">
      <path fill-rule="evenodd" clip-rule="evenodd" d="M37.4903 37.4903C31.2419 43.7387 31.2419 53.8694 37.4903 60.1178L105.373 128L37.4903 195.882C31.2419 202.131 31.2419 212.261 37.4903 218.51C43.7387 224.758 53.8693 224.758 60.1177 218.51L128 150.627L195.882 218.51C202.131 224.758 212.261 224.758 218.51 218.51C224.758 212.261 224.758 202.131 218.51 195.882L150.627 128L218.51 60.1178C224.758 53.8694 224.758 43.7387 218.51 37.4903C212.261 31.2419 202.131 31.2419 195.882 37.4903L128 105.373L60.1177 37.4903C53.8693 31.2419 43.7387 31.2419 37.4903 37.4903Z"/>
    </mask>
    <path d="M105.373 128L111.029 133.657L116.686 128L111.029 122.343L105.373 128ZM128 150.627L133.657 144.971L128 139.314L122.343 144.971L128 150.627ZM150.627 128L144.971 122.343L139.314 128L144.971 133.657L150.627 128ZM128 105.373L122.343 111.029L128 116.686L133.657 111.029L128 105.373ZM43.1472 54.4609C40.023 51.3367 40.023 46.2714 43.1472 43.1472L31.8335 31.8335C22.4609 41.2061 22.4609 56.402 31.8335 65.7746L43.1472 54.4609ZM111.029 122.343L43.1472 54.4609L31.8335 65.7746L99.7157 133.657L111.029 122.343ZM43.1472 201.539L111.029 133.657L99.7157 122.343L31.8335 190.225L43.1472 201.539ZM43.1472 212.853C40.023 209.729 40.023 204.663 43.1472 201.539L31.8335 190.225C22.4609 199.598 22.4609 214.794 31.8335 224.167L43.1472 212.853ZM54.4609 212.853C51.3367 215.977 46.2714 215.977 43.1472 212.853L31.8335 224.167C41.2061 233.539 56.402 233.539 65.7746 224.167L54.4609 212.853ZM122.343 144.971L54.4609 212.853L65.7746 224.167L133.657 156.284L122.343 144.971ZM201.539 212.853L133.657 144.971L122.343 156.284L190.225 224.167L201.539 212.853ZM212.853 212.853C209.729 215.977 204.663 215.977 201.539 212.853L190.225 224.167C199.598 233.539 214.794 233.539 224.167 224.167L212.853 212.853ZM212.853 201.539C215.977 204.663 215.977 209.729 212.853 212.853L224.167 224.167C233.539 214.794 233.539 199.598 224.167 190.225L212.853 201.539ZM144.971 133.657L212.853 201.539L224.167 190.225L156.284 122.343L144.971 133.657ZM212.853 54.4609L144.971 122.343L156.284 133.657L224.167 65.7746L212.853 54.4609ZM212.853 43.1472C215.977 46.2714 215.977 51.3367 212.853 54.4609L224.167 65.7746C233.539 56.402 233.539 41.2061 224.167 31.8335L212.853 43.1472ZM201.539 43.1472C204.663 40.023 209.729 40.023 212.853 43.1472L224.167 31.8335C214.794 22.4609 199.598 22.4609 190.225 31.8335L201.539 43.1472ZM133.657 111.029L201.539 43.1472L190.225 31.8335L122.343 99.7157L133.657 111.029ZM54.4609 43.1472L122.343 111.029L133.657 99.7157L65.7746 31.8335L54.4609 43.1472ZM43.1472 43.1472C46.2714 40.023 51.3367 40.023 54.4609 43.1472L65.7746 31.8335C56.402 22.4609 41.2061 22.4609 31.8335 31.8335L43.1472 43.1472Z" fill="white" mask="url(#path-1-inside-1_12_29)"/>
  </g>
</svg>