<svg width="256" height="256" viewBox="0 0 256 256" fill="none" xmlns="http://www.w3.org/2000/svg">
<path d="M152.747 173.961L155.576 171.132L153.298 168.855L150.587 170.594L152.747 173.961ZM173.961 152.747L170.594 150.587L168.855 153.298L171.132 155.576L173.961 152.747ZM120 110H116V114H120V110ZM120 120V116H116V120H120ZM110 120H114V116H110V120ZM110 110V114H114V110H110ZM115 169C144.823 169 169 144.823 169 115H161C161 140.405 140.405 161 115 161V169ZM61 115C61 144.823 85.1766 169 115 169V161C89.5949 161 69 140.405 69 115H61ZM115 61C85.1766 61 61 85.1766 61 115H69C69 89.5949 89.5949 69 115 69V61ZM169 115C169 85.1766 144.823 61 115 61V69C140.405 69 161 89.5949 161 115H169ZM115 189C129.689 189 143.39 184.716 154.907 177.327L150.587 170.594C140.321 177.18 128.113 181 115 181V189ZM41 115C41 155.869 74.1309 189 115 189V181C78.5492 181 49 151.451 49 115H41ZM115 41C74.1309 41 41 74.1309 41 115H49C49 78.5492 78.5492 49 115 49V41ZM189 115C189 74.1309 155.869 41 115 41V49C151.451 49 181 78.5492 181 115H189ZM177.327 154.907C184.716 143.39 189 129.689 189 115H181C181 128.113 177.18 140.321 170.594 150.587L177.327 154.907ZM224.435 197.565L176.789 149.919L171.132 155.576L218.778 203.222L224.435 197.565ZM224.435 224.435C231.855 217.015 231.855 204.985 224.435 197.565L218.778 203.222C223.074 207.518 223.074 214.482 218.778 218.778L224.435 224.435ZM197.565 224.435C204.985 231.855 217.015 231.855 224.435 224.435L218.778 218.778C214.482 223.074 207.518 223.074 203.222 218.778L197.565 224.435ZM149.919 176.789L197.565 224.435L203.222 218.778L155.576 171.132L149.919 176.789ZM115 68C110.029 68 106 72.0294 106 77H114C114 76.4477 114.448 76 115 76V68ZM124 77C124 72.0294 119.971 68 115 68V76C115.552 76 116 76.4477 116 77H124ZM124 110V77H116V110H124ZM120 114H153V106H120V114ZM153 114C153.552 114 154 114.448 154 115H162C162 110.029 157.971 106 153 106V114ZM154 115C154 115.552 153.552 116 153 116V124C157.971 124 162 119.971 162 115H154ZM153 116H120V124H153V116ZM124 153V120H116V153H124ZM115 162C119.971 162 124 157.971 124 153H116C116 153.552 115.552 154 115 154V162ZM106 153C106 157.971 110.029 162 115 162V154C114.448 154 114 153.552 114 153H106ZM106 120V153H114V120H106ZM110 116H77V124H110V116ZM77 116C76.4477 116 76 115.552 76 115H68C68 119.971 72.0294 124 77 124V116ZM76 115C76 114.448 76.4477 114 77 114V106C72.0294 106 68 110.029 68 115H76ZM77 114H110V106H77V114ZM106 77V110H114V77H106Z" fill="white"/>
</svg>
