<svg width="256" height="256" viewBox="0 0 256 256" fill="none" xmlns="http://www.w3.org/2000/svg">
<path fill-rule="evenodd" clip-rule="evenodd" d="M41 115C41 74.1309 74.1309 41 115 41C155.869 41 189 74.1309 189 115C189 128.532 185.364 141.225 179.015 152.145L224.435 197.565C231.855 204.985 231.855 217.015 224.435 224.435C217.015 231.855 204.985 231.855 197.565 224.435L152.145 179.015C141.225 185.364 128.532 189 115 189C74.1309 189 41 155.869 41 115ZM115 49C78.5492 49 49 78.5492 49 115C49 151.451 78.5492 181 115 181C128.113 181 140.321 177.18 150.587 170.594L153.298 168.855L155.576 171.132L203.222 218.778C207.518 223.074 214.482 223.074 218.778 218.778C223.074 214.482 223.074 207.518 218.778 203.222L171.132 155.576L168.855 153.298L170.594 150.587C177.18 140.321 181 128.113 181 115C181 78.5492 151.451 49 115 49ZM61 115C61 85.1766 85.1766 61 115 61C144.823 61 169 85.1766 169 115C169 144.823 144.823 169 115 169C85.1766 169 61 144.823 61 115ZM69.22 110.473C70.78 107.798 73.6801 106 77 106H106V77C106 73.6801 107.798 70.78 110.473 69.22C88.682 71.3488 71.3488 88.682 69.22 110.473ZM119.527 69.22C122.202 70.78 124 73.6801 124 77V106H153C156.32 106 159.22 107.798 160.78 110.473C158.651 88.682 141.318 71.3488 119.527 69.22ZM160.78 119.527C159.22 122.202 156.32 124 153 124H124V153C124 156.32 122.202 159.22 119.527 160.78C141.318 158.651 158.651 141.318 160.78 119.527ZM110.473 160.78C107.798 159.22 106 156.32 106 153V124H77C73.6801 124 70.78 122.202 69.22 119.527C71.3488 141.318 88.682 158.651 110.473 160.78ZM115 76C114.448 76 114 76.4477 114 77V110V114H110H77C76.4477 114 76 114.448 76 115C76 115.552 76.4477 116 77 116H110H114V120V153C114 153.552 114.448 154 115 154C115.552 154 116 153.552 116 153V120V116H120H153C153.552 116 154 115.552 154 115C154 114.448 153.552 114 153 114H120H116V110V77C116 76.4477 115.552 76 115 76Z" fill="white"/>
</svg>
