<svg width="256" height="256" viewBox="0 0 256 256" fill="none" xmlns="http://www.w3.org/2000/svg">
<path fill-rule="evenodd" clip-rule="evenodd" d="M115 49C78.5492 49 49 78.5492 49 115C49 151.451 78.5492 181 115 181C128.113 181 140.321 177.18 150.587 170.594L153.298 168.855L155.576 171.132L203.222 218.778C207.518 223.074 214.482 223.074 218.778 218.778C223.074 214.482 223.074 207.518 218.778 203.222L171.132 155.576L168.855 153.298L170.594 150.587C177.18 140.321 181 128.113 181 115C181 78.5492 151.451 49 115 49ZM41 115C41 74.1309 74.1309 41 115 41C155.869 41 189 74.1309 189 115C189 128.532 185.364 141.225 179.015 152.145L224.435 197.565C231.855 204.985 231.855 217.015 224.435 224.435C217.015 231.855 204.985 231.855 197.565 224.435L152.145 179.015C141.225 185.364 128.532 189 115 189C74.1309 189 41 155.869 41 115ZM115 69C89.5949 69 69 89.5949 69 115C69 140.405 89.5949 161 115 161C140.405 161 161 140.405 161 115C161 89.5949 140.405 69 115 69ZM61 115C61 85.1766 85.1766 61 115 61C144.823 61 169 85.1766 169 115C169 144.823 144.823 169 115 169C85.1766 169 61 144.823 61 115ZM80 114C79.4477 114 79 114.448 79 115C79 115.552 79.4477 116 80 116H150C150.552 116 151 115.552 151 115C151 114.448 150.552 114 150 114H80ZM71 115C71 110.029 75.0294 106 80 106H150C154.971 106 159 110.029 159 115C159 119.971 154.971 124 150 124H80C75.0294 124 71 119.971 71 115Z" fill="white"/>
</svg>
