<svg width="256" height="256" viewBox="0 0 256 256" fill="none" xmlns="http://www.w3.org/2000/svg">
<path d="M15.0005 127.711L241 127.711" stroke="white" stroke-width="30" stroke-linecap="round"/>
<path d="M0.000747947 127.861C-0.0349466 131.746 1.42927 135.642 4.39333 138.606L75.1043 209.317C78.0779 212.291 81.9893 213.753 85.8865 213.708C85.9242 213.708 85.962 213.71 85.9998 213.71C94.284 213.71 101 206.994 101 198.71L101 57C101 48.7157 94.284 42 85.9998 42C85.9551 42 85.9105 42.0006 85.866 42.001C81.9756 41.961 78.0726 43.4252 75.1043 46.3936L4.39333 117.104L4.1238 117.381C1.33774 120.312 -0.0368741 124.092 0.000747947 127.861Z" fill="white"/>
</svg>
