<svg width="256" height="256" viewBox="0 0 256 256" fill="none" xmlns="http://www.w3.org/2000/svg">
<path d="M120.5 184C120.5 188.142 123.858 191.5 128 191.5C132.142 191.5 135.5 188.142 135.5 184L120.5 184ZM133.303 65.6967C130.374 62.7678 125.626 62.7678 122.697 65.6967L74.967 113.426C72.0381 116.355 72.0381 121.104 74.967 124.033C77.8959 126.962 82.6447 126.962 85.5736 124.033L128 81.6066L170.426 124.033C173.355 126.962 178.104 126.962 181.033 124.033C183.962 121.104 183.962 116.355 181.033 113.426L133.303 65.6967ZM135.5 184L135.5 71L120.5 71L120.5 184L135.5 184Z" fill="white"/>
</svg>
