<svg width="256" height="256" viewBox="0 0 256 256" fill="none" xmlns="http://www.w3.org/2000/svg">
<path fill-rule="evenodd" clip-rule="evenodd" d="M189.803 132.803L142.074 180.533C139.145 183.462 134.396 183.462 131.467 180.533C129.976 179.041 129.244 177.078 129.271 175.124L129.27 175.124V135L71.5 135C67.3579 135 64 131.642 64 127.5C64 123.358 67.3579 120 71.5 120L129.27 120V79.7751L129.27 79.7753C129.269 77.8542 130.001 75.9326 131.467 74.4668C134.396 71.5378 139.145 71.5378 142.074 74.4668L189.803 122.196C192.732 125.125 192.732 129.874 189.803 132.803Z" fill="white"/>
</svg>
