<svg width="256" height="256" viewBox="0 0 256 256" fill="none" xmlns="http://www.w3.org/2000/svg">
<path fill-rule="evenodd" clip-rule="evenodd" d="M122.926 189.803L75.1967 142.074C72.2678 139.145 72.2678 134.396 75.1967 131.467C76.6881 129.976 78.6513 129.244 80.6059 129.271L80.605 129.27H120.73L120.73 71.5C120.73 67.3579 124.088 64 128.23 64C132.372 64 135.73 67.3579 135.73 71.5L135.73 129.27H175.954L175.954 129.27C177.875 129.269 179.797 130.001 181.263 131.467C184.192 134.396 184.192 139.145 181.263 142.074L133.533 189.803C130.604 192.732 125.855 192.732 122.926 189.803Z" fill="white"/>
</svg>
