<svg width="256" height="257" viewBox="0 0 256 257" fill="none" xmlns="http://www.w3.org/2000/svg">
<path d="M63.3752 128.256C63.3758 128.298 63.3773 128.339 63.3782 128.381C63.3799 128.459 63.3822 128.537 63.385 128.615C63.3888 128.725 63.3938 128.834 63.3996 128.944C63.4002 128.954 63.4 128.964 63.4006 128.975C63.4071 129.093 63.4152 129.211 63.4241 129.328C63.4264 129.359 63.4284 129.39 63.4309 129.421C63.5746 131.204 63.9922 132.973 64.6877 134.662C64.6944 134.679 64.7015 134.695 64.7082 134.711C64.7556 134.825 64.8039 134.939 64.8537 135.052C64.8623 135.071 64.8705 135.091 64.8791 135.111C64.9207 135.204 64.9628 135.297 65.0061 135.39C65.0316 135.445 65.0572 135.499 65.0832 135.554C65.1178 135.626 65.1531 135.698 65.1887 135.77C65.2232 135.839 65.2587 135.908 65.2942 135.978C65.3146 136.017 65.335 136.057 65.3557 136.097C65.9874 137.309 66.7681 138.458 67.6965 139.518L161.816 249.861C168.088 257.214 179.133 258.09 186.487 251.819C193.84 245.546 194.717 234.5 188.445 227.147L103.874 128L188.445 28.8576C194.717 21.5044 193.841 10.4581 186.488 4.18575C179.134 -2.08582 168.089 -1.21 161.817 6.14278L67.6662 116.516C66.8445 117.459 66.1389 118.472 65.551 119.537C65.5403 119.557 65.5304 119.577 65.5198 119.596C65.4874 119.655 65.4547 119.714 65.4231 119.774L65.3352 119.941C65.3185 119.973 65.3028 120.005 65.2864 120.037C65.2522 120.104 65.2181 120.171 65.1848 120.238C65.1469 120.315 65.1092 120.391 65.0725 120.468C65.0537 120.508 65.0354 120.547 65.0168 120.587C64.972 120.683 64.928 120.779 64.885 120.875C64.8736 120.901 64.8621 120.927 64.8508 120.952C63.9372 123.027 63.451 125.233 63.3821 127.444C63.3818 127.453 63.3814 127.462 63.3811 127.472C63.3734 127.733 63.3713 127.995 63.3752 128.256Z" fill="white"/>
</svg>
