<svg width="256" height="256" viewBox="0 0 256 256" fill="none" xmlns="http://www.w3.org/2000/svg">
<path d="M241 127.711L15 127.711" stroke="white" stroke-width="30" stroke-linecap="round"/>
<path d="M256 127.861C256.035 131.746 254.571 135.642 251.607 138.606L180.896 209.317C177.923 212.291 174.011 213.753 170.114 213.708C170.076 213.708 170.039 213.71 170.001 213.71C161.716 213.71 155.001 206.994 155.001 198.71L155.001 57C155.001 48.7157 161.716 42 170.001 42C170.045 42 170.09 42.0006 170.134 42.001C174.025 41.961 177.928 43.4252 180.896 46.3936L251.607 117.104L251.877 117.381C254.663 120.312 256.037 124.092 256 127.861Z" fill="white"/>
</svg>
