<svg width="256" height="256" viewBox="0 0 256 256" fill="none" xmlns="http://www.w3.org/2000/svg">
<path d="M128.256 63.0019C128.298 63.0025 128.339 63.004 128.381 63.0049C128.459 63.0066 128.537 63.0089 128.615 63.0117C128.725 63.0155 128.834 63.0205 128.944 63.0264C128.954 63.0269 128.964 63.0268 128.975 63.0273C129.093 63.0338 129.211 63.0419 129.328 63.0508C129.359 63.0531 129.39 63.0551 129.421 63.0576C131.204 63.2013 132.973 63.6189 134.662 64.3144C134.679 64.3211 134.695 64.3282 134.711 64.335C134.825 64.3823 134.939 64.4306 135.052 64.4805C135.071 64.489 135.091 64.4972 135.111 64.5059C135.204 64.5474 135.297 64.5895 135.39 64.6328C135.445 64.6583 135.499 64.6839 135.554 64.71C135.626 64.7445 135.698 64.7798 135.77 64.8154C135.839 64.8499 135.908 64.8855 135.978 64.9209C136.017 64.9413 136.057 64.9617 136.097 64.9824C137.309 65.6141 138.458 66.3949 139.518 67.3232L249.861 161.442C257.214 167.714 258.09 178.76 251.819 186.113C245.546 193.467 234.5 194.343 227.147 188.071L128 103.501L28.8576 188.071C21.5044 194.344 10.4581 193.467 4.18574 186.114C-2.08583 178.761 -1.21001 167.716 6.14277 161.443L116.516 67.293C117.459 66.4712 118.472 65.7656 119.537 65.1777C119.557 65.167 119.577 65.1571 119.596 65.1465C119.655 65.1141 119.714 65.0815 119.774 65.0498L119.941 64.9619C119.973 64.9452 120.005 64.9295 120.037 64.9131C120.104 64.8789 120.171 64.8448 120.238 64.8115C120.315 64.7737 120.391 64.7359 120.468 64.6992C120.508 64.6804 120.547 64.6621 120.587 64.6435C120.683 64.5987 120.779 64.5547 120.875 64.5117C120.901 64.5003 120.927 64.4888 120.952 64.4775C123.027 63.564 125.233 63.0777 127.444 63.0088C127.453 63.0085 127.462 63.0081 127.472 63.0078C127.733 63.0001 127.995 62.998 128.256 63.0019Z" fill="white"/>
</svg>
