<svg width="256" height="256" viewBox="0 0 256 256" fill="none" xmlns="http://www.w3.org/2000/svg">
<path d="M127.711 15L127.711 241" stroke="white" stroke-width="30" stroke-linecap="round"/>
<path d="M127.861 0.000263419C131.746 -0.0354309 135.642 1.42879 138.606 4.39284L209.317 75.1038C212.291 78.0774 213.753 81.9889 213.708 85.886C213.708 85.9237 213.71 85.9615 213.71 85.9993C213.71 94.2836 206.994 100.999 198.71 100.999H57C48.7157 100.999 42 94.2836 42 85.9993C42 85.9546 42.0006 85.9101 42.001 85.8655C41.961 81.9751 43.4252 78.0722 46.3936 75.1038L117.104 4.39284L117.381 4.12331C120.312 1.33725 124.092 -0.0373588 127.861 0.000263419Z" fill="white"/>
</svg>
