<svg width="256" height="257" viewBox="0 0 256 257" fill="none" xmlns="http://www.w3.org/2000/svg">
<path d="M192.629 128.256C192.628 128.298 192.627 128.339 192.626 128.381C192.624 128.459 192.622 128.537 192.619 128.615C192.615 128.725 192.61 128.834 192.604 128.944C192.604 128.954 192.604 128.964 192.603 128.975C192.597 129.093 192.589 129.211 192.58 129.328C192.578 129.359 192.576 129.39 192.573 129.421C192.429 131.204 192.012 132.973 191.316 134.662C191.31 134.679 191.303 134.695 191.296 134.711C191.248 134.825 191.2 134.939 191.15 135.052C191.142 135.071 191.134 135.091 191.125 135.111C191.083 135.204 191.041 135.297 190.998 135.39C190.972 135.445 190.947 135.499 190.921 135.554C190.886 135.626 190.851 135.698 190.815 135.77C190.781 135.839 190.745 135.908 190.71 135.978C190.689 136.017 190.669 136.057 190.648 136.097C190.017 137.309 189.236 138.458 188.308 139.518L94.1884 249.861C87.9163 257.214 76.8708 258.09 69.5175 251.819C62.1642 245.546 61.2873 234.5 67.5595 227.147L152.13 128L67.5595 28.8576C61.2871 21.5044 62.1633 10.4581 69.5165 4.18575C76.8696 -2.08582 87.9152 -1.21 94.1874 6.14278L188.338 116.516C189.16 117.459 189.865 118.472 190.453 119.537C190.464 119.557 190.474 119.577 190.484 119.596C190.517 119.655 190.549 119.714 190.581 119.774L190.669 119.941C190.685 119.973 190.701 120.005 190.718 120.037C190.752 120.104 190.786 120.171 190.819 120.238C190.857 120.315 190.895 120.391 190.932 120.468C190.95 120.508 190.969 120.547 190.987 120.587C191.032 120.683 191.076 120.779 191.119 120.875C191.13 120.901 191.142 120.927 191.153 120.952C192.067 123.027 192.553 125.233 192.622 127.444C192.622 127.453 192.623 127.462 192.623 127.472C192.631 127.733 192.633 127.995 192.629 128.256Z" fill="white"/>
</svg>
