<svg width="256" height="256" viewBox="0 0 256 256" fill="none" xmlns="http://www.w3.org/2000/svg">
<path d="M71 120.5C66.8579 120.5 63.5 123.858 63.5 128C63.5 132.142 66.8579 135.5 71 135.5V120.5ZM189.303 133.303C192.232 130.374 192.232 125.626 189.303 122.697L141.574 74.967C138.645 72.0381 133.896 72.0381 130.967 74.967C128.038 77.8959 128.038 82.6447 130.967 85.5736L173.393 128L130.967 170.426C128.038 173.355 128.038 178.104 130.967 181.033C133.896 183.962 138.645 183.962 141.574 181.033L189.303 133.303ZM71 135.5H184V120.5H71V135.5Z" fill="white"/>
</svg>
