<svg width="256" height="256" viewBox="0 0 256 256" fill="none" xmlns="http://www.w3.org/2000/svg">
<path d="M127.711 241L127.711 15" stroke="white" stroke-width="30" stroke-linecap="round"/>
<path d="M127.861 256C131.746 256.035 135.642 254.571 138.606 251.607L209.317 180.896C212.291 177.923 213.753 174.011 213.708 170.114C213.708 170.076 213.71 170.039 213.71 170.001C213.71 161.716 206.994 155.001 198.71 155.001H57C48.7157 155.001 42 161.716 42 170.001C42 170.045 42.0006 170.09 42.001 170.134C41.961 174.025 43.4252 177.928 46.3936 180.896L117.104 251.607L117.381 251.877C120.312 254.663 124.092 256.037 127.861 256Z" fill="white"/>
</svg>
