<svg width="256" height="256" viewBox="0 0 256 256" fill="none" xmlns="http://www.w3.org/2000/svg">
<path d="M128 33.9941C177.275 0.570654 224.224 -10.2531 245.239 10.7617L245.893 11.4336C266.023 32.7651 255.077 79.2442 222.005 128C255.429 177.275 266.254 224.225 245.239 245.24L244.566 245.894C223.235 266.024 176.755 255.077 127.999 222.005C79.2437 255.076 32.766 266.023 11.4346 245.893L10.7617 245.239C-10.2531 224.224 0.570437 177.274 33.9941 127.999C0.923498 79.244 -10.0221 32.7658 10.1084 11.4346L10.7617 10.7627C31.7764 -10.252 78.7255 0.571148 128 33.9941ZM208.126 146.928C199.522 157.833 189.878 168.706 179.292 179.292L177.772 180.803C167.667 190.797 157.311 199.933 146.927 208.126C159.428 216.093 171.506 222.323 182.648 226.684C196.211 231.991 207.384 234.134 215.689 233.994C223.847 233.856 227.748 231.618 229.683 229.684C231.617 227.749 233.856 223.848 233.994 215.689C234.134 207.384 231.99 196.212 226.683 182.649C222.322 171.507 216.092 159.429 208.126 146.928ZM47.874 146.928C39.9078 159.428 33.6785 171.506 29.3184 182.648C24.0113 196.211 21.8666 207.383 22.0068 215.688C22.1447 223.847 24.3835 227.748 26.3184 229.683C28.2533 231.617 32.1537 233.856 40.3115 233.994C48.617 234.134 59.7898 231.99 73.3525 226.683C84.4947 222.323 96.5712 216.092 109.071 208.126C98.1663 199.522 87.2945 189.878 76.709 179.293L75.1982 177.773C65.2036 167.667 56.0672 157.313 47.874 146.928ZM128 61.0537C116.096 70.0457 104.045 80.4839 92.2646 92.2646C80.4837 104.046 70.0448 116.095 61.0527 128C70.0451 139.905 80.4844 151.955 92.2656 163.736C104.046 175.517 116.096 185.954 128 194.946C139.904 185.954 151.955 175.516 163.735 163.735C175.516 151.955 185.954 139.904 194.946 128C185.955 116.096 175.517 104.046 163.736 92.2656C151.955 80.4846 139.905 70.0458 128 61.0537ZM128 100.367C143.262 100.367 155.634 112.739 155.634 128.001C155.634 143.262 143.262 155.635 128 155.635C112.739 155.635 100.367 143.262 100.367 128.001C100.367 112.74 112.739 100.367 128 100.367ZM40.3125 22.0068C32.1542 22.1447 28.2523 24.3835 26.3174 26.3184C24.3826 28.2533 22.1446 32.1546 22.0068 40.3125C21.8666 48.6179 24.0113 59.79 29.3184 73.3525C33.6783 84.4945 39.9082 96.5714 47.874 109.071C56.478 98.1659 66.1222 87.2938 76.708 76.708L78.2275 75.1973C88.333 65.2031 98.687 56.0669 109.071 47.874C96.5714 39.9084 84.4945 33.6793 73.3525 29.3193C59.7901 24.0123 48.6179 21.8667 40.3125 22.0068ZM215.688 22.0059C207.383 21.8657 196.211 24.0113 182.648 29.3184C171.506 33.6785 159.428 39.9078 146.928 47.874C157.833 56.4782 168.706 66.1228 179.292 76.709L180.804 78.2285C190.797 88.3337 199.933 98.6873 208.126 109.071C216.092 96.5712 222.323 84.4947 226.683 73.3525C231.99 59.7897 234.134 48.617 233.994 40.3115C233.856 32.1535 231.618 28.2523 229.684 26.3174C227.749 24.3825 223.847 22.1437 215.688 22.0059Z" fill="white"/>
</svg>
