<svg width="256" height="256" viewBox="0 0 256 256" fill="none" xmlns="http://www.w3.org/2000/svg">
<path d="M47.2553 99.0462C47.2553 97.7606 47.3545 96.4769 47.5519 95.2066L49.9571 79.7323C51.7367 68.2827 57.4376 57.8067 66.0854 50.0947L69.7953 46.7864C77.5383 39.8813 86.6296 34.6578 96.4947 31.446L110.363 26.931V17.6374C110.363 7.89654 118.259 0 128 0C137.741 0 145.637 7.89654 145.637 17.6374V26.931L159.505 31.446C169.37 34.6578 178.462 39.8813 186.205 46.7864L189.915 50.0947C198.562 57.8067 204.263 68.2827 206.043 79.7323L208.448 95.2066C208.646 96.4769 208.745 97.7606 208.745 99.0462V119.666C208.745 124.197 209.361 128.707 210.575 133.072L215.043 149.124C216.808 155.465 219.808 161.396 223.87 166.575L239.509 186.515C241.771 189.398 243 192.957 243 196.622C243 205.667 235.667 213 226.622 213H29.3778C20.3326 213 13 205.667 13 196.622C13 192.957 14.2292 189.398 16.491 186.515L32.1301 166.575C36.1925 161.396 39.1922 155.465 40.9571 149.124L45.4245 133.072C46.6394 128.707 47.2553 124.197 47.2553 119.666V99.0462Z" fill="white"/>
<path d="M95 224.571C95 223.704 95.7036 223 96.5714 223H159.429C160.296 223 161 223.704 161 224.571C161 241.929 146.929 256 129.571 256H126.429C109.071 256 95 241.929 95 224.571Z" fill="white"/>
</svg>
