<svg width="256" height="256" viewBox="0 0 256 256" fill="none" xmlns="http://www.w3.org/2000/svg">
<path d="M32 256C29.7909 256 28 254.209 28 252V4C28 1.79086 29.7909 0 32 0H134.75C153.917 0 169.958 2.70833 182.875 8.125C195.875 13.5417 205.625 21.125 212.125 30.875C218.708 40.625 222 51.9167 222 64.75C222 74.5 219.958 83.2083 215.875 90.875C211.792 98.4583 206.167 104.75 199 109.75C192.035 114.609 184.007 118.052 174.917 120.078C174.456 120.18 174.125 120.588 174.125 121.06V121.797C174.125 122.331 174.544 122.769 175.076 122.803C185.045 123.424 194.269 126.198 202.75 131.125C211.583 136.208 218.667 143.292 224 152.375C229.333 161.375 232 172.042 232 184.375C232 198.125 228.5 210.417 221.5 221.25C214.5 232 204.375 240.5 191.125 246.75C177.875 252.917 161.792 256 142.875 256H32ZM89.875 204.125C89.875 205.23 90.7704 206.125 91.875 206.125H128.125C141.542 206.125 151.417 203.583 157.75 198.5C164.167 193.417 167.375 186.333 167.375 177.25C167.375 170.667 165.833 165 162.75 160.25C159.667 155.417 155.292 151.708 149.625 149.125C143.958 146.458 137.167 145.125 129.25 145.125H91.875C90.7704 145.125 89.875 146.02 89.875 147.125V204.125ZM89.875 103.25C89.875 104.355 90.7704 105.25 91.875 105.25H124.125C130.875 105.25 136.875 104.125 142.125 101.875C147.375 99.625 151.458 96.375 154.375 92.125C157.375 87.875 158.875 82.75 158.875 76.75C158.875 68.1667 155.833 61.4167 149.75 56.5C143.667 51.5833 135.458 49.125 125.125 49.125H91.875C90.7704 49.125 89.875 50.0204 89.875 51.125V103.25Z" fill="white"/>
</svg>
