<svg width="256" height="256" viewBox="0 0 256 256" fill="none" xmlns="http://www.w3.org/2000/svg">
<path fill-rule="evenodd" clip-rule="evenodd" d="M23.6116 8.65039H228.66V181.637H81.7524L81.7927 181.733L81.8189 181.796H47.7348C37.131 181.796 28.5348 190.392 28.5348 200.996C28.5348 210.472 35.3992 218.344 44.4265 219.912H237.359V22.3203H248C252.418 22.3203 256 25.902 256 30.3203V219.912V219.913V239.749C256 244.167 252.418 247.749 248 247.749H41.0097V247.585C19.4275 246.616 1.96942 228.238 0.155554 205H0V200.996V32.262C0 19.2217 10.5713 8.65039 23.6116 8.65039ZM75.8058 55.8748C70.3152 55.8748 65.8641 60.3259 65.8641 65.8166C65.8641 71.3072 70.3151 75.7583 75.8058 75.7583H180.194C185.685 75.7583 190.136 71.3072 190.136 65.8166C190.136 60.3259 185.685 55.8748 180.194 55.8748H75.8058ZM75.8058 95.6421C70.3152 95.6421 65.8641 100.093 65.8641 105.584C65.8641 111.075 70.3151 115.526 75.8058 115.526H180.194C185.685 115.526 190.136 111.075 190.136 105.584C190.136 100.093 185.685 95.6421 180.194 95.6421H75.8058ZM50.9515 191.33C45.4608 191.33 41.0097 195.781 41.0097 201.272C41.0097 206.762 45.4608 211.214 50.9515 211.214H227.417V191.33H50.9515Z" fill="white"/>
</svg>
