<svg width="256" height="256" viewBox="0 0 256 256" fill="none" xmlns="http://www.w3.org/2000/svg">
<path fill-rule="evenodd" clip-rule="evenodd" d="M20 8H124.272V107.063C124.272 108.91 126.562 109.77 127.778 108.379L155.435 76.743C157.029 74.92 159.864 74.92 161.458 76.743L189.116 108.379C190.332 109.77 192.621 108.91 192.621 107.063V8H212C214.761 8 217 10.2386 217 13V195C217 197.761 214.761 200 212 200H34.421C27.5538 200.042 22 205.623 22 212.5C22 219.403 27.5964 225 34.5 225H60V225H219C227.284 225 234 218.284 234 210V200V26C234 23.7909 235.791 22 238 22H244C250.627 22 256 27.3726 256 34V200V225V232C256 240.284 249.284 247 241 247H43V247H20C8.9543 247 0 238.045 0 227V200V187V28C0 16.9543 8.95431 8 20 8Z" fill="white"/>
</svg>
