<svg width="256" height="256" viewBox="0 0 256 256" fill="none" xmlns="http://www.w3.org/2000/svg">
<path fill-rule="evenodd" clip-rule="evenodd" d="M0 28C0 16.9543 8.95431 8 20 8H212C214.761 8 217 10.2386 217 13V195C217 197.761 214.761 200 212 200H34.421C27.5538 200.042 22 205.623 22 212.5C22 219.403 27.5964 225 34.5 225H60V225H219C227.284 225 234 218.284 234 210V200V26C234 23.7909 235.791 22 238 22H244C250.627 22 256 27.3726 256 34V200V225V232C256 240.284 249.284 247 241 247H43V247H20C8.9543 247 0 238.045 0 227V200V187V28ZM62.9417 53C57.4511 53 53 57.4511 53 62.9417C53 68.4324 57.4511 72.8835 62.9417 72.8835H172.733C178.224 72.8835 182.675 68.4324 182.675 62.9417C182.675 57.4511 178.224 53 172.733 53H62.9417ZM62.9418 92.7676C57.4511 92.7676 53 97.2187 53 102.709C53 108.2 57.4511 112.651 62.9418 112.651H172.733C178.224 112.651 182.675 108.2 182.675 102.709C182.675 97.2187 178.224 92.7676 172.733 92.7676H62.9418Z" fill="white"/>
</svg>
