<svg width="256" height="256" viewBox="0 0 256 256" fill="none" xmlns="http://www.w3.org/2000/svg">
<g clip-path="url(#clip0_180_72)">
<path fill-rule="evenodd" clip-rule="evenodd" d="M23.6117 8H124.272V107.062C124.272 108.909 126.562 109.769 127.778 108.379L155.435 76.7428C157.029 74.9198 159.864 74.9198 161.458 76.7428L189.116 108.379C190.332 109.769 192.621 108.909 192.621 107.062V8H228.66V180.986H81.7524L81.7927 181.083L81.8189 181.146H47.7349C37.131 181.146 28.5349 189.742 28.5349 200.346C28.5349 209.822 35.3992 217.694 44.4266 219.262H237.359V21.6699H248C252.418 21.6699 256 25.2516 256 29.6699L256 219.262V239.099C256 243.517 252.418 247.099 248 247.099H41.0097V246.935C19.4276 245.966 1.96942 227.588 0.155554 204.35H0V200.346V31.6116C0 18.5713 10.5713 8.00002 23.6116 8H23.6117ZM50.9515 190.68C45.4608 190.68 41.0097 195.131 41.0097 200.621C41.0097 206.112 45.4608 210.563 50.9515 210.563H227.418V190.68H50.9515Z" fill="white"/>
</g>
<defs>
<clipPath id="clip0_180_72">
<rect width="256" height="256" fill="white"/>
</clipPath>
</defs>
</svg>
