<svg width="256" height="256" viewBox="0 0 256 256" fill="none" xmlns="http://www.w3.org/2000/svg">
<path d="M109.25 0C119.605 0 128 8.39466 128 18.75C128 29.1053 119.605 37.5 109.25 37.5H57.5C46.4543 37.5 37.5 46.4543 37.5 57.5V198.5C37.5 209.546 46.4543 218.5 57.5 218.5H198.5C209.546 218.5 218.5 209.546 218.5 198.5V146.75C218.5 136.395 226.895 128 237.25 128C247.605 128 256 136.395 256 146.75V226C256 242.569 242.569 256 226 256H30C13.4315 256 0 242.569 0 226V30C0 13.4315 13.4315 0 30 0H109.25Z" fill="white"/>
<path d="M156 18.75C156 8.39466 164.395 0 174.75 0H236C247.046 0 256 8.95431 256 20V81.25C256 91.6053 247.605 100 237.25 100C226.895 100 218.5 91.6053 218.5 81.25V57.5C218.5 46.4543 209.546 37.5 198.5 37.5H174.75C164.395 37.5 156 29.1053 156 18.75Z" fill="white"/>
<path d="M114.742 114.742C107.419 122.064 107.419 133.936 114.742 141.258C122.064 148.581 133.936 148.581 141.258 141.258L114.742 114.742ZM235 21L221.742 7.74175L114.742 114.742L128 128L141.258 141.258L248.258 34.2583L235 21Z" fill="white"/>
</svg>
