<svg width="256" height="256" viewBox="0 0 256 256" fill="none" xmlns="http://www.w3.org/2000/svg">
<path d="M182.739 4.58789C188.708 1.1421 196.34 3.1866 199.787 9.15527C203.233 15.1244 201.187 22.7578 195.218 26.2041L179.024 35.5537L250.828 159.921L251.143 160.483C257.604 172.359 253.466 187.275 241.687 194.067L194.36 221.367C176.969 231.402 159.297 241.605 145.342 249.672C133.365 256.596 118.056 252.488 111.138 240.507L39.3579 116.18C32.4764 104.26 36.5003 89.0469 48.4136 82.1543C75.6192 66.4154 117.12 42.4883 143.006 27.5703C143.273 27.3875 143.55 27.2142 143.834 27.0498L182.739 4.58789ZM157.413 48.1211C131.926 62.8085 89.5594 87.2334 61.6753 103.363H189.307L157.413 48.1211Z" fill="white"/>
<path d="M32.7607 127.039C33.5297 125.692 35.462 125.711 36.2208 127.064C42.054 137.463 60.8852 171.158 63.9476 178.177C67.2445 185.734 68 196.236 68 196.236C68 196.236 66.5096 228 34.5 228C5.32514 228 1.50333 201.613 1.05523 196.94C1.00971 196.465 1.02232 196.002 1.07638 195.528C1.36715 192.979 2.51882 184.116 5.05242 178.177C9.12964 168.621 27.0688 137.007 32.7607 127.039Z" fill="white"/>
</svg>
