<svg width="256" height="256" viewBox="0 0 256 256" fill="none" xmlns="http://www.w3.org/2000/svg">
<path d="M170 43.002C181.046 43.002 190 51.9563 190 63.002V81.4864C190 82.782 191.213 83.7357 192.472 83.4299L246.112 70.4033C251.148 69.1805 256 72.9955 256 78.1777V177.656C256 182.892 251.054 186.716 245.987 185.398L192.503 171.492C191.237 171.162 190 172.118 190 173.427V193.002C190 204.048 181.046 213.002 170 213.002H20C8.95431 213.002 4.02687e-08 204.048 0 193.002V63.002C0 51.9563 8.95431 43.002 20 43.002H170Z" fill="white"/>
<path d="M58 235.002L198 20.002" stroke="white" stroke-width="40" stroke-linecap="round"/>
</svg>
