<svg width="256" height="256" viewBox="0 0 256 256" fill="none" xmlns="http://www.w3.org/2000/svg">
<mask id="path-1-outside-1_219_24" maskUnits="userSpaceOnUse" x="49.8" y="85.3052" width="157" height="116" fill="black">
<rect fill="white" x="49.8" y="85.3052" width="157" height="116"/>
<path d="M181.8 94.6851C185.803 90.3925 192.528 90.1577 196.821 94.1606C201.113 98.1636 201.348 104.889 197.345 109.181L121.242 190.791C121.075 190.971 120.899 191.141 120.722 191.307C116.707 195.487 110.067 195.685 105.814 191.718L59.1799 148.231C54.8875 144.228 54.652 137.503 58.6545 133.21C62.6574 128.918 69.3825 128.683 73.675 132.686L112.554 168.941L181.8 94.6851Z"/>
</mask>
<path d="M181.8 94.6851C185.803 90.3925 192.528 90.1577 196.821 94.1606C201.113 98.1636 201.348 104.889 197.345 109.181L121.242 190.791C121.075 190.971 120.899 191.141 120.722 191.307C116.707 195.487 110.067 195.685 105.814 191.718L59.1799 148.231C54.8875 144.228 54.652 137.503 58.6545 133.21C62.6574 128.918 69.3825 128.683 73.675 132.686L112.554 168.941L181.8 94.6851Z" fill="white"/>
<path d="M181.8 94.6851L186.188 98.7771L186.188 98.777L181.8 94.6851ZM196.821 94.1606L200.913 89.7726L200.913 89.7725L196.821 94.1606ZM197.345 109.181L201.733 113.273L201.733 113.273L197.345 109.181ZM121.242 190.791L116.854 186.699L116.854 186.699L121.242 190.791ZM120.722 191.307L116.622 186.927L116.505 187.036L116.395 187.151L120.722 191.307ZM105.814 191.718L101.722 196.106L101.722 196.106L105.814 191.718ZM59.1799 148.231L63.272 143.843L63.2719 143.843L59.1799 148.231ZM58.6545 133.21L54.2664 129.118L54.2662 129.119L58.6545 133.21ZM73.675 132.686L69.5831 137.074L69.5831 137.074L73.675 132.686ZM112.554 168.941L108.462 173.329L112.85 177.421L116.942 173.033L112.554 168.941ZM181.8 94.6851L186.188 98.777C187.931 96.908 190.859 96.8057 192.729 98.5488L196.821 94.1606L200.913 89.7725C194.197 83.5098 183.675 83.8769 177.412 90.5931L181.8 94.6851ZM196.821 94.1606L192.728 98.5486C194.598 100.292 194.7 103.22 192.957 105.089L197.345 109.181L201.733 113.273C207.996 106.557 207.628 96.0354 200.913 89.7726L196.821 94.1606ZM197.345 109.181L192.957 105.089L116.854 186.699L121.242 190.791L125.631 194.883L201.733 113.273L197.345 109.181ZM121.242 190.791L116.854 186.699C116.814 186.742 116.746 186.81 116.622 186.927L120.722 191.307L124.822 195.688C125.052 195.472 125.335 195.199 125.631 194.883L121.242 190.791ZM120.722 191.307L116.395 187.151C114.646 188.972 111.755 189.055 109.906 187.33L105.814 191.718L101.722 196.106C108.379 202.314 118.768 202.003 125.049 195.463L120.722 191.307ZM105.814 191.718L109.906 187.33L63.272 143.843L59.1799 148.231L55.0879 152.619L101.722 196.106L105.814 191.718ZM59.1799 148.231L63.2719 143.843C61.4025 142.1 61.3004 139.171 63.0429 137.302L58.6545 133.21L54.2662 129.119C48.0036 135.835 48.3724 146.357 55.0879 152.619L59.1799 148.231ZM58.6545 133.21L63.0427 137.302C64.7855 135.433 67.7139 135.331 69.5831 137.074L73.675 132.686L77.767 128.298C71.051 122.035 60.5293 122.402 54.2664 129.118L58.6545 133.21ZM73.675 132.686L69.5831 137.074L108.462 173.329L112.554 168.941L116.646 164.553L77.767 128.298L73.675 132.686ZM112.554 168.941L116.942 173.033L186.188 98.7771L181.8 94.6851L177.412 90.593L108.166 164.849L112.554 168.941Z" fill="white" mask="url(#path-1-outside-1_219_24)"/>
<circle cx="128" cy="128" r="113" stroke="white" stroke-width="30"/>
</svg>
