<svg width="256" height="256" viewBox="0 0 256 256" fill="none" xmlns="http://www.w3.org/2000/svg">
<path d="M221 0C223.209 0.000177667 225 1.79097 225 4V34.0342C225 36.2432 223.209 38.034 221 38.0342H154.559C152.593 38.0344 150.918 39.463 150.608 41.4043L116.942 252.63C116.633 254.571 114.958 256 112.992 256H81.6074C79.1472 256 77.27 253.8 77.6572 251.37L110.922 42.6641C111.309 40.2345 109.432 38.0342 106.972 38.0342H44C41.7909 38.0342 40 36.2433 40 34.0342V4C40 1.79086 41.7909 3.25985e-08 44 0H221Z" fill="white"/>
<path d="M30 187L211 81" stroke="white" stroke-width="30" stroke-linecap="round"/>
</svg>
