<svg width="256" height="256" viewBox="0 0 256 256" fill="none" xmlns="http://www.w3.org/2000/svg">
<path fill-rule="evenodd" clip-rule="evenodd" d="M128.641 213.158C175.918 213.158 214.244 174.832 214.244 127.555C214.244 80.2782 175.918 41.9526 128.641 41.9526C81.3644 41.9526 43.0388 80.2782 43.0388 127.555C43.0388 174.832 81.3644 213.158 128.641 213.158ZM236.244 127.555C236.244 186.982 188.069 235.158 128.641 235.158C69.2141 235.158 21.0388 186.982 21.0388 127.555C21.0388 68.1279 69.2141 19.9526 128.641 19.9526C188.069 19.9526 236.244 68.1279 236.244 127.555ZM116 131.178C116 135.113 118.066 138.565 121.172 140.509C121.752 140.952 122.384 141.343 123.066 141.673L154.363 156.817C159.832 159.463 166.41 157.175 169.056 151.706C171.702 146.238 169.414 139.659 163.946 137.013L138 124.459V79C138 72.9249 133.075 68 127 68C120.925 68 116 72.9249 116 79V131.178Z" fill="white"/>
</svg>
