<svg width="256" height="256" viewBox="0 0 256 256" fill="none" xmlns="http://www.w3.org/2000/svg">
<path d="M128 0.000488281C198.692 0.000488281 256 57.308 256 128C255.999 198.693 198.692 256 128 256C57.3076 256 1.97489e-05 198.693 -0.000244141 128C-0.000244141 57.3081 57.3074 0.000620227 128 0.000488281ZM128 38.3999C78.5152 38.4 38.4001 78.5159 38.4001 128C38.4004 177.485 78.5153 217.6 128 217.6C177.484 217.6 217.6 177.485 217.6 128C217.6 78.5158 177.484 38.3999 128 38.3999ZM128 49.2593C134.075 49.2593 138.999 54.1844 139 60.2593V121.094L174.802 138.418C180.27 141.065 182.558 147.643 179.912 153.112C177.266 158.58 170.688 160.868 165.219 158.222L123.53 138.049C122.736 137.696 121.992 137.253 121.311 136.73C121.3 136.722 121.29 136.713 121.279 136.705C121.154 136.608 121.03 136.509 120.909 136.407C120.867 136.371 120.826 136.334 120.784 136.297C120.703 136.227 120.621 136.156 120.542 136.083C120.47 136.016 120.4 135.949 120.33 135.881C120.276 135.829 120.222 135.777 120.17 135.724C120.095 135.649 120.024 135.572 119.952 135.495C119.901 135.44 119.849 135.385 119.799 135.329C119.732 135.254 119.667 135.178 119.602 135.102C119.555 135.046 119.508 134.99 119.462 134.933C119.395 134.851 119.33 134.768 119.265 134.684C119.221 134.626 119.176 134.567 119.133 134.508C119.073 134.428 119.016 134.345 118.959 134.263C118.914 134.199 118.869 134.133 118.826 134.068C118.775 133.99 118.725 133.912 118.676 133.833C118.629 133.76 118.583 133.686 118.539 133.611C118.493 133.533 118.449 133.455 118.405 133.376C118.363 133.301 118.32 133.226 118.28 133.15C118.241 133.076 118.202 133 118.165 132.925C118.119 132.835 118.075 132.744 118.032 132.652C118.004 132.593 117.977 132.533 117.95 132.473C117.905 132.372 117.861 132.271 117.819 132.168C117.788 132.092 117.758 132.014 117.728 131.936C117.699 131.861 117.671 131.785 117.643 131.709C117.604 131.601 117.568 131.492 117.532 131.382C117.514 131.327 117.495 131.271 117.478 131.214C117.436 131.078 117.398 130.94 117.361 130.801C117.355 130.777 117.348 130.753 117.342 130.729C117.081 129.717 116.964 128.665 117 127.607V60.2593C117 54.1845 121.925 49.2594 128 49.2593Z" fill="white"/>
</svg>
