<svg width="256" height="256" viewBox="0 0 256 256" fill="none" xmlns="http://www.w3.org/2000/svg">
<path fill-rule="evenodd" clip-rule="evenodd" d="M128 248C194.274 248 248 194.274 248 128C248 61.7258 194.274 8 128 8C61.7258 8 8 61.7258 8 128C8 194.274 61.7258 248 128 248ZM62.0978 201.325C61.12 204.677 64.6048 207.584 67.7272 206.022L155.598 162.066C160.576 159.576 164.291 155.124 165.85 149.781L193.365 55.4603C194.343 52.1087 190.858 49.2008 187.736 50.7627L99.865 94.7188C94.8869 97.209 91.1718 101.661 89.613 107.005L62.0978 201.325Z" fill="white"/>
<circle cx="127.5" cy="127.5" r="17.5" fill="white"/>
</svg>
