<svg width="256" height="256" viewBox="0 0 256 256" fill="none" xmlns="http://www.w3.org/2000/svg">
<path d="M236 28C247.046 28 256 34.9956 256 43.625V212.375C256 221.004 247.046 228 236 228H20C8.95431 228 1.05562e-05 221.004 0 212.375V43.625C0 34.9956 8.95431 28 20 28H236ZM114 168.987C106.32 168.987 100.094 175.298 100.094 183.081C100.094 190.864 106.32 197.174 114 197.174H220.666C228.346 197.174 234.572 190.864 234.572 183.08C234.572 175.296 228.346 168.986 220.666 168.986L114 168.987ZM44.9639 63.1084C39.277 57.8699 30.0559 57.8698 24.3691 63.1084C18.6829 68.347 18.6829 76.8405 24.3691 82.0791L74.2168 127.998L24.3691 173.918L24.1064 174.166C18.6838 179.421 18.7715 187.733 24.3691 192.89C29.967 198.046 38.9885 198.126 44.6934 193.131L44.9629 192.89L104.963 137.617C107.832 134.974 109.252 131.504 109.227 128.04C109.274 124.656 107.941 121.259 105.226 118.628L104.964 118.38L44.9639 63.1084Z" fill="white"/>
</svg>
