<svg width="256" height="256" viewBox="0 0 256 256" fill="none" xmlns="http://www.w3.org/2000/svg">
<path fill-rule="evenodd" clip-rule="evenodd" d="M20 28C8.95431 28 0 34.9956 0 43.625V212.375C0 221.004 8.95431 228 20 228H236C247.046 228 256 221.004 256 212.375V43.625C256 34.9956 247.046 28 236 28H20ZM40.1829 67.5122C37.1364 64.7058 32.1971 64.7058 29.1506 67.5122C26.104 70.3187 26.104 74.8688 29.1506 77.6752L83.7788 127.999L29.1502 178.322C26.1037 181.129 26.1037 185.679 29.1502 188.485C32.1967 191.292 37.1361 191.292 40.1826 188.485L100.182 133.214C101.74 131.778 102.502 129.887 102.466 128.007C102.506 126.121 101.745 124.223 100.183 122.784L40.1829 67.5122ZM106.55 184.081C106.55 188.251 109.886 191.631 114 191.631L220.667 191.63C224.781 191.63 228.116 188.25 228.116 184.08C228.116 179.91 224.781 176.53 220.667 176.53L114 176.531C109.886 176.531 106.55 179.911 106.55 184.081Z" fill="white"/>
</svg>
