<svg width="256" height="256" viewBox="0 0 256 256" fill="none" xmlns="http://www.w3.org/2000/svg">
<path d="M128.035 0.000983009C128.091 0.00174868 128.147 0.00252031 128.203 0.0039127C129.716 0.039222 131.236 0.304743 132.712 0.813483C132.741 0.823527 132.771 0.833531 132.8 0.843756C132.878 0.871151 132.956 0.898981 133.033 0.927741C133.089 0.948312 133.145 0.96998 133.2 0.991217C133.238 1.00584 133.277 1.02021 133.315 1.03516C134.123 1.35132 134.906 1.73803 135.652 2.19239L232.941 58.3711C234.213 59.0725 235.391 59.9641 236.43 61.0322C236.465 61.0687 236.5 61.1058 236.535 61.1426C236.583 61.1922 236.63 61.2416 236.677 61.292C236.901 61.5328 237.114 61.7809 237.32 62.0342C237.346 62.0658 237.372 62.0971 237.398 62.1289C237.951 62.821 238.437 63.5569 238.856 64.3262C238.879 64.3699 238.902 64.414 238.926 64.458C238.958 64.5182 238.99 64.5781 239.022 64.6387C239.142 64.8725 239.257 65.1098 239.365 65.3506C239.38 65.3836 239.394 65.4172 239.408 65.4502C239.493 65.642 239.575 65.8354 239.651 66.0313C240.35 67.8097 240.685 69.6643 240.684 71.501C240.684 71.6113 240.683 71.7216 240.681 71.832V184.165C240.699 185.012 240.644 185.855 240.521 186.688C240.241 188.6 239.601 190.395 238.671 192.002C237.684 193.713 236.349 195.246 234.697 196.485C234.649 196.522 234.601 196.558 234.552 196.594C234.514 196.622 234.476 196.649 234.438 196.677C233.964 197.018 233.47 197.331 232.957 197.616L135.652 253.805C135.024 254.187 134.369 254.522 133.695 254.807C133.674 254.816 133.652 254.825 133.631 254.834C133.544 254.87 133.457 254.907 133.369 254.941C133.35 254.949 133.331 254.956 133.313 254.963C133.305 254.966 133.298 254.969 133.29 254.972C133.26 254.983 133.23 254.994 133.2 255.006C133.145 255.027 133.089 255.049 133.033 255.069C132.956 255.098 132.878 255.126 132.8 255.153C132.771 255.164 132.741 255.174 132.712 255.184C131.237 255.692 129.719 255.957 128.208 255.993C128.137 255.995 128.067 255.995 127.996 255.996C127.945 255.997 127.893 255.997 127.842 255.997C127.79 255.997 127.739 255.997 127.688 255.996C127.617 255.995 127.546 255.995 127.476 255.993C126 255.958 124.516 255.705 123.074 255.22C123.03 255.205 122.985 255.189 122.94 255.174C122.928 255.17 122.917 255.164 122.904 255.16C122.844 255.139 122.784 255.119 122.724 255.097C122.682 255.082 122.64 255.066 122.599 255.051C122.583 255.045 122.567 255.039 122.551 255.033C122.46 254.999 122.369 254.964 122.278 254.928C122.239 254.912 122.201 254.896 122.162 254.88C122.091 254.851 122.02 254.821 121.949 254.791C121.289 254.51 120.647 254.18 120.03 253.805L22.8419 197.684C22.172 197.319 21.5339 196.904 20.9307 196.445C20.9044 196.425 20.8787 196.405 20.8526 196.385C20.8153 196.356 20.7774 196.328 20.7403 196.299L20.6094 196.195C20.5843 196.175 20.5601 196.154 20.5352 196.134C20.4902 196.097 20.445 196.061 20.4004 196.023C20.3355 195.969 20.2709 195.915 20.2071 195.86C20.1929 195.848 20.1792 195.836 20.1651 195.823C19.3511 195.118 18.6269 194.336 17.9971 193.495C17.9774 193.469 17.9581 193.442 17.9385 193.416C17.8158 193.25 17.6965 193.082 17.5811 192.911C17.5512 192.867 17.5217 192.823 17.4922 192.778C17.4568 192.725 17.4215 192.671 17.3868 192.617C16.0676 190.572 15.2316 188.186 15.042 185.619C15.009 185.185 14.996 184.748 15.001 184.311V71.6865C15.0003 71.6247 15 71.5628 15.0001 71.501C14.999 70.3906 15.1208 69.2737 15.3721 68.1709C15.7381 66.5566 16.364 65.041 17.2042 63.6709C17.7196 62.8268 18.3221 62.0291 19.0069 61.292C20.049 60.1675 21.2417 59.2278 22.5352 58.4873C22.5953 58.4528 22.6562 58.4195 22.7169 58.3857L120.03 2.19239C120.783 1.73432 121.572 1.34497 122.388 1.02735C122.408 1.01934 122.429 1.01183 122.449 1.00391C122.518 0.977549 122.586 0.95114 122.655 0.925788C122.731 0.897771 122.807 0.870476 122.883 0.843756C122.912 0.833529 122.941 0.823529 122.971 0.813483C124.447 0.30451 125.968 0.0392695 127.481 0.0039127C127.537 0.00251071 127.593 0.00175098 127.649 0.000983009C127.714 0.000208112 127.778 -4.26997e-05 127.842 6.44698e-06C127.906 -4.46841e-05 127.971 0.00020171 128.035 0.000983009ZM145.841 134.927C143.984 135.999 142.841 137.98 142.841 140.123V204.619C142.841 209.238 147.841 212.124 151.841 209.815L207.681 177.571C209.537 176.499 210.681 174.518 210.681 172.375V107.879C210.681 103.26 205.68 100.373 201.68 102.683L145.841 134.927ZM45.001 172.373C45.001 174.517 46.1445 176.497 48.0007 177.569L103.841 209.813C107.841 212.122 112.841 209.236 112.841 204.617V140.122C112.841 137.979 111.697 135.998 109.841 134.926L54.0015 102.681C50.0015 100.371 45.001 103.258 45.001 107.877V172.373ZM68.9945 66.305C64.9949 68.6145 64.9949 74.3874 68.9945 76.6969L124.841 108.944C126.697 110.016 128.985 110.016 130.841 108.944L186.689 76.6969C190.689 74.3874 190.689 68.6144 186.689 66.3049L130.842 34.0567C128.986 32.9847 126.698 32.9847 124.842 34.0567L68.9945 66.305Z" fill="white"/>
</svg>
