<svg width="256" height="256" viewBox="0 0 256 256" fill="none" xmlns="http://www.w3.org/2000/svg">
<path fill-rule="evenodd" clip-rule="evenodd" d="M110 55C110 62.1797 104.18 68 97 68L89.6434 68C68.8535 68 52 84.8535 52 105.643C52 111.994 49.3885 118.066 44.778 122.434L38.9024 128L44.7779 133.566C49.3884 137.934 52 144.006 52 150.357C52 171.147 68.8535 188 89.6433 188H97C104.18 188 110 193.82 110 201C110 208.18 104.18 214 97 214H89.6433C54.9105 214 26.676 186.177 26.0119 151.603L11.1317 137.506C11.0331 137.414 10.9356 137.32 10.8393 137.224C9.72006 136.114 8.84415 134.847 8.21337 133.492C7.42912 131.81 7.02623 129.997 7.00124 128.182C6.95465 124.799 8.22126 121.407 10.7787 118.837C10.8974 118.717 11.018 118.6 11.1402 118.486L26.012 104.397C26.6761 69.823 54.9105 42 89.6434 42L97 42C104.18 42 110 47.8203 110 55ZM146 55C146 62.1797 151.82 68 159 68L166.357 68C187.146 68 204 84.8535 204 105.643C204 111.994 206.612 118.066 211.222 122.434L217.098 128L211.222 133.566C206.612 137.934 204 144.006 204 150.357C204 171.147 187.147 188 166.357 188H159C151.82 188 146 193.82 146 201C146 208.18 151.82 214 159 214H166.357C201.09 214 229.324 186.177 229.988 151.603L244.868 137.506C244.967 137.414 245.064 137.32 245.161 137.224C246.28 136.114 247.156 134.847 247.787 133.492C248.571 131.81 248.974 129.997 248.999 128.182C249.045 124.799 247.779 121.407 245.221 118.837C245.103 118.717 244.982 118.6 244.86 118.486L229.988 104.397C229.324 69.823 201.089 42 166.357 42L159 42C151.82 42 146 47.8203 146 55Z" fill="white"/>
</svg>
