<svg width="256" height="257" viewBox="0 0 256 257" fill="none" xmlns="http://www.w3.org/2000/svg">
<mask id="path-1-outside-1_139_28" maskUnits="userSpaceOnUse" x="61.0002" y="0.988281" width="135" height="256" fill="black">
<rect fill="white" x="61.0002" y="0.988281" width="135" height="256"/>
<path d="M127.875 4.98828C133.398 4.98848 137.875 9.46556 137.875 14.9883V39.2891C145.141 39.8303 152.005 41.1605 158.469 43.2803C167.309 45.9688 175.266 50.0811 182.338 55.6162C184.106 57.0395 185.312 58.6999 185.955 60.5977C186.598 62.3372 186.677 64.0768 186.195 65.8164C185.713 67.3978 184.83 68.7426 183.544 69.8496C182.419 70.9566 180.892 71.5889 178.963 71.7471C177.195 71.9052 175.185 71.2729 172.935 69.8496C166.505 65.1052 159.834 61.7053 152.923 59.6494C146.011 57.4354 138.377 56.3282 130.019 56.3281C121.5 56.3281 114.105 57.5927 107.836 60.123C101.728 62.6534 96.9063 66.3701 93.3701 71.2725C89.9947 76.0168 88.3067 81.5522 88.3067 87.8779C88.3067 95.469 90.6375 101.479 95.2988 105.907C100.121 110.335 107.917 113.578 118.687 115.634L143.761 120.853C159.995 124.174 171.97 129.234 179.686 136.034C187.562 142.676 191.5 151.771 191.5 163.315C191.5 170.274 190.053 176.679 187.16 182.53C184.267 188.382 180.088 193.442 174.623 197.712C169.158 201.824 162.567 204.987 154.852 207.201C149.634 208.698 143.975 209.687 137.875 210.172V242.985L137.862 243.5C137.594 248.783 133.225 252.985 127.875 252.985C122.525 252.985 118.156 248.783 117.888 243.5L117.875 242.985V210.069C114.085 209.753 110.337 209.272 106.631 208.624C99.3977 207.359 92.6467 205.54 86.3779 203.168C80.2702 200.796 74.7249 197.792 69.7422 194.154C67.8134 192.731 66.4463 191.149 65.6426 189.409C64.9998 187.512 64.8397 185.693 65.1611 183.953C65.6434 182.055 66.4472 180.474 67.5723 179.209C68.858 177.944 70.3845 177.232 72.1524 177.074C73.9205 176.916 75.8499 177.469 77.9395 178.734C85.1726 183.795 92.8884 187.512 101.086 189.884C109.283 192.098 118.526 193.205 128.813 193.205C143.279 193.205 153.968 190.596 160.88 185.377C167.952 180 171.488 172.962 171.488 164.264C171.488 157.147 168.916 151.612 163.772 147.658C158.79 143.547 150.351 140.305 138.457 137.933L113.382 132.95C98.2726 129.787 86.9404 124.648 79.3858 117.531C71.9919 110.256 68.2949 100.609 68.2949 88.5898C68.295 81.157 69.822 74.4353 72.876 68.4258C75.9299 62.2582 80.1895 57.0394 85.6543 52.7695C91.1194 48.3414 97.6299 44.9416 105.185 42.5693C109.189 41.3119 113.419 40.3878 117.875 39.7969V14.9883C117.875 9.46552 122.352 4.98841 127.875 4.98828Z"/>
</mask>
<path d="M127.875 4.98828C133.398 4.98848 137.875 9.46556 137.875 14.9883V39.2891C145.141 39.8303 152.005 41.1605 158.469 43.2803C167.309 45.9688 175.266 50.0811 182.338 55.6162C184.106 57.0395 185.312 58.6999 185.955 60.5977C186.598 62.3372 186.677 64.0768 186.195 65.8164C185.713 67.3978 184.83 68.7426 183.544 69.8496C182.419 70.9566 180.892 71.5889 178.963 71.7471C177.195 71.9052 175.185 71.2729 172.935 69.8496C166.505 65.1052 159.834 61.7053 152.923 59.6494C146.011 57.4354 138.377 56.3282 130.019 56.3281C121.5 56.3281 114.105 57.5927 107.836 60.123C101.728 62.6534 96.9063 66.3701 93.3701 71.2725C89.9947 76.0168 88.3067 81.5522 88.3067 87.8779C88.3067 95.469 90.6375 101.479 95.2988 105.907C100.121 110.335 107.917 113.578 118.687 115.634L143.761 120.853C159.995 124.174 171.97 129.234 179.686 136.034C187.562 142.676 191.5 151.771 191.5 163.315C191.5 170.274 190.053 176.679 187.16 182.53C184.267 188.382 180.088 193.442 174.623 197.712C169.158 201.824 162.567 204.987 154.852 207.201C149.634 208.698 143.975 209.687 137.875 210.172V242.985L137.862 243.5C137.594 248.783 133.225 252.985 127.875 252.985C122.525 252.985 118.156 248.783 117.888 243.5L117.875 242.985V210.069C114.085 209.753 110.337 209.272 106.631 208.624C99.3977 207.359 92.6467 205.54 86.3779 203.168C80.2702 200.796 74.7249 197.792 69.7422 194.154C67.8134 192.731 66.4463 191.149 65.6426 189.409C64.9998 187.512 64.8397 185.693 65.1611 183.953C65.6434 182.055 66.4472 180.474 67.5723 179.209C68.858 177.944 70.3845 177.232 72.1524 177.074C73.9205 176.916 75.8499 177.469 77.9395 178.734C85.1726 183.795 92.8884 187.512 101.086 189.884C109.283 192.098 118.526 193.205 128.813 193.205C143.279 193.205 153.968 190.596 160.88 185.377C167.952 180 171.488 172.962 171.488 164.264C171.488 157.147 168.916 151.612 163.772 147.658C158.79 143.547 150.351 140.305 138.457 137.933L113.382 132.95C98.2726 129.787 86.9404 124.648 79.3858 117.531C71.9919 110.256 68.2949 100.609 68.2949 88.5898C68.295 81.157 69.822 74.4353 72.876 68.4258C75.9299 62.2582 80.1895 57.0394 85.6543 52.7695C91.1194 48.3414 97.6299 44.9416 105.185 42.5693C109.189 41.3119 113.419 40.3878 117.875 39.7969V14.9883C117.875 9.46552 122.352 4.98841 127.875 4.98828Z" fill="white"/>
<path d="M127.875 4.98828L127.875 0.988281L127.875 0.988281L127.875 4.98828ZM137.875 14.9883L133.875 14.9883V14.9883H137.875ZM137.875 39.2891H133.875V43.0022L137.578 43.278L137.875 39.2891ZM158.469 43.2803L157.222 47.0811L157.263 47.0946L157.305 47.1072L158.469 43.2803ZM182.338 55.6162L184.846 52.5004L184.825 52.4831L184.803 52.4662L182.338 55.6162ZM185.955 60.5977L182.167 61.8812L182.184 61.933L182.203 61.9843L185.955 60.5977ZM186.195 65.8164L190.021 66.983L190.036 66.9341L190.05 66.8848L186.195 65.8164ZM183.544 69.8496L180.934 66.8183L180.833 66.905L180.739 66.9983L183.544 69.8496ZM178.963 71.7471L178.636 67.7605L178.621 67.7617L178.607 67.763L178.963 71.7471ZM172.935 69.8496L170.56 73.0682L170.675 73.1534L170.796 73.2302L172.935 69.8496ZM152.923 59.6494L151.703 63.4587L151.742 63.4715L151.782 63.4834L152.923 59.6494ZM130.019 56.3281L130.019 52.3281H130.019V56.3281ZM107.836 60.123L106.339 56.4138L106.322 56.4206L106.305 56.4276L107.836 60.123ZM93.3701 71.2725L90.126 68.9324L90.1184 68.943L90.1108 68.9536L93.3701 71.2725ZM88.3067 87.8779L84.3067 87.8779V87.8779H88.3067ZM95.2988 105.907L92.5439 108.807L92.5684 108.831L92.5933 108.853L95.2988 105.907ZM118.687 115.634L119.502 111.718L119.469 111.711L119.437 111.705L118.687 115.634ZM143.761 120.853L142.946 124.769L142.959 124.771L143.761 120.853ZM179.686 136.034L177.041 139.035L177.073 139.064L177.107 139.092L179.686 136.034ZM191.5 163.315L195.5 163.315V163.315H191.5ZM187.16 182.53L190.746 184.303L190.746 184.303L187.16 182.53ZM174.623 197.712L177.028 200.908L177.057 200.886L177.086 200.864L174.623 197.712ZM154.852 207.201L155.955 211.046L155.955 211.046L154.852 207.201ZM137.875 210.172L137.558 206.184L133.875 206.477V210.172H137.875ZM137.875 242.985L141.874 243.084L141.875 243.035V242.985H137.875ZM137.862 243.5L141.857 243.703L141.86 243.651L141.861 243.599L137.862 243.5ZM127.875 252.985L127.875 256.985L127.875 256.985L127.875 252.985ZM117.888 243.5L113.889 243.599L113.89 243.651L113.893 243.703L117.888 243.5ZM117.875 242.985H113.875V243.035L113.876 243.084L117.875 242.985ZM117.875 210.069H121.875V206.389L118.207 206.083L117.875 210.069ZM106.631 208.624L105.942 212.564L105.942 212.564L106.631 208.624ZM86.3779 203.168L84.9298 206.897L84.946 206.903L84.9622 206.909L86.3779 203.168ZM69.7422 194.154L67.3672 197.373L67.3755 197.379L67.3838 197.385L69.7422 194.154ZM65.6426 189.409L61.8541 190.693L61.9223 190.894L62.0114 191.087L65.6426 189.409ZM65.1611 183.953L61.2844 182.968L61.2518 183.096L61.2277 183.226L65.1611 183.953ZM67.5723 179.209L64.767 176.358L64.6719 176.451L64.5833 176.551L67.5723 179.209ZM72.1524 177.074L71.796 173.09L71.7958 173.09L72.1524 177.074ZM77.9395 178.734L80.2326 175.457L80.1243 175.381L80.0112 175.313L77.9395 178.734ZM101.086 189.884L99.974 193.726L100.008 193.736L100.043 193.745L101.086 189.884ZM128.813 193.205L128.813 197.205H128.813V193.205ZM160.88 185.377L163.29 188.569L163.301 188.561L160.88 185.377ZM171.488 164.264L175.488 164.264L175.488 164.264L171.488 164.264ZM163.772 147.658L161.227 150.743L161.28 150.787L161.335 150.83L163.772 147.658ZM138.457 137.933L139.239 134.01L139.237 134.009L138.457 137.933ZM113.382 132.95L112.562 136.865L112.582 136.87L112.602 136.873L113.382 132.95ZM79.3858 117.531L76.5804 120.383L76.6114 120.413L76.643 120.443L79.3858 117.531ZM68.2949 88.5898L64.2949 88.5898V88.5898H68.2949ZM72.876 68.4258L76.4419 70.2379L76.4514 70.2194L76.4606 70.2008L72.876 68.4258ZM85.6543 52.7695L88.1171 55.9215L88.145 55.8997L88.1725 55.8774L85.6543 52.7695ZM105.185 42.5693L103.986 38.7531L103.986 38.7531L105.185 42.5693ZM117.875 39.7969L118.401 43.7622L121.875 43.3015V39.7969H117.875ZM117.875 14.9883L113.875 14.9883V14.9883H117.875ZM127.875 4.98828L127.875 8.98828C131.189 8.9884 133.875 11.6748 133.875 14.9883L137.875 14.9883L141.875 14.9883C141.875 7.25627 135.607 0.988559 127.875 0.988281L127.875 4.98828ZM137.875 14.9883H133.875V39.2891H137.875H141.875V14.9883H137.875ZM137.875 39.2891L137.578 43.278C144.544 43.7969 151.088 45.0691 157.222 47.0811L158.469 43.2803L159.715 39.4795C152.923 37.2518 145.738 35.8637 138.172 35.3001L137.875 39.2891ZM158.469 43.2803L157.305 47.1072C165.687 49.6564 173.2 53.5437 179.873 58.7662L182.338 55.6162L184.803 52.4662C177.331 46.6184 168.931 42.2812 159.633 39.4533L158.469 43.2803ZM182.338 55.6162L179.83 58.7321C181.087 59.7443 181.799 60.7965 182.167 61.8812L185.955 60.5977L189.744 59.3141C188.825 56.6033 187.125 54.3348 184.846 52.5004L182.338 55.6162ZM185.955 60.5977L182.203 61.9843C182.563 62.9582 182.593 63.8393 182.341 64.748L186.195 65.8164L190.05 66.8848C190.762 64.3144 190.633 61.7162 189.707 59.211L185.955 60.5977ZM186.195 65.8164L182.369 64.6498C182.113 65.4886 181.661 66.1925 180.934 66.8183L183.544 69.8496L186.154 72.8809C187.998 71.2927 189.313 69.307 190.021 66.983L186.195 65.8164ZM183.544 69.8496L180.739 66.9983C180.423 67.309 179.85 67.6609 178.636 67.7605L178.963 71.7471L179.29 75.7337C181.933 75.5169 184.415 74.6042 186.349 72.7009L183.544 69.8496ZM178.963 71.7471L178.607 67.763C178.054 67.8124 176.934 67.646 175.073 66.4691L172.935 69.8496L170.796 73.2302C173.436 74.8999 176.335 75.9981 179.319 75.7312L178.963 71.7471ZM172.935 69.8496L175.31 66.631C168.547 61.6411 161.464 58.0169 154.063 55.8154L152.923 59.6494L151.782 63.4834C158.205 65.3937 164.463 68.5694 170.56 73.0682L172.935 69.8496ZM152.923 59.6494L154.143 55.8401C146.783 53.4823 138.729 52.3282 130.019 52.3281L130.019 56.3281L130.019 60.3281C138.024 60.3282 145.24 61.3886 151.703 63.4587L152.923 59.6494ZM130.019 56.3281V52.3281C121.115 52.3281 113.19 53.6485 106.339 56.4138L107.836 60.123L109.333 63.8323C115.02 61.5369 121.884 60.3281 130.019 60.3281V56.3281ZM107.836 60.123L106.305 56.4276C99.5779 59.2145 94.1366 63.3723 90.126 68.9324L93.3701 71.2725L96.6142 73.6125C99.676 69.3678 103.879 66.0922 109.367 63.8185L107.836 60.123ZM93.3701 71.2725L90.1108 68.9536C86.2116 74.4342 84.3068 80.7966 84.3067 87.8779L88.3067 87.8779L92.3067 87.878C92.3067 82.3078 93.7778 77.5994 96.6294 73.5913L93.3701 71.2725ZM88.3067 87.8779H84.3067C84.3067 96.3506 86.9442 103.488 92.5439 108.807L95.2988 105.907L98.0538 103.007C94.3308 99.4705 92.3067 94.5874 92.3067 87.8779H88.3067ZM95.2988 105.907L92.5933 108.853C98.2186 114.019 106.875 117.451 117.936 119.563L118.687 115.634L119.437 111.705C108.959 109.705 102.023 106.652 98.0044 102.961L95.2988 105.907ZM118.687 115.634L117.871 119.55L142.946 124.769L143.761 120.853L144.576 116.936L119.502 111.718L118.687 115.634ZM143.761 120.853L142.959 124.771C158.885 128.029 170.077 132.897 177.041 139.035L179.686 136.034L182.33 133.033C173.864 125.571 161.105 120.318 144.562 116.934L143.761 120.853ZM179.686 136.034L177.107 139.092C183.966 144.877 187.5 152.79 187.5 163.315H191.5H195.5C195.5 150.751 191.157 140.476 182.264 132.976L179.686 136.034ZM191.5 163.315L187.5 163.315C187.5 169.7 186.177 175.493 183.575 180.757L187.16 182.53L190.746 184.303C193.929 177.864 195.5 170.847 195.5 163.315L191.5 163.315ZM187.16 182.53L183.575 180.757C180.964 186.037 177.182 190.636 172.16 194.56L174.623 197.712L177.086 200.864C182.993 196.248 187.57 190.726 190.746 184.303L187.16 182.53ZM174.623 197.712L172.218 194.516C167.205 198.287 161.074 201.254 153.748 203.356L154.852 207.201L155.955 211.046C164.06 208.72 171.111 205.36 177.028 200.908L174.623 197.712ZM154.852 207.201L153.748 203.356C148.818 204.771 143.426 205.718 137.558 206.184L137.875 210.172L138.192 214.159C144.524 213.656 150.449 212.626 155.955 211.046L154.852 207.201ZM137.875 210.172H133.875V242.985H137.875H141.875V210.172H137.875ZM137.875 242.985L133.876 242.887L133.864 243.401L137.862 243.5L141.861 243.599L141.874 243.084L137.875 242.985ZM137.862 243.5L133.867 243.297C133.707 246.464 131.084 248.985 127.875 248.985L127.875 252.985L127.875 256.985C135.366 256.985 141.482 251.103 141.857 243.703L137.862 243.5ZM127.875 252.985L127.875 248.985C124.666 248.985 122.043 246.464 121.883 243.297L117.888 243.5L113.893 243.703C114.268 251.103 120.384 256.985 127.875 256.985L127.875 252.985ZM117.888 243.5L121.886 243.401L121.874 242.887L117.875 242.985L113.876 243.084L113.889 243.599L117.888 243.5ZM117.875 242.985H121.875V210.069H117.875H113.875V242.985H117.875ZM117.875 210.069L118.207 206.083C114.535 205.777 110.906 205.311 107.32 204.684L106.631 208.624L105.942 212.564C109.768 213.233 113.635 213.73 117.543 214.055L117.875 210.069ZM106.631 208.624L107.32 204.684C100.312 203.458 93.8059 201.702 87.7936 199.427L86.3779 203.168L84.9622 206.909C91.4875 209.378 98.484 211.26 105.942 212.564L106.631 208.624ZM86.3779 203.168L87.8261 199.439C82.0219 197.185 76.7858 194.344 72.1006 190.924L69.7422 194.154L67.3838 197.385C72.664 201.239 78.5185 204.407 84.9298 206.897L86.3779 203.168ZM69.7422 194.154L72.1172 190.936C70.5962 189.813 69.7327 188.725 69.2738 187.732L65.6426 189.409L62.0114 191.087C63.1598 193.573 65.0305 195.649 67.3672 197.373L69.7422 194.154ZM65.6426 189.409L69.4311 188.126C68.9782 186.789 68.9127 185.664 69.0945 184.68L65.1611 183.953L61.2277 183.226C60.7667 185.721 61.0213 188.234 61.8541 190.693L65.6426 189.409ZM65.1611 183.953L69.0379 184.938C69.3871 183.564 69.9238 182.584 70.5613 181.867L67.5723 179.209L64.5833 176.551C62.9706 178.364 61.8996 180.547 61.2844 182.968L65.1611 183.953ZM67.5723 179.209L70.3776 182.06C71.0147 181.434 71.6803 181.132 72.5089 181.058L72.1524 177.074L71.7958 173.09C69.0888 173.332 66.7013 174.455 64.767 176.358L67.5723 179.209ZM72.1524 177.074L72.5087 181.058C73.1621 181 74.2392 181.17 75.8677 182.156L77.9395 178.734L80.0112 175.313C77.4605 173.768 74.6789 172.832 71.796 173.09L72.1524 177.074ZM77.9395 178.734L75.6464 182.012C83.2271 187.316 91.34 191.228 99.974 193.726L101.086 189.884L102.198 186.041C94.4368 183.796 87.1182 180.274 80.2326 175.457L77.9395 178.734ZM101.086 189.884L100.043 193.745C108.643 196.068 118.245 197.205 128.813 197.205L128.813 193.205L128.813 189.205C118.806 189.205 109.924 188.127 102.129 186.022L101.086 189.884ZM128.813 193.205V197.205C143.618 197.205 155.355 194.561 163.29 188.569L160.88 185.377L158.47 182.185C152.581 186.631 142.94 189.205 128.813 189.205V193.205ZM160.88 185.377L163.301 188.561C171.343 182.447 175.488 174.243 175.488 164.264H171.488H167.488C167.488 171.681 164.561 177.553 158.459 182.193L160.88 185.377ZM171.488 164.264L175.488 164.264C175.488 156.043 172.443 149.278 166.21 144.487L163.772 147.658L161.335 150.83C165.389 153.946 167.488 158.251 167.488 164.264L171.488 164.264ZM163.772 147.658L166.318 144.573C160.551 139.814 151.306 136.416 139.239 134.01L138.457 137.933L137.675 141.855C149.396 144.193 157.029 147.279 161.227 150.743L163.772 147.658ZM138.457 137.933L139.237 134.009L114.161 129.027L113.382 132.95L112.602 136.873L137.677 141.856L138.457 137.933ZM113.382 132.95L114.201 129.035C99.4852 125.954 88.9462 121.042 82.1285 114.62L79.3858 117.531L76.643 120.443C84.9346 128.254 97.0601 133.62 112.562 136.865L113.382 132.95ZM79.3858 117.531L82.1911 114.68C75.6838 108.277 72.2949 99.7216 72.2949 88.5898H68.2949H64.2949C64.2949 101.497 68.3 112.235 76.5804 120.383L79.3858 117.531ZM68.2949 88.5898L72.2949 88.5899C72.295 81.7211 73.7016 75.6303 76.4419 70.2379L72.876 68.4258L69.31 66.6136C65.9424 73.2404 64.295 80.5929 64.2949 88.5898L68.2949 88.5898ZM72.876 68.4258L76.4606 70.2008C79.2464 64.5748 83.1208 59.8252 88.1171 55.9215L85.6543 52.7695L83.1916 49.6176C77.2581 54.2536 72.6135 59.9417 69.2914 66.6508L72.876 68.4258ZM85.6543 52.7695L88.1725 55.8774C93.1998 51.8039 99.2485 48.6259 106.383 46.3856L105.185 42.5693L103.986 38.7531C96.0113 41.2573 89.0389 44.8788 83.1361 49.6617L85.6543 52.7695ZM105.185 42.5693L106.383 46.3856C110.153 45.2018 114.157 44.3249 118.401 43.7622L117.875 39.7969L117.349 35.8316C112.681 36.4506 108.225 37.4221 103.986 38.7531L105.185 42.5693ZM117.875 39.7969H121.875V14.9883H117.875H113.875V39.7969H117.875ZM117.875 14.9883L121.875 14.9883C121.875 11.6747 124.561 8.98836 127.875 8.98828L127.875 4.98828L127.875 0.988281C120.143 0.988466 113.875 7.25628 113.875 14.9883L117.875 14.9883Z" fill="white" mask="url(#path-1-outside-1_139_28)"/>
</svg>
