<svg width="256" height="256" viewBox="0 0 256 256" fill="none" xmlns="http://www.w3.org/2000/svg">
<path d="M172.377 83.4545C169.833 83.4545 167.744 81.5256 167.108 79.0616C165.426 72.5463 161.693 67.344 155.909 63.4545C148.879 58.6667 140.03 56.2727 129.364 56.2727C121.727 56.2727 115.121 57.4849 109.545 59.9091C103.97 62.2727 99.6364 65.5455 96.5455 69.7273C93.5152 73.8485 92 78.5455 92 83.8182C92 88.2424 93.0303 92.0606 95.0909 95.2727C97.2121 98.4849 99.9697 101.182 103.364 103.364C106.818 105.485 110.515 107.273 114.455 108.727C118.394 110.121 122.182 111.273 125.818 112.182L144 116.909C149.939 118.364 156.03 120.333 162.273 122.818C168.515 125.303 174.303 128.576 179.636 132.636C184.97 136.697 189.273 141.727 192.545 147.727C195.879 153.727 197.545 160.909 197.545 169.273C197.545 179.818 194.818 189.182 189.364 197.364C183.97 205.545 176.121 212 165.818 216.727C155.576 221.455 143.182 223.818 128.636 223.818C114.697 223.818 102.636 221.606 92.4545 217.182C82.2727 212.758 74.303 206.485 68.5455 198.364C63.7071 191.488 60.6876 183.542 59.4872 174.527C59.1087 171.684 61.4101 169.273 64.2776 169.273H82.5708C85.1756 169.273 87.2978 171.286 87.8384 173.834C88.8443 178.576 90.8073 182.661 93.7273 186.091C97.6061 190.515 102.545 193.818 108.545 196C114.606 198.121 121.242 199.182 128.455 199.182C136.394 199.182 143.455 197.939 149.636 195.455C155.879 192.909 160.788 189.394 164.364 184.909C167.939 180.364 169.727 175.061 169.727 169C169.727 163.485 168.152 158.97 165 155.455C161.909 151.939 157.697 149.03 152.364 146.727C147.091 144.424 141.121 142.394 134.455 140.636L112.455 134.636C97.5455 130.576 85.7273 124.606 77 116.727C68.3333 108.848 64 98.4242 64 85.4545C64 74.7273 66.9091 65.3636 72.7273 57.3636C78.5455 49.3636 86.4242 43.1515 96.3636 38.7273C106.303 34.2424 117.515 32 130 32C142.606 32 153.727 34.2121 163.364 38.6364C173.061 43.0606 180.697 49.1515 186.273 56.9091C190.88 63.2687 193.666 70.4145 194.632 78.3464C194.972 81.1347 192.686 83.4545 189.877 83.4545H172.377Z" fill="white"/>
<path d="M128 216L128 241" stroke="white" stroke-width="30" stroke-linecap="round"/>
<path d="M128 15L128 40" stroke="white" stroke-width="30" stroke-linecap="round"/>
</svg>
