<svg width="256" height="256" viewBox="0 0 256 256" fill="none" xmlns="http://www.w3.org/2000/svg">
<path d="M128 190V20" stroke="white" stroke-width="40" stroke-linecap="round"/>
<path d="M127.861 212.999C131.746 213.035 135.642 211.571 138.606 208.607L209.317 137.896C212.291 134.922 213.753 131.011 213.708 127.114C213.708 127.076 213.71 127.038 213.71 127C213.71 118.716 206.994 112 198.71 112H57C48.7157 112 42 118.716 42 127C42 127.045 42.0006 127.089 42.001 127.134C41.961 131.024 43.4252 134.927 46.3936 137.896L117.104 208.607L117.381 208.876C120.312 211.662 124.092 213.037 127.861 212.999Z" fill="white"/>
<rect y="226" width="256" height="30" rx="15" fill="white"/>
</svg>
