<svg width="256" height="256" viewBox="0 0 256 256" fill="none" xmlns="http://www.w3.org/2000/svg">
<path d="M135.5 13C135.5 8.85786 132.142 5.5 128 5.5C123.858 5.5 120.5 8.85786 120.5 13L135.5 13ZM122.697 163.303C125.626 166.232 130.374 166.232 133.303 163.303L181.033 115.574C183.962 112.645 183.962 107.896 181.033 104.967C178.104 102.038 173.355 102.038 170.426 104.967L128 147.393L85.5736 104.967C82.6447 102.038 77.8959 102.038 74.967 104.967C72.0381 107.896 72.0381 112.645 74.967 115.574L122.697 163.303ZM120.5 13L120.5 158L135.5 158L135.5 13L120.5 13Z" fill="white"/>
<path fill-rule="evenodd" clip-rule="evenodd" d="M92.9078 148.166L118.454 173.712C123.726 178.984 132.274 178.984 137.546 173.712L163.092 148.166H236C247.046 148.166 256 157.12 256 168.166V220.166C256 231.212 247.046 240.166 236 240.166H20C8.95431 240.166 0 231.212 0 220.166V168.166C0 157.12 8.95431 148.166 20 148.166H92.9078ZM244 196.166C244 207.212 235.046 216.166 224 216.166C212.954 216.166 204 207.212 204 196.166C204 185.12 212.954 176.166 224 176.166C235.046 176.166 244 185.12 244 196.166Z" fill="white"/>
</svg>
