<svg width="256" height="256" viewBox="0 0 256 256" fill="none" xmlns="http://www.w3.org/2000/svg">
<path fill-rule="evenodd" clip-rule="evenodd" d="M33.5 151C20.5213 151 10 140.479 10 127.5C10 114.521 20.5213 104 33.5 104C46.4787 104 57 114.521 57 127.5C57 140.479 46.4787 151 33.5 151ZM127.5 151C114.521 151 104 140.479 104 127.5C104 114.521 114.521 104 127.5 104C140.479 104 151 114.521 151 127.5C151 140.479 140.479 151 127.5 151ZM198 127.5C198 140.479 208.521 151 221.5 151C234.479 151 245 140.479 245 127.5C245 114.521 234.479 104 221.5 104C208.521 104 198 114.521 198 127.5Z" fill="white"/>
</svg>
