<svg width="256" height="256" viewBox="0 0 256 256" fill="none" xmlns="http://www.w3.org/2000/svg">
<path fill-rule="evenodd" clip-rule="evenodd" d="M30 158C13.4315 158 -5.87111e-07 144.568 -1.31134e-06 128C-2.03558e-06 111.431 13.4315 97.9999 30 97.9999C46.5685 97.9999 60 111.431 60 128C60 144.568 46.5685 158 30 158ZM128 158C111.431 158 98 144.569 98 128C98 111.431 111.431 98 128 98C144.569 98 158 111.431 158 128C158 144.569 144.569 158 128 158ZM196 128C196 144.569 209.431 158 226 158C242.569 158 256 144.569 256 128C256 111.431 242.569 98 226 98C209.431 98 196 111.431 196 128Z" fill="white"/>
</svg>
