<svg width="256" height="256" viewBox="0 0 256 256" fill="none" xmlns="http://www.w3.org/2000/svg">
<path fill-rule="evenodd" clip-rule="evenodd" d="M104 33.5C104 20.5213 114.521 10 127.5 10C140.479 10 151 20.5213 151 33.5C151 46.4787 140.479 57 127.5 57C114.521 57 104 46.4787 104 33.5ZM104 127.5C104 114.521 114.521 104 127.5 104C140.479 104 151 114.521 151 127.5C151 140.479 140.479 151 127.5 151C114.521 151 104 140.479 104 127.5ZM127.5 198C114.521 198 104 208.521 104 221.5C104 234.479 114.521 245 127.5 245C140.479 245 151 234.479 151 221.5C151 208.521 140.479 198 127.5 198Z" fill="white"/>
</svg>
