<svg width="256" height="256" viewBox="0 0 256 256" fill="none" xmlns="http://www.w3.org/2000/svg">
<g clip-path="url(#clip0_413_2)">
<path fill-rule="evenodd" clip-rule="evenodd" d="M128 158C111.431 158 98 144.569 98 128C98 111.431 111.431 98 128 98C144.569 98 158 111.431 158 128C158 144.569 144.569 158 128 158ZM128 60C111.432 60 98.0001 46.5685 98.0001 30C98.0001 13.4315 111.432 3.66562e-07 128 -3.57672e-07C144.569 -1.08191e-06 158 13.4315 158 30C158 46.5685 144.569 60 128 60ZM98 226C98 242.569 111.431 256 128 256C144.569 256 158 242.569 158 226C158 209.431 144.569 196 128 196C111.431 196 98 209.431 98 226Z" fill="white"/>
</g>
<defs>
<clipPath id="clip0_413_2">
<rect width="256" height="256" fill="white"/>
</clipPath>
</defs>
</svg>
