<svg width="256" height="256" viewBox="0 0 256 256" fill="none" xmlns="http://www.w3.org/2000/svg">
<path d="M0 52.5715C0 37.8964 11.9391 26 26.6667 26H229.333C244.061 26 256 37.8965 256 52.5715V62.5043C256 64.5327 254.775 66.36 252.898 67.13L133.228 116.236C129.979 117.569 126.334 117.57 123.084 116.24L3.10587 67.1285C1.22726 66.3596 0 64.5311 0 62.5012V52.5715Z" fill="white"/>
<path d="M0 202.429V98.481C0 95.6381 2.88242 93.7026 5.51387 94.7785L123.091 142.854C126.339 144.182 129.983 144.18 133.23 142.847L250.482 94.7344C253.114 93.6543 256 95.5899 256 98.4349V202.429C256 217.104 244.061 229 229.333 229H26.6667C11.9391 229 0 217.104 0 202.429Z" fill="white"/>
</svg>
