<svg width="256" height="256" viewBox="0 0 256 256" fill="none" xmlns="http://www.w3.org/2000/svg">
<path d="M0 55.5715C0 40.8964 11.9391 29 26.6667 29H229.333C244.061 29 256 40.8965 256 55.5715V66.8455C256 68.0625 255.265 69.1589 254.139 69.6209L133.228 119.236C129.979 120.569 126.334 120.57 123.084 119.24L1.86352 69.62C0.736353 69.1586 0 68.0615 0 66.8436V55.5715Z" fill="white"/>
<path d="M0 199.429V91.0133C0 90.3025 0.720603 89.8187 1.37846 90.0877L123.091 139.854C126.339 141.182 129.983 141.18 133.23 139.847L254.62 90.036C255.278 89.766 256 90.2499 256 90.9611V199.429C256 214.104 244.061 226 229.333 226H26.6667C11.9391 226 0 214.104 0 199.429Z" fill="white"/>
</svg>
