<svg width="256" height="256" viewBox="0 0 256 256" fill="none" xmlns="http://www.w3.org/2000/svg">
<path d="M32 78C32 66.9543 40.9543 58 52 58H204C215.046 58 224 66.9543 224 78V85.991C224 87.2066 223.266 88.3021 222.142 88.765L131.921 125.919C129.484 126.923 126.75 126.924 124.313 125.922L33.86 88.7641C32.7347 88.3018 32 87.2057 32 85.9891V78Z" fill="white"/>
<path d="M32 178V96.7674C32 96.0561 32.7216 95.5722 33.3796 95.8422L124.318 133.159C126.755 134.158 129.487 134.157 131.922 133.154L222.619 95.804C223.277 95.5329 224 96.0168 224 96.7286V178C224 189.045 215.046 198 204 198H52C40.9543 198 32 189.045 32 178Z" fill="white"/>
</svg>
