<svg width="256" height="256" viewBox="0 0 256 256" fill="none" xmlns="http://www.w3.org/2000/svg">
<path d="M137.228 16.1255C144.062 9.29148 155.142 9.2915 161.976 16.1255L250.126 104.276C256.963 111.114 256.96 122.201 250.117 129.034L159.015 220.006H233.268C240.171 220.007 245.768 225.603 245.768 232.506C245.768 239.41 240.171 245.006 233.268 245.006H98.8831C97.7203 245.006 96.5947 244.847 95.5266 244.55H83.9192C79.2743 244.55 74.8198 242.702 71.5374 239.416L49.1965 217.046L5.12524 172.976C-1.60212 166.249 -1.70656 155.406 4.81079 148.55L5.12524 148.227L137.228 16.1255ZM92.3899 103.389C90.4373 101.437 87.2712 101.437 85.3186 103.389L31.6418 157.066C29.6893 159.019 29.6893 162.185 31.6418 164.137L66.885 199.38L85.5637 218.083C86.5016 219.022 87.7747 219.549 89.1018 219.549H122.023C123.347 219.549 124.618 219.023 125.555 218.087L162.81 180.886C164.765 178.934 164.766 175.767 162.813 173.813L92.3899 103.389Z" fill="white"/>
</svg>
