<svg width="256" height="256" viewBox="0 0 256 256" fill="none" xmlns="http://www.w3.org/2000/svg">
<path d="M128 33C201.325 33.0003 244.261 105.584 253.911 123.861C255.285 126.465 255.285 129.535 253.911 132.139C244.261 150.416 201.325 223 128 223C54.6753 223 11.7389 150.417 2.08926 132.139C0.714647 129.535 0.714644 126.465 2.08926 123.861C11.7389 105.583 54.6753 33 128 33ZM128 67C94.311 67 67.0004 94.3106 67.0004 128C67.0004 161.689 94.311 189 128 189C161.69 189 189 161.689 189 128C189 94.3108 161.69 67.0002 128 67Z" fill="white"/>
<rect x="118" y="84" width="54" height="54" rx="27" fill="white"/>
<path d="M20 20L236 236" stroke="white" stroke-width="40" stroke-linecap="round"/>
</svg>
