<svg width="256" height="256" viewBox="0 0 256 256" fill="none" xmlns="http://www.w3.org/2000/svg">
<path d="M128 33C201.325 33 244.261 105.583 253.91 123.861C255.285 126.465 255.285 129.535 253.91 132.139C244.261 150.417 201.325 223 128 223C54.675 223 11.7386 150.417 2.0889 132.139C0.714388 129.535 0.714385 126.465 2.0889 123.861C11.7386 105.583 54.675 33 128 33ZM128 67C94.3107 67 67 94.3106 67 128C67 161.689 94.3107 189 128 189C161.689 189 189 161.689 189 128C189 94.3106 161.689 67 128 67Z" fill="white"/>
<rect x="118" y="84" width="54" height="54" rx="27" fill="white"/>
</svg>
