<svg width="256" height="256" viewBox="0 0 256 256" fill="none" xmlns="http://www.w3.org/2000/svg">
<path d="M129 14.6569C129 11.0932 133.309 9.30857 135.828 11.8284L189.172 65.1716C191.691 67.6914 189.907 72 186.343 72H139C133.477 72 129 67.5228 129 62V14.6569Z" fill="white"/>
<path fill-rule="evenodd" clip-rule="evenodd" d="M181.571 117.071C177.666 113.166 171.334 113.166 167.429 117.071L132.196 152.304C130.312 154.122 129.14 156.674 129.14 159.5C129.14 159.584 129.141 159.668 129.143 159.751C129.17 162.275 130.146 164.79 132.071 166.716L167.426 202.071C171.332 205.976 177.663 205.976 181.569 202.071C185.474 198.166 185.474 191.834 181.569 187.929L163.14 169.5H243.64C249.162 169.5 253.64 165.023 253.64 159.5C253.64 153.977 249.162 149.5 243.64 149.5H163.284L181.571 131.213C185.476 127.308 185.476 120.976 181.571 117.071Z" fill="white"/>
<path d="M106.832 4.61035C113.459 4.61039 118.832 9.98296 118.832 16.6104V62.4785C118.832 73.1317 127.467 81.7684 138.121 81.7686H183.99C190.617 81.7688 195.99 87.1413 195.99 93.7686V142H181.731L188.133 135.577C195.216 128.472 195.217 116.951 188.134 109.846C181.052 102.74 169.568 102.74 162.485 109.846L125.825 146.626C118.742 153.732 118.742 165.252 125.825 172.357C126.381 172.915 126.965 173.429 127.571 173.899L161.778 208.218C168.814 215.277 180.224 215.277 187.26 208.218C194.296 201.158 194.297 189.713 187.26 182.653L181.625 177H195.99V232.227C195.99 242.88 187.353 251.516 176.7 251.516H24.9556C14.3026 251.515 5.66668 242.88 5.6665 232.227V23.8994C5.66673 13.2465 14.3026 4.61058 24.9556 4.61035H106.832Z" fill="white"/>
</svg>
