<svg width="256" height="256" viewBox="0 0 256 256" fill="none" xmlns="http://www.w3.org/2000/svg">
<path d="M49.0676 0C37.9846 0 29 8.95431 29 20V236C29 247.046 37.9846 256 49.0676 256H206.932C218.015 256 227 247.046 227 236V85C227 82.2386 224.761 80 222 80H166.797C155.714 80 146.73 71.0457 146.73 60V5C146.73 2.23858 144.491 0 141.73 0H49.0676Z" fill="white"/>
<path d="M157 4.82843C157 3.04662 159.154 2.15428 160.414 3.41421L223.586 66.5858C224.846 67.8457 223.953 70 222.172 70H167C161.477 70 157 65.5229 157 60V4.82843Z" fill="white"/>
</svg>
