<svg width="256" height="256" viewBox="0 0 256 256" fill="none" xmlns="http://www.w3.org/2000/svg">
<path d="M134.165 5C140.792 5.00004 146.165 10.3726 146.165 17V62.8682C146.165 73.5213 154.801 82.158 165.454 82.1582H211.323C217.95 82.1584 223.323 87.5309 223.323 94.1582V232.616C223.323 243.269 214.686 251.905 204.033 251.905H52.2891C41.6361 251.905 33.0002 243.269 33 232.616V24.2891C33.0002 13.6361 41.6361 5.00023 52.2891 5H134.165ZM155.07 99C131.361 99 112.141 118.22 112.141 141.93C112.141 146.406 112.826 150.723 114.098 154.78L60.9229 208.051C59.0514 209.926 58.0001 212.466 58 215.115V229C58 234.523 62.4772 239 68 239H74.3389C79.8616 239 84.3389 234.523 84.3389 229V220.354C84.3389 217.592 86.5775 215.354 89.3389 215.354H97.9434C103.466 215.353 107.943 210.876 107.943 205.354V196.707C107.944 193.946 110.182 191.707 112.943 191.707H127.394C130.048 191.707 132.594 190.652 134.47 188.773L140.806 182.429C145.269 184.001 150.069 184.859 155.07 184.859C178.78 184.859 198 165.639 198 141.93C198 118.22 178.78 99 155.07 99ZM169.289 115.406C176.085 115.406 181.594 120.915 181.594 127.711C181.594 134.507 176.085 140.016 169.289 140.016C162.493 140.016 156.984 134.507 156.984 127.711C156.984 120.915 162.493 115.406 169.289 115.406ZM156.333 15.0469C156.333 11.4833 160.642 9.69791 163.162 12.2178L216.505 65.5615C219.025 68.0813 217.24 72.3895 213.677 72.3896H166.333C160.81 72.3895 156.333 67.9124 156.333 62.3896V15.0469Z" fill="white"/>
</svg>
