<svg width="256" height="256" viewBox="0 0 256 256" fill="none" xmlns="http://www.w3.org/2000/svg">
<path d="M129 14.6569C129 11.0932 133.309 9.30857 135.828 11.8284L189.172 65.1716C191.691 67.6914 189.907 72 186.343 72H139C133.477 72 129 67.5228 129 62V14.6569Z" fill="white"/>
<rect x="131.5" y="149.5" width="124.5" height="20" rx="10" fill="white"/>
<rect x="210.64" y="110" width="70" height="20" rx="10" transform="rotate(45 210.64 110)" fill="white"/>
<rect x="196.5" y="195" width="70" height="20" rx="10" transform="rotate(-45 196.5 195)" fill="white"/>
<path d="M106.832 4.61035C113.459 4.61039 118.832 9.98296 118.832 16.6104V62.4785C118.832 73.1317 127.468 81.7684 138.121 81.7686H183.99C190.617 81.7688 195.99 87.1413 195.99 93.7686V139H141.5C130.178 139 121 148.178 121 159.5C121 170.822 130.178 180 141.5 180H195.99V232.227C195.99 242.88 187.353 251.516 176.7 251.516H24.9557C14.3027 251.515 5.6668 242.88 5.66663 232.227V23.8994C5.66685 13.2465 14.3027 4.61058 24.9557 4.61035H106.832Z" fill="white"/>
</svg>
