<svg width="256" height="256" viewBox="0 0 256 256" fill="none" xmlns="http://www.w3.org/2000/svg">
<path d="M150 36.8284C150 35.0466 152.154 34.1543 153.414 35.4142L198.586 80.5858C199.846 81.8457 198.953 84 197.172 84H160C154.477 84 150 79.5228 150 74V36.8284Z" fill="white"/>
<path d="M247.536 157.536C249.488 155.583 249.488 152.417 247.536 150.464L215.716 118.645C213.763 116.692 210.597 116.692 208.645 118.645C206.692 120.597 206.692 123.763 208.645 125.716L236.929 154L208.645 182.284C206.692 184.237 206.692 187.403 208.645 189.355C210.597 191.308 213.763 191.308 215.716 189.355L247.536 157.536ZM202 159H244V149H202V159Z" fill="white"/>
<path fill-rule="evenodd" clip-rule="evenodd" d="M54 47C54 38.7157 60.7157 32 69 32H137C139.761 32 142 34.2386 142 37V77C142 85.2843 148.716 92 157 92H197C199.761 92 202 94.2386 202 97V149H148C145.239 149 143 151.239 143 154C143 156.761 145.239 159 148 159H202V209C202 217.284 195.284 224 187 224H69C60.7157 224 54 217.284 54 209V47Z" fill="white"/>
</svg>
