<svg width="256" height="256" viewBox="0 0 256 256" fill="none" xmlns="http://www.w3.org/2000/svg">
<g clip-path="url(#clip0_195_3)">
<path d="M129 14.6569C129 11.0932 133.309 9.30857 135.828 11.8284L189.172 65.1716C191.691 67.6914 189.907 72 186.343 72H139C133.477 72 129 67.5228 129 62V14.6569Z" fill="white"/>
<rect x="131.5" y="149.5" width="124.5" height="20" rx="10" fill="white"/>
<rect x="210.64" y="110" width="70" height="20" rx="10" transform="rotate(45 210.64 110)" fill="white"/>
<rect x="196.5" y="195" width="70" height="20" rx="10" transform="rotate(-45 196.5 195)" fill="white"/>
<path fill-rule="evenodd" clip-rule="evenodd" d="M5.66663 23.8998C5.66663 13.2465 14.3028 4.61035 24.9561 4.61035H106.832C113.459 4.61035 118.832 9.98294 118.832 16.6104V62.4788C118.832 73.1321 127.468 81.7683 138.121 81.7683H183.99C190.617 81.7683 195.99 87.1409 195.99 93.7683V142H141.5C131.835 142 124 149.835 124 159.5C124 169.165 131.835 177 141.5 177H195.99V232.226C195.99 242.88 187.353 251.516 176.7 251.516H24.9561C14.3028 251.516 5.66663 242.88 5.66663 232.226V23.8998Z" fill="white"/>
</g>
<defs>
<clipPath id="clip0_195_3">
<rect width="256" height="256" fill="white"/>
</clipPath>
</defs>
</svg>
