<svg width="256" height="256" viewBox="0 0 256 256" fill="none" xmlns="http://www.w3.org/2000/svg">
<path fill-rule="evenodd" clip-rule="evenodd" d="M52.2895 5C41.6362 5 33 13.6362 33 24.2895V232.616C33 243.269 41.6362 251.905 52.2895 251.905H204.033C214.687 251.905 223.323 243.269 223.323 232.616V94.1579C223.323 87.5305 217.95 82.1579 211.323 82.1579H165.454C154.801 82.1579 146.165 73.5217 146.165 62.8684V17C146.165 10.3726 140.792 5 134.165 5H52.2895ZM156.333 15.0465C156.333 11.4829 160.642 9.69822 163.162 12.2181L216.505 65.5612C219.025 68.0811 217.24 72.3896 213.677 72.3896H166.333C160.811 72.3896 156.333 67.9125 156.333 62.3896V15.0465ZM115.293 115.207C115.293 108.465 120.758 103 127.5 103C134.242 103 139.707 108.465 139.707 115.207V153.293H177.793C184.535 153.293 190 158.758 190 165.5C190 172.242 184.535 177.707 177.793 177.707H139.707V215.793C139.707 222.535 134.242 228 127.5 228C120.758 228 115.293 222.535 115.293 215.793V177.707H77.207C70.4653 177.707 65 172.242 65 165.5C65 158.758 70.4653 153.293 77.207 153.293H115.293V115.207Z" fill="white"/>
</svg>
