<svg width="256" height="256" viewBox="0 0 256 256" fill="none" xmlns="http://www.w3.org/2000/svg">
<path d="M156.333 15.0465C156.333 11.4829 160.642 9.69822 163.162 12.2181L216.505 65.5612C219.025 68.0811 217.24 72.3896 213.677 72.3896H166.333C160.811 72.3896 156.333 67.9125 156.333 62.3896V15.0465Z" fill="white"/>
<path d="M52.2895 5C41.6362 5 33 13.6362 33 24.2895V232.616C33 243.269 41.6362 251.905 52.2895 251.905H204.033C214.687 251.905 223.323 243.269 223.323 232.616V94.1579C223.323 87.5305 217.95 82.1579 211.323 82.1579H165.454C154.801 82.1579 146.165 73.5217 146.165 62.8684V17C146.165 10.3726 140.792 5 134.165 5H52.2895Z" fill="white"/>
</svg>
