<svg width="256" height="256" viewBox="0 0 256 256" fill="none" xmlns="http://www.w3.org/2000/svg">
<rect x="29" y="3" width="30" height="250" rx="15" fill="white"/>
<path d="M59 25L72.3602 21.5298C88.8465 17.2477 106.153 17.2477 122.64 21.5298L136 25L149.36 28.4702C165.847 32.7523 183.153 32.7523 199.64 28.4702L200.486 28.2504C206.819 26.6054 213 31.3857 213 37.9292V143.266C213 147.82 209.922 151.799 205.514 152.944L199.64 154.47C183.153 158.752 165.847 158.752 149.36 154.47L136 151L122.64 147.53C106.153 143.248 88.8465 143.248 72.3602 147.53L59 151V25Z" fill="white"/>
</svg>
