<svg width="256" height="256" viewBox="0 0 256 256" fill="none" xmlns="http://www.w3.org/2000/svg">
<path d="M81.5864 138L92.1352 144.012C104.597 151.115 119.556 152.362 133.022 147.421C143.453 143.593 154.879 143.448 165.404 147.009L187.765 154.575L231 240H25L81.5864 138Z" fill="white"/>
<path d="M97.3333 16H161.222V111.556C161.222 113.022 161.625 114.461 162.388 115.714L230.603 227.842C233.847 233.173 230.009 240 223.769 240H32.4783C26.1855 240 22.3564 233.07 25.7054 227.742L96.1063 115.75C96.908 114.475 97.3333 112.999 97.3333 111.492V16Z" stroke="white" stroke-width="22"/>
<path d="M77 16H179" stroke="white" stroke-width="22" stroke-linecap="round"/>
</svg>
