<svg width="256" height="256" viewBox="0 0 256 256" fill="none" xmlns="http://www.w3.org/2000/svg">
<path d="M46.8828 134.028C23.4537 134.028 16.2577 165.778 37.3974 175.879L200.515 253.821C215.116 260.798 232 250.153 232 233.971L232 156.028L231.993 155.461C231.697 143.762 222.266 134.332 210.567 134.035L210 134.028L46.8828 134.028ZM37.3974 80.1191C16.2577 90.2203 23.4528 121.969 46.8818 121.969L210 121.969C222.15 121.968 231.999 112.119 231.999 99.9687L231.999 22.0264C231.999 5.84366 215.116 -4.80028 200.515 2.17675L37.3974 80.1191ZM44.9765 157.032C44.8928 156.842 44.7642 156.325 44.9316 155.586C45.0991 154.847 45.4381 154.437 45.5957 154.301C45.6578 154.247 45.721 154.207 45.8261 154.168C45.9254 154.131 46.2433 154.028 46.8828 154.028L210 154.028C211.104 154.029 212 154.924 212 156.028L212 233.971C212 234.467 211.888 234.751 211.775 234.947C211.638 235.188 211.403 235.451 211.066 235.663C210.73 235.875 210.391 235.973 210.115 235.993C209.889 236.01 209.585 235.989 209.138 235.775L46.0205 157.833C45.4425 157.557 45.2002 157.328 45.1269 157.252C45.0486 157.171 45.0096 157.107 44.9765 157.032Z" fill="white"/>
</svg>
