<svg width="256" height="256" viewBox="0 0 256 256" fill="none" xmlns="http://www.w3.org/2000/svg">
<path d="M80.1191 36.5463C90.2204 15.4068 121.969 22.6026 121.969 46.0316V209.149C121.969 221.299 112.119 231.149 99.9688 231.149H22.0264C5.84366 231.149 -4.80027 214.265 2.17676 199.663L80.1191 36.5463ZM134.028 46.0316C134.029 22.6028 165.778 15.407 175.879 36.5463L253.821 199.663C260.798 214.265 250.154 231.149 233.971 231.149H156.028L155.461 231.142C143.762 230.846 134.331 221.416 134.035 209.716L134.028 209.149V46.0316ZM157.032 44.1254C156.841 44.0417 156.324 43.9131 155.586 44.0805C154.847 44.248 154.437 44.5869 154.301 44.7445C154.247 44.8067 154.207 44.8697 154.168 44.975C154.131 45.0738 154.028 45.3913 154.028 46.0316V209.149C154.028 210.253 154.924 211.149 156.028 211.149H233.971C234.467 211.149 234.751 211.037 234.947 210.924C235.188 210.787 235.451 210.552 235.663 210.215C235.875 209.878 235.973 209.54 235.993 209.264C236.01 209.038 235.989 208.734 235.775 208.287L157.833 45.1693C157.557 44.5917 157.328 44.3491 157.252 44.2758C157.171 44.1977 157.107 44.1584 157.032 44.1254Z" fill="white"/>
</svg>
