<svg width="256" height="256" viewBox="0 0 256 256" fill="none" xmlns="http://www.w3.org/2000/svg">
<g clip-path="url(#clip0_394_8)">
<rect x="125" y="10" width="32" height="70" rx="8" fill="white"/>
<path fill-rule="evenodd" clip-rule="evenodd" d="M20 0C8.95431 0 0 8.95431 0 20V236C0 247.046 8.95431 256 20 256H236C247.046 256 256 247.046 256 236V128V72.2843C256 66.9799 253.893 61.8929 250.142 58.1421L197.858 5.85786C194.107 2.10714 189.02 0 183.716 0H180C174.477 0 170 4.47715 170 10V80C170 85.5229 165.523 90 160 90H65C59.4772 90 55 85.5229 55 80V20C55 8.95431 46.0457 0 35 0H20ZM62 160C50.9543 160 42 168.954 42 180V215C42 226.046 50.9543 235 62 235H194C205.046 235 214 226.046 214 215V180C214 168.954 205.046 160 194 160H62Z" fill="white"/>
</g>
<defs>
<clipPath id="clip0_394_8">
<rect width="256" height="256" fill="white"/>
</clipPath>
</defs>
</svg>
