<svg width="256" height="256" viewBox="0 0 256 256" fill="none" xmlns="http://www.w3.org/2000/svg">
<path fill-rule="evenodd" clip-rule="evenodd" d="M20 19C8.95431 19 0 27.9543 0 39V217C0 228.046 8.95431 237 20 237H236C247.046 237 256 228.046 256 217V65C256 53.9543 247.046 45 236 45H140.515C135.075 45 129.869 42.7837 126.098 38.8622L112.902 25.1378C109.131 21.2163 103.925 19 98.4851 19H20ZM67.6484 125.352C59.5583 125.352 53 131.91 53 140C53 148.09 59.5583 154.648 67.6484 154.648H188.352C196.442 154.648 203 148.09 203 140C203 131.91 196.442 125.352 188.352 125.352H67.6484Z" fill="white"/>
</svg>
