<svg width="256" height="256" viewBox="0 0 256 256" fill="none" xmlns="http://www.w3.org/2000/svg">
<path fill-rule="evenodd" clip-rule="evenodd" d="M20 19C8.95431 19 0 27.9543 0 39V217C0 228.046 8.95431 237 20 237H236C247.046 237 256 228.046 256 217V65C256 53.9543 247.046 45 236 45H140.515C135.075 45 129.869 42.7837 126.098 38.8622L112.902 25.1378C109.131 21.2163 103.925 19 98.4851 19H20ZM113.352 79.6484C113.352 71.5583 119.91 65 128 65C136.09 65 142.648 71.5583 142.648 79.6484V125.352H188.352C196.442 125.352 203 131.91 203 140C203 148.09 196.442 154.648 188.352 154.648H142.648V200.352C142.648 208.442 136.09 215 128 215C119.91 215 113.352 208.442 113.352 200.352V154.648H67.6484C59.5583 154.648 53 148.09 53 140C53 131.91 59.5583 125.352 67.6484 125.352H113.352V79.6484Z" fill="white"/>
</svg>
