<svg width="256" height="256" viewBox="0 0 256 256" fill="none" xmlns="http://www.w3.org/2000/svg">
<path fill-rule="evenodd" clip-rule="evenodd" d="M63 11C57.4772 11 53 15.4771 53 21V53H21C15.4772 53 11 57.4771 11 63V72C11 77.5228 15.4771 82 21 82H53V173H21C15.4772 173 11 177.477 11 183V192C11 197.523 15.4771 202 21 202H53V234C53 239.523 57.4772 244 63 244H72C77.5229 244 82 239.523 82 234V202L173 202V234C173 239.523 177.477 244 183 244H192C197.523 244 202 239.523 202 234V202H234C239.523 202 244 197.523 244 192V183C244 177.477 239.523 173 234 173H202V82H234C239.523 82 244 77.5229 244 72V63C244 57.4772 239.523 53 234 53H202V21C202 15.4772 197.523 11 192 11H183C177.477 11 173 15.4771 173 21V53L82 53V21C82 15.4772 77.5229 11 72 11H63ZM173 173V82L82 82V173L173 173Z" fill="white"/>
</svg>
