<svg width="256" height="256" viewBox="0 0 256 256" fill="none" xmlns="http://www.w3.org/2000/svg">
<path d="M256 91C256 93.7614 253.761 96 251 96H165C162.239 96 160 93.7614 160 91V5C160 2.23857 162.239 0 165 0H203C205.761 0 208 2.23858 208 5V43C208 45.7614 210.239 48 213 48H251C253.761 48 256 50.2386 256 53V91Z" fill="white"/>
<path d="M96 91C96 93.7614 93.7614 96 91 96H5C2.23857 96 0 93.7614 0 91V53C0 50.2386 2.23858 48 5 48H43C45.7614 48 48 45.7614 48 43V5C48 2.23858 50.2386 0 53 0H91C93.7614 0 96 2.23858 96 5V91Z" fill="white"/>
<path d="M213 208C210.239 208 208 210.239 208 213V251C208 253.761 205.761 256 203 256H165C162.239 256 160 253.761 160 251V165C160 162.239 162.239 160 165 160H251C253.761 160 256 162.239 256 165V203C256 205.761 253.761 208 251 208H213Z" fill="white"/>
<path d="M96 251C96 253.761 93.7614 256 91 256H53C50.2386 256 48 253.761 48 251V213C48 210.239 45.7614 208 43 208H5C2.23858 208 0 205.761 0 203V165C0 162.239 2.23858 160 5 160H91C93.7614 160 96 162.239 96 165V251Z" fill="white"/>
</svg>
