<svg width="256" height="256" viewBox="0 0 256 256" fill="none" xmlns="http://www.w3.org/2000/svg">
<path d="M160 5C160 2.23858 162.239 0 165 0H251C253.761 0 256 2.23858 256 5V91C256 93.7614 253.761 96 251 96H213C210.239 96 208 93.7614 208 91V53C208 50.2386 205.761 48 203 48H165C162.239 48 160 45.7614 160 43V5Z" fill="white"/>
<path d="M0 5C0 2.23857 2.23858 0 5 0H91C93.7614 0 96 2.23858 96 5V43C96 45.7614 93.7614 48 91 48H53C50.2386 48 48 50.2386 48 53V91C48 93.7614 45.7614 96 43 96H5C2.23858 96 0 93.7614 0 91V5Z" fill="white"/>
<path d="M203 208C205.761 208 208 205.761 208 203V165C208 162.239 210.239 160 213 160H251C253.761 160 256 162.239 256 165V251C256 253.761 253.761 256 251 256H165C162.239 256 160 253.761 160 251V213C160 210.239 162.239 208 165 208H203Z" fill="white"/>
<path d="M0 165C0 162.239 2.23858 160 5 160H43C45.7614 160 48 162.239 48 165V203C48 205.761 50.2386 208 53 208H91C93.7614 208 96 210.239 96 213V251C96 253.761 93.7614 256 91 256H5C2.23857 256 0 253.761 0 251V165Z" fill="white"/>
</svg>
