<svg width="256" height="256" viewBox="0 0 256 256" fill="none" xmlns="http://www.w3.org/2000/svg">
<path d="M72 21L27 21C24.2386 21 22 23.2386 22 26L22 71C22 73.7614 24.2386 76 27 76C28.0292 76 28.9858 75.689 29.7809 75.1559L29.7908 75.556L49.6379 55.709L113.974 120.045C115.927 121.998 119.093 121.998 121.045 120.045C122.998 118.093 122.998 114.927 121.045 112.974L56.709 48.6379L77.5559 27.791L76.678 27.7692C76.8861 27.2192 77 26.6229 77 26C77 23.2386 74.7614 21 72 21Z" fill="white"/>
<path d="M230.019 21L185.019 21C182.258 21 180.019 23.2386 180.019 26C180.019 27.025 180.328 27.978 180.857 28.7712L180.06 28.7909L200.109 48.8397L135.974 112.974C134.022 114.927 134.022 118.093 135.974 120.045C137.927 121.998 141.093 121.998 143.045 120.045L207.18 55.9107L227.825 76.556L227.851 75.5066C228.507 75.8228 229.242 76 230.019 76C232.781 76 235.019 73.7614 235.019 71L235.019 26C235.019 23.2386 232.781 21 230.019 21Z" fill="white"/>
<path d="M235.269 231.019L235.269 186.019C235.269 183.258 233.03 181.019 230.269 181.019C229.387 181.019 228.559 181.248 227.84 181.648L227.825 181.06L207.603 201.282L143.294 136.974C141.342 135.022 138.176 135.022 136.223 136.974C134.271 138.927 134.271 142.093 136.223 144.045L200.532 208.353L180.06 228.825L180.766 228.843C180.447 229.501 180.269 230.239 180.269 231.019C180.269 233.781 182.507 236.019 185.269 236.019L230.269 236.019C233.03 236.019 235.269 233.781 235.269 231.019Z" fill="white"/>
<path d="M22.2493 231.019L22.2493 186.019C22.2493 183.258 24.4878 181.019 27.2493 181.019C28.1706 181.019 29.0337 181.269 29.7749 181.703L29.7908 181.06L49.9642 201.233L114.223 136.974C116.176 135.022 119.342 135.022 121.294 136.974C123.247 138.927 123.247 142.093 121.294 144.045L57.0352 208.304L77.5559 228.825L76.753 228.845C77.071 229.502 77.2493 230.24 77.2493 231.019C77.2493 233.781 75.0107 236.019 72.2493 236.019L27.2493 236.019C24.4878 236.019 22.2493 233.781 22.2493 231.019Z" fill="white"/>
</svg>
