<svg width="256" height="256" viewBox="0 0 256 256" fill="none" xmlns="http://www.w3.org/2000/svg">
<path d="M186.667 59C224.959 59.0002 256 90.0423 256 128.334C256 166.626 224.959 197.667 186.667 197.667H69.333C31.0415 197.667 9.92446e-05 166.626 0 128.334C0 90.0424 31.0414 59.0002 69.333 59H186.667ZM60.2666 87.8008C55.8486 87.801 52.2667 91.3827 52.2666 95.8008V114.467H33.5996C29.1817 114.467 25.5999 118.049 25.5996 122.467V133.134C25.5996 137.552 29.1815 141.134 33.5996 141.134H52.2666V159.801C52.2666 164.219 55.8485 167.801 60.2666 167.801H70.9326C75.3509 167.801 78.9326 164.219 78.9326 159.801V141.134H97.5996C102.018 141.134 105.6 137.552 105.6 133.134V122.467C105.599 118.049 102.018 114.467 97.5996 114.467H78.9326V95.8008C78.9325 91.3826 75.3508 87.8008 70.9326 87.8008H60.2666ZM171.733 128.334C162.897 128.334 155.734 135.498 155.733 144.334C155.733 153.171 162.897 160.334 171.733 160.334C180.57 160.334 187.733 153.17 187.733 144.334C187.733 135.498 180.57 128.334 171.733 128.334ZM203.733 96.334C194.897 96.334 187.734 103.498 187.733 112.334C187.733 121.171 194.897 128.334 203.733 128.334C212.57 128.334 219.733 121.17 219.733 112.334C219.733 103.498 212.57 96.3341 203.733 96.334Z" fill="white"/>
</svg>
