<svg width="256" height="256" viewBox="0 0 256 256" fill="none" xmlns="http://www.w3.org/2000/svg">
<path fill-rule="evenodd" clip-rule="evenodd" d="M8 128C8 92.1015 37.1015 63 73 63H183C218.899 63 248 92.1015 248 128C248 163.899 218.898 193 183 193H73C37.1015 193 8 163.899 8 128ZM199 128C207.284 128 214 121.284 214 113C214 104.716 207.284 98 199 98C190.716 98 184 104.716 184 113C184 121.284 190.716 128 199 128ZM169 158C177.284 158 184 151.284 184 143C184 134.716 177.284 128 169 128C160.716 128 154 134.716 154 143C154 151.284 160.716 158 169 158ZM57 98C57 93.5817 60.5817 90 65 90H74C78.4183 90 82 93.5817 82 98V115H99C103.418 115 107 118.582 107 123V132C107 136.418 103.418 140 99 140H82V157C82 161.418 78.4183 165 74 165H65C60.5817 165 57 161.418 57 157V140H40C35.5817 140 32 136.418 32 132V123C32 118.582 35.5817 115 40 115H57V98Z" fill="white"/>
</svg>
