<svg width="256" height="256" viewBox="0 0 256 256" fill="none" xmlns="http://www.w3.org/2000/svg">
<path fill-rule="evenodd" clip-rule="evenodd" d="M128.601 218.742C178.384 218.742 218.742 178.385 218.742 128.601C218.742 78.8179 178.384 38.4604 128.601 38.4604C78.8175 38.4604 38.4601 78.8179 38.4601 128.601C38.4601 178.385 78.8175 218.742 128.601 218.742ZM128.601 167.061C149.842 167.061 167.061 149.842 167.061 128.601C167.061 107.36 149.842 90.141 128.601 90.141C107.36 90.141 90.1408 107.36 90.1408 128.601C90.1408 149.842 107.36 167.061 128.601 167.061Z" fill="white"/>
<path d="M101.001 11.0292C101.507 4.79869 106.711 0 112.962 0H143.038C149.289 0 154.493 4.79868 154.999 11.0292L158 48H98L101.001 11.0292Z" fill="white"/>
<path d="M101.001 244.971C101.507 251.201 106.711 256 112.962 256H143.038C149.289 256 154.493 251.201 154.999 244.971L158 208H98L101.001 244.971Z" fill="white"/>
<path d="M244.971 101.001C251.201 101.507 256 106.711 256 112.962L256 143.038C256 149.289 251.201 154.493 244.971 154.999L208 158L208 98L244.971 101.001Z" fill="white"/>
<path d="M11.0292 101.001C4.79869 101.507 -3.80751e-07 106.711 -6.5399e-07 112.962L-1.96869e-06 143.038C-2.24193e-06 149.289 4.79868 154.493 11.0292 154.999L48 158L48 98L11.0292 101.001Z" fill="white"/>
<path d="M192.883 25.8341C197.645 21.7682 204.733 22.0472 209.16 26.4748L229.71 47.0245C234.137 51.4522 234.416 58.5399 230.351 63.3018L205.964 91.8637L164.321 50.2208L192.883 25.8341Z" fill="white"/>
<path d="M26.135 192.008C22.0807 196.771 22.3646 203.849 26.7873 208.272L47.7285 229.213C52.1512 233.636 59.2294 233.92 63.9921 229.865L92.2857 205.78L50.2198 163.715L26.135 192.008Z" fill="white"/>
<path d="M229.879 191.98C233.94 196.742 233.658 203.825 229.233 208.251L208.673 228.811C204.247 233.237 197.164 233.518 192.402 229.457L164.137 205.358L205.78 163.715L229.879 191.98Z" fill="white"/>
<path d="M63.9921 26.1356C59.2293 22.0813 52.1512 22.3652 47.7284 26.7879L26.7874 47.7289C22.3647 52.1517 22.0808 59.2298 26.1351 63.9926L50.22 92.2862L92.2857 50.2205L63.9921 26.1356Z" fill="white"/>
</svg>
