<svg width="256" height="256" viewBox="0 0 256 256" fill="none" xmlns="http://www.w3.org/2000/svg">
<g clip-path="url(#clip0_106_22)">
<path fill-rule="evenodd" clip-rule="evenodd" d="M128.601 218.743C178.384 218.743 218.742 178.385 218.742 128.602C218.742 78.8184 178.384 38.4609 128.601 38.4609C78.8175 38.4609 38.4601 78.8184 38.4601 128.602C38.4601 178.385 78.8175 218.743 128.601 218.743ZM128.601 167.062C149.842 167.062 167.061 149.843 167.061 128.602C167.061 107.361 149.842 90.1415 128.601 90.1415C107.36 90.1415 90.1408 107.361 90.1408 128.602C90.1408 149.843 107.36 167.062 128.601 167.062Z" fill="white"/>
<path d="M101.001 11.0292C101.507 4.79869 106.711 0 112.962 0H143.038C149.289 0 154.493 4.79868 154.999 11.0292L158 48H98L101.001 11.0292Z" fill="white"/>
<path d="M101.001 244.971C101.507 251.201 106.711 256 112.962 256H143.038C149.289 256 154.493 251.201 154.999 244.971L158 208H98L101.001 244.971Z" fill="white"/>
<path d="M244.971 101.001C251.201 101.507 256 106.711 256 112.962L256 143.038C256 149.289 251.201 154.493 244.971 154.999L208 158L208 98L244.971 101.001Z" fill="white"/>
<path d="M11.0292 101.001C4.79869 101.507 -3.80751e-07 106.711 -6.5399e-07 112.962L-1.96869e-06 143.038C-2.24193e-06 149.289 4.79868 154.493 11.0292 154.999L48 158L48 98L11.0292 101.001Z" fill="white"/>
<path d="M192.883 25.8346C197.645 21.7687 204.733 22.0477 209.16 26.4753L229.71 47.025C234.137 51.4526 234.416 58.5404 230.351 63.3023L205.964 91.8642L164.321 50.2213L192.883 25.8346Z" fill="white"/>
<path d="M26.135 192.008C22.0807 196.77 22.3646 203.849 26.7873 208.271L47.7285 229.212C52.1512 233.635 59.2294 233.919 63.9921 229.865L92.2857 205.78L50.2198 163.714L26.135 192.008Z" fill="white"/>
<path d="M229.879 191.979C233.94 196.742 233.658 203.825 229.233 208.25L208.673 228.811C204.247 233.236 197.164 233.517 192.402 229.457L164.137 205.358L205.78 163.715L229.879 191.979Z" fill="white"/>
<path d="M63.9921 26.1356C59.2293 22.0813 52.1512 22.3652 47.7284 26.7879L26.7874 47.7289C22.3647 52.1517 22.0808 59.2298 26.1351 63.9926L50.22 92.2862L92.2857 50.2205L63.9921 26.1356Z" fill="white"/>
</g>
<defs>
<clipPath id="clip0_106_22">
<rect width="256" height="256" fill="white"/>
</clipPath>
</defs>
</svg>
