<svg width="256" height="256" viewBox="0 0 256 256" fill="none" xmlns="http://www.w3.org/2000/svg">
<path fill-rule="evenodd" clip-rule="evenodd" d="M20 20C8.95431 20 0 28.9543 0 40V215C0 226.046 8.95431 235 20 235H236C247.046 235 256 226.046 256 215V40C256 28.9543 247.046 20 236 20H20ZM79.3749 174.3C69.2349 174.3 60.6549 172.393 53.6349 168.58C46.7016 164.767 41.4149 159.35 37.7749 152.33C34.1349 145.31 32.3149 136.99 32.3149 127.37C32.3149 120.09 33.3549 113.547 35.4349 107.74C37.6016 101.933 40.6783 96.9933 44.6649 92.92C48.7383 88.76 53.6783 85.5967 59.4849 83.43C65.2916 81.1767 71.8783 80.05 79.2449 80.05C84.0983 80.05 88.9516 80.6567 93.8049 81.87C98.7449 82.9967 103.382 84.9467 107.715 87.72C109.188 88.6733 110.142 89.8433 110.575 91.23C111.095 92.6167 111.182 94.0467 110.835 95.52C110.488 96.9067 109.838 98.12 108.885 99.16C107.932 100.2 106.718 100.85 105.245 101.11C103.858 101.37 102.298 101.023 100.565 100.07C97.2716 98.1633 93.9349 96.7767 90.5549 95.91C87.1749 95.0433 83.4049 94.61 79.2449 94.61C72.8316 94.61 67.4149 95.91 62.9949 98.51C58.5749 101.023 55.2383 104.707 52.9849 109.56C50.8183 114.413 49.7349 120.35 49.7349 127.37C49.7349 138.03 52.2916 146.133 57.4049 151.68C62.5183 157.227 70.1016 160 80.1549 160C83.6216 160 87.1316 159.653 90.6849 158.96C93.1086 158.487 95.4919 157.893 97.8349 157.178V135.82H83.5349C81.3683 135.82 79.6783 135.257 78.4649 134.13C77.3383 133.003 76.7749 131.487 76.7749 129.58C76.7749 127.587 77.3383 126.07 78.4649 125.03C79.6783 123.99 81.3683 123.47 83.5349 123.47H104.985C107.152 123.47 108.798 124.077 109.925 125.29C111.138 126.417 111.745 128.063 111.745 130.23V161.82C111.745 163.727 111.355 165.33 110.575 166.63C109.882 167.93 108.712 168.883 107.065 169.49C103.252 170.877 98.8749 172.047 93.9349 173C88.9949 173.867 84.1416 174.3 79.3749 174.3ZM139.348 174.04C136.661 174.04 134.581 173.303 133.108 171.83C131.721 170.27 131.028 168.147 131.028 165.46V88.89C131.028 86.1167 131.721 83.9933 133.108 82.52C134.581 81.0467 136.661 80.31 139.348 80.31C142.034 80.31 144.071 81.0467 145.458 82.52C146.931 83.9933 147.668 86.1167 147.668 88.89V165.46C147.668 168.147 146.974 170.27 145.588 171.83C144.201 173.303 142.121 174.04 139.348 174.04ZM169.927 171.83C171.487 173.303 173.61 174.04 176.297 174.04C181.67 174.04 184.357 171.093 184.357 165.2V133.74H219.197C221.364 133.74 223.01 133.177 224.137 132.05C225.35 130.837 225.957 129.147 225.957 126.98C225.957 124.9 225.35 123.297 224.137 122.17C223.01 121.043 221.364 120.48 219.197 120.48H184.357V94.61H221.927C224.18 94.61 225.87 94.0467 226.997 92.92C228.124 91.7067 228.687 90.0167 228.687 87.85C228.687 85.77 228.124 84.1667 226.997 83.04C225.87 81.9133 224.18 81.35 221.927 81.35H176.557C173.697 81.35 171.487 82.13 169.927 83.69C168.454 85.1633 167.717 87.33 167.717 90.19V165.2C167.717 168.06 168.454 170.27 169.927 171.83Z" fill="white"/>
</svg>
