<svg width="256" height="256" viewBox="0 0 256 256" fill="none" xmlns="http://www.w3.org/2000/svg">
<path d="M236 20C247.046 20 256 28.9543 256 40V215C256 226.046 247.046 235 236 235H20C8.95431 235 0 226.046 0 215V40C0 28.9543 8.95431 20 20 20H236ZM67.1631 75C60.3001 75 53.8888 76.1753 47.9297 78.5264C42.004 80.8774 36.7813 84.3375 32.2617 88.9053C27.7758 93.473 24.2774 99.0481 21.7666 105.631C19.2557 112.18 18 119.687 18 128.151C18 139.033 20.0753 148.438 24.2266 156.364C28.3779 164.257 34.1704 170.336 41.6025 174.602C49.0346 178.867 57.6549 181 67.4639 181C76.3021 181 84.1199 179.237 90.916 175.71C97.7454 172.183 103.102 167.129 106.985 160.546C110.902 153.963 112.86 146.053 112.86 136.816V126.163C112.86 124.506 111.517 123.163 109.86 123.163H71.5186C69.8619 123.163 68.5188 124.506 68.5186 126.163V138.351C68.5186 140.007 69.8618 141.35 71.5186 141.351H88.8994C88.8217 144.847 88.0048 147.903 86.4463 150.52C84.8059 153.274 82.3953 155.407 79.2148 156.918C76.0679 158.396 72.218 159.135 67.665 159.135C62.5094 159.135 58.1235 157.909 54.5078 155.457C50.8923 153.005 48.1309 149.445 46.2227 144.776C44.3144 140.108 43.3594 134.465 43.3594 127.849C43.3594 121.266 44.3471 115.674 46.3223 111.072C48.2975 106.437 51.0933 102.91 54.709 100.492C58.3581 98.074 62.6768 96.8652 67.665 96.8652C70.1424 96.8652 72.4195 97.1669 74.4951 97.7715C76.5705 98.3424 78.4117 99.199 80.0186 100.341C81.6254 101.483 82.9812 102.877 84.0859 104.522C84.9283 105.752 85.6155 107.128 86.1465 108.65C86.4445 109.504 87.2257 110.115 88.1299 110.115H109.508C110.705 110.115 111.638 109.07 111.432 107.891C110.683 103.607 109.251 99.6292 107.136 95.958C104.658 91.6591 101.428 87.9477 97.4443 84.8242C93.494 81.7007 88.9407 79.2823 83.7852 77.5693C78.663 75.8564 73.1221 75 67.1631 75ZM130.512 76.4111C128.855 76.4111 127.512 77.7543 127.512 79.4111V176.589C127.512 178.246 128.855 179.589 130.512 179.589H149.369C151.026 179.589 152.369 178.246 152.369 176.59V79.4111C152.369 77.7543 151.026 76.4111 149.369 76.4111H130.512ZM169.796 76.4111C168.139 76.4112 166.796 77.7543 166.796 79.4111V176.589C166.796 178.246 168.139 179.589 169.796 179.589H188.653C190.31 179.589 191.653 178.246 191.653 176.589V140.126C191.654 139.022 192.549 138.126 193.653 138.126H229.53C231.187 138.126 232.53 136.783 232.53 135.126V120.823C232.53 119.166 231.187 117.823 229.53 117.823H193.653C192.549 117.823 191.653 116.928 191.653 115.823V98.6631C191.654 97.5588 192.549 96.6633 193.653 96.6631H234C235.657 96.6631 237 95.3199 237 93.6631V79.4111C237 77.7543 235.657 76.4111 234 76.4111H169.796Z" fill="white"/>
</svg>
