<svg width="256" height="256" viewBox="0 0 256 256" fill="none" xmlns="http://www.w3.org/2000/svg">
<path d="M60.1084 134.919C68.9448 134.919 76.1084 142.082 76.1084 150.919V195.027C76.1082 203.864 68.9447 211.027 60.1084 211.027H16C7.16355 211.027 0.000169442 203.864 0 195.027V150.919C0 142.082 7.16344 134.919 16 134.919H60.1084ZM150.054 134.919C158.89 134.919 166.054 142.082 166.054 150.919V195.027C166.054 203.864 158.89 211.027 150.054 211.027H105.946C97.1098 211.027 89.9465 203.864 89.9463 195.027V150.919C89.9463 142.082 97.1097 134.919 105.946 134.919H150.054ZM240 134.919C248.837 134.919 256 142.082 256 150.919V195.027C256 203.864 248.836 211.027 240 211.027H195.892C187.055 211.027 179.892 203.864 179.892 195.027V150.919C179.892 142.082 187.055 134.919 195.892 134.919H240ZM60.1084 44.9727C68.9447 44.9728 76.1082 52.1363 76.1084 60.9727V105.081C76.1084 113.918 68.9448 121.081 60.1084 121.081H16C7.16344 121.081 0 113.918 0 105.081V60.9727C0.00016543 52.1362 7.16355 44.9727 16 44.9727H60.1084ZM150.054 44.9727C158.89 44.9727 166.054 52.1362 166.054 60.9727V105.081C166.054 113.918 158.89 121.081 150.054 121.081H105.946C97.1097 121.081 89.9463 113.918 89.9463 105.081V60.9727C89.9465 52.1362 97.1098 44.9727 105.946 44.9727H150.054ZM240 44.9727C248.836 44.9727 256 52.1362 256 60.9727V105.081C256 113.918 248.837 121.081 240 121.081H195.892C187.055 121.081 179.892 113.918 179.892 105.081V60.9727C179.892 52.1363 187.055 44.9728 195.892 44.9727H240Z" fill="white"/>
</svg>
