<svg width="256" height="256" viewBox="0 0 256 256" fill="none" xmlns="http://www.w3.org/2000/svg">
<path d="M231.001 39.999C244.808 39.9993 256.001 51.193 256.001 65V191.775C256.001 205.582 244.808 216.775 231.001 216.775H25C11.1931 216.775 0 205.582 0 191.775V65C0 51.193 11.1931 39.9992 25 39.999H231.001ZM20 191.775C20 194.537 22.2387 196.775 25 196.775H78.3594V138.388H20V191.775ZM98.3594 196.775H157.641V138.388H98.3594V196.775ZM177.642 196.775H231.001C233.762 196.775 236.001 194.537 236.001 191.775V138.388H177.642V196.775ZM25 60C22.2387 60.0002 20 62.2387 20 65V118.388H78.3594V60H25ZM98.3594 118.388H157.641V60H98.3594V118.388ZM177.642 118.388H236.001V65C236.001 62.2387 233.762 60.0002 231.001 60H177.642V118.388Z" fill="white"/>
</svg>
