<svg width="256" height="256" viewBox="0 0 256 256" fill="none" xmlns="http://www.w3.org/2000/svg">
<path fill-rule="evenodd" clip-rule="evenodd" d="M37 56C25.9543 56 17 64.9543 17 76V102C17 113.046 25.9543 122 37 122H63C74.0457 122 83 113.046 83 102V76C83 64.9543 74.0457 56 63 56H37ZM115 56C103.954 56 95 64.9543 95 76V102C95 113.046 103.954 122 115 122H141C152.046 122 161 113.046 161 102V76C161 64.9543 152.046 56 141 56H115ZM173 76C173 64.9543 181.954 56 193 56H219C230.046 56 239 64.9543 239 76V102C239 113.046 230.046 122 219 122H193C181.954 122 173 113.046 173 102V76ZM37 134C25.9543 134 17 142.954 17 154V180C17 191.046 25.9543 200 37 200H63C74.0457 200 83 191.046 83 180V154C83 142.954 74.0457 134 63 134H37ZM95 154C95 142.954 103.954 134 115 134H141C152.046 134 161 142.954 161 154V180C161 191.046 152.046 200 141 200H115C103.954 200 95 191.046 95 180V154ZM193 134C181.954 134 173 142.954 173 154V180C173 191.046 181.954 200 193 200H219C230.046 200 239 191.046 239 180V154C239 142.954 230.046 134 219 134H193Z" fill="white"/>
</svg>
