<svg width="256" height="256" viewBox="0 0 256 256" fill="none" xmlns="http://www.w3.org/2000/svg">
<path fill-rule="evenodd" clip-rule="evenodd" d="M49 52C35.7452 52 25 62.7452 25 76V118V122V126V168C25 181.255 35.7452 192 49 192H91H95H99H157H161H165H207C220.255 192 231 181.255 231 168V126V122V118V76C231 62.7452 220.255 52 207 52H165H161H157H99H95H91H49ZM223 118V76C223 67.1634 215.837 60 207 60H165V118H223ZM157 118V60H99V118H157ZM223 126H165V184H207C215.837 184 223 176.837 223 168V126ZM157 184V126H99V184H157ZM91 126V184H49C40.1634 184 33 176.837 33 168V126H91ZM33 118H91V60H49C40.1634 60 33 67.1634 33 76V118Z" fill="white"/>
</svg>
