<svg width="256" height="256" viewBox="0 0 256 256" fill="none" xmlns="http://www.w3.org/2000/svg">
<path d="M8 55C8 41.1929 19.1929 30 33 30H223C236.807 30 248 41.1929 248 55V123.6C248 124.001 247.475 124.15 247.264 123.809C244.384 119.145 239.704 115.878 234.333 114.782L233.833 114.68C231.617 114.228 229.36 114 227.098 114H30.6335C28.2167 114 25.8053 114.23 23.4319 114.686L22.8355 114.801C17.1667 115.891 12.1404 119.134 8.81135 123.851C8.5601 124.207 8 124.029 8 123.593V55Z" fill="white"/>
<path fill-rule="evenodd" clip-rule="evenodd" d="M8 143.601C8 132.555 16.9543 123.601 28 123.601H228C239.046 123.601 248 132.555 248 143.601V188.934C248 199.98 239.046 208.934 228 208.934H28C16.9543 208.934 8 199.98 8 188.934V143.601ZM227.733 166.267C227.733 175.104 220.57 182.267 211.733 182.267C202.897 182.267 195.733 175.104 195.733 166.267C195.733 157.431 202.897 150.267 211.733 150.267C220.57 150.267 227.733 157.431 227.733 166.267ZM166.933 182.267C175.77 182.267 182.933 175.104 182.933 166.267C182.933 157.431 175.77 150.267 166.933 150.267C158.097 150.267 150.933 157.431 150.933 166.267C150.933 175.104 158.097 182.267 166.933 182.267Z" fill="white"/>
</svg>
