<svg width="256" height="256" viewBox="0 0 256 256" fill="none" xmlns="http://www.w3.org/2000/svg">
<g clip-path="url(#clip0_14_62)">
<path fill-rule="evenodd" clip-rule="evenodd" d="M80 0C71.1634 0 64 7.16344 64 16V64.0123H17.0878C8.25121 64.0123 1.08777 71.1758 1.08777 80.0123C1.08777 88.8489 8.25121 96.0123 17.0878 96.0123H64V159.988H14.9122C6.07568 159.988 -1.08777 167.151 -1.08777 175.988C-1.08777 184.824 6.07568 191.988 14.9122 191.988H64V240C64 248.837 71.1634 256 80 256C88.8366 256 96 248.837 96 240V191.988H160V240C160 248.837 167.163 256 176 256C184.837 256 192 248.837 192 240V191.988H238.912C247.749 191.988 254.912 184.824 254.912 175.988C254.912 167.151 247.749 159.988 238.912 159.988H192V96.0123H241.088C249.924 96.0123 257.088 88.8489 257.088 80.0123C257.088 71.1758 249.924 64.0123 241.088 64.0123H192V16C192 7.16344 184.837 0 176 0C167.163 0 160 7.16344 160 16V64.0123H96V16C96 7.16344 88.8366 0 80 0ZM160 159.988V96.0123H96V159.988H160Z" fill="white"/>
</g>
<defs>
<clipPath id="clip0_14_62">
<rect width="256" height="256" fill="white"/>
</clipPath>
</defs>
</svg>
