<svg width="256" height="256" viewBox="0 0 256 256" fill="none" xmlns="http://www.w3.org/2000/svg">
<path d="M175.596 0C184.358 3.24705e-05 191.461 7.10316 191.461 15.8652V64.0127H240C248.837 64.0127 256 71.1761 256 80.0127C256 88.8491 248.836 96.0127 240 96.0127H191.461V159.987H237.843C246.679 159.987 253.843 167.151 253.843 175.987C253.843 184.824 246.679 191.987 237.843 191.987H191.461V240.135C191.461 248.897 184.358 256 175.596 256C166.834 256 159.73 248.897 159.73 240.135V191.987H96.2695V240.135C96.2695 248.897 89.1664 256 80.4043 256C71.6423 256 64.5391 248.897 64.5391 240.135V191.987H16C7.16344 191.987 0 184.824 0 175.987C0.000197912 167.151 7.16357 159.987 16 159.987H64.5391V96.0127H18.1572C9.32079 96.0127 2.15742 88.8491 2.15723 80.0127C2.15723 71.1761 9.32067 64.0127 18.1572 64.0127H64.5391V15.8652C64.5391 7.1032 71.6423 9.5349e-05 80.4043 0C89.1664 0 96.2695 7.10314 96.2695 15.8652V64.0127H159.73V15.8652C159.73 7.10314 166.834 0 175.596 0ZM96.2695 159.987H159.73V96.0127H96.2695V159.987Z" fill="white"/>
</svg>
