<svg width="256" height="256" viewBox="0 0 256 256" fill="none" xmlns="http://www.w3.org/2000/svg">
<path d="M56.2062 12.7234C64.5706 11.5823 73.0658 11.8264 81.3509 13.4459L85.5067 14.2583C87.5676 14.6611 89.584 15.2659 91.5265 16.0637L95.8195 17.8268C104.084 21.2212 111.486 26.4183 117.485 33.0389L126.518 43.0067C127.312 43.8827 128.688 43.8827 129.482 43.0067L138.515 33.0389C144.514 26.4184 151.916 21.2212 160.181 17.8268L164.45 16.0735C166.408 15.2691 168.441 14.6595 170.519 14.2533L174.602 13.4551C182.919 11.8292 191.446 11.571 199.846 12.6905C220.575 15.4531 238.436 28.6616 247.148 47.6726L249.301 52.3692C250.405 54.7794 251.28 57.2885 251.913 59.863L254.023 68.4434C255.078 72.7298 255.655 77.1193 255.747 81.5324L255.812 84.6972C255.937 90.7263 255.152 96.7398 253.483 102.535L252.04 107.55C250.985 111.213 249.584 114.767 247.856 118.164L240.651 132.321L227.123 151.586L210.402 170.85L132.013 241.389C129.732 243.442 126.268 243.442 123.987 241.389L45.5983 170.85L28.8769 151.586L15.3486 132.321L8.14434 118.164C6.41577 114.767 5.0148 111.213 3.96044 107.55L2.63617 102.95C0.889668 96.8831 0.111675 90.5784 0.330904 84.2688L0.42695 81.5045C0.579642 77.1099 1.21498 72.7453 2.32151 68.4895L4.55664 59.8931C5.23128 57.2984 6.14672 54.7724 7.29105 52.3479L10.0029 46.6023C18.6795 28.2191 36.0648 15.4712 56.2062 12.7234Z" fill="white"/>
</svg>
