<svg width="256" height="256" viewBox="0 0 256 256" fill="none" xmlns="http://www.w3.org/2000/svg">
<path fill-rule="evenodd" clip-rule="evenodd" d="M128.5 203.999C170.75 203.999 205 169.749 205 127.5C205 85.2497 170.75 50.9995 128.5 50.9995C103.557 50.9995 81.4017 62.9372 67.4365 81.4109C64.1081 85.8139 58.0571 87.5446 53.2563 84.8212L51.5135 83.8326C46.7068 81.1058 44.9836 74.9612 48.1875 70.4584C66.0409 45.3665 95.3591 28.9995 128.5 28.9995C182.9 28.9995 227 73.0995 227 127.5C227 181.9 182.9 225.999 128.5 225.999C94.3814 226 64.3143 208.653 46.6375 182.297L34.7112 188.374C33.234 189.127 31.535 187.858 31.8366 186.228L40.3158 140.391C40.5551 139.098 41.9568 138.383 43.144 138.95L85.2108 159.033C86.7069 159.747 86.7343 161.867 85.2571 162.62L66.423 172.216C80.3158 191.469 102.945 203.999 128.5 203.999ZM116 130.178C116 134.113 118.066 137.565 121.172 139.509C121.752 139.952 122.384 140.343 123.066 140.673L154.363 155.817C159.832 158.463 166.41 156.175 169.056 150.706C171.702 145.238 169.414 138.659 163.946 136.013L138 123.459V78C138 71.9248 133.075 67 127 67C120.925 67 116 71.9248 116 78V130.178Z" fill="white"/>
</svg>
