<svg width="256" height="256" viewBox="0 0 256 256" fill="none" xmlns="http://www.w3.org/2000/svg">
<path d="M96.0093 14.4544C76.1159 20.8223 58.3362 32.245 44.3372 47.472C37.62 54.7785 39.8811 66.0623 48.1092 71.6124C56.3377 77.1622 67.3981 74.8081 74.5711 67.9483C83.7126 59.206 94.7726 52.5896 106.967 48.6861C124.908 42.9433 144.259 43.4081 161.904 50.0053C179.549 56.6027 194.459 68.9483 204.232 85.0532C214.004 101.158 218.07 120.084 215.775 138.781C213.479 157.478 204.955 174.858 191.577 188.12C178.199 201.383 160.746 209.754 142.029 211.887C123.313 214.019 104.424 209.788 88.4049 199.875C81.2578 195.452 74.8681 190.013 69.4102 183.773L90.7589 176.002C95.2414 174.371 95.7195 168.221 91.5429 165.916L36.1411 135.344C33.1926 133.717 29.4858 135.066 28.273 138.208L5.48489 197.239C3.76694 201.689 8.08563 206.093 12.568 204.462L33.9726 196.671C43.298 210.166 55.359 221.693 69.4922 230.439C92.3758 244.6 119.36 250.644 146.098 247.598C172.836 244.552 197.77 232.593 216.882 213.647C235.993 194.701 248.169 169.872 251.449 143.161C254.728 116.451 248.919 89.4136 234.959 66.4068C220.998 43.4 199.698 25.7636 174.491 16.3389C149.285 6.91412 121.639 6.25028 96.0093 14.4544Z" fill="white"/>
<path d="M132 69.26C138.075 69.26 143 74.185 143 80.26V141.095L178.802 158.419C184.271 161.065 186.559 167.644 183.913 173.113C181.266 178.581 174.688 180.869 169.22 178.223L127.531 158.05C126.737 157.697 125.993 157.253 125.312 156.731C125.301 156.722 125.291 156.714 125.28 156.705C125.154 156.608 125.031 156.51 124.91 156.407C124.867 156.372 124.826 156.334 124.785 156.298C124.703 156.227 124.622 156.156 124.542 156.083C124.471 156.017 124.4 155.95 124.33 155.882C124.277 155.83 124.223 155.778 124.17 155.725C124.096 155.65 124.024 155.572 123.953 155.495C123.901 155.44 123.849 155.386 123.799 155.329C123.733 155.255 123.667 155.179 123.603 155.103C123.556 155.047 123.509 154.991 123.462 154.934C123.396 154.852 123.33 154.769 123.266 154.685C123.221 154.627 123.177 154.568 123.133 154.509C123.074 154.428 123.016 154.346 122.959 154.264C122.915 154.199 122.87 154.134 122.827 154.069C122.775 153.991 122.725 153.913 122.676 153.834C122.63 153.76 122.584 153.687 122.539 153.612C122.494 153.534 122.45 153.456 122.406 153.377C122.363 153.302 122.321 153.227 122.281 153.151C122.241 153.076 122.203 153.001 122.165 152.926C122.12 152.836 122.076 152.744 122.033 152.653C122.005 152.593 121.977 152.534 121.951 152.474C121.906 152.373 121.862 152.272 121.82 152.169C121.788 152.092 121.759 152.014 121.729 151.937C121.7 151.862 121.671 151.786 121.644 151.71C121.605 151.602 121.568 151.493 121.533 151.383C121.515 151.327 121.496 151.271 121.479 151.215C121.437 151.078 121.398 150.94 121.362 150.802C121.355 150.778 121.348 150.754 121.342 150.73C121.082 149.721 120.966 148.675 121 147.62V80.26C121.001 74.1851 125.925 69.2602 132 69.26Z" fill="white"/>
</svg>
