<svg width="256" height="256" viewBox="0 0 256 256" fill="none" xmlns="http://www.w3.org/2000/svg">
<path fill-rule="evenodd" clip-rule="evenodd" d="M121.146 6.45208C124.996 2.82733 131.004 2.82734 134.854 6.45209L249.072 113.969C255.665 120.175 251.273 131.25 242.217 131.25H229V230C229 243.807 217.807 255 204 255H184C170.193 255 159 243.807 159 230V189H158.812V172.886C158.812 161.84 149.858 152.886 138.812 152.886H116.188C105.143 152.886 96.1882 161.84 96.1882 172.886V189H96V230C96 243.807 84.8072 255 71 255H51C37.1929 255 26 243.807 26 230V131.25H13.7827C4.72724 131.25 0.334788 120.175 6.92846 113.969L121.146 6.45208Z" fill="white"/>
</svg>
