<svg width="256" height="256" viewBox="0 0 256 256" fill="none" xmlns="http://www.w3.org/2000/svg">
<rect x="191" y="82" width="26" height="170" rx="13" fill="white"/>
<rect x="38" y="27" width="30" height="70" rx="15" fill="white"/>
<path d="M121.793 8.91366C125.43 6.03439 130.57 6.03439 134.207 8.91366L246.626 97.9094C254.058 103.793 249.898 115.75 240.419 115.75H15.5809C6.10246 115.75 1.94236 103.793 9.37397 97.9095L121.793 8.91366Z" fill="white"/>
<path d="M216.02 175.813H191.026V171.907C191.026 160.862 182.072 151.907 171.026 151.907H151.26C140.214 151.907 131.26 160.862 131.26 171.907V175.813H111.7V171.906C111.7 166.603 109.635 161.783 106.267 158.203V89.9668H216.02V175.813Z" fill="white"/>
<path d="M111.26 82.3604C122.305 82.3604 131.26 91.3147 131.26 102.36V231.88C131.26 242.926 122.305 251.88 111.26 251.88H57.8066C46.761 251.88 37.8066 242.926 37.8066 231.88V102.36C37.8066 91.3147 46.761 82.3604 57.8066 82.3604H111.26ZM77.3662 151.906C66.3209 151.906 57.3664 160.861 57.3662 171.906V186.24C57.3663 197.286 66.3208 206.24 77.3662 206.24H91.7002C102.746 206.24 111.7 197.286 111.7 186.24V171.906C111.7 160.861 102.746 151.906 91.7002 151.906H77.3662Z" fill="white"/>
</svg>
