<svg width="256" height="256" viewBox="0 0 256 256" fill="none" xmlns="http://www.w3.org/2000/svg">
<path fill-rule="evenodd" clip-rule="evenodd" d="M83 48C74.1634 48 67 55.1634 67 64C67 72.8366 74.1634 80 82.9999 80H240C248.837 80 256 72.8366 256 64C256 55.1634 248.837 48 240 48H83ZM83 112C74.1634 112 67 119.163 67 128C67 136.837 74.1634 144 82.9999 144H240C248.837 144 256 136.837 256 128C256 119.163 248.837 112 240 112H83ZM67 192C67 183.163 74.1634 176 83 176H240C248.837 176 256 183.163 256 192C256 200.837 248.837 208 240 208H82.9999C74.1634 208 67 200.837 67 192ZM10.4369 121.14C5.25718 124.247 5.25719 131.753 10.4369 134.86L44.6348 155.374C49.967 158.572 56.75 154.731 56.75 148.513V107.487C56.75 101.269 49.967 97.4277 44.6348 100.626L10.4369 121.14Z" fill="white"/>
</svg>
