<svg width="256" height="256" viewBox="0 0 256 256" fill="none" xmlns="http://www.w3.org/2000/svg">
<path d="M84 223C78.4772 223 74 218.523 74 213V206.601C74 201.078 78.4772 196.601 84 196.601H110.585C112.242 196.601 113.585 195.258 113.585 193.601V122.812C113.585 121.155 112.242 119.812 110.585 119.812H97.0044C91.4815 119.812 87.0044 115.335 87.0044 109.812V103.413C87.0044 97.8903 91.4815 93.4131 97.0044 93.4131H135.03C140.553 93.4131 145.03 97.8902 145.03 103.413V193.601C145.03 195.258 146.373 196.601 148.03 196.601H171C176.523 196.601 181 201.078 181 206.601V213C181 218.523 176.523 223 171 223H84ZM125.153 70.2509C120.092 70.2509 115.754 68.4426 112.139 64.826C108.524 61.2094 106.717 56.8695 106.717 51.8063C106.717 46.5019 108.404 42.0415 111.778 38.4249C115.392 34.8083 119.851 33 125.153 33C130.213 33 134.551 34.9288 138.166 38.7865C142.022 42.4031 143.95 46.743 143.95 51.8063C143.95 56.8695 142.022 61.2094 138.166 64.826C134.551 68.4426 130.213 70.2509 125.153 70.2509Z" fill="white"/>
</svg>
