<svg width="256" height="256" viewBox="0 0 256 256" fill="none" xmlns="http://www.w3.org/2000/svg">
<path d="M128 0C198.692 0 256 57.3076 256 128C256 198.692 198.692 256 128 256C57.3076 256 0 198.692 0 128C0 57.3076 57.3076 0 128 0ZM98.0039 93.4131C92.4813 93.4133 88.0039 97.8904 88.0039 103.413V109.812C88.0041 115.335 92.4814 119.812 98.0039 119.812H111.585C113.242 119.812 114.585 121.156 114.585 122.812V193.601C114.585 195.257 113.242 196.601 111.585 196.601H85C79.4773 196.601 75.0002 201.078 75 206.601V213C75 218.523 79.4772 223 85 223H172C177.523 223 182 218.523 182 213V206.601C182 201.078 177.523 196.601 172 196.601H149.03C147.373 196.601 146.03 195.257 146.03 193.601V103.413C146.03 97.8902 141.552 93.4131 136.029 93.4131H98.0039ZM126.152 33C120.851 33.0001 116.392 34.8083 112.777 38.4248C109.404 42.0414 107.717 46.5024 107.717 51.8066C107.717 56.8697 109.524 61.2097 113.139 64.8262C116.753 68.4427 121.092 70.2509 126.152 70.251C131.213 70.251 135.551 68.4427 139.166 64.8262C143.022 61.2097 144.95 56.8697 144.95 51.8066C144.95 46.7434 143.022 42.4027 139.166 38.7861C135.551 34.9286 131.213 33 126.152 33Z" fill="white"/>
</svg>
