<svg width="256" height="256" viewBox="0 0 256 256" fill="none" xmlns="http://www.w3.org/2000/svg">
<path d="M30.7197 256C28.2487 256 26.3687 253.782 26.7739 251.344L30.5649 228.536C30.8856 226.607 32.5547 225.192 34.5107 225.192H89.4134C90.3905 225.192 91.2245 224.486 91.3859 223.522L123.269 33.1384C123.473 31.9188 122.533 30.808 121.297 30.808H68.3936C65.9226 30.808 64.0426 28.5898 64.4477 26.1522L68.2387 3.34414C68.5595 1.41459 70.2286 0 72.1846 0H224.28C226.751 0 228.631 2.21825 228.226 4.65586L224.435 27.4639C224.114 29.3934 222.445 30.808 220.489 30.808H165.587C164.61 30.808 163.775 31.514 163.614 32.4777L131.731 222.862C131.527 224.081 132.467 225.192 133.703 225.192H186.606C189.077 225.192 190.957 227.41 190.552 229.848L186.761 252.656C186.441 254.585 184.771 256 182.815 256H30.7197Z" fill="white"/>
</svg>
