<svg width="256" height="256" viewBox="0 0 256 256" fill="none" xmlns="http://www.w3.org/2000/svg">
<path d="M231 47.002C244.807 47.002 256 58.1948 256 72.002V184.002C256 197.809 244.807 209.002 231 209.002H25C11.1929 209.002 0 197.809 0 184.002V72.002C2.38391e-06 58.1948 11.1929 47.002 25 47.002H231ZM23 153.002C17.4772 153.002 13 157.479 13 163.002V173.002C13 178.525 17.4772 183.002 23 183.002H33C38.5228 183.002 43 178.525 43 173.002V163.002C43 157.479 38.5228 153.002 33 153.002H23ZM63 153.002C57.4772 153.002 53 157.479 53 163.002V173.002C53 178.525 57.4772 183.002 63 183.002H193C198.523 183.002 203 178.525 203 173.002V163.002C203 157.479 198.523 153.002 193 153.002H63ZM223 153.002C217.477 153.002 213 157.479 213 163.002V173.002C213 178.525 217.477 183.002 223 183.002H233C238.523 183.002 243 178.525 243 173.002V163.002C243 157.479 238.523 153.002 233 153.002H223ZM23 113.002C17.4772 113.002 13 117.479 13 123.002V133.002C13 138.525 17.4772 143.002 23 143.002H33C38.5228 143.002 43 138.525 43 133.002V123.002C43 117.479 38.5228 113.002 33 113.002H23ZM63 113.002C57.4772 113.002 53 117.479 53 123.002V133.002C53 138.525 57.4772 143.002 63 143.002H73C78.5228 143.002 83 138.525 83 133.002V123.002C83 117.479 78.5228 113.002 73 113.002H63ZM103 113.002C97.4772 113.002 93 117.479 93 123.002V133.002C93 138.525 97.4772 143.002 103 143.002H153C158.523 143.002 163 138.525 163 133.002V123.002C163 117.479 158.523 113.002 153 113.002H103ZM183 113.002C177.477 113.002 173 117.479 173 123.002V133.002C173 138.525 177.477 143.002 183 143.002H193C198.523 143.002 203 138.525 203 133.002V123.002C203 117.479 198.523 113.002 193 113.002H183ZM223 73.002C217.477 73.002 213 77.4791 213 83.002V133.002C213 138.525 217.477 143.002 223 143.002H233C238.523 143.002 243 138.525 243 133.002V83.002C243 77.4791 238.523 73.002 233 73.002H223ZM23 73.002C17.4772 73.002 13 77.4791 13 83.002V93.002C13 98.5248 17.4772 103.002 23 103.002H33C38.5228 103.002 43 98.5248 43 93.002V83.002C43 77.4791 38.5228 73.002 33 73.002H23ZM63 73.002C57.4772 73.002 53 77.4791 53 83.002V93.002C53 98.5248 57.4772 103.002 63 103.002H73C78.5228 103.002 83 98.5248 83 93.002V83.002C83 77.4791 78.5228 73.002 73 73.002H63ZM103 73.002C97.4772 73.002 93 77.4791 93 83.002V93.002C93 98.5248 97.4772 103.002 103 103.002H113C118.523 103.002 123 98.5248 123 93.002V83.002C123 77.4791 118.523 73.002 113 73.002H103ZM183 73.002C177.477 73.002 173 77.4791 173 83.002V93.002C173 98.5248 177.477 103.002 183 103.002H193C198.523 103.002 203 98.5248 203 93.002V83.002C203 77.4791 198.523 73.002 193 73.002H183Z" fill="white"/>
<path d="M58 235.002L198 20.002" stroke="white" stroke-width="40" stroke-linecap="round"/>
</svg>
