<svg width="256" height="256" viewBox="0 0 256 256" fill="none" xmlns="http://www.w3.org/2000/svg">
<path d="M231 47C244.807 47 256 58.1929 256 72V184C256 197.807 244.807 209 231 209H25C11.1929 209 0 197.807 0 184V72C2.38391e-06 58.1929 11.1929 47 25 47H231ZM23 153C17.4772 153 13 157.477 13 163V173C13 178.523 17.4772 183 23 183H33C38.5228 183 43 178.523 43 173V163C43 157.477 38.5228 153 33 153H23ZM63 153C57.4772 153 53 157.477 53 163V173C53 178.523 57.4772 183 63 183H193C198.523 183 203 178.523 203 173V163C203 157.477 198.523 153 193 153H63ZM223 153C217.477 153 213 157.477 213 163V173C213 178.523 217.477 183 223 183H233C238.523 183 243 178.523 243 173V163C243 157.477 238.523 153 233 153H223ZM23 113C17.4772 113 13 117.477 13 123V133C13 138.523 17.4772 143 23 143H33C38.5228 143 43 138.523 43 133V123C43 117.477 38.5228 113 33 113H23ZM63 113C57.4772 113 53 117.477 53 123V133C53 138.523 57.4772 143 63 143H73C78.5228 143 83 138.523 83 133V123C83 117.477 78.5228 113 73 113H63ZM103 113C97.4772 113 93 117.477 93 123V133C93 138.523 97.4772 143 103 143H113C118.523 143 123 138.523 123 133V123C123 117.477 118.523 113 113 113H103ZM143 113C137.477 113 133 117.477 133 123V133C133 138.523 137.477 143 143 143H153C158.523 143 163 138.523 163 133V123C163 117.477 158.523 113 153 113H143ZM183 113C177.477 113 173 117.477 173 123V133C173 138.523 177.477 143 183 143H193C198.523 143 203 138.523 203 133V123C203 117.477 198.523 113 193 113H183ZM223 73C217.477 73 213 77.4772 213 83V133C213 138.523 217.477 143 223 143H233C238.523 143 243 138.523 243 133V83C243 77.4772 238.523 73 233 73H223ZM23 73C17.4772 73 13 77.4772 13 83V93C13 98.5228 17.4772 103 23 103H33C38.5228 103 43 98.5228 43 93V83C43 77.4772 38.5228 73 33 73H23ZM63 73C57.4772 73 53 77.4772 53 83V93C53 98.5228 57.4772 103 63 103H73C78.5228 103 83 98.5228 83 93V83C83 77.4772 78.5228 73 73 73H63ZM103 73C97.4772 73 93 77.4772 93 83V93C93 98.5228 97.4772 103 103 103H113C118.523 103 123 98.5228 123 93V83C123 77.4772 118.523 73 113 73H103ZM143 73C137.477 73 133 77.4772 133 83V93C133 98.5228 137.477 103 143 103H153C158.523 103 163 98.5228 163 93V83C163 77.4772 158.523 73 153 73H143ZM183 73C177.477 73 173 77.4772 173 83V93C173 98.5228 177.477 103 183 103H193C198.523 103 203 98.5228 203 93V83C203 77.4772 198.523 73 193 73H183Z" fill="white"/>
</svg>
