<svg width="256" height="256" viewBox="0 0 256 256" fill="none" xmlns="http://www.w3.org/2000/svg">
<path fill-rule="evenodd" clip-rule="evenodd" d="M43.4153 132.422C39.6206 130.64 39.5723 125.26 43.3344 123.41L119.174 86.114C124.74 83.377 131.26 83.377 136.826 86.114L212.666 123.41C216.428 125.26 216.379 130.64 212.585 132.422L130.126 171.151C128.779 171.784 127.221 171.784 125.874 171.151L43.4153 132.422ZM46.8472 145.048C45.5546 144.441 44.0562 144.455 42.7748 145.085C39.2383 146.824 39.2837 151.882 42.8508 153.557L125.449 192.351C127.065 193.11 128.935 193.11 130.551 192.351L213.149 153.557C216.716 151.882 216.761 146.824 213.225 145.085C211.944 144.455 210.445 144.441 209.153 145.048L130.551 181.966C128.935 182.724 127.065 182.724 125.449 181.966L46.8472 145.048ZM42.7748 165.856C44.0562 165.226 45.5546 165.212 46.8472 165.819L125.874 202.936C127.221 203.569 128.779 203.569 130.125 202.936L209.153 165.819C210.445 165.212 211.944 165.226 213.225 165.856C216.761 167.595 216.716 172.653 213.149 174.328L130.125 213.322C128.779 213.954 127.221 213.954 125.874 213.322L42.8508 174.328C39.2837 172.653 39.2383 167.595 42.7748 165.856Z" fill="white"/>
</svg>
