<svg width="256" height="256" viewBox="0 0 256 256" fill="none" xmlns="http://www.w3.org/2000/svg">
<path d="M244.162 152.925C246.01 152.057 248.152 152.076 249.984 152.976C255.045 155.463 254.98 162.702 249.875 165.098L132.25 220.305C129.559 221.568 126.445 221.568 123.753 220.305L6.12809 165.098C1.02328 162.702 0.958642 155.463 6.01969 152.976C7.85162 152.076 9.99325 152.058 11.841 152.925L123.754 205.449C126.446 206.712 129.56 206.712 132.251 205.449L244.162 152.925ZM244.161 123.216C246.009 122.348 248.151 122.367 249.984 123.267C255.045 125.754 254.98 132.992 249.875 135.389L132.251 190.596C129.559 191.859 126.445 191.859 123.753 190.596L6.12907 135.389C1.02403 132.993 0.959338 125.754 6.02067 123.267C7.85262 122.367 9.99418 122.349 11.842 123.216L123.753 175.74C126.445 177.003 129.559 177.003 132.25 175.74L244.161 123.216ZM123.592 34.8807C126.373 33.5139 129.632 33.5139 132.413 34.8807L251.337 93.3231C255.854 95.5426 255.796 102.001 251.24 104.14L132.251 159.986C129.56 161.249 126.446 161.249 123.754 159.986L4.76481 104.14C0.209404 102.001 0.151109 95.5428 4.66715 93.3231L123.592 34.8807Z" fill="white"/>
</svg>
