<svg width="256" height="256" viewBox="0 0 256 256" fill="none" xmlns="http://www.w3.org/2000/svg">
<path fill-rule="evenodd" clip-rule="evenodd" d="M77 88H112V98H77C60.4315 98 47 111.431 47 128C47 144.569 60.4315 158 77 158H112V168H77C54.9086 168 37 150.091 37 128C37 105.909 54.9086 88 77 88ZM179 158H144V168H179C201.091 168 219 150.091 219 128C219 105.909 201.091 88 179 88H144V98H179C195.569 98 209 111.431 209 128C209 144.569 195.569 158 179 158ZM80 112C71.1634 112 64 119.163 64 128C64 136.837 71.1634 144 80 144H176C184.837 144 192 136.837 192 128C192 119.163 184.837 112 176 112H80Z" fill="white"/>
</svg>
