<svg width="258" height="256" viewBox="0 0 258 256" fill="none" xmlns="http://www.w3.org/2000/svg">
<path d="M109 74C109 80.0751 104.075 85 98 85H65.4258C41.9538 85.0002 22.9258 104.028 22.9258 127.5C22.9258 150.972 41.9538 170 65.4258 170H98C104.075 170 109 174.925 109 181V181C109 187.075 104.075 192 98 192H65.4258C29.8036 192 0.925781 163.122 0.925781 127.5C0.925781 91.8777 29.8036 63.0002 65.4258 63H98C104.075 63 109 67.9249 109 74V74ZM192.574 63C228.197 63 257.074 91.8776 257.074 127.5C257.074 163.122 228.197 192 192.574 192H160C153.925 192 149 187.075 149 181V181C149 174.925 153.925 170 160 170H192.574C216.046 170 235.074 150.972 235.074 127.5C235.074 104.028 216.046 85 192.574 85H160C153.925 85 149 80.0751 149 74V74C149 67.9249 153.925 63 160 63H192.574Z" fill="white"/>
<rect x="43" y="105" width="172" height="45" rx="22.5" fill="white"/>
</svg>
