<svg width="256" height="256" viewBox="0 0 256 256" fill="none" xmlns="http://www.w3.org/2000/svg">
<path d="M163.964 45.2633C184.843 24.3845 218.694 24.3846 239.573 45.2633C260.452 66.1422 260.451 99.9932 239.573 120.872L180.935 179.51C160.056 200.389 126.205 200.389 105.326 179.511C84.4472 158.632 84.4471 124.78 105.326 103.901L107.73 101.497C112.417 96.8107 120.015 96.8107 124.701 101.497V101.497C129.387 106.183 129.387 113.781 124.701 118.468L122.296 120.872C110.79 132.378 110.79 151.034 122.296 162.54C133.803 174.046 152.458 174.046 163.964 162.539L222.602 103.901C234.108 92.3952 234.109 73.7401 222.603 62.2339C211.096 50.7278 192.441 50.7277 180.935 62.2339L175.179 67.9895C170.493 72.6758 162.895 72.6758 158.208 67.9895V67.9895C153.522 63.3032 153.522 55.7052 158.208 51.0189L163.964 45.2633Z" fill="white"/>
<path d="M74.331 76.2582C95.2098 55.3794 129.062 55.3794 149.94 76.2582C170.819 97.137 170.818 130.988 149.94 151.867L147.535 154.271C142.849 158.958 135.251 158.958 130.565 154.271V154.271C125.878 149.585 125.878 141.987 130.565 137.301L132.969 134.896C144.475 123.39 144.476 104.735 132.97 93.2288C121.464 81.7226 102.808 81.7225 91.3016 93.2288L32.6635 151.867C21.1574 163.373 21.1574 182.029 32.6635 193.535C44.1697 205.041 62.8248 205.04 74.331 193.534L80.0866 187.779C84.7729 183.092 92.3709 183.092 97.0572 187.779V187.779C101.743 192.465 101.743 200.063 97.0572 204.749L91.3016 210.505C70.4228 231.384 36.5717 231.384 15.6929 210.506C-5.18579 189.627 -5.18573 155.775 15.6929 134.896L74.331 76.2582Z" fill="white"/>
</svg>
