<svg width="256" height="256" viewBox="0 0 256 256" fill="none" xmlns="http://www.w3.org/2000/svg">
<path d="M127.5 0C164.779 0 195 30.2208 195 67.5V100H203C214.046 100 223 108.954 223 120V236C223 247.046 214.046 256 203 256H53C41.9543 256 33 247.046 33 236V120C33 108.954 41.9543 100 53 100H171V67.5C171 43.4756 151.524 24 127.5 24C108.827 24 92.9035 35.7654 86.7354 52.2871C84.5438 58.1571 79.4669 62.9998 73.2012 63C66.1356 63 60.4424 56.9668 62.2549 50.1377C69.9161 21.2721 96.2235 0 127.5 0Z" fill="white"/>
</svg>
