<svg width="256" height="256" viewBox="0 0 256 256" fill="none" xmlns="http://www.w3.org/2000/svg">
<path d="M127.5 0C164.779 0 195 30.2208 195 67.5V100H196C207.046 100 216 108.954 216 120V236C216 247.046 207.046 256 196 256H60C48.9543 256 40 247.046 40 236V120C40 108.954 48.9543 100 60 100H171V67.5C171 43.4756 151.524 24 127.5 24C108.827 24 92.9035 35.7654 86.7354 52.2871C84.5438 58.1571 79.4669 62.9998 73.2012 63C66.1356 63 60.4424 56.9668 62.2549 50.1377C69.9161 21.2721 96.2235 0 127.5 0ZM127.5 146.92C117.283 146.92 109 155.203 109 165.42C109 172.716 113.224 179.025 119.36 182.036V200.2C119.361 205.104 123.336 209.08 128.24 209.08C133.144 209.08 137.12 205.104 137.12 200.2V181.225C142.445 177.977 146 172.114 146 165.42C146 155.203 137.717 146.92 127.5 146.92Z" fill="white"/>
</svg>
