<svg width="256" height="256" viewBox="0 0 256 256" fill="none" xmlns="http://www.w3.org/2000/svg">
<path fill-rule="evenodd" clip-rule="evenodd" d="M82.3921 59.5H62.2711C65.3009 26.1376 93.3481 0 127.5 0C163.675 0 193 29.3253 193 65.5V100H196C207.046 100 216 108.954 216 120V236C216 247.046 207.046 256 196 256H60C48.9543 256 40 247.046 40 236V120C40 108.954 48.9543 100 60 100H173V65.5C173 40.371 152.629 20 127.5 20C104.405 20 85.3288 37.2069 82.3921 59.5ZM134 180.179C137.598 177.985 140 174.023 140 169.5C140 162.596 134.404 157 127.5 157C120.596 157 115 162.596 115 169.5C115 174.43 117.854 178.693 122 180.728V193C122 196.314 124.686 199 128 199C131.314 199 134 196.314 134 193V180.179Z" fill="white"/>
</svg>
