<svg width="256" height="256" viewBox="0 0 256 256" fill="none" xmlns="http://www.w3.org/2000/svg">
<path fill-rule="evenodd" clip-rule="evenodd" d="M154.597 106.51H199.597C202.358 106.51 204.597 104.271 204.597 101.51C204.597 100.485 204.288 99.5317 203.759 98.7386L204.556 98.7188L184.507 78.6701L248.642 14.5355C250.594 12.5829 250.594 9.41709 248.642 7.46447C246.689 5.51184 243.523 5.51184 241.571 7.46447L177.436 71.599L156.791 50.9538L156.765 52.0031C156.109 51.6869 155.373 51.5097 154.597 51.5097C151.835 51.5097 149.597 53.7482 149.597 56.5097L149.597 101.51C149.597 104.271 151.835 106.51 154.597 106.51ZM106.51 154.597V199.597C106.51 202.358 104.271 204.597 101.51 204.597C100.588 204.597 99.7252 204.348 98.984 203.913L98.9681 204.556L78.7948 184.383L14.5355 248.642C12.5829 250.595 9.41709 250.595 7.46447 248.642C5.51184 246.689 5.51184 243.524 7.46447 241.571L71.7237 177.312L51.203 156.791L52.0059 156.771C51.6879 156.114 51.5097 155.376 51.5097 154.597C51.5097 151.835 53.7482 149.597 56.5097 149.597L101.51 149.597C104.271 149.597 106.51 151.835 106.51 154.597Z" fill="white"/>
</svg>
