<svg width="256" height="256" viewBox="0 0 256 256" fill="none" xmlns="http://www.w3.org/2000/svg">
<path fill-rule="evenodd" clip-rule="evenodd" d="M96.6534 88C97.5064 88 98.2657 88.5413 98.544 89.3477L125.113 166.348C125.561 167.646 124.597 169 123.223 169H109.112C108.246 169 107.479 168.442 107.211 167.618L101.882 151.221C101.748 150.809 101.364 150.53 100.931 150.53H73.1084C72.6756 150.53 72.2923 150.809 72.1582 151.221L66.8184 167.619C66.5503 168.443 65.783 169 64.917 169H50.8067C49.4326 169 48.4682 167.646 48.917 166.347L75.5235 89.3467C75.802 88.5407 76.5613 88 77.4141 88H96.6534ZM87.0342 106.51C86.8455 106.51 86.6777 106.631 86.6192 106.811L77.1631 135.853C76.9527 136.499 77.4339 137.162 78.1133 137.162H95.9366C96.6156 137.162 97.0964 136.499 96.8868 135.854L87.4493 106.812C87.3909 106.632 87.2231 106.51 87.0342 106.51Z" fill="white"/>
<path d="M205.921 88C207.025 88.0001 207.921 88.8955 207.921 90V96.8828C207.921 97.7162 207.66 98.5288 207.176 99.207L168.551 153.299C168.078 153.961 168.551 154.881 169.364 154.881H206C207.105 154.881 208 155.776 208 156.881V167C208 168.105 207.105 169 206 169H147.925C146.82 169 145.925 168.104 145.925 167V160.116C145.925 159.283 146.185 158.471 146.669 157.793L185.257 103.7C185.729 103.038 185.256 102.119 184.443 102.119H147.846C146.741 102.119 145.846 101.224 145.846 100.119V90C145.846 88.8956 146.741 88.0002 147.846 88H205.921Z" fill="white"/>
<path d="M154.635 121.816C155.739 121.816 156.635 122.712 156.635 123.816V133.185C156.635 134.289 155.739 135.185 154.635 135.185H121.659C120.555 135.185 119.659 134.289 119.659 133.185V123.816C119.659 122.712 120.555 121.816 121.659 121.816H154.635Z" fill="white"/>
<path d="M121.956 11.3413C124.659 6.71723 131.341 6.71724 134.044 11.3413L166.845 67.468C169.572 72.1346 166.206 78 160.801 78H95.1987C89.7936 78 86.4278 72.1346 89.1551 67.468L121.956 11.3413Z" fill="white"/>
<path d="M121.956 245.659C124.659 250.283 131.341 250.283 134.044 245.659L166.845 189.532C169.572 184.865 166.206 179 160.801 179H95.1987C89.7936 179 86.4278 184.865 89.1551 189.532L121.956 245.659Z" fill="white"/>
</svg>
