<svg width="256" height="256" viewBox="0 0 256 256" fill="none" xmlns="http://www.w3.org/2000/svg">
<path d="M66.8187 167.619C66.5505 168.443 65.7829 169 64.9169 169H50.8071C49.4328 169 48.4679 167.646 48.9168 166.347L75.5237 89.3468C75.8022 88.5408 76.5612 88 77.414 88H96.6538C97.5069 88 98.2662 88.5412 98.5444 89.3476L125.114 166.348C125.562 167.646 124.597 169 123.223 169H109.113C108.246 169 107.479 168.442 107.211 167.618L87.4489 106.811C87.3905 106.631 87.2231 106.51 87.0341 106.51V106.51C86.8453 106.51 86.678 106.631 86.6195 106.811L66.8187 167.619ZM65.221 137.162H108.61V150.53H65.221V137.162Z" fill="white"/>
<path d="M154.635 121.816C155.739 121.816 156.635 122.711 156.635 123.816V133.184C156.635 134.289 155.739 135.184 154.635 135.184H121.659C120.555 135.184 119.659 134.289 119.659 133.184V123.816C119.659 122.711 120.555 121.816 121.659 121.816H154.635Z" fill="white"/>
<path d="M147.925 169C146.821 169 145.925 168.105 145.925 167V160.116C145.925 159.283 146.185 158.471 146.669 157.793L185.257 103.7C185.729 103.038 185.256 102.12 184.443 102.12H147.846C146.742 102.12 145.846 101.224 145.846 100.12V90C145.846 88.8954 146.742 88 147.846 88H205.921C207.025 88 207.921 88.8954 207.921 90V96.883C207.921 97.7165 207.66 98.5292 207.176 99.2075L168.551 153.299C168.078 153.961 168.551 154.88 169.365 154.88H206C207.105 154.88 208 155.776 208 156.88V167C208 168.105 207.105 169 206 169H147.925Z" fill="white"/>
<path d="M121.956 11.3413C124.659 6.71723 131.341 6.71724 134.044 11.3413L166.845 67.468C169.572 72.1346 166.206 78 160.801 78H95.1987C89.7936 78 86.4278 72.1346 89.1551 67.468L121.956 11.3413Z" fill="white"/>
<path d="M121.956 245.659C124.659 250.283 131.341 250.283 134.044 245.659L166.845 189.532C169.572 184.865 166.206 179 160.801 179H95.1987C89.7936 179 86.4278 184.865 89.1551 189.532L121.956 245.659Z" fill="white"/>
</svg>
