<svg width="256" height="256" viewBox="0 0 256 256" fill="none" xmlns="http://www.w3.org/2000/svg">
<path d="M42.4876 170.991C59.9825 149.957 91.1969 147.111 112.19 164.656C133.182 182.201 136.017 213.475 118.523 234.51L116.663 236.746C99.8583 256.951 70.3108 260.66 49.0383 245.236L5.21509 213.462C1.65427 210.88 -0.307134 206.625 0.0393098 202.234C0.491684 196.503 4.75066 191.804 10.3987 190.805L18.7815 189.321C23.7638 188.44 28.3307 185.976 31.8088 182.294L42.4876 170.991ZM189.217 11.1699C204.048 -2.06402 226.313 -2.42185 241.57 10.3291C256.827 23.0803 260.481 45.1 250.161 62.1045L182.339 173.861C177.989 181.029 171.502 186.646 163.793 189.917L152.13 194.866C149.776 195.865 147.048 194.92 145.811 192.677L134.174 171.573C131.177 166.138 127.198 161.308 122.44 157.331L118.74 154.239C113.981 150.262 108.526 147.207 102.654 145.23L79.8518 137.551C77.4274 136.734 76.0086 134.214 76.5657 131.713L79.3254 119.322C81.1492 111.133 85.4936 103.725 91.7454 98.1465L189.217 11.1699Z" fill="white"/>
</svg>
