<svg width="256" height="256" viewBox="0 0 256 256" fill="none" xmlns="http://www.w3.org/2000/svg">
<path d="M37.0073 32.3716C37.0174 31.5898 37.1369 30.86 37.4649 30.1503C38.7914 27.2802 43.7284 19.1379 59.6028 10.6705C72.837 3.61148 82.8488 1.01576 88.0148 0.0713386C90.2965 -0.345791 92.3783 1.11748 93.0162 3.34764L111.341 67.4113C111.764 68.8911 111.483 70.4835 110.577 71.7282L97.2375 90.064C96.335 91.3045 96.0475 92.8749 96.4865 94.3447C98.655 101.604 105.737 124.235 113.586 137.739C121.415 151.208 137.035 168.077 142.151 173.454C143.203 174.561 144.7 175.091 146.218 174.93L168.819 172.54C170.327 172.38 171.826 172.914 172.894 173.99L217.574 219.014C219.085 220.536 219.445 222.839 218.301 224.652C215.328 229.365 208.508 238.776 196.632 248.028C179.848 261.103 165.206 253.256 165.206 253.256C165.206 253.256 111.907 228.054 73.2222 161.045C37.5757 99.2995 36.8945 41.1288 37.0073 32.3716Z" fill="white"/>
</svg>
