<svg width="256" height="256" viewBox="0 0 256 256" fill="none" xmlns="http://www.w3.org/2000/svg">
<path d="M248.89 112.906C249.562 113.307 250.137 113.78 250.583 114.424C252.31 116.918 256.509 124.762 255.949 141.5C255.487 155.319 252.998 164.591 251.349 169.317C250.583 171.514 248.265 172.598 246.008 172.03L186.156 156.971C184.662 156.595 183.424 155.551 182.802 154.142L174.338 134.975C173.718 133.57 172.501 132.532 171.008 132.176C163.963 130.496 142.602 125.707 128.147 125.75C113.733 125.793 93.0391 130.499 86.1428 132.17C84.6575 132.53 83.4475 133.565 82.8301 134.963L74.3446 154.179C73.7315 155.567 72.5211 156.602 71.0542 156.991L13.9016 172.17C12.0001 172.675 9.99731 172.007 9.00413 170.308C6.53729 166.09 2.1679 156.786 0.344999 141.5C-1.88619 122.79 7.33098 115.602 10.0451 113.914C10.525 113.615 10.9853 113.354 11.4578 113.044C17.3493 109.176 61.1227 82 128.147 82C194.424 82 241.633 108.573 248.89 112.906Z" fill="white"/>
</svg>
