<svg width="256" height="256" viewBox="0 0 256 256" fill="none" xmlns="http://www.w3.org/2000/svg">
<path d="M117.4 6.28699C118.758 0.114336 126.401 -2.11969 130.87 2.34949L253.649 125.126C258.118 129.595 255.883 137.239 249.71 138.597L206.755 148.044C204.89 148.454 203.182 149.39 201.832 150.74L181.588 170.983C180.637 171.934 179.889 173.067 179.386 174.313L154.115 236.957C151.434 243.603 142.838 245.354 137.771 240.287L95.5138 198.03L10.2823 254.884C7.65962 256.633 4.16588 256.288 1.93663 254.058C-0.292345 251.829 -0.63778 248.336 1.11143 245.714L57.964 160.48L15.7091 118.225C10.642 113.158 12.3932 104.562 19.0392 101.881L81.6827 76.6112C82.9295 76.1083 84.0621 75.3587 85.0128 74.4081L105.257 54.1649C106.607 52.8149 107.542 51.1066 107.952 49.2421L117.4 6.28699Z" fill="white"/>
</svg>
