<svg width="256" height="256" viewBox="0 0 256 256" fill="none" xmlns="http://www.w3.org/2000/svg">
<g clip-path="url(#clip0_219_18)">
<path d="M40.5 140.5C33.5964 140.5 28 134.904 28 128C28 121.096 33.5964 115.5 40.5 115.5H215.5C222.404 115.5 228 121.096 228 128C228 134.904 222.404 140.5 215.5 140.5H40.5Z" fill="white"/>
<path d="M115.5 40.5C115.5 33.5964 121.096 28 128 28C134.904 28 140.5 33.5964 140.5 40.5V215.5C140.5 222.404 134.904 228 128 228C121.096 228 115.5 222.404 115.5 215.5V40.5Z" fill="white"/>
<circle cx="128" cy="128" r="120.5" stroke="white" stroke-width="15"/>
</g>
<defs>
<clipPath id="clip0_219_18">
<rect width="256" height="256" fill="white"/>
</clipPath>
</defs>
</svg>
