<svg width="256" height="256" viewBox="0 0 256 256" fill="none" xmlns="http://www.w3.org/2000/svg">
<path d="M128 49C134.904 49 140.5 54.5964 140.5 61.5V115.5H194.5C201.404 115.5 207 121.096 207 128C207 134.904 201.404 140.5 194.5 140.5H140.5V194.5C140.5 201.404 134.904 207 128 207C121.096 207 115.5 201.404 115.5 194.5V140.5H61.5C54.5964 140.5 49 134.904 49 128C49 121.096 54.5964 115.5 61.5 115.5H115.5V61.5C115.5 54.5964 121.096 49 128 49Z" fill="white" stroke="white" stroke-width="6"/>
<circle cx="128" cy="128" r="113" stroke="white" stroke-width="30"/>
</svg>
