<svg width="256" height="256" viewBox="0 0 256 256" fill="none" xmlns="http://www.w3.org/2000/svg">
<path fill-rule="evenodd" clip-rule="evenodd" d="M196.923 32.8205C196.923 37.4883 195.559 41.9286 193.1 45.9489H241C249.284 45.9489 256 52.6646 256 60.9489V108.849C251.98 106.39 247.54 105.026 242.872 105.026C224.746 105.026 210.051 125.598 210.051 150.975C210.051 176.351 224.746 196.923 242.872 196.923C247.54 196.923 251.98 195.559 256 193.1V241C256 249.284 249.284 256 241 256H193.1C195.559 251.98 196.923 247.54 196.923 242.872C196.923 224.745 176.351 210.051 150.974 210.051C125.598 210.051 105.026 224.745 105.026 242.872C105.026 247.54 106.39 251.98 108.849 256H60.9487C52.6644 256 45.9487 249.284 45.9487 241V193.1C41.9285 195.559 37.4883 196.923 32.8205 196.923C14.6942 196.923 0 176.351 0 150.974C0 125.598 14.6942 105.026 32.8205 105.026C37.4883 105.026 41.9285 106.39 45.9487 108.849V60.9489C45.9487 52.6646 52.6644 45.9489 60.9487 45.9489H108.849C106.39 41.9286 105.026 37.4883 105.026 32.8205C105.026 14.6942 125.598 0 150.974 0C176.351 0 196.923 14.6942 196.923 32.8205Z" fill="white"/>
</svg>
