<svg width="256" height="256" viewBox="0 0 256 256" fill="none" xmlns="http://www.w3.org/2000/svg">
<path d="M95.7647 241.537C75.8713 235.169 58.0916 223.746 44.0925 208.519C37.3753 201.213 39.6356 189.929 47.8637 184.379C56.0921 178.828 67.1536 181.182 74.3267 188.042C83.4684 196.784 94.5279 203.402 106.722 207.305C124.663 213.048 144.015 212.583 161.659 205.986C179.304 199.389 194.215 187.043 203.987 170.938C213.76 154.833 217.826 135.907 215.53 117.209C213.235 98.5119 204.711 81.1319 191.333 67.8698C177.955 54.6078 160.501 46.2358 141.785 44.1034C123.069 41.971 104.179 46.2031 88.1603 56.116C81.0132 60.5389 74.6228 65.9771 69.165 72.2172L90.5145 79.9878C94.9968 81.6194 95.4747 87.7693 91.2986 90.0743L35.8968 120.646C32.9482 122.273 29.2415 120.924 28.0287 117.782L5.23964 58.7514C3.52223 54.3014 7.84141 49.8975 12.3237 51.5287L33.7283 59.3193C43.0535 45.8251 55.1138 34.2979 69.2466 25.552C92.1304 11.3907 119.116 5.34589 145.854 8.39214C172.591 11.4384 197.525 23.3983 216.636 42.344C235.748 61.2898 247.925 86.1183 251.204 112.829C254.484 139.54 248.675 166.577 234.714 189.583C220.753 212.59 199.453 230.228 174.247 239.652C149.04 249.077 121.394 249.741 95.7647 241.537Z" fill="white"/>
</svg>
