<svg width="256" height="256" viewBox="0 0 256 256" fill="none" xmlns="http://www.w3.org/2000/svg">
<g clip-path="url(#clip0_33_449)">
<path fill-rule="evenodd" clip-rule="evenodd" d="M234.004 58.3242L252.912 50.2979C254.471 49.6362 256.096 51.0903 255.61 52.7126L237.912 111.82C237.553 113.02 236.191 113.598 235.078 113.023L180.266 84.694C178.762 83.9165 178.844 81.7379 180.403 81.0763L200.813 72.4128C185.798 54.1906 163.478 42.0881 138.041 40.755C89.9293 38.2336 48.8832 75.1916 46.3618 123.303C43.8404 171.415 80.7984 212.461 128.91 214.982C156.471 216.426 181.714 204.915 198.723 185.772C205.1 178.596 215.592 175.582 223.942 180.319C232.417 185.126 235.434 196.021 229.387 203.66C205.637 233.662 168.199 252.089 127.078 249.934C59.6632 246.401 7.87671 188.886 11.4098 121.471C14.9428 54.0564 72.4576 2.26992 139.872 5.80298C179.19 7.86352 213.192 28.2855 234.004 58.3242Z" fill="white"/>
</g>
<defs>
<clipPath id="clip0_33_449">
<rect width="256" height="256" fill="white"/>
</clipPath>
</defs>
</svg>
