<svg width="256" height="256" viewBox="0 0 256 256" fill="none" xmlns="http://www.w3.org/2000/svg">
<path d="M160.236 241.536C180.129 235.168 197.909 223.745 211.908 208.518C218.625 201.212 216.364 189.929 208.136 184.379C199.908 178.828 188.847 181.182 181.674 188.042C172.532 196.784 161.472 203.401 149.278 207.304C131.337 213.047 111.985 212.583 94.3402 205.986C76.6956 199.389 61.7858 187.043 52.0133 170.938C42.2407 154.833 38.1745 135.907 40.4701 117.209C42.7657 98.5118 51.2895 81.1318 64.6676 67.8698C78.0456 54.6078 95.4991 46.2357 114.216 44.1034C132.932 41.9711 151.821 46.2022 167.84 56.115C174.987 60.5379 181.377 65.9773 186.835 72.2175L165.486 79.9878C161.003 81.6193 160.525 87.7694 164.702 90.0742L220.104 120.646C223.052 122.273 226.758 120.924 227.971 117.783L250.76 58.7516C252.478 54.3014 248.159 49.8975 243.676 51.529L222.271 59.3196C212.946 45.8251 200.886 34.2974 186.753 25.5513C163.869 11.3902 136.884 5.34597 110.147 8.39207C83.409 11.4383 58.4747 23.3976 39.3631 42.3434C20.2516 61.2892 8.07552 86.1182 4.79612 112.829C1.51674 139.54 7.32555 166.577 21.2863 189.583C35.2471 212.59 56.5471 230.228 81.7538 239.652C106.96 249.077 134.606 249.74 160.236 241.536Z" fill="white"/>
</svg>
