<svg width="256" height="256" viewBox="0 0 256 256" fill="none" xmlns="http://www.w3.org/2000/svg">
<path d="M42 108H196V108C229.137 108 256 134.863 256 168V168V199.85C256 210.896 247.046 219.85 236 219.85V219.85C224.954 219.85 216 210.896 216 199.85V168V168C216 156.954 207.046 148 196 148V148H42V108Z" fill="white"/>
<path d="M79.746 41.1778C83.0613 37.8625 87.5578 36 92.2464 36V36C107.996 36 115.883 55.0415 104.747 66.1782L47.2462 123.681C44.9032 126.024 44.9032 129.823 47.2462 132.166L104.747 189.67C115.883 200.806 107.996 219.848 92.2464 219.848V219.848C87.5579 219.848 83.0614 217.985 79.7461 214.67L5.72793 140.652C-1.30151 133.622 -1.30151 122.225 5.72793 115.196L79.746 41.1778Z" fill="white"/>
</svg>
