<svg width="256" height="256" viewBox="0 0 256 256" fill="none" xmlns="http://www.w3.org/2000/svg">
<path d="M81.5 20C88.4036 20 94 25.5964 94 32.5V56H183C205.091 56 223 73.9086 223 96V206C223 228.091 205.091 246 183 246H73C50.9086 246 33 228.091 33 206V96C33 75.2586 48.7867 58.2042 69 56.1973V32.5C69 25.5964 74.5964 20 81.5 20ZM80.5 189C73.5964 189 68 194.596 68 201.5C68 208.404 73.5964 214 80.5 214H175.5C182.404 214 188 208.404 188 201.5C188 194.596 182.404 189 175.5 189H80.5ZM12.5 111C19.4036 111 25 116.596 25 123.5V168.5C25 175.404 19.4036 181 12.5 181C5.59644 181 1.61069e-07 175.404 0 168.5V123.5C0 116.596 5.59644 111 12.5 111ZM243.5 111C250.404 111 256 116.596 256 123.5V168.5C256 175.404 250.404 181 243.5 181C236.596 181 231 175.404 231 168.5V123.5C231 116.596 236.596 111 243.5 111ZM88 108C76.9543 108 68 116.954 68 128C68 139.046 76.9543 148 88 148C99.0457 148 108 139.046 108 128C108 116.954 99.0457 108 88 108ZM168 108C156.954 108 148 116.954 148 128C148 139.046 156.954 148 168 148C179.046 148 188 139.046 188 128C188 116.954 179.046 108 168 108Z" fill="white"/>
</svg>
