<svg width="256" height="256" viewBox="0 0 256 256" fill="none" xmlns="http://www.w3.org/2000/svg">
<path fill-rule="evenodd" clip-rule="evenodd" d="M8 53C8 41.9543 16.9543 33 28 33H228C239.046 33 248 41.9543 248 53V98.3333C248 109.379 239.046 118.333 228 118.333H28C16.9543 118.333 8 109.379 8 98.3333V53ZM227.733 75.6667C227.733 84.5032 220.57 91.6667 211.733 91.6667C202.897 91.6667 195.733 84.5032 195.733 75.6667C195.733 66.8301 202.897 59.6667 211.733 59.6667C220.57 59.6667 227.733 66.8301 227.733 75.6667ZM166.933 91.6667C175.77 91.6667 182.933 84.5032 182.933 75.6667C182.933 66.8301 175.77 59.6667 166.933 59.6667C158.097 59.6667 150.933 66.8301 150.933 75.6667C150.933 84.5032 158.097 91.6667 166.933 91.6667Z" fill="white"/>
<path fill-rule="evenodd" clip-rule="evenodd" d="M8 158.601C8 147.555 16.9543 138.601 28 138.601H228C239.046 138.601 248 147.555 248 158.601V203.934C248 214.98 239.046 223.934 228 223.934H28C16.9543 223.934 8 214.98 8 203.934V158.601ZM227.733 181.267C227.733 190.104 220.57 197.267 211.733 197.267C202.897 197.267 195.733 190.104 195.733 181.267C195.733 172.431 202.897 165.267 211.733 165.267C220.57 165.267 227.733 172.431 227.733 181.267ZM166.933 197.267C175.77 197.267 182.933 190.104 182.933 181.267C182.933 172.431 175.77 165.267 166.933 165.267C158.097 165.267 150.933 172.431 150.933 181.267C150.933 190.104 158.097 197.267 166.933 197.267Z" fill="white"/>
</svg>
