<svg width="256" height="256" viewBox="0 0 256 256" fill="none" xmlns="http://www.w3.org/2000/svg">
<path d="M248 89.8242C252.418 89.8242 256 93.4061 256 97.8242V248C256 252.418 252.418 256 248 256H97.8242C93.4061 256 89.8242 252.418 89.8242 248V154.748C89.8244 150.944 92.5215 147.71 96.1689 146.628C120.37 139.452 139.452 120.37 146.628 96.1689C147.71 92.5213 150.944 89.8242 154.749 89.8242H248ZM68.8652 0C106.899 0 137.731 30.832 137.731 68.8652C137.731 106.899 106.899 137.731 68.8652 137.731C30.832 137.731 0 106.899 0 68.8652C0.00014019 30.8321 30.8321 0.000140208 68.8652 0Z" fill="white"/>
</svg>
