<svg width="256" height="257" viewBox="0 0 256 257" fill="none" xmlns="http://www.w3.org/2000/svg">
<path d="M123.237 12.4141C126.484 10.8855 130.245 10.8908 133.488 12.4277L155.773 22.9893L183.181 35.9785L237.85 56.0498C237.937 56.082 237.996 56.1654 237.996 56.2588V80.8848C237.996 111.673 230.208 141.962 215.358 168.933L214.667 170.188C207.684 182.871 199.121 194.618 189.184 205.146L186.669 207.811C175.829 219.295 163.226 228.977 149.335 236.49L135.44 244.007C131.022 246.397 125.7 246.416 121.264 244.058L107.028 236.49C92.9208 228.991 80.292 218.992 69.7568 206.98L65.5713 202.208C58.8875 194.587 52.9128 186.373 47.7217 177.667L46.1738 175.071C27.7347 144.146 18 108.81 18 72.8047V56.249C18 56.1617 18.0547 56.0836 18.1367 56.0537L73.1826 35.9785L100.774 22.9893L123.237 12.4141ZM58 104C44.1929 104 33 115.193 33 129C33 142.807 44.1929 154 58 154H198C211.807 154 223 142.807 223 129C223 115.193 211.807 104 198 104H58Z" fill="white"/>
<path d="M123.237 12.4141L118.765 2.91413L118.765 2.91419L123.237 12.4141ZM133.488 12.4277L128.991 21.9161L128.991 21.9161L133.488 12.4277ZM155.773 22.9893L160.27 13.5009L160.27 13.5009L155.773 22.9893ZM183.181 35.9785L178.684 45.4668L179.114 45.6709L179.562 45.8352L183.181 35.9785ZM237.85 56.0498L234.231 65.9065L234.231 65.9067L237.85 56.0498ZM215.358 168.933L206.16 163.868L206.16 163.869L215.358 168.933ZM214.667 170.188L223.865 175.253L223.865 175.252L214.667 170.188ZM189.184 205.146L196.819 212.354L196.819 212.354L189.184 205.146ZM186.669 207.811L179.033 200.603L179.033 200.603L186.669 207.811ZM149.335 236.49L144.339 227.255L144.339 227.255L149.335 236.49ZM135.44 244.007L140.436 253.242L140.436 253.242L135.44 244.007ZM121.264 244.058L116.335 253.329L116.335 253.329L121.264 244.058ZM107.028 236.49L102.1 245.762L102.1 245.762L107.028 236.49ZM69.7568 206.98L61.8627 213.904L61.8629 213.904L69.7568 206.98ZM65.5713 202.208L73.4654 195.285L73.4652 195.284L65.5713 202.208ZM47.7217 177.667L56.7402 172.29L56.74 172.289L47.7217 177.667ZM46.1738 175.071L37.1552 180.449L37.1555 180.449L46.1738 175.071ZM18.1367 56.0537L14.5392 46.1893L14.5377 46.1898L18.1367 56.0537ZM73.1826 35.9785L76.7802 45.843L77.2258 45.6805L77.6549 45.4785L73.1826 35.9785ZM100.774 22.9893L105.247 32.4892L105.247 32.4891L100.774 22.9893ZM58 104L58 93.5L58 93.5L58 104ZM198 154L198 164.5H198L198 154ZM123.237 12.4141L127.71 21.914C128.115 21.7233 128.585 21.7236 128.991 21.9161L133.488 12.4277L137.985 2.93941C131.905 0.0580348 124.854 0.0477289 118.765 2.91413L123.237 12.4141ZM133.488 12.4277L128.991 21.9161L151.277 32.4776L155.773 22.9893L160.27 13.5009L137.985 2.93938L133.488 12.4277ZM155.773 22.9893L151.277 32.4776L178.684 45.4668L183.181 35.9785L187.678 26.4902L160.27 13.5009L155.773 22.9893ZM183.181 35.9785L179.562 45.8352L234.231 65.9065L237.85 56.0498L241.468 46.1931L186.799 26.1218L183.181 35.9785ZM237.85 56.0498L234.231 65.9067C230.228 64.437 227.496 60.6141 227.496 56.2588H237.996H248.496C248.496 51.7167 245.647 47.727 241.468 46.1929L237.85 56.0498ZM237.996 56.2588H227.496V80.8848H237.996H248.496V56.2588H237.996ZM237.996 80.8848H227.496C227.496 109.902 220.156 138.449 206.16 163.868L215.358 168.933L224.556 173.997C240.26 145.475 248.496 113.444 248.496 80.8848H237.996ZM215.358 168.933L206.16 163.869L205.469 165.124L214.667 170.188L223.865 175.252L224.557 173.997L215.358 168.933ZM214.667 170.188L205.469 165.124C198.914 177.03 190.876 188.056 181.548 197.939L189.184 205.146L196.819 212.354C207.367 201.179 216.454 188.713 223.865 175.253L214.667 170.188ZM189.184 205.146L181.548 197.939L179.033 200.603L186.669 207.811L194.305 215.018L196.819 212.354L189.184 205.146ZM186.669 207.811L179.033 200.603C168.96 211.276 157.248 220.272 144.339 227.255L149.335 236.49L154.331 245.726C169.203 237.681 182.698 227.315 194.305 215.018L186.669 207.811ZM149.335 236.49L144.339 227.255L130.444 234.772L135.44 244.007L140.436 253.242L154.331 245.725L149.335 236.49ZM135.44 244.007L130.445 234.771C129.12 235.488 127.524 235.494 126.192 234.786L121.264 244.058L116.335 253.329C123.876 257.337 132.923 257.306 140.436 253.242L135.44 244.007ZM121.264 244.058L126.192 234.786L111.957 227.219L107.028 236.49L102.1 245.762L116.335 253.329L121.264 244.058ZM107.028 236.49L111.957 227.219C98.9717 220.316 87.3476 211.113 77.6507 200.057L69.7568 206.98L61.8629 213.904C73.2363 226.871 86.8698 237.665 102.1 245.762L107.028 236.49ZM69.7568 206.98L77.651 200.057L73.4654 195.285L65.5713 202.208L57.6771 209.131L61.8627 213.904L69.7568 206.98ZM65.5713 202.208L73.4652 195.284C67.2024 188.144 61.6042 180.447 56.7402 172.29L47.7217 177.667L38.7031 183.044C44.2213 192.299 50.5725 201.031 57.6774 209.132L65.5713 202.208ZM47.7217 177.667L56.74 172.289L55.1921 169.694L46.1738 175.071L37.1555 180.449L38.7034 183.045L47.7217 177.667ZM46.1738 175.071L55.1924 169.694C37.7228 140.395 28.5 106.917 28.5 72.8047H18H7.5C7.5 110.703 17.7465 147.897 37.1552 180.449L46.1738 175.071ZM18 72.8047H28.5V56.249H18H7.5V72.8047H18ZM18 56.249H28.5C28.5 60.5791 25.7917 64.4378 21.7357 65.9176L18.1367 56.0537L14.5377 46.1898C10.3177 47.7295 7.5 51.7443 7.5 56.249H18ZM18.1367 56.0537L21.7343 65.9182L76.7802 45.843L73.1826 35.9785L69.5851 26.1141L14.5392 46.1893L18.1367 56.0537ZM73.1826 35.9785L77.6549 45.4785L105.247 32.4892L100.774 22.9893L96.3022 13.4893L68.7104 26.4786L73.1826 35.9785ZM100.774 22.9893L105.247 32.4891L127.71 21.9139L123.237 12.4141L118.765 2.91419L96.302 13.4894L100.774 22.9893ZM58 104L58 93.5C38.3939 93.5 22.5 109.394 22.5 129H33H43.5C43.5 120.992 49.9919 114.5 58 114.5L58 104ZM33 129H22.5C22.5 148.606 38.3939 164.5 58 164.5V154V143.5C49.9919 143.5 43.5 137.008 43.5 129H33ZM58 154V164.5H198V154V143.5H58V154ZM198 154L198 164.5C217.606 164.5 233.5 148.606 233.5 129H223H212.5C212.5 137.008 206.008 143.5 198 143.5L198 154ZM223 129H233.5C233.5 109.394 217.606 93.5 198 93.5V104V114.5C206.008 114.5 212.5 120.992 212.5 129H223ZM198 104V93.5H58V104V114.5H198V104Z" fill="white"/>
</svg>
