<svg width="256" height="256" viewBox="0 0 256 256" fill="none" xmlns="http://www.w3.org/2000/svg">
<g clip-path="url(#clip0_239_48)">
<path fill-rule="evenodd" clip-rule="evenodd" d="M18 55.2486C18 55.1613 18.0546 55.0833 18.1366 55.0534L73.1829 34.9789L100.774 21.9895L123.237 11.4144C126.484 9.88588 130.245 9.89073 133.488 11.4277L155.773 21.9895L183.181 34.9789L237.85 55.0496C237.938 55.0818 237.996 55.1653 237.996 55.2587V79.8851C237.996 110.674 230.209 140.962 215.359 167.933L214.667 169.189C207.684 181.872 199.121 193.618 189.183 204.147L186.669 206.81C175.829 218.295 163.226 227.977 149.335 235.491L135.441 243.006C131.022 245.397 125.699 245.416 121.263 243.058L107.028 235.491C92.9207 227.991 80.2921 217.992 69.7569 205.981L65.5712 201.208C58.8872 193.588 52.9126 185.373 47.7214 176.667L46.1741 174.072C27.7348 143.146 18 107.81 18 71.8047V55.2486ZM166.208 60.8492C174.409 52.6482 187.706 52.6482 195.907 60.8492C204.108 69.0503 204.108 82.3467 195.907 90.5477L158.43 128.024L195.553 165.147C203.949 173.544 203.949 187.157 195.553 195.553C187.157 203.949 173.544 203.949 165.147 195.553L128.024 158.43L91.2549 195.2C83.0539 203.401 69.7574 203.401 61.5564 195.2C53.3554 186.999 53.3554 173.702 61.5564 165.501L98.3259 128.732L61.2028 91.6084C52.8065 83.2121 52.8065 69.5991 61.2028 61.2028C69.5991 52.8065 83.2121 52.8065 91.6084 61.2028L128.732 98.3259L166.208 60.8492Z" fill="white"/>
<path d="M18.1366 55.0534L21.7338 64.918L21.7341 64.9179L18.1366 55.0534ZM73.1829 34.9789L76.7803 44.8434L77.226 44.6808L77.6552 44.4788L73.1829 34.9789ZM100.774 21.9895L105.247 31.4894L100.774 21.9895ZM123.237 11.4144L118.765 1.91453V1.91453L123.237 11.4144ZM133.488 11.4277L128.991 20.916L133.488 11.4277ZM155.773 21.9895L160.27 12.5012V12.5012L155.773 21.9895ZM183.181 34.9789L178.684 44.4672L179.115 44.6713L179.562 44.8356L183.181 34.9789ZM237.85 55.0496L234.231 64.9063L234.231 64.9064L237.85 55.0496ZM215.359 167.933L206.161 162.869V162.869L215.359 167.933ZM214.667 169.189L223.865 174.253L214.667 169.189ZM189.183 204.147L196.819 211.354L196.819 211.354L189.183 204.147ZM186.669 206.81L179.033 199.603L179.033 199.603L186.669 206.81ZM149.335 235.491L144.34 226.255H144.34L149.335 235.491ZM135.441 243.006L140.436 252.242H140.436L135.441 243.006ZM121.263 243.058L116.335 252.329H116.335L121.263 243.058ZM107.028 235.491L111.957 226.219H111.957L107.028 235.491ZM69.7569 205.981L61.863 212.904H61.863L69.7569 205.981ZM65.5712 201.208L73.4651 194.285L65.5712 201.208ZM47.7214 176.667L56.74 171.289L56.74 171.289L47.7214 176.667ZM46.1741 174.072L37.1555 179.449L37.1555 179.449L46.1741 174.072ZM195.907 60.8492L188.482 68.2739L195.907 60.8492ZM166.208 60.8492L173.633 68.2739V68.2739L166.208 60.8492ZM195.907 90.5477L203.331 97.9724V97.9723L195.907 90.5477ZM158.43 128.024L151.005 120.6L143.581 128.024L151.005 135.449L158.43 128.024ZM128.024 158.43L135.449 151.005L128.024 143.581L120.6 151.005L128.024 158.43ZM91.2549 195.2L83.8303 187.775L91.2549 195.2ZM61.5564 195.2L68.981 187.775H68.981L61.5564 195.2ZM61.5564 165.501L54.1318 158.076H54.1318L61.5564 165.501ZM98.3259 128.732L105.751 136.156L113.175 128.732L105.751 121.307L98.3259 128.732ZM91.6084 61.2028L84.1838 68.6274V68.6274L91.6084 61.2028ZM128.732 98.3259L121.307 105.751L128.732 113.175L136.156 105.751L128.732 98.3259ZM14.5395 45.1888C10.3124 46.7302 7.5 50.7496 7.5 55.2486H28.5C28.5 59.5731 25.7967 63.4364 21.7338 64.918L14.5395 45.1888ZM69.5855 25.1143L14.5392 45.1889L21.7341 64.9179L76.7803 44.8434L69.5855 25.1143ZM96.302 12.4896L68.7106 25.4789L77.6552 44.4788L105.247 31.4894L96.302 12.4896ZM118.765 1.91453L96.302 12.4896L105.247 31.4894L127.71 20.9144L118.765 1.91453ZM137.985 1.93935C131.904 -0.942422 124.853 -0.95153 118.765 1.91453L127.71 20.9144C128.116 20.7233 128.586 20.7239 128.991 20.916L137.985 1.93935ZM160.27 12.5012L137.985 1.93935L128.991 20.916L151.276 31.4778L160.27 12.5012ZM187.678 25.4905L160.27 12.5012L151.276 31.4778L178.684 44.4672L187.678 25.4905ZM241.469 45.1929L186.8 25.1221L179.562 44.8356L234.231 64.9063L241.469 45.1929ZM248.496 55.2587C248.496 50.7616 245.69 46.7426 241.469 45.1929L234.231 64.9064C230.185 63.421 227.496 59.569 227.496 55.2587H248.496ZM248.496 79.8851V55.2587H227.496V79.8851H248.496ZM224.557 172.997C240.261 144.475 248.496 112.445 248.496 79.8851H227.496C227.496 108.903 220.157 137.449 206.161 162.869L224.557 172.997ZM223.865 174.253L224.557 172.997L206.161 162.869L205.469 164.125L223.865 174.253ZM196.819 211.354C207.366 200.18 216.454 187.713 223.865 174.253L205.469 164.125C198.914 176.03 190.876 187.056 181.548 196.94L196.819 211.354ZM194.305 214.018L196.819 211.354L181.548 196.939L179.033 199.603L194.305 214.018ZM154.331 244.726C169.204 236.681 182.698 226.315 194.305 214.018L179.033 199.603C168.96 210.276 157.248 219.273 144.34 226.255L154.331 244.726ZM140.436 252.242L154.331 244.726L144.34 226.255L130.445 233.771L140.436 252.242ZM116.335 252.329C123.876 256.338 132.924 256.305 140.436 252.242L130.445 233.771C129.119 234.488 127.523 234.494 126.192 233.786L116.335 252.329ZM102.1 244.762L116.335 252.329L126.192 233.786L111.957 226.219L102.1 244.762ZM61.863 212.904C73.2363 225.871 86.8697 236.666 102.1 244.762L111.957 226.219C98.9717 219.316 87.3478 210.113 77.6508 199.057L61.863 212.904ZM57.6772 208.132L61.863 212.904L77.6508 199.057L73.4651 194.285L57.6772 208.132ZM38.7028 182.044C44.2211 191.299 50.5722 200.031 57.6772 208.132L73.4651 194.285C67.2023 187.144 61.6041 179.447 56.74 171.289L38.7028 182.044ZM37.1555 179.449L38.7029 182.044L56.74 171.289L55.1927 168.694L37.1555 179.449ZM7.5 71.8047C7.5 109.703 17.7467 146.897 37.1555 179.449L55.1927 168.694C37.723 139.395 28.5 105.917 28.5 71.8047H7.5ZM7.5 55.2486V71.8047H28.5V55.2486H7.5ZM203.331 53.4246C191.03 41.1231 171.085 41.1231 158.784 53.4246L173.633 68.2739C177.733 64.1734 184.382 64.1734 188.482 68.2739L203.331 53.4246ZM203.331 97.9723C215.633 85.6708 215.633 65.7261 203.331 53.4246L188.482 68.2739C192.583 72.3744 192.583 79.0226 188.482 83.1231L203.331 97.9723ZM165.855 135.449L203.331 97.9724L188.482 83.1231L151.005 120.6L165.855 135.449ZM151.005 135.449L188.128 172.572L202.978 157.723L165.855 120.6L151.005 135.449ZM188.128 172.572C192.424 176.868 192.424 183.833 188.128 188.128L202.978 202.978C215.474 190.481 215.474 170.22 202.978 157.723L188.128 172.572ZM188.128 188.128C183.833 192.424 176.868 192.424 172.572 188.128L157.723 202.978C170.22 215.474 190.481 215.474 202.978 202.978L188.128 188.128ZM172.572 188.128L135.449 151.005L120.6 165.855L157.723 202.978L172.572 188.128ZM98.6795 202.624L135.449 165.855L120.6 151.005L83.8303 187.775L98.6795 202.624ZM54.1318 202.624C66.4333 214.926 86.378 214.926 98.6795 202.624L83.8303 187.775C79.7298 191.875 73.0815 191.875 68.981 187.775L54.1318 202.624ZM54.1318 158.076C41.8303 170.378 41.8303 190.323 54.1318 202.624L68.981 187.775C64.8805 183.674 64.8805 177.026 68.981 172.926L54.1318 158.076ZM90.9013 121.307L54.1318 158.076L68.981 172.926L105.751 136.156L90.9013 121.307ZM105.751 121.307L68.6274 84.1838L53.7782 99.033L90.9013 136.156L105.751 121.307ZM68.6274 84.1838C64.3316 79.888 64.3316 72.9232 68.6274 68.6274L53.7782 53.7782C41.2814 66.2749 41.2814 86.5362 53.7782 99.033L68.6274 84.1838ZM68.6274 68.6274C72.9232 64.3316 79.888 64.3316 84.1838 68.6274L99.033 53.7782C86.5362 41.2814 66.275 41.2814 53.7782 53.7782L68.6274 68.6274ZM84.1838 68.6274L121.307 105.751L136.156 90.9013L99.033 53.7782L84.1838 68.6274ZM158.784 53.4246L121.307 90.9013L136.156 105.751L173.633 68.2739L158.784 53.4246Z" fill="white"/>
</g>
<defs>
<clipPath id="clip0_239_48">
<rect width="256" height="256" fill="white"/>
</clipPath>
</defs>
</svg>
