<svg width="256" height="256" viewBox="0 0 256 256" fill="none" xmlns="http://www.w3.org/2000/svg">
<g clip-path="url(#clip0_229_83)">
<path fill-rule="evenodd" clip-rule="evenodd" d="M130.476 234.483L144.34 226.984C157.248 220.001 168.96 211.004 179.033 200.332L181.548 197.668C190.876 187.785 198.914 176.758 205.469 164.853L206.161 163.597C220.157 138.178 227.496 109.631 227.496 80.6136V63.1621L179.562 45.5641L179.115 45.3998L178.684 45.1957L151.276 32.2063L130.476 22.3481V234.483ZM137.985 2.66787C131.904 -0.213906 124.853 -0.223014 118.765 2.64304L96.302 13.2181L69.1398 26.0054L14.5392 45.9174C10.3125 47.4588 7.5 51.478 7.5 55.9772V72.5333C7.5 110.432 17.7467 147.626 37.1555 180.177L38.7028 182.772C44.2211 192.027 50.5722 200.76 57.6772 208.86L61.863 213.633C73.2363 226.6 86.8697 237.394 102.1 245.491L116.335 253.058C123.876 257.067 132.924 257.034 140.436 252.97L154.331 245.455C169.204 237.409 182.698 227.043 194.305 214.746L196.819 212.083C207.366 200.908 216.454 188.442 223.865 174.982L224.557 173.726C240.261 145.204 248.496 113.173 248.496 80.6136V55.9872C248.496 51.4903 245.69 47.4712 241.469 45.9214L187.247 26.0149L160.27 13.2297L137.985 2.66787Z" fill="white"/>
</g>
<defs>
<clipPath id="clip0_229_83">
<rect width="256" height="256" fill="white"/>
</clipPath>
</defs>
</svg>
