<svg width="256" height="256" viewBox="0 0 256 256" fill="none" xmlns="http://www.w3.org/2000/svg">
<g clip-path="url(#clip0_239_62)">
<path fill-rule="evenodd" clip-rule="evenodd" d="M18 55.2486C18 55.1613 18.0546 55.0833 18.1366 55.0534L73.1829 34.9789L100.774 21.9895L123.237 11.4144C126.484 9.88588 130.245 9.89073 133.488 11.4277L155.773 21.9895L183.181 34.9789L237.85 55.0496C237.938 55.0818 237.996 55.1653 237.996 55.2587V79.8851C237.996 110.674 230.209 140.962 215.359 167.933L214.667 169.189C207.684 181.872 199.121 193.618 189.183 204.147L186.669 206.81C175.829 218.295 163.226 227.977 149.335 235.491L135.441 243.006C131.022 245.397 125.699 245.416 121.263 243.058L107.028 235.491C92.9207 227.991 80.2921 217.992 69.7569 205.981L65.5712 201.208C58.8872 193.588 52.9126 185.373 47.7214 176.667L46.1741 174.072C27.7348 143.146 18 107.81 18 71.8047V55.2486ZM178.4 68.8493C186.601 60.6483 199.897 60.6482 208.098 68.8492C216.299 77.0503 216.299 90.3467 208.098 98.5477L118.813 187.833C113.761 192.884 106.777 194.824 100.24 193.653C95.795 193.019 91.5101 190.992 88.0904 187.572L48.2028 147.685C39.8065 139.288 39.8065 125.675 48.2028 117.279C56.5991 108.883 70.2121 108.883 78.6084 117.279L104.289 142.96L178.4 68.8493Z" fill="white"/>
<path d="M18.1366 55.0534L21.7338 64.918L21.7341 64.9179L18.1366 55.0534ZM73.1829 34.9789L76.7803 44.8434L77.226 44.6808L77.6552 44.4788L73.1829 34.9789ZM100.774 21.9895L105.247 31.4894L100.774 21.9895ZM123.237 11.4144L118.765 1.91453V1.91453L123.237 11.4144ZM133.488 11.4277L128.991 20.916L133.488 11.4277ZM155.773 21.9895L160.27 12.5012V12.5012L155.773 21.9895ZM183.181 34.9789L178.684 44.4672L179.115 44.6713L179.562 44.8356L183.181 34.9789ZM237.85 55.0496L234.231 64.9063L234.231 64.9064L237.85 55.0496ZM215.359 167.933L206.161 162.869V162.869L215.359 167.933ZM214.667 169.189L223.865 174.253L214.667 169.189ZM189.183 204.147L196.819 211.354L196.819 211.354L189.183 204.147ZM186.669 206.81L179.033 199.603L179.033 199.603L186.669 206.81ZM149.335 235.491L144.34 226.255H144.34L149.335 235.491ZM135.441 243.006L140.436 252.242H140.436L135.441 243.006ZM121.263 243.058L116.335 252.329H116.335L121.263 243.058ZM107.028 235.491L111.957 226.219H111.957L107.028 235.491ZM69.7569 205.981L61.863 212.904H61.863L69.7569 205.981ZM65.5712 201.208L73.4651 194.285L65.5712 201.208ZM47.7214 176.667L56.74 171.289L56.74 171.289L47.7214 176.667ZM46.1741 174.072L37.1555 179.449L37.1555 179.449L46.1741 174.072ZM178.4 68.8493L185.824 76.2739L178.4 68.8493ZM208.098 98.5477L215.523 105.972V105.972L208.098 98.5477ZM118.813 187.833L111.388 180.408L118.813 187.833ZM100.24 193.653L102.093 183.318L101.909 183.285L101.723 183.258L100.24 193.653ZM88.0904 187.572L80.6658 194.997L80.6658 194.997L88.0904 187.572ZM48.2028 147.685L55.6274 140.26L48.2028 147.685ZM78.6084 117.279L71.1838 124.704L78.6084 117.279ZM104.289 142.96L96.8645 150.384L104.289 157.809L111.714 150.384L104.289 142.96ZM14.5395 45.1888C10.3124 46.7302 7.5 50.7496 7.5 55.2486H28.5C28.5 59.5731 25.7967 63.4364 21.7338 64.918L14.5395 45.1888ZM69.5855 25.1143L14.5392 45.1889L21.7341 64.9179L76.7803 44.8434L69.5855 25.1143ZM96.302 12.4896L68.7106 25.4789L77.6552 44.4788L105.247 31.4894L96.302 12.4896ZM118.765 1.91453L96.302 12.4896L105.247 31.4894L127.71 20.9144L118.765 1.91453ZM137.985 1.93935C131.904 -0.942422 124.853 -0.95153 118.765 1.91453L127.71 20.9144C128.116 20.7233 128.586 20.7239 128.991 20.916L137.985 1.93935ZM160.27 12.5012L137.985 1.93935L128.991 20.916L151.276 31.4778L160.27 12.5012ZM187.678 25.4905L160.27 12.5012L151.276 31.4778L178.684 44.4672L187.678 25.4905ZM241.469 45.1929L186.8 25.1221L179.562 44.8356L234.231 64.9063L241.469 45.1929ZM248.496 55.2587C248.496 50.7616 245.69 46.7426 241.469 45.1929L234.231 64.9064C230.185 63.421 227.496 59.569 227.496 55.2587H248.496ZM248.496 79.8851V55.2587H227.496V79.8851H248.496ZM224.557 172.997C240.261 144.475 248.496 112.445 248.496 79.8851H227.496C227.496 108.903 220.157 137.449 206.161 162.869L224.557 172.997ZM223.865 174.253L224.557 172.997L206.161 162.869L205.469 164.125L223.865 174.253ZM196.819 211.354C207.366 200.18 216.454 187.713 223.865 174.253L205.469 164.125C198.914 176.03 190.876 187.056 181.548 196.94L196.819 211.354ZM194.305 214.018L196.819 211.354L181.548 196.939L179.033 199.603L194.305 214.018ZM154.331 244.726C169.204 236.681 182.698 226.315 194.305 214.018L179.033 199.603C168.96 210.276 157.248 219.273 144.34 226.255L154.331 244.726ZM140.436 252.242L154.331 244.726L144.34 226.255L130.445 233.771L140.436 252.242ZM116.335 252.329C123.876 256.338 132.924 256.305 140.436 252.242L130.445 233.771C129.119 234.488 127.523 234.494 126.192 233.786L116.335 252.329ZM102.1 244.762L116.335 252.329L126.192 233.786L111.957 226.219L102.1 244.762ZM61.863 212.904C73.2363 225.871 86.8697 236.666 102.1 244.762L111.957 226.219C98.9717 219.316 87.3478 210.113 77.6508 199.057L61.863 212.904ZM57.6772 208.132L61.863 212.904L77.6508 199.057L73.4651 194.285L57.6772 208.132ZM38.7028 182.044C44.2211 191.299 50.5722 200.031 57.6772 208.132L73.4651 194.285C67.2023 187.144 61.6041 179.447 56.74 171.289L38.7028 182.044ZM37.1555 179.449L38.7029 182.044L56.74 171.289L55.1927 168.694L37.1555 179.449ZM7.5 71.8047C7.5 109.703 17.7467 146.897 37.1555 179.449L55.1927 168.694C37.723 139.395 28.5 105.917 28.5 71.8047H7.5ZM7.5 55.2486V71.8047H28.5V55.2486H7.5ZM215.523 61.4246C203.221 49.1231 183.276 49.1231 170.975 61.4246L185.824 76.2739C189.925 72.1734 196.573 72.1734 200.673 76.2739L215.523 61.4246ZM215.523 105.972C227.824 93.6708 227.824 73.7261 215.523 61.4246L200.673 76.2739C204.774 80.3744 204.774 87.0226 200.673 91.1231L215.523 105.972ZM126.238 195.257L215.523 105.972L200.673 91.1231L111.388 180.408L126.238 195.257ZM98.3881 203.988C108.162 205.74 118.654 202.841 126.238 195.257L111.388 180.408C108.869 182.928 105.392 183.909 102.093 183.318L98.3881 203.988ZM101.723 183.258C99.4501 182.934 97.2732 181.906 95.515 180.148L80.6658 194.997C85.7469 200.078 92.1399 203.104 98.7577 204.048L101.723 183.258ZM95.515 180.148L55.6274 140.26L40.7782 155.109L80.6658 194.997L95.515 180.148ZM55.6274 140.26C51.3316 135.964 51.3316 128.999 55.6274 124.704L40.7782 109.854C28.2814 122.351 28.2814 142.612 40.7782 155.109L55.6274 140.26ZM55.6274 124.704C59.9232 120.408 66.888 120.408 71.1838 124.704L86.033 109.854C73.5362 97.3576 53.275 97.3576 40.7782 109.854L55.6274 124.704ZM71.1838 124.704L96.8645 150.384L111.714 135.535L86.033 109.854L71.1838 124.704ZM170.975 61.4246L96.8645 135.535L111.714 150.384L185.824 76.2739L170.975 61.4246Z" fill="white"/>
</g>
<defs>
<clipPath id="clip0_239_62">
<rect width="256" height="256" fill="white"/>
</clipPath>
</defs>
</svg>
