<svg width="256" height="258" viewBox="0 0 256 258" fill="none" xmlns="http://www.w3.org/2000/svg">
<path d="M119.009 2.82025C125.095 0.120832 132.04 0.12926 138.119 2.84368L190.612 26.2851L247.826 46.0771C252.543 47.7089 255.708 52.1515 255.708 57.1435V80.3993C255.708 113.802 246.77 146.69 229.925 175.518C221.815 189.396 211.923 202.219 200.542 213.58L198.494 215.624C186 228.096 171.626 238.531 155.897 246.548L140.528 254.381C133.027 258.204 124.155 258.235 116.627 254.465L100.894 246.584C84.7809 238.513 70.2414 227.625 57.9629 214.435L54.1172 210.304C46.4312 202.047 39.5272 193.094 33.4951 183.561L32.377 181.794C11.6346 149.015 0.623047 111.021 0.623047 72.2304V57.1337C0.623283 52.1395 3.79507 47.6955 8.51855 46.0722L66.123 26.2783L119.009 2.82025ZM130.779 233.535L145.453 226.056C159.038 219.132 171.454 210.119 182.245 199.347L184.293 197.302C194.27 187.342 202.95 176.091 210.066 163.913C224.861 138.595 232.708 109.709 232.708 80.3993V65.1845L182.621 47.8583L182.148 47.6943L181.691 47.4911L130.779 24.7548V233.535Z" fill="white"/>
</svg>
