<svg width="256" height="257" viewBox="0 0 256 257" fill="none" xmlns="http://www.w3.org/2000/svg">
<path d="M123.237 12.4141C126.484 10.8855 130.245 10.8908 133.488 12.4277L155.773 22.9893L183.181 35.9785L237.85 56.0498C237.937 56.082 237.996 56.1654 237.996 56.2588V80.8848C237.996 111.673 230.208 141.962 215.358 168.933L214.667 170.188C207.684 182.871 199.121 194.618 189.184 205.146L186.669 207.811C175.829 219.295 163.226 228.977 149.335 236.49L135.44 244.007C131.022 246.397 125.7 246.416 121.264 244.058L107.028 236.49C92.9208 228.991 80.292 218.992 69.7568 206.98L65.5713 202.208C58.8875 194.587 52.9128 186.373 47.7217 177.667L46.1738 175.071C27.7347 144.146 18 108.81 18 72.8047V56.249C18 56.1617 18.0547 56.0836 18.1367 56.0537L73.1826 35.9785L100.774 22.9893L123.237 12.4141ZM195.065 61.7158C185.281 51.9318 169.419 51.9318 159.635 61.7158L127.923 93.4277L96.2422 61.7471C86.4406 51.9456 70.5486 51.9455 60.7471 61.7471C50.9455 71.5486 50.9456 87.4406 60.7471 97.2422L92.4277 128.923L60.7158 160.635C50.9318 170.419 50.9318 186.281 60.7158 196.065C70.4998 205.849 86.3625 205.849 96.1465 196.065L127.858 164.354L159.603 196.098C169.404 205.899 185.296 205.899 195.098 196.098C204.899 186.296 204.899 170.404 195.098 160.603L163.354 128.858L195.065 97.1465C204.849 87.3625 204.849 71.4998 195.065 61.7158Z" fill="white"/>
<path d="M123.237 12.4141L118.765 2.91413L118.765 2.91419L123.237 12.4141ZM133.488 12.4277L128.991 21.9161L128.991 21.9161L133.488 12.4277ZM155.773 22.9893L160.27 13.5009L160.27 13.5009L155.773 22.9893ZM183.181 35.9785L178.684 45.4668L179.114 45.6709L179.562 45.8352L183.181 35.9785ZM237.85 56.0498L234.231 65.9065L234.231 65.9067L237.85 56.0498ZM215.358 168.933L206.16 163.868L206.16 163.869L215.358 168.933ZM214.667 170.188L223.865 175.253L223.865 175.252L214.667 170.188ZM189.184 205.146L196.819 212.354L196.819 212.354L189.184 205.146ZM186.669 207.811L179.033 200.603L179.033 200.603L186.669 207.811ZM149.335 236.49L144.339 227.255L144.339 227.255L149.335 236.49ZM135.44 244.007L140.436 253.242L140.436 253.242L135.44 244.007ZM121.264 244.058L116.335 253.329L116.335 253.329L121.264 244.058ZM107.028 236.49L102.1 245.762L102.1 245.762L107.028 236.49ZM69.7568 206.98L61.8627 213.904L61.8629 213.904L69.7568 206.98ZM65.5713 202.208L73.4654 195.285L73.4652 195.284L65.5713 202.208ZM47.7217 177.667L56.7402 172.29L56.74 172.289L47.7217 177.667ZM46.1738 175.071L37.1552 180.449L37.1555 180.449L46.1738 175.071ZM18.1367 56.0537L14.5392 46.1893L14.5377 46.1898L18.1367 56.0537ZM73.1826 35.9785L76.7802 45.843L77.2258 45.6805L77.6549 45.4785L73.1826 35.9785ZM100.774 22.9893L105.247 32.4892L105.247 32.4891L100.774 22.9893ZM195.065 61.7158L202.49 54.2912L202.49 54.2912L195.065 61.7158ZM159.635 61.7158L152.21 54.2912L159.635 61.7158ZM127.923 93.4277L120.498 100.852L127.923 108.277L135.347 100.852L127.923 93.4277ZM96.2422 61.7471L103.667 54.3224L103.667 54.3224L96.2422 61.7471ZM60.7471 61.7471L53.3224 54.3224L53.3224 54.3224L60.7471 61.7471ZM60.7471 97.2422L53.3224 104.667L53.3224 104.667L60.7471 97.2422ZM92.4277 128.923L99.8524 136.347L107.277 128.923L99.8524 121.498L92.4277 128.923ZM60.7158 160.635L53.2912 153.21L60.7158 160.635ZM60.7158 196.065L53.2912 203.49L53.2912 203.49L60.7158 196.065ZM96.1465 196.065L88.7219 188.641L96.1465 196.065ZM127.858 164.354L135.283 156.929L127.858 149.504L120.434 156.929L127.858 164.354ZM195.098 196.098L202.522 203.522L202.522 203.522L195.098 196.098ZM163.354 128.858L155.929 121.434L148.504 128.858L155.929 136.283L163.354 128.858ZM123.237 12.4141L127.71 21.914C128.115 21.7233 128.585 21.7236 128.991 21.9161L133.488 12.4277L137.985 2.93941C131.905 0.0580348 124.854 0.0477289 118.765 2.91413L123.237 12.4141ZM133.488 12.4277L128.991 21.9161L151.277 32.4776L155.773 22.9893L160.27 13.5009L137.985 2.93938L133.488 12.4277ZM155.773 22.9893L151.277 32.4776L178.684 45.4668L183.181 35.9785L187.678 26.4902L160.27 13.5009L155.773 22.9893ZM183.181 35.9785L179.562 45.8352L234.231 65.9065L237.85 56.0498L241.468 46.1931L186.799 26.1218L183.181 35.9785ZM237.85 56.0498L234.231 65.9067C230.228 64.437 227.496 60.6141 227.496 56.2588H237.996H248.496C248.496 51.7167 245.647 47.727 241.468 46.1929L237.85 56.0498ZM237.996 56.2588H227.496V80.8848H237.996H248.496V56.2588H237.996ZM237.996 80.8848H227.496C227.496 109.902 220.156 138.449 206.16 163.868L215.358 168.933L224.556 173.997C240.26 145.475 248.496 113.444 248.496 80.8848H237.996ZM215.358 168.933L206.16 163.869L205.469 165.124L214.667 170.188L223.865 175.252L224.557 173.997L215.358 168.933ZM214.667 170.188L205.469 165.124C198.914 177.03 190.876 188.056 181.548 197.939L189.184 205.146L196.819 212.354C207.367 201.179 216.454 188.713 223.865 175.253L214.667 170.188ZM189.184 205.146L181.548 197.939L179.033 200.603L186.669 207.811L194.305 215.018L196.819 212.354L189.184 205.146ZM186.669 207.811L179.033 200.603C168.96 211.276 157.248 220.272 144.339 227.255L149.335 236.49L154.331 245.726C169.203 237.681 182.698 227.315 194.305 215.018L186.669 207.811ZM149.335 236.49L144.339 227.255L130.444 234.772L135.44 244.007L140.436 253.242L154.331 245.725L149.335 236.49ZM135.44 244.007L130.445 234.771C129.12 235.488 127.524 235.494 126.192 234.786L121.264 244.058L116.335 253.329C123.876 257.337 132.923 257.306 140.436 253.242L135.44 244.007ZM121.264 244.058L126.192 234.786L111.957 227.219L107.028 236.49L102.1 245.762L116.335 253.329L121.264 244.058ZM107.028 236.49L111.957 227.219C98.9717 220.316 87.3476 211.113 77.6507 200.057L69.7568 206.98L61.8629 213.904C73.2363 226.871 86.8698 237.665 102.1 245.762L107.028 236.49ZM69.7568 206.98L77.651 200.057L73.4654 195.285L65.5713 202.208L57.6771 209.131L61.8627 213.904L69.7568 206.98ZM65.5713 202.208L73.4652 195.284C67.2024 188.144 61.6042 180.447 56.7402 172.29L47.7217 177.667L38.7031 183.044C44.2213 192.299 50.5725 201.031 57.6774 209.132L65.5713 202.208ZM47.7217 177.667L56.74 172.289L55.1921 169.694L46.1738 175.071L37.1555 180.449L38.7034 183.045L47.7217 177.667ZM46.1738 175.071L55.1924 169.694C37.7228 140.395 28.5 106.917 28.5 72.8047H18H7.5C7.5 110.703 17.7465 147.897 37.1552 180.449L46.1738 175.071ZM18 72.8047H28.5V56.249H18H7.5V72.8047H18ZM18 56.249H28.5C28.5 60.5791 25.7917 64.4378 21.7357 65.9176L18.1367 56.0537L14.5377 46.1898C10.3177 47.7295 7.5 51.7443 7.5 56.249H18ZM18.1367 56.0537L21.7343 65.9182L76.7802 45.843L73.1826 35.9785L69.5851 26.1141L14.5392 46.1893L18.1367 56.0537ZM73.1826 35.9785L77.6549 45.4785L105.247 32.4892L100.774 22.9893L96.3022 13.4893L68.7104 26.4786L73.1826 35.9785ZM100.774 22.9893L105.247 32.4891L127.71 21.9139L123.237 12.4141L118.765 2.91419L96.302 13.4894L100.774 22.9893ZM195.065 61.7158L202.49 54.2912C188.606 40.4067 166.095 40.4067 152.21 54.2912L159.635 61.7158L167.059 69.1404C172.743 63.457 181.957 63.457 187.641 69.1404L195.065 61.7158ZM159.635 61.7158L152.21 54.2912L120.498 86.0031L127.923 93.4277L135.347 100.852L167.059 69.1404L159.635 61.7158ZM127.923 93.4277L135.347 86.0031L103.667 54.3224L96.2422 61.7471L88.8176 69.1717L120.498 100.852L127.923 93.4277ZM96.2422 61.7471L103.667 54.3224C89.7647 40.4205 67.2246 40.4203 53.3224 54.3224L60.7471 61.7471L68.1717 69.1717C73.8727 63.4707 83.1164 63.4707 88.8176 69.1717L96.2422 61.7471ZM60.7471 61.7471L53.3224 54.3224C39.4203 68.2246 39.4205 90.7647 53.3224 104.667L60.7471 97.2422L68.1717 89.8176C62.4707 84.1164 62.4707 74.8727 68.1717 69.1717L60.7471 61.7471ZM60.7471 97.2422L53.3224 104.667L85.0031 136.347L92.4277 128.923L99.8524 121.498L68.1717 89.8176L60.7471 97.2422ZM92.4277 128.923L85.0031 121.498L53.2912 153.21L60.7158 160.635L68.1404 168.059L99.8524 136.347L92.4277 128.923ZM60.7158 160.635L53.2912 153.21C39.4067 167.095 39.4067 189.606 53.2912 203.49L60.7158 196.065L68.1404 188.641C62.457 182.957 62.457 173.743 68.1404 168.059L60.7158 160.635ZM60.7158 196.065L53.2912 203.49C67.1757 217.374 89.6866 217.375 103.571 203.49L96.1465 196.065L88.7219 188.641C83.0384 194.324 73.8239 194.324 68.1404 188.641L60.7158 196.065ZM96.1465 196.065L103.571 203.49L135.283 171.778L127.858 164.354L120.434 156.929L88.7219 188.641L96.1465 196.065ZM127.858 164.354L120.434 171.778L152.178 203.522L159.603 196.098L167.027 188.673L135.283 156.929L127.858 164.354ZM159.603 196.098L152.178 203.522C166.08 217.424 188.62 217.424 202.522 203.522L195.098 196.098L187.673 188.673C181.972 194.374 172.728 194.374 167.027 188.673L159.603 196.098ZM195.098 196.098L202.522 203.522C216.424 189.62 216.424 167.08 202.522 153.178L195.098 160.603L187.673 168.027C193.374 173.728 193.374 182.972 187.673 188.673L195.098 196.098ZM195.098 160.603L202.522 153.178L170.778 121.434L163.354 128.858L155.929 136.283L187.673 168.027L195.098 160.603ZM163.354 128.858L170.778 136.283L202.49 104.571L195.065 97.1465L187.641 89.7219L155.929 121.434L163.354 128.858ZM195.065 97.1465L202.49 104.571C216.375 90.6866 216.374 68.1757 202.49 54.2912L195.065 61.7158L187.641 69.1404C193.324 74.8239 193.324 84.0384 187.641 89.7219L195.065 97.1465Z" fill="white"/>
</svg>
