<svg width="256" height="256" viewBox="0 0 256 256" fill="none" xmlns="http://www.w3.org/2000/svg">
<path d="M98.5196 2.3442C100.758 0.105786 104.106 -0.601995 107.059 0.538536L129.458 9.1899C131.019 9.7928 132.436 10.7158 133.619 11.8989L174.719 52.9985L186.757 40.9614C194.567 33.1509 207.232 33.1509 215.042 40.9614C222.852 48.7719 222.852 61.4352 215.042 69.2456L203.003 81.2827L244.102 122.381C245.285 123.564 246.208 124.983 246.811 126.543L255.463 148.942C256.603 151.895 255.896 155.243 253.657 157.481L206.481 204.657C204.242 206.895 200.895 207.603 197.941 206.462L175.543 197.811C173.982 197.208 172.564 196.285 171.381 195.102L130.282 154.003L34.1427 250.143C26.3321 257.953 13.668 257.953 5.85751 250.143C-1.95292 242.333 -1.95274 229.669 5.85751 221.859L101.998 125.719L60.8985 84.6196C59.7155 83.4366 58.7924 82.0191 58.1895 80.4585L49.5372 58.06C48.3965 55.107 49.1044 51.7585 51.3429 49.52L98.5196 2.3442Z" fill="white"/>
</svg>
