<svg width="256" height="256" viewBox="0 0 256 256" fill="none" xmlns="http://www.w3.org/2000/svg">
<path d="M128 0C198.692 0 256 57.3076 256 128C256 198.692 198.692 256 128 256C57.3076 256 0 198.692 0 128C0 57.3076 57.3076 0 128 0ZM53 143C53 162.891 60.9016 181.968 74.9668 196.033C89.032 210.098 108.109 218 128 218C147.891 218 166.968 210.098 181.033 196.033C195.098 181.968 203 162.891 203 143H53ZM78 71C64.1929 71 53 82.1929 53 96C53 109.807 64.1929 121 78 121C91.8071 121 103 109.807 103 96C103 82.1929 91.8071 71 78 71ZM178 71C164.193 71 153 82.1929 153 96C153 109.807 164.193 121 178 121C191.807 121 203 109.807 203 96C203 82.1929 191.807 71 178 71Z" fill="white"/>
</svg>
