<svg width="256" height="256" viewBox="0 0 256 256" fill="none" xmlns="http://www.w3.org/2000/svg">
<path d="M117.672 7.21582C121.197 -2.40484 134.803 -2.40478 138.328 7.21582L167.789 87.6162C167.891 87.8923 168.108 88.1107 168.384 88.2119L248.786 117.672C258.406 121.197 258.406 134.804 248.786 138.329L168.384 167.789C168.108 167.89 167.891 168.108 167.789 168.384L138.328 248.785C134.803 258.405 121.198 258.405 117.672 248.785L88.2123 168.384C88.1111 168.108 87.8926 167.89 87.6166 167.789L7.21521 138.329C-2.40516 134.804 -2.40504 121.197 7.21521 117.672L87.6166 88.2119C87.8927 88.1107 88.1111 87.8923 88.2123 87.6162L117.672 7.21582ZM89.9408 163.354C90.1363 163.451 90.3257 163.558 90.5082 163.675L90.2299 163.507C90.1351 163.453 90.0387 163.402 89.9408 163.354ZM8.69373 122.46C8.53563 122.525 8.38275 122.596 8.23474 122.671C8.38269 122.596 8.5357 122.526 8.69373 122.461V122.46Z" fill="white"/>
</svg>
