<svg width="256" height="256" viewBox="0 0 256 256" fill="none" xmlns="http://www.w3.org/2000/svg">
<path d="M222.576 131.922C228.831 125.215 239.339 124.847 246.047 131.102C252.755 137.357 253.122 147.866 246.866 154.574L164.13 243.297C163.905 243.539 163.673 243.771 163.438 243.996C157.263 250.549 146.948 250.89 140.355 244.743L91.9759 199.628C85.3622 193.461 85 183.1 91.1673 176.486C97.3349 169.872 107.697 169.51 114.311 175.677L150.395 209.326L222.576 131.922Z" fill="white"/>
<path fill-rule="evenodd" clip-rule="evenodd" d="M167.426 176.92C168.184 178.886 166.734 181 164.627 181H138.324C136.657 181 135.165 179.967 134.579 178.407L121.588 143.821C121.002 142.261 119.51 141.227 117.843 141.227H54.0232C52.3603 141.227 50.8708 142.256 50.2822 143.812L37.1855 178.416C36.5969 179.971 35.1074 181 33.4445 181H8.38481C6.27492 181 4.8242 178.88 5.58862 176.913L70.644 9.5508C71.2417 8.01301 72.7224 7 74.3722 7H99.1165C100.77 7 102.253 8.01739 102.848 9.56004L167.426 176.92ZM85.7567 45.7773C84.4355 49.9198 83.032 54.2282 81.5456 58.7021C80.0591 63.1764 78.5723 67.4854 77.0859 71.6283C75.7646 75.771 74.5255 79.4993 73.3694 82.8135L63.4294 109.077C62.6866 111.04 64.1367 113.139 66.2352 113.139H105.731C107.826 113.139 109.276 111.046 108.539 109.084L98.3913 82.0677C97.5655 80.0791 96.4099 76.9305 94.9235 72.6222C93.6022 68.3137 92.1154 63.6735 90.4638 58.7021C88.9698 54.0554 87.6104 49.7479 86.3866 45.7792C86.2911 45.4693 85.8552 45.4683 85.7567 45.7773Z" fill="white"/>
</svg>
