<svg width="256" height="256" viewBox="0 0 256 256" fill="none" xmlns="http://www.w3.org/2000/svg">
<path fill-rule="evenodd" clip-rule="evenodd" d="M52 181L52 128L52 75C52 71.134 55.134 68 59 68L97 68C104.18 68 110 62.1797 110 55C110 47.8203 104.18 42 97 42L59 42C40.7746 42 26 56.7746 26 75L26 128L26 181C26 199.225 40.7746 214 59 214H97C104.18 214 110 208.18 110 201C110 193.82 104.18 188 97 188H59C55.134 188 52 184.866 52 181ZM204 181V128V75C204 71.134 200.866 68 197 68L159 68C151.82 68 146 62.1797 146 55C146 47.8203 151.82 42 159 42L197 42C215.225 42 230 56.7746 230 75V128V181C230 199.225 215.225 214 197 214H159C151.82 214 146 208.18 146 201C146 193.82 151.82 188 159 188H197C200.866 188 204 184.866 204 181Z" fill="white"/>
</svg>
