<svg width="256" height="256" viewBox="0 0 256 256" fill="none" xmlns="http://www.w3.org/2000/svg">
<path d="M120.392 13.4164C122.786 6.04591 133.214 6.04592 135.608 13.4164L159.881 88.1196C160.952 91.4158 164.024 93.6474 167.489 93.6474H246.037C253.787 93.6474 257.009 103.564 250.739 108.12L187.193 154.289C184.389 156.326 183.216 159.937 184.287 163.233L208.559 237.936C210.954 245.307 202.518 251.436 196.249 246.88L132.702 200.711C129.898 198.674 126.102 198.674 123.298 200.711L59.7514 246.88C53.4817 251.436 45.0458 245.307 47.4407 237.936L71.7132 163.233C72.7842 159.937 71.6109 156.326 68.807 154.289L5.2607 108.12C-1.00901 103.564 2.2132 93.6474 9.96299 93.6474H88.5106C91.9764 93.6474 95.048 91.4158 96.119 88.1196L120.392 13.4164Z" fill="white"/>
</svg>
