<svg width="256" height="256" viewBox="0 0 256 256" fill="none" xmlns="http://www.w3.org/2000/svg">
<path fill-rule="evenodd" clip-rule="evenodd" d="M106.435 190.48C112.675 193.36 120.115 194.8 128.755 194.8C136.795 194.8 143.815 193.3 149.815 190.3C155.935 187.3 160.675 183.1 164.035 177.7C167.395 172.3 169.075 166 169.075 158.8C169.075 149.92 166.675 142.18 161.875 135.58C160.295 133.407 158.5 131.442 156.49 129.685L182.979 130.19C185.74 130.243 188.021 128.047 188.073 125.286C188.126 122.525 185.93 120.244 183.17 120.192L134.421 119.263L123.535 115.78C118.135 114.1 113.995 111.28 111.115 107.32C108.235 103.36 106.795 98.6799 106.795 93.2799C106.795 87.2799 108.715 82.5999 112.555 79.2399C116.515 75.8799 121.975 74.1999 128.935 74.1999C136.015 74.1999 141.475 76.0599 145.315 79.7799C149.275 83.3799 151.255 88.4199 151.255 94.8999H167.455C167.335 84.2199 163.795 75.6999 156.835 69.3399C149.875 62.8599 140.635 59.6199 129.115 59.6199C121.315 59.6199 114.535 61.1199 108.775 64.1199C103.015 66.9999 98.5151 71.0799 95.2751 76.3599C92.1551 81.5199 90.5951 87.6399 90.5951 94.7199C90.5951 103.48 92.9951 111.1 97.7951 117.58C98.0522 117.919 98.3149 118.252 98.5832 118.581L73.1895 118.097C70.4286 118.044 68.1478 120.24 68.0952 123.001C68.0426 125.762 70.2381 128.043 72.999 128.095L111.913 128.836C114.022 129.836 116.276 130.704 118.675 131.44L136.495 137.02C141.775 138.58 145.795 141.34 148.555 145.3C151.435 149.26 152.875 153.88 152.875 159.16C152.875 165.76 150.715 170.92 146.395 174.64C142.195 178.36 136.315 180.22 128.755 180.22C120.715 180.22 114.415 178.3 109.855 174.46C105.415 170.62 103.195 165.4 103.195 158.8H86.9951C87.1151 166.24 88.8551 172.66 92.2151 178.06C95.5751 183.46 100.315 187.6 106.435 190.48Z" fill="white"/>
</svg>
