<svg width="256" height="256" viewBox="0 0 256 256" fill="none" xmlns="http://www.w3.org/2000/svg">
<path d="M184.249 68.6711C182.214 68.6711 180.526 67.1366 180.133 65.14C178.204 55.3462 173.019 47.6259 164.577 41.9791C155.145 35.5893 143.274 32.3943 128.964 32.3943C118.719 32.3943 109.856 34.012 102.375 37.2474C94.8948 40.4019 89.0811 44.7697 84.9343 50.3507C80.8688 55.8509 78.8361 62.1194 78.8361 69.1564C78.8361 75.061 80.2184 80.1567 82.9829 84.4436C85.8287 88.7305 89.5283 92.3299 94.0817 95.2417C98.7163 98.0727 103.676 100.459 108.961 102.4C114.246 104.26 119.328 105.797 124.207 107.01L148.6 113.319C156.568 115.261 164.74 117.889 173.115 121.206C181.49 124.522 189.255 128.89 196.41 134.309C203.565 139.728 209.338 146.442 213.729 154.449C218.201 162.457 220.437 172.042 220.437 183.204C220.437 197.278 216.778 209.774 209.46 220.694C202.224 231.613 191.694 240.228 177.871 246.537C164.13 252.846 147.502 256 127.988 256C109.287 256 93.106 253.048 79.4459 247.143C65.7859 241.239 55.0936 232.867 47.3692 222.028C40.3787 212.147 36.2184 200.608 34.8883 187.414C34.6581 185.131 36.4917 183.204 38.7862 183.204H68.6847C70.7679 183.204 72.4823 184.808 72.8051 186.866C73.9611 194.236 76.7438 200.497 81.1534 205.649C86.3572 211.554 92.984 215.962 101.034 218.874C109.165 221.705 118.068 223.12 127.744 223.12C138.396 223.12 147.868 221.462 156.162 218.146C164.537 214.749 171.123 210.058 175.92 204.072C180.717 198.006 183.116 190.928 183.116 182.84C183.116 175.479 181.002 169.453 176.774 164.762C172.627 160.071 166.976 156.188 159.821 153.115C152.747 150.041 144.738 147.331 135.794 144.986L106.278 136.978C86.2759 131.559 70.4205 123.592 58.7119 113.077C47.0846 102.562 41.271 88.6496 41.271 71.3403C41.271 57.0237 45.1738 44.527 52.9796 33.8502C60.7853 23.1735 71.3556 14.8828 84.6904 8.97821C98.0252 2.99274 113.067 0 129.817 0C146.73 0 161.65 2.95229 174.578 8.85688C187.588 14.7615 197.833 22.8904 205.313 33.2436C212.02 42.4531 215.851 52.8979 216.806 64.5778C216.989 66.8177 215.171 68.6711 212.923 68.6711H184.249Z" fill="white"/>
<path d="M17 125.011C17 123.355 18.3431 122.011 20 122.011H235C236.657 122.011 238 123.355 238 125.011V142.306C238 143.963 236.657 145.306 235 145.306H20C18.3431 145.306 17 143.963 17 142.306V125.011Z" fill="white"/>
</svg>
