<svg width="256" height="256" viewBox="0 0 256 256" fill="none" xmlns="http://www.w3.org/2000/svg">
<path fill-rule="evenodd" clip-rule="evenodd" d="M204 64C204 55.1634 196.837 48 188 48H67C58.1634 48 51 55.1634 51 64C51 72.8366 58.1634 80 67 80H188C196.837 80 204 72.8366 204 64ZM182 128C182 119.163 174.837 112 166 112H89C80.1634 112 73 119.163 73 128C73 136.837 80.1634 144 89 144H166C174.837 144 182 136.837 182 128ZM194 176C202.837 176 210 183.163 210 192C210 200.837 202.837 208 194 208H61C52.1634 208 45 200.837 45 192C45 183.163 52.1635 176 61 176H194Z" fill="white"/>
</svg>
