<svg width="256" height="256" viewBox="0 0 256 256" fill="none" xmlns="http://www.w3.org/2000/svg">
<path d="M66.5096 256C65.9573 256 65.5096 255.552 65.5096 255V238.941C65.5096 238.389 65.9573 237.941 66.5096 237.941H73.7382C78.9855 237.941 83.7557 237.463 88.0489 236.507C92.5806 235.312 96.1582 233.041 98.7819 229.695C101.644 226.109 103.075 220.932 103.075 214V17.9272H68.7295C61.8127 17.9272 56.3269 19.3614 52.2723 22.2297C48.2176 24.859 45.2362 28.4444 43.3281 32.986C41.42 37.2885 40.1082 42.0691 39.3927 47.3277L37.7065 61.8604C37.648 62.3647 37.2209 62.7451 36.7132 62.7451H20.0289C19.4655 62.7451 19.0133 62.2798 19.0293 61.7166L20.7611 0.971502C20.7766 0.430536 21.2195 0 21.7607 0H221.239C221.78 0 222.223 0.430535 222.239 0.971502L223.971 61.7166C223.987 62.2798 223.535 62.7451 222.971 62.7451H206.287C205.779 62.7451 205.352 62.3647 205.294 61.8604L203.607 47.3277C203.13 42.0691 201.819 37.2885 199.672 32.986C197.764 28.4444 194.782 24.859 190.728 22.2297C186.673 19.3614 181.068 17.9272 173.913 17.9272H139.209V214C139.209 221.41 140.521 225.866 143.145 229.69C145.768 233.275 149.346 235.315 153.878 236.51C158.41 237.705 163.299 237.941 168.546 237.941H175.775C176.327 237.941 176.775 238.389 176.775 238.941V255C176.775 255.552 176.327 256 175.775 256H66.5096Z" fill="white"/>
</svg>
