<svg width="256" height="256" viewBox="0 0 256 256" fill="none" xmlns="http://www.w3.org/2000/svg">
<path d="M89.8313 16.254C78.9863 16.254 70.0618 16.8183 63.0578 17.9471C56.2796 19.0758 50.6312 21.4462 46.1125 25.0582C41.8197 28.6702 38.3176 33.7496 35.6064 40.2963C33.1211 46.6173 30.7487 55.0829 28.4894 65.6931H19L21.3723 0H239.628L242 65.6931H232.511C230.251 55.0829 227.766 46.6173 225.055 40.2963C222.569 33.7496 219.18 28.6702 214.888 25.0582C210.595 21.4462 204.946 19.0758 197.942 17.9471C190.938 16.8183 181.901 16.254 170.83 16.254H150.157V214.349C150.157 221.347 150.608 226.991 151.512 231.28C152.416 235.57 154.11 238.956 156.596 241.439C159.307 243.922 163.035 245.728 167.78 246.857C172.75 247.76 179.189 248.437 187.097 248.889V256H74.5805V248.889C82.4884 248.437 88.8146 247.76 93.5593 246.857C98.304 245.728 101.919 243.81 104.404 241.101C107.116 238.166 108.81 234.215 109.488 229.249C110.392 224.282 110.843 217.735 110.843 209.608V16.254H89.8313Z" fill="white"/>
</svg>
