<svg width="256" height="256" viewBox="0 0 256 256" fill="none" xmlns="http://www.w3.org/2000/svg">
<path fill-rule="evenodd" clip-rule="evenodd" d="M256 64C256 55.1634 248.837 48 240 48H119C110.163 48 103 55.1634 103 64C103 72.8366 110.163 80 119 80H240C248.837 80 256 72.8366 256 64ZM256 128C256 119.163 248.837 112 240 112H163C154.163 112 147 119.163 147 128C147 136.837 154.163 144 163 144H240C248.837 144 256 136.837 256 128ZM240 176C248.837 176 256 183.163 256 192C256 200.837 248.837 208 240 208H107C98.1634 208 91 200.837 91 192C91 183.163 98.1635 176 107 176H240Z" fill="white"/>
</svg>
