<svg width="256" height="256" viewBox="0 0 256 256" fill="none" xmlns="http://www.w3.org/2000/svg">
<path d="M72.5096 256C71.9573 256 71.5096 255.552 71.5096 255V238.941C71.5096 238.389 71.9573 237.941 72.5096 237.941H79.7382C84.9855 237.941 89.7557 237.463 94.0489 236.507C98.5806 235.312 102.158 233.041 104.782 229.695C107.644 226.109 109.075 220.932 109.075 214V17.9272H74.7295C67.8127 17.9272 62.3269 19.3614 58.2723 22.2297C54.2176 24.859 51.2362 28.4444 49.3281 32.986C47.42 37.2885 46.1082 42.0691 45.3927 47.3277L43.7065 61.8604C43.648 62.3647 43.2209 62.7451 42.7132 62.7451H26.0289C25.4655 62.7451 25.0133 62.2798 25.0293 61.7166L26.7611 0.971502C26.7766 0.430536 27.2195 0 27.7607 0H227.239C227.78 0 228.223 0.430535 228.239 0.971502L229.971 61.7166C229.987 62.2798 229.535 62.7451 228.971 62.7451H212.287C211.779 62.7451 211.352 62.3647 211.294 61.8604L209.607 47.3277C209.13 42.0691 207.819 37.2885 205.672 32.986C203.764 28.4444 200.782 24.859 196.728 22.2297C192.673 19.3614 187.068 17.9272 179.913 17.9272H145.209V214C145.209 221.41 146.521 225.866 149.145 229.69C151.768 233.275 155.346 235.315 159.878 236.51C164.41 237.705 169.299 237.941 174.546 237.941H181.775C182.327 237.941 182.775 238.389 182.775 238.941V255C182.775 255.552 182.327 256 181.775 256H72.5096Z" fill="white"/>
</svg>
