<svg width="256" height="256" viewBox="0 0 256 256" fill="none" xmlns="http://www.w3.org/2000/svg">
<path d="M91.082 214C90.5297 214 90.082 213.552 90.082 213V202.867C90.082 202.314 90.5297 201.867 91.082 201.867H95.5812C99.0878 201.867 102.276 201.546 105.145 200.903C108.173 200.1 110.564 198.574 112.318 196.326C114.23 193.917 115.187 190.439 115.187 185.781V54.0448H92.2339C87.6114 54.0448 83.9453 55.0084 81.2356 56.9356C78.5259 58.7022 76.5334 61.1111 75.2583 64.1625C73.9831 67.0532 73.1065 70.2652 72.6283 73.7983L71.535 83.2715C71.4768 83.7761 71.0495 84.1569 70.5416 84.1569H60.0288C59.4654 84.1569 59.0132 83.6917 59.0292 83.1285L60.1679 42.9717C60.1833 42.4306 60.6263 42 61.1675 42H193.832C194.374 42 194.817 42.4306 194.832 42.9717L195.971 83.1285C195.987 83.6917 195.535 84.1569 194.971 84.1569H184.458C183.95 84.1569 183.523 83.7761 183.465 83.2715L182.372 73.7983C182.053 70.2652 181.176 67.0532 179.742 64.1625C178.467 61.1111 176.474 58.7022 173.764 56.9356C171.055 55.0084 167.309 54.0448 162.527 54.0448H139.335V185.781C139.335 190.76 140.212 193.753 141.965 196.323C143.718 198.732 146.109 200.102 149.138 200.905C152.166 201.708 155.434 201.867 158.941 201.867H163.44C163.992 201.867 164.44 202.314 164.44 202.867V213C164.44 213.552 163.992 214 163.44 214H91.082Z" fill="white"/>
<path d="M20 20H236V236H20V20Z" stroke="white" stroke-width="20"/>
<rect width="40" height="40" rx="20" fill="white"/>
<rect x="216" width="40" height="40" rx="20" fill="white"/>
<rect x="216" y="216" width="40" height="40" rx="20" fill="white"/>
<rect y="216" width="40" height="40" rx="20" fill="white"/>
</svg>
