<svg width="256" height="256" viewBox="0 0 256 256" fill="none" xmlns="http://www.w3.org/2000/svg">
<path fill-rule="evenodd" clip-rule="evenodd" d="M43.4238 7.66842C40.2179 5.19258 35.6674 5.50361 32.8282 8.39263L8.29423 33.357C5.48918 36.2113 5.22476 40.6992 7.67524 43.8631L50.1839 98.7476C50.752 99.4812 51.6277 99.9106 52.5557 99.9106H83.0773L133.783 150.012C124.629 160.184 124.983 175.726 134.591 185.469L196.171 247.917C200.052 251.852 206.39 251.893 210.321 248.007L247.984 210.782C251.919 206.893 251.949 200.549 248.051 196.624L186.562 134.705C176.616 124.689 160.556 124.253 150.081 133.714L98.7719 83.0088V51.8861C98.7719 50.9567 98.3411 50.0798 97.6055 49.5117L43.4238 7.66842ZM125.296 34.2325C128.079 29.029 132.289 24.728 137.433 21.8349L149.677 14.9476C155.5 11.6721 162.006 9.79854 168.68 9.47564L190.097 8.43934C193.659 8.26698 196.986 10.2142 198.581 13.4039L199.093 14.4274C200.46 17.1615 199.895 20.4663 197.697 22.5908L167.002 52.2632C165.832 53.3937 165.172 54.9506 165.172 56.5772V84.2503C165.172 87.564 167.858 90.2503 171.172 90.2503H201.319C202.911 90.2503 204.437 89.6181 205.562 88.4929L235.643 58.4114C236.901 57.1534 238.608 56.4466 240.387 56.4466C243.918 56.4466 246.845 59.1848 247.08 62.7086L248.421 82.8255C248.456 83.3437 248.389 83.8637 248.225 84.3564L241.834 103.53L232.252 120.412C230.229 123.976 227.251 126.905 223.653 128.867L209.237 136.73L194.344 124.485C186.493 118.029 176.383 114.988 166.273 116.042L153.099 117.414L112.052 76.9703L114.864 57.7518C115.4 54.0924 116.566 50.5536 118.31 47.2925L125.296 34.2325ZM86.6991 122.848L116.277 151.822L115.679 159.896C115.276 165.342 115.767 170.818 117.134 176.105L118.93 183.052L63.3604 238.623C50.71 251.273 30.1995 251.273 17.5491 238.622C4.95084 226.024 4.89125 205.617 17.4157 192.945L86.6991 122.848Z" fill="white"/>
</svg>
