<svg width="256" height="256" viewBox="0 0 256 256" fill="none" xmlns="http://www.w3.org/2000/svg">
<path d="M32.8281 8.39258C35.6673 5.50362 40.2179 5.1923 43.4238 7.66797L97.6055 49.5117C98.3409 50.0797 98.7714 50.9565 98.7715 51.8857V83.0088L150.081 133.714C160.556 124.253 176.616 124.689 186.562 134.705L248.051 196.624C251.949 200.549 251.919 206.894 247.984 210.782L210.321 248.008C206.39 251.893 200.053 251.852 196.172 247.917L134.591 185.469C124.983 175.725 124.629 160.184 133.783 150.013L83.0771 99.9102H52.5557C51.6278 99.9102 50.7518 99.4816 50.1836 98.748L7.6748 43.8633C5.2245 40.6995 5.48925 36.2117 8.29395 33.3574L32.8281 8.39258ZM116.277 151.822L115.68 159.896C115.276 165.342 115.768 170.817 117.135 176.104L118.931 183.052L63.3604 238.622C50.7099 251.272 30.1993 251.272 17.5488 238.622C4.95083 226.024 4.89164 205.617 17.416 192.945L86.6992 122.848L116.277 151.822ZM190.097 8.43945C193.658 8.26725 196.986 10.2139 198.581 13.4033L199.093 14.4268C200.46 17.1607 199.895 20.4663 197.697 22.5908L167.002 52.2627C165.832 53.3932 165.172 54.9506 165.172 56.5771V84.25C165.172 87.5637 167.858 90.25 171.172 90.25H201.319C202.911 90.2499 204.436 89.6173 205.562 88.4922L235.644 58.4111C236.902 57.1533 238.608 56.4463 240.387 56.4463C243.918 56.4464 246.845 59.1845 247.08 62.708L247.807 73.6035C248.247 80.211 247.397 86.8417 245.303 93.124L243.407 98.8105C242.361 101.949 241.011 104.979 239.378 107.856L236.331 113.225C231.642 121.486 224.738 128.275 216.398 132.824L209.237 136.73L194.345 124.484C186.494 118.029 176.383 114.988 166.273 116.041L153.1 117.414L112.052 76.9697L114.076 63.1348C115.133 55.9136 117.442 48.9148 120.884 42.4795C126.539 31.9063 135.109 23.1413 145.56 17.2627C154.09 12.4644 163.622 9.72013 173.397 9.24707L190.097 8.43945Z" fill="white"/>
</svg>
