<svg width="256" height="256" viewBox="0 0 256 256" fill="none" xmlns="http://www.w3.org/2000/svg">
<path d="M181.817 4C181.817 1.79086 183.607 0 185.817 0H210.951C213.16 0 214.951 1.79086 214.951 4V144.18C214.951 159.522 211.352 173.116 204.156 184.961C196.959 196.735 186.84 206.012 173.8 212.791C160.76 219.499 145.476 222.853 127.947 222.853C110.489 222.853 95.2398 219.499 82.1998 212.791C69.1598 206.012 59.0414 196.735 51.8445 184.961C44.6476 173.116 41.0491 159.522 41.0491 144.18V4C41.0491 1.79087 42.84 0 45.0491 0H70.0766C72.2857 0 74.0765 1.79086 74.0765 4V141.504C74.0765 151.423 76.2499 160.235 80.5965 167.942C85.0144 175.649 91.2494 181.714 99.3014 186.139C107.353 190.491 116.902 192.668 127.947 192.668C139.063 192.668 148.647 190.491 156.699 186.139C164.822 181.714 171.021 175.649 175.297 167.942C179.643 160.235 181.817 151.423 181.817 141.504V4Z" fill="white"/>
<path d="M17 239.449C17 237.24 18.7909 235.449 21 235.449H235C237.209 235.449 239 237.24 239 239.449V252C239 254.209 237.209 256 235 256H21C18.7909 256 17 254.209 17 252V239.449Z" fill="white"/>
</svg>
