<svg width="256" height="256" viewBox="0 0 256 256" fill="none" xmlns="http://www.w3.org/2000/svg">
<path d="M51 71.5C47.4101 71.5 44.5 74.4101 44.5 78C44.5 81.5899 47.4101 84.5 51 84.5V71.5ZM46.4038 173.404C43.8654 175.942 43.8654 180.058 46.4038 182.596L87.7696 223.962C90.308 226.5 94.4235 226.5 96.9619 223.962C99.5003 221.424 99.5003 217.308 96.9619 214.77L60.1924 178L96.9619 141.23C99.5003 138.692 99.5003 134.576 96.9619 132.038C94.4235 129.5 90.308 129.5 87.7696 132.038L46.4038 173.404ZM51 84.5H154V71.5H51V84.5ZM154 171.5H51V184.5H154V171.5ZM197.5 128C197.5 152.024 178.024 171.5 154 171.5V184.5C185.204 184.5 210.5 159.204 210.5 128H197.5ZM154 84.5C178.024 84.5 197.5 103.976 197.5 128H210.5C210.5 96.7959 185.204 71.5 154 71.5V84.5Z" fill="white"/>
</svg>
