<svg width="256" height="256" viewBox="0 0 256 256" fill="none" xmlns="http://www.w3.org/2000/svg">
<path d="M128 23V193" stroke="white" stroke-width="40" stroke-linecap="round"/>
<path d="M127.861 0.000751701C131.746 -0.0349426 135.642 1.42928 138.606 4.39333L209.317 75.1043C212.291 78.0779 213.753 81.9893 213.708 85.8865C213.708 85.9242 213.71 85.962 213.71 85.9998C213.71 94.284 206.994 101 198.71 101H57C48.7157 101 42 94.284 42 85.9998C42 85.9551 42.0006 85.9105 42.001 85.866C41.961 81.9756 43.4252 78.0726 46.3936 75.1043L117.104 4.39333L117.381 4.1238C120.312 1.33774 124.092 -0.0368706 127.861 0.000751701Z" fill="white"/>
<rect y="226" width="256" height="30" rx="15" fill="white"/>
</svg>
