<svg width="257" height="256" viewBox="0 0 257 256" fill="none" xmlns="http://www.w3.org/2000/svg">
<path fill-rule="evenodd" clip-rule="evenodd" d="M128.5 158.453C146.298 158.453 160.727 144.025 160.727 126.227C160.727 108.428 146.298 94 128.5 94C110.702 94 96.2734 108.428 96.2734 126.227C96.2734 144.025 110.702 158.453 128.5 158.453ZM146.547 173.5H144.613H112.387H110.453C74.8566 173.5 46 202.357 46 237.953C46 247.92 54.0799 256 64.0469 256H112.387H144.613H192.953C202.92 256 211 247.92 211 237.953C211 202.357 182.143 173.5 146.547 173.5Z" fill="white"/>
<path d="M73.8421 166.772C68.515 170.502 61.082 169.235 58.1899 163.411C53.5398 154.045 50.7896 143.808 50.1464 133.292C49.2626 118.842 52.392 104.429 59.1886 91.6465C65.9852 78.8639 76.1843 68.2098 88.6582 60.8621C101.132 53.5144 115.395 49.7593 129.87 50.012C144.345 50.2646 158.468 54.5152 170.678 62.2938C182.888 70.0723 192.709 81.0759 199.055 94.0879C205.402 107.1 208.026 121.613 206.639 136.024C205.629 146.511 202.523 156.646 197.549 165.843C194.455 171.563 186.983 172.57 181.789 168.656C176.595 164.742 175.694 157.388 178.414 151.481C180.978 145.911 182.604 139.926 183.197 133.767C184.168 123.679 182.331 113.52 177.889 104.411C173.446 95.3031 166.572 87.6006 158.025 82.1556C149.478 76.7106 139.591 73.7352 129.459 73.5584C119.327 73.3815 109.343 76.0101 100.611 81.1535C91.879 86.2969 84.7397 93.7547 79.982 102.703C75.2244 111.65 73.0338 121.74 73.6525 131.855C74.0302 138.03 75.4462 144.069 77.8147 149.725C80.3266 155.724 79.1691 163.042 73.8421 166.772Z" fill="white"/>
<path d="M36.3966 192.992C29.1298 198.08 19.0135 196.35 14.8709 188.506C6.37108 172.41 1.35839 154.635 0.23972 136.345C-1.20703 112.691 3.91561 89.0972 15.0412 68.1729C26.1669 47.2486 42.8622 29.8084 63.2813 17.7807C83.7004 5.75288 107.048 -0.394013 130.743 0.0195767C154.437 0.433167 177.556 7.39113 197.543 20.1242C217.53 32.8573 233.606 50.8694 243.995 72.1693C254.384 93.4692 258.68 117.227 256.408 140.816C254.652 159.056 249.022 176.646 239.966 192.435C235.552 200.13 225.381 201.505 218.297 196.167C211.212 190.828 209.935 180.799 214.024 172.927C219.692 162.016 223.243 150.075 224.431 137.737C226.135 120.045 222.913 102.227 215.121 86.252C207.33 70.2771 195.272 56.7679 180.282 47.2181C165.292 37.6683 147.953 32.4499 130.182 32.1397C112.411 31.8295 94.9003 36.4397 79.586 45.4605C64.2716 54.4813 51.7502 67.5614 43.4059 83.2547C35.0617 98.9479 31.2197 116.643 32.3048 134.384C33.0614 146.755 36.1936 158.813 41.4775 169.915C45.2897 177.926 43.6634 187.903 36.3966 192.992Z" fill="white"/>
</svg>
