<svg width="256" height="256" viewBox="0 0 256 256" fill="none" xmlns="http://www.w3.org/2000/svg">
<path fill-rule="evenodd" clip-rule="evenodd" d="M128 158.453C145.69 158.453 160.032 144.025 160.032 126.227C160.032 108.428 145.69 94 128 94C110.31 94 95.9687 108.428 95.9687 126.227C95.9687 144.025 110.31 158.453 128 158.453ZM145.938 173.5H144.015H111.985H110.062C74.6817 173.5 46 202.357 46 237.953C46 247.92 54.0309 256 63.9375 256H111.985H144.015H192.062C201.969 256 210 247.92 210 237.953C210 202.357 181.318 173.5 145.938 173.5Z" fill="white"/>
<path d="M73.6902 166.768C68.3971 170.498 61.0114 169.231 58.1378 163.407C53.5173 154.042 50.7846 143.805 50.1455 133.289C49.2673 118.84 52.3768 104.427 59.1301 91.6451C65.8834 78.8629 76.0175 68.2092 88.4119 60.8617C100.806 53.5142 114.978 49.7593 129.361 50.012C143.744 50.2646 157.777 54.515 169.909 62.2934C182.041 70.0716 191.8 81.0748 198.105 94.0864C204.412 107.098 207.019 121.611 205.641 136.021C204.638 146.508 201.551 156.642 196.609 165.839C193.535 171.559 186.11 172.566 180.949 168.652C175.789 164.738 174.893 157.384 177.596 151.478C180.144 145.908 181.759 139.923 182.348 133.764C183.313 123.677 181.488 113.518 177.074 104.409C172.66 95.3016 165.829 87.5993 157.337 82.1545C148.844 76.7097 139.02 73.7344 128.953 73.5576C118.885 73.3807 108.965 76.0092 100.288 81.1524C91.6122 86.2957 84.5184 93.7532 79.791 102.701C75.0637 111.648 72.8871 121.738 73.5018 131.852C73.8771 138.027 75.2841 144.066 77.6375 149.722C80.1334 155.72 78.9833 163.038 73.6902 166.768Z" fill="white"/>
<path d="M36.255 192.628C29.0165 197.707 18.9396 195.98 14.8131 188.151C6.34629 172.085 1.3531 154.344 0.238788 136.088C-1.20233 112.479 3.90037 88.9293 14.9827 68.0445C26.0651 47.1596 42.6955 29.7522 63.0351 17.7472C83.3748 5.74204 106.632 -0.393271 130.234 0.0195398C153.836 0.432351 176.865 7.3772 196.774 20.0863C216.684 32.7954 232.697 50.7736 243.046 72.0333C253.394 93.2931 257.674 117.006 255.41 140.551C253.661 158.756 248.053 176.313 239.032 192.072C234.636 199.753 224.504 201.125 217.448 195.797C210.39 190.468 209.118 180.458 213.191 172.601C218.837 161.711 222.374 149.792 223.558 137.478C225.255 119.819 222.046 102.034 214.284 86.0895C206.523 70.1447 194.512 56.661 179.581 47.1291C164.649 37.5973 147.377 32.3888 129.676 32.0792C111.974 31.7695 94.5311 36.3711 79.2764 45.3749C64.0216 54.3787 51.5489 67.4341 43.2371 83.0979C34.9253 98.7615 31.0983 116.423 32.1791 134.131C32.9328 146.479 36.0528 158.514 41.3162 169.595C45.1135 177.591 43.4935 187.549 36.255 192.628Z" fill="white"/>
</svg>
