<svg width="256" height="256" viewBox="0 0 256 256" fill="none" xmlns="http://www.w3.org/2000/svg">
<path d="M192 112C200.837 112 208 119.163 208 128C208 136.837 200.837 144 192 144C183.163 144 176 136.837 176 128C176 119.163 183.163 112 192 112Z" fill="white"/>
<path d="M128 112C136.837 112 144 119.163 144 128C144 136.837 136.837 144 128 144C119.163 144 112 136.837 112 128C112 119.163 119.163 112 128 112Z" fill="white"/>
<path d="M64 112C72.8366 112 80 119.163 80 128C80 136.837 72.8366 144 64 144C55.1634 144 48 136.837 48 128C48 119.163 55.1634 112 64 112Z" fill="white"/>
<path d="M192 176C200.837 176 208 183.163 208 192C208 200.837 200.837 208 192 208C183.163 208 176 200.837 176 192C176 183.163 183.163 176 192 176Z" fill="white"/>
<path d="M128 176C136.837 176 144 183.163 144 192C144 200.837 136.837 208 128 208C119.163 208 112 200.837 112 192C112 183.163 119.163 176 128 176Z" fill="white"/>
<path d="M64 176C72.8366 176 80 183.163 80 192C80 200.837 72.8366 208 64 208C55.1634 208 48 200.837 48 192C48 183.163 55.1634 176 64 176Z" fill="white"/>
<path d="M192 48C200.837 48 208 55.1634 208 64C208 72.8366 200.837 80 192 80C183.163 80 176 72.8366 176 64C176 55.1634 183.163 48 192 48Z" fill="white"/>
<path d="M128 48C136.837 48 144 55.1634 144 64C144 72.8366 136.837 80 128 80C119.163 80 112 72.8366 112 64C112 55.1634 119.163 48 128 48Z" fill="white"/>
<path d="M64 48C72.8366 48 80 55.1634 80 64C80 72.8366 72.8366 80 64 80C55.1634 80 48 72.8366 48 64C48 55.1634 55.1634 48 64 48Z" fill="white"/>
</svg>
