<svg width="256" height="256" viewBox="0 0 256 256" fill="none" xmlns="http://www.w3.org/2000/svg">
<path d="M196 128C196 111.432 209.431 98.0001 226 98.0001C242.569 98.0001 256 111.432 256 128C256 144.569 242.569 158 226 158C209.431 158 196 144.569 196 128ZM98 128C98 111.432 111.431 98.0001 128 98.0001C144.569 98.0001 158 111.432 158 128C158 144.569 144.569 158 128 158C111.431 158 98 144.569 98 128ZM-1.31134e-06 128C-2.03558e-06 111.432 13.4315 98.0001 30 98.0001C46.5685 98.0001 60 111.432 60 128C60 144.569 46.5685 158 30 158C13.4315 158 3.54914e-05 144.569 -1.31134e-06 128Z" fill="white"/>
<path d="M196 30C196 13.4315 209.431 1.15675e-05 226 1.56532e-06C242.569 8.41084e-07 256 13.4315 256 30C256 46.5685 242.569 60 226 60C209.431 60 196 46.5685 196 30ZM98 30C98 13.4315 111.431 7.60415e-06 128 5.84903e-06C144.569 5.1248e-06 158 13.4315 158 30C158 46.5685 144.569 60 128 60C111.431 60 98 46.5685 98 30ZM-1.31134e-06 30C-2.03558e-06 13.4315 13.4315 1.18879e-05 30 1.01328e-05C46.5685 9.40852e-06 60 13.4315 60 30C60 46.5685 46.5685 60 30 60C13.4315 60 3.54914e-05 46.5685 -1.31134e-06 30Z" fill="white"/>
<path d="M196 226C196 209.431 209.431 196 226 196C242.569 196 256 209.431 256 226C256 242.569 242.569 256 226 256C209.431 256 196 242.569 196 226ZM98 226C98 209.431 111.431 196 128 196C144.569 196 158 209.431 158 226C158 242.569 144.569 256 128 256C111.431 256 98 242.569 98 226ZM-1.31134e-06 226C-2.03558e-06 209.431 13.4315 196 30 196C46.5685 196 60 209.431 60 226C60 242.569 46.5685 256 30 256C13.4315 256 3.54914e-05 242.569 -1.31134e-06 226Z" fill="white"/>
</svg>
