<svg width="256" height="256" viewBox="0 0 256 256" fill="none" xmlns="http://www.w3.org/2000/svg">
<path d="M107.57 20.7971C116.65 5.06748 139.351 5.06724 148.431 20.7971L252.804 201.608C261.884 217.338 250.534 237 232.374 237H23.6265C5.46607 237 -5.88415 217.338 3.1958 201.608L107.57 20.7971ZM129 170.379C120.716 170.379 114.001 177.095 114 185.379C114.001 193.663 120.716 200.379 129 200.379C137.285 200.379 144 193.663 144 185.379C144 177.095 137.285 170.379 129 170.379ZM129 39.0002C120.716 39.0002 114 45.716 114 54.0002V140.897C114.001 149.181 120.716 155.897 129 155.897C137.285 155.897 144 149.181 144 140.897V54.0002C144 45.7161 137.285 39.0004 129 39.0002Z" fill="white"/>
</svg>
