<svg width="256" height="256" viewBox="0 0 256 256" fill="none" xmlns="http://www.w3.org/2000/svg">
<path d="M176.877 0C179.529 2.25988e-06 182.073 1.05343 183.948 2.92871L253.071 72.0518C254.947 73.9271 256 76.471 256 79.123V176.877C256 179.529 254.947 182.073 253.071 183.948L183.948 253.071C182.073 254.947 179.529 256 176.877 256H79.123C76.471 256 73.9271 254.947 72.0518 253.071L2.92871 183.948C1.05343 182.073 2.42289e-06 179.529 0 176.877V79.123C2.25989e-06 76.4709 1.0534 73.9271 2.92871 72.0518L72.0518 2.92871C73.9271 1.05348 76.471 -1.95645e-06 79.123 0H176.877ZM128 178.379C119.716 178.379 113 185.095 113 193.379C113 201.663 119.716 208.379 128 208.379C136.284 208.379 143 201.663 143 193.379C143 185.095 136.284 178.379 128 178.379ZM128 47C119.716 47 113 53.7157 113 62V148.896C113 157.181 119.716 163.896 128 163.896C136.284 163.896 143 157.181 143 148.896V62C143 53.7157 136.284 47 128 47Z" fill="white"/>
</svg>
