<svg width="256" height="256" viewBox="0 0 256 256" fill="none" xmlns="http://www.w3.org/2000/svg">
<path d="M128 0C198.692 0 256 57.3076 256 128C256 198.692 198.692 256 128 256C57.3076 256 0 198.692 0 128C0 57.3076 57.3076 0 128 0ZM128 178.379C119.716 178.379 113 185.095 113 193.379C113 201.663 119.716 208.379 128 208.379C136.284 208.379 143 201.663 143 193.379C143 185.095 136.284 178.379 128 178.379ZM128 47C119.716 47 113 53.7157 113 62V148.896C113 157.181 119.716 163.896 128 163.896C136.284 163.896 143 157.181 143 148.896V62C143 53.7157 136.284 47 128 47Z" fill="white"/>
</svg>
