<svg width="256" height="256" viewBox="0 0 256 256" fill="none" xmlns="http://www.w3.org/2000/svg">
<path fill-rule="evenodd" clip-rule="evenodd" d="M179.262 14.2575C177.387 12.3822 174.843 11.3286 172.191 11.3286H83.8178C81.1656 11.3286 78.6221 12.3822 76.7467 14.2576L14.2575 76.7467C12.3822 78.6221 11.3286 81.1656 11.3286 83.8178L11.3286 172.191C11.3286 174.843 12.3822 177.387 14.2576 179.262L76.7467 241.751C78.6221 243.626 81.1656 244.68 83.8178 244.68L172.191 244.68C174.843 244.68 177.387 243.626 179.262 241.751L241.751 179.262C243.626 177.387 244.68 174.843 244.68 172.191L244.68 83.8178C244.68 81.1656 243.626 78.6221 241.751 76.7467L179.262 14.2575ZM113 61C113 54.9249 117.925 50 124 50H131C137.075 50 142 54.9249 142 61V152C142 158.075 137.075 163 131 163H124C117.925 163 113 158.075 113 152V61ZM142 191.5C142 199.508 135.508 206 127.5 206C119.492 206 113 199.508 113 191.5C113 183.492 119.492 177 127.5 177C135.508 177 142 183.492 142 191.5Z" fill="white"/>
</svg>
