<svg width="256" height="256" viewBox="0 0 256 256" fill="none" xmlns="http://www.w3.org/2000/svg">
<path d="M130.242 36.5558C141.288 36.5559 150.242 45.5102 150.242 56.5558V57.9474C150.242 61.6733 149.221 65.1601 147.447 68.1466L196.121 152.42C211.978 147.746 229.813 151.703 242.321 164.29C260.562 182.647 260.563 212.409 242.323 230.764L241.763 231.326C223.523 249.681 193.949 249.678 175.709 231.321C171.816 227.404 171.815 221.052 175.708 217.135C179.6 213.218 185.912 213.219 189.805 217.136C200.26 227.657 217.211 227.658 227.666 217.139L228.225 216.576C238.679 206.056 238.678 188.998 228.223 178.477C217.768 167.956 200.818 167.955 190.364 178.475L190.084 178.756C189.403 179.441 188.295 179.191 187.81 178.356L182.855 169.813C182.612 169.394 182.401 168.962 182.219 168.524L129.904 77.9474H128.857C117.812 77.9473 108.857 68.993 108.857 57.9474V56.5558C108.857 45.5102 117.812 36.5559 128.857 36.5558H130.242ZM34.6735 150.957C40.0119 149.545 45.512 152.72 46.9577 158.05C48.4032 163.38 45.2464 168.849 39.9079 170.262C25.5709 174.057 17.0949 188.738 20.9763 203.053L21.1833 203.819C25.0653 218.134 39.8368 226.663 54.1745 222.868C68.5117 219.073 76.9871 204.39 73.1052 190.074L73.0016 189.693C72.732 188.697 73.5658 187.815 74.5974 187.826L84.4255 187.934C84.7671 187.938 85.106 187.959 85.4411 187.994L190.115 187.967C193.472 181.636 200.13 177.322 207.796 177.322H209.18C220.226 177.323 229.18 186.277 229.18 197.322V198.714C229.18 209.76 220.226 218.714 209.18 218.714H207.796C200.127 218.714 193.468 214.397 190.112 208.062L92.7858 208.086C88.9052 224.159 76.5621 237.63 59.4089 242.171C34.3936 248.792 8.62236 233.912 1.84931 208.936L1.64227 208.171C-5.1301 183.195 9.65876 157.579 34.6735 150.957ZM83.4294 44.8087C90.2036 19.8313 115.977 4.95255 140.995 11.5753L141.745 11.7736C166.763 18.3967 181.553 44.0138 174.779 68.9914C173.333 74.3214 167.834 77.4973 162.495 76.0841C157.156 74.6708 154 69.2034 155.445 63.8732C159.328 49.5562 150.85 34.8726 136.509 31.0763L135.76 30.8781C121.42 27.0818 106.646 35.61 102.763 49.9269C98.8808 64.2439 107.359 78.9284 121.699 82.7248L122.074 82.8234C123.123 83.1012 123.469 84.332 122.893 85.2521C122.874 85.2814 120.209 89.3474 117.712 93.7296C117.619 93.9162 117.522 94.1024 117.417 94.2853L65.0212 185.1C66.7994 188.089 67.8229 191.579 67.8229 195.31V196.701C67.8229 207.747 58.8684 216.701 47.8229 216.701H46.4382C35.3925 216.701 26.4382 207.747 26.4382 196.701V195.31C26.4382 184.264 35.3925 175.31 46.4382 175.31H47.4763L96.2565 90.758C84.28 79.3592 78.785 61.9345 83.4294 44.8087Z" fill="white"/>
</svg>
