<svg width="256" height="256" viewBox="0 0 256 256" fill="none" xmlns="http://www.w3.org/2000/svg">
<path d="M236 32C247.046 32 256 40.9543 256 52V204C256 215.046 247.046 224 236 224H20C8.95431 224 0 215.046 0 204V52C2.06176e-06 40.9543 8.95431 32 20 32H236ZM30 47C21.7157 47 15 53.7157 15 62C15 70.2843 21.7157 77 30 77C38.2843 77 45 70.2843 45 62C45 53.7157 38.2843 47 30 47ZM70 47C61.7157 47 55 53.7157 55 62C55 70.2843 61.7157 77 70 77H226C234.284 77 241 70.2843 241 62C241 53.7157 234.284 47 226 47H70Z" fill="white"/>
</svg>
