<svg width="256" height="256" viewBox="0 0 256 256" fill="none" xmlns="http://www.w3.org/2000/svg">
<mask id="path-1-outside-1_219_20" maskUnits="userSpaceOnUse" x="64" y="64" width="128" height="128" fill="black">
<rect fill="white" x="64" y="64" width="128" height="128"/>
<path d="M73.8057 73.8057C77.5469 70.0644 83.6132 70.0645 87.3545 73.8057L128 114.451L168.646 73.8066C172.387 70.0654 178.453 70.0653 182.194 73.8066C185.935 77.548 185.936 83.6142 182.194 87.3555L141.549 128L182.194 168.646C185.935 172.387 185.936 178.453 182.194 182.194C178.453 185.936 172.387 185.936 168.646 182.194L128 141.549L87.3545 182.194C83.6132 185.936 77.547 185.936 73.8057 182.194C70.0647 178.453 70.0647 172.388 73.8057 168.646L114.451 128L73.8057 87.3545C70.0645 83.6132 70.0644 77.5469 73.8057 73.8057Z"/>
</mask>
<path d="M73.8057 73.8057C77.5469 70.0644 83.6132 70.0645 87.3545 73.8057L128 114.451L168.646 73.8066C172.387 70.0654 178.453 70.0653 182.194 73.8066C185.935 77.548 185.936 83.6142 182.194 87.3555L141.549 128L182.194 168.646C185.935 172.387 185.936 178.453 182.194 182.194C178.453 185.936 172.387 185.936 168.646 182.194L128 141.549L87.3545 182.194C83.6132 185.936 77.547 185.936 73.8057 182.194C70.0647 178.453 70.0647 172.388 73.8057 168.646L114.451 128L73.8057 87.3545C70.0645 83.6132 70.0644 77.5469 73.8057 73.8057Z" fill="white"/>
<path d="M73.8057 73.8057L69.563 69.563L69.563 69.563L73.8057 73.8057ZM87.3545 73.8057L91.5971 69.563L91.597 69.5629L87.3545 73.8057ZM128 114.451L123.757 118.694L128 122.936L132.243 118.694L128 114.451ZM168.646 73.8066L172.888 78.0493L172.888 78.0493L168.646 73.8066ZM182.194 73.8066L186.437 69.5641L186.437 69.564L182.194 73.8066ZM182.194 87.3555L186.437 91.5982L186.437 91.5981L182.194 87.3555ZM141.549 128L137.306 123.757L133.063 128L137.306 132.243L141.549 128ZM182.194 168.646L186.437 164.403L186.437 164.403L182.194 168.646ZM182.194 182.194L186.437 186.437L186.437 186.437L182.194 182.194ZM168.646 182.194L164.403 186.437L164.403 186.437L168.646 182.194ZM128 141.549L132.243 137.306L128 133.064L123.757 137.306L128 141.549ZM73.8057 182.194L69.5629 186.437L69.563 186.437L73.8057 182.194ZM73.8057 168.646L69.563 164.404L69.5629 164.404L73.8057 168.646ZM114.451 128L118.694 132.243L122.936 128L118.694 123.757L114.451 128ZM73.8057 87.3545L69.5629 91.597L69.563 91.5971L73.8057 87.3545ZM73.8057 73.8057L78.0483 78.0483C79.4463 76.6503 81.7137 76.6502 83.112 78.0484L87.3545 73.8057L91.597 69.5629C85.5127 63.4789 75.6475 63.4786 69.563 69.563L73.8057 73.8057ZM87.3545 73.8057L83.1119 78.0483L123.757 118.694L128 114.451L132.243 110.209L91.5971 69.563L87.3545 73.8057ZM128 114.451L132.243 118.694L172.888 78.0493L168.646 73.8066L164.403 69.5639L123.757 110.208L128 114.451ZM168.646 73.8066L172.888 78.0493C174.286 76.6511 176.554 76.6512 177.952 78.0493L182.194 73.8066L186.437 69.564C180.353 63.4795 170.487 63.4796 164.403 69.564L168.646 73.8066ZM182.194 73.8066L177.952 78.0492C179.35 79.4474 179.35 81.7148 177.952 83.1129L182.194 87.3555L186.437 91.5981C192.521 85.5136 192.521 75.6485 186.437 69.5641L182.194 73.8066ZM182.194 87.3555L177.952 83.1128L137.306 123.757L141.549 128L145.791 132.243L186.437 91.5982L182.194 87.3555ZM141.549 128L137.306 132.243L177.952 172.888L182.194 168.646L186.437 164.403L145.791 123.757L141.549 128ZM182.194 168.646L177.952 172.888C179.35 174.286 179.35 176.554 177.952 177.952L182.194 182.194L186.437 186.437C192.521 180.352 192.521 170.487 186.437 164.403L182.194 168.646ZM182.194 182.194L177.952 177.952C176.554 179.35 174.286 179.35 172.888 177.952L168.646 182.194L164.403 186.437C170.487 192.521 180.352 192.521 186.437 186.437L182.194 182.194ZM168.646 182.194L172.888 177.952L132.243 137.306L128 141.549L123.757 145.791L164.403 186.437L168.646 182.194ZM128 141.549L123.757 137.306L83.1119 177.952L87.3545 182.194L91.5971 186.437L132.243 145.791L128 141.549ZM87.3545 182.194L83.1119 177.952C81.7137 179.35 79.4465 179.35 78.0483 177.952L73.8057 182.194L69.563 186.437C75.6475 192.521 85.5127 192.521 91.5971 186.437L87.3545 182.194ZM73.8057 182.194L78.0485 177.952C76.6504 176.554 76.6505 174.287 78.0485 172.889L73.8057 168.646L69.5629 164.404C63.479 170.488 63.479 180.352 69.5629 186.437L73.8057 182.194ZM73.8057 168.646L78.0484 172.889L118.694 132.243L114.451 128L110.208 123.757L69.563 164.404L73.8057 168.646ZM114.451 128L118.694 123.757L78.0483 83.1119L73.8057 87.3545L69.563 91.5971L110.209 132.243L114.451 128ZM73.8057 87.3545L78.0484 83.112C76.6502 81.7136 76.6503 79.4463 78.0483 78.0483L73.8057 73.8057L69.563 69.563C63.4785 75.6475 63.4789 85.5127 69.5629 91.597L73.8057 87.3545Z" fill="white" mask="url(#path-1-outside-1_219_20)"/>
<circle cx="128" cy="128" r="113" stroke="white" stroke-width="30"/>
</svg>
