<svg width="256" height="256" viewBox="0 0 256 256" fill="none" xmlns="http://www.w3.org/2000/svg">
<g clip-path="url(#clip0_219_20)">
<path fill-rule="evenodd" clip-rule="evenodd" d="M56.6921 56.6921C51.7694 61.6149 51.7694 69.5963 56.6921 74.5191L110.174 128L56.6921 181.482C51.7693 186.405 51.7693 194.386 56.6921 199.309C61.6149 204.232 69.5963 204.232 74.5191 199.309L128.001 145.827L181.481 199.308C186.404 204.231 194.385 204.231 199.308 199.308C204.231 194.385 204.231 186.404 199.308 181.481L145.828 128L199.308 74.5201C204.231 69.5973 204.231 61.6159 199.308 56.6932C194.385 51.7704 186.404 51.7704 181.481 56.6931L128.001 110.174L74.5191 56.6921C69.5963 51.7693 61.6149 51.7693 56.6921 56.6921Z" fill="white"/>
<circle cx="128" cy="128" r="120.5" stroke="white" stroke-width="15"/>
</g>
<defs>
<clipPath id="clip0_219_20">
<rect width="256" height="256" fill="white"/>
</clipPath>
</defs>
</svg>
