<svg width="256" height="256" viewBox="0 0 256 256" fill="none" xmlns="http://www.w3.org/2000/svg">
<path d="M219.856 5.85765C227.666 -1.95251 240.33 -1.95258 248.14 5.85765L250.141 7.85961C257.951 15.6701 257.951 28.3334 250.141 36.1438L158.285 127.999L250.141 219.857C257.952 227.667 257.952 240.33 250.141 248.141L248.14 250.142C240.33 257.952 227.666 257.952 219.856 250.142L127.999 158.285L36.143 250.142C28.3326 257.952 15.6693 257.952 7.85884 250.142L5.85786 248.141C-1.95262 240.33 -1.95262 227.667 5.85786 219.857L97.7133 127.999L5.85786 36.1438C-1.95262 28.3333 -1.95261 15.6701 5.85786 7.85961L7.85884 5.85765C15.6693 -1.95245 28.3327 -1.95266 36.143 5.85765L127.999 97.7141L219.856 5.85765Z" fill="white"/>
</svg>
