<svg width="256" height="256" viewBox="0 0 256 256" fill="none" xmlns="http://www.w3.org/2000/svg">
<path fill-rule="evenodd" clip-rule="evenodd" d="M165 115C165 142.614 142.614 165 115 165C87.3858 165 65 142.614 65 115C65 87.3858 87.3858 65 115 65C142.614 65 165 87.3858 165 115ZM152.747 173.961C141.856 180.948 128.901 185 115 185C76.3401 185 45 153.66 45 115C45 76.3401 76.3401 45 115 45C153.66 45 185 76.3401 185 115C185 128.901 180.948 141.856 173.961 152.747L221.607 200.393C227.464 206.251 227.464 215.749 221.607 221.607C215.749 227.464 206.251 227.464 200.393 221.607L152.747 173.961ZM110 77C110 74.2386 112.239 72 115 72C117.761 72 120 74.2386 120 77V110H153C155.761 110 158 112.239 158 115C158 117.761 155.761 120 153 120H120V153C120 155.761 117.761 158 115 158C112.239 158 110 155.761 110 153V120H77C74.2386 120 72 117.761 72 115C72 112.239 74.2386 110 77 110H110V77Z" fill="white"/>
</svg>
