<svg width="256" height="256" viewBox="0 0 256 256" fill="none" xmlns="http://www.w3.org/2000/svg">
<path fill-rule="evenodd" clip-rule="evenodd" d="M115 165C142.614 165 165 142.614 165 115C165 87.3858 142.614 65 115 65C87.3858 65 65 87.3858 65 115C65 142.614 87.3858 165 115 165ZM115 185C128.901 185 141.856 180.948 152.747 173.961L200.393 221.607C206.251 227.464 215.749 227.464 221.607 221.607C227.464 215.749 227.464 206.251 221.607 200.393L173.961 152.747C180.948 141.856 185 128.901 185 115C185 76.3401 153.66 45 115 45C76.3401 45 45 76.3401 45 115C45 153.66 76.3401 185 115 185ZM75 115C75 117.761 77.2386 120 80 120H150C152.761 120 155 117.761 155 115C155 112.239 152.761 110 150 110H80C77.2386 110 75 112.239 75 115Z" fill="white"/>
</svg>
