<svg width="256" height="256" viewBox="0 0 256 256" fill="none" xmlns="http://www.w3.org/2000/svg">
<rect x="50" y="106" width="12" height="100" rx="6" transform="rotate(-90 50 106)" fill="white" stroke="white" stroke-width="6"/>
<path d="M100 0C155.228 0 200 44.7715 200 100C200 120.382 193.901 139.338 183.431 155.146L249.866 221.581L250.227 221.952C257.674 229.788 257.554 242.178 249.866 249.866C242.056 257.677 229.392 257.677 221.581 249.866L155.146 183.431C139.338 193.901 120.382 200 100 200C44.7715 200 0 155.228 0 100C0 44.7715 44.7715 0 100 0ZM100 35C64.1015 35 35 64.1015 35 100C35 135.899 64.1015 165 100 165C135.899 165 165 135.899 165 100C165 64.1015 135.899 35 100 35Z" fill="white"/>
</svg>
