<svg width="256" height="256" viewBox="0 0 256 256" fill="none" xmlns="http://www.w3.org/2000/svg">
<path fill-rule="evenodd" clip-rule="evenodd" d="M66.1967 132.803L113.926 180.533C116.855 183.462 121.604 183.462 124.533 180.533C126.024 179.041 126.756 177.078 126.729 175.124L126.73 175.124V135L184.5 135C188.642 135 192 131.642 192 127.5C192 123.358 188.642 120 184.5 120L126.73 120V79.7751L126.73 79.7753C126.731 77.8542 125.999 75.9326 124.533 74.4668C121.604 71.5378 116.855 71.5378 113.926 74.4668L66.1967 122.196C63.2678 125.125 63.2678 129.874 66.1967 132.803Z" fill="white"/>
</svg>
