<svg width="256" height="256" viewBox="0 0 256 256" fill="none" xmlns="http://www.w3.org/2000/svg">
<path d="M120.5 71C120.5 66.8579 123.858 63.5 128 63.5C132.142 63.5 135.5 66.8579 135.5 71L120.5 71ZM133.303 189.303C130.374 192.232 125.626 192.232 122.697 189.303L74.967 141.574C72.0381 138.645 72.0381 133.896 74.967 130.967C77.8959 128.038 82.6447 128.038 85.5736 130.967L128 173.393L170.426 130.967C173.355 128.038 178.104 128.038 181.033 130.967C183.962 133.896 183.962 138.645 181.033 141.574L133.303 189.303ZM135.5 71L135.5 184L120.5 184L120.5 71L135.5 71Z" fill="white"/>
</svg>
