<svg width="256" height="256" viewBox="0 0 256 256" fill="none" xmlns="http://www.w3.org/2000/svg">
<path d="M184 120.5C188.142 120.5 191.5 123.858 191.5 128C191.5 132.142 188.142 135.5 184 135.5V120.5ZM65.6967 133.303C62.7678 130.374 62.7678 125.626 65.6967 122.697L113.426 74.967C116.355 72.0381 121.104 72.0381 124.033 74.967C126.962 77.8959 126.962 82.6447 124.033 85.5736L81.6066 128L124.033 170.426C126.962 173.355 126.962 178.104 124.033 181.033C121.104 183.962 116.355 183.962 113.426 181.033L65.6967 133.303ZM184 135.5H71V120.5H184V135.5Z" fill="white"/>
</svg>
