<svg width="256" height="256" viewBox="0 0 256 256" fill="none" xmlns="http://www.w3.org/2000/svg">
<path fill-rule="evenodd" clip-rule="evenodd" d="M212.108 61.3312C211.99 54.3601 210.045 50.1379 207.51 47.6032C204.975 45.0684 200.753 43.1233 193.782 43.0055C186.731 42.8864 177.689 44.6953 167.106 48.8366C157.986 52.4051 148.129 57.5459 137.978 64.1291C147.494 71.3479 157.015 79.6316 166.249 88.8647C175.482 98.0979 183.765 107.62 190.984 117.135C197.567 106.984 202.708 97.1269 206.277 88.0075C210.418 77.4242 212.227 68.3826 212.108 61.3312ZM88.0075 48.8366C97.1269 52.4051 106.984 57.5459 117.135 64.1291C107.62 71.3479 98.0979 79.6315 88.8647 88.8647C79.6316 98.0979 71.3479 107.62 64.1291 117.135C57.5459 106.984 52.4051 97.127 48.8366 88.0076C44.6953 77.4242 42.8864 68.3826 43.0055 61.3312C43.1233 54.3601 45.0684 50.138 47.6032 47.6032C50.1379 45.0685 54.3601 43.1233 61.3312 43.0055C68.3826 42.8864 77.4242 44.6953 88.0075 48.8366ZM39.1179 39.1179C54.9703 23.2655 90.3865 31.4303 127.557 56.643C164.727 31.4302 200.143 23.2655 215.995 39.1179C231.848 54.9703 223.683 90.3865 198.47 127.557C223.683 164.727 231.848 200.143 215.995 215.995C200.143 231.848 164.727 223.683 127.557 198.47C90.3865 223.683 54.9704 231.848 39.118 215.995C23.2656 200.143 31.4303 164.727 56.6429 127.557C31.4302 90.3865 23.2655 54.9703 39.1179 39.1179ZM157.763 97.35C167.693 107.28 176.408 117.487 183.787 127.557C176.408 137.626 167.693 147.833 157.763 157.763C147.833 167.693 137.626 176.408 127.557 183.787C117.487 176.408 107.28 167.693 97.35 157.763C87.42 147.833 78.705 137.626 71.3263 127.557C78.705 117.487 87.4201 107.28 97.35 97.35C107.28 87.4201 117.487 78.705 127.557 71.3263C137.626 78.705 147.833 87.4201 157.763 97.35ZM166.249 166.249C157.015 175.482 147.494 183.765 137.978 190.984C148.129 197.567 157.986 202.708 167.106 206.277C177.689 210.418 186.731 212.227 193.782 212.108C200.753 211.99 204.975 210.045 207.51 207.51C210.045 204.975 211.99 200.753 212.108 193.782C212.227 186.731 210.418 177.689 206.277 167.106C202.708 157.986 197.567 148.129 190.984 137.978C183.765 147.494 175.482 157.015 166.249 166.249ZM88.8647 166.249C98.0979 175.482 107.62 183.765 117.135 190.984C106.984 197.567 97.127 202.708 88.0076 206.277C77.4242 210.418 68.3827 212.227 61.3313 212.108C54.3602 211.99 50.138 210.045 47.6033 207.51C45.0685 204.975 43.1233 200.753 43.0056 193.782C42.8865 186.731 44.6953 177.689 48.8367 167.106C52.4051 157.986 57.5459 148.129 64.1291 137.978C71.3479 147.494 79.6315 157.015 88.8647 166.249ZM127.557 148.402C139.069 148.402 148.402 139.069 148.402 127.557C148.402 116.044 139.069 106.712 127.557 106.712C116.044 106.712 106.711 116.044 106.711 127.557C106.711 139.069 116.044 148.402 127.557 148.402Z" fill="white"/>
</svg>
