<svg width="256" height="256" viewBox="0 0 256 256" fill="none" xmlns="http://www.w3.org/2000/svg">
<rect width="256" height="256" stroke="white"/>
<path d="M84.9152 193V61.6H127.215C140.535 61.6 151.155 64.66 159.075 70.78C166.995 76.78 170.955 84.94 170.955 95.26C170.955 101.02 169.575 106.06 166.815 110.38C164.175 114.7 160.575 118.06 156.015 120.46C151.575 122.86 146.715 124.06 141.435 124.06V124.6C147.315 124.48 152.655 125.56 157.455 127.84C162.375 130.12 166.335 133.54 169.335 138.1C172.335 142.66 173.835 148.3 173.835 155.02C173.835 162.7 171.975 169.42 168.255 175.18C164.655 180.82 159.495 185.2 152.775 188.32C146.055 191.44 138.075 193 128.835 193H84.9152ZM111.015 171.22H127.755C133.635 171.22 138.255 169.66 141.615 166.54C144.975 163.42 146.655 159.1 146.655 153.58C146.655 148.06 144.975 143.74 141.615 140.62C138.255 137.38 133.635 135.76 127.755 135.76H111.015V171.22ZM111.015 114.52H126.855C132.135 114.52 136.275 113.14 139.275 110.38C142.275 107.5 143.775 103.66 143.775 98.86C143.775 93.94 142.275 90.16 139.275 87.52C136.275 84.76 132.135 83.38 126.855 83.38H111.015V114.52Z" fill="white"/>
</svg>
