<svg width="256" height="256" viewBox="0 0 256 256" fill="none" xmlns="http://www.w3.org/2000/svg">
<path fill-rule="evenodd" clip-rule="evenodd" d="M209 32H44C33.5066 32 25 40.5066 25 51V186.779V190H25.1252C26.5848 208.699 40.6331 223.488 58 224.268V224.4H223C227.418 224.4 231 220.818 231 216.4V202V51C231 46.5817 227.418 43 223 43H216V202H60.7494C53.4852 200.738 47.9616 194.403 47.9616 186.779C47.9616 178.246 54.8788 171.329 63.4116 171.329H90.8388L90.7851 171.2H209V32ZM66 179C61.5817 179 58 182.582 58 187C58 191.418 61.5817 195 66 195H208V179H66Z" fill="white"/>
</svg>
