<svg width="256" height="256" viewBox="0 0 256 256" fill="none" xmlns="http://www.w3.org/2000/svg">
  <path d="M58 202H231V216.4C231 220.818 227.418 224.4 223 224.4H58V202Z" fill="white"/>
  <path fill-rule="evenodd" clip-rule="evenodd" d="M90.8388 171.329H63.4116C54.8788 171.329 47.9616 178.246 47.9616 186.779C47.9616 195.311 54.8788 202.229 63.4116 202.229H90.8388C85.4334 215.244 73.4087 224.3 59.4424 224.3C40.4204 224.3 25 207.501 25 186.779C25 166.056 40.4204 149.257 59.4424 149.257C73.4087 149.257 85.4334 158.313 90.8388 171.329Z" fill="white"/>
  <rect x="44" y="32" width="165" height="139.2" fill="white"/>
  <path d="M216 43H223C227.418 43 231 46.5817 231 51V202H216V43Z" fill="white"/>
  <path d="M58 187C58 182.582 61.5817 179 66 179H208V195H66C61.5817 195 58 191.418 58 187Z" fill="white"/>
  <path d="M25 51C25 40.5066 33.5066 32 44 32V190H25V51Z" fill="white"/>
  <rect x="40" y="141" width="18" height="15" fill="white"/>
</svg>