<svg width="256" height="256" viewBox="0 0 256 256" fill="none" xmlns="http://www.w3.org/2000/svg">
  <path fill-rule="evenodd" clip-rule="evenodd" d="M80.1044 125.011C78.6996 151.818 99.2914 174.687 126.098 176.092C152.904 177.497 175.773 156.905 177.178 130.099C178.583 103.293 157.991 80.4231 131.185 79.0183C104.379 77.6134 81.5093 98.2052 80.1044 125.011ZM70.1181 124.488C68.4242 156.809 93.2528 184.384 125.574 186.078C157.896 187.772 185.47 162.944 187.164 130.622C188.858 98.3007 164.03 70.7259 131.708 69.032C99.3869 67.3381 71.812 92.1666 70.1181 124.488ZM125 128C125 129.736 126.106 131.214 127.653 131.767L151.399 143.258C153.388 144.22 155.78 143.388 156.742 141.399C157.704 139.411 156.872 137.019 154.884 136.056L133 125.467V90.9999C133 88.7908 131.209 86.9999 129 86.9999C126.791 86.9999 125 88.7908 125 90.9999V128Z" fill="white"/>
</svg>
