<svg width="256" height="256" viewBox="0 0 256 256" fill="none" xmlns="http://www.w3.org/2000/svg">
<path fill-rule="evenodd" clip-rule="evenodd" d="M37.7188 46C28.4852 46 21 51.7699 21 58.8874V198.071C21 205.188 28.4852 210.958 37.7188 210.958H218.281C227.515 210.958 235 205.188 235 198.071V58.8874C235 51.7699 227.515 46 218.281 46H37.7188ZM55.5292 77.7364C52.464 74.9504 47.4943 74.9504 44.4291 77.7364C41.3639 80.5224 41.3639 85.0394 44.4291 87.8254L89.1563 128.479L44.429 169.132C41.3638 171.918 41.3638 176.435 44.429 179.221C47.4942 182.007 52.4638 182.007 55.529 179.221L105.685 133.633C107.248 132.213 108.014 130.343 107.983 128.482C108.016 126.619 107.25 124.746 105.685 123.324L55.5292 77.7364ZM108.797 174.734C108.797 178.876 112.155 182.234 116.297 182.234L205.463 182.234C209.606 182.234 212.963 178.876 212.963 174.734C212.963 170.592 209.606 167.234 205.463 167.234L116.297 167.234C112.155 167.234 108.797 170.592 108.797 174.734Z" fill="white"/>
</svg>
