<svg width="256" height="256" viewBox="0 0 256 256" fill="none" xmlns="http://www.w3.org/2000/svg">
<path fill-rule="evenodd" clip-rule="evenodd" d="M73.7398 217.261C73.7879 219.513 76.2086 220.911 78.1832 219.826L109.681 202.528C110.364 202.153 110.374 201.175 109.7 200.786L74.4713 180.447C73.7964 180.057 72.9549 180.555 72.9715 181.334L73.7398 217.261ZM112.225 189.509C114.616 190.89 117.674 190.07 119.055 187.679L194.484 57.0313C196.417 53.6833 195.27 49.4022 191.922 47.4692L166.136 32.5813C162.788 30.6483 158.506 31.7954 156.573 35.1435L81.144 165.791C79.7633 168.183 80.5826 171.24 82.9741 172.621L112.225 189.509Z" fill="white"/>
</svg>
