<svg width="256" height="256" viewBox="0 0 256 256" fill="none" xmlns="http://www.w3.org/2000/svg">
<path d="M16 144C7.16344 144 0 136.837 0 128C0 119.163 7.16344 112 16 112H240C248.837 112 256 119.163 256 128C256 136.837 248.837 144 240 144H16Z" fill="white"/>
<path d="M149 62C149 73.598 139.598 83 128 83C116.402 83 107 73.598 107 62C107 50.402 116.402 41 128 41C139.598 41 149 50.402 149 62Z" fill="white"/>
<path d="M149 194C149 205.598 139.598 215 128 215C116.402 215 107 205.598 107 194C107 182.402 116.402 173 128 173C139.598 173 149 182.402 149 194Z" fill="white"/>
</svg>
