<svg width="256" height="256" viewBox="0 0 256 256" fill="none" xmlns="http://www.w3.org/2000/svg">
<path fill-rule="evenodd" clip-rule="evenodd" d="M52 32C40.9543 32 32 40.9543 32 52V204C32 215.046 40.9543 224 52 224H204C215.046 224 224 215.046 224 204V52C224 40.9543 215.046 32 204 32H52ZM53 38C44.7157 38 38 44.7157 38 53V203C38 211.284 44.7157 218 53 218H203C211.284 218 218 211.284 218 203V53C218 44.7157 211.284 38 203 38H53Z" fill="white"/>
<path d="M224 51C224 42.7157 217.284 36 209 36H150V219H209C217.284 219 224 212.284 224 204V51Z" fill="white"/>
</svg>
