<svg width="256" height="256" viewBox="0 0 256 256" fill="none" xmlns="http://www.w3.org/2000/svg">
<path fill-rule="evenodd" clip-rule="evenodd" d="M127.905 14C132.047 14 135.405 17.3579 135.405 21.5L135.405 43.2109C142.731 43.6246 149.623 44.9077 156.08 47.06C164.221 49.5766 171.549 53.4254 178.062 58.6064C179.691 59.9387 180.801 61.493 181.393 63.2694C181.985 64.8977 182.059 66.5261 181.615 68.1544C181.171 69.6347 180.357 70.893 179.173 71.9292C178.136 72.9654 176.73 73.5575 174.954 73.7055C173.325 73.8536 171.475 73.2615 169.403 71.9292C163.481 67.4883 157.338 64.3056 150.973 62.3812C144.607 60.3088 137.576 59.2726 129.878 59.2726C122.033 59.2726 115.223 60.4568 109.45 62.8253C103.825 65.1938 99.3841 68.6725 96.1274 73.2615C93.0188 77.7024 91.4644 82.8834 91.4644 88.8047C91.4644 95.9101 93.6109 101.535 97.9038 105.68C102.345 109.825 109.524 112.86 119.442 114.784L142.535 119.669C157.486 122.778 168.514 127.515 175.62 133.88C182.873 140.097 186.5 148.609 186.5 159.415C186.5 165.929 185.168 171.924 182.503 177.401C179.839 182.878 175.99 187.615 170.957 191.612C165.924 195.461 159.855 198.421 152.749 200.494C147.46 202.036 141.678 203.005 135.405 203.399L135.405 234.911C135.405 239.053 132.047 242.411 127.905 242.411C123.762 242.411 120.405 239.053 120.405 234.911V203.312C116.33 203.027 112.309 202.532 108.34 201.826C101.679 200.642 95.4613 198.939 89.6881 196.719C84.0629 194.499 78.9558 191.686 74.3669 188.281C72.5905 186.949 71.3323 185.469 70.5921 183.84C70 182.064 69.852 180.362 70.148 178.733C70.5921 176.957 71.3323 175.477 72.3685 174.292C73.5527 173.108 74.959 172.442 76.5874 172.294C78.2157 172.146 79.9921 172.664 81.9165 173.848C88.5778 178.585 95.6833 182.064 103.233 184.284C110.782 186.357 119.294 187.393 128.768 187.393C142.091 187.393 151.935 184.951 158.3 180.066C164.814 175.032 168.07 168.445 168.07 160.303C168.07 153.642 165.702 148.461 160.965 144.76C156.376 140.911 148.604 137.877 137.65 135.656L114.557 130.993C100.642 128.033 90.2062 123.222 83.2487 116.56C76.4393 109.751 73.0346 100.721 73.0346 89.4708C73.0346 82.5134 74.4409 76.2221 77.2535 70.5969C80.0661 64.8237 83.9889 59.9387 89.0219 55.9419C94.055 51.797 100.05 48.6144 107.008 46.3939C111.204 45.0546 115.67 44.1193 120.405 43.5878V21.5C120.405 17.3579 123.762 14 127.905 14Z" fill="white"/>
</svg>
