<svg width="256" height="256" viewBox="0 0 256 256" fill="none" xmlns="http://www.w3.org/2000/svg">
<path d="M120.5 43C120.5 38.8579 123.858 35.5 128 35.5C132.142 35.5 135.5 38.8579 135.5 43L120.5 43ZM133.303 161.303C130.374 164.232 125.626 164.232 122.697 161.303L74.967 113.574C72.0381 110.645 72.0381 105.896 74.967 102.967C77.8959 100.038 82.6447 100.038 85.5736 102.967L128 145.393L170.426 102.967C173.355 100.038 178.104 100.038 181.033 102.967C183.962 105.896 183.962 110.645 181.033 113.574L133.303 161.303ZM135.5 43L135.5 156L120.5 156L120.5 43L135.5 43Z" fill="white"/>
<path fill-rule="evenodd" clip-rule="evenodd" d="M96.9081 143L118.454 164.546C123.726 169.818 132.274 169.818 137.546 164.546L159.092 143H204C215.046 143 224 151.954 224 163V192C224 203.046 215.046 212 204 212H52C40.9543 212 32 203.046 32 192V163C32 151.954 40.9543 143 52 143H96.9081ZM215 179C215 187.284 208.284 194 200 194C191.716 194 185 187.284 185 179C185 170.716 191.716 164 200 164C208.284 164 215 170.716 215 179Z" fill="white"/>
</svg>
