<svg width="256" height="256" viewBox="0 0 256 256" fill="none" xmlns="http://www.w3.org/2000/svg">
<path fill-rule="evenodd" clip-rule="evenodd" d="M80 128C80 119.163 72.8366 112 64 112C55.1634 112 48 119.163 48 128C48 136.837 55.1634 144 64 144C72.8366 144 80 136.837 80 128ZM128 112C136.837 112 144 119.163 144 128C144 136.837 136.837 144 128 144C119.163 144 112 136.837 112 128C112 119.163 119.163 112 128 112ZM192 112C200.837 112 208 119.163 208 128C208 136.837 200.837 144 192 144C183.163 144 176 136.837 176 128C176 119.163 183.163 112 192 112Z" fill="white"/>
</svg>
