<svg width="256" height="256" viewBox="0 0 256 256" fill="none" xmlns="http://www.w3.org/2000/svg">
<path fill-rule="evenodd" clip-rule="evenodd" d="M112 64C112 55.1634 119.163 48 128 48C136.837 48 144 55.1634 144 64C144 72.8366 136.837 80 128 80C119.163 80 112 72.8366 112 64ZM112 128C112 119.163 119.163 112 128 112C136.837 112 144 119.163 144 128C144 136.837 136.837 144 128 144C119.163 144 112 136.837 112 128ZM128 176C119.163 176 112 183.163 112 192C112 200.837 119.163 208 128 208C136.837 208 144 200.837 144 192C144 183.163 136.837 176 128 176Z" fill="white"/>
</svg>
