<svg width="256" height="256" viewBox="0 0 256 256" fill="none" xmlns="http://www.w3.org/2000/svg">
<path d="M150 36.8284C150 35.0466 152.154 34.1543 153.414 35.4142L198.586 80.5858C199.846 81.8457 198.953 84 197.172 84H160C154.477 84 150 79.5228 150 74V36.8284Z" fill="white"/>
<path d="M244 159C246.761 159 249 156.761 249 154C249 151.239 246.761 149 244 149V159ZM202 159H244V149H202V159Z" fill="white"/>
<path fill-rule="evenodd" clip-rule="evenodd" d="M54 47C54 38.7157 60.7157 32 69 32H137C139.761 32 142 34.2386 142 37V77C142 85.2843 148.716 92 157 92H197C199.761 92 202 94.2386 202 97V149H160.071L183.355 125.716C185.308 123.763 185.308 120.597 183.355 118.645C181.403 116.692 178.237 116.692 176.284 118.645L144.464 150.464C142.512 152.417 142.512 155.583 144.464 157.536L176.284 189.355C178.237 191.308 181.403 191.308 183.355 189.355C185.308 187.403 185.308 184.237 183.355 182.284L160.071 159H202V209C202 217.284 195.284 224 187 224H69C60.7157 224 54 217.284 54 209V47Z" fill="white"/>
</svg>
