<svg width="256" height="256" viewBox="0 0 256 256" fill="none" xmlns="http://www.w3.org/2000/svg">
<path d="M69 32C60.7157 32 54 38.7157 54 47V209C54 217.284 60.7157 224 69 224H187C195.284 224 202 217.284 202 209V97C202 94.2386 199.761 92 197 92H157C148.716 92 142 85.2843 142 77V37C142 34.2386 139.761 32 137 32H69Z" fill="white"/>
<path d="M150 36.8284C150 35.0466 152.154 34.1543 153.414 35.4142L198.586 80.5858C199.846 81.8457 198.953 84 197.172 84H160C154.477 84 150 79.5228 150 74V36.8284Z" fill="white"/>
</svg>
