<svg width="256" height="256" viewBox="0 0 256 256" fill="none" xmlns="http://www.w3.org/2000/svg">
<path d="M26.8415 47.5962C23.1204 42.2949 26.9126 35 33.3895 35H221.611C228.087 35 231.88 42.2949 228.158 47.5961L154.875 152L134.048 181.671C130.862 186.21 124.138 186.21 120.952 181.671L100.125 152L26.8415 47.5962Z" fill="white"/>
<path d="M100 126C100 121.582 103.582 118 108 118H147C151.418 118 155 121.582 155 126V214.711C155 217.639 151.956 219.575 149.304 218.333L103.456 196.868C101.347 195.881 100 193.763 100 191.434V126Z" fill="white"/>
</svg>
