<svg width="256" height="256" viewBox="0 0 256 256" fill="none" xmlns="http://www.w3.org/2000/svg">
<g clip-path="url(#clip0_31_261)">
<path d="M135.974 112.974C134.022 114.927 134.022 118.093 135.974 120.045C137.927 121.998 141.093 121.998 143.045 120.045L135.974 112.974ZM235.019 26C235.019 23.2386 232.781 21 230.019 21L185.019 21C182.258 21 180.019 23.2386 180.019 26C180.019 28.7614 182.258 31 185.019 31H225.019V71C225.019 73.7614 227.258 76 230.019 76C232.781 76 235.019 73.7614 235.019 71L235.019 26ZM143.045 120.045L233.555 29.5355L226.484 22.4645L135.974 112.974L143.045 120.045Z" fill="white"/>
<path d="M143.295 136.974C141.342 135.022 138.176 135.022 136.223 136.974C134.271 138.927 134.271 142.093 136.223 144.045L143.295 136.974ZM230.269 236.019C233.03 236.019 235.269 233.781 235.269 231.019L235.269 186.019C235.269 183.258 233.03 181.019 230.269 181.019C227.507 181.019 225.269 183.258 225.269 186.019V226.019H185.269C182.507 226.019 180.269 228.258 180.269 231.019C180.269 233.781 182.507 236.019 185.269 236.019L230.269 236.019ZM136.223 144.045L226.733 234.555L233.804 227.484L143.295 136.974L136.223 144.045Z" fill="white"/>
<path d="M121.045 112.974C122.998 114.927 122.998 118.093 121.045 120.045C119.093 121.998 115.927 121.998 113.974 120.045L121.045 112.974ZM22.0001 26C22.0001 23.2386 24.2387 21 27.0001 21L72.0001 21C74.7615 21 77.0001 23.2386 77.0001 26C77.0001 28.7614 74.7615 31 72.0001 31H32.0001V71C32.0001 73.7614 29.7615 76 27.0001 76C24.2387 76 22.0001 73.7614 22.0001 71L22.0001 26ZM113.974 120.045L23.4646 29.5355L30.5356 22.4645L121.045 112.974L113.974 120.045Z" fill="white"/>
<path d="M114.223 136.974C116.176 135.022 119.342 135.022 121.295 136.974C123.247 138.927 123.247 142.093 121.295 144.045L114.223 136.974ZM27.2494 236.019C24.4879 236.019 22.2494 233.781 22.2494 231.019L22.2494 186.019C22.2494 183.258 24.4879 181.019 27.2494 181.019C30.0108 181.019 32.2494 183.258 32.2494 186.019V226.019H72.2494C75.0108 226.019 77.2494 228.258 77.2494 231.019C77.2494 233.781 75.0108 236.019 72.2494 236.019L27.2494 236.019ZM121.295 144.045L30.7849 234.555L23.7138 227.484L114.223 136.974L121.295 144.045Z" fill="white"/>
<path d="M28.5772 26.5772L77.556 27.7909L29.7909 75.556L28.5772 26.5772Z" fill="white"/>
<path d="M229.039 27.5772L227.825 76.556L180.06 28.7909L229.039 27.5772Z" fill="white"/>
<path d="M28.5772 230.039L77.556 228.825L29.7909 181.06L28.5772 230.039Z" fill="white"/>
<path d="M229.039 230.039L227.825 181.06L180.06 228.825L229.039 230.039Z" fill="white"/>
</g>
<defs>
<clipPath id="clip0_31_261">
<rect width="256" height="256" fill="white"/>
</clipPath>
</defs>
</svg>
