<svg width="256" height="256" viewBox="0 0 256 256" fill="none" xmlns="http://www.w3.org/2000/svg">
  <path d="M248.642 14.5355C250.594 12.5829 250.594 9.41709 248.642 7.46447C246.689 5.51184 243.523 5.51184 241.571 7.46447L248.642 14.5355ZM149.597 101.51C149.597 104.271 151.835 106.51 154.597 106.51L199.597 106.51C202.358 106.51 204.597 104.271 204.597 101.51C204.597 98.7482 202.358 96.5097 199.597 96.5097H159.597V56.5097C159.597 53.7482 157.358 51.5097 154.597 51.5097C151.835 51.5097 149.597 53.7482 149.597 56.5097L149.597 101.51ZM241.571 7.46447L151.061 97.9741L158.132 105.045L248.642 14.5355L241.571 7.46447Z" fill="white"/>
  <path d="M241.321 248.642C243.274 250.595 246.44 250.595 248.392 248.642C250.345 246.689 250.345 243.524 248.392 241.571L241.321 248.642ZM154.347 149.597C151.586 149.597 149.347 151.835 149.347 154.597L149.347 199.597C149.347 202.358 151.586 204.597 154.347 204.597C157.109 204.597 159.347 202.358 159.347 199.597V159.597H199.347C202.109 159.597 204.347 157.358 204.347 154.597C204.347 151.835 202.109 149.597 199.347 149.597L154.347 149.597ZM248.392 241.571L157.883 151.061L150.812 158.132L241.321 248.642L248.392 241.571Z" fill="white"/>
  <path d="M7.46447 13.5355C5.51184 11.5829 5.51184 8.41709 7.46447 6.46447C9.41709 4.51184 12.5829 4.51184 14.5355 6.46447L7.46447 13.5355ZM106.51 100.51C106.51 103.271 104.271 105.51 101.51 105.51L56.5097 105.51C53.7482 105.51 51.5097 103.271 51.5097 100.51C51.5097 97.7482 53.7482 95.5097 56.5097 95.5097H96.5097V55.5097C96.5097 52.7482 98.7482 50.5097 101.51 50.5097C104.271 50.5097 106.51 52.7482 106.51 55.5097L106.51 100.51ZM14.5355 6.46447L105.045 96.9741L97.9741 104.045L7.46447 13.5355L14.5355 6.46447Z" fill="white"/>
  <path d="M14.5355 248.642C12.5829 250.595 9.41709 250.595 7.46447 248.642C5.51184 246.689 5.51184 243.523 7.46447 241.571L14.5355 248.642ZM101.51 149.597C104.271 149.597 106.51 151.835 106.51 154.597L106.51 199.597C106.51 202.358 104.271 204.597 101.51 204.597C98.7482 204.597 96.5097 202.358 96.5097 199.597V159.597H56.5097C53.7482 159.597 51.5097 157.358 51.5097 154.597C51.5097 151.835 53.7482 149.597 56.5097 149.597L101.51 149.597ZM7.46447 241.571L97.9741 151.061L105.045 158.132L14.5355 248.642L7.46447 241.571Z" fill="white"/>
  <path d="M99.9326 99.9325L50.9538 98.7187L98.7188 50.9537L99.9326 99.9325Z" fill="white"/>
  <path d="M155.577 99.9325L156.791 50.9537L204.556 98.7187L155.577 99.9325Z" fill="white"/>
  <path d="M100.182 155.577L51.203 156.791L98.9681 204.556L100.182 155.577Z" fill="white"/>
  <path d="M155.577 155.577L156.791 204.556L204.556 156.791L155.577 155.577Z" fill="white"/>
</svg>
