<svg width="256" height="256" viewBox="0 0 256 256" fill="none" xmlns="http://www.w3.org/2000/svg">
<path fill-rule="evenodd" clip-rule="evenodd" d="M56.5097 105.51H101.51C104.271 105.51 106.51 103.271 106.51 100.51V55.5097C106.51 52.7482 104.271 50.5097 101.51 50.5097C100.48 50.5097 99.5239 50.8206 98.7287 51.3538L98.7188 50.9537L78.8718 70.8007L14.5355 6.46447C12.5829 4.51184 9.41709 4.51184 7.46447 6.46447C5.51184 8.41709 5.51184 11.5829 7.46447 13.5355L71.8007 77.8718L50.9538 98.7187L51.8317 98.7405C51.6236 99.2905 51.5097 99.8868 51.5097 100.51C51.5097 103.271 53.7482 105.51 56.5097 105.51ZM154.597 106.51H199.597C202.358 106.51 204.597 104.271 204.597 101.51C204.597 100.485 204.288 99.5316 203.759 98.7384L204.556 98.7187L184.507 78.67L248.642 14.5355C250.594 12.5829 250.594 9.41709 248.642 7.46447C246.689 5.51184 243.523 5.51184 241.571 7.46447L177.436 71.5989L156.791 50.9537L156.765 52.003C156.109 51.6869 155.373 51.5097 154.597 51.5097C151.835 51.5097 149.597 53.7482 149.597 56.5097L149.597 101.51C149.597 104.271 151.835 106.51 154.597 106.51ZM149.347 154.597L149.347 199.597C149.347 202.358 151.586 204.597 154.347 204.597C155.229 204.597 156.057 204.369 156.776 203.968L156.791 204.556L177.013 184.334L241.321 248.642C243.274 250.595 246.44 250.595 248.392 248.642C250.345 246.689 250.345 243.524 248.392 241.571L184.084 177.263L204.556 156.791L203.85 156.773C204.169 156.115 204.347 155.377 204.347 154.597C204.347 151.835 202.109 149.597 199.347 149.597L154.347 149.597C151.586 149.597 149.347 151.835 149.347 154.597ZM106.51 154.597V199.597C106.51 202.358 104.271 204.597 101.51 204.597C100.588 204.597 99.7252 204.348 98.984 203.913L98.9681 204.556L78.7948 184.383L14.5355 248.642C12.5829 250.595 9.41709 250.595 7.46447 248.642C5.51184 246.689 5.51184 243.523 7.46447 241.571L71.7237 177.312L51.203 156.791L52.0059 156.771C51.6879 156.114 51.5097 155.376 51.5097 154.597C51.5097 151.835 53.7482 149.597 56.5097 149.597L101.51 149.597C104.271 149.597 106.51 151.835 106.51 154.597Z" fill="white"/>
</svg>
