<svg width="256" height="256" viewBox="0 0 256 256" fill="none" xmlns="http://www.w3.org/2000/svg">
<rect width="256" height="256" stroke="white"/>
<path fill-rule="evenodd" clip-rule="evenodd" d="M79.9848 160.225L73.1125 163.726C71.6353 164.479 69.9363 163.211 70.2379 161.581L74.9051 136.351C75.1444 135.057 76.5461 134.343 77.7333 134.91L100.888 145.964C102.384 146.678 102.412 148.798 100.934 149.551L88.9743 155.644C97.2748 167.35 110.655 175.283 126.098 176.092C152.904 177.497 175.773 156.905 177.178 130.099C178.583 103.293 157.991 80.4231 131.185 79.0182C113.965 78.1158 98.37 86.2903 89.0455 99.3582C87.4421 101.605 84.4115 102.465 82.0105 101.103C79.6067 99.739 78.7478 96.6694 80.3136 94.3922C91.482 78.1497 110.581 67.9247 131.708 69.0319C164.03 70.7258 188.858 98.3007 187.164 130.622C185.47 162.944 157.896 187.772 125.574 186.078C106.432 185.075 89.9176 174.994 79.9848 160.225Z" fill="white"/>
<path fill-rule="evenodd" clip-rule="evenodd" d="M128.653 132.767C127.106 132.214 126 130.736 126 129V92C126 89.7909 127.791 88 130 88C132.209 88 134 89.7909 134 92V126.468L155.884 137.056C157.872 138.019 158.704 140.411 157.742 142.399C156.78 144.388 154.388 145.22 152.399 144.258L128.653 132.767Z" fill="white"/>
</svg>
