<svg width="256" height="256" viewBox="0 0 256 256" fill="none" xmlns="http://www.w3.org/2000/svg">
<path fill-rule="evenodd" clip-rule="evenodd" d="M73.1126 163.726L79.9849 160.225C89.9177 174.994 106.432 185.075 125.574 186.078C157.896 187.772 185.471 162.944 187.164 130.622C188.858 98.3007 164.03 70.7259 131.708 69.032C110.581 67.9247 91.4821 78.1497 80.3136 94.3922C78.7478 96.6694 79.6068 99.739 82.0105 101.103C84.4116 102.465 87.4422 101.605 89.0456 99.3582C98.3701 86.2903 113.965 78.1158 131.185 79.0183C157.991 80.4231 178.583 103.293 177.178 130.099C175.773 156.905 152.904 177.497 126.098 176.092C110.655 175.283 97.2748 167.35 88.9743 155.645L100.934 149.551C102.412 148.798 102.384 146.678 100.888 145.964L77.7334 134.91C76.5462 134.343 75.1445 135.057 74.9051 136.351L70.238 161.581C69.9364 163.211 71.6354 164.479 73.1126 163.726ZM126 129C126 130.736 127.106 132.214 128.653 132.767L152.399 144.258C154.388 145.22 156.78 144.388 157.742 142.399C158.705 140.411 157.872 138.019 155.884 137.057L134 126.468V92C134 89.7909 132.209 88 130 88C127.791 88 126 89.7909 126 92V129Z" fill="white"/>
</svg>
