<svg width="256" height="256" viewBox="0 0 256 256" fill="none" xmlns="http://www.w3.org/2000/svg">
<path fill-rule="evenodd" clip-rule="evenodd" d="M121.796 18.9069C125.432 16.031 130.568 16.031 134.204 18.9069L235.345 98.9069C242.781 104.788 238.622 116.75 229.142 116.75H210V222C210 233.046 201.046 242 190 242H175C163.954 242 155 233.046 155 222V172V170C155 158.954 146.046 150 135 150H120C108.954 150 99.9999 158.954 99.9999 170V172V222C99.9999 233.046 91.0456 242 79.9999 242H64.9999C53.9543 242 44.9999 233.046 44.9999 222V116.75H26.8583C17.3778 116.75 13.219 104.788 20.6547 98.9069L121.796 18.9069Z" fill="white"/>
</svg>
