<svg width="256" height="256" viewBox="0 0 256 256" fill="none" xmlns="http://www.w3.org/2000/svg">
<g clip-path="url(#clip0_24_134)">
<rect x="186" y="86" width="24" height="156" rx="12" fill="white"/>
<rect x="45" y="39" width="24" height="65" rx="12" fill="white"/>
<path d="M121.796 18.9069C125.432 16.0311 130.568 16.0311 134.204 18.9069L235.345 98.9069C242.781 104.788 238.622 116.75 229.142 116.75H26.8584C17.3779 116.75 13.219 104.788 20.6547 98.9069L121.796 18.9069Z" fill="white"/>
<path fill-rule="evenodd" clip-rule="evenodd" d="M108 93H209V172H186V170C186 158.954 177.046 150 166 150H151C139.954 150 131 158.954 131 170V172H113V170C113 164.928 111.112 160.297 108 156.771V93Z" fill="white"/>
<path fill-rule="evenodd" clip-rule="evenodd" d="M65 86C53.9543 86 45 94.9543 45 106V222C45 233.046 53.9543 242 65 242H111C122.046 242 131 233.046 131 222V106C131 94.9543 122.046 86 111 86H65ZM83 150C71.9543 150 63 158.954 63 170V180C63 191.046 71.9543 200 83 200H93C104.046 200 113 191.046 113 180V170C113 158.954 104.046 150 93 150H83Z" fill="white"/>
</g>
<defs>
<clipPath id="clip0_24_134">
<rect width="256" height="256" fill="white"/>
</clipPath>
</defs>
</svg>
