<svg width="256" height="256" viewBox="0 0 256 256" fill="none" xmlns="http://www.w3.org/2000/svg">
<path fill-rule="evenodd" clip-rule="evenodd" d="M20 57C20 45.9543 28.9543 37 40 37H215.704C226.749 37 235.704 45.9543 235.704 57V199C235.704 210.046 226.749 219 215.704 219H40C28.9543 219 20 210.046 20 199V57ZM85.1605 76.321C85.1605 85.628 77.6157 93.1728 68.3086 93.1728C59.0016 93.1728 51.4568 85.628 51.4568 76.321C51.4568 67.014 59.0016 59.4691 68.3086 59.4691C77.6157 59.4691 85.1605 67.014 85.1605 76.321ZM147.961 90.7087C150.282 86.7707 155.978 86.7707 158.299 90.7087L219.309 194.225C221.666 198.225 218.783 203.272 214.14 203.272H144.171C143.599 203.453 142.98 203.552 142.325 203.552H41.4773C36.5619 203.552 33.732 197.966 36.6398 194.003L87.0638 125.282C89.4612 122.014 94.3413 122.014 96.7387 125.282L113.844 148.594L147.961 90.7087Z" fill="white"/>
</svg>
