<svg width="256" height="256" viewBox="0 0 256 256" fill="none" xmlns="http://www.w3.org/2000/svg">
<path fill-rule="evenodd" clip-rule="evenodd" d="M83 48C74.1635 48 67 55.1634 67 64C67 72.8366 74.1634 80 83 80H240C248.837 80 256 72.8366 256 64C256 55.1634 248.837 48 240 48H83ZM83 112C74.1635 112 67 119.163 67 128C67 136.837 74.1634 144 83 144H240C248.837 144 256 136.837 256 128C256 119.163 248.837 112 240 112H83ZM67 192C67 183.163 74.1635 176 83 176H240C248.837 176 256 183.163 256 192C256 200.837 248.837 208 240 208H83C74.1634 208 67 200.837 67 192ZM55.563 121.14C60.7428 124.247 60.7428 131.753 55.563 134.86L21.3652 155.374C16.033 158.572 9.25 154.731 9.25 148.513V107.487C9.25 101.269 16.033 97.4277 21.3652 100.626L55.563 121.14Z" fill="white"/>
</svg>
