<svg width="256" height="256" viewBox="0 0 256 256" fill="none" xmlns="http://www.w3.org/2000/svg">
<path fill-rule="evenodd" clip-rule="evenodd" d="M128 228C183.228 228 228 183.228 228 128C228 72.7715 183.228 28 128 28C72.7715 28 28 72.7715 28 128C28 183.228 72.7715 228 128 228ZM86.5938 192.219C86.5938 197.742 91.0709 202.219 96.5938 202.219H160.188C165.71 202.219 170.188 197.742 170.188 192.219V191.595C170.188 186.072 165.71 181.595 160.188 181.595H145.086C143.429 181.595 142.086 180.251 142.086 178.594V110.979C142.086 105.456 137.609 100.979 132.086 100.979H106.753C101.231 100.979 96.7534 105.456 96.7534 110.979V111.603C96.7534 117.126 101.231 121.603 106.753 121.603H114.52C116.176 121.603 117.52 122.946 117.52 124.603V178.595C117.52 180.251 116.176 181.595 114.52 181.595H96.5938C91.0709 181.595 86.5938 186.072 86.5938 191.594V192.219ZM116.39 78.6453C119.214 81.4708 122.603 82.8835 126.557 82.8835C130.51 82.8835 133.899 81.4708 136.724 78.6453C139.736 75.8199 141.242 72.4293 141.242 68.4736C141.242 64.518 139.736 61.1274 136.724 58.302C133.899 55.2882 130.51 53.7812 126.557 53.7812C122.415 53.7812 118.932 55.194 116.108 58.0194C113.472 60.8449 112.154 64.3296 112.154 68.4736C112.154 72.4293 113.566 75.8199 116.39 78.6453Z" fill="white"/>
</svg>
