<svg width="256" height="256" viewBox="0 0 256 256" fill="none" xmlns="http://www.w3.org/2000/svg">
<path fill-rule="evenodd" clip-rule="evenodd" d="M10 48C4.47715 48 0 52.4772 0 58V70C0 75.5228 4.47715 80 10 80H22C27.5228 80 32 75.5228 32 70V58C32 52.4772 27.5228 48 22 48H10ZM61 48C52.1634 48 45 55.1634 45 64C45 72.8366 52.1634 80 61 80H240C248.837 80 256 72.8366 256 64C256 55.1634 248.837 48 240 48H61ZM0 122C0 116.477 4.47715 112 10 112H22C27.5228 112 32 116.477 32 122V134C32 139.523 27.5228 144 22 144H10C4.47715 144 0 139.523 0 134V122ZM10 176C4.47715 176 0 180.477 0 186V198C0 203.523 4.47715 208 10 208H22C27.5228 208 32 203.523 32 198V186C32 180.477 27.5228 176 22 176H10ZM45 128C45 119.163 52.1634 112 61 112H240C248.837 112 256 119.163 256 128C256 136.837 248.837 144 240 144H61C52.1634 144 45 136.837 45 128ZM61 176C52.1634 176 45 183.163 45 192C45 200.837 52.1634 208 61 208H240C248.837 208 256 200.837 256 192C256 183.163 248.837 176 240 176H61Z" fill="white"/>
</svg>
