<svg width="256" height="256" viewBox="0 0 256 256" fill="none" xmlns="http://www.w3.org/2000/svg">
<path fill-rule="evenodd" clip-rule="evenodd" d="M16 48C7.16344 48 0 55.1634 0 64C0 72.8366 7.16344 80 16 80C24.8366 80 32 72.8366 32 64C32 55.1634 24.8366 48 16 48ZM61 48C52.1634 48 45 55.1634 45 64C45 72.8366 52.1634 80 61 80H240C248.837 80 256 72.8366 256 64C256 55.1634 248.837 48 240 48H61ZM0 128C0 119.163 7.16344 112 16 112C24.8366 112 32 119.163 32 128C32 136.837 24.8366 144 16 144C7.16344 144 0 136.837 0 128ZM16 176C7.16344 176 0 183.163 0 192C0 200.837 7.16344 208 16 208C24.8366 208 32 200.837 32 192C32 183.163 24.8366 176 16 176ZM45 128C45 119.163 52.1634 112 61 112H240C248.837 112 256 119.163 256 128C256 136.837 248.837 144 240 144H61C52.1634 144 45 136.837 45 128ZM61 176C52.1634 176 45 183.163 45 192C45 200.837 52.1634 208 61 208H240C248.837 208 256 200.837 256 192C256 183.163 248.837 176 240 176H61Z" fill="white"/>
</svg>
