<svg width="256" height="256" viewBox="0 0 256 256" fill="none" xmlns="http://www.w3.org/2000/svg">
<path fill-rule="evenodd" clip-rule="evenodd" d="M127.5 0C93.5345 0 66 27.5345 66 61.5V100H60C48.9543 100 40 108.954 40 120V236C40 247.046 48.9543 256 60 256H196C207.046 256 216 247.046 216 236V120C216 108.954 207.046 100 196 100H189V61.5C189 27.5345 161.466 0 127.5 0ZM177 100V61.5C177 34.1619 154.838 12 127.5 12C100.162 12 78 34.1619 78 61.5V100H177ZM134 180.179C137.598 177.985 140 174.023 140 169.5C140 162.596 134.404 157 127.5 157C120.596 157 115 162.596 115 169.5C115 174.43 117.854 178.693 122 180.728V193C122 196.314 124.686 199 128 199C131.314 199 134 196.314 134 193V180.179Z" fill="white"/>
</svg>
