<svg width="256" height="256" viewBox="0 0 256 256" fill="none" xmlns="http://www.w3.org/2000/svg">
<path fill-rule="evenodd" clip-rule="evenodd" d="M78.0397 59.5H66.0319C67.0875 26.4602 94.2037 0 127.5 0C161.466 0 189 27.5345 189 61.5V100H196C207.046 100 216 108.954 216 120V236C216 247.046 207.046 256 196 256H60C48.9543 256 40 247.046 40 236V120C40 108.954 48.9543 100 60 100H177V61.5C177 34.1619 154.838 12 127.5 12C100.832 12 79.0892 33.0892 78.0397 59.5ZM134 180.179C137.598 177.985 140 174.023 140 169.5C140 162.596 134.404 157 127.5 157C120.596 157 115 162.596 115 169.5C115 174.43 117.854 178.693 122 180.728V193C122 196.314 124.686 199 128 199C131.314 199 134 196.314 134 193V180.179Z" fill="white"/>
</svg>
