<svg width="256" height="256" viewBox="0 0 256 256" fill="none" xmlns="http://www.w3.org/2000/svg">
<path fill-rule="evenodd" clip-rule="evenodd" d="M91 115C91 142.614 113.386 165 141 165C168.614 165 191 142.614 191 115C191 87.3858 168.614 65 141 65C113.386 65 91 87.3858 91 115ZM103.253 173.961C114.144 180.948 127.099 185 141 185C179.66 185 211 153.66 211 115C211 76.3401 179.66 45 141 45C102.34 45 71 76.3401 71 115C71 128.901 75.0521 141.856 82.0395 152.747L34.3934 200.393C28.5355 206.251 28.5355 215.749 34.3934 221.607C40.2513 227.464 49.7487 227.464 55.6066 221.607L103.253 173.961Z" fill="white"/>
</svg>
