<svg width="256" height="256" viewBox="0 0 256 256" fill="none" xmlns="http://www.w3.org/2000/svg">
<g clip-path="url(#clip0_31_320)">
  <path d="M135.974 112.974C134.022 114.927 134.022 118.093 135.974 120.045C137.927 121.998 141.093 121.998 143.045 120.045L135.974 112.974ZM235.019 26C235.019 23.2386 232.781 21 230.019 21L185.019 21C182.258 21 180.019 23.2386 180.019 26C180.019 28.7614 182.258 31 185.019 31H225.019V71C225.019 73.7614 227.258 76 230.019 76C232.781 76 235.019 73.7614 235.019 71L235.019 26ZM143.045 120.045L233.555 29.5355L226.484 22.4644L135.974 112.974L143.045 120.045Z" fill="white"/>
  <path d="M114.223 136.974C116.176 135.021 119.342 135.021 121.295 136.974C123.247 138.927 123.247 142.093 121.295 144.045L114.223 136.974ZM27.2494 236.019C24.4879 236.019 22.2494 233.781 22.2494 231.019L22.2494 186.019C22.2494 183.258 24.4879 181.019 27.2494 181.019C30.0108 181.019 32.2494 183.258 32.2494 186.019V226.019H72.2494C75.0108 226.019 77.2494 228.258 77.2494 231.019C77.2494 233.781 75.0108 236.019 72.2494 236.019L27.2494 236.019ZM121.295 144.045L30.7849 234.555L23.7138 227.484L114.223 136.974L121.295 144.045Z" fill="white"/>
  <path d="M229.039 27.5772L227.825 76.556L180.06 28.7909L229.039 27.5772Z" fill="white"/>
  <path d="M28.5772 230.039L77.556 228.825L29.7909 181.06L28.5772 230.039Z" fill="white"/>
</g>
<defs>
<clipPath id="clip0_31_320">
  <rect width="256" height="256" fill="white"/>
</clipPath>
</defs>
</svg>
