<svg width="256" height="256" viewBox="0 0 256 256" fill="none" xmlns="http://www.w3.org/2000/svg">
<path fill-rule="evenodd" clip-rule="evenodd" d="M230.019 21L185.019 21C182.258 21 180.019 23.2386 180.019 26C180.019 27.025 180.328 27.978 180.857 28.7712L180.06 28.7909L200.109 48.8396L135.974 112.974C134.022 114.927 134.022 118.093 135.974 120.045C137.927 121.998 141.093 121.998 143.045 120.045L207.18 55.9107L227.825 76.556L227.851 75.5067C228.507 75.8228 229.242 76 230.019 76C232.781 76 235.019 73.7614 235.019 71V26C235.019 23.2386 232.781 21 230.019 21ZM22.2493 231.019L22.2493 186.019C22.2493 183.258 24.4878 181.019 27.2493 181.019C28.1706 181.019 29.0337 181.269 29.7749 181.703L29.7909 181.06L49.9641 201.233L114.223 136.974C116.176 135.022 119.342 135.022 121.294 136.974C123.247 138.927 123.247 142.093 121.294 144.045L57.0352 208.304L77.5559 228.825L76.7531 228.845C77.071 229.503 77.2493 230.24 77.2493 231.019C77.2493 233.781 75.0107 236.019 72.2493 236.019H27.2493C24.4878 236.019 22.2493 233.781 22.2493 231.019Z" fill="white"/>
</svg>
