<svg width="256" height="256" viewBox="0 0 256 256" fill="none" xmlns="http://www.w3.org/2000/svg">
<rect width="256" height="256" stroke="white"/>
<path d="M248.642 14.5355C250.594 12.5829 250.594 9.41709 248.642 7.46447C246.689 5.51184 243.523 5.51184 241.571 7.46447L248.642 14.5355ZM149.597 101.51C149.597 104.271 151.835 106.51 154.597 106.51L199.597 106.51C202.358 106.51 204.597 104.271 204.597 101.51C204.597 98.7482 202.358 96.5097 199.597 96.5097H159.597V56.5097C159.597 53.7482 157.358 51.5097 154.597 51.5097C151.835 51.5097 149.597 53.7482 149.597 56.5097L149.597 101.51ZM241.571 7.46447L151.061 97.9741L158.132 105.045L248.642 14.5355L241.571 7.46447Z" fill="white"/>
<path d="M14.5355 248.642C12.5829 250.595 9.41709 250.595 7.46447 248.642C5.51184 246.689 5.51184 243.524 7.46447 241.571L14.5355 248.642ZM101.51 149.597C104.271 149.597 106.51 151.835 106.51 154.597L106.51 199.597C106.51 202.358 104.271 204.597 101.51 204.597C98.7482 204.597 96.5097 202.358 96.5097 199.597V159.597H56.5097C53.7482 159.597 51.5097 157.358 51.5097 154.597C51.5097 151.835 53.7482 149.597 56.5097 149.597L101.51 149.597ZM7.46447 241.571L97.9741 151.061L105.045 158.132L14.5355 248.642L7.46447 241.571Z" fill="white"/>
<path d="M155.577 99.9326L156.791 50.9538L204.556 98.7188L155.577 99.9326Z" fill="white"/>
<path d="M100.182 155.577L51.203 156.791L98.9681 204.556L100.182 155.577Z" fill="white"/>
</svg>
