<svg width="256" height="256" viewBox="0 0 256 256" fill="none" xmlns="http://www.w3.org/2000/svg">
<path fill-rule="evenodd" clip-rule="evenodd" d="M123.205 24.2022C125.145 20.9498 129.855 20.9498 131.794 24.2022L150.271 55.1894C152.259 58.5222 149.857 62.7501 145.977 62.7501H109.023C105.143 62.7501 102.741 58.5222 104.728 55.1893L123.205 24.2022ZM94.4968 146H85.9286L98.984 108.182H109.288L122.325 146H113.757L110.957 137.376H97.3022L94.4968 146ZM104.284 116.824L108.93 131.135H99.3326L103.988 116.824H104.284ZM138.506 146V141.254L157.378 114.774H138.469V108.182H167.423V112.928L148.533 139.408H167.46V146H138.506ZM131.813 230.649C129.881 233.942 125.119 233.942 123.187 230.649L104.638 199.03C102.682 195.697 105.086 191.5 108.95 191.5H146.05C149.914 191.5 152.318 195.697 150.362 199.03L131.813 230.649Z" fill="white"/>
</svg>
