<svg width="256" height="256" viewBox="0 0 256 256" fill="none" xmlns="http://www.w3.org/2000/svg">
<rect width="256" height="256" stroke="white"/>
<path d="M94.4968 146H85.9286L98.984 108.182H109.288L122.325 146H113.757L104.284 116.824H103.988L94.4968 146ZM93.9613 131.135H114.2V137.376H93.9613V131.135ZM138.506 146V141.254L157.378 114.774H138.469V108.182H167.423V112.928L148.533 139.408H167.46V146H138.506Z" fill="white"/>
<path d="M123.206 24.2021C125.145 20.9498 129.855 20.9498 131.794 24.2022L150.271 55.1893C152.259 58.5221 149.857 62.75 145.977 62.75H109.023C105.143 62.75 102.741 58.5221 104.729 55.1893L123.206 24.2021Z" fill="white"/>
<path d="M123.187 230.649C125.119 233.942 129.881 233.942 131.813 230.649L150.362 199.03C152.318 195.697 149.914 191.5 146.05 191.5H108.95C105.086 191.5 102.682 195.697 104.638 199.03L123.187 230.649Z" fill="white"/>
</svg>
