<svg width="256" height="256" viewBox="0 0 256 256" fill="none" xmlns="http://www.w3.org/2000/svg">
<g clip-path="url(#clip0_9_4)">
<path fill-rule="evenodd" clip-rule="evenodd" d="M120 120H112H16C11.5817 120 8 123.582 8 128C8 132.418 11.5817 136 16 136H112H120V144V240C120 244.418 123.582 248 128 248C132.418 248 136 244.418 136 240V144V136H144H240C244.418 136 248 132.418 248 128C248 123.582 244.418 120 240 120H144H136V112V16C136 11.5817 132.418 8 128 8C123.582 8 120 11.5817 120 16V112V120ZM112 104V16C112 7.16344 119.163 0 128 0C136.837 0 144 7.16344 144 16V104V112H152H240C248.837 112 256 119.163 256 128C256 136.837 248.837 144 240 144H152H144V152V240C144 248.837 136.837 256 128 256C119.163 256 112 248.837 112 240V152V144H104H16C7.16344 144 0 136.837 0 128C0 119.163 7.16344 112 16 112H104H112V104Z" fill="white"/>
</g>
<defs>
<clipPath id="clip0_9_4">
<rect width="256" height="256" fill="white"/>
</clipPath>
</defs>
</svg>
