<svg width="256" height="256" viewBox="0 0 256 256" fill="none" xmlns="http://www.w3.org/2000/svg">
<path fill-rule="evenodd" clip-rule="evenodd" d="M105.349 209.181C100.467 214.062 92.5524 214.062 87.6708 209.181L14.8392 136.349L14.8388 136.349C9.95728 131.467 9.95728 123.553 14.8388 118.671C14.8652 118.645 14.8916 118.618 14.9181 118.592L87.6712 45.8394C92.5527 40.9578 100.467 40.9578 105.349 45.8394C110.23 50.7209 110.23 58.6355 105.349 63.5171L41.3557 127.51L105.349 191.503C110.23 196.385 110.23 204.299 105.349 209.181ZM149.671 209.181C154.552 214.062 162.467 214.062 167.349 209.181L240.18 136.349L240.181 136.349C245.062 131.467 245.062 123.553 240.181 118.671C240.154 118.645 240.128 118.618 240.101 118.592L167.348 45.8394C162.467 40.9578 154.552 40.9578 149.671 45.8394C144.789 50.7209 144.789 58.6355 149.671 63.5171L213.664 127.51L149.671 191.503C144.789 196.385 144.789 204.299 149.671 209.181Z" fill="white"/>
</svg>
