<svg width="256" height="256" viewBox="0 0 256 256" fill="none" xmlns="http://www.w3.org/2000/svg">
  <path d="M204 71.5C207.59 71.5 210.5 74.4101 210.5 78C210.5 81.5899 207.59 84.5 204 84.5V71.5ZM208.596 173.404C211.135 175.942 211.135 180.058 208.596 182.596L167.23 223.962C164.692 226.5 160.576 226.5 158.038 223.962C155.5 221.424 155.5 217.308 158.038 214.77L194.808 178L158.038 141.23C155.5 138.692 155.5 134.576 158.038 132.038C160.576 129.5 164.692 129.5 167.23 132.038L208.596 173.404ZM204 84.5H101V71.5H204V84.5ZM101 171.5H204V184.5H101V171.5ZM57.5 128C57.5 152.024 76.9756 171.5 101 171.5V184.5C69.7959 184.5 44.5 159.204 44.5 128H57.5ZM101 84.5C76.9756 84.5 57.5 103.976 57.5 128H44.5C44.5 96.7959 69.7959 71.5 101 71.5V84.5Z" fill="white"/>
</svg>
