<svg width="256" height="256" viewBox="0 0 256 256" fill="none" xmlns="http://www.w3.org/2000/svg">
  <path fill-rule="evenodd" clip-rule="evenodd" d="M175.211 160.225L182.084 163.726C183.561 164.479 185.26 163.211 184.958 161.581L180.291 136.351C180.052 135.057 178.65 134.343 177.463 134.91L154.308 145.964C152.812 146.678 152.785 148.798 154.262 149.551L166.222 155.644C157.922 167.35 144.541 175.283 129.099 176.092C102.293 177.497 79.4231 156.905 78.0182 130.099C76.6134 103.293 97.2052 80.4231 124.011 79.0182C141.231 78.1158 156.826 86.2903 166.151 99.3582C167.754 101.605 170.785 102.465 173.186 101.103C175.59 99.739 176.449 96.6694 174.883 94.3922C163.714 78.1497 144.615 67.9247 123.488 69.0319C91.1665 70.7258 66.338 98.3007 68.0319 130.622C69.7258 162.944 97.3007 187.772 129.622 186.078C148.765 185.075 165.279 174.994 175.211 160.225Z" fill="white"/>
</svg>
