<svg width="256" height="256" viewBox="0 0 256 256" fill="none" xmlns="http://www.w3.org/2000/svg">
<path fill-rule="evenodd" clip-rule="evenodd" d="M190.127 85.2099L200.197 80.0791C201.675 79.3264 203.373 80.5946 203.072 82.2249L196.612 117.147C196.373 118.441 194.971 119.155 193.784 118.588L161.734 103.288C160.238 102.573 160.21 100.453 161.688 99.7007L178.441 91.1643C167.601 75.8741 150.125 65.5113 129.954 64.4542C94.9458 62.6195 65.0784 89.5122 63.2437 124.521C61.409 159.529 88.3017 189.397 123.31 191.231C145.81 192.411 166.186 181.724 178.361 164.643C180.444 161.721 184.384 160.604 187.505 162.375C190.63 164.148 191.747 168.138 189.712 171.099C175.14 192.307 150.209 205.659 122.63 204.214C80.4515 202.003 48.0511 166.019 50.2615 123.84C52.472 81.6619 88.4563 49.2615 130.635 51.472C155.615 52.7812 177.166 65.9369 190.127 85.2099Z" fill="white"/>
</svg>
