<svg width="256" height="256" viewBox="0 0 256 256" fill="none" xmlns="http://www.w3.org/2000/svg">
<path fill-rule="evenodd" clip-rule="evenodd" d="M52 143L52 128L52 113C52 88.1472 72.1472 68 97 68C104.18 68 110 62.1797 110 55C110 47.8203 104.18 42 97 42C57.7878 42 26 73.7878 26 113V128V143C26 182.212 57.7878 214 97 214C104.18 214 110 208.18 110 201C110 193.82 104.18 188 97 188C72.1472 188 52 167.853 52 143ZM204 143V128V113C204 88.1472 183.853 68 159 68C151.82 68 146 62.1797 146 55C146 47.8203 151.82 42 159 42C198.212 42 230 73.7878 230 113V128V143C230 182.212 198.212 214 159 214C151.82 214 146 208.18 146 201C146 193.82 151.82 188 159 188C183.853 188 204 167.853 204 143Z" fill="white"/>
</svg>
