<svg width="256" height="256" viewBox="0 0 256 256" fill="none" xmlns="http://www.w3.org/2000/svg">
<path fill-rule="evenodd" clip-rule="evenodd" d="M201.539 43.1472L43.1472 201.539C40.023 204.663 40.023 209.729 43.1472 212.853C46.2714 215.977 51.3367 215.977 54.4609 212.853L212.853 54.4609C215.977 51.3367 215.977 46.2714 212.853 43.1472C209.729 40.023 204.663 40.023 201.539 43.1472ZM37.4904 218.51C43.7388 224.758 53.8694 224.758 60.1178 218.51L218.51 60.1178C224.758 53.8694 224.758 43.7387 218.51 37.4904C212.261 31.242 202.131 31.242 195.882 37.4904L37.4904 195.882C31.242 202.131 31.242 212.261 37.4904 218.51Z" fill="white"/>
</svg>
