<svg width="256" height="256" viewBox="0 0 256 256" fill="none" xmlns="http://www.w3.org/2000/svg">
<path fill-rule="evenodd" clip-rule="evenodd" d="M115.255 43.6001L81.7751 175H101.575L109.495 141.7H146.755L154.675 175H174.295L140.815 43.6001H115.255ZM142.975 125.68H113.095L122.095 87.5201C123.775 80.9201 125.095 75.1601 126.055 70.2401C127.015 65.2001 127.675 61.7801 128.035 59.9801C128.395 61.7801 129.055 65.2001 130.015 70.2401C131.095 75.1601 132.415 80.9801 133.975 87.7001L142.975 125.68ZM158.731 229.69C161.257 232.046 165.202 231.932 167.589 229.452C167.696 229.352 167.801 229.248 167.902 229.139L213.141 180.626C215.521 178.074 215.381 174.077 212.829 171.697C210.278 169.318 206.28 169.457 203.9 172.009L162.738 216.15L139.626 194.598C137.074 192.219 133.077 192.358 130.697 194.91C128.318 197.462 128.457 201.459 131.009 203.839L158.731 229.69Z" fill="white"/>
</svg>
