<svg width="256" height="256" viewBox="0 0 256 256" fill="none" xmlns="http://www.w3.org/2000/svg">
  <path fill-rule="evenodd" clip-rule="evenodd" d="M167.589 229.452C165.202 231.932 161.257 232.046 158.731 229.69L131.009 203.839C128.457 201.459 128.318 197.462 130.697 194.91C133.077 192.358 137.074 192.219 139.626 194.598L162.738 216.15L203.901 172.009C206.28 169.457 210.278 169.318 212.829 171.697C215.381 174.077 215.521 178.074 213.141 180.626L167.902 229.139C167.801 229.248 167.696 229.352 167.589 229.452Z" fill="white"/>
  <path d="M81.7752 175L115.255 43.6H140.815L174.295 175H154.675L146.755 141.7H109.495L101.575 175H81.7752ZM113.095 125.68H142.975L133.975 87.7C132.415 80.98 131.095 75.16 130.015 70.24C129.055 65.2 128.395 61.78 128.035 59.98C127.675 61.78 127.015 65.2 126.055 70.24C125.095 75.16 123.775 80.92 122.095 87.52L113.095 125.68Z" fill="white"/>
</svg>
