<svg width="256" height="256" viewBox="0 0 256 256" fill="none" xmlns="http://www.w3.org/2000/svg">
<g clip-path="url(#clip0_7_3)">
<path fill-rule="evenodd" clip-rule="evenodd" d="M236 8H20C13.3726 8 8 13.3726 8 20V236C8 242.627 13.3726 248 20 248H236C242.627 248 248 242.627 248 236V20C248 13.3726 242.627 8 236 8ZM20 0C8.95431 0 0 8.95431 0 20V236C0 247.046 8.95431 256 20 256H236C247.046 256 256 247.046 256 236V20C256 8.95431 247.046 0 236 0H20Z" fill="white"/>
</g>
<defs>
<clipPath id="clip0_7_3">
<rect width="256" height="256" fill="white"/>
</clipPath>
</defs>
</svg>
