<svg width="256" height="256" viewBox="0 0 256 256" fill="none" xmlns="http://www.w3.org/2000/svg">
<rect width="256" height="256" stroke="white"/>
<path d="M128.755 194.8C120.115 194.8 112.675 193.36 106.435 190.48C100.315 187.6 95.5752 183.46 92.2152 178.06C88.8552 172.66 87.1152 166.24 86.9952 158.8H103.195C103.195 165.4 105.415 170.62 109.855 174.46C114.415 178.3 120.715 180.22 128.755 180.22C136.315 180.22 142.195 178.36 146.395 174.64C150.715 170.92 152.875 165.76 152.875 159.16C152.875 153.88 151.435 149.26 148.555 145.3C145.795 141.34 141.775 138.58 136.495 137.02L118.675 131.44C109.675 128.68 102.715 124.06 97.7952 117.58C92.9952 111.1 90.5952 103.48 90.5952 94.72C90.5952 87.64 92.1552 81.52 95.2752 76.36C98.5152 71.08 103.015 67 108.775 64.12C114.535 61.12 121.315 59.62 129.115 59.62C140.635 59.62 149.875 62.86 156.835 69.34C163.795 75.7 167.335 84.22 167.455 94.9H151.255C151.255 88.42 149.275 83.38 145.315 79.78C141.475 76.06 136.015 74.2 128.935 74.2C121.975 74.2 116.515 75.88 112.555 79.24C108.715 82.6 106.795 87.28 106.795 93.28C106.795 98.68 108.235 103.36 111.115 107.32C113.995 111.28 118.135 114.1 123.535 115.78L141.535 121.54C150.295 124.3 157.075 128.98 161.875 135.58C166.675 142.18 169.075 149.92 169.075 158.8C169.075 166 167.395 172.3 164.035 177.7C160.675 183.1 155.935 187.3 149.815 190.3C143.815 193.3 136.795 194.8 128.755 194.8Z" fill="white"/>
<line x1="73.0943" y1="123.096" x2="183.074" y2="125.191" stroke="white" stroke-width="10" stroke-linecap="round"/>
</svg>
