<svg width="256" height="256" viewBox="0 0 256 256" fill="none" xmlns="http://www.w3.org/2000/svg">
<g clip-path="url(#clip0_35_530)">
<path opacity="0.8" d="M107.318 78.5469C101.693 78.5469 97.0645 78.8398 93.4316 79.4258C89.916 80.0117 86.9863 81.2422 84.6426 83.1172C82.416 84.9922 80.5996 87.6289 79.1934 91.0273C77.9043 94.3086 76.6738 98.7031 75.502 104.211H70.5801L71.8105 70.1094H185.014L186.244 104.211H181.322C180.15 98.7031 178.861 94.3086 177.455 91.0273C176.166 87.6289 174.408 84.9922 172.182 83.1172C169.955 81.2422 167.025 80.0117 163.393 79.4258C159.76 78.8398 155.072 78.5469 149.33 78.5469H138.607V181.379C138.607 185.012 138.842 187.941 139.311 190.168C139.779 192.395 140.658 194.152 141.947 195.441C143.354 196.73 145.287 197.668 147.748 198.254C150.326 198.723 153.666 199.074 157.768 199.309V203H99.4082V199.309C103.51 199.074 106.791 198.723 109.252 198.254C111.713 197.668 113.588 196.672 114.877 195.266C116.283 193.742 117.162 191.691 117.514 189.113C117.982 186.535 118.217 183.137 118.217 178.918V78.5469H107.318Z" fill="white"/>
</g>
<defs>
<clipPath id="clip0_35_530">
<rect width="256" height="256" fill="white"/>
</clipPath>
</defs>
</svg>
