<svg width="256" height="256" viewBox="0 0 256 256" fill="none" xmlns="http://www.w3.org/2000/svg">
<rect width="256" height="256" stroke="white"/>
<rect x="67" y="48" width="189" height="32" rx="16" fill="white"/>
<rect x="67" y="112" width="189" height="32" rx="16" fill="white"/>
<rect x="67" y="176" width="189" height="32" rx="16" fill="white"/>
<path fill-rule="evenodd" clip-rule="evenodd" d="M27.6653 48.8848C30.7724 43.7051 38.2791 43.7051 41.3861 48.8848L61.8995 83.0826C65.098 88.4149 61.2571 95.1978 55.0391 95.1978H43.5257L43.5257 161.698H55.0391C61.2571 161.698 65.098 168.481 61.8995 173.813L41.3861 208.011C38.2791 213.191 30.7724 213.191 27.6653 208.011L7.15194 173.813C3.95344 168.481 7.79441 161.698 14.0124 161.698H25.5257L25.5257 95.1978H14.0124C7.79441 95.1978 3.95344 88.4149 7.15194 83.0826L27.6653 48.8848Z" fill="white"/>
</svg>
