<svg width="256" height="256" viewBox="0 0 256 256" fill="none" xmlns="http://www.w3.org/2000/svg">
<path fill-rule="evenodd" clip-rule="evenodd" d="M218 64C218 55.1634 210.837 48 202 48H54C45.1634 48 38 55.1634 38 64C38 72.8366 45.1635 80 54 80H202C210.837 80 218 72.8366 218 64ZM218 128C218 119.163 210.837 112 202 112H54C45.1634 112 38 119.163 38 128C38 136.837 45.1635 144 54 144H202C210.837 144 218 136.837 218 128ZM202 176C210.837 176 218 183.163 218 192C218 200.837 210.837 208 202 208H54C45.1635 208 38 200.837 38 192C38 183.163 45.1634 176 54 176H202Z" fill="white"/>
</svg>
