<svg width="256" height="256" viewBox="0 0 256 256" fill="none" xmlns="http://www.w3.org/2000/svg">
<path fill-rule="evenodd" clip-rule="evenodd" d="M0 64C0 55.1634 7.16344 48 16 48H137C145.837 48 153 55.1634 153 64C153 72.8366 145.837 80 137 80H16C7.16344 80 0 72.8366 0 64ZM0 128C0 119.163 7.16344 112 16 112H93C101.837 112 109 119.163 109 128C109 136.837 101.837 144 93 144H16C7.16345 144 0 136.837 0 128ZM16 176C7.16344 176 0 183.163 0 192C0 200.837 7.16345 208 16 208H149C157.837 208 165 200.837 165 192C165 183.163 157.837 176 149 176H16Z" fill="white"/>
</svg>
