<svg width="256" height="256" viewBox="0 0 256 256" fill="none" xmlns="http://www.w3.org/2000/svg">
<path fill-rule="evenodd" clip-rule="evenodd" d="M17 33C17 40.0904 21.6121 46.1037 28 48.2032V207.797C21.6121 209.896 17 215.91 17 223C17 231.837 24.1634 239 33 239C40.0904 239 46.1037 234.388 48.2032 228H207.797C209.896 234.388 215.91 239 223 239C231.837 239 239 231.837 239 223C239 215.91 234.388 209.896 228 207.797V48.2032C234.388 46.1037 239 40.0904 239 33C239 24.1634 231.837 17 223 17C215.91 17 209.896 21.6121 207.797 28H48.2032C46.1037 21.6121 40.0904 17 33 17C24.1634 17 17 24.1634 17 33ZM48.2032 218H207.797C209.379 213.185 213.185 209.379 218 207.797V48.2032C213.185 46.6207 209.379 42.8148 207.797 38H48.2032C46.6207 42.8148 42.8148 46.6207 38 48.2032V207.797C42.8148 209.379 46.6207 213.185 48.2032 218ZM93.4316 79.4258C97.0645 78.8398 101.693 78.5469 107.318 78.5469H118.217V178.918C118.217 183.137 117.982 186.535 117.514 189.113C117.162 191.691 116.283 193.742 114.877 195.266C113.588 196.672 111.713 197.668 109.252 198.254C106.791 198.723 103.51 199.074 99.4082 199.309V203H157.768V199.309C153.666 199.074 150.326 198.723 147.748 198.254C145.287 197.668 143.354 196.73 141.947 195.441C140.658 194.152 139.779 192.395 139.311 190.168C138.842 187.941 138.607 185.012 138.607 181.379V78.5469H149.33C155.072 78.5469 159.76 78.8398 163.393 79.4258C167.025 80.0117 169.955 81.2422 172.182 83.1172C174.408 84.9922 176.166 87.6289 177.455 91.0273C178.861 94.3086 180.15 98.7031 181.322 104.211H186.244L185.014 70.1094H71.8105L70.5801 104.211H75.502C76.6738 98.7031 77.9043 94.3086 79.1934 91.0273C80.5996 87.6289 82.416 84.9922 84.6426 83.1172C86.9863 81.2422 89.916 80.0117 93.4316 79.4258Z" fill="white"/>
</svg>
