<svg width="256" height="256" viewBox="0 0 256 256" fill="none" xmlns="http://www.w3.org/2000/svg">
<path fill-rule="evenodd" clip-rule="evenodd" d="M41.3861 48.8848C38.2791 43.7051 30.7724 43.7051 27.6653 48.8848L7.15194 83.0826C3.95344 88.4149 7.79441 95.1978 14.0124 95.1978H25.5257L25.5257 161.698H14.0124C7.79441 161.698 3.95344 168.481 7.15194 173.813L27.6653 208.011C30.7724 213.191 38.2791 213.191 41.3861 208.011L61.8995 173.813C65.098 168.481 61.2571 161.698 55.0391 161.698H43.5257L43.5257 95.1978H55.0391C61.2571 95.1978 65.098 88.4149 61.8995 83.0826L41.3861 48.8848ZM83 48.0001C74.1634 48.0001 67 55.1635 67 64.0001C67 72.8366 74.1634 80.0001 83 80.0001H240C248.837 80.0001 256 72.8366 256 64.0001C256 55.1635 248.837 48.0001 240 48.0001H83ZM83 112C74.1634 112 67 119.164 67 128C67 136.837 74.1634 144 83 144H240C248.837 144 256 136.837 256 128C256 119.164 248.837 112 240 112H83ZM67 192C67 183.164 74.1634 176 83 176H240C248.837 176 256 183.164 256 192C256 200.837 248.837 208 240 208H83C74.1634 208 67 200.837 67 192Z" fill="white"/>
</svg>
