<svg width="256" height="256" viewBox="0 0 256 256" fill="none" xmlns="http://www.w3.org/2000/svg">
  <path d="M128.035 194.8C115.795 194.8 106.435 191.44 99.9552 184.72C93.4752 177.88 90.2352 168.64 90.2352 157V61.6H106.435V157C106.435 164.2 108.175 169.9 111.655 174.1C115.255 178.3 120.715 180.4 128.035 180.4C135.235 180.4 140.635 178.3 144.235 174.1C147.835 169.9 149.635 164.2 149.635 157V61.6H165.835V157C165.835 168.76 162.595 178 156.115 184.72C149.755 191.44 140.395 194.8 128.035 194.8Z" fill="white"/>
<line x1="83.0943" y1="202.096" x2="173.078" y2="203.81" stroke="white" stroke-width="10" stroke-linecap="round"/>
</svg>
