<svg width="256" height="256" viewBox="0 0 256 256" fill="none" xmlns="http://www.w3.org/2000/svg">
<path fill-rule="evenodd" clip-rule="evenodd" d="M99.9552 184.72C106.435 191.44 115.795 194.8 128.035 194.8C140.395 194.8 149.755 191.44 156.115 184.72C162.595 178 165.835 168.76 165.835 157V61.6001H149.635V157C149.635 164.2 147.835 169.9 144.235 174.1C140.635 178.3 135.235 180.4 128.035 180.4C120.715 180.4 115.255 178.3 111.655 174.1C108.175 169.9 106.435 164.2 106.435 157V61.6001H90.2352V157C90.2352 168.64 93.4752 177.88 99.9552 184.72ZM78 200C75.7909 200 74 201.791 74 204C74 206.209 75.7909 208 78 208L178 208C180.209 208 182 206.209 182 204C182 201.791 180.209 200 178 200L78 200Z" fill="white"/>
</svg>
