<svg width="256" height="256" viewBox="0 0 256 256" fill="none" xmlns="http://www.w3.org/2000/svg">
<g clip-path="url(#clip0_55_2)">
<path d="M114 56C114 49.9249 118.925 45 125 45H132C138.075 45 143 49.9249 143 56V147C143 153.075 138.075 158 132 158H125C118.925 158 114 153.075 114 147V56Z" fill="white"/>
<path d="M128.5 201C136.508 201 143 194.508 143 186.5C143 178.492 136.508 172 128.5 172C120.492 172 114 178.492 114 186.5C114 194.508 120.492 201 128.5 201Z" fill="white"/>
<path fill-rule="evenodd" clip-rule="evenodd" d="M128 256C198.692 256 256 198.692 256 128C256 57.3076 198.692 0 128 0C57.3076 0 0 57.3076 0 128C0 198.692 57.3076 256 128 256ZM128 238C188.751 238 238 188.751 238 128C238 67.2487 188.751 18 128 18C67.2487 18 18 67.2487 18 128C18 188.751 67.2487 238 128 238Z" fill="white"/>
</g>
<defs>
<clipPath id="clip0_55_2">
<rect width="256" height="256" fill="white"/>
</clipPath>
</defs>
</svg>
