<svg width="256" height="256" viewBox="0 0 256 256" fill="none" xmlns="http://www.w3.org/2000/svg">
<path fill-rule="evenodd" clip-rule="evenodd" d="M168.634 29.0854L86.8886 29.0854L29.0857 86.8883L29.0857 168.634L86.8886 226.437L168.634 226.437L226.437 168.634V86.8883L168.634 29.0854ZM179.019 14.0144C177.144 12.139 174.6 11.0855 171.948 11.0854L83.5749 11.0855C80.9227 11.0855 78.3792 12.139 76.5038 14.0144L14.0146 76.5036C12.1393 78.3789 11.0857 80.9225 11.0857 83.5746L11.0857 171.948C11.0857 174.6 12.1393 177.143 14.0146 179.019L76.5038 241.508C78.3792 243.383 80.9227 244.437 83.5749 244.437L171.948 244.437C174.6 244.437 177.144 243.383 179.019 241.508L241.508 179.019C243.384 177.143 244.437 174.6 244.437 171.948L244.437 83.5746C244.437 80.9225 243.384 78.3789 241.508 76.5036L179.019 14.0144ZM114 61C114 54.9248 118.925 50 125 50H132C138.075 50 143 54.9248 143 61V152C143 158.075 138.075 163 132 163H125C118.925 163 114 158.075 114 152V61ZM128.5 206C136.508 206 143 199.508 143 191.5C143 183.492 136.508 177 128.5 177C120.492 177 114 183.492 114 191.5C114 199.508 120.492 206 128.5 206Z" fill="white"/>
</svg>
