<svg width="256" height="256" viewBox="0 0 256 256" fill="none" xmlns="http://www.w3.org/2000/svg">
<path fill-rule="evenodd" clip-rule="evenodd" d="M116.686 128L111.029 133.657L43.1472 201.539C40.023 204.663 40.023 209.729 43.1472 212.853C46.2714 215.977 51.3367 215.977 54.4609 212.853L122.343 144.971L128 139.314L133.657 144.971L201.539 212.853C204.663 215.977 209.729 215.977 212.853 212.853C215.977 209.729 215.977 204.663 212.853 201.539L144.971 133.657L139.314 128L144.971 122.343L212.853 54.4609C215.977 51.3367 215.977 46.2714 212.853 43.1472C209.729 40.023 204.663 40.023 201.539 43.1472L133.657 111.029L128 116.686L122.343 111.029L54.4609 43.1472C51.3367 40.023 46.2714 40.023 43.1472 43.1472C40.023 46.2714 40.023 51.3367 43.1472 54.4609L111.029 122.343L116.686 128ZM99.7157 122.343L37.4903 60.1177C31.2419 53.8693 31.2419 43.7387 37.4903 37.4903C43.7387 31.2419 53.8693 31.2419 60.1177 37.4903L122.343 99.7157L128 105.373L133.657 99.7157L195.882 37.4903C202.131 31.2419 212.261 31.2419 218.51 37.4903C224.758 43.7387 224.758 53.8693 218.51 60.1177L156.284 122.343L150.627 128L156.284 133.657L218.51 195.882C224.758 202.131 224.758 212.261 218.51 218.51C212.261 224.758 202.131 224.758 195.882 218.51L133.657 156.284L128 150.627L122.343 156.284L60.1177 218.51C53.8693 224.758 43.7387 224.758 37.4903 218.51C31.2419 212.261 31.2419 202.131 37.4903 195.882L99.7157 133.657L105.373 128L99.7157 122.343Z" fill="white"/>
</svg>
